<svg id="Layer_1" data-name="Layer 1" xmlns="http://www.w3.org/2000/svg" viewBox="0 0 120 120"><title>Housing</title><path d="M109.42,52.41,61,15.45,26.37,41.83a9.44,9.44,0,0,0-3.75,2.86L12.5,52.41h8.12V92.6A9.36,9.36,0,0,0,30,101.92H91.12a9.36,9.36,0,0,0,9.32-9.32V52.41Z" fill="#fff"/><path d="M100.86,39.41a1.59,1.59,0,0,1-1.59-1.59v-13a6.81,6.81,0,0,0-13.62,0,1.59,1.59,0,1,1-3.17,0,10,10,0,0,1,20,0v13A1.59,1.59,0,0,1,100.86,39.41Z" fill="#009ca6"/><polyline points="9.25 53.93 60.85 14.34 112.68 54.84" fill="#fff"/><path d="M112.68,57.22a2.41,2.41,0,0,1-1.46-.5L60.84,17.34,10.7,55.82A2.38,2.38,0,0,1,7.8,52L59.4,12.45a2.39,2.39,0,0,1,2.92,0L114.15,53a2.38,2.38,0,0,1-1.47,4.25Z" fill="#302e2c"/><path d="M74.62,108.28a2.37,2.37,0,0,1-2.38-2.38V75.44c0-2.19-2.51-4-5.48-4H55.17c-3,0-5.48,1.86-5.48,4V105.9a2.38,2.38,0,1,1-4.76,0V75.44c0-4.85,4.59-8.81,10.24-8.81H66.76c5.65,0,10.24,4,10.24,8.81V105.9A2.38,2.38,0,0,1,74.62,108.28Z" fill="#005eb8"/><path d="M29.07,99.79A5.78,5.78,0,0,1,23.29,94V58.42a2.22,2.22,0,0,0-4.43,0V94a10.22,10.22,0,0,0,10.21,10.21h7V99.79Z" fill="#302e2c"/><path d="M100.86,56.21a2.21,2.21,0,0,0-2.22,2.21V94a5.78,5.78,0,0,1-5.78,5.78h-7v4.43h7A10.22,10.22,0,0,0,103.07,94V58.42A2.21,2.21,0,0,0,100.86,56.21Z" fill="#302e2c"/></svg>