<svg id="Layer_1" data-name="Layer 1" xmlns="http://www.w3.org/2000/svg" viewBox="0 0 120 120"><title>Events</title><path d="M11.23,50.54c.28-1.42.62-2.84,1-4.26a51.21,51.21,0,1,1,35.09,63.35" fill="#fff" stroke="#302e2c" stroke-linecap="round" stroke-linejoin="round" stroke-width="4.79"/><path d="M62.37,65.11h0a2.42,2.42,0,0,0,2.43-2.38l.32-36.19a2.41,2.41,0,0,0-2.38-2.42h0a2.41,2.41,0,0,0-2.43,2.38L60,62.68A2.42,2.42,0,0,0,62.37,65.11Z" fill="#005eb8"/><rect x="59.99" y="60.3" width="29.8" height="4.81" rx="2.41" fill="#005eb8"/><line x1="11.17" y1="84.02" x2="33.95" y2="84.02" fill="none" stroke="#009ca6" stroke-linecap="round" stroke-linejoin="round" stroke-width="3.17"/><line x1="7.83" y1="95.91" x2="42.4" y2="95.91" fill="none" stroke="#009ca6" stroke-linecap="round" stroke-linejoin="round" stroke-width="3.17"/><line x1="3.23" y1="72.12" x2="41.27" y2="72.12" fill="none" stroke="#009ca6" stroke-linecap="round" stroke-linejoin="round" stroke-width="3.17"/></svg>