<?xml version="1.0" encoding="utf-8"?>
<!-- Generator: Adobe Illustrator 23.0.4, SVG Export Plug-In . SVG Version: 6.00 Build 0)  -->
<svg version="1.1" id="Layer_1" xmlns="http://www.w3.org/2000/svg" xmlns:xlink="http://www.w3.org/1999/xlink" x="0px" y="0px"
	 viewBox="0 0 386.8 146.4" style="enable-background:new 0 0 386.8 146.4;" xml:space="preserve">
<style type="text/css">
	.st0{fill-rule:evenodd;clip-rule:evenodd;fill:#302E2C;}
	.st1{fill:#005EB8;}
	.st2{fill-rule:evenodd;clip-rule:evenodd;fill:#FE5000;}
	.st3{filter:url(#Adobe_OpacityMaskFilter);}
	.st4{fill-rule:evenodd;clip-rule:evenodd;fill:#FFFFFF;}
	.st5{mask:url(#mask_1_);}
	.st6{fill-rule:evenodd;clip-rule:evenodd;fill:#2AD2C9;}
	.st7{filter:url(#Adobe_OpacityMaskFilter_1_);}
	.st8{mask:url(#mask-2_1_);}
	.st9{fill-rule:evenodd;clip-rule:evenodd;fill:#FFB81C;}
</style>
<title>LogoStacked</title>
<path class="st0" d="M172.2,69.4h9.9v0.5c-0.2,3.7,2.7,6.8,6.4,7c0.2,0,0.4,0,0.6,0c4.3,0,6.7-2.3,6.7-5.7s-4.5-5.2-9.5-7.3
	c-6.3-2.6-13.4-5.9-13.4-14.7c0-7.7,6.2-13.3,15.6-13.3c10.1,0,16.3,5.1,16.3,14.7h-9.4V50c0-4.3-2.6-6.1-6.8-6.1
	c-3.8,0-6.2,2.1-6.2,5c0,3.8,4.7,5.5,9.9,7.6c6.3,2.6,13.2,6,13.2,14.5c0,7.1-4.9,14.3-16.1,14.3C178.4,85.3,172.2,79.7,172.2,69.4z
	"/>
<path class="st0" d="M235.9,68.1c0.1-4.7-3.6-8.7-8.3-8.8c-0.1,0-0.2,0-0.3,0c-4.9-0.1-9,3.7-9.1,8.6c-0.1,4.9,3.7,9,8.6,9.1
	c4.9,0.1,9-3.7,9.1-8.6C235.9,68.3,235.9,68.2,235.9,68.1z M209.2,68.2c0-11.7,8.8-17.2,16.5-17.2c3.7-0.1,7.3,1.3,10,3.9v-3.2h9.3
	v33h-9.3V81c-2.6,2.9-6.3,4.5-10.2,4.3C218.3,85.3,209.2,79.8,209.2,68.2z"/>
<path class="st0" d="M250,51.7h9.2v3.7c2.3-2.8,5.7-4.4,9.3-4.4c8,0,12.8,5,12.8,13.5v20.1h-9.4V65.7c0-4.4-2.1-7-6.2-7
	c-3.5,0-6.4,2.4-6.4,7.9v18H250L250,51.7z"/>
<path class="st0" d="M283.7,51.7h5.7V44l9.3-5v12.7h6.4v8.1h-6.4v10.5c0,5.1,0.7,5.9,6.4,5.9v8.4h-1.4c-10.7,0-14.2-3.6-14.2-14.3
	V59.8h-5.8V51.7z"/>
<path class="st0" d="M334.1,68.1c0.1-4.7-3.6-8.7-8.4-8.8c-0.1,0-0.2,0-0.3,0c-4.9-0.1-9,3.8-9.1,8.6c-0.1,4.9,3.8,9,8.6,9.1
	c4.9,0.1,9-3.8,9.1-8.6C334.1,68.3,334.1,68.2,334.1,68.1z M307.3,68.2c0-11.7,8.8-17.2,16.4-17.2c3.7-0.1,7.4,1.3,10.1,3.9v-3.2
	h9.2v33h-9.2V81c-2.6,2.9-6.3,4.5-10.2,4.3C316.4,85.3,307.3,79.8,307.3,68.2z"/>
<path class="st0" d="M173.1,96.7h9.3l14.8,20l15.3-20h8.8v48.1H212v-33.4L197.1,131l-14.6-19.4v33.2h-9.4V96.7z"/>
<path class="st0" d="M251.4,128.3c0-4.7-3.8-8.5-8.5-8.6c-4.7,0-8.6,3.8-8.6,8.6c0,4.7,3.8,8.6,8.6,8.6
	C247.6,136.9,251.4,133,251.4,128.3z M225.4,128.3c-0.2-9.7,7.5-17.6,17.1-17.8c9.7-0.2,17.6,7.5,17.8,17.1
	c0.2,9.7-7.5,17.6-17.1,17.8c-0.1,0-0.2,0-0.3,0c-9.5,0.1-17.4-7.5-17.5-17C225.4,128.4,225.4,128.4,225.4,128.3L225.4,128.3z"/>
<path class="st0" d="M264.1,111.8h9.2v3.7c2.3-2.8,5.7-4.4,9.3-4.4c8,0,12.8,5,12.8,13.5v20.1H286v-18.9c0-4.4-2.1-7-6.2-7
	c-3.5,0-6.4,2.4-6.4,7.9v18h-9.2V111.8z"/>
<path class="st0" d="M300.1,144.8h9.3v-33h-9.3V144.8z M304.7,97.7c2.9-0.2,5.4,2.1,5.6,5c0,0.2,0,0.3,0,0.5
	c0.1,2.9-2.2,5.3-5.1,5.4c-0.2,0-0.4,0-0.5,0c-2.9,0.2-5.3-2-5.5-4.8c0-0.2,0-0.4,0-0.6c-0.1-2.9,2.1-5.3,5-5.5
	C304.3,97.6,304.5,97.6,304.7,97.7z"/>
<path class="st0" d="M313.1,128.3c0.1-9.5,7.8-17.2,17.4-17.2c0,0,0.1,0,0.1,0c9.3,0,16.7,6.2,17.4,15h-9.2c-0.7-4-3.9-6.5-8.2-6.5
	c-4.7-0.1-8.6,3.7-8.6,8.4c0,0,0,0.1,0,0.1c0,5.1,3.4,8.6,8.7,8.6c4,0.2,7.5-2.7,8.1-6.6h9.2c-0.7,8.9-8.3,15.2-17.5,15.2
	C320.5,145.5,313.1,138.4,313.1,128.3z"/>
<path class="st0" d="M377.8,128.3c0.1-4.8-3.6-8.7-8.4-8.8c-0.1,0-0.2,0-0.3,0c-4.9-0.1-9,3.7-9.1,8.6c-0.1,4.9,3.7,9,8.6,9.1
	c4.9,0.1,9-3.7,9.1-8.6C377.8,128.4,377.8,128.4,377.8,128.3z M351.1,128.3c0-11.7,8.8-17.1,16.4-17.1c3.7-0.1,7.4,1.3,10.1,3.9
	v-3.2h9.2v33h-9.2v-3.7c-2.6,2.9-6.3,4.5-10.2,4.4C360.2,145.5,351.1,139.9,351.1,128.3z"/>
<ellipse class="st1" cx="75" cy="73.2" rx="71" ry="69.2"/>
<path class="st1" d="M75,8c36.9,0,67,29.3,67,65.2s-30,65.2-67,65.2S8,109.2,8,73.2S38.1,8,75,8 M75,0C33.6,0,0,32.8,0,73.2
	s33.6,73.2,75,73.2s75-32.8,75-73.2S116.4,0,75,0z"/>
<path class="st2" d="M62.3,21.9c-10.8-8-32.4-3.9-30.4,12.2c1.8-4.3,3.9-6.8,7.5-8.7c7.4-3.9,20.2-0.2,20.1,9.3
	c-0.1,4.2-2.7,8.5-7.2,8.9C48.1,44,44.5,41,44,36.9c-0.1-0.5-0.1-1.1,0-1.6c0.1,3.1,2.6,5.5,5.6,5.5c3.1,0,5.6-2.6,5.6-5.7
	c0-0.4,0-0.8-0.1-1.1c-0.8-4.1-4.9-6-8.8-6c-4.6,0.1-10.8,3.6-11.1,12c-0.2,7.2,5,12.8,14.4,13.7c7.3,0.7,15.6-2.6,18.8-9.3
	C72,36.7,69.2,27,62.6,22L62.3,21.9z"/>
<defs>
	<filter id="Adobe_OpacityMaskFilter" filterUnits="userSpaceOnUse" x="66.6" y="41" width="105.4" height="29.7">
		<feColorMatrix  type="matrix" values="1 0 0 0 0  0 1 0 0 0  0 0 1 0 0  0 0 0 1 0"/>
	</filter>
</defs>
<mask maskUnits="userSpaceOnUse" x="66.6" y="41" width="105.4" height="29.7" id="mask_1_">
	<g transform="translate(6.76 -4.97)" class="st3">
		<g id="mask0_1_">
			<path class="st4" d="M68.4,5.6C27,5.6-6.5,38.1-6.5,78.3S27,151,68.4,151s74.9-32.6,74.9-72.7S109.8,5.6,68.4,5.6z"/>
		</g>
	</g>
</mask>
<g class="st5">
	<path class="st6" d="M66.6,70.7l34.5-17.8l12.4,6.4L148.7,41l18,13.1l5.4,16.4L66.6,70.7z"/>
</g>
<defs>
	<filter id="Adobe_OpacityMaskFilter_1_" filterUnits="userSpaceOnUse" x="-12.1" y="78.2" width="123.5" height="94.8">
		<feColorMatrix  type="matrix" values="1 0 0 0 0  0 1 0 0 0  0 0 1 0 0  0 0 0 1 0"/>
	</filter>
</defs>
<mask maskUnits="userSpaceOnUse" x="-12.1" y="78.2" width="123.5" height="94.8" id="mask-2_1_">
	<g transform="translate(6.76 -4.97)" class="st7">
		<g id="mask1_1_">
			<path class="st4" d="M68.2,5.9C26.9,5.9-6.7,38.5-6.7,78.6s33.6,72.7,74.9,72.7s74.9-32.6,74.9-72.7S109.6,5.9,68.2,5.9z"/>
		</g>
	</g>
</mask>
<g class="st8">
	<path class="st9" d="M-11.2,173l87.5-11.4c23.5-15,32.6-27.9,34.8-42.5c1.7-11.2-2-21.2-11.8-27.6c-11.8-7.7-26.7-10.4-40.5-11.7
		c-5.3-0.5-10.6-0.8-15.9-1c-18.3-0.8-36.6-0.9-54.9-0.1v1.9c0-1.1,43.2-0.2,47.2,0.1c14.2,1.1,31.2,2.7,43.7,10
		c5.5,3.2,10.2,8.2,10.6,14.6c0.6,8.3-3.9,15.1-12.7,21.9c-9.1,7.1-24.4,12.9-45.7,18.9L-11.2,173z"/>
</g>
<path class="st0" d="M170.6,13.8c0-7,5.6-12.6,13.1-12.6c5.6,0,10.6,3.7,12.1,9.2h-5.1c-1.1-2.9-4-4.8-7.2-4.6
	c-4.4-0.4-8.3,2.9-8.7,7.3s2.9,8.3,7.3,8.7c0.5,0,0.9,0,1.4,0c3,0.1,5.8-1.6,7-4.4h5.3c-1.6,5.4-6.5,9-12.1,9
	C176.1,26.3,170.6,20.8,170.6,13.8z"/>
<path class="st0" d="M197.7,26h4.7V9.3h-4.7V26z M200,2.1c1.5-0.1,2.7,1,2.8,2.5c0,0.1,0,0.2,0,0.3c-0.1,1.6-1.4,2.7-3,2.7
	c-1.4-0.1-2.6-1.2-2.7-2.7c-0.1-1.5,1.1-2.7,2.5-2.8C199.8,2.1,199.9,2.1,200,2.1L200,2.1z"/>
<path class="st0" d="M204.2,9.3h2.9V5.4l4.7-2.5v6.4h3.2v4.1h-3.2v5.3c0,2.6,0.3,3,3.2,3V26h-0.7c-5.4,0-7.2-1.8-7.2-7.3v-5.4h-2.9
	L204.2,9.3z"/>
<path class="st0" d="M223.7,25.3l-6.8-16h4.9l4.2,10.3l3.9-10.3h4.9l-9.9,24.5h-4.7L223.7,25.3z"/>
<path class="st0" d="M255.6,17.6c0-2.4-1.9-4.3-4.3-4.4c-2.4,0.1-4.3,2.2-4.1,4.6c0.1,2.2,1.9,4,4.1,4.1
	C253.7,22,255.6,20,255.6,17.6z M242.4,17.6c-0.1-4.9,3.8-9,8.7-9.1c4.9-0.1,9,3.8,9.1,8.7c0.1,4.9-3.8,9-8.7,9.1
	c-0.1,0-0.1,0-0.2,0C246.4,26.4,242.5,22.5,242.4,17.6C242.4,17.7,242.4,17.7,242.4,17.6z"/>
<path class="st0" d="M261,9.3h2.9V8.8c0-5.5,1.8-7.3,7.5-7.3h0.4v4.3c-2.9,0-3.2,0.4-3.2,3v0.4h3.2v4.1h-3.2V26H264V13.4H261
	L261,9.3z"/>
<path class="st1" d="M75,8c36.9,0,67,29.3,67,65.2s-30,65.2-67,65.2S8,109.2,8,73.2S38.1,8,75,8 M75,0C33.6,0,0,32.8,0,73.2
	s33.6,73.2,75,73.2s75-32.8,75-73.2S116.4,0,75,0z"/>
</svg>
