<svg id="Layer_1" data-name="Layer 1" xmlns="http://www.w3.org/2000/svg" viewBox="0 0 120 120"><title>Upcoming Classes</title><path d="M29.4,19.72H20.63C17,19.72,14,23.52,14,28.15V97.42c0,4.64,3,8.43,6.63,8.43h79.68c3.65,0,6.63-3.79,6.63-8.43V28.15c0-4.63-3-8.43-6.63-8.43H90" fill="#fff" stroke="#302e2c" stroke-linecap="round" stroke-linejoin="round" stroke-width="4.79"/><line x1="27.22" y1="39.77" x2="93.72" y2="39.77" fill="none" stroke="#009ca6" stroke-linecap="round" stroke-linejoin="round" stroke-width="3.17"/><line x1="76.48" y1="11.96" x2="76.48" y2="24.23" fill="#fff" stroke="#302e2c" stroke-linecap="round" stroke-linejoin="round" stroke-width="4.79"/><line x1="44.46" y1="11.96" x2="44.46" y2="24.23" fill="#fff" stroke="#302e2c" stroke-linecap="round" stroke-linejoin="round" stroke-width="4.79"/><path d="M61.17,70.65a31,31,0,0,1-.36,5.09,12,12,0,0,1-1.34,3.86,8.9,8.9,0,0,1-3.18,3.29,8.63,8.63,0,0,1-9.24-.4,9.5,9.5,0,0,1-3.28-4.29A16.63,16.63,0,0,1,43,74.88,28,28,0,0,1,42.69,71,38.17,38.17,0,0,1,43,66.05a16.12,16.12,0,0,1,.9-3.75A8.08,8.08,0,0,1,51.82,57a9.07,9.07,0,0,1,3.37.6,7.84,7.84,0,0,1,2.67,1.77,10.08,10.08,0,0,1,1.93,2.88A20.54,20.54,0,0,1,61.17,70.65Zm-5-.36a30.53,30.53,0,0,0-.39-5.4,6.7,6.7,0,0,0-1.34-3.18,3.29,3.29,0,0,0-2.6-1.07A3.34,3.34,0,0,0,48.58,63a21.87,21.87,0,0,0-.93,7.4,31.14,31.14,0,0,0,.4,5.55,7,7,0,0,0,1.33,3.28,3.49,3.49,0,0,0,5.15,0,7.19,7.19,0,0,0,1.31-3.3A32.85,32.85,0,0,0,56.22,70.29Z" fill="#005eb8"/><path d="M73.34,81.15V64.74q-4.57,3.51-6.17,3.51a1.83,1.83,0,0,1-1.34-.6,2,2,0,0,1-.59-1.4,1.6,1.6,0,0,1,.58-1.35,13.4,13.4,0,0,1,2-1.12,15.14,15.14,0,0,0,3.49-2.17,14.35,14.35,0,0,0,2.32-2.54A20.32,20.32,0,0,1,75,57.34,1.55,1.55,0,0,1,76.14,57a1.84,1.84,0,0,1,1.53.74,3.23,3.23,0,0,1,.58,2V80.45q0,3.63-2.47,3.63A2.29,2.29,0,0,1,74,83.34,3.2,3.2,0,0,1,73.34,81.15Z" fill="#005eb8"/></svg>