<svg id="Layer_1" data-name="Layer 1" xmlns="http://www.w3.org/2000/svg" viewBox="0 0 120 120"><title>BBB</title><rect x="17.04" y="10.37" width="88.12" height="86.99" rx="6.74" stroke-width="4.79" stroke="#302e2c" stroke-linecap="round" stroke-linejoin="round" fill="#fff"/><path d="M49.77,103.15v4a4.44,4.44,0,0,1-4.43,4.43H39a4.44,4.44,0,0,1-4.43-4.43v-4" fill="#302e2c"/><path d="M87.73,103.15v4a4.44,4.44,0,0,1-4.43,4.43H76.91a4.44,4.44,0,0,1-4.43-4.43v-4" fill="#302e2c"/><circle cx="36.24" cy="83.42" r="7.5" fill="#005eb8"/><circle cx="85.18" cy="83.42" r="7.5" fill="#005eb8"/><rect x="28.74" y="29.18" width="64.94" height="39.47" rx="5.19" fill="none" stroke="#302e2c" stroke-miterlimit="10" stroke-width="4.76"/><line x1="42.15" y1="19.59" x2="78.55" y2="19.59" fill="none" stroke="#009ca6" stroke-linecap="round" stroke-linejoin="round" stroke-width="3.17"/><line x1="8.75" y1="29.19" x2="8.75" y2="43.61" fill="none" stroke="#302e2c" stroke-linecap="round" stroke-linejoin="round" stroke-width="4.79"/><line x1="112.5" y1="29.19" x2="112.5" y2="43.61" fill="none" stroke="#302e2c" stroke-linecap="round" stroke-linejoin="round" stroke-width="4.79"/></svg>