<svg id="Layer_1" data-name="Layer 1" xmlns="http://www.w3.org/2000/svg" viewBox="0 0 120 120"><title>Libraries</title><path d="M59.83,33.47c0-3.39,2.86-6.77,6.31-8.49,0,0,5.07-2.23,20.28-2.59,14.61-.35,18.26,2.43,20.44,3.78,1.86,1.46,4.7,3.64,6.16,7.3v61.1a6.16,6.16,0,0,1-6.15,6.15S99.52,95.8,86.42,95.8a48.18,48.18,0,0,0-9.94,1" fill="#fff" stroke="#302e2c" stroke-linecap="round" stroke-linejoin="round" stroke-width="4.79"/><path d="M59.83,33.47c0-3.39-2.86-6.77-6.31-8.49,0,0-5.08-2.23-20.29-2.59C18.63,22,15,24.82,12.79,26.17c-1.86,1.46-4.7,3.64-6.16,7.3v61.1a6.16,6.16,0,0,0,6.15,6.15s7.34-4.92,20.44-4.92,20.45,4.92,20.45,4.92a6.16,6.16,0,0,0,6.15-6.15" fill="#fff" stroke="#302e2c" stroke-linecap="round" stroke-linejoin="round" stroke-width="4.79"/><path d="M72.9,61.05s10.32-4.82,26.15,0V45.71c-15.83-4.82-26.15,0-26.15,0Z" fill="none" stroke="#005eb8" stroke-linecap="round" stroke-linejoin="round" stroke-width="5"/><path d="M69.77,75.6s12.79-6,32.4,0" fill="none" stroke="#009ca6" stroke-linecap="round" stroke-linejoin="round" stroke-width="3.17"/><path d="M20.14,46.22s12.79-6,32.4,0" fill="none" stroke="#009ca6" stroke-linecap="round" stroke-linejoin="round" stroke-width="3.17"/><path d="M20.14,60.33s12.79-6,32.4,0" fill="none" stroke="#009ca6" stroke-linecap="round" stroke-linejoin="round" stroke-width="3.17"/><path d="M20.14,74.45s12.79-6,32.4,0" fill="none" stroke="#009ca6" stroke-linecap="round" stroke-linejoin="round" stroke-width="3.17"/></svg>