<svg id="Layer_1" data-name="Layer 1" xmlns="http://www.w3.org/2000/svg" viewBox="0 0 120 120"><title>Water</title><path d="M46,35.57c-7.62-11.5-13.08-21-13.08-21,.28,1.69-11.69,19.3-15.75,25.54-3.08,5.27-6.49,10.24-6.49,16.61A22.55,22.55,0,0,0,28.8,78.8" fill="#fff" stroke="#005eb8" stroke-linecap="round" stroke-linejoin="round" stroke-width="4.79"/><path d="M81.9,27c4.12,6.62,9.37,14.8,15.19,23.28v0c5.36,8.41,9.31,14.45,9.31,23.75a33.31,33.31,0,0,1-66.62,0c0-9.42,5.06-16.78,9.6-24.57C51.28,46.53,54.33,42,57.61,37,64.75,26.14,73,13.38,72.68,11.67" fill="#fff" stroke="#302e2c" stroke-linecap="round" stroke-linejoin="round" stroke-width="4.79"/><path d="M55,65.55S47.21,82.09,66.35,89.13" fill="#fff" stroke="#009ca6" stroke-linecap="round" stroke-linejoin="round" stroke-width="3.17"/></svg>