<svg id="Layer_1" data-name="Layer 1" xmlns="http://www.w3.org/2000/svg" viewBox="0 0 120 120"><title>parking</title><path d="M53.38,12.94H36a5.65,5.65,0,0,0-5.64,5.64v82.13A5.65,5.65,0,0,0,36,106.35h46.2a5.66,5.66,0,0,0,5.64-5.64V18.58a5.66,5.66,0,0,0-5.64-5.64H64.77" fill="#fff" stroke="#302e2c" stroke-linecap="round" stroke-linejoin="round" stroke-width="4.87"/><line x1="45.26" y1="41.83" x2="72.9" y2="41.83" fill="none" stroke="#009ca6" stroke-linecap="round" stroke-linejoin="round" stroke-width="3"/><line x1="45.26" y1="29.27" x2="72.9" y2="29.27" fill="none" stroke="#009ca6" stroke-linecap="round" stroke-linejoin="round" stroke-width="3"/><path d="M47.9,54.39H58.81a11.43,11.43,0,0,1,4.57.9,11,11,0,0,1,6,6,11.74,11.74,0,0,1,0,8.87,10.93,10.93,0,0,1-6,6,11.6,11.6,0,0,1-4.59.89H53.94v9h-6Zm6,5.61V71.48h4.44A6,6,0,0,0,60.75,71a5.59,5.59,0,0,0,1.82-1.24A5.49,5.49,0,0,0,63.75,68a6,6,0,0,0,.42-2.22,6.13,6.13,0,0,0-.42-2.22,5.55,5.55,0,0,0-1.18-1.82,5.3,5.3,0,0,0-1.82-1.24A6,6,0,0,0,58.38,60Z" fill="#005eb8"/></svg>