<?xml version="1.0" encoding="UTF-8" standalone="no"?>
<svg width="160px" height="35px" viewBox="0 0 160 35" version="1.1" xmlns="http://www.w3.org/2000/svg" xmlns:xlink="http://www.w3.org/1999/xlink" xmlns:sketch="http://www.bohemiancoding.com/sketch/ns">
    <!-- Generator: Sketch 3.3.2 (12043) - http://www.bohemiancoding.com/sketch -->
    <title>msft_logo_print</title>
    <desc>Created with Sketch.</desc>
    <defs></defs>
    <g id="Page-1" stroke="none" stroke-width="1" fill="none" fill-rule="evenodd" sketch:type="MSPage">
        <g id="msft_logo_print" sketch:type="MSLayerGroup">
            <path d="M0,0 L16.2538133,0 C16.2528371,5.41793777 16.2538133,10.8358755 16.2528371,16.2538133 L0,16.2538133 L0,0" id="Fill-1" fill="#F25022" sketch:type="MSShapeGroup"></path>
            <path d="M16.2538133,0 L17.9133618,0 C17.9133618,5.41793777 17.9123856,10.8358755 17.914338,16.2538133 C23.3312996,16.2538133 28.7492373,16.2528371 34.1661989,16.2538133 C34.1681513,10.8358755 34.1671751,5.41793777 34.1671751,0 L160,0 L160,12.6408786 C158.840268,12.6447834 157.680537,12.6320927 156.521782,12.6486882 C156.495424,11.1814521 156.518853,9.71421599 156.509091,8.24795607 C155.349359,8.59743746 154.196461,8.96937157 153.030872,9.30128127 C153.002563,10.414155 153.02892,11.5280049 153.016229,12.6408786 C151.302013,12.6399024 149.587797,12.642831 147.873581,12.6389262 C147.895058,11.7622941 147.813057,10.8788286 147.938987,10.0070775 C148.043441,9.31982916 148.441733,8.63258084 149.111409,8.36705308 C149.955827,8.02050031 150.899817,8.25088469 151.702257,8.6042709 C151.697376,7.59975595 151.710067,6.595241 151.695424,5.59170226 C150.006589,5.12702868 148.070775,5.21781574 146.5723,6.19304454 C145.605857,6.81195851 144.904942,7.80183038 144.589628,8.89908481 C144.216718,10.11446 144.407077,11.3981696 144.347529,12.6457596 C143.53435,12.6399024 142.722148,12.6320927 141.910921,12.6506406 C141.919707,13.5897498 141.915802,14.5288591 141.912874,15.4669921 C142.728005,15.4835876 143.544112,15.4640635 144.359243,15.4796827 C144.35241,19.4313606 144.357291,23.3820622 144.357291,27.3337401 L147.872605,27.3337401 C147.872605,23.381086 147.871629,19.428432 147.873581,15.4757779 C149.587797,15.4728493 151.30299,15.4738255 153.018182,15.4748017 C153.023063,17.9943868 153.013301,20.5129957 153.022087,23.0316046 C153.037706,24.2050031 153.237828,25.4594265 154.014887,26.385845 C154.687492,27.2058572 155.755461,27.58072 156.786333,27.6568639 C157.872849,27.7339841 158.995485,27.6012203 160,27.1648566 L160,34.1671751 L34.1671751,34.1671751 L34.1671751,17.9133618 C28.7492373,17.9133618 23.3312996,17.9123856 17.914338,17.914338 C17.9123856,23.3312996 17.914338,28.7492373 17.9133618,34.1671751 L16.2538133,34.1671751 C16.2538133,28.7492373 16.2547895,23.3322758 16.2538133,17.914338 C10.8358755,17.9114094 5.41793777,17.914338 0,17.9123856 L0,16.2538133 L16.2528371,16.2538133 C16.2538133,10.8358755 16.2528371,5.41793777 16.2538133,0" id="Fill-2" fill="#FEFEFE" sketch:type="MSShapeGroup"></path>
            <path d="M17.9133618,0 L34.1671751,0 C34.1671751,5.41793777 34.1681513,10.8358755 34.1661989,16.2538133 C28.7492373,16.2528371 23.3312996,16.2538133 17.914338,16.2538133 C17.9123856,10.8358755 17.9133618,5.41793777 17.9133618,0" id="Fill-3" fill="#80BA01" sketch:type="MSShapeGroup"></path>
            <path d="M146.5723,6.19304454 C148.070775,5.21781574 150.006589,5.12702868 151.695424,5.59170226 C151.710067,6.595241 151.697376,7.59975595 151.702257,8.6042709 C150.899817,8.25088469 149.955827,8.02050031 149.111409,8.36705308 C148.441733,8.63258084 148.043441,9.31982916 147.938987,10.0070775 C147.813057,10.8788286 147.895058,11.7622941 147.873581,12.6389262 C149.587797,12.642831 151.302013,12.6399024 153.016229,12.6408786 C153.02892,11.5280049 153.002563,10.414155 153.030872,9.30128127 C154.196461,8.96937157 155.349359,8.59743746 156.509091,8.24795607 C156.518853,9.71421599 156.495424,11.1814521 156.521782,12.6486882 C157.680537,12.6320927 158.840268,12.6447834 160,12.6408786 L160,15.495302 C158.836364,15.447468 157.671751,15.4826113 156.508115,15.4787065 C156.512996,17.1197071 156.509091,18.7607077 156.510067,20.4026846 C156.528615,21.3115314 156.461257,22.2252593 156.567663,23.1311775 C156.632093,23.6651617 156.826358,24.2567419 157.327151,24.5330079 C158.165711,25.0025625 159.229774,24.7975595 160,24.2821232 L160,27.1648566 C158.995485,27.6012203 157.872849,27.7339841 156.786333,27.6568639 C155.755461,27.58072 154.687492,27.2058572 154.014887,26.385845 C153.237828,25.4594265 153.037706,24.2050031 153.022087,23.0316046 C153.013301,20.5129957 153.023063,17.9943868 153.018182,15.4748017 C151.30299,15.4738255 149.587797,15.4728493 147.873581,15.4757779 C147.871629,19.428432 147.872605,23.381086 147.872605,27.3337401 L144.357291,27.3337401 C144.357291,23.3820622 144.35241,19.4313606 144.359243,15.4796827 C143.544112,15.4640635 142.728005,15.4835876 141.912874,15.4669921 C141.915802,14.5288591 141.919707,13.5897498 141.910921,12.6506406 C142.722148,12.6320927 143.53435,12.6399024 144.347529,12.6457596 C144.407077,11.3981696 144.216718,10.11446 144.589628,8.89908481 C144.904942,7.80183038 145.605857,6.81195851 146.5723,6.19304454" id="Fill-4" fill="#777777" sketch:type="MSShapeGroup"></path>
            <path d="M71.3088469,6.39804759 C72.0175717,6.29066504 72.7848688,6.53276388 73.2544234,7.08724832 C73.8050031,7.69444783 73.9065284,8.66089079 73.4984747,9.37059182 C73.047468,10.1710799 72.038072,10.543014 71.1585113,10.3507016 C70.2457596,10.1866992 69.4852959,9.33837706 69.5262965,8.39243441 C69.499939,7.39670531 70.3326419,6.50933496 71.3088469,6.39804759" id="Fill-5" fill="#777777" sketch:type="MSShapeGroup"></path>
            <path d="M44.3685174,6.83343502 L49.480903,6.83343502 C51.0721171,10.8739475 52.6750458,14.9105552 54.2682123,18.9510677 C54.6752898,19.9614399 55.0560098,20.9835265 55.4826113,21.9860891 C57.5297132,16.9371568 59.6061013,11.9009152 61.6375839,6.84514948 C63.2766321,6.81879195 64.9166565,6.83929225 66.5566809,6.83538743 C66.5527761,13.6678462 66.5547285,20.5003051 66.5557047,27.3327639 C65.3725442,27.3298353 64.19036,27.3425259 63.0081757,27.3259304 C63.0208664,22.2838316 63.0071995,17.2417328 63.0140329,12.1986577 C63.0159854,11.9721782 63.0081757,11.7456986 62.9925564,11.519219 C62.9232459,11.6246492 62.861745,11.7339841 62.8080537,11.8472239 C60.7765711,17.0084198 58.7060403,22.1549725 56.6862721,27.3210494 C55.8447834,27.3513118 55.0023185,27.3230018 54.1598536,27.3366687 C52.0639414,22.1754728 49.9943868,17.0025625 47.9092129,11.8374619 C47.8545455,11.7300793 47.7959732,11.6256254 47.7325198,11.5250763 C47.6895668,13.7342282 47.7256864,15.9453325 47.7139719,18.1544844 C47.7149481,21.2139109 47.7120195,24.2733374 47.7149481,27.3327639 C46.5991458,27.3356925 45.4833435,27.3327639 44.3685174,27.3337401 C44.3675412,20.5003051 44.366565,13.66687 44.3685174,6.83343502" id="Fill-6" fill="#777777" sketch:type="MSShapeGroup"></path>
            <path d="M80.9830384,12.6272117 C82.6796827,12.1439902 84.5090909,12.1635143 86.204759,12.642831 C86.5542404,12.7404515 86.8929835,12.876144 87.2073215,13.0606467 C87.1877974,14.1803539 87.2073215,15.3010372 87.1965833,16.4217206 C86.0632093,15.5558267 84.6252593,15.0071995 83.1843807,15.1887736 C82.0402685,15.2922514 80.9488713,15.885784 80.2645516,16.8102502 C79.3849908,17.9563148 79.1819402,19.4782184 79.333252,20.8800488 C79.4464918,21.9773032 79.9004271,23.0735815 80.7536303,23.8008542 C81.6400244,24.5886516 82.8827334,24.8678462 84.0424649,24.7799878 C85.1885296,24.6482001 86.2701647,24.1630262 87.1965833,23.48554 C87.2063453,24.5466748 87.1917023,25.6078096 87.2043929,26.6689445 C85.7674192,27.5241001 84.0444173,27.7447224 82.3995119,27.6636974 C80.7165345,27.5748627 79.0384381,26.9374009 77.8201342,25.7542404 C76.4964002,24.4783405 75.7779134,22.6586943 75.6929835,20.8361196 C75.6070775,18.9413057 75.9926785,16.9644905 77.0830995,15.3820622 C77.9968273,14.0319707 79.4259915,13.076266 80.9830384,12.6272117" id="Fill-7" fill="#777777" sketch:type="MSShapeGroup"></path>
            <path d="M104.799512,12.3743746 C106.486394,12.1596095 108.266016,12.2552776 109.831849,12.9679073 C111.190726,13.580964 112.291885,14.714338 112.902013,16.071263 C113.553142,17.5160464 113.711287,19.1384991 113.600976,20.7053081 C113.492617,22.2350214 113.012325,23.7676632 112.055644,24.9830384 C111.07651,26.2735815 109.600488,27.1482611 108.020012,27.4733374 C106.668944,27.7544844 105.2554,27.7535082 103.904332,27.4694326 C102.287736,27.123856 100.791214,26.185723 99.8433191,24.8209884 C98.7304454,23.2395363 98.414155,21.228554 98.5557047,19.3337401 C98.6513728,17.7259304 99.1511897,16.1054301 100.178157,14.8441733 C101.302746,13.4316046 103.0277,12.5979256 104.799512,12.3743746" id="Fill-8" fill="#777777" sketch:type="MSShapeGroup"></path>
            <path d="M119.382062,12.4036608 C121.007444,12.1176327 122.708969,12.3275168 124.247468,12.9103112 C124.24942,13.9880415 124.247468,15.0647956 124.248444,16.1415497 C123.173642,15.4025625 121.860647,15.0052471 120.556437,15.0511287 C119.899451,15.0765101 119.177059,15.3547285 118.877364,15.9794997 C118.63917,16.5974375 118.804149,17.4076876 119.386943,17.7776693 C120.383649,18.4444173 121.572666,18.7275168 122.605491,19.3249542 C123.41867,19.7818182 124.207444,20.3792556 124.619402,21.2402685 C125.393533,22.8529591 125.065528,24.9840146 123.704698,26.1866992 C122.405369,27.4010982 120.533984,27.7369128 118.812935,27.6724832 C117.590726,27.5934106 116.36266,27.352288 115.239048,26.852471 C115.243929,25.719097 115.232215,24.5866992 115.244905,23.4543014 C116.189872,24.1405735 117.280293,24.6316046 118.434167,24.8307505 C119.237584,24.9615619 120.111287,24.9674192 120.860037,24.6081757 C121.576571,24.2518609 121.70543,23.2336791 121.279805,22.6108603 C120.881513,22.1305674 120.296766,21.8660159 119.74521,21.6063453 C118.709457,21.1406955 117.620988,20.7511897 116.711165,20.0532032 C116.071751,19.5543624 115.587553,18.8514948 115.39817,18.0588164 C115.117023,16.890299 115.204881,15.5733984 115.88432,14.552288 C116.660403,13.3622941 118.008542,12.6486882 119.382062,12.4036608" id="Fill-9" fill="#777777" sketch:type="MSShapeGroup"></path>
            <path d="M132.817572,12.3694936 C134.571812,12.1517999 136.434411,12.2699207 138.035387,13.0782184 C139.431361,13.776205 140.513972,15.0374619 141.05479,16.4959121 C141.477486,17.6117145 141.625869,18.8163514 141.601464,20.0043929 C141.604393,21.7791336 141.125076,23.6007322 140.011226,25.0084198 C138.968639,26.371202 137.37352,27.2566199 135.689567,27.5348383 C134.042709,27.8013423 132.303112,27.7320317 130.738255,27.1160464 C129.152898,26.4922514 127.835021,25.21928 127.167297,23.6514948 C126.471263,22.0534472 126.398048,20.2552776 126.614765,18.5478951 C126.842221,16.8405125 127.615375,15.171202 128.933252,14.0358755 C130.012935,13.0879805 131.403051,12.5510677 132.817572,12.3694936" id="Fill-10" fill="#777777" sketch:type="MSShapeGroup"></path>
            <path d="M95.0677242,12.8663819 C96.038072,12.2835876 97.2710189,12.2347773 98.3302013,12.5910921 C98.3253203,13.7635143 98.3302013,14.9359365 98.3272727,16.1083588 C97.6341672,15.6593045 96.7692495,15.4669921 95.9511897,15.5499695 C94.9535082,15.6632093 94.1627822,16.4295302 93.7527761,17.3081147 C93.3076266,18.2384381 93.223673,19.2907871 93.2519829,20.3079927 C93.2519829,22.6499085 93.2529591,24.9918243 93.2519829,27.3337401 L89.7864552,27.3337401 C89.7835265,22.4390482 89.79036,17.5433801 89.7835265,12.6486882 C90.9403295,12.6340451 92.0971324,12.6399024 93.2539353,12.6457596 C93.2490543,13.4862721 93.2539353,14.3267846 93.2510067,15.1682733 C93.6268456,14.2535692 94.1862111,13.3652227 95.0677242,12.8663819" id="Fill-11" fill="#777777" sketch:type="MSShapeGroup"></path>
            <path d="M69.8455156,12.6457596 C71.0111043,12.6408786 72.1776693,12.6291641 73.3432581,12.6516168 C73.3295912,17.5453325 73.3422819,22.4400244 73.3374009,27.3337401 L69.847468,27.3337401 C69.8445394,22.438072 69.8484442,17.5424039 69.8455156,12.6457596" id="Fill-12" fill="#777777" sketch:type="MSShapeGroup"></path>
            <path d="M105.847956,15.1643685 C106.90421,15.095058 108.028798,15.3937767 108.788286,16.16205 C109.600488,16.9605857 109.914826,18.1193411 110.001708,19.2244051 C110.064185,20.4339231 110.014399,21.6942038 109.506772,22.8148871 C109.170958,23.5704698 108.555949,24.2089079 107.779866,24.5115314 C106.871995,24.8600366 105.851861,24.8805369 104.914704,24.6374619 C103.960952,24.3865772 103.151678,23.6973764 102.711409,22.8197682 C102.14521,21.6893228 102.060281,20.3821843 102.177425,19.1424039 C102.283832,18.0148871 102.676266,16.8551556 103.535326,16.0771202 C104.158145,15.495302 105.007444,15.2112264 105.847956,15.1643685" id="Fill-13" fill="#FEFEFE" sketch:type="MSShapeGroup"></path>
            <path d="M133.766443,15.1672971 C134.759243,15.0979866 135.819402,15.3273948 136.582794,15.9980476 C137.286638,16.5818182 137.676144,17.4564979 137.85479,18.3370348 C138.055888,19.3698597 138.053935,20.4388041 137.884076,21.4765101 C137.749359,22.2496644 137.481879,23.0208664 136.975229,23.6329469 C136.464674,24.2479561 135.705186,24.6228188 134.921293,24.738011 C134.079805,24.8639414 133.193411,24.8034167 132.406589,24.4646736 C131.557291,24.1054301 130.899329,23.3703478 130.552776,22.5249542 C130.135937,21.5175107 130.052959,20.4017084 130.135937,19.323978 C130.215985,18.2804149 130.511775,17.209518 131.200976,16.3982916 C131.829652,15.6407566 132.794143,15.2219646 133.766443,15.1672971" id="Fill-14" fill="#FEFEFE" sketch:type="MSShapeGroup"></path>
            <path d="M156.508115,15.4787065 C157.671751,15.4826113 158.836364,15.447468 160,15.495302 L160,24.2821232 C159.229774,24.7975595 158.165711,25.0025625 157.327151,24.5330079 C156.826358,24.2567419 156.632093,23.6651617 156.567663,23.1311775 C156.461257,22.2252593 156.528615,21.3115314 156.510067,20.4026846 C156.509091,18.7607077 156.512996,17.1197071 156.508115,15.4787065" id="Fill-15" fill="#FEFEFE" sketch:type="MSShapeGroup"></path>
            <path d="M0,17.9123856 C5.41793777,17.914338 10.8358755,17.9114094 16.2538133,17.914338 C16.2547895,23.3322758 16.2538133,28.7492373 16.2538133,34.1671751 L0,34.1671751 L0,17.9123856" id="Fill-16" fill="#02A4EF" sketch:type="MSShapeGroup"></path>
            <path d="M17.914338,17.914338 C23.3312996,17.9123856 28.7492373,17.9133618 34.1671751,17.9133618 L34.1671751,34.1671751 L17.9133618,34.1671751 C17.914338,28.7492373 17.9123856,23.3312996 17.914338,17.914338" id="Fill-17" fill="#FFB902" sketch:type="MSShapeGroup"></path>
        </g>
    </g>
</svg>