<?xml version="1.0" encoding="UTF-8" standalone="no"?>
<svg width="116px" height="23px" viewBox="0 0 116 23" version="1.1" xmlns="http://www.w3.org/2000/svg" xmlns:xlink="http://www.w3.org/1999/xlink" xmlns:sketch="http://www.bohemiancoding.com/sketch/ns">
    <!-- Generator: Sketch 3.3.3 (12081) - http://www.bohemiancoding.com/sketch -->
    <title>Untitled</title>
    <desc>Created with Sketch.</desc>
    <defs></defs>
    <g id="Page-1" stroke="none" stroke-width="1" fill="none" fill-rule="evenodd" sketch:type="MSPage">
        <g id="mslogo-text" sketch:type="MSLayerGroup">
            <g id="Page-1" sketch:type="MSShapeGroup">
                <g id="mslogo-original">
                    <g id="Page-1">
                        <g id="msft_logo_print">
                            <path d="M102.5723,1.19304454 C104.070775,0.21781574 106.006589,0.12702868 107.695424,0.59170226 C107.710067,1.595241 107.697376,2.59975595 107.702257,3.6042709 C106.899817,3.25088469 105.955827,3.02050031 105.111409,3.36705308 C104.441733,3.63258084 104.043441,4.31982916 103.938987,5.0070775 C103.813057,5.8788286 103.895058,6.7622941 103.873581,7.6389262 C105.587797,7.642831 107.302013,7.6399024 109.016229,7.6408786 C109.02892,6.5280049 109.002563,5.414155 109.030872,4.30128127 C110.196461,3.96937157 111.349359,3.59743746 112.509091,3.24795607 C112.518853,4.71421599 112.495424,6.1814521 112.521782,7.6486882 C113.680537,7.6320927 114.840268,7.6447834 116,7.6408786 L116,10.495302 C114.836364,10.447468 113.671751,10.4826113 112.508115,10.4787065 C112.512996,12.1197071 112.509091,13.7607077 112.510067,15.4026846 C112.528615,16.3115314 112.461257,17.2252593 112.567663,18.1311775 C112.632093,18.6651617 112.826358,19.2567419 113.327151,19.5330079 C114.165711,20.0025625 115.229774,19.7975595 116,19.2821232 L116,22.1648566 C114.995485,22.6012203 113.872849,22.7339841 112.786333,22.6568639 C111.755461,22.58072 110.687492,22.2058572 110.014887,21.385845 C109.237828,20.4594265 109.037706,19.2050031 109.022087,18.0316046 C109.013301,15.5129957 109.023063,12.9943868 109.018182,10.4748017 C107.30299,10.4738255 105.587797,10.4728493 103.873581,10.4757779 C103.871629,14.428432 103.872605,18.381086 103.872605,22.3337401 L100.357291,22.3337401 C100.357291,18.3820622 100.35241,14.4313606 100.359243,10.4796827 C99.544112,10.4640635 98.728005,10.4835876 97.912874,10.4669921 C97.915802,9.5288591 97.919707,8.5897498 97.910921,7.6506406 C98.722148,7.6320927 99.53435,7.6399024 100.347529,7.6457596 C100.407077,6.3981696 100.216718,5.11446 100.589628,3.89908481 C100.904942,2.80183038 101.605857,1.81195851 102.5723,1.19304454" id="Fill-4" fill="#777777"></path>
                            <path d="M27.3088469,1.39804759 C28.0175717,1.29066504 28.7848688,1.53276388 29.2544234,2.08724832 C29.8050031,2.69444783 29.9065284,3.66089079 29.4984747,4.37059182 C29.047468,5.1710799 28.038072,5.543014 27.1585113,5.3507016 C26.2457596,5.1866992 25.4852959,4.33837706 25.5262965,3.39243441 C25.499939,2.39670531 26.3326419,1.50933496 27.3088469,1.39804759" id="Fill-5" fill="#777777"></path>
                            <path d="M0.3685174,1.83343502 L5.480903,1.83343502 C7.0721171,5.8739475 8.6750458,9.9105552 10.2682123,13.9510677 C10.6752898,14.9614399 11.0560098,15.9835265 11.4826113,16.9860891 C13.5297132,11.9371568 15.6061013,6.9009152 17.6375839,1.84514948 C19.2766321,1.81879195 20.9166565,1.83929225 22.5566809,1.83538743 C22.5527761,8.6678462 22.5547285,15.5003051 22.5557047,22.3327639 C21.3725442,22.3298353 20.19036,22.3425259 19.0081757,22.3259304 C19.0208664,17.2838316 19.0071995,12.2417328 19.0140329,7.1986577 C19.0159854,6.9721782 19.0081757,6.7456986 18.9925564,6.519219 C18.9232459,6.6246492 18.861745,6.7339841 18.8080537,6.8472239 C16.7765711,12.0084198 14.7060403,17.1549725 12.6862721,22.3210494 C11.8447834,22.3513118 11.0023185,22.3230018 10.1598536,22.3366687 C8.0639414,17.1754728 5.9943868,12.0025625 3.9092129,6.8374619 C3.8545455,6.7300793 3.7959732,6.6256254 3.7325198,6.5250763 C3.6895668,8.7342282 3.7256864,10.9453325 3.7139719,13.1544844 C3.7149481,16.2139109 3.7120195,19.2733374 3.7149481,22.3327639 C2.5991458,22.3356925 1.4833435,22.3327639 0.3685174,22.3337401 C0.3675412,15.5003051 0.366565,8.66687 0.3685174,1.83343502" id="Fill-6" fill="#777777"></path>
                            <path d="M36.9830384,7.6272117 C38.6796827,7.1439902 40.5090909,7.1635143 42.204759,7.642831 C42.5542404,7.7404515 42.8929835,7.876144 43.2073215,8.0606467 C43.1877974,9.1803539 43.2073215,10.3010372 43.1965833,11.4217206 C42.0632093,10.5558267 40.6252593,10.0071995 39.1843807,10.1887736 C38.0402685,10.2922514 36.9488713,10.885784 36.2645516,11.8102502 C35.3849908,12.9563148 35.1819402,14.4782184 35.333252,15.8800488 C35.4464918,16.9773032 35.9004271,18.0735815 36.7536303,18.8008542 C37.6400244,19.5886516 38.8827334,19.8678462 40.0424649,19.7799878 C41.1885296,19.6482001 42.2701647,19.1630262 43.1965833,18.48554 C43.2063453,19.5466748 43.1917023,20.6078096 43.2043929,21.6689445 C41.7674192,22.5241001 40.0444173,22.7447224 38.3995119,22.6636974 C36.7165345,22.5748627 35.0384381,21.9374009 33.8201342,20.7542404 C32.4964002,19.4783405 31.7779134,17.6586943 31.6929835,15.8361196 C31.6070775,13.9413057 31.9926785,11.9644905 33.0830995,10.3820622 C33.9968273,9.0319707 35.4259915,8.076266 36.9830384,7.6272117" id="Fill-7" fill="#777777"></path>
                            <path d="M60.799512,7.3743746 C62.486394,7.1596095 64.266016,7.2552776 65.831849,7.9679073 C67.190726,8.580964 68.291885,9.714338 68.902013,11.071263 C69.553142,12.5160464 69.711287,14.1384991 69.600976,15.7053081 C69.492617,17.2350214 69.012325,18.7676632 68.055644,19.9830384 C67.07651,21.2735815 65.600488,22.1482611 64.020012,22.4733374 C62.668944,22.7544844 61.2554,22.7535082 59.904332,22.4694326 C58.287736,22.123856 56.791214,21.185723 55.8433191,19.8209884 C54.7304454,18.2395363 54.414155,16.228554 54.5557047,14.3337401 C54.6513728,12.7259304 55.1511897,11.1054301 56.178157,9.8441733 C57.302746,8.4316046 59.0277,7.5979256 60.799512,7.3743746" id="Fill-8" fill="#777777"></path>
                            <path d="M75.382062,7.4036608 C77.007444,7.1176327 78.708969,7.3275168 80.247468,7.9103112 C80.24942,8.9880415 80.247468,10.0647956 80.248444,11.1415497 C79.173642,10.4025625 77.860647,10.0052471 76.556437,10.0511287 C75.899451,10.0765101 75.177059,10.3547285 74.877364,10.9794997 C74.63917,11.5974375 74.804149,12.4076876 75.386943,12.7776693 C76.383649,13.4444173 77.572666,13.7275168 78.605491,14.3249542 C79.41867,14.7818182 80.207444,15.3792556 80.619402,16.2402685 C81.393533,17.8529591 81.065528,19.9840146 79.704698,21.1866992 C78.405369,22.4010982 76.533984,22.7369128 74.812935,22.6724832 C73.590726,22.5934106 72.36266,22.352288 71.239048,21.852471 C71.243929,20.719097 71.232215,19.5866992 71.244905,18.4543014 C72.189872,19.1405735 73.280293,19.6316046 74.434167,19.8307505 C75.237584,19.9615619 76.111287,19.9674192 76.860037,19.6081757 C77.576571,19.2518609 77.70543,18.2336791 77.279805,17.6108603 C76.881513,17.1305674 76.296766,16.8660159 75.74521,16.6063453 C74.709457,16.1406955 73.620988,15.7511897 72.711165,15.0532032 C72.071751,14.5543624 71.587553,13.8514948 71.39817,13.0588164 C71.117023,11.890299 71.204881,10.5733984 71.88432,9.552288 C72.660403,8.3622941 74.008542,7.6486882 75.382062,7.4036608" id="Fill-9" fill="#777777"></path>
                            <path d="M88.817572,7.3694936 C90.571812,7.1517999 92.434411,7.2699207 94.035387,8.0782184 C95.431361,8.776205 96.513972,10.0374619 97.05479,11.4959121 C97.477486,12.6117145 97.625869,13.8163514 97.601464,15.0043929 C97.604393,16.7791336 97.125076,18.6007322 96.011226,20.0084198 C94.968639,21.371202 93.37352,22.2566199 91.689567,22.5348383 C90.042709,22.8013423 88.303112,22.7320317 86.738255,22.1160464 C85.152898,21.4922514 83.835021,20.21928 83.167297,18.6514948 C82.471263,17.0534472 82.398048,15.2552776 82.614765,13.5478951 C82.842221,11.8405125 83.615375,10.171202 84.933252,9.0358755 C86.012935,8.0879805 87.403051,7.5510677 88.817572,7.3694936" id="Fill-10" fill="#777777"></path>
                            <path d="M51.0677242,7.8663819 C52.038072,7.2835876 53.2710189,7.2347773 54.3302013,7.5910921 C54.3253203,8.7635143 54.3302013,9.9359365 54.3272727,11.1083588 C53.6341672,10.6593045 52.7692495,10.4669921 51.9511897,10.5499695 C50.9535082,10.6632093 50.1627822,11.4295302 49.7527761,12.3081147 C49.3076266,13.2384381 49.223673,14.2907871 49.2519829,15.3079927 C49.2519829,17.6499085 49.2529591,19.9918243 49.2519829,22.3337401 L45.7864552,22.3337401 C45.7835265,17.4390482 45.79036,12.5433801 45.7835265,7.6486882 C46.9403295,7.6340451 48.0971324,7.6399024 49.2539353,7.6457596 C49.2490543,8.4862721 49.2539353,9.3267846 49.2510067,10.1682733 C49.6268456,9.2535692 50.1862111,8.3652227 51.0677242,7.8663819" id="Fill-11" fill="#777777"></path>
                            <path d="M25.8455156,7.6457596 C27.0111043,7.6408786 28.1776693,7.6291641 29.3432581,7.6516168 C29.3295912,12.5453325 29.3422819,17.4400244 29.3374009,22.3337401 L25.847468,22.3337401 C25.8445394,17.438072 25.8484442,12.5424039 25.8455156,7.6457596" id="Fill-12" fill="#777777"></path>
                            <path d="M61.847956,10.1643685 C62.90421,10.095058 64.028798,10.3937767 64.788286,11.16205 C65.600488,11.9605857 65.914826,13.1193411 66.001708,14.2244051 C66.064185,15.4339231 66.014399,16.6942038 65.506772,17.8148871 C65.170958,18.5704698 64.555949,19.2089079 63.779866,19.5115314 C62.871995,19.8600366 61.851861,19.8805369 60.914704,19.6374619 C59.960952,19.3865772 59.151678,18.6973764 58.711409,17.8197682 C58.14521,16.6893228 58.060281,15.3821843 58.177425,14.1424039 C58.283832,13.0148871 58.676266,11.8551556 59.535326,11.0771202 C60.158145,10.495302 61.007444,10.2112264 61.847956,10.1643685" id="Fill-13" fill="#FEFEFE"></path>
                            <path d="M89.766443,10.1672971 C90.759243,10.0979866 91.819402,10.3273948 92.582794,10.9980476 C93.286638,11.5818182 93.676144,12.4564979 93.85479,13.3370348 C94.055888,14.3698597 94.053935,15.4388041 93.884076,16.4765101 C93.749359,17.2496644 93.481879,18.0208664 92.975229,18.6329469 C92.464674,19.2479561 91.705186,19.6228188 90.921293,19.738011 C90.079805,19.8639414 89.193411,19.8034167 88.406589,19.4646736 C87.557291,19.1054301 86.899329,18.3703478 86.552776,17.5249542 C86.135937,16.5175107 86.052959,15.4017084 86.135937,14.323978 C86.215985,13.2804149 86.511775,12.209518 87.200976,11.3982916 C87.829652,10.6407566 88.794143,10.2219646 89.766443,10.1672971" id="Fill-14" fill="#FEFEFE"></path>
                        </g>
                    </g>
                </g>
            </g>
        </g>
    </g>
</svg>