<svg xmlns="http://www.w3.org/2000/svg" xmlns:xlink="http://www.w3.org/1999/xlink" xmlns:sketch="http://www.bohemiancoding.com/sketch/ns" width="160px" height="35px" viewBox="0 0 160 35" version="1.1"><!-- Generator: Sketch 3.3.2 (12043) - http://www.bohemiancoding.com/sketch --><title>msft_logo_print</title><desc>Created with Sketch.</desc><defs/><g stroke="none" stroke-width="1" fill="none" fill-rule="evenodd" sketch:type="MSPage"><g sketch:type="MSLayerGroup"><path d="M0 0 L16.2538133 0 C16.2528371 5.4 16.3 10.8 16.3 16.3 L0 16.3 L0 0" fill="#F25022" sketch:type="MSShapeGroup"/><path d="M16.2538133 0 L17.9133618 0 C17.9133618 5.4 17.9 10.8 17.9 16.3 C23.3312996 16.3 28.7 16.3 34.2 16.3 C34.1681513 10.8 34.2 5.4 34.2 0 L160 0 L160 12.6 C158.840268 12.6 157.7 12.6 156.5 12.6 C156.495424 11.2 156.5 9.7 156.5 8.2 C155.349359 8.6 154.2 9 153 9.3 C153.002563 10.4 153 11.5 153 12.6 C151.302013 12.6 149.6 12.6 147.9 12.6 C147.895058 11.8 147.8 10.9 147.9 10 C148.043441 9.3 148.4 8.6 149.1 8.4 C149.955827 8 150.9 8.3 151.7 8.6 C151.697376 7.6 151.7 6.6 151.7 5.6 C150.006589 5.1 148.1 5.2 146.6 6.2 C145.605857 6.8 144.9 7.8 144.6 8.9 C144.216718 10.1 144.4 11.4 144.3 12.6 C143.53435 12.6 142.7 12.6 141.9 12.7 C141.919707 13.6 141.9 14.5 141.9 15.5 C142.728005 15.5 143.5 15.5 144.4 15.5 C144.35241 19.4 144.4 23.4 144.4 27.3 L147.872605 27.3 C147.872605 23.4 147.9 19.4 147.9 15.5 C149.587797 15.5 151.3 15.5 153 15.5 C153.023063 18 153 20.5 153 23 C153.037706 24.2 153.2 25.5 154 26.4 C154.687492 27.2 155.8 27.6 156.8 27.7 C157.872849 27.7 159 27.6 160 27.2 L160 34.2 L34.1671751 34.2 L34.1671751 17.9 C28.7492373 17.9 23.3 17.9 17.9 17.9 C17.9123856 23.3 17.9 28.7 17.9 34.2 L16.2538133 34.2 C16.2538133 28.7 16.3 23.3 16.3 17.9 C10.8358755 17.9 5.4 17.9 0 17.9 L0 16.3 L16.2528371 16.3 C16.2538133 10.8 16.3 5.4 16.3 0" fill="#FEFEFE" sketch:type="MSShapeGroup"/><path d="M17.9133618 0 L34.1671751 0 C34.1671751 5.4 34.2 10.8 34.2 16.3 C28.7492373 16.3 23.3 16.3 17.9 16.3 C17.9123856 10.8 17.9 5.4 17.9 0" fill="#80BA01" sketch:type="MSShapeGroup"/><path d="M146.5723 6.2 C148.070775 5.2 150 5.1 151.7 5.6 C151.710067 6.6 151.7 7.6 151.7 8.6 C150.899817 8.3 150 8 149.1 8.4 C148.441733 8.6 148 9.3 147.9 10 C147.813057 10.9 147.9 11.8 147.9 12.6 C149.587797 12.6 151.3 12.6 153 12.6 C153.02892 11.5 153 10.4 153 9.3 C154.196461 9 155.3 8.6 156.5 8.2 C156.518853 9.7 156.5 11.2 156.5 12.6 C157.680537 12.6 158.8 12.6 160 12.6 L160 15.5 C158.836364 15.4 157.7 15.5 156.5 15.5 C156.512996 17.1 156.5 18.8 156.5 20.4 C156.528615 21.3 156.5 22.2 156.6 23.1 C156.632093 23.7 156.8 24.3 157.3 24.5 C158.165711 25 159.2 24.8 160 24.3 L160 27.2 C158.995485 27.6 157.9 27.7 156.8 27.7 C155.755461 27.6 154.7 27.2 154 26.4 C153.237828 25.5 153 24.2 153 23 C153.013301 20.5 153 18 153 15.5 C151.30299 15.5 149.6 15.5 147.9 15.5 C147.871629 19.4 147.9 23.4 147.9 27.3 L144.357291 27.3 C144.357291 23.4 144.4 19.4 144.4 15.5 C143.544112 15.5 142.7 15.5 141.9 15.5 C141.915802 14.5 141.9 13.6 141.9 12.7 C142.722148 12.6 143.5 12.6 144.3 12.6 C144.407077 11.4 144.2 10.1 144.6 8.9 C144.904942 7.8 145.6 6.8 146.6 6.2" fill="#777777" sketch:type="MSShapeGroup"/><path d="M71.3088469 6.4 C72.0175717 6.3 72.8 6.5 73.3 7.1 C73.8050031 7.7 73.9 8.7 73.5 9.4 C73.047468 10.2 72 10.5 71.2 10.4 C70.2457596 10.2 69.5 9.3 69.5 8.4 C69.499939 7.4 70.3 6.5 71.3 6.4" fill="#777777" sketch:type="MSShapeGroup"/><path d="M44.3685174 6.8 L49.480903 6.8 C51.0721171 10.9 52.7 14.9 54.3 19 C54.6752898 20 55.1 21 55.5 22 C57.5297132 16.9 59.6 11.9 61.6 6.8 C63.2766321 6.8 64.9 6.8 66.6 6.8 C66.5527761 13.7 66.6 20.5 66.6 27.3 C65.3725442 27.3 64.2 27.3 63 27.3 C63.0208664 22.3 63 17.2 63 12.2 C63.0159854 12 63 11.7 63 11.5 C62.9232459 11.6 62.9 11.7 62.8 11.8 C60.7765711 17 58.7 22.2 56.7 27.3 C55.8447834 27.4 55 27.3 54.2 27.3 C52.0639414 22.2 50 17 47.9 11.8 C47.8545455 11.7 47.8 11.6 47.7 11.5 C47.6895668 13.7 47.7 15.9 47.7 18.2 C47.7149481 21.2 47.7 24.3 47.7 27.3 C46.5991458 27.3 45.5 27.3 44.4 27.3 C44.3675412 20.5 44.4 13.7 44.4 6.8" fill="#777777" sketch:type="MSShapeGroup"/><path d="M80.9830384 12.6 C82.6796827 12.1 84.5 12.2 86.2 12.6 C86.5542404 12.7 86.9 12.9 87.2 13.1 C87.1877974 14.2 87.2 15.3 87.2 16.4 C86.0632093 15.6 84.6 15 83.2 15.2 C82.0402685 15.3 80.9 15.9 80.3 16.8 C79.3849908 18 79.2 19.5 79.3 20.9 C79.4464918 22 79.9 23.1 80.8 23.8 C81.6400244 24.6 82.9 24.9 84 24.8 C85.1885296 24.6 86.3 24.2 87.2 23.5 C87.2063453 24.5 87.2 25.6 87.2 26.7 C85.7674192 27.5 84 27.7 82.4 27.7 C80.7165345 27.6 79 26.9 77.8 25.8 C76.4964002 24.5 75.8 22.7 75.7 20.8 C75.6070775 18.9 76 17 77.1 15.4 C77.9968273 14 79.4 13.1 81 12.6" fill="#777777" sketch:type="MSShapeGroup"/><path d="M104.799512 12.4 C106.486394 12.2 108.3 12.3 109.8 13 C111.190726 13.6 112.3 14.7 112.9 16.1 C113.553142 17.5 113.7 19.1 113.6 20.7 C113.492617 22.2 113 23.8 112.1 25 C111.07651 26.3 109.6 27.1 108 27.5 C106.668944 27.8 105.3 27.8 103.9 27.5 C102.287736 27.1 100.8 26.2 99.8 24.8 C98.7304454 23.2 98.4 21.2 98.6 19.3 C98.6513728 17.7 99.2 16.1 100.2 14.8 C101.302746 13.4 103 12.6 104.8 12.4" fill="#777777" sketch:type="MSShapeGroup"/><path d="M119.382062 12.4 C121.007444 12.1 122.7 12.3 124.2 12.9 C124.24942 14 124.2 15.1 124.2 16.1 C123.173642 15.4 121.9 15 120.6 15.1 C119.899451 15.1 119.2 15.4 118.9 16 C118.63917 16.6 118.8 17.4 119.4 17.8 C120.383649 18.4 121.6 18.7 122.6 19.3 C123.41867 19.8 124.2 20.4 124.6 21.2 C125.393533 22.9 125.1 25 123.7 26.2 C122.405369 27.4 120.5 27.7 118.8 27.7 C117.590726 27.6 116.4 27.4 115.2 26.9 C115.243929 25.7 115.2 24.6 115.2 23.5 C116.189872 24.1 117.3 24.6 118.4 24.8 C119.237584 25 120.1 25 120.9 24.6 C121.576571 24.3 121.7 23.2 121.3 22.6 C120.881513 22.1 120.3 21.9 119.7 21.6 C118.709457 21.1 117.6 20.8 116.7 20.1 C116.071751 19.6 115.6 18.9 115.4 18.1 C115.117023 16.9 115.2 15.6 115.9 14.6 C116.660403 13.4 118 12.6 119.4 12.4" fill="#777777" sketch:type="MSShapeGroup"/><path d="M132.817572 12.4 C134.571812 12.2 136.4 12.3 138 13.1 C139.431361 13.8 140.5 15 141.1 16.5 C141.477486 17.6 141.6 18.8 141.6 20 C141.604393 21.8 141.1 23.6 140 25 C138.968639 26.4 137.4 27.3 135.7 27.5 C134.042709 27.8 132.3 27.7 130.7 27.1 C129.152898 26.5 127.8 25.2 127.2 23.7 C126.471263 22.1 126.4 20.3 126.6 18.5 C126.842221 16.8 127.6 15.2 128.9 14 C130.012935 13.1 131.4 12.6 132.8 12.4" fill="#777777" sketch:type="MSShapeGroup"/><path d="M95.0677242 12.9 C96.038072 12.3 97.3 12.2 98.3 12.6 C98.3253203 13.8 98.3 14.9 98.3 16.1 C97.6341672 15.7 96.8 15.5 96 15.5 C94.9535082 15.7 94.2 16.4 93.8 17.3 C93.3076266 18.2 93.2 19.3 93.3 20.3 C93.2519829 22.6 93.3 25 93.3 27.3 L89.7864552 27.3 C89.7835265 22.4 89.8 17.5 89.8 12.6 C90.9403295 12.6 92.1 12.6 93.3 12.6 C93.2490543 13.5 93.3 14.3 93.3 15.2 C93.6268456 14.3 94.2 13.4 95.1 12.9" fill="#777777" sketch:type="MSShapeGroup"/><path d="M69.8455156 12.6 C71.0111043 12.6 72.2 12.6 73.3 12.7 C73.3295912 17.5 73.3 22.4 73.3 27.3 L69.847468 27.3 C69.8445394 22.4 69.8 17.5 69.8 12.6" fill="#777777" sketch:type="MSShapeGroup"/><path d="M105.847956 15.2 C106.90421 15.1 108 15.4 108.8 16.2 C109.600488 17 109.9 18.1 110 19.2 C110.064185 20.4 110 21.7 109.5 22.8 C109.170958 23.6 108.6 24.2 107.8 24.5 C106.871995 24.9 105.9 24.9 104.9 24.6 C103.960952 24.4 103.2 23.7 102.7 22.8 C102.14521 21.7 102.1 20.4 102.2 19.1 C102.283832 18 102.7 16.9 103.5 16.1 C104.158145 15.5 105 15.2 105.8 15.2" fill="#FEFEFE" sketch:type="MSShapeGroup"/><path d="M133.766443 15.2 C134.759243 15.1 135.8 15.3 136.6 16 C137.286638 16.6 137.7 17.5 137.9 18.3 C138.055888 19.4 138.1 20.4 137.9 21.5 C137.749359 22.2 137.5 23 137 23.6 C136.464674 24.2 135.7 24.6 134.9 24.7 C134.079805 24.9 133.2 24.8 132.4 24.5 C131.557291 24.1 130.9 23.4 130.6 22.5 C130.135937 21.5 130.1 20.4 130.1 19.3 C130.215985 18.3 130.5 17.2 131.2 16.4 C131.829652 15.6 132.8 15.2 133.8 15.2" fill="#FEFEFE" sketch:type="MSShapeGroup"/><path d="M156.508115 15.5 C157.671751 15.5 158.8 15.4 160 15.5 L160 24.3 C159.229774 24.8 158.2 25 157.3 24.5 C156.826358 24.3 156.6 23.7 156.6 23.1 C156.461257 22.2 156.5 21.3 156.5 20.4 C156.509091 18.8 156.5 17.1 156.5 15.5" fill="#FEFEFE" sketch:type="MSShapeGroup"/><path d="M0 17.9 C5.41793777 17.9 10.8 17.9 16.3 17.9 C16.2547895 23.3 16.3 28.7 16.3 34.2 L0 34.2 L0 17.9" fill="#02A4EF" sketch:type="MSShapeGroup"/><path d="M17.914338 17.9 C23.3312996 17.9 28.7 17.9 34.2 17.9 L34.1671751 34.2 L17.9133618 34.2 C17.914338 28.7 17.9 23.3 17.9 17.9" fill="#FFB902" sketch:type="MSShapeGroup"/></g></g></svg>