<svg xmlns="http://www.w3.org/2000/svg" width="129.188" height="29.035" viewBox="162.44 195.778 129.188 29.035"><path d="M183.986 196.357h7.685l-10.154 27.878h-9.23l-9.846-27.878h8.533l6.293 20.193h.077l6.643-20.193zm8.954 27.878v-27.878h7.723v27.878h-7.723zm17.774-22.472h-8.533v-5.406h24.983v5.406h-8.728v22.472h-7.722v-22.472zm32.376 2.779c.038-1.08-.31-1.892-1.005-2.47-.656-.58-1.66-.89-2.974-.89-1.774 0-3.32 1.158-3.32 2.55 0 2.045 2.472 2.702 4.52 3.242 4.67 1.196 11.467 1.66 11.467 9.19 0 5.868-5.792 8.648-12.24 8.648-6.486 0-12.2-1.894-12.316-9.46h7.723c-.04 2.625 1.893 4.054 4.672 4.054 1.776 0 4.055-.927 4.055-2.78 0-3.783-5.714-2.973-11.776-5.637-2.82-1.237-4.208-3.785-4.208-6.797.31-6.604 6.102-8.417 11.93-8.417 5.755 0 11.662 2.046 11.198 8.765h-7.725zm29.153 19.688c-1.48.39-3.1.584-4.886.584-9.23 0-14.44-5.328-14.44-14.52 0-9.187 5.212-14.517 14.44-14.517 1.736 0 3.365.2 4.81.568l19.46.01v5.407h-11.177v5.753h10.097v5.405h-10.097v5.908h11.178v5.402h-19.385zm-4.885-23.047c-5.25 0-6.333 4.865-6.333 9.23 0 4.13 1.08 8.996 6.333 8.996 5.25 0 6.332-4.866 6.332-8.998 0-4.363-1.08-9.23-6.332-9.23z"/></svg>