<svg id="Layer_1" data-name="Layer 1" xmlns="http://www.w3.org/2000/svg" xmlns:xlink="http://www.w3.org/1999/xlink" viewBox="0 0 46 46"><defs><style>.cls-1,.cls-2,.cls-3,.cls-4,.cls-5{fill:none;stroke-linecap:round;stroke-linejoin:round;}.cls-1{stroke:url(#linear-gradient);}.cls-2{stroke:url(#linear-gradient-2);}.cls-3{stroke:url(#linear-gradient-3);}.cls-4{stroke:url(#linear-gradient-4);}.cls-5{stroke:url(#linear-gradient-5);}</style><linearGradient id="linear-gradient" x1="-267.41" y1="435.05" x2="-267.41" y2="434.05" gradientTransform="matrix(45, 0, 0, -45, 12056.5, 19577.55)" gradientUnits="userSpaceOnUse"><stop offset="0" stop-color="#4772d9"/><stop offset="1" stop-color="#6d47d9"/></linearGradient><linearGradient id="linear-gradient-2" x1="22.87" y1="25.19" x2="22.87" y2="20.44" gradientTransform="matrix(1, 0, 0, 1, 0, 0)" xlink:href="#linear-gradient"/><linearGradient id="linear-gradient-3" x1="10.88" y1="22.04" x2="34.88" y2="22.04" gradientTransform="matrix(1, 0, 0, 1, 0, 0)" xlink:href="#linear-gradient"/><linearGradient id="linear-gradient-4" x1="30.83" y1="19.73" x2="30.83" y2="17.71" gradientTransform="matrix(1, 0, 0, 1, 0, 0)" xlink:href="#linear-gradient"/><linearGradient id="linear-gradient-5" x1="24.07" y1="24.87" x2="24.07" y2="23.17" gradientTransform="matrix(1, 0, 0, 1, 0, 0)" xlink:href="#linear-gradient"/></defs><title>Artboard 1</title><circle class="cls-1" cx="23" cy="23" r="22.5"/><rect class="cls-2" x="18.62" y="18.57" width="8.5" height="8.5" rx="4.25" ry="4.25"/><path class="cls-3" d="M30.38,15.32H26.92a2.56,2.56,0,0,0-2.36-1.55H21.19a2.56,2.56,0,0,0-2.36,1.55H15.38a4,4,0,0,0-4,4v7a4,4,0,0,0,4,4h15a4,4,0,0,0,4-4v-7A4,4,0,0,0,30.38,15.32Z"/><rect class="cls-4" x="29.31" y="17.2" width="3.03" height="3.03" rx="1.52" ry="1.52"/><path class="cls-5" d="M25.27,22.82h0a2.4,2.4,0,0,1-2.4,2.4h0"/></svg>