<?xml version="1.0" encoding="utf-8"?>
<!-- Generator: Adobe Illustrator 18.0.0, SVG Export Plug-In . SVG Version: 6.00 Build 0)  -->
<!DOCTYPE svg PUBLIC "-//W3C//DTD SVG 1.1//EN" "http://www.w3.org/Graphics/SVG/1.1/DTD/svg11.dtd">
<svg focusable="false" tabindex="" xmlns="http://www.w3.org/2000/svg" viewBox="0 0 46 46" aria-hidden="true"><defs><linearGradient id="IconBrowserGradient" x1="0%" y1="0%" x2="0%" y2="100%"><stop offset="0%" stop-color="#4772d9"></stop><stop offset="100%" stop-color="#6d47d9"></stop></linearGradient></defs><path fill="none" stroke="url(#IconBrowserGradient)" stroke-linejoin="round" stroke-linecap="round" d="M45.5 23c0 12.426-10.074 22.5-22.5 22.5S.5 35.426.5 23 10.574.5 23 .5 45.5 10.574 45.5 23zm-32-11.5h19c1.105 0 2 .895 2 2v19c0 1.105-.895 2-2 2h-19c-1.105 0-2-.895-2-2v-19c0-1.105.895-2 2-2zm-2 5h23m-19-2.5c0 .276-.224.5-.5.5s-.5-.224-.5-.5.224-.5.5-.5.5.224.5.5zm3 0c0 .276-.224.5-.5.5s-.5-.224-.5-.5.224-.5.5-.5.5.224.5.5zm3 0c0 .276-.224.5-.5.5s-.5-.224-.5-.5.224-.5.5-.5.5.224.5.5zm-7 5.5h3v12h-3v-12zm0 3h3m-3 3h3m-3 3h3m8-2H27l1.19 1h3.31v4h-6v-5zm-3.52-1.47l7.04-3.99M31 20.5c0 .552-.448 1-1 1s-1-.448-1-1 .448-1 1-1 1 .448 1 1zm-9 5c0 .552-.448 1-1 1s-1-.448-1-1 .448-1 1-1 1 .448 1 1z"></path></svg>
