<svg xmlns="http://www.w3.org/2000/svg" id="Layer_1" viewBox="0 0 369.32849 212.2002" width="369.328" height="212.2"><style id="style3752">.st0{opacity:.22;fill:#81b441}.st1{fill:none;stroke:#a6abb0;stroke-width:4;stroke-linecap:round;stroke-miterlimit:10;stroke-dasharray:2,8}.st1,.st2{opacity:.3}.st3{stroke-width:4;stroke-linecap:round;stroke-miterlimit:10}.st3,.st4,.st5{fill:none;stroke:#a6abb0}.st4{stroke-width:4;stroke-linecap:round;stroke-miterlimit:10;stroke-dasharray:1.9503,7.8014}.st5{stroke-linejoin:round}.st5,.st6,.st7,.st8,.st9{stroke-width:4;stroke-linecap:round;stroke-miterlimit:10}.st6{opacity:.6;stroke-linejoin:round;fill:none;stroke:#a6abb0}.st7{fill:#fff;stroke:#81b441}.st8,.st9{opacity:.3;fill:none;stroke:#a6abb0}.st9{opacity:.8;stroke:#fff}.st10{fill:#eaedef}.st11,.st12{fill:none;stroke-width:3}.st11{stroke-linecap:round;stroke-linejoin:round;stroke-miterlimit:10;stroke:#a6abb0}.st12{stroke:#81b441}.st12,.st13,.st14{stroke-linecap:round;stroke-miterlimit:10}.st13{opacity:.3;fill:none;stroke:#a6abb0;stroke-width:3}.st14{fill:#fff;stroke:#fff;stroke-width:12}.st15{opacity:.3;fill:#a6abb0}.st16{fill:none;stroke:#a6abb0;stroke-width:4;stroke-miterlimit:10;stroke-dasharray:1.9884,7.9537}.st16,.st17,.st18{stroke-linecap:round}.st17{fill:none;stroke-miterlimit:10;stroke-dasharray:1.9726,7.8905;stroke:#a6abb0;stroke-width:4}.st18{opacity:.45;stroke:#81b441;stroke-width:2}.st18,.st19,.st20{fill:none;stroke-miterlimit:10}.st19{stroke-linecap:round;stroke:#81b441;stroke-width:4}.st20{opacity:.3;stroke:#a6abb0;stroke-width:2}.st21{fill:#fff}.st22{opacity:.4;fill:#e4e6e7}.st23{opacity:.1;fill:#a6abb0}.st24{opacity:.7;fill:none;stroke:#a6abb0;stroke-width:2;stroke-miterlimit:10}.st25{fill:#81b441}.st26,.st27{stroke-linejoin:round}.st26{fill:none;stroke:#231f20;stroke-width:2;stroke-miterlimit:10}.st27{stroke-linecap:round}.st27,.st28{fill:none;stroke:#231f20;stroke-width:2;stroke-miterlimit:10}.st29{fill:none;stroke:#e4e6e7;stroke-width:3;stroke-linecap:round;stroke-linejoin:round}.st29,.st30,.st31,.st32{stroke-miterlimit:10}.st30{fill:none;stroke:#81b441;stroke-width:3}.st31,.st32{stroke-linecap:round}.st31{opacity:.3;fill:none;stroke:#a6abb0;stroke-width:2}.st32{fill:#fff;stroke:#e4e6e7;stroke-width:3;stroke-linejoin:round}.st33,.st34{stroke-width:4}.st33{fill:#fff;stroke-linecap:round;stroke-linejoin:round;stroke-miterlimit:10;stroke:#cacdd0}.st34{stroke:#a6abb0;stroke-dasharray:2.0569,8.2275}.st34,.st35,.st36,.st37{fill:none;stroke-linecap:round;stroke-miterlimit:10}.st35{stroke:#e4e6e7;stroke-width:4}.st36,.st37{stroke-width:3}.st36{stroke-dasharray:1,4;stroke:#cacdd0}.st37{stroke:#e4e6e7}.st38{opacity:.8;fill:#fff}.st39{fill:none;stroke:#e4e6e7;stroke-width:2;stroke-linejoin:round;stroke-miterlimit:10}.st39,.st40{stroke-linecap:round}.st40,.st41{fill:#fff;stroke:#e4e6e7;stroke-width:2;stroke-miterlimit:10}.st41,.st42,.st43{stroke-linecap:round;stroke-linejoin:round}.st42{fill:#fff;stroke:#cacdd0;stroke-miterlimit:10;stroke-width:3}.st43{stroke-width:4}.st43,.st44,.st45{fill:#fff;stroke:#e4e6e7;stroke-miterlimit:10}.st44{stroke-linecap:round;stroke-width:3}.st45{stroke-width:2}</style><path class="st0" d="M262.2 105.4l.6-.8-.5-.8c-.1-.3-.3-.6-.5-.8l-16.9-25.3-.6-.9h-70.7l-17.2 25.9c-.7.3-1.2 1-1.2 1.8l-.1.2.2.2c.1.7.6 1.3 1.3 1.5l51.2 59.4 1.5 1.8 1.5-1.8 50.8-59.6c.2-.2.4-.5.6-.8z" id="path3754" opacity=".22" fill="#81b441"/><path class="st8" d="M367.3 198.9h-94.4m-32.2 0h-12m-12.5 0h-68.5m22.6 11.3h-71" id="path3756" opacity=".3" fill="none" stroke="#a6abb0" stroke-width="4" stroke-linecap="round" stroke-miterlimit="10"/><path class="st5" d="M250 50.7c0 10.8 8.8 19.6 19.6 19.6h67.7c10.8 0 19.6-8.8 19.6-19.6 0-9.1-6.2-16.8-14.7-19 .3-1.5.5-3.1.5-4.7 0-13.8-11.2-25-25-25-7.9 0-14.9 3.7-19.5 9.4-3.4-1.9-7.2-3-11.4-3-12.9 0-23.4 10.5-23.4 23.4v.2c-1.4.5-2.7 1.1-3.9 1.8" id="path3758" fill="none" stroke="#a6abb0" stroke-width="4" stroke-linecap="round" stroke-linejoin="round" stroke-miterlimit="10"/><path class="st8" d="M108.9 137.4c0 10.8-8.8 19.6-19.6 19.6H21.6C10.8 157 2 148.2 2 137.4c0-9.1 6.2-16.8 14.7-19-.3-1.5-.5-3.1-.5-4.7 0-13.8 11.2-25 25-25 7.9 0 14.9 3.7 19.5 9.4 3.4-1.9 7.2-3 11.4-3 12.9 0 23.4 10.5 23.4 23.4v.2c1.4.5 2.7 1.1 3.9 1.8" id="path3760" opacity=".3" fill="none" stroke="#a6abb0" stroke-width="4" stroke-linecap="round" stroke-miterlimit="10"/><g class="st2" id="g3762" transform="translate(-22.8 -89.8)" opacity=".3"><path class="st3" d="M312.4 167.7c.2.3.3.6.5.9" id="path3764" fill="none" stroke="#a6abb0" stroke-width="4" stroke-linecap="round" stroke-miterlimit="10"/><path class="st16" d="M316.4 175.6c5.4 12.1 8.4 25.4 8.4 39.5 0 19.1-5.5 36.9-15.1 51.9" id="path3766" fill="none" stroke="#a6abb0" stroke-width="4" stroke-linecap="round" stroke-miterlimit="10" stroke-dasharray="1.9884,7.9537"/><path class="st3" d="M307.5 270.3c-.2.3-.4.5-.6.8" id="path3768" fill="none" stroke="#a6abb0" stroke-width="4" stroke-linecap="round" stroke-miterlimit="10"/></g><g class="st2" id="g3770" transform="translate(-22.8 -89.8)" opacity=".3"><path class="st3" d="M131.7 215.1v-1" id="path3772" fill="none" stroke="#a6abb0" stroke-width="4" stroke-linecap="round" stroke-miterlimit="10"/><path class="st17" d="M132.1 206.2c4.5-49.2 45.8-87.7 96.1-87.7 28.2 0 53.6 12.1 71.3 31.4" id="path3774" fill="none" stroke="#a6abb0" stroke-width="4" stroke-linecap="round" stroke-miterlimit="10" stroke-dasharray="1.9726,7.8905"/><path class="st3" d="M302.1 153c.2.3.4.5.6.8" id="path3776" fill="none" stroke="#a6abb0" stroke-width="4" stroke-linecap="round" stroke-miterlimit="10"/></g><path class="st18" d="M153.5 97.1h103.2M205.5 157l-16.3-59.9L171 71.4m34.5 85.6l16.3-59.9 17.6-25.7m-50.2 25.7l15.9-24 16.7 24" id="path3778" opacity=".45" fill="none" stroke="#81b441" stroke-width="2" stroke-linecap="round" stroke-miterlimit="10"/><path class="st19" d="M205.5 157l-51.7-59.9L171 71.4h68.4l17.2 25.7z" id="path3780" fill="none" stroke="#81b441" stroke-width="4" stroke-linecap="round" stroke-miterlimit="10"/><path class="st15" d="M72.4 48.1h-3v-3c0-.8-.7-1.5-1.5-1.5s-1.5.7-1.5 1.5v3h-3c-.8 0-1.5.7-1.5 1.5s.7 1.5 1.5 1.5h3v3c0 .8.7 1.5 1.5 1.5s1.5-.7 1.5-1.5v-3h3c.8 0 1.5-.7 1.5-1.5s-.7-1.5-1.5-1.5zm259 124h-3v-3c0-.8-.7-1.5-1.5-1.5s-1.5.7-1.5 1.5v3h-3c-.8 0-1.5.7-1.5 1.5s.7 1.5 1.5 1.5h3v3c0 .8.7 1.5 1.5 1.5s1.5-.7 1.5-1.5v-3h3c.8 0 1.5-.7 1.5-1.5s-.7-1.5-1.5-1.5z" id="path3782" opacity=".3" fill="#a6abb0"/><circle class="st20" cx="250" cy="20" r="4" id="circle3784" opacity=".3" fill="none" stroke="#a6abb0" stroke-width="2" stroke-miterlimit="10"/><circle class="st24" cx="135.7" cy="198.1" r="3.2" id="circle3786" opacity=".7" fill="none" stroke="#a6abb0" stroke-width="2" stroke-miterlimit="10"/></svg>