<svg xmlns="http://www.w3.org/2000/svg" id="Layer_1" viewBox="0 0 312.72849 202.40021" width="312.728" height="202.4"><style id="style3637">.st0{opacity:.22;fill:#81b441}.st1{fill:none;stroke:#a6abb0;stroke-width:4;stroke-linecap:round;stroke-miterlimit:10;stroke-dasharray:2,8}.st1,.st2{opacity:.3}.st3{stroke-width:4;stroke-linecap:round;stroke-miterlimit:10}.st3,.st4,.st5{fill:none;stroke:#a6abb0}.st4{stroke-width:4;stroke-linecap:round;stroke-miterlimit:10;stroke-dasharray:1.9503,7.8014}.st5{stroke-linejoin:round}.st5,.st6,.st7,.st8,.st9{stroke-width:4;stroke-linecap:round;stroke-miterlimit:10}.st6{opacity:.6;stroke-linejoin:round;fill:none;stroke:#a6abb0}.st7{fill:#fff;stroke:#81b441}.st8,.st9{opacity:.3;fill:none;stroke:#a6abb0}.st9{opacity:.8;stroke:#fff}.st10{fill:#eaedef}.st11,.st12{fill:none;stroke-width:3}.st11{stroke-linecap:round;stroke-linejoin:round;stroke-miterlimit:10;stroke:#a6abb0}.st12{stroke:#81b441}.st12,.st13,.st14{stroke-linecap:round;stroke-miterlimit:10}.st13{opacity:.3;fill:none;stroke:#a6abb0;stroke-width:3}.st14{fill:#fff;stroke:#fff;stroke-width:12}.st15{opacity:.3;fill:#a6abb0}.st16{fill:none;stroke:#a6abb0;stroke-width:4;stroke-miterlimit:10;stroke-dasharray:1.9884,7.9537}.st16,.st17,.st18{stroke-linecap:round}.st17{fill:none;stroke-miterlimit:10;stroke-dasharray:1.9726,7.8905;stroke:#a6abb0;stroke-width:4}.st18{opacity:.45;stroke:#81b441;stroke-width:2}.st18,.st19,.st20{fill:none;stroke-miterlimit:10}.st19{stroke-linecap:round;stroke:#81b441;stroke-width:4}.st20{opacity:.3;stroke:#a6abb0;stroke-width:2}.st21{fill:#fff}.st22{opacity:.4;fill:#e4e6e7}.st23{opacity:.1;fill:#a6abb0}.st24{opacity:.7;fill:none;stroke:#a6abb0;stroke-width:2;stroke-miterlimit:10}.st25{fill:#81b441}.st26,.st27{stroke-linejoin:round}.st26{fill:none;stroke:#231f20;stroke-width:2;stroke-miterlimit:10}.st27{stroke-linecap:round}.st27,.st28{fill:none;stroke:#231f20;stroke-width:2;stroke-miterlimit:10}.st29{fill:none;stroke:#e4e6e7;stroke-width:3;stroke-linecap:round;stroke-linejoin:round}.st29,.st30,.st31,.st32{stroke-miterlimit:10}.st30{fill:none;stroke:#81b441;stroke-width:3}.st31,.st32{stroke-linecap:round}.st31{opacity:.3;fill:none;stroke:#a6abb0;stroke-width:2}.st32{fill:#fff;stroke:#e4e6e7;stroke-width:3;stroke-linejoin:round}.st33,.st34{stroke-width:4}.st33{fill:#fff;stroke-linecap:round;stroke-linejoin:round;stroke-miterlimit:10;stroke:#cacdd0}.st34{stroke:#a6abb0;stroke-dasharray:2.0569,8.2275}.st34,.st35,.st36,.st37{fill:none;stroke-linecap:round;stroke-miterlimit:10}.st35{stroke:#e4e6e7;stroke-width:4}.st36,.st37{stroke-width:3}.st36{stroke-dasharray:1,4;stroke:#cacdd0}.st37{stroke:#e4e6e7}.st38{opacity:.8;fill:#fff}.st39,.st40,.st41{stroke:#e4e6e7;stroke-width:2}.st39,.st40,.st41,.st42{stroke-linecap:round;stroke-miterlimit:10}.st39{stroke-linejoin:round;fill:none}.st40,.st41,.st42{fill:#fff}.st41,.st42{stroke-linejoin:round}.st42{stroke:#cacdd0;stroke-width:3}.st43{font-family:&apos;ArialRoundedMTBold&apos;}.st44{font-size:28px}.st45{stroke-width:4;stroke-linecap:round;stroke-linejoin:round}.st45,.st46,.st47{fill:#fff;stroke:#e4e6e7;stroke-miterlimit:10}.st46{stroke-linecap:round;stroke-width:3}.st47{stroke-width:2}</style><path class="st8" d="M236.7 189.2H22.4m288.3 0h-48m-150.9 11.2H75.3" id="path3639" opacity=".3" fill="none" stroke="#a6abb0" stroke-width="4" stroke-linecap="round" stroke-miterlimit="10"/><path class="st21" d="M194.8 189.3h-108c-5.7 0-10.3-4.6-10.3-10.3V60.5c0-5.7 4.6-10.3 10.3-10.3h107.9c5.7 0 10.3 4.6 10.3 10.3V179c0 5.6-4.6 10.3-10.2 10.3z" id="path3641" fill="#fff"/><path class="st22" d="M76.5 69.7v-8.4c0-5.7 4.6-10.3 10.3-10.3h107.9c5.7 0 10.3 4.6 10.3 10.3v8.4" id="path3643" opacity=".4" fill="#e4e6e7"/><circle class="st15" cx="89.3" cy="60.5" r="3.3" id="circle3645" opacity=".3" fill="#a6abb0"/><circle class="st15" cx="100.7" cy="60.5" r="3.3" id="circle3647" opacity=".3" fill="#a6abb0"/><circle class="st21" cx="213.3" cy="37.4" r="37.4" id="circle3649" fill="#fff"/><circle class="st19" cx="211.6" cy="37.1" r="29.9" id="circle3651" fill="none" stroke="#81b441" stroke-width="4" stroke-linecap="round" stroke-miterlimit="10"/><circle class="st0" cx="215.7" cy="42.1" r="31.2" id="circle3653" opacity=".22" fill="#81b441"/><path class="st23" d="M191.5 136.8H90.1c-2.5 0-4.6-2.1-4.6-4.6v-50c0-2.5 2.1-4.6 4.6-4.6h101.4c2.5 0 4.6 2.1 4.6 4.6v50c0 2.5-2.1 4.6-4.6 4.6z" id="path3655" opacity=".1" fill="#a6abb0"/><path class="st8" d="M119.6 147.4H87.9m62.1 9.2H87.9m46.7 9.2H87.9m12.6 9.2H87.9m49.3 0h-12.6" id="path3657" opacity=".3" fill="none" stroke="#a6abb0" stroke-width="4" stroke-linecap="round" stroke-miterlimit="10"/><path class="st15" d="M71.8 38.6h-3v-3c0-.8-.7-1.5-1.5-1.5s-1.5.7-1.5 1.5v3h-3c-.8 0-1.5.7-1.5 1.5s.7 1.5 1.5 1.5h3v3c0 .8.7 1.5 1.5 1.5s1.5-.7 1.5-1.5v-3h3c.8 0 1.5-.7 1.5-1.5s-.7-1.5-1.5-1.5z" id="path3659" opacity=".3" fill="#a6abb0"/><g class="st2" id="g3661" transform="translate(-79.1 -100)" opacity=".3"><path class="st3" d="M325 167c.2.3.4.5.6.8" id="path3663" fill="none" stroke="#a6abb0" stroke-width="4" stroke-linecap="round" stroke-miterlimit="10"/><path class="st16" d="M329.9 174.5c6.7 11.4 11.2 24.3 12.7 38.3 2.1 19-1.5 37.3-9.3 53.2" id="path3665" fill="none" stroke="#a6abb0" stroke-width="4" stroke-linecap="round" stroke-miterlimit="10" stroke-dasharray="1.9884,7.9537"/><path class="st3" d="M331.4 269.6c-.2.3-.3.6-.5.9" id="path3667" fill="none" stroke="#a6abb0" stroke-width="4" stroke-linecap="round" stroke-miterlimit="10"/></g><circle class="st24" cx="235.7" cy="89.6" r="4" id="circle3669" opacity=".7" fill="none" stroke="#a6abb0" stroke-width="2" stroke-miterlimit="10"/><text class="st25 st43 st44" id="text3671" x="190.96" y="47.231" font-size="28" font-family="ArialRoundedMTBold" fill="#81b441">HD</text><path class="st5" d="M205.9 77.8v100.7c0 5.7-4.6 10.3-10.3 10.3H87.7c-5.7 0-10.3-4.6-10.3-10.3V60.1c0-5.7 4.6-10.3 10.3-10.3h88.2" id="path3673" fill="none" stroke="#a6abb0" stroke-width="4" stroke-linecap="round" stroke-linejoin="round" stroke-miterlimit="10"/><circle class="st20" cx="296.9" cy="174.9" r="4" id="circle3675" opacity=".3" fill="none" stroke="#a6abb0" stroke-width="2" stroke-miterlimit="10"/><path class="st15" d="M10.5 187.4h-3v-3c0-.8-.7-1.5-1.5-1.5s-1.5.7-1.5 1.5v3h-3c-.8 0-1.5.7-1.5 1.5s.7 1.5 1.5 1.5h3v3c0 .8.7 1.5 1.5 1.5s1.5-.7 1.5-1.5v-3h3c.8 0 1.5-.7 1.5-1.5s-.7-1.5-1.5-1.5z" id="path3677" opacity=".3" fill="#a6abb0"/><circle class="st39" cx="141.9" cy="107.1" r="17" id="circle3679" fill="none" stroke="#e4e6e7" stroke-width="2" stroke-linecap="round" stroke-linejoin="round" stroke-miterlimit="10"/><path class="st39" d="M138.7 99.2l10.8 7.1c.6.4.6 1.2 0 1.6l-10.8 7.1c-.6.4-1.5 0-1.5-.8V100c0-.8.9-1.2 1.5-.8z" id="path3681" fill="none" stroke="#e4e6e7" stroke-width="2" stroke-linecap="round" stroke-linejoin="round" stroke-miterlimit="10"/></svg>