<?xml version="1.0" encoding="utf-8"?>
<!-- Generator: Adobe Illustrator 18.0.0, SVG Export Plug-In . SVG Version: 6.00 Build 0)  -->
<!DOCTYPE svg PUBLIC "-//W3C//DTD SVG 1.1//EN" "http://www.w3.org/Graphics/SVG/1.1/DTD/svg11.dtd">
<svg focusable="false" tabindex="" xmlns="http://www.w3.org/2000/svg" viewBox="0 0 46 46" aria-hidden="true"><defs><linearGradient id="IconBookGradient" x1="0%" y1="0%" x2="0%" y2="100%"><stop offset="0%" stop-color="#4772d9"></stop><stop offset="100%" stop-color="#6d47d9"></stop></linearGradient></defs><path fill="none" stroke="url(#IconBookGradient)" stroke-linejoin="round" stroke-linecap="round" d="M 23 31.51 C 22.748 29.759 24.249 28.258 26 28.51 L 32 28.51 L 32 12.51 L 26 12.51 C 24.249 12.258 22.748 13.759 23 15.51 C 23.252 13.759 21.751 12.258 20 12.51 L 14 12.51 L 14 28.51 L 20 28.51 C 21.747 28.268 23.242 29.763 23 31.51 Z M 32 14.51 L 34 14.51 L 34 30.51 L 28 30.51 C 26 30.51 24.5 31.51 24.5 33.51 L 21.5 33.51 C 21.5 31.51 20 30.51 18 30.51 L 12 30.51 L 12 14.51 L 14 14.51 M 23 15.51 L 23 31.01 M 45.5 23 C 45.5 35.426 35.426 45.5 23 45.5 C 10.574 45.5 0.5 35.426 0.5 23 C 0.5 10.574 10.574 0.5 23 0.5 C 35.426 0.5 45.5 10.574 45.5 23 Z"></path></svg>
