<?xml version="1.0" encoding="UTF-8" standalone="no"?>
<svg width="250px" height="31px" viewBox="0 0 250 31" version="1.1" xmlns="http://www.w3.org/2000/svg" xmlns:xlink="http://www.w3.org/1999/xlink" xmlns:sketch="http://www.bohemiancoding.com/sketch/ns">
    <!-- Generator: Sketch 3.3.3 (12081) - http://www.bohemiancoding.com/sketch -->
    <title>EnvatoTuts+ pos</title>
    <desc>Created with Sketch.</desc>
    <defs></defs>
    <g id="Page-1" stroke="none" stroke-width="1" fill="none" fill-rule="evenodd" sketch:type="MSPage">
        <g id="Imported-Layers" sketch:type="MSLayerGroup" transform="translate(-1.000000, 0.000000)">
            <path d="M21.438,3.749 C20.635,3.303 18.332,3.578 15.566,4.435 C10.725,7.744 6.639,12.618 6.354,20.447 C6.302,20.634 5.825,20.421 5.73,20.363 C4.423,17.858 3.905,15.219 4.997,11.413 C5.2,11.075 4.535,10.658 4.415,10.777 C4.176,11.017 3.177,12.081 2.514,13.231 C-0.774,18.935 1.376,26.244 7.129,29.442 C12.88,32.646 20.143,30.58 23.345,24.826 C27.05,18.186 23.61,4.962 21.438,3.749" id="Fill-1" fill="#7AAC41" sketch:type="MSShapeGroup"></path>
            <path d="M42.026,6.935 C35.206,6.935 30.256,12.005 30.256,18.99 C30.256,26.033 35.193,30.951 42.263,30.951 C45.834,30.951 48.661,29.834 50.91,27.536 C51.581,26.811 51.654,26.112 51.654,25.845 C51.654,24.706 50.807,23.879 49.64,23.879 C49.052,23.879 48.56,24.101 47.996,24.622 C46.723,25.809 45.046,27.021 42.263,27.021 C38.393,27.021 35.246,24.115 35.048,20.384 L50.45,20.384 C52.124,20.384 52.938,19.601 52.938,17.991 C52.938,17.517 52.938,17.175 52.843,16.5 C52.013,10.511 47.97,6.935 42.026,6.935 L42.026,6.935 Z M42.026,10.675 C45.724,10.675 48.096,13.032 48.243,16.835 L35.053,16.835 C35.399,13.315 38.375,10.675 42.026,10.675 L42.026,10.675 Z" id="Fill-2" fill="#131412" sketch:type="MSShapeGroup"></path>
            <path d="M67.646,6.935 C64.548,6.935 61.481,8.717 60.283,11.191 L60.283,9.662 C60.283,7.294 58.447,7.174 58.079,7.174 C56.992,7.174 55.829,7.827 55.829,9.662 L55.829,28.129 C55.829,30.588 57.783,30.713 58.175,30.713 C58.566,30.713 60.521,30.588 60.521,28.129 L60.521,18.229 C60.521,13.922 62.962,10.913 66.456,10.913 C69.841,10.913 71.487,13.135 71.487,17.705 L71.487,28.129 C71.487,30.588 73.442,30.713 73.834,30.713 C74.225,30.713 76.179,30.588 76.179,28.129 L76.179,16.23 C76.179,11.736 73.937,6.935 67.646,6.935" id="Fill-3" fill="#131412" sketch:type="MSShapeGroup"></path>
            <path d="M97.408,7.174 C96.324,7.174 95.537,7.806 95.069,9.05 L88.65,25.193 L82.28,9.05 C81.781,7.787 81.001,7.174 79.893,7.174 C78.6,7.174 77.547,8.183 77.547,9.424 C77.547,9.731 77.582,10.129 77.841,10.752 L85.218,28.171 C86.098,30.272 87.544,30.713 88.602,30.713 C89.66,30.713 91.107,30.272 91.988,28.171 L99.413,10.655 C99.667,10.041 99.706,9.59 99.706,9.376 C99.706,8.121 98.717,7.174 97.408,7.174" id="Fill-4" fill="#131412" sketch:type="MSShapeGroup"></path>
            <path d="M111.051,6.935 C108.05,6.935 105.255,7.771 103.182,9.287 C102.479,9.772 102.137,10.377 102.137,11.138 C102.137,12.186 102.936,13.007 103.96,13.007 C104.402,13.007 104.897,12.831 105.352,12.512 C107.134,11.324 108.809,10.77 110.622,10.77 C114.091,10.77 116.082,12.535 116.082,15.611 L116.082,16.121 C108.295,16.13 100.375,17.07 100.375,23.845 C100.375,28.72 104.542,30.903 108.671,30.903 C111.96,30.903 114.586,29.6 116.271,27.133 L116.271,28.319 C116.271,30.086 117.458,30.713 118.475,30.713 C118.69,30.713 120.583,30.646 120.583,28.319 L120.583,15.897 C120.583,10.285 117.018,6.935 111.051,6.935 L111.051,6.935 Z M115.095,19.576 L116.082,19.576 L116.082,20.656 C116.082,24.61 113.565,27.164 109.67,27.164 C108.613,27.164 105.163,26.918 105.163,23.749 C105.163,20.008 110.831,19.576 115.095,19.576 L115.095,19.576 Z" id="Fill-5" fill="#131412" sketch:type="MSShapeGroup"></path>
            <path d="M132.801,11.437 C134.853,11.437 134.957,9.839 134.957,9.519 C134.957,8.569 134.39,7.554 132.801,7.554 L128.579,7.554 L128.579,3.284 C128.579,1.377 127.342,0.7 126.281,0.7 C125.89,0.7 123.936,0.825 123.936,3.284 L123.936,23.56 C123.936,28.24 126.244,30.713 130.612,30.713 C131.742,30.713 132.843,30.513 133.563,30.177 C134.389,29.765 134.862,29.088 134.862,28.319 C134.862,27.235 134.076,26.449 132.991,26.449 C132.782,26.449 132.484,26.501 132.156,26.595 C131.754,26.696 131.482,26.735 131.184,26.735 C129.407,26.735 128.579,25.575 128.579,23.084 L128.579,11.437 L132.801,11.437" id="Fill-6" fill="#131412" sketch:type="MSShapeGroup"></path>
            <path d="M148.316,6.935 C141.22,6.935 136.071,11.965 136.071,18.895 C136.071,22.268 137.318,25.343 139.582,27.553 C141.829,29.744 144.93,30.951 148.316,30.951 C155.324,30.951 160.609,25.768 160.609,18.895 C160.609,11.965 155.438,6.935 148.316,6.935 L148.316,6.935 Z M148.316,26.973 C143.449,26.973 140.905,22.909 140.905,18.895 C140.905,13.378 144.746,10.866 148.316,10.866 C151.885,10.866 155.727,13.378 155.727,18.895 C155.727,24.445 151.885,26.973 148.316,26.973 L148.316,26.973 Z" id="Fill-7" fill="#131412" sketch:type="MSShapeGroup"></path>
            <path d="M175.196,28.138 C172.964,28.456 171.705,28.37 171.105,27.492 C170.676,26.861 170.458,25.819 170.458,24.396 L170.458,9.331 L174.803,9.331 C175.19,9.331 175.503,9.017 175.503,8.631 L175.503,7.523 C175.503,7.136 175.19,6.823 174.803,6.823 L170.458,6.823 L170.458,1.535 C170.458,1.148 170.145,0.835 169.758,0.835 L168.63,0.835 C168.243,0.835 167.93,1.148 167.93,1.535 L167.93,6.823 L164.528,6.823 C164.142,6.823 163.828,7.136 163.828,7.523 L163.828,8.631 C163.828,9.017 164.142,9.331 164.528,9.331 L167.93,9.331 L167.93,24.544 C167.945,26.652 168.342,28.177 169.144,29.208 C169.977,30.28 171.329,30.823 173.162,30.823 C174.349,30.823 175.186,30.729 175.719,30.534 C176.038,30.418 176.228,30.09 176.169,29.755 L175.984,28.709 C175.919,28.337 175.565,28.089 175.196,28.138" id="Fill-8" fill="#7AAC41" sketch:type="MSShapeGroup"></path>
            <path d="M194.882,6.823 L193.754,6.823 C193.367,6.823 193.054,7.136 193.054,7.523 L193.054,23.065 C192.723,24.798 191.988,26.072 190.81,26.959 C189.614,27.859 188.018,28.315 186.064,28.315 C184.265,28.315 182.949,27.802 182.042,26.744 C181.118,25.668 180.637,24.022 180.611,21.858 L180.611,7.523 C180.611,7.136 180.298,6.823 179.911,6.823 L178.804,6.823 C178.417,6.823 178.104,7.136 178.104,7.523 L178.104,21.824 C178.133,24.688 178.814,26.919 180.127,28.455 C181.471,30.026 183.481,30.823 186.105,30.823 C188.147,30.823 189.871,30.43 191.229,29.654 C191.918,29.261 192.527,28.794 193.054,28.256 L193.054,29.713 C193.054,30.099 193.367,30.413 193.754,30.413 L194.882,30.413 C195.269,30.413 195.582,30.099 195.582,29.713 L195.582,7.523 C195.582,7.136 195.269,6.823 194.882,6.823" id="Fill-9" fill="#7AAC41" sketch:type="MSShapeGroup"></path>
            <path d="M209.375,28.138 C207.141,28.457 205.882,28.37 205.283,27.492 C204.855,26.862 204.637,25.82 204.637,24.396 L204.637,9.331 L208.981,9.331 C209.368,9.331 209.682,9.017 209.682,8.631 L209.682,7.523 C209.682,7.136 209.368,6.823 208.981,6.823 L204.637,6.823 L204.637,1.535 C204.637,1.148 204.323,0.835 203.936,0.835 L202.809,0.835 C202.422,0.835 202.108,1.148 202.108,1.535 L202.108,6.823 L198.707,6.823 C198.32,6.823 198.007,7.136 198.007,7.523 L198.007,8.631 C198.007,9.017 198.32,9.331 198.707,9.331 L202.108,9.331 L202.108,24.544 C202.124,26.652 202.521,28.177 203.322,29.208 C204.155,30.28 205.508,30.823 207.341,30.823 C208.527,30.823 209.364,30.729 209.897,30.534 C210.217,30.418 210.406,30.09 210.348,29.755 L210.163,28.709 C210.098,28.337 209.746,28.089 209.375,28.138" id="Fill-10" fill="#7AAC41" sketch:type="MSShapeGroup"></path>
            <path d="M228.569,21.054 C228.027,20.163 227.158,19.391 225.987,18.76 C224.871,18.159 223.35,17.634 221.466,17.198 C219.691,16.787 218.333,16.359 217.426,15.926 C216.576,15.518 215.966,15.073 215.612,14.6 C215.284,14.159 215.117,13.51 215.117,12.671 C215.117,11.623 215.581,10.766 216.537,10.053 C217.543,9.302 218.955,8.921 220.733,8.921 C222.586,8.921 224.095,9.373 225.22,10.266 C226.312,11.132 226.842,12.173 226.842,13.45 C226.842,13.837 227.155,14.15 227.542,14.15 L228.669,14.15 C229.056,14.15 229.369,13.837 229.369,13.45 C229.369,11.292 228.548,9.552 226.929,8.276 C225.359,7.04 223.275,6.413 220.733,6.413 C218.384,6.413 216.436,6.993 214.944,8.137 C213.396,9.323 212.609,10.862 212.609,12.712 C212.609,14.532 213.237,15.991 214.474,17.048 C215.655,18.057 217.642,18.848 220.548,19.467 C224.81,20.368 226.883,21.942 226.883,24.278 C226.883,25.366 226.367,26.28 225.307,27.07 C224.2,27.896 222.717,28.315 220.898,28.315 C218.892,28.315 217.296,27.919 216.155,27.136 C215.066,26.388 214.491,25.37 214.397,24.024 C214.371,23.657 214.065,23.373 213.698,23.373 L212.592,23.373 C212.205,23.373 211.892,23.686 211.892,24.073 C211.892,26.076 212.757,27.732 214.461,28.993 C216.101,30.207 218.267,30.823 220.898,30.823 C223.364,30.823 225.401,30.238 226.953,29.085 C228.57,27.884 229.391,26.274 229.391,24.299 C229.391,23.04 229.114,21.948 228.569,21.054" id="Fill-11" fill="#7AAC41" sketch:type="MSShapeGroup"></path>
            <path d="M249.449,17.368 L243.253,17.368 L243.253,10.836 C243.253,10.366 242.873,9.985 242.403,9.985 L241.598,9.985 C241.128,9.985 240.748,10.366 240.748,10.836 L240.748,17.368 L234.83,17.368 C234.36,17.368 233.981,17.749 233.981,18.218 L233.981,19.009 C233.981,19.479 234.36,19.859 234.83,19.859 L240.748,19.859 L240.748,26.378 C240.748,26.847 241.128,27.228 241.598,27.228 L242.403,27.228 C242.873,27.228 243.253,26.847 243.253,26.378 L243.253,19.859 L249.449,19.859 C249.919,19.859 250.299,19.479 250.299,19.009 L250.299,18.218 C250.299,17.749 249.919,17.368 249.449,17.368" id="Fill-12" fill="#7AAC41" sketch:type="MSShapeGroup"></path>
        </g>
    </g>
</svg>