<svg xmlns="http://www.w3.org/2000/svg" id="Layer_1" viewBox="0 0 320.05698 182.1002" width="320.057" height="182.1"><style id="style3479">.st0{opacity:.22;fill:#81b441}.st1{fill:none;stroke:#a6abb0;stroke-width:4;stroke-linecap:round;stroke-miterlimit:10;stroke-dasharray:2,8}.st1,.st2{opacity:.3}.st3{stroke-width:4;stroke-linecap:round;stroke-miterlimit:10}.st3,.st4,.st5{fill:none;stroke:#a6abb0}.st4{stroke-width:4;stroke-linecap:round;stroke-miterlimit:10;stroke-dasharray:1.9503,7.8014}.st5{stroke-linejoin:round}.st5,.st6,.st7,.st8,.st9{stroke-width:4;stroke-linecap:round;stroke-miterlimit:10}.st6{opacity:.6;stroke-linejoin:round;fill:none;stroke:#a6abb0}.st7{fill:#fff;stroke:#81b441}.st8,.st9{opacity:.3;fill:none;stroke:#a6abb0}.st9{opacity:.8;stroke:#fff}.st10{fill:#eaedef}.st11,.st12{fill:none;stroke-width:3}.st11{stroke-linecap:round;stroke-linejoin:round;stroke-miterlimit:10;stroke:#a6abb0}.st12{stroke:#81b441}.st12,.st13,.st14{stroke-linecap:round;stroke-miterlimit:10}.st13{opacity:.3;fill:none;stroke:#a6abb0;stroke-width:3}.st14{fill:#fff;stroke:#fff;stroke-width:12}.st15{opacity:.3;fill:#a6abb0}.st16{fill:none;stroke:#a6abb0;stroke-width:4;stroke-miterlimit:10;stroke-dasharray:1.9884,7.9537}.st16,.st17,.st18{stroke-linecap:round}.st17{fill:none;stroke-miterlimit:10;stroke-dasharray:1.9726,7.8905;stroke:#a6abb0;stroke-width:4}.st18{opacity:.45;stroke:#81b441;stroke-width:2}.st18,.st19,.st20{fill:none;stroke-miterlimit:10}.st19{stroke-linecap:round;stroke:#81b441;stroke-width:4}.st20{opacity:.3;stroke:#a6abb0;stroke-width:2}.st21{fill:#fff}.st22{opacity:.4;fill:#e4e6e7}.st23{opacity:.1;fill:#a6abb0}.st24{opacity:.7;fill:none;stroke:#a6abb0;stroke-width:2;stroke-miterlimit:10}.st25{fill:#81b441}.st26,.st27{stroke-linejoin:round}.st26{fill:none;stroke:#231f20;stroke-width:2;stroke-miterlimit:10}.st27{stroke-linecap:round}.st27,.st28{fill:none;stroke:#231f20;stroke-width:2;stroke-miterlimit:10}.st29{fill:none;stroke:#e4e6e7;stroke-width:3;stroke-linecap:round;stroke-linejoin:round}.st29,.st30,.st31,.st32{stroke-miterlimit:10}.st30{fill:none;stroke:#81b441;stroke-width:3}.st31,.st32{stroke-linecap:round}.st31{opacity:.3;fill:none;stroke:#a6abb0;stroke-width:2}.st32{fill:#fff;stroke:#e4e6e7;stroke-width:3;stroke-linejoin:round}.st33,.st34{stroke-width:4}.st33{fill:#fff;stroke-linecap:round;stroke-linejoin:round;stroke-miterlimit:10;stroke:#cacdd0}.st34{stroke:#a6abb0;stroke-dasharray:2.0569,8.2275}.st34,.st35,.st36,.st37{fill:none;stroke-linecap:round;stroke-miterlimit:10}.st35{stroke:#e4e6e7;stroke-width:4}.st36,.st37{stroke-width:3}.st36{stroke-dasharray:1,4;stroke:#cacdd0}.st37{stroke:#e4e6e7}.st38{opacity:.8;fill:#fff}.st39{fill:none;stroke:#e4e6e7;stroke-width:2;stroke-linejoin:round;stroke-miterlimit:10}.st39,.st40{stroke-linecap:round}.st40,.st41{fill:#fff;stroke:#e4e6e7;stroke-width:2;stroke-miterlimit:10}.st41,.st42,.st43{stroke-linecap:round;stroke-linejoin:round}.st42{fill:#fff;stroke:#cacdd0;stroke-miterlimit:10;stroke-width:3}.st43{stroke-width:4}.st43,.st44,.st45{fill:#fff;stroke:#e4e6e7;stroke-miterlimit:10}.st44{stroke-linecap:round;stroke-width:3}.st45{stroke-width:2}</style><path class="st5" d="M222.828 68.5v80.7h11s2 19.7-11 19.7h-133.6c-13 0-11-19.7-11-19.7h11V68.5" id="path3481" fill="none" stroke="#a6abb0" stroke-width="4" stroke-linecap="round" stroke-linejoin="round" stroke-miterlimit="10"/><path class="st6" d="M209.328 148.5h-39.3s0 5.5-5.5 5.5h-17.1c-5.5 0-5.5-5.5-5.5-5.5h-39.3" id="path3483" opacity=".6" fill="none" stroke="#a6abb0" stroke-width="4" stroke-linecap="round" stroke-linejoin="round" stroke-miterlimit="10"/><path class="st7" d="M194.128 23.7h-76.2c-6.1 0-11 5-11 11v59.8c0 6.1 5 11 11 11h7.9v17.9c0 1.4 1.6 2 2.6 1.1l19-19h46.7c6.1 0 11-5 11-11V34.7c0-6-5-11-11-11z" id="path3485" fill="#fff" stroke="#81b441" stroke-width="4" stroke-linecap="round" stroke-miterlimit="10"/><path class="st0" d="M200.528 29.7h-76.2c-6.1 0-11 5-11 11v59.8c0 6.1 5 11 11 11h7.9v17.9c0 1.4 1.6 2 2.6 1.1l19-19h46.7c6.1 0 11-5 11-11V40.7c.1-6-4.9-11-11-11z" id="path3487" opacity=".22" fill="#81b441"/><path class="st8" d="M318.028 168.8h-316" id="path3489" opacity=".3" fill="none" stroke="#a6abb0" stroke-width="4" stroke-linecap="round" stroke-miterlimit="10"/><path class="st9" d="M152.528 46.6h-30.3m59.1 9.2h-59m59 34h-59m44.4-24.8h-44.4m11.9 9.2h-11.9m46.3 0h-12.6m28.3 0h-6.3" id="path3491" opacity=".8" fill="none" stroke="#fff" stroke-width="4" stroke-linecap="round" stroke-miterlimit="10"/><path class="st14" d="M181.628 6h54.9c2.6 0 4.8 2.1 4.8 4.8v25.9c0 2.6-2.1 4.8-4.8 4.8h-3.4v7.7c0 .6-.7.9-1.1.5l-8.2-8.2h-42.2c-2.6 0-4.8-2.1-4.8-4.8V10.8c.1-2.6 2.2-4.8 4.8-4.8z" id="path3493" fill="#fff" stroke="#fff" stroke-width="12" stroke-linecap="round" stroke-miterlimit="10"/><path class="st8" d="M181.628 6.3h54.9c2.6 0 4.8 2.1 4.8 4.8V37c0 2.6-2.1 4.8-4.8 4.8h-3.4v7.7c0 .6-.7.9-1.1.5l-8.2-8.2h-42.2c-2.6 0-4.8-2.1-4.8-4.8V11.1c.1-2.7 2.2-4.8 4.8-4.8z" id="path3495" opacity=".3" fill="none" stroke="#a6abb0" stroke-width="4" stroke-linecap="round" stroke-miterlimit="10"/><circle class="st15" cx="190.228" cy="23.7" r="4.3" id="circle3497" opacity=".3" fill="#a6abb0"/><circle class="st15" cx="207.628" cy="23.7" r="4.3" id="circle3499" opacity=".3" fill="#a6abb0"/><path class="st15" d="M93.528 55.2l-2.1-2.1 2.1-2.1c.6-.6.6-1.5 0-2.1-.6-.6-1.5-.6-2.1 0l-2.1 2.1-2.1-2.1c-.6-.6-1.5-.6-2.1 0-.6.6-.6 1.5 0 2.1l2.1 2.1-2.1 2.1c-.6.6-.6 1.5 0 2.1.6.6 1.5.6 2.1 0l2.1-2.1 2.1 2.1c.6.6 1.5.6 2.1 0 .6-.6.6-1.5 0-2.1z" id="path3501" opacity=".3" fill="#a6abb0"/><path class="st8" d="M125.528 180.1h-40.5m174.3 0h-69.7" id="path3503" opacity=".3" fill="none" stroke="#a6abb0" stroke-width="4" stroke-linecap="round" stroke-miterlimit="10"/><path class="st15" d="M230.028 25.9l-2.1-2.1 2.1-2.1c.6-.6.6-1.5 0-2.1-.6-.6-1.5-.6-2.1 0l-2.1 2.1-2.1-2.1c-.6-.6-1.5-.6-2.1 0-.6.6-.6 1.5 0 2.1l2.1 2.1-2.1 2.1c-.6.6-.6 1.5 0 2.1.6.6 1.5.6 2.1 0l2.1-2.1 2.1 2.1c.6.6 1.5.6 2.1 0 .6-.6.6-1.6 0-2.1z" id="path3505" opacity=".3" fill="#a6abb0"/><g class="st2" id="g3507" transform="translate(-73.972 -122.9)" opacity=".3"><path class="st3" d="M98.2 235.5c.2-.3.4-.6.5-.8" id="path3509" fill="none" stroke="#a6abb0" stroke-width="4" stroke-linecap="round" stroke-miterlimit="10"/><path class="st34" d="M103.5 228c11.8-15 28-26.5 46.6-32.4" id="path3511" fill="none" stroke="#a6abb0" stroke-width="4" stroke-linecap="round" stroke-miterlimit="10" stroke-dasharray="2.0569,8.2275"/><path class="st3" d="M154 194.4c.3-.1.6-.2 1-.3" id="path3513" fill="none" stroke="#a6abb0" stroke-width="4" stroke-linecap="round" stroke-miterlimit="10"/></g></svg>