<?xml version="1.0" encoding="utf-8"?>
<!-- Generator: Adobe Illustrator 19.1.0, SVG Export Plug-In . SVG Version: 6.00 Build 0)  -->
<svg version="1.1" id="Layer_1" xmlns="http://www.w3.org/2000/svg" xmlns:xlink="http://www.w3.org/1999/xlink" x="0px" y="0px"
	 viewBox="-409 624.8 432 46" style="enable-background:new -409 624.8 432 46;" xml:space="preserve">
<style type="text/css">
	.st0{fill:#81B441;}
	.st1{fill:#121112;}
	.st2{fill:#84B840;}
</style>
<path class="st0" d="M-380.4,633.7c-1.1-0.6-4.2-0.2-7.9,0.9c-6.5,4.4-12,11-12.4,21.5c-0.1,0.3-0.7,0-0.8-0.1
	c-1.8-3.4-2.5-6.9-1-12c0.3-0.5-0.6-1-0.8-0.9c-0.3,0.3-1.7,1.8-2.6,3.3c-4.4,7.7-1.5,17.5,6.2,21.8s17.5,1.5,21.8-6.2
	C-372.9,653-377.5,635.3-380.4,633.7z" />
<g>
	<path class="st1" d="M-352.8,637.9c-9.2,0-15.8,6.8-15.8,16.2c0,9.5,6.6,16.1,16.1,16.1c4.8,0,8.6-1.5,11.6-4.6c0.9-1,1-1.9,1-2.3
		c0-1.5-1.1-2.6-2.7-2.6c-0.8,0-1.5,0.3-2.2,1c-1.7,1.6-4,3.2-7.7,3.2c-5.2,0-9.4-3.9-9.7-8.9h20.7c2.2,0,3.3-1.1,3.3-3.2
		c0-0.6,0-1.1-0.1-2C-339.3,642.7-344.8,637.9-352.8,637.9z M-352.8,643c5,0,8.2,3.2,8.3,8.3h-17.7
		C-361.6,646.5-357.7,643-352.8,643z" />
	<path class="st1" d="M-318.3,637.9c-4.2,0-8.3,2.4-9.9,5.7v-2.1c0-3.2-2.5-3.3-3-3.3c-1.5,0-3,0.9-3,3.3v24.8
		c0,3.3,2.6,3.5,3.1,3.5s3.2-0.2,3.2-3.5V653c0-5.8,3.3-9.8,8-9.8c4.5,0,6.8,3,6.8,9.1v14c0,3.3,2.6,3.5,3.2,3.5
		c0.6,0,3.1-0.2,3.1-3.5v-16C-306.9,644.4-309.9,637.9-318.3,637.9z" />
	<path class="st1" d="M-278.4,638.3c-1.5,0-2.5,0.8-3.1,2.5l-8.6,21.7l-8.6-21.7c-0.7-1.7-1.7-2.5-3.2-2.5c-1.7,0-3.2,1.4-3.2,3
		c0,0.4,0,0.9,0.4,1.8l9.9,23.4c1.2,2.8,3.1,3.4,4.5,3.4s3.4-0.6,4.5-3.4l10-23.5c0.3-0.8,0.4-1.4,0.4-1.7
		C-275.3,639.5-276.6,638.3-278.4,638.3z" />
	<path class="st1" d="M-260.1,637.9c-4,0-7.8,1.1-10.6,3.2c-0.9,0.7-1.4,1.5-1.4,2.5c0,1.4,1.1,2.5,2.4,2.5c0.6,0,1.3-0.2,1.9-0.7
		c2.4-1.6,4.6-2.3,7.1-2.3c4.7,0,7.3,2.4,7.3,6.5v0.7c-10.5,0-21.1,1.3-21.1,10.4c0,6.5,5.6,9.5,11.1,9.5c4.4,0,7.9-1.7,10.2-5.1
		v1.6c0,2.4,1.6,3.2,3,3.2c0.3,0,2.8-0.1,2.8-3.2V650C-247.3,642.4-252,637.9-260.1,637.9z M-254.6,654.9h1.3v1.5
		c0,5.3-3.4,8.7-8.6,8.7c-1.4,0-6.1-0.3-6.1-4.6C-268,655.5-260.4,654.9-254.6,654.9z" />
	<path class="st1" d="M-230.9,644c2.8,0,2.9-2.1,2.9-2.6c0-1.3-0.8-2.6-2.9-2.6h-5.7V633c0-2.6-1.7-3.5-3.1-3.5
		c-0.5,0-3.1,0.2-3.1,3.5v27.2c0,6.3,3.1,9.6,9,9.6c1.5,0,3-0.3,4-0.7c1.1-0.6,1.7-1.5,1.7-2.5c0-1.5-1.1-2.5-2.5-2.5
		c-0.3,0-0.7,0.1-1.1,0.2c-0.5,0.1-0.9,0.2-1.3,0.2c-2.4,0-3.5-1.6-3.5-4.9V644H-230.9z" />
	<path class="st1" d="M-210,637.9c-9.5,0-16.4,6.8-16.4,16.1c0,4.5,1.7,8.7,4.7,11.6c3,2.9,7.2,4.6,11.7,4.6c9.4,0,16.5-7,16.5-16.2
		C-193.5,644.7-200.5,637.9-210,637.9z M-210,664.8c-6.5,0-10-5.5-10-10.8c0-7.4,5.2-10.8,10-10.8s10,3.4,10,10.8
		C-200.1,661.4-205.2,664.8-210,664.8z" />
</g>
<g>
	<g>
		<path class="st2" d="M-172.4,671.1c-2.7,0-5.1-0.7-7.3-2.2c-2.2-1.4-4-3.4-5.2-5.9c-1.2-2.4-1.9-5.2-1.9-8.2v-1.3
			c0-3,0.6-5.7,1.8-8.2s2.9-4.5,5-5.9c2.1-1.4,4.5-2.1,7-2.1c3.7,0,6.8,1.3,9.1,4c2.3,2.6,3.5,6.1,3.5,10.3v1.6
			c0,0.5-0.4,0.9-0.9,0.9h-22.1v0.7c0,2.3,0.5,4.5,1.5,6.5s2.3,3.5,4,4.6c1.7,1.1,3.5,1.7,5.5,1.7c1.9,0,3.6-0.3,4.9-0.9
			c1.3-0.6,2.5-1.6,3.5-2.9c0.3-0.4,0.9-0.5,1.3-0.2l1.1,0.8c0.4,0.3,0.5,0.9,0.2,1.3C-163.9,669.3-167.6,671.1-172.4,671.1z
			 M-183.1,650.7h19.4c-0.1-1.7-0.5-3.3-1.2-4.8c-0.8-1.6-1.9-2.9-3.3-3.8c-1.4-0.9-2.9-1.3-4.7-1.3c-2.7,0-5,1-6.9,3
			C-181.6,645.6-182.7,648-183.1,650.7z" />
	</g>
	<g>
		<path class="st2" d="M-154.8,670.5h-1.5c-0.5,0-0.9-0.4-0.9-0.9V626c0-0.5,0.4-0.9,0.9-0.9h1.5c0.5,0,0.9,0.4,0.9,0.9v43.7
			C-153.9,670.1-154.3,670.5-154.8,670.5z" />
	</g>
	<g>
		<path class="st2" d="M-136.3,671.1c-2.7,0-5.1-0.7-7.3-2.2c-2.2-1.4-4-3.4-5.2-5.9c-1.2-2.4-1.9-5.2-1.9-8.2v-1.3
			c0-3,0.6-5.7,1.8-8.2c1.2-2.5,2.9-4.5,5-5.9c2.1-1.4,4.5-2.1,7-2.1c3.7,0,6.8,1.3,9.1,4c2.3,2.6,3.5,6.1,3.5,10.3v1.6
			c0,0.5-0.4,0.9-0.9,0.9h-22.1v0.7c0,2.3,0.5,4.5,1.5,6.5s2.3,3.5,4,4.6c1.7,1.1,3.5,1.7,5.5,1.7c1.9,0,3.5-0.3,4.9-0.9
			c1.3-0.6,2.5-1.6,3.5-2.9c0.3-0.4,0.9-0.5,1.3-0.2l1.1,0.8c0.4,0.3,0.5,0.9,0.2,1.3C-127.8,669.3-131.5,671.1-136.3,671.1z
			 M-147.1,650.7h19.4c-0.1-1.7-0.5-3.3-1.2-4.8c-0.8-1.6-1.9-2.9-3.3-3.8c-1.4-0.9-3-1.3-4.7-1.3c-2.7,0-5,1-6.9,3
			C-145.5,645.6-146.6,648-147.1,650.7z" />
	</g>
	<g>
		<path class="st2" d="M-77.8,670.5h-1.5c-0.5,0-0.9-0.4-0.9-0.9v-19.9c0-3.1-0.6-5.4-1.8-6.9c-1.2-1.4-3-2.1-5.6-2
			c-3.5,0.1-6.1,1.4-8.1,4.1c-1.1,1.5-1.8,3-1.9,4.4v20.4c0,0.5-0.4,0.9-0.9,0.9h-1.5c-0.5,0-0.9-0.4-0.9-0.9V649
			c0-2.8-0.6-4.9-1.8-6.3c-1.1-1.3-3.1-1.9-5.7-1.9c-3.1,0-5.5,1.3-7.5,4.1c-1.2,1.6-2,3.5-2.4,5.4v19.3c0,0.5-0.4,0.9-0.9,0.9h-1.6
			c-0.5,0-0.9-0.4-0.9-0.9v-30.8c0-0.5,0.4-0.9,0.9-0.9h1.6c0.5,0,0.9,0.4,0.9,0.9v3.7c0.8-1.2,1.8-2.1,3-2.9c2.1-1.5,4.4-2.2,7-2.2
			c2.8,0,5.1,0.6,6.9,1.9c1.3,0.9,2.3,2.2,2.9,3.9c0.9-1.4,2.2-2.6,3.7-3.6c2.2-1.4,4.7-2.1,7.4-2.1c3.6,0,6.3,1.1,8.1,3.1
			c1.8,2,2.7,5.1,2.7,9.1v20.1C-76.8,670.1-77.3,670.5-77.8,670.5z" />
	</g>
	<g>
		<path class="st2" d="M-60,671.1c-2.7,0-5.1-0.7-7.3-2.2c-2.2-1.4-4-3.4-5.2-5.9c-1.2-2.4-1.9-5.2-1.9-8.2v-1.3
			c0-3,0.6-5.7,1.8-8.2s2.9-4.5,5-5.9c2.1-1.4,4.5-2.1,7-2.1c3.7,0,6.8,1.3,9.1,4c2.3,2.6,3.5,6.1,3.5,10.3v1.6
			c0,0.5-0.4,0.9-0.9,0.9H-71v0.7c0,2.3,0.5,4.5,1.5,6.5s2.3,3.5,4,4.6c1.7,1.1,3.5,1.7,5.5,1.7c1.9,0,3.6-0.3,4.9-0.9
			c1.3-0.6,2.5-1.6,3.5-2.9c0.3-0.4,0.9-0.5,1.3-0.2l1.1,0.8c0.4,0.3,0.5,0.9,0.2,1.3C-51.5,669.3-55.2,671.1-60,671.1z
			 M-70.8,650.7h19.4c-0.1-1.7-0.5-3.3-1.2-4.8c-0.8-1.6-1.9-2.9-3.3-3.8c-1.4-0.9-3-1.3-4.7-1.3c-2.7,0-5,1-6.9,3
			C-69.2,645.6-70.3,648-70.8,650.7z" />
	</g>
	<g>
		<path class="st2" d="M-22.1,670.5h-1.5c-0.5,0-0.9-0.4-0.9-0.9v-20.1c0-3-0.6-5.3-1.8-6.7c-1.1-1.3-3-2-5.6-2
			c-2.4,0-4.5,0.8-6.2,2.6c-1.8,1.7-3,4-3.6,6.7v19.6c0,0.5-0.4,0.9-0.9,0.9h-1.5c-0.5,0-0.9-0.4-0.9-0.9v-30.8
			c0-0.5,0.4-0.9,0.9-0.9h1.5c0.5,0,0.9,0.4,0.9,0.9v3.6c0.8-1.1,1.8-2.1,2.9-2.9c2.1-1.5,4.5-2.2,7-2.2c3.6,0,6.3,1.1,8.1,3.1
			c1.7,2,2.6,5.1,2.7,9.1v20.1C-21.2,670.1-21.6,670.5-22.1,670.5z" />
	</g>
	<g>
		<path class="st2" d="M-7,671.1c-2.5,0-4.4-0.7-5.5-2.2c-1.1-1.4-1.7-3.5-1.7-6.4v-21.1h-4.7c-0.5,0-0.9-0.4-0.9-0.9V639
			c0-0.5,0.4-0.9,0.9-0.9h4.7v-7.4c0-0.5,0.4-0.9,0.9-0.9h1.6c0.5,0,0.9,0.4,0.9,0.9v7.4h6c0.5,0,0.9,0.4,0.9,0.9v1.5
			c0,0.5-0.4,0.9-0.9,0.9h-6v20.9c0,2,0.3,3.4,0.9,4.3c0.8,1.2,2.6,1.3,5.7,0.9c0.5-0.1,1,0.3,1.1,0.8l0.3,1.4
			c0.1,0.5-0.2,0.9-0.6,1.1C-4.2,671-5.3,671.1-7,671.1z" />
	</g>
	<g>
		<path class="st2" d="M10.4,671.1c-3.6,0-6.6-0.9-8.9-2.5c-2.4-1.7-3.6-4-3.6-6.8c0-0.5,0.4-0.9,0.9-0.9h1.5c0.5,0,0.9,0.4,0.9,0.9
			c0.1,1.9,0.9,3.3,2.4,4.3c1.6,1.1,3.8,1.6,6.6,1.6c2.5,0,4.6-0.6,6.1-1.7c1.5-1.1,2.2-2.4,2.2-3.9c0-3.3-2.9-5.4-8.8-6.7
			c-4-0.9-6.8-1.9-8.4-3.3c-1.7-1.5-2.6-3.5-2.6-6c0-2.6,1.1-4.7,3.2-6.3c2.1-1.6,4.8-2.4,8-2.4c3.5,0,6.4,0.9,8.6,2.6
			c2.2,1.8,3.4,4.2,3.4,7.1c0,0.5-0.4,0.9-0.9,0.9h-1.6c-0.5,0-0.9-0.4-0.9-0.9c0-1.8-0.7-3.2-2.3-4.4c-1.6-1.2-3.7-1.9-6.2-1.9
			s-4.4,0.5-5.8,1.6c-1.3,1-2,2.2-2,3.7c0,1.2,0.2,2.1,0.7,2.7c0.5,0.7,1.3,1.3,2.5,1.8c1.3,0.6,3.1,1.2,5.6,1.8
			c2.6,0.6,4.7,1.3,6.3,2.2c1.6,0.9,2.8,1.9,3.6,3.2c0.8,1.2,1.1,2.7,1.1,4.5c0,2.7-1.1,5-3.4,6.6C16.6,670.3,13.8,671.1,10.4,671.1
			z" />
	</g>
</g>
</svg>
