<?xml version="1.0" encoding="utf-8"?>
<!-- Generator: Adobe Illustrator 18.0.0, SVG Export Plug-In . SVG Version: 6.00 Build 0)  -->
<!DOCTYPE svg PUBLIC "-//W3C//DTD SVG 1.1//EN" "http://www.w3.org/Graphics/SVG/1.1/DTD/svg11.dtd">
<svg focusable="false" tabindex="" xmlns="http://www.w3.org/2000/svg" viewBox="0 0 46 46"><defs><linearGradient id="IconRibbonGradient" x1="0%" y1="0%" x2="0%" y2="100%"><stop offset="0%" stop-color="#4772d9"></stop><stop offset="100%" stop-color="#6d47d9"></stop></linearGradient></defs><path fill="none" stroke="url(#IconRibbonGradient)" stroke-linejoin="round" stroke-linecap="round" d="M 26.31 17.35 L 22.35 22.65 L 19.69 19.98 M 29.86 21.37 L 31.5 20 L 29.86 18.64 L 30.86 16.75 L 28.86 16.12 L 29 14 L 26.88 14.19 L 26.25 12.19 L 24.36 13.19 L 23 11.5 L 21.63 13.14 L 19.74 12.14 L 19.16 14.14 L 17 14 L 17.17 16.11 L 15.17 16.75 L 16.17 18.64 L 14.5 20 L 16.16 21.37 L 15.16 23.25 L 17.16 23.88 L 17 26 L 19.17 25.82 L 19.8 27.82 L 21.69 26.82 L 23.06 28.46 L 24.43 26.82 L 26.32 27.82 L 26.95 25.82 L 29.07 26.01 L 28.88 23.89 L 30.88 23.26 Z M 30.96 25.63 L 34.34 31.48 L 30.49 30.83 L 29.15 34.5 L 26.49 30.01 M 15.04 25.63 L 11.66 31.48 L 15.51 30.83 L 16.84 34.5 L 19.5 30.01 M 45.5 23 C 45.5 35.426 35.426 45.5 23 45.5 C 10.574 45.5 0.5 35.426 0.5 23 C 0.5 10.574 10.574 0.5 23 0.5 C 35.426 0.5 45.5 10.574 45.5 23 Z"></path></svg>
