<?xml version="1.0" encoding="UTF-8" standalone="no"?>
<svg width="36px" height="36px" viewBox="0 0 36 36" version="1.1" xmlns="http://www.w3.org/2000/svg" xmlns:xlink="http://www.w3.org/1999/xlink" xmlns:sketch="http://www.bohemiancoding.com/sketch/ns">
    <!-- Generator: Sketch 3.4.1 (15681) - http://www.bohemiancoding.com/sketch -->
    <title>twt</title>
    <desc>Created with Sketch.</desc>
    <defs></defs>
    <g id="Page-1" stroke="none" stroke-width="1" fill="none" fill-rule="evenodd" sketch:type="MSPage">
        <g id="Footer---12-Col" sketch:type="MSArtboardGroup" transform="translate(-1226.000000, -635.000000)">
            <g id="FOOTER" sketch:type="MSLayerGroup">
                <g id="2" transform="translate(0.000000, 593.000000)" sketch:type="MSShapeGroup">
                    <g id="Social-links" transform="translate(1174.000000, 41.000000)">
                        <g id="Rectangle-24-+-Imported-Layers" transform="translate(52.000000, 1.000000)">
                            <rect id="Rectangle-24" fill="#2094F2" x="0" y="0" width="36" height="36" rx="4"></rect>
                            <path d="M8,24.1997143 C8.30884615,24.2357143 8.65238462,24.2537143 9.03146154,24.2537143 C11.0148462,24.2537143 12.7824615,23.6374286 14.3334615,22.4057143 C13.4077692,22.3877143 12.5793846,22.0997143 11.8474615,21.5417143 C11.1155385,20.9837143 10.6137692,20.2714286 10.3404615,19.4057143 C10.6315385,19.4502857 10.9006154,19.4725714 11.1468462,19.4725714 C11.5259231,19.4725714 11.9007692,19.4237143 12.2705385,19.3251429 C11.2830769,19.1202857 10.4656923,18.6222857 9.81838462,17.832 C9.17107692,17.0417143 8.847,16.1245714 8.847,15.0797143 L8.847,15.0257143 C9.44607692,15.3651429 10.0891538,15.5485714 10.7770769,15.5751429 C10.1957692,15.1817143 9.73292308,14.6682857 9.38853846,14.0348571 C9.04415385,13.4014286 8.87238462,12.714 8.87323077,11.9725714 C8.87323077,11.1865714 9.067,10.4588571 9.45538462,9.78942857 C10.5223846,11.1197143 11.8203846,12.1842857 13.3493846,12.984 C14.8783846,13.7837143 16.5156923,14.2277143 18.2613077,14.3168571 C18.1910769,13.9774286 18.1555385,13.6474286 18.1555385,13.326 C18.1555385,12.1294286 18.5718462,11.1094286 19.4053077,10.266 C20.2387692,9.42257143 21.2456923,9.00085714 22.4260769,9 C23.6606154,9 24.7005385,9.45514286 25.5458462,10.3662857 C26.5062308,10.1785714 27.4099231,9.83057143 28.2560769,9.32142857 C27.9303077,10.3482857 27.3041538,11.1428571 26.3784615,11.7051429 C27.1983846,11.616 28.0174615,11.3931429 28.8373846,11.0357143 C28.2467692,11.9108571 27.5326154,12.6557143 26.6957692,13.272 C26.7050769,13.3971429 26.7093077,13.5848571 26.7093077,13.8342857 C26.7093077,14.9948571 26.5417692,16.1537143 26.2066923,17.31 C25.8716154,18.4662857 25.3622308,19.5762857 24.6793846,20.6382857 C23.9965385,21.7002857 23.1833846,22.6405714 22.2399231,23.4574286 C21.2964615,24.2742857 20.1600769,24.9265714 18.8290769,25.4125714 C17.4980769,25.8985714 16.0748462,26.142 14.5585385,26.1428571 C12.1698462,26.1428571 9.98423077,25.4957143 8.00084615,24.2005714 L8,24.1997143" id="Imported-Layers" fill="#FFFFFF"></path>
                        </g>
                    </g>
                </g>
            </g>
        </g>
    </g>
</svg>