<?xml version="1.0" encoding="UTF-8" standalone="no"?>
<svg width="36px" height="36px" viewBox="0 0 36 36" version="1.1" xmlns="http://www.w3.org/2000/svg" xmlns:xlink="http://www.w3.org/1999/xlink" xmlns:sketch="http://www.bohemiancoding.com/sketch/ns">
    <!-- Generator: Sketch 3.4.1 (15681) - http://www.bohemiancoding.com/sketch -->
    <title>Social links</title>
    <desc>Created with Sketch.</desc>
    <defs></defs>
    <g id="Page-1" stroke="none" stroke-width="1" fill="none" fill-rule="evenodd" sketch:type="MSPage">
        <g id="Footer---12-Col" sketch:type="MSArtboardGroup" transform="translate(-1330.000000, -635.000000)">
            <g id="FOOTER" sketch:type="MSLayerGroup">
                <g id="2" transform="translate(0.000000, 593.000000)" sketch:type="MSShapeGroup">
                    <g id="Social-links" transform="translate(1175.000000, 41.000000)">
                        <g id="Rectangle-26-+-Path-Copy-17" transform="translate(155.000000, 1.000000)">
                            <rect id="Rectangle-26" fill="#CD1D20" x="0" y="0" width="36" height="36" rx="4"></rect>
                            <path d="M18.3145025,7.2941149 C20.693369,7.2941149 22.6537019,8.03566402 24.1955598,9.5187845 C25.7374177,11.001905 26.5083351,12.7272915 26.5083351,14.694996 C26.5083351,17.2794435 25.8548908,19.408644 24.5479827,21.0826612 C23.2410745,22.7566783 21.5597404,23.5936744 19.5039298,23.5936744 C18.8284492,23.5936744 18.1896891,23.4394909 17.5876303,23.1311193 C16.9855715,22.8227477 16.5670734,22.433618 16.3321237,21.9637184 C15.8328554,23.9607915 15.5391726,25.150207 15.4510664,25.5320004 C15.1280105,26.6773805 14.349751,28.0870581 13.1162646,29.7610752 C13.0575272,29.8198127 12.9914486,29.8418389 12.9180268,29.8271545 C12.8446049,29.8124702 12.8078946,29.7757598 12.8078946,29.7170224 C12.5729448,27.5143682 12.587629,25.8697444 12.8519475,24.7831017 L14.5259563,17.7346435 C14.232269,17.1766378 14.0854276,16.4864832 14.0854276,15.664159 C14.0854276,14.7243598 14.327716,13.9314162 14.8122999,13.2853043 C15.2968838,12.6391924 15.8915915,12.3161413 16.5964408,12.3161413 C17.1544466,12.3161413 17.5802867,12.4996931 17.8739739,12.8668021 C18.1676611,13.2339112 18.3145025,13.6964616 18.3145025,14.2544673 C18.3145025,14.606892 18.255766,15.0327321 18.1382911,15.5320004 C18.0208162,16.0312686 17.8592906,16.6112922 17.6537096,17.2720885 C17.4481285,17.9328847 17.3012871,18.4688559 17.2131809,18.880018 C17.0369686,19.5554986 17.1617838,20.1355222 17.5876303,20.6201061 C18.0134768,21.10469 18.564132,21.3469783 19.2396127,21.3469783 C20.4437303,21.3469783 21.4275677,20.6788499 22.1911545,19.342573 C22.9547413,18.0062962 23.336529,16.3836986 23.336529,14.4747316 C23.336529,13.0062955 22.8592944,11.809538 21.9048109,10.8844233 C20.9503274,9.95930851 19.6360968,9.49675807 17.9620796,9.49675807 C16.0531127,9.49675807 14.5112779,10.1061499 13.336529,11.3249519 C12.1617801,12.5437539 11.5744144,14.0048259 11.5744144,15.7082118 C11.5744144,16.7361171 11.8534131,17.5877973 12.4114188,18.2632779 C12.6169999,18.468859 12.6904206,18.7038052 12.6316831,18.9681237 L12.367366,19.9813396 C12.2792598,20.3337642 12.0589977,20.4512374 11.706573,20.3337625 C11.1191986,20.0988127 10.6272798,19.7243671 10.2308021,19.2104145 C9.83432433,18.6964618 9.54064151,18.1164382 9.34974481,17.4703264 C9.15884812,16.8242145 9.0634012,16.1340598 9.0634012,15.3998418 C9.0634012,14.4306739 9.2616371,13.4835468 9.65811486,12.5584321 C10.0545926,11.6333173 10.619932,10.7742951 11.3541501,9.98133957 C12.0883682,9.18838406 13.0648635,8.54228186 14.2836655,8.04301358 C15.5024675,7.54374529 16.8460664,7.2941149 18.3145025,7.2941149 L18.3145025,7.2941149 Z" id="Icon/Social/Pinterest" fill="#FFFFFF"></path>
                        </g>
                    </g>
                </g>
            </g>
        </g>
    </g>
</svg>