<?xml version="1.0" encoding="UTF-8" standalone="no"?>
<svg width="36px" height="36px" viewBox="0 0 36 36" version="1.1" xmlns="http://www.w3.org/2000/svg" xmlns:xlink="http://www.w3.org/1999/xlink" xmlns:sketch="http://www.bohemiancoding.com/sketch/ns">
    <!-- Generator: Sketch 3.4.1 (15681) - http://www.bohemiancoding.com/sketch -->
    <title>Footer - 12 Col</title>
    <desc>Created with Sketch.</desc>
    <defs></defs>
    <g id="Page-1" stroke="none" stroke-width="1" fill="none" fill-rule="evenodd" sketch:type="MSPage">
        <g id="Footer---12-Col" sketch:type="MSArtboardGroup" transform="translate(-1278.000000, -635.000000)">
            <g id="FOOTER" sketch:type="MSLayerGroup">
                <g id="2" transform="translate(0.000000, 593.000000)" sketch:type="MSShapeGroup">
                    <g id="Social-links" transform="translate(1175.000000, 41.000000)">
                        <g id="Rectangle-25-+-Fill-2-+-Fill-3-Copy-2" transform="translate(103.000000, 1.000000)">
                            <rect id="Rectangle-25" fill="#DC4E41" x="0" y="0" width="36" height="36" rx="4"></rect>
                            <g id="Fill-2-+-Fill-3-Copy-2" transform="translate(4.000000, 9.727273)" fill="#FFFFFF">
                                <path d="M0.275561907,8.61949619 C0.110047133,4.26511719 3.92417192,0.241184945 8.28263051,0.189024479 C10.5042584,-0.000676433251 12.6652752,0.862156747 14.3463575,2.26932373 C13.6569069,3.02725318 12.9555089,3.77731485 12.2054472,4.47871285 C10.7260132,3.57974616 8.94381541,2.89437512 7.21406946,3.50310815 C4.42421304,4.29746251 2.73497158,7.59143964 3.76710773,10.3209764 C4.62178173,13.1714439 8.08914141,14.7356751 10.8064394,13.5383155 C12.2136064,13.0341948 13.1408388,11.7360112 13.548215,10.341083 C11.9353201,10.3087376 10.3227167,10.3288442 8.71011321,10.2845515 C8.70603362,9.32497378 8.70195403,8.36947564 8.70603362,7.40989791 C11.3950659,7.40581832 14.0884692,7.39765914 16.7815811,7.42213667 C16.9470958,9.77256303 16.6003307,12.2885042 15.072233,14.1753143 C12.979695,16.8684262 9.11311838,17.6587009 5.96833766,16.6023787 C2.63006785,15.5058433 0.203003494,12.1433873 0.275561907,8.61949619" id="Fill-2"></path>
                                <path d="M22.0229794,4.99070133 L24.4220694,4.99070133 C24.426149,5.79321486 24.4340168,6.59951659 24.4380964,7.40173873 C25.2403185,7.40989791 26.0469116,7.4139775 26.8491338,7.41805709 L26.8491338,9.8209353 C26.0469116,9.82501489 25.2403185,9.82909448 24.4380964,9.83288267 C24.4299372,10.6394758 24.426149,11.4416979 24.4220694,12.2479997 C23.6195559,12.2439201 22.8173337,12.2479997 22.0188998,12.2479997 C22.011032,11.4416979 22.011032,10.6394758 22.0028728,9.83696226 C21.2006507,9.82909448 20.3940576,9.82501489 19.5918354,9.8209353 L19.5918354,7.41805709 C20.3940576,7.4139775 21.1965711,7.40989791 22.0028728,7.40173873 C22.0069524,6.59951659 22.0151116,5.79321486 22.0229794,4.99070133" id="Fill-3"></path>
                            </g>
                        </g>
                    </g>
                </g>
            </g>
        </g>
    </g>
</svg>