<?xml version="1.0" encoding="UTF-8" standalone="no"?>
<svg width="250px" height="31px" viewBox="0 0 250 31" version="1.1" xmlns="http://www.w3.org/2000/svg" xmlns:xlink="http://www.w3.org/1999/xlink" xmlns:sketch="http://www.bohemiancoding.com/sketch/ns">
    <!-- Generator: Sketch 3.3.3 (12081) - http://www.bohemiancoding.com/sketch -->
    <title>EnvatoTuts+_white</title>
    <desc>Created with Sketch.</desc>
    <defs></defs>
    <g id="Page-1" stroke="none" stroke-width="1" fill="none" fill-rule="evenodd" sketch:type="MSPage">
        <g id="Imported-Layers" sketch:type="MSLayerGroup" transform="translate(-1.000000, -1.000000)">
            <path d="M21.438,3.892 C20.635,3.446 18.332,3.722 15.566,4.578 C10.725,7.887 6.639,12.762 6.354,20.59 C6.302,20.777 5.825,20.565 5.73,20.507 C4.423,18.001 3.905,15.363 4.997,11.557 C5.2,11.218 4.535,10.801 4.415,10.92 C4.176,11.16 3.177,12.224 2.514,13.375 C-0.774,19.079 1.376,26.388 7.129,29.586 C12.88,32.789 20.143,30.723 23.345,24.97 C27.05,18.33 23.61,5.106 21.438,3.892" id="Fill-1" fill="#7AAC41" sketch:type="MSShapeGroup"></path>
            <path d="M42.026,7.079 C35.206,7.079 30.256,12.149 30.256,19.133 C30.256,26.176 35.193,31.094 42.263,31.094 C45.834,31.094 48.661,29.978 50.91,27.679 C51.581,26.954 51.654,26.255 51.654,25.988 C51.654,24.849 50.807,24.022 49.64,24.022 C49.052,24.022 48.56,24.244 47.996,24.766 C46.723,25.952 45.046,27.164 42.263,27.164 C38.393,27.164 35.246,24.259 35.048,20.528 L50.45,20.528 C52.124,20.528 52.938,19.745 52.938,18.134 C52.938,17.66 52.938,17.318 52.843,16.643 C52.013,10.654 47.97,7.079 42.026,7.079 L42.026,7.079 Z M42.026,10.818 C45.724,10.818 48.096,13.175 48.243,16.979 L35.053,16.979 C35.399,13.458 38.375,10.818 42.026,10.818 L42.026,10.818 Z" id="Fill-2" fill="#FFFFFF" sketch:type="MSShapeGroup"></path>
            <path d="M67.646,7.079 C64.548,7.079 61.481,8.86 60.283,11.334 L60.283,9.806 C60.283,7.437 58.447,7.317 58.079,7.317 C56.992,7.317 55.829,7.971 55.829,9.806 L55.829,28.272 C55.829,30.732 57.783,30.856 58.175,30.856 C58.566,30.856 60.521,30.732 60.521,28.272 L60.521,18.373 C60.521,14.065 62.962,11.057 66.456,11.057 C69.841,11.057 71.487,13.278 71.487,17.848 L71.487,28.272 C71.487,30.732 73.442,30.856 73.834,30.856 C74.225,30.856 76.179,30.732 76.179,28.272 L76.179,16.373 C76.179,11.88 73.937,7.079 67.646,7.079" id="Fill-3" fill="#FFFFFF" sketch:type="MSShapeGroup"></path>
            <path d="M97.408,7.317 C96.324,7.317 95.537,7.95 95.069,9.194 L88.65,25.336 L82.28,9.194 C81.781,7.931 81.001,7.317 79.893,7.317 C78.6,7.317 77.547,8.326 77.547,9.567 C77.547,9.875 77.582,10.273 77.841,10.895 L85.218,28.314 C86.098,30.415 87.544,30.856 88.602,30.856 C89.66,30.856 91.107,30.415 91.988,28.315 L99.413,10.799 C99.667,10.184 99.706,9.733 99.706,9.52 C99.706,8.265 98.717,7.317 97.408,7.317" id="Fill-4" fill="#FFFFFF" sketch:type="MSShapeGroup"></path>
            <path d="M111.051,7.079 C108.05,7.079 105.255,7.915 103.182,9.431 C102.479,9.916 102.137,10.521 102.137,11.281 C102.137,12.329 102.936,13.151 103.96,13.151 C104.402,13.151 104.897,12.974 105.352,12.656 C107.134,11.468 108.809,10.914 110.622,10.914 C114.091,10.914 116.082,12.678 116.082,15.755 L116.082,16.265 C108.295,16.273 100.375,17.214 100.375,23.988 C100.375,28.864 104.542,31.047 108.671,31.047 C111.96,31.047 114.586,29.744 116.271,27.277 L116.271,28.463 C116.271,30.23 117.458,30.856 118.475,30.856 C118.69,30.856 120.583,30.789 120.583,28.463 L120.583,16.041 C120.583,10.429 117.018,7.079 111.051,7.079 L111.051,7.079 Z M115.095,19.719 L116.082,19.719 L116.082,20.8 C116.082,24.753 113.565,27.307 109.67,27.307 C108.613,27.307 105.163,27.061 105.163,23.893 C105.163,20.151 110.831,19.719 115.095,19.719 L115.095,19.719 Z" id="Fill-5" fill="#FFFFFF" sketch:type="MSShapeGroup"></path>
            <path d="M132.801,11.58 C134.853,11.58 134.957,9.983 134.957,9.663 C134.957,8.713 134.39,7.698 132.801,7.698 L128.579,7.698 L128.579,3.428 C128.579,1.521 127.342,0.844 126.281,0.844 C125.89,0.844 123.936,0.968 123.936,3.428 L123.936,23.704 C123.936,28.383 126.244,30.856 130.612,30.856 C131.742,30.856 132.843,30.656 133.563,30.321 C134.389,29.909 134.862,29.232 134.862,28.463 C134.862,27.379 134.076,26.592 132.991,26.592 C132.782,26.592 132.484,26.644 132.156,26.739 C131.754,26.839 131.482,26.878 131.184,26.878 C129.407,26.878 128.579,25.718 128.579,23.227 L128.579,11.58 L132.801,11.58" id="Fill-6" fill="#FFFFFF" sketch:type="MSShapeGroup"></path>
            <path d="M148.316,7.079 C141.22,7.079 136.071,12.109 136.071,19.038 C136.071,22.412 137.318,25.487 139.582,27.696 C141.829,29.888 144.93,31.094 148.316,31.094 C155.324,31.094 160.609,25.912 160.609,19.038 C160.609,12.109 155.438,7.079 148.316,7.079 L148.316,7.079 Z M148.316,27.117 C143.449,27.117 140.905,23.053 140.905,19.038 C140.905,13.521 144.746,11.009 148.316,11.009 C151.885,11.009 155.727,13.521 155.727,19.038 C155.727,24.589 151.885,27.117 148.316,27.117 L148.316,27.117 Z" id="Fill-7" fill="#FFFFFF" sketch:type="MSShapeGroup"></path>
            <path d="M175.196,28.281 C172.964,28.6 171.705,28.514 171.105,27.636 C170.676,27.005 170.458,25.963 170.458,24.54 L170.458,9.474 L174.803,9.474 C175.19,9.474 175.503,9.161 175.503,8.774 L175.503,7.667 C175.503,7.28 175.19,6.966 174.803,6.966 L170.458,6.966 L170.458,1.678 C170.458,1.292 170.145,0.978 169.758,0.978 L168.63,0.978 C168.243,0.978 167.93,1.292 167.93,1.678 L167.93,6.966 L164.528,6.966 C164.142,6.966 163.828,7.28 163.828,7.667 L163.828,8.774 C163.828,9.161 164.142,9.474 164.528,9.474 L167.93,9.474 L167.93,24.688 C167.945,26.796 168.342,28.321 169.144,29.351 C169.977,30.423 171.329,30.966 173.162,30.966 C174.349,30.966 175.186,30.872 175.719,30.678 C176.038,30.562 176.228,30.233 176.169,29.899 L175.984,28.853 C175.919,28.48 175.565,28.232 175.196,28.281" id="Fill-8" fill="#7AAC41" sketch:type="MSShapeGroup"></path>
            <path d="M194.882,6.966 L193.754,6.966 C193.367,6.966 193.054,7.28 193.054,7.667 L193.054,23.208 C192.723,24.942 191.988,26.216 190.81,27.103 C189.614,28.003 188.018,28.459 186.064,28.459 C184.265,28.459 182.949,27.945 182.042,26.888 C181.118,25.812 180.637,24.165 180.611,22.002 L180.611,7.667 C180.611,7.28 180.298,6.966 179.911,6.966 L178.804,6.966 C178.417,6.966 178.104,7.28 178.104,7.667 L178.104,21.968 C178.133,24.831 178.814,27.062 180.127,28.599 C181.471,30.17 183.481,30.966 186.105,30.966 C188.147,30.966 189.871,30.573 191.229,29.797 C191.918,29.405 192.527,28.938 193.054,28.399 L193.054,29.856 C193.054,30.243 193.367,30.556 193.754,30.556 L194.882,30.556 C195.269,30.556 195.582,30.243 195.582,29.856 L195.582,7.667 C195.582,7.28 195.269,6.966 194.882,6.966" id="Fill-9" fill="#7AAC41" sketch:type="MSShapeGroup"></path>
            <path d="M209.375,28.281 C207.141,28.601 205.882,28.513 205.283,27.636 C204.855,27.006 204.637,25.964 204.637,24.54 L204.637,9.474 L208.981,9.474 C209.368,9.474 209.682,9.161 209.682,8.774 L209.682,7.667 C209.682,7.28 209.368,6.966 208.981,6.966 L204.637,6.966 L204.637,1.678 C204.637,1.292 204.323,0.978 203.936,0.978 L202.809,0.978 C202.422,0.978 202.108,1.292 202.108,1.678 L202.108,6.966 L198.707,6.966 C198.32,6.966 198.007,7.28 198.007,7.667 L198.007,8.774 C198.007,9.161 198.32,9.474 198.707,9.474 L202.108,9.474 L202.108,24.688 C202.124,26.796 202.521,28.321 203.322,29.351 C204.155,30.423 205.508,30.966 207.341,30.966 C208.527,30.966 209.364,30.872 209.897,30.678 C210.217,30.562 210.406,30.233 210.348,29.899 L210.163,28.853 C210.098,28.48 209.746,28.232 209.375,28.281" id="Fill-10" fill="#7AAC41" sketch:type="MSShapeGroup"></path>
            <path d="M228.569,21.197 C228.027,20.306 227.158,19.535 225.987,18.904 C224.871,18.303 223.35,17.777 221.466,17.341 C219.691,16.931 218.333,16.503 217.426,16.069 C216.576,15.662 215.966,15.216 215.612,14.743 C215.284,14.303 215.117,13.654 215.117,12.814 C215.117,11.766 215.581,10.91 216.537,10.196 C217.543,9.445 218.955,9.064 220.733,9.064 C222.586,9.064 224.095,9.517 225.22,10.409 C226.312,11.275 226.842,12.317 226.842,13.593 C226.842,13.98 227.155,14.294 227.542,14.294 L228.669,14.294 C229.056,14.294 229.369,13.98 229.369,13.593 C229.369,11.436 228.548,9.695 226.929,8.419 C225.359,7.183 223.275,6.556 220.733,6.556 C218.384,6.556 216.436,7.136 214.944,8.28 C213.396,9.466 212.609,11.006 212.609,12.855 C212.609,14.675 213.237,16.135 214.474,17.192 C215.655,18.2 217.642,18.992 220.548,19.61 C224.81,20.511 226.883,22.085 226.883,24.422 C226.883,25.51 226.367,26.423 225.307,27.214 C224.2,28.04 222.717,28.459 220.898,28.459 C218.892,28.459 217.296,28.062 216.155,27.279 C215.066,26.531 214.491,25.513 214.397,24.168 C214.371,23.801 214.065,23.516 213.698,23.516 L212.592,23.516 C212.205,23.516 211.892,23.83 211.892,24.216 C211.892,26.22 212.757,27.876 214.461,29.137 C216.101,30.351 218.267,30.966 220.898,30.966 C223.364,30.966 225.401,30.381 226.953,29.229 C228.57,28.028 229.391,26.417 229.391,24.442 C229.391,23.183 229.114,22.092 228.569,21.197" id="Fill-11" fill="#7AAC41" sketch:type="MSShapeGroup"></path>
            <path d="M249.449,17.512 L243.253,17.512 L243.253,10.979 C243.253,10.51 242.873,10.129 242.403,10.129 L241.598,10.129 C241.128,10.129 240.748,10.51 240.748,10.979 L240.748,17.512 L234.83,17.512 C234.36,17.512 233.981,17.893 233.981,18.362 L233.981,19.153 C233.981,19.622 234.36,20.003 234.83,20.003 L240.748,20.003 L240.748,26.521 C240.748,26.99 241.128,27.371 241.598,27.371 L242.403,27.371 C242.873,27.371 243.253,26.99 243.253,26.521 L243.253,20.003 L249.449,20.003 C249.919,20.003 250.299,19.622 250.299,19.153 L250.299,18.362 C250.299,17.893 249.919,17.512 249.449,17.512" id="Fill-12" fill="#7AAC41" sketch:type="MSShapeGroup"></path>
        </g>
    </g>
</svg>