<?xml version="1.0" encoding="utf-8"?>
<!-- Generator: Adobe Illustrator 22.0.2, SVG Export Plug-In . SVG Version: 6.00 Build 0)  -->
<svg version="1.1" id="Layer_1" xmlns="http://www.w3.org/2000/svg" xmlns:xlink="http://www.w3.org/1999/xlink" x="0px" y="0px"
	 viewBox="0 0 283.5 118.4" style="enable-background:new 0 0 283.5 118.4;" xml:space="preserve">
<style type="text/css">
	.st0{fill:#1D336A;}
	.st1{fill:#FFFFFF;}
	.st2{fill:#073D8F;}
	.st3{clip-path:url(#SVGID_2_);fill:url(#SVGID_3_);}
</style>
<g>
	<g>
		<path class="st0" d="M85.5,103c-2.9,0-5.1,2-5.8,5.4c0,0.1,0,0.2,0,0.2l0,0c0,0-1,4.3,2.7,5.1c1.7,0.3,4.3-0.2,6.2-3.3h-1
			c-1.3,1.5-2.7,2.2-3.9,2c-2-0.3-1.9-2.3-1.8-3.1c0-0.1,0-0.2,0.1-0.3h7c0.1-0.3,0.1-0.5,0.2-0.7C89.7,104.9,88.3,103,85.5,103z
			 M86.9,107.4h-4.8c0.5-1.7,1.5-2.6,3-2.6C86.5,104.8,87.2,105.7,86.9,107.4z"/>
		<path class="st0" d="M197.4,103c-2.9,0-5.1,2-5.8,5.4c0,0.1,0,0.2,0,0.2l0,0c0,0-1,4.3,2.7,5.1c1.7,0.3,4.3-0.2,6.2-3.3h-1
			c-1.3,1.5-2.7,2.2-3.9,2c-2-0.3-1.9-2.3-1.8-3.1c0-0.1,0-0.2,0.1-0.3h7c0.1-0.3,0.1-0.5,0.2-0.7C201.6,104.9,200.2,103,197.4,103z
			 M198.8,107.4H194c0.5-1.7,1.5-2.6,3-2.6C198.4,104.8,199.1,105.7,198.8,107.4z"/>
		<path class="st0" d="M276.5,103c-2.9,0-5.1,2-5.8,5.4c0,0.1,0,0.2,0,0.2l0,0c0,0-1,4.3,2.7,5.1c1.7,0.3,4.3-0.2,6.2-3.3h-1
			c-1.3,1.5-2.7,2.2-3.9,2c-2-0.3-1.9-2.3-1.8-3.1c0-0.1,0-0.2,0.1-0.3h7c0.1-0.3,0.1-0.5,0.2-0.7C280.7,104.9,279.3,103,276.5,103z
			 M277.9,107.4h-4.8c0.5-1.7,1.5-2.6,3-2.6C277.6,104.8,278.2,105.7,277.9,107.4z"/>
		<path class="st0" d="M130.8,113.6c-3.9-0.3-3.1-3.8-3.1-3.8h1.9c0,0-0.4,2,1.9,2c1,0,2-0.4,2.3-1.4c0.4-1.3-1-1.3-1.4-1.3h-1.8
			l0.4-1.7h1.1c1.5,0,2.4-0.5,2.5-1.2c0.2-0.9-0.5-1.4-1.5-1.4c-2.2,0-2.6,1.7-2.6,1.7h-1.9c0,0,0.5-3.5,4.8-3.4
			c1.2,0,2.3,0.4,2.8,1.1c0.4,0.5,0.6,1.2,0.4,1.9c-0.2,1-0.8,1.7-1.6,2.1c0.9,0.4,1.1,1.4,0.8,2.5
			C135.8,111.4,134.6,113.9,130.8,113.6z"/>
		<path class="st0" d="M227,104.3c-0.7-0.9-1.8-1.3-3.1-1.3c-3.3,0-5.4,2.7-6,5.3c-0.3,1.6-0.1,3.1,0.7,4.1c0.7,0.8,1.8,1.3,3.1,1.3
			c3.4,0,5.5-2.7,6-5.3C228.1,106.8,227.8,105.3,227,104.3z M225.6,108.3c-0.1,0.6-1,3.7-3.6,3.7c-0.7,0-1.3-0.2-1.6-0.7
			c-0.7-0.9-0.4-2.5-0.3-2.9c0.1-0.4,0.9-3.7,3.7-3.7c0.7,0,1.3,0.2,1.6,0.7C226,106.3,225.7,107.8,225.6,108.3z"/>
		<path class="st0" d="M246.8,104.6c0.9-1,2.1-1.5,3.3-1.5c1.3,0,2.1,0.4,2.5,1.5c1-1,2.1-1.5,3.3-1.5c2.4,0,3.1,1.3,2.5,3.8
			l-1.4,6.5H255l1.3-6.4c0.3-1.4,0-2.1-1.2-2.1c-1.4,0-2.4,0.9-2.7,2.5l-1.3,6h-2.1l1.4-6.8c0.2-1.1-0.3-1.7-1.3-1.7
			c-1.3,0-2.4,0.9-2.7,2.5l-1.3,6h-2.1l2.1-10.1h2L246.8,104.6z"/>
		<path class="st0" d="M260.3,117.4h-2.1l3-14.1h2l-0.3,1.4c1.1-1.2,2.1-1.7,3.5-1.7c2.5,0,3.9,2,3.2,5.3c-0.7,3.4-3,5.4-5.5,5.4
			c-1.4,0-2.3-0.5-2.8-1.6L260.3,117.4z M264.1,111.8c1.6,0,2.9-1.2,3.4-3.6c0.5-2.2-0.3-3.4-1.9-3.4c-1.7,0-2.9,1.2-3.4,3.6
			C261.7,110.7,262.4,111.8,264.1,111.8z"/>
		<path class="st0" d="M243.1,103.3h-2.1l-1.2,5.7c-0.4,1.9-1.5,2.8-3.2,2.8c-1.5,0-1.7-0.8-1.3-2.3l1.3-6.2h-2.1l-1.4,6.4
			c-0.2,1.1-0.4,2-0.1,2.7c0.4,0.8,1.3,1.2,2.7,1.2c1.3,0,2.6-0.6,3.5-1.6l0,0c-0.1,0.6-0.2,1.1-0.4,1.6c0,0,0,0,0,0s-0.6,3-3.2,3.4
			c-1.3,0.2-2.8-0.5-3.3-2l-0.8,0c0.5,2.6,2.9,3.7,4.7,3.3c4-0.8,4.5-4.4,5-6.4c0,0,0,0,0,0c0,0,0,0,0-0.1L243.1,103.3z"/>
		<polygon class="st0" points="98.2,113.4 96.1,113.4 97,109.1 92.6,109.1 91.7,113.4 89.6,113.4 91.7,103.3 93.9,103.3 93,107.3 
			97.4,107.3 98.3,103.3 100.4,103.3 		"/>
		<path class="st0" d="M58.7,103c-2.9,0-5.1,2-5.8,5.4c0,0.1,0,0.2,0,0.2l0,0c0,0-1,4.3,2.7,5.1c1.7,0.3,4.3-0.2,6.2-3.3h-1
			c-1.3,1.5-2.7,2.2-3.9,2c-2-0.3-1.9-2.3-1.8-3.1c0-0.1,0-0.2,0.1-0.3h7c0.1-0.3,0.1-0.5,0.2-0.7C62.9,104.9,61.5,103,58.7,103z
			 M60.1,107.4h-4.8c0.5-1.7,1.5-2.6,3-2.6C59.8,104.8,60.5,105.7,60.1,107.4z"/>
		<path class="st0" d="M75.2,112.1c-0.9,1-2.1,1.6-3.3,1.6c-1.3,0-2.1-0.4-2.5-1.5c-1,1-2.1,1.5-3.3,1.5c-2.4,0-3.1-1.3-2.5-3.8
			l1.4-6.5h2.1l-1.3,6.4c-0.3,1.4,0,2.1,1.2,2.1c1.4,0,2.4-0.9,2.7-2.5l1.3-6h2.1l-1.4,6.8c-0.2,1.1,0.3,1.7,1.3,1.7
			c1.3,0,2.4-0.9,2.7-2.5l1.3-6h2.1L77,113.4h-2L75.2,112.1z"/>
		<path class="st0" d="M107,112.1c-0.9,1-2.1,1.6-3.3,1.6c-0.7,0-1.3-0.2-1.7-0.5c-0.4-0.2-0.5-0.5-0.7-1c-0.1-0.3-0.2-0.7-0.1-1.3
			c0.1-0.4,0.2-0.9,0.3-1.6l1.3-6h2.1l-1.4,6.8c-0.2,1.1,0.3,1.7,1.3,1.7c1.3,0,2.4-0.9,2.7-2.5l1.3-6h2.1l-2.1,10.1h-2L107,112.1z"
			/>
		<path class="st0" d="M205.3,104.6c0.9-1,2.1-1.5,3.3-1.5c1.3,0,2.1,0.4,2.5,1.5c1-1,2.1-1.5,3.3-1.5c2.4,0,3.1,1.3,2.5,3.8
			l-1.4,6.5h-2.1l1.3-6.4c0.3-1.4,0-2.1-1.2-2.1c-1.4,0-2.4,0.9-2.7,2.5l-1.3,6h-2.1l1.4-6.8c0.2-1.1-0.3-1.7-1.3-1.7
			c-1.3,0-2.4,0.9-2.7,2.5l-1.3,6h-2.1l2.1-10.1h2L205.3,104.6z"/>
		<path class="st0" d="M156.8,104.6c0.9-1,2.1-1.5,3.3-1.5c1.3,0,2.1,0.4,2.5,1.5c1-1,2.1-1.5,3.3-1.5c2.4,0,3.1,1.3,2.5,3.8
			l-1.4,6.5h-2.1l1.3-6.4c0.3-1.4,0-2.1-1.2-2.1c-1.4,0-2.4,0.9-2.7,2.5l-1.3,6h-2.1l1.4-6.8c0.2-1.1-0.3-1.7-1.3-1.7
			c-1.3,0-2.4,0.9-2.7,2.5l-1.3,6h-2.1l2.1-10.1h2L156.8,104.6z"/>
		<path class="st0" d="M146.7,106c0.2-0.7,0.1-1.4-0.3-1.9c-0.8-1-2.5-1.1-3-1.1c-2.8,0-4.5,1.1-5.1,3.4l-0.1,0.3h2
			c0.1-0.3,0.6-1.7,2.6-1.9c0.9-0.1,1.4,0.2,1.7,0.5c0.3,0.4,0.5,1.5-1.1,1.8c-1.7,0.3-5.9,0.4-6.3,3.6c-0.1,1.3,0.8,2.7,2.8,2.9
			c2.1,0.2,3.4-0.6,4-1.3c0.7,1.1,2,1.3,2,1.3l0.5-1.1c0,0-0.5-0.3-0.7-0.8c-0.2-0.5,0-1.2,0-1.2L146.7,106z M140.8,111.8
			c-1,0-1.5-0.5-1.6-1.1c-0.1-0.6,0.4-1.2,1.2-1.6c1-0.4,2.9-0.6,3.7-0.6C143.6,111.2,141.9,111.8,140.8,111.8z"/>
		<path class="st0" d="M189.7,104.3c-0.7-0.9-1.8-1.3-3.1-1.3c-3.3,0-5.5,2.7-6,5.3c-0.3,1.6-0.1,3.1,0.7,4.1
			c0.7,0.8,1.8,1.3,3.1,1.3c3.4,0,5.5-2.7,6-5.3C190.7,106.8,190.5,105.3,189.7,104.3z M188.2,108.3c-0.1,0.6-0.9,3.6-3.5,3.6
			c-0.7,0-1.2-0.2-1.6-0.6c-0.7-0.9-0.4-2.4-0.3-2.8c0.1-0.4,0.9-3.6,3.5-3.6c0.7,0,1.2,0.2,1.5,0.6
			C188.6,106.3,188.3,107.9,188.2,108.3z"/>
		<path class="st0" d="M51.9,101.2c-0.4-0.6-1.5-1.5-2.8-1.5h-6.6l-2.9,13.8h2.5l2.5-11.8l0,0l0,0h3.7c0.1,0,0.2,0,0.3,0
			c0.7,0,1.4,0.8,1.5,1.8c0,0.9-0.2,1.5-0.9,2.3c-1.2,1.5-3.2,2-4.8,1.8l-0.2,0.9c2,0.4,4.8,0.2,6.3-1c1.4-1.1,2-2.4,2.1-3.6
			C52.7,103,52.4,101.9,51.9,101.2z"/>
		<path class="st0" d="M98.2,113.3"/>
		<path class="st0" d="M96.1,113.3"/>
		<path class="st0" d="M179.4,103c0.3-1.6-0.6-3.5-3.2-3.6c-2.3,0-4.7,1.6-5.3,4.6l-1.1,5.1c-0.3,1.5-0.1,4.3,3.6,4.5
			c2.7,0.1,4.9-1.2,5.4-4c0.4-2.4-1.4-3.6-2-3.8C177.8,105.5,179.1,104.7,179.4,103z M176.7,104.1c-1,0.8-2.3,1-3.5,1.1l-0.2,1
			c0.3,0,0.6,0.1,1.1,0.2c1.7,0.4,2.7,1.5,2.6,2.9c-0.2,1.3-1.3,2.3-2.7,2.3c-2.7,0-2.2-2.2-2.2-2.2s1-4.8,1.1-5l0-0.1h0
			c0.1-0.5,0.3-1.2,0.5-1.6c0.5-0.9,1.9-2.1,3.4-1.5C178.2,101.8,177.5,103.5,176.7,104.1z"/>
		<path class="st0" d="M117.6,103c-1.6,0-3.4,0.6-4.2,1.8c-1,1.6-0.6,3.2,0.1,4c-2.6,1.9-3.1,4.7-3.1,4.7h2c0,0,0.4-1.7,1.6-2.6
			c1-0.9,2.4-1,3.2-1.1c0.5,0,1,0,1,0l-0.8,3.7h2.1l1.5-6.9C121.1,105.5,121.5,103.1,117.6,103z M119,106.1l-0.5,2.2h-2
			c0,0-1.3,0-1.6-0.8c-0.3-0.6-0.1-1.3,0.4-1.9c0.5-0.6,1.7-1.1,2.9-0.8C119.2,105.1,119,106.1,119,106.1z"/>
	</g>
	<path class="st1" d="M40.1,30.5h-3.1v37.8c0,10.4,8.5,18.9,18.9,18.9h227.6l0-37.8c0-10.4-8.5-18.9-18.9-18.9H40.1"/>
	<path class="st0" d="M280.3,84.1H55.8c-8.7,0-15.8-7.1-15.8-15.8V33.7h224.5c8.7,0,15.8,7.1,15.8,15.8L280.3,84.1"/>
	<path class="st1" d="M127.7,68.3c1.8,0.8,3.6,1.6,5.4,1.6c1.2,0,2.8-0.6,2.8-2c0-3.2-7.7-5.6-7.7-11c0-1.4,0.6-5.3,7-5.3
		c1.9,0,3.7,0.3,5.6,0.7l0.4,4.3c-1.3-0.6-3.4-1.1-4.9-1.1c-0.9,0-2.5,0.3-2.5,1.7c0,2.7,7.7,5.5,7.7,11.1c0,4-4.1,5.3-7.3,5.3
		c-2,0-4.1-0.4-6.1-0.9L127.7,68.3"/>
	<path class="st1" d="M220.4,55.8c1.9-1.9,4.3-3,6.9-3c3.9,0,7.3,2.6,7.3,7.7v13.1h-5.4V61.3c0-2.9-1.7-4.7-4.3-4.7
		c-1.9,0-4.5,1.3-4.5,5v12.1H215V53.3h5.4V55.8"/>
	<polygon class="st1" points="241,43.4 246.5,43.4 246.5,61 246.8,61 253.9,52.6 258.9,52.6 251.2,61.8 260.5,73.4 254.2,73.4 
		246.5,62.6 246.5,62.6 246.5,73.4 241,73.4 	"/>
	<path class="st1" d="M176.9,52.5c-2.5,0-4.8,1.3-6.4,3.3h-0.1V43.4H165v30h5.4v-2.5c1.7,1.9,4,3,6.5,3c5,0,9.1-4.8,9.1-10.7
		C186,57.3,181.9,52.5,176.9,52.5 M175.3,55.5c2.9,0,4.9,2.6,4.9,7.7c0,5.1-2,7.7-4.9,7.7c-2.9,0-4.9-2.6-4.9-7.7
		C170.4,58.1,172.4,55.5,175.3,55.5"/>
	<path class="st1" d="M197.1,74.2c-4.4,0-6.6-2.8-6.6-5.7c0-4.6,2.8-6.6,7.5-7.9l4.7-1.4c-0.3-1.9-1.9-3.1-3.6-3.1
		c-2.3,0-4,0.9-5.4,2.1l-1.8-2.6c2.5-2.1,5-2.8,7.8-2.8c3.7,0,8.3,1.2,8.3,7.6v8.3c0,2.1,0.2,3.5,0.9,5h-5.8c-0.3-0.9-0.5-1.8-0.5-3
		C202.8,70.7,200.5,74.2,197.1,74.2 M199.8,62.9c-2.6,0.8-4,2.4-4,4.7c0,1.8,1,3,2.4,3c2.3,0,4.7-2.3,4.7-8.7L199.8,62.9"/>
	<path class="st1" d="M113.6,73.9c5.9,0,10.7-4.8,10.7-10.7c0-5.9-4.8-10.7-10.7-10.7c-5.9,0-10.7,4.8-10.7,10.7
		C102.9,69.1,107.7,73.9,113.6,73.9 M113.6,55.5c2.9,0,4.9,2.6,4.9,7.7c0,5.1-2,7.7-4.9,7.7c-2.9,0-4.9-2.6-4.9-7.7
		C108.6,58.1,110.7,55.5,113.6,55.5"/>
	<path class="st2" d="M149.3,67.5V56.4h-2.7v-3.9h2.7v-3.2l5.5-2.4v5.6h3.2v3.9h-3.2v11.5c0,0.5,0,1,0.5,1.2
		c0.5,0.2,2.1,0.2,2.6,0.2v4.1l-2.3,0.1C151,73.4,149.5,72.5,149.3,67.5"/>
	<path class="st1" d="M149.3,67.5V56.4h-2.7v-3.9h2.7v-3.2l5.5-2.4v5.6h3.2v3.9h-3.2v11.5c0,0.5,0,1,0.5,1.2
		c0.5,0.2,2.1,0.2,2.6,0.2v4.1l-2.3,0.1C151,73.4,149.5,72.5,149.3,67.5"/>
	<path class="st1" d="M91.3,43.4c6-0.3,7.9,2.9,7.9,2.9c3.5,5.4,0.4,10.1,0.4,10.1c-2.9,5.1-8.4,4.7-8.4,4.7h-5.7V73h-5.7V43.3
		L91.3,43.4z M85.5,47.1v10.2h4.7c0,0,3.1,0,4.3-2.4c0,0,1.5-2.8,0-5.7c0,0-0.9-2.1-4.3-2.1H85.5"/>
	<path class="st1" d="M33.8,67.7c18.7,0,33.8-15.1,33.8-33.8C67.6,15.1,52.5,0,33.8,0C15.1,0,0,15.1,0,33.8
		C0,52.5,15.1,67.7,33.8,67.7"/>
	<g>
		<defs>
			<path id="SVGID_1_" d="M2.8,33.4c0,17.2,13.9,31.1,31.1,31.1C51.1,64.5,65,50.6,65,33.4C65,16.2,51.1,2.3,33.9,2.3
				C16.7,2.3,2.8,16.2,2.8,33.4"/>
		</defs>
		<clipPath id="SVGID_2_">
			<use xlink:href="#SVGID_1_"  style="overflow:visible;"/>
		</clipPath>
		
			<radialGradient id="SVGID_3_" cx="-5687.7964" cy="2768.4888" r="1.3187" gradientTransform="matrix(19.3469 -13.5468 13.5468 19.3469 72557.125 -130599.4609)" gradientUnits="userSpaceOnUse">
			<stop  offset="0" style="stop-color:#FFFFFF"/>
			<stop  offset="1" style="stop-color:#DA1A0A"/>
		</radialGradient>
		<polygon class="st3" points="23.2,93.8 94.3,44.1 44.6,-27 -26.5,22.8 		"/>
	</g>
	<path class="st0" d="M46.1,33.6c3.4-1.7,6.5-4.4,6.5-10.5c0,0,0.3-10-11.8-11.1L18,12l0,40.3l3,3.1l16.5,0c4.7,0.1,17,1,17.5-10.5
		C55.3,36.9,48.5,33.9,46.1,33.6"/>
	<path class="st1" d="M38.1,12.6H18.6v39.3L28.9,52l4.8-20.4h4.1c0,0,10.7,0.9,11.1-9.1C49,22.4,49.6,12.1,38.1,12.6"/>
	<path class="st1" d="M50.8,43.9c1.5-11-12.1-9.8-13.2-9.8L33.4,52h6.8C40.1,52,49.6,52.8,50.8,43.9"/>
</g>
</svg>
