<svg id="_25x32" data-name="25x32" xmlns="http://www.w3.org/2000/svg" width="400" height="600" viewBox="0 0 400 600">
  <metadata><?xpacket begin="﻿" id="W5M0MpCehiHzreSzNTczkc9d"?>
<x:xmpmeta xmlns:x="adobe:ns:meta/" x:xmptk="Adobe XMP Core 5.6-c142 79.160924, 2017/07/13-01:06:39        ">
   <rdf:RDF xmlns:rdf="http://www.w3.org/1999/02/22-rdf-syntax-ns#">
      <rdf:Description rdf:about=""/>
   </rdf:RDF>
</x:xmpmeta>
                                                                                                    
                                                                                                    
                                                                                                    
                                                                                                    
                                                                                                    
                                                                                                    
                                                                                                    
                                                                                                    
                                                                                                    
                                                                                                    
                                                                                                    
                                                                                                    
                                                                                                    
                                                                                                    
                                                                                                    
                                                                                                    
                                                                                                    
                                                                                                    
                                                                                                    
                                                                                                    
                           
<?xpacket end="w"?></metadata>
<defs>
    <style>
      .cls-1 {
        fill: #d41f00;
      }

      .cls-1, .cls-10, .cls-11, .cls-12, .cls-13, .cls-14, .cls-15, .cls-2, .cls-3, .cls-4, .cls-5, .cls-6, .cls-7, .cls-8, .cls-9 {
        fill-rule: evenodd;
      }

      .cls-2 {
        fill: #384c7d;
      }

      .cls-3 {
        fill: #fff;
      }

      .cls-4 {
        fill: #083e88;
      }

      .cls-5 {
        fill: #181818;
      }

      .cls-6 {
        fill: #09264e;
      }

      .cls-7 {
        fill: #230a07;
        fill-opacity: 0.6;
      }

      .cls-8 {
        fill: #050505;
      }

      .cls-9 {
        fill: #fcdc00;
      }

      .cls-10 {
        fill: #006e9a;
      }

      .cls-11 {
        fill: #96c40a;
      }

      .cls-12 {
        fill: #146fb1;
      }

      .cls-13 {
        fill: #5d1c7e;
      }

      .cls-14 {
        fill: #eea400;
      }

      .cls-15 {
        fill: #fcfcfc;
      }
    </style>
  </defs>
  <path id="Shape_655_copy_34" data-name="Shape 655 copy 34" class="cls-1" d="M22.477,429.532a10.859,10.859,0,0,1,1.433,4.251,11.75,11.75,0,0,1-.444,4.837,26.523,26.523,0,0,1-2.9,6.225,51.1,51.1,0,0,1-6.363,8.234A2.433,2.433,0,0,1,12.5,454a2.423,2.423,0,0,1-1.689-.921,58.038,58.038,0,0,1-4.725-5.723,37.5,37.5,0,0,1-3.7-6.41A14.559,14.559,0,0,1,1,434.854a10.644,10.644,0,0,1,2.934-7.213A11.212,11.212,0,0,1,8.422,424.6c0.136-.055.278-0.106,0.426-0.15a14.675,14.675,0,0,1,7.233,0,11.015,11.015,0,0,1,3.463,1.807A11.34,11.34,0,0,1,22.477,429.532Z"/>
  <path class="cls-2" d="M16.891,436.448a3.652,3.652,0,0,0,2.288-3.626S19.3,429.368,15.014,429l-8.007,0L7,442.9l1.054,1.082,5.791,0.007c1.657,0.024,5.984.338,6.161-3.632a3.782,3.782,0,0,0-3.111-3.913"/>
  <path class="cls-3" d="M18.87,440.184c-0.419,3.1-3.824,2.821-3.824,2.821H12.621l1.529-6.271C14.524,436.744,19.393,436.313,18.87,440.184Zm-4.641-4.333H12.766l-1.735,7.172L7.343,443V429.193h6.972c4.135-.183,3.9,3.454,3.9,3.454C18.068,436.158,14.229,435.851,14.229,435.851Z"/>
  <path id="Shape_655_copy_34-2" data-name="Shape 655 copy 34" class="cls-4" d="M47.477,429.532a10.859,10.859,0,0,1,1.433,4.251,11.75,11.75,0,0,1-.444,4.837,26.523,26.523,0,0,1-2.9,6.225,51.1,51.1,0,0,1-6.363,8.234A2.434,2.434,0,0,1,37.5,454a2.423,2.423,0,0,1-1.689-.921,58.041,58.041,0,0,1-4.725-5.723,37.493,37.493,0,0,1-3.7-6.41A14.56,14.56,0,0,1,26,434.854a10.645,10.645,0,0,1,2.934-7.213,11.211,11.211,0,0,1,4.486-3.046c0.137-.055.278-0.106,0.426-0.15a14.675,14.675,0,0,1,7.233,0,11.015,11.015,0,0,1,3.463,1.807A11.34,11.34,0,0,1,47.477,429.532Z"/>
  <path class="cls-2" d="M41.891,436.448a3.652,3.652,0,0,0,2.288-3.626S44.3,429.368,40.014,429l-8.007,0L32,442.9l1.054,1.082,5.791,0.007c1.657,0.024,5.984.338,6.161-3.632a3.782,3.782,0,0,0-3.111-3.913"/>
  <path class="cls-3" d="M43.87,440.184c-0.419,3.1-3.824,2.821-3.824,2.821H37.621l1.529-6.271C39.524,436.744,44.393,436.313,43.87,440.184Zm-4.641-4.333H37.766l-1.735,7.172L32.343,443V429.193h6.972c4.135-.183,3.9,3.454,3.9,3.454C43.068,436.158,39.229,435.851,39.229,435.851Z"/>
  <path id="_28x26" data-name="28x26" class="cls-3" d="M1,225v-3.241a4.162,4.162,0,0,1,4.25-4.067h8.5A4.162,4.162,0,0,1,18,221.759V225H1Zm8.5-9.594A4.707,4.707,0,1,1,9.5,206,4.707,4.707,0,1,1,9.5,215.406Z"/>
  <path id="_28x26-2" data-name="28x26" class="cls-3" d="M41,225v-7.308h0.75A4.162,4.162,0,0,1,46,221.759V225H41Zm-3.5-9.594a4.707,4.707,0,1,1,4.906-4.7A4.808,4.808,0,0,1,37.5,215.406ZM34,217.692V225H29v-3.241a4.162,4.162,0,0,1,4.25-4.067H34ZM39,225H36v-7h3v7Z"/>
  <path id="_28x26-3" data-name="28x26" class="cls-3" d="M80,215H71v-4a3,3,0,0,1,3-3h9v4A3,3,0,0,1,80,215Zm-12,2H60a3,3,0,0,1-3-3v-4h9a3,3,0,0,1,3,3v12H68v-8Z"/>
  <path id="_28x26-4" data-name="28x26" class="cls-3" d="M106.123,216.644a7.5,7.5,0,0,1-3.681,5.89V225H99.724v-1.433a8.326,8.326,0,0,1-1.517.141H94.683a8.325,8.325,0,0,1-1.517-.141V225H90.447v-2.466a7.612,7.612,0,0,1-3.472-4.585H85V214.4h1.972a7.4,7.4,0,0,1,1.748-3.182V208.9l1.363,1.146a8.168,8.168,0,0,1,4.6-1.405h1.111a3.379,3.379,0,0,0-.667,2.008,3.711,3.711,0,0,0,7.413,0,3.36,3.36,0,0,0-.112-0.843,7.511,7.511,0,0,1,3.683,5.758,2.074,2.074,0,0,0,.293-0.238,1.924,1.924,0,0,0,.591-1.417l1-.014A2.943,2.943,0,0,1,106.123,216.644Zm-15.233-3.477a1.382,1.382,0,1,0,1.454,1.38A1.42,1.42,0,0,0,90.891,213.167Zm0,1.756a0.377,0.377,0,1,1,.4-0.376A0.386,0.386,0,0,1,90.891,214.923Zm7.943-1.756a2.519,2.519,0,1,1,2.65-2.516A2.588,2.588,0,0,1,98.834,213.167Zm-4.415-6.136a2.519,2.519,0,1,1,2.649-2.516A2.588,2.588,0,0,1,94.419,207.031Z"/>
  <path id="_28x26-5" data-name="28x26" class="cls-3" d="M120.592,205.408h-0.629a1,1,0,0,0-1.01.979v1.9a1.376,1.376,0,0,0,.467,1.041,12.443,12.443,0,0,0,3.172,1.96,0.347,0.347,0,0,1,.194.212l0.742,2.369a0.689,0.689,0,0,0,.662.475h0.994a0.7,0.7,0,0,0,.665-0.49l0.353-1.181a0.112,0.112,0,0,1,.126-0.073,8.355,8.355,0,0,0,3.065,0,0.112,0.112,0,0,1,.127.073l0.353,1.181a0.694,0.694,0,0,0,.664.49h1a0.689,0.689,0,0,0,.662-0.475l0.99-3.155a0.33,0.33,0,0,1,.081-0.135,5.467,5.467,0,0,0,1.474-2.787h0.285a0.9,0.9,0,0,0,.917-0.889c0-.03,0-0.06,0-0.09a0.932,0.932,0,0,0-.947-0.8h-0.252c-0.485-2.861-3.432-5.009-6.878-5.009a7.884,7.884,0,0,0-3.9,1.007,0.174,0.174,0,0,1-.174,0,3.677,3.677,0,0,0-2.194-.448,0.608,0.608,0,0,0-.528.384,0.555,0.555,0,0,0,.126.6,2.245,2.245,0,0,1,.7,1.3c-0.055.077-.108,0.158-0.159,0.245A6.374,6.374,0,0,1,120.592,205.408Zm2.951-.125a0.767,0.767,0,1,1-.79.766h0a0.78,0.78,0,0,1,.79-0.757v-0.009Zm-6.766,11.089a5.888,5.888,0,0,1,5.964-1.308l0.828,0.282h5.107a1.584,1.584,0,0,1,1.609,1.559v0.047a1.635,1.635,0,0,1-1.674,1.514h-3.065a0.606,0.606,0,1,0,0,1.212h3.062a2.876,2.876,0,0,0,2.924-2.694v-0.037l2.5-2.708a1.8,1.8,0,0,1,1.315-.573,1.644,1.644,0,0,1,1.033.355,1.585,1.585,0,0,1,.225,2.279c-0.01.012-.02,0.024-0.031,0.035l-5.32,5.91a4.025,4.025,0,0,1-2.994,1.32h-8.514L118.274,225,113,220.014Z"/>
  <path id="_28x26-6" data-name="28x26" class="cls-3" d="M159,207.427v12.855a0.416,0.416,0,0,1-.42.431H141.42a0.416,0.416,0,0,1-.42-0.431V207.427a0.416,0.416,0,0,1,.42-0.431h17.16A0.4,0.4,0,0,1,159,207.427ZM152.85,221.3h-5.7l-1.29,3.052a0.466,0.466,0,0,0,.42.647h7.44a0.466,0.466,0,0,0,.42-0.647Z"/>
  <path id="_28x36" data-name="28x36" class="cls-1" d="M2,487a1.167,1.167,0,0,0-1,1.133v31.732A1.168,1.168,0,0,0,2.117,521H25.885A1.168,1.168,0,0,0,27,519.867V493.424a1.157,1.157,0,0,0-.325-0.8l-5.2-5.289a1.119,1.119,0,0,0-.789-0.33H2.117A1.123,1.123,0,0,0,2,487Zm1.23,2.266h15.6v4.911a1.169,1.169,0,0,0,1.114,1.134h4.828v23.42H3.231V489.268Zm17.826,0.839,2.89,2.939h-2.89v-2.939Zm-8.17,8.6a2.948,2.948,0,0,0-2.24,1.016,3.1,3.1,0,0,0-.731,2.006,4.983,4.983,0,0,0,.986,2.633c0.283,0.476.579,0.958,0.847,1.4-0.479,1.427-1.065,3.04-1.636,4.32a19.229,19.229,0,0,0-2.17.6,5.013,5.013,0,0,0-1.9,1.145,3.393,3.393,0,0,0-.952,2.361,2.685,2.685,0,0,0,.65,1.771,2.6,2.6,0,0,0,1.95.874,4.6,4.6,0,0,0,3.691-2.4,10.955,10.955,0,0,0,1.172-2.372c1.128-.375,2.4-0.741,3.517-1.028a5.735,5.735,0,0,0,3.876,2.019,2.916,2.916,0,0,0,2.971-2.8,2.879,2.879,0,0,0-.754-1.959,3,3,0,0,0-2.217-.909,7.606,7.606,0,0,0-2.878.708,29.657,29.657,0,0,1-2.252-2.916c0.141-.346.281-0.7,0.418-1.05a6.363,6.363,0,0,0,.627-2.409,3.083,3.083,0,0,0-.673-1.924A2.95,2.95,0,0,0,12.887,498.712Zm0,2.267a0.561,0.561,0,0,1,.557.236,1.124,1.124,0,0,1,.186.519,6.962,6.962,0,0,1-.464,1.559c-0.036.091-.078,0.212-0.116,0.307-0.08-.13-0.17-0.289-0.244-0.414a6.774,6.774,0,0,1-.662-1.452,0.984,0.984,0,0,1,.2-0.531A0.6,0.6,0,0,1,12.887,500.979Zm0.7,6.292c0.468,0.653.863,1.181,1.358,1.759-0.779.206-1.477,0.4-2.275,0.649C13,508.837,13.3,508.108,13.583,507.271Zm6.36,2.4a0.682,0.682,0,0,1,.592.189,0.624,0.624,0,0,1,.151.413c0,0.136.024,0.532-.743,0.532a3.26,3.26,0,0,1-1.486-.756A5.345,5.345,0,0,1,19.943,509.667ZM9.881,512.512a7.312,7.312,0,0,1-.348.673,2.536,2.536,0,0,1-1.845,1.393,0.267,0.267,0,0,1-.279-0.106,0.452,0.452,0,0,1-.093-0.272,0.884,0.884,0,0,1,.29-0.755,3.089,3.089,0,0,1,1.091-.614A11.467,11.467,0,0,1,9.881,512.512Z"/>
  <path id="_22x20" data-name="22x20" class="cls-1" d="M10.1,19A8.993,8.993,0,0,1,7.876,1.265,9.222,9.222,0,0,1,9.862,1c0.077,0,.154,0,0.23,0a9.12,9.12,0,0,1,5.37,1.735,0.794,0.794,0,0,1,.145.108,1.067,1.067,0,0,1,.076,1.518,1.105,1.105,0,0,1-.812.356h0a1.1,1.1,0,0,1-.736-0.281A6.91,6.91,0,0,0,10.1,3.145a6.981,6.981,0,0,0-1.684.206,6.845,6.845,0,0,0,1.669,13.5,7.072,7.072,0,0,0,1.7-.209,6.862,6.862,0,0,0,5.159-7.708c-0.032-.2.051,0.2,0,0a0.786,0.786,0,0,1-.044-0.183,1.081,1.081,0,0,1,.93-1.215,1.118,1.118,0,0,1,.154-0.011,1.093,1.093,0,0,1,1.082.927,0.141,0.141,0,0,1,.022.084,9.005,9.005,0,0,1-6.766,10.192A9.219,9.219,0,0,1,10.1,19Zm0.667-5.726A1.1,1.1,0,0,1,10.033,13L6.25,9.7a1.069,1.069,0,0,1-.092-1.521,1.107,1.107,0,0,1,1.551-.089l2.986,2.6c1.127-1.181,2.5-2.654,3.84-4.083,1.629-1.742,3.313-3.544,4.566-4.84a1.09,1.09,0,0,1,.735-0.343H19.9a1.109,1.109,0,0,1,.78.32,1.067,1.067,0,0,1-.006,1.519c-1.217,1.259-2.9,3.064-4.531,4.808s-3.34,3.578-4.589,4.871a1.11,1.11,0,0,1-.79.332h0Z"/>
  <path id="_22x20-2" data-name="22x20" class="cls-3" d="M39.377,14.5H34.1v2.7h2.552c0.6,0,1.023.149,1.023,0.738a1.075,1.075,0,0,1-1.083,1.067H29.443a1.075,1.075,0,0,1-1.083-1.067c0-.589.428-0.738,1.026-0.738h2.549V14.5H26.661a3.46,3.46,0,0,1-3.634-3.523V4.722A3.767,3.767,0,0,1,26.818.988h12.4a3.767,3.767,0,0,1,3.791,3.734v6.259A3.458,3.458,0,0,1,39.377,14.5Zm1.817-9.909a1.972,1.972,0,0,0-1.817-1.8H27.569c-0.9,0-2.725.92-2.725,1.8V10.9a1.97,1.97,0,0,0,1.817,1.8H39.377a1.971,1.971,0,0,0,1.817-1.8V4.594Z"/>
  <path id="_22x20-3" data-name="22x20" class="cls-5" d="M61.377,14.5H56.1v2.7h2.552c0.6,0,1.023.149,1.023,0.738a1.075,1.075,0,0,1-1.083,1.067H51.443a1.075,1.075,0,0,1-1.083-1.067c0-.589.428-0.738,1.026-0.738h2.549V14.5H48.661a3.46,3.46,0,0,1-3.634-3.523V4.722A3.767,3.767,0,0,1,48.818.988h12.4a3.767,3.767,0,0,1,3.791,3.734v6.259A3.458,3.458,0,0,1,61.377,14.5Zm1.817-9.909a1.972,1.972,0,0,0-1.817-1.8H49.569c-0.9,0-2.725.92-2.725,1.8V10.9a1.97,1.97,0,0,0,1.817,1.8H61.377a1.971,1.971,0,0,0,1.817-1.8V4.594Z"/>
  <path id="_17x22" data-name="17x22" class="cls-6" d="M16,41H1V25.433L8.5,20.99,16,25.433V41ZM2.875,39.095h11.25L14.167,26.58,8.5,23.222,2.831,26.58Z"/>
  <path id="_27x27" data-name="27x27" class="cls-3" d="M35.16,142.206v-9.358c0-2.176-.735-3.66-2.572-3.66a2.8,2.8,0,0,0-2.6,1.968,3.9,3.9,0,0,0-.167,1.312v9.738H24.739v-11.5c0-2.106-.067-3.867-0.133-5.387h4.409l0.234,2.349h0.1a5.824,5.824,0,0,1,5.044-2.729c3.34,0,5.845,2.314,5.845,7.286v9.98H35.16ZM19.129,123.248A2.625,2.625,0,1,1,19.2,118,2.625,2.625,0,1,1,19.129,123.248ZM21.7,142.206H16.624V125.32H21.7v16.886Z"/>
  <path id="_35x27" data-name="35x27" class="cls-3" d="M99.042,132.88v3.074H96.084V132.88H93.125v-3.074h2.958v-3.074h2.958v3.074H102v3.074H99.042ZM79.813,142.1a10.766,10.766,0,0,1,0-21.517A9.73,9.73,0,0,1,86.75,123.4l-2.81,2.813a5.713,5.713,0,0,0-4.127-1.659,6.8,6.8,0,0,0,0,13.586,5.654,5.654,0,0,0,5.872-4.641H79.813v-3.689H89.59a10.249,10.249,0,0,1,.163,1.783C89.753,137.736,85.789,142.1,79.813,142.1Z"/>
  <path id="_15x27" data-name="15x27" class="cls-3" d="M3.9,142.206V130.469H1v-4.4H3.9c0-7.563.319-8.069,9.416-8.069v4.4c-4.795,0-4.346.272-4.346,3.668h4.346v4.4H8.967v11.737H3.9Z"/>
  <path id="_21x24" data-name="21x24" class="cls-7" d="M64,333.12V314.347h2.309V312h6.233v2.347h2.308v4.928h7.734V333.12H64Zm4.733-1.408h1.385v-3.051H68.736v3.051Zm2.424-18.3H67.7v0.939H71.16v-0.939Zm2.309,2.347h-8.08v15.957h1.962v-4.459h4.156v4.459h1.962V315.755Zm7.734,4.928H74.854v11.029H81.2V320.683Zm-3.809,3.285H76.008v-2.347h1.385v2.347Zm0,3.52H76.008v-2.347h1.385v2.347Zm0,3.52H76.008v-2.347h1.385v2.347Zm2.77-7.04H78.779v-2.347h1.385v2.347Zm0,3.52H78.779v-2.347h1.385v2.347Zm0,3.52H78.779v-2.347h1.385v2.347Zm-10.043-7.275h1.385v2.347H70.121v-2.347Zm0-3.52h1.385v2.347H70.121v-2.347Zm0-3.52h1.385v2.347H70.121v-2.347Zm-2.77,7.04h1.385v2.347H67.351v-2.347Zm0-3.52h1.385v2.347H67.351v-2.347Zm0-3.52h1.385v2.347H67.351v-2.347Z"/>
  <path id="_21x24-2" data-name="21x24" class="cls-3" d="M18.1,316.738a7.738,7.738,0,0,0-10.726-3.823,9.037,9.037,0,0,0-3.554,11.538c0.9,1.923,4.674,6.928,6.333,9.128a0.991,0.991,0,0,0,1.615,0,101.083,101.083,0,0,0,6.354-9.128A8.746,8.746,0,0,0,18.1,316.738Zm-7.1,7.269A4.01,4.01,0,1,1,15.012,320,4.011,4.011,0,0,1,11.006,324.007Z"/>
  <path id="_21x24-3" data-name="21x24" class="cls-3" d="M25.725,313.987l2.942,5.127-1.248,1.3a0.7,0.7,0,0,0-.1.813c1.79,3.279,3.906,5.821,6.872,7.2a0.652,0.652,0,0,0,.749-0.149l1.32-1.389,4.74,3.13a4.713,4.713,0,0,1-2.027,2.52,4.543,4.543,0,0,1-3.233.32c-2.473-.54-5.434-2.575-7.849-5.179s-4.289-5.773-4.771-8.384a5.233,5.233,0,0,1,.322-3.364A4.165,4.165,0,0,1,25.725,313.987Z"/>
  <path id="_21x24-4" data-name="21x24" class="cls-3" d="M50.874,313a8.3,8.3,0,0,0,0,16.583,7.551,7.551,0,0,0,4.48-1.5l4.258,4.476a1.332,1.332,0,0,0,1.969,0,1.516,1.516,0,0,0,0-2.065l-4.258-4.485a8.521,8.521,0,0,0,1.419-4.727A8.109,8.109,0,0,0,50.874,313Zm0,2.921a5.373,5.373,0,1,1-5.095,5.366A5.212,5.212,0,0,1,50.874,315.92Z"/>
  <path id="_116x85" data-name="116x85" class="cls-1" d="M319.547,269.309l-11.785,15.836a2.3,2.3,0,0,1-3.18.482l-22.713-16.456-2.123-13.7a3.224,3.224,0,0,1,2.721-3.661l13.9-2.1,22.693,16.456A2.234,2.234,0,0,1,319.547,269.309Zm-31.506-12.785v0a2.452,2.452,0,1,0-2.053,2.759v0.01h0.007A2.426,2.426,0,0,0,288.041,256.524Zm5.912,9.38a3.672,3.672,0,0,0-1.515.374,3.782,3.782,0,0,0-1.994,2.638,3.548,3.548,0,0,0,0,1.535,4.366,4.366,0,0,0,.748,1.378,5.611,5.611,0,0,0,2.682,1.968,4.5,4.5,0,0,0,1.575.246,3.53,3.53,0,0,0,1.5-.384,3.943,3.943,0,0,0,2-2.637,3.433,3.433,0,0,0-.02-1.486,4.412,4.412,0,0,0-.708-1.408,5.627,5.627,0,0,0-2.682-1.968A4.528,4.528,0,0,0,293.953,265.9Zm1.965-5.029,7.886,14.5,1.466-.738-7.887-14.547Zm14.8,4.241A4.4,4.4,0,0,0,310,263.65a5.635,5.635,0,0,0-2.682-1.969,4.527,4.527,0,0,0-1.586-.255,3.672,3.672,0,0,0-1.515.374,3.8,3.8,0,0,0-1.994,2.637,3.543,3.543,0,0,0,.09,1.536,4.368,4.368,0,0,0,.717,1.417,5.622,5.622,0,0,0,2.682,1.969,4.49,4.49,0,0,0,1.576.245,3.547,3.547,0,0,0,1.5-.383,3.94,3.94,0,0,0,1.994-2.638l0.01,0.02A3.426,3.426,0,0,0,310.714,265.116Zm-2.533,2.776a1.926,1.926,0,0,1-.907.138,3.043,3.043,0,0,1-1-.265,5.5,5.5,0,0,1-1-.572,4.964,4.964,0,0,1-.828-0.758,3.152,3.152,0,0,1-.548-0.866,1.991,1.991,0,0,1-.16-0.9,1.853,1.853,0,0,1,1.107-1.5,2.088,2.088,0,0,1,.917-0.118,3.241,3.241,0,0,1,1,.265,5.071,5.071,0,0,1,1,.551,5.458,5.458,0,0,1,.848.758,2.945,2.945,0,0,1,.558.847,1.868,1.868,0,0,1,.14.895A1.969,1.969,0,0,1,308.181,267.892Zm-10.758,2.933a1.968,1.968,0,0,1-1.1,1.486,1.926,1.926,0,0,1-.907.138,3.05,3.05,0,0,1-1-.265,5.558,5.558,0,0,1-1-.571,5.013,5.013,0,0,1-.828-0.759,3.146,3.146,0,0,1-.548-0.865,2.011,2.011,0,0,1-.16-0.9A1.855,1.855,0,0,1,293,267.6a2.061,2.061,0,0,1,.917-0.118,3.283,3.283,0,0,1,1,.265,5.052,5.052,0,0,1,1,.552,5.4,5.4,0,0,1,.847.758,2.943,2.943,0,0,1,.528.875A1.862,1.862,0,0,1,297.423,270.825ZM278.31,289.112a2.261,2.261,0,0,1-1.994-2.471l1.705-16.338,8.744,19.685ZM271,310a2.229,2.229,0,0,1-2.243-2.214V297.733h-0.13v-3.121a2.274,2.274,0,0,1-.763.14H220.042a2.279,2.279,0,1,1,0-4.557h47.823a2.3,2.3,0,0,1,.763.139v-8.006a2.274,2.274,0,0,1-.763.139H220.042a2.279,2.279,0,1,1,0-4.557h47.823a2.274,2.274,0,0,1,.763.14v-8.006a2.3,2.3,0,0,1-.763.139H220.042a2.279,2.279,0,1,1,0-4.557h47.823a2.3,2.3,0,0,1,.763.139v-8.006a2.274,2.274,0,0,1-.763.139H237.912a2.279,2.279,0,1,1,0-4.557h29.953a2.274,2.274,0,0,1,.763.14v-14.3c-0.041,0,.041-0.361,0-0.36v-4.261l0.13-.005V229.2a2.244,2.244,0,0,1,4.487,0v78.579A2.229,2.229,0,0,1,271,310Zm-49.337-53.6,0,0a0,0,0,0,0,0,0,2.233,2.233,0,0,1-.216.175c-0.048.038-.092,0.083-0.142,0.116a2.329,2.329,0,0,1-.266.14c-0.045.021-.087,0.051-0.133,0.069a2.169,2.169,0,0,1-.334.1c-0.031.007-.06,0.021-0.09,0.027a2.313,2.313,0,0,1-.438.042,2.287,2.287,0,0,1-.437-0.042c-0.015,0-.029-0.01-0.044-0.013a2.244,2.244,0,0,1-.381-0.112c-0.014-.006-0.027-0.016-0.041-0.022a2.233,2.233,0,0,1-.356-0.186c-0.032-.021-0.06-0.051-0.091-0.074a2.339,2.339,0,0,1-.266-0.215v0l0,0-11.756-11.7a2.269,2.269,0,0,1,0-3.222,2.3,2.3,0,0,1,3.238,0l10.133,10.084,21.419-21.41a2.3,2.3,0,0,1,3.238-.008,2.269,2.269,0,0,1,.007,3.222Zm80.674,31.7-8.654,3.759a2.294,2.294,0,0,1-2.991-1.151l-7.3-16.387Z"/>
  <path id="_107x85" data-name="107x85" class="cls-1" d="M202.993,268.921L191.466,284.51a2.243,2.243,0,0,1-3.111.475l-22.217-16.2L164.061,255.3a3.171,3.171,0,0,1,2.663-3.6l13.6-2.064,22.2,16.2A2.208,2.208,0,0,1,202.993,268.921Zm-30.817-12.585a0.006,0.006,0,0,1,0,0,2.4,2.4,0,1,0-2.009,2.717v0.009h0.008A2.387,2.387,0,0,0,172.176,256.336Zm5.783,9.233a3.6,3.6,0,0,0-1.483.368,3.722,3.722,0,0,0-1.95,2.6,3.5,3.5,0,0,0,0,1.511,4.321,4.321,0,0,0,.731,1.357,5.51,5.51,0,0,0,2.623,1.937,4.391,4.391,0,0,0,1.542.242,3.43,3.43,0,0,0,1.472-.378,3.874,3.874,0,0,0,1.95-2.6,3.374,3.374,0,0,0-.019-1.463,4.345,4.345,0,0,0-.692-1.386,5.507,5.507,0,0,0-2.624-1.937A4.417,4.417,0,0,0,177.959,265.569Zm1.921-4.951,7.714,14.271,1.434-.726-7.715-14.32Zm14.472,4.176a4.3,4.3,0,0,0-.7-1.443,5.505,5.505,0,0,0-2.623-1.938,4.4,4.4,0,0,0-1.551-.252,3.578,3.578,0,0,0-1.482.368,3.736,3.736,0,0,0-1.951,2.6,3.542,3.542,0,0,0,.088,1.512,4.3,4.3,0,0,0,.7,1.395,5.488,5.488,0,0,0,2.624,1.937,4.36,4.36,0,0,0,1.541.243,3.471,3.471,0,0,0,1.473-.378,3.88,3.88,0,0,0,1.95-2.6l0.01,0.019A3.4,3.4,0,0,0,194.352,264.794Zm-2.477,2.732a1.882,1.882,0,0,1-.887.136,2.981,2.981,0,0,1-.976-0.261,5.313,5.313,0,0,1-.975-0.563,4.851,4.851,0,0,1-.809-0.746,3.1,3.1,0,0,1-.537-0.853,1.983,1.983,0,0,1-.156-0.881,1.824,1.824,0,0,1,1.083-1.473,2.042,2.042,0,0,1,.9-0.116,3.194,3.194,0,0,1,.975.261,4.925,4.925,0,0,1,.976.543,5.342,5.342,0,0,1,.829.746,2.92,2.92,0,0,1,.546.834,1.834,1.834,0,0,1,.136.881A1.937,1.937,0,0,1,191.875,267.526Zm-10.523,2.887a1.936,1.936,0,0,1-1.073,1.464,1.88,1.88,0,0,1-.887.135,2.95,2.95,0,0,1-.975-0.261,5.366,5.366,0,0,1-.975-0.562,4.863,4.863,0,0,1-.81-0.747,3.1,3.1,0,0,1-.536-0.852,1.976,1.976,0,0,1-.156-0.882,1.824,1.824,0,0,1,1.082-1.473,2.034,2.034,0,0,1,.9-0.116,3.147,3.147,0,0,1,.975.262,4.891,4.891,0,0,1,.975.542,5.249,5.249,0,0,1,.829.747,2.91,2.91,0,0,1,.517.862A1.844,1.844,0,0,1,181.352,270.413Zm-18.695,18a2.223,2.223,0,0,1-1.951-2.432l1.668-16.083,8.553,19.377Zm-7.149,20.558a2.187,2.187,0,0,1-2.194-2.18V296.9h-0.127V279.742H138.944c-1.407,0-2.983-.85-2.983-2.252a2.055,2.055,0,0,1,2.233-2.245h14.993v-29.2l-7.4-7.4-14.708,14.627a2.554,2.554,0,0,1-2.778.549,2.675,2.675,0,0,1-1.349-2.564v-7.5H121.7l-0.073,17.85a2.538,2.538,0,0,1-.748,1.8L108.209,276H118.7c1.407,0,3,.846,3,2.248V301.48a2.249,2.249,0,1,1-4.5,0V280.492H102.211a2.043,2.043,0,0,1-2.056-1.432,2.536,2.536,0,0,1,.556-2.77l16.494-16.037v-18.74a2.069,2.069,0,0,1,2.248-2.248H129.2a2.07,2.07,0,0,1,2.249,2.248v3.749l12.54-12.007a2.556,2.556,0,0,1,1.8-.742h0a2.565,2.565,0,0,1,1.8.746l5.593,5.587v-4.13l0.127,0v-5.27a2.195,2.195,0,0,1,4.389,0v77.352A2.188,2.188,0,0,1,155.508,308.973Zm-17.314-20.986a2.071,2.071,0,0,1,2.249,2.25v9.744a2.07,2.07,0,0,1-2.249,2.249,2.109,2.109,0,0,1-2.233-2.316v-9.307A2.365,2.365,0,0,1,138.194,287.987Zm47.966-.57-8.465,3.7a2.238,2.238,0,0,1-2.925-1.133l-7.139-16.131Z"/>
  <path id="_98x85" data-name="98x85" class="cls-1" d="M95.771,269.171L84.244,284.76a2.243,2.243,0,0,1-3.111.475l-22.216-16.2L56.839,255.55a3.171,3.171,0,0,1,2.662-3.6l13.6-2.064,22.2,16.2A2.208,2.208,0,0,1,95.771,269.171ZM64.953,256.586s0,0,0,0a2.4,2.4,0,1,0-2.008,2.716v0.01h0.007A2.387,2.387,0,0,0,64.953,256.586Zm5.783,9.234a3.581,3.581,0,0,0-1.483.368,3.725,3.725,0,0,0-1.951,2.6,3.518,3.518,0,0,0,0,1.512,4.334,4.334,0,0,0,.731,1.356,5.5,5.5,0,0,0,2.624,1.938,4.391,4.391,0,0,0,1.541.242,3.447,3.447,0,0,0,1.472-.378,3.878,3.878,0,0,0,1.95-2.6,3.382,3.382,0,0,0-.02-1.462,4.327,4.327,0,0,0-.692-1.386,5.518,5.518,0,0,0-2.623-1.938A4.4,4.4,0,0,0,70.736,265.82Zm1.921-4.951,7.714,14.27,1.434-.726-7.714-14.319Zm14.473,4.176a4.344,4.344,0,0,0-.7-1.444,5.511,5.511,0,0,0-2.624-1.938,4.4,4.4,0,0,0-1.551-.251,3.567,3.567,0,0,0-1.483.368,3.729,3.729,0,0,0-1.95,2.6,3.528,3.528,0,0,0,.088,1.511,4.313,4.313,0,0,0,.7,1.4,5.5,5.5,0,0,0,2.624,1.937,4.367,4.367,0,0,0,1.541.242,3.445,3.445,0,0,0,1.472-.378,3.876,3.876,0,0,0,1.95-2.6l0.01,0.019A3.387,3.387,0,0,0,87.13,265.045Zm-2.478,2.732a1.87,1.87,0,0,1-.887.135,2.943,2.943,0,0,1-.975-0.261,5.306,5.306,0,0,1-.976-0.562,4.846,4.846,0,0,1-.809-0.747,3.09,3.09,0,0,1-.537-0.852,1.982,1.982,0,0,1-.156-0.881,1.824,1.824,0,0,1,1.082-1.473,2.018,2.018,0,0,1,.9-0.116,3.174,3.174,0,0,1,.975.261,4.95,4.95,0,0,1,.976.543,5.3,5.3,0,0,1,.829.746,2.9,2.9,0,0,1,.546.833,1.846,1.846,0,0,1,.136.881A1.939,1.939,0,0,1,84.653,267.777ZM74.13,270.663a1.94,1.94,0,0,1-1.073,1.464,1.859,1.859,0,0,1-.887.135A2.92,2.92,0,0,1,71.195,272a5.367,5.367,0,0,1-.975-0.562,4.832,4.832,0,0,1-.809-0.746,3.086,3.086,0,0,1-.537-0.852,1.991,1.991,0,0,1-.156-0.882,1.823,1.823,0,0,1,1.082-1.473,2.015,2.015,0,0,1,.9-0.116,3.09,3.09,0,0,1,.975.262,4.754,4.754,0,0,1,.976.543,5.247,5.247,0,0,1,.829.745,2.884,2.884,0,0,1,.517.862A1.852,1.852,0,0,1,74.13,270.663Zm-18.7,18a2.223,2.223,0,0,1-1.95-2.432l1.667-16.083L63.7,289.527Zm-7.149,20.559a2.357,2.357,0,0,1-2.322-2.246v-9.745H29.473a7.672,7.672,0,0,1-7.7,7.67H15.781a7.973,7.973,0,0,1-8.048-7.67V272.5l-0.047-.157a6.688,6.688,0,0,1-6.7-6.656v-0.358a6.687,6.687,0,0,1,6.7-6.656h2.565c5.3-11.927,10.328-18.205,11.46-19.532a2.137,2.137,0,0,1,1.121-.9c0.361-.126,8.632-2.9,23.26-3.274v-5.271a2.194,2.194,0,0,1,4.388,0v77.353A2.188,2.188,0,0,1,48.286,309.224Zm-2.322-70.458a77.927,77.927,0,0,0-21.162,3.3c-1.151,1.4-9.87,17.875-9.87,17.875-0.77,1.618-1.336,2.974-2.993,2.974H7.686a2.421,2.421,0,0,0-2.428,2.4v0.358a2.421,2.421,0,0,0,2.428,2.413H9.968a2.164,2.164,0,0,1,2.262,2.161v26.985l0.03-.081A3.558,3.558,0,0,0,15.83,300.7h5.978a3.558,3.558,0,0,0,3.56-3.5h-6.71a2.127,2.127,0,0,1-2.066-2.188,2.573,2.573,0,0,1,2.387-2.275H45.964v-53.97Zm32.974,48.9-8.465,3.7a2.239,2.239,0,0,1-2.926-1.134L60.409,274.1Z"/>
  <path id="_42x39" data-name="42x39" class="cls-3" d="M206.913,166.693l-2.687-2v8.747h2.52v1.837H187.151v-1.837h2.534v-8.757l-2.7,2.012-1.079-1.478,10.262-7.647h1.563l4.677,3.485v-1.079h1.819v2.434l3.767,2.807Zm-4.506-3.357-5.275-3.931h-0.367l-5.262,3.921v10.112h4.543v-2.883h1.818v2.883h4.543v-10.1Zm-6.589-10.15H170.824v26.221a0.762,0.762,0,0,0,.757.765h23.48a0.761,0.761,0,0,0,.757-0.765v-2.019h1.819v2.019a2.592,2.592,0,0,1-2.576,2.6h-23.48a2.591,2.591,0,0,1-2.575-2.6V147.6a2.591,2.591,0,0,1,2.575-2.6h23.48a2.592,2.592,0,0,1,2.576,2.6v7.468h-1.819v-1.885Zm0-5.583a0.761,0.761,0,0,0-.757-0.765h-23.48a0.762,0.762,0,0,0-.757.765v3.746h24.994V147.6Z"/>
  <path id="_42x39-2" data-name="42x39" class="cls-3" d="M163.942,166.517l-2.62-1.893v6.582h-1.771v-7.863l-5.139-3.716h-0.359l-5.127,3.707v7.872h-1.772v-6.591l-2.631,1.9-1.051-1.4,10-7.23h1.523l10,7.23Zm-10.811-12.77H128.777v24.79a0.731,0.731,0,0,0,.738.724h22.878a0.731,0.731,0,0,0,.738-0.724v-1.908H154.9v1.908a2.489,2.489,0,0,1-2.51,2.461H129.515a2.488,2.488,0,0,1-2.509-2.461V148.468a2.488,2.488,0,0,1,2.509-2.46h22.878a2.488,2.488,0,0,1,2.51,2.46v7.061h-1.772v-1.782Zm0-5.279a0.731,0.731,0,0,0-.738-0.723H129.515a0.731,0.731,0,0,0-.738.723v3.542h24.354v-3.542ZM153.058,163.1v8.106h-1.772V163.1h1.772Zm4.132,0v8.106h-1.771V163.1h1.771Zm6.589,11.531H144.686v-1.737h19.093v1.737Z"/>
  <path id="_42x39-3" data-name="42x39" class="cls-3" d="M243.54,172.657a3.228,3.228,0,0,1-2.334.236,12.27,12.27,0,0,1-5.665-3.812,13.79,13.79,0,0,1-3.444-6.169,3.915,3.915,0,0,1,.232-2.476,3.024,3.024,0,0,1,1.651-1.431l2.123,3.773-0.9.959a0.52,0.52,0,0,0-.075.6,11.407,11.407,0,0,0,4.96,5.3,0.464,0.464,0,0,0,.54-0.11l0.953-1.022L245,170.8A3.457,3.457,0,0,1,243.54,172.657Zm-6.13-18.7H212.791v25.5a0.745,0.745,0,0,0,.746.743h23.127a0.745,0.745,0,0,0,.746-0.744V177.5H239.2v1.962a2.537,2.537,0,0,1-2.537,2.531H213.537a2.536,2.536,0,0,1-2.537-2.53V148.533A2.537,2.537,0,0,1,213.537,146h23.127a2.537,2.537,0,0,1,2.537,2.531v7.262H237.41v-1.833Zm-0.746-6.173H213.537a0.745,0.745,0,0,0-.746.744v3.643H237.41v-3.643A0.745,0.745,0,0,0,236.664,147.789Z"/>
  <path id="_42x39-4" data-name="42x39" class="cls-3" d="M280.1,182.325l-0.6.674-0.6-.674c-0.81-.91-7.908-9.039-7.908-14.129a8.514,8.514,0,0,1,17.015,0C288.01,173.291,280.912,181.415,280.1,182.325Zm-0.6-20.833a6.832,6.832,0,0,0-6.938,6.7c0,3.75,5.039,10.168,6.584,12.045l0.354,0.431,0.354-.431c1.545-1.877,6.585-8.3,6.585-12.045A6.833,6.833,0,0,0,279.5,161.492Zm0,9.929a3.228,3.228,0,1,1,3.359-3.225A3.3,3.3,0,0,1,279.5,171.421Zm0-4.965a1.741,1.741,0,1,0,1.79,1.74A1.767,1.767,0,0,0,279.5,166.456Zm-0.093-13.494H254.791v25.5a0.746,0.746,0,0,0,.746.744h16.127v1.786H255.537a2.536,2.536,0,0,1-2.537-2.53V147.533A2.537,2.537,0,0,1,255.537,145h23.127a2.537,2.537,0,0,1,2.537,2.531v9.262H279.41v-3.833Zm0-5.429a0.746,0.746,0,0,0-.746-0.745H255.537a0.746,0.746,0,0,0-.746.745v3.643H279.41v-3.643Z"/>
  <path id="_42x39-5" data-name="42x39" class="cls-3" d="M324.4,181.828l-0.331.147-0.34-.121c-0.313-.11-7.666-2.76-8.715-8.212L315,173.473V161.76l9.032-1.79,8.859,1.746V173.3C332.893,173.453,332.987,178.008,324.4,181.828Zm6.682-18.638-7.051-1.39-7.227,1.433v10.152c0.8,3.826,5.851,6.105,7.2,6.65,7.025-3.231,7.081-6.663,7.08-6.7V163.19Zm-7.669-10.228H298.791v25.5a0.745,0.745,0,0,0,.746.743h16.127v1.787H299.537a2.536,2.536,0,0,1-2.537-2.53V147.533A2.537,2.537,0,0,1,299.537,145h23.127a2.537,2.537,0,0,1,2.537,2.531v9.261H323.41v-3.832Zm0-5.429a0.746,0.746,0,0,0-.746-0.745H299.537a0.746,0.746,0,0,0-.746.745v3.642H323.41v-3.642Z"/>
  <path id="_42x39-6" data-name="42x39" class="cls-3" d="M104.215,172.144l12.745-12.956,1.242,1.263-12.744,12.955Zm6.115-9.93a3.52,3.52,0,1,1-3.519-3.578A3.553,3.553,0,0,1,110.33,162.214Zm-5.281,0a1.762,1.762,0,1,0,1.762-1.791A1.779,1.779,0,0,0,105.049,162.214Zm5.867-8.246H86.757v25.5a0.739,0.739,0,0,0,.732.744h22.7a0.739,0.739,0,0,0,.732-0.744V177.5h1.757v1.963A2.513,2.513,0,0,1,110.184,182h-22.7A2.513,2.513,0,0,1,85,179.467V148.539a2.513,2.513,0,0,1,2.49-2.531h22.7a2.513,2.513,0,0,1,2.489,2.531V155.8h-1.757v-1.833Zm-0.732-6.173h-22.7a0.738,0.738,0,0,0-.732.744v3.643h24.159v-3.643A0.739,0.739,0,0,0,110.184,147.795Zm5.3,19.655a3.578,3.578,0,1,1-3.52,3.578A3.553,3.553,0,0,1,115.481,167.45Zm0,5.368a1.791,1.791,0,1,0-1.762-1.79A1.778,1.778,0,0,0,115.481,172.818Z"/>
  <path id="_42x39-7" data-name="42x39" class="cls-3" d="M70.583,172.45l-8.615-7.065,1.137-1.38,7.36,6.036L81.734,158.8,83,160.063Zm-1.172-18.488H44.791v25.5a0.746,0.746,0,0,0,.746.743H68.664a0.746,0.746,0,0,0,.746-0.743V177.5H71.2v1.963a2.537,2.537,0,0,1-2.537,2.53H45.537A2.536,2.536,0,0,1,43,179.462V148.534A2.537,2.537,0,0,1,45.537,146H68.664a2.537,2.537,0,0,1,2.537,2.531v7.261H69.411v-1.833Zm0-5.428a0.746,0.746,0,0,0-.746-0.745H45.537a0.746,0.746,0,0,0-.746.745v3.642h24.62v-3.642Z"/>
  <path id="_42x39-8" data-name="42x39" class="cls-3" d="M24.752,173.5v-1.836h2.94v-7.247h-2.94v-1.836H29.5v9.083h2.489V173.5H24.752Zm2.94-14.543H29.5v2.22h-1.81v-2.22Zm0-5.777H2.812v26.221a0.761,0.761,0,0,0,.754.766H26.938a0.76,0.76,0,0,0,.754-0.766v-2.018H29.5v2.018a2.587,2.587,0,0,1-2.564,2.6H3.566A2.587,2.587,0,0,1,1,179.405V147.6A2.586,2.586,0,0,1,3.566,145H26.938a2.586,2.586,0,0,1,2.564,2.6v7.468h-1.81v-1.885Zm0-5.583a0.761,0.761,0,0,0-.754-0.765H3.566a0.761,0.761,0,0,0-.754.765v3.746h24.88V147.6Z"/>
  <path id="_31x17" data-name="31x17" class="cls-1" d="M15.5,198.97C15.485,190.514,9.164,184.072,1,184H30C21.835,184.072,15.514,190.514,15.5,198.97Zm0,0.029c0-.01,0-0.019,0-0.029,0,0.01,0,.019,0,0.029h0Z"/>
  <path id="_33x38" data-name="33x38" class="cls-8" d="M30.823,371.989H2.188A1.186,1.186,0,0,1,1.009,370.8V337.2a1.186,1.186,0,0,1,1.179-1.193H22.759a1.174,1.174,0,0,1,.833.349l8.064,8.155a1.2,1.2,0,0,1,.345.843V370.8A1.186,1.186,0,0,1,30.823,371.989Zm-1.179-26.142-7.373-7.456H3.367V369.6H29.644V345.847ZM10.262,351.2H23.9a1.193,1.193,0,0,1,0,2.386H10.262A1.193,1.193,0,0,1,10.262,351.2Zm0,6.571H23.9a1.193,1.193,0,0,1,0,2.386H10.262A1.193,1.193,0,0,1,10.262,357.772Z"/>
  <path id="_33x29" data-name="33x29" class="cls-6" d="M30.827,394.227H10.706l-7.776,6.5a1.161,1.161,0,0,1-.743.272,1.146,1.146,0,0,1-.512-0.12A1.235,1.235,0,0,1,1,399.766v-24.54A1.207,1.207,0,0,1,2.187,374h28.64a1.207,1.207,0,0,1,1.185,1.229V393A1.207,1.207,0,0,1,30.827,394.227Zm-1.185-17.772H3.372V397.2l6.173-5.156a1.159,1.159,0,0,1,.743-0.272H29.642V376.455ZM9.256,383.8a1.207,1.207,0,0,1,1.185-1.228H22.573a1.229,1.229,0,0,1,0,2.457H10.441A1.207,1.207,0,0,1,9.256,383.8Z"/>
  <path id="_21x21" data-name="21x21" class="cls-7" d="M19.2,413.568H17.751a7.074,7.074,0,0,1-6.231,6.195V421.2a0.8,0.8,0,0,1-1.608,0v-1.439a7.074,7.074,0,0,1-6.231-6.195H2.214a0.8,0.8,0,1,1,0-1.6H3.682a7.074,7.074,0,0,1,6.231-6.2v-1.459a0.8,0.8,0,0,1,1.608,0v1.459a7.074,7.074,0,0,1,6.231,6.2H19.2A0.8,0.8,0,1,1,19.2,413.568Zm-8.482-6.234a5.435,5.435,0,1,0,5.467,5.435A5.451,5.451,0,0,0,10.716,407.334Zm0,9.032a3.6,3.6,0,1,1,3.618-3.6A3.607,3.607,0,0,1,10.716,416.366Zm0-5.595a2,2,0,1,0,2.01,2A2,2,0,0,0,10.716,410.771Z"/>
  <path id="_31x17-2" data-name="31x17" class="cls-9" d="M46.5,198.97c-0.015-8.456-6.336-14.9-14.5-14.97H61C52.835,184.072,46.514,190.514,46.5,198.97Zm0,0.029c0-.01,0-0.019,0-0.029,0,0.01,0,.019,0,0.029h0Z"/>
  <path id="_33x31" data-name="33x31" class="cls-3" d="M0,486V455H33.539C14.981,455,.158,467.953,0,486Z"/>
  <path id="_20x19" data-name="20x19" class="cls-4" d="M1,540v-4.942H3.287v2.57H16.713v-2.57H19V540H1Zm4.272-9.528,1.6-1.66,1.983,2.055V523h2.289v7.867l1.983-2.055,1.6,1.66-4.73,4.9Z"/>
  <path id="_26x38" data-name="26x38" class="cls-10" d="M23.955,545.906l-2.346,2.279a0.875,0.875,0,0,1-1.219-1.255l1.021-.992H20.472c-1.991,0-3.981-.006-5.839-0.011-3.052-.009-5.412-0.022-6.874-0.041a2.266,2.266,0,0,0-.358-1.755c1.4,0.021,3.907.036,7.237,0.046,1.857,0,3.846.009,5.836,0.011h0.493l-0.577-.56a0.875,0.875,0,0,1,1.219-1.256l2.346,2.279A0.875,0.875,0,0,1,23.955,545.906Zm-16.972-.031c0.217,0,.485.008,0.776,0.011a2.309,2.309,0,1,1-.358-1.755l-0.385-.006Zm-1.518-1a0.55,0.55,0,1,0,.591.549A0.572,0.572,0,0,0,5.466,544.875Zm1.046,14.173a3.161,3.161,0,0,1,.375,1.6l5.384-11.216a2.657,2.657,0,0,1,3.487-1.245,2.563,2.563,0,0,1,1.279,3.447l-2.648,5.517a2.647,2.647,0,0,0-2.444,1.048l3.515-7.322a0.813,0.813,0,0,0-.423-1.1,0.906,0.906,0,0,0-1.188.408L6.74,565l-0.825-.5a2.028,2.028,0,0,1-.3-0.228,1.447,1.447,0,0,1-.357-0.469,3.905,3.905,0,0,1-.159-2.135c0.014-.185.021-0.286,0.027-0.4A2.727,2.727,0,0,0,5,559.92a1.646,1.646,0,0,0-.924-0.73,2.988,2.988,0,0,0-.741-0.158c-0.149,1.048-.311,2.627-0.426,4.462a12.449,12.449,0,0,0,.683,5.138c0.038,0.114.423,1.2,0.517,1.506a5.429,5.429,0,0,1,.286,1.535,3.711,3.711,0,0,1-.383,1.719l-1.578-.757a1.969,1.969,0,0,0,.211-0.926,3.808,3.808,0,0,0-.207-1.05c-0.083-.266-0.458-1.327-0.505-1.469a14.163,14.163,0,0,1-.771-5.8,52.394,52.394,0,0,1,.564-5.38l0.115-.627,0.632-.083c0.036,0,.09-0.01.161-0.015a4.987,4.987,0,0,1,2.029.26A3.383,3.383,0,0,1,6.513,559.048Zm5.278,3.412,0,0-1.578-.758,1.487-3.1a2.542,2.542,0,0,1,.248-0.4l-1.69,3.52Zm1.628-3.28-1.584,3.3-0.043-.021,1.485-3.094A0.8,0.8,0,0,1,13.418,559.18Zm1.768-1.817a2.576,2.576,0,0,1,1.517,2.259,2.659,2.659,0,0,1,1.186.227,2.572,2.572,0,0,1,1.518,2.26,4.066,4.066,0,0,1,.919.131,3.209,3.209,0,0,1,.7.279,2.509,2.509,0,0,1,1.043,3.212,20.024,20.024,0,0,1-3.981,7.029c-1.187,1.416-4.223,4.37-4.3,4.527l-1.578-.758c0.234-.487,3.527-3.693,4.535-4.894a18.313,18.313,0,0,0,3.648-6.416c0.2-.653.123-0.982-0.211-1.166a1.485,1.485,0,0,0-.316-0.124,2.683,2.683,0,0,0-.976-0.056l-1.21,2.521-1.578-.758,1.487-3.1a0.814,0.814,0,0,0-.424-1.1,0.907,0.907,0,0,0-1.188.408l-0.991,2.065-1.578-.757v0l-0.011,0,1.487-3.1a0.813,0.813,0,0,0-.423-1.1,0.906,0.906,0,0,0-1.046.222l0.972-2.025A2.643,2.643,0,0,1,15.186,557.363Z"/>
  <path id="Stroke-1" class="cls-10" d="M10.211,561.706l1.487-3.1a2.658,2.658,0,0,1,3.488-1.245,2.564,2.564,0,0,1,1.279,3.447l-1.487,3.1-1.578-.757,1.487-3.1a0.813,0.813,0,0,0-.423-1.1,0.906,0.906,0,0,0-1.188.408l-1.487,3.1Z"/>
  <path id="Stroke-3" class="cls-10" d="M13.41,563.159l0.991-2.066a2.656,2.656,0,0,1,3.487-1.244,2.564,2.564,0,0,1,1.28,3.447l-1.487,3.1-1.578-.758,1.487-3.1a0.814,0.814,0,0,0-.424-1.1,0.907,0.907,0,0,0-1.188.408l-0.991,2.065Z"/>
  <path id="Stroke-5" class="cls-10" d="M3.588,568.632c0.038,0.114.423,1.2,0.517,1.506a5.429,5.429,0,0,1,.286,1.535,3.711,3.711,0,0,1-.383,1.719l-1.578-.757a1.969,1.969,0,0,0,.211-0.926,3.808,3.808,0,0,0-.207-1.05c-0.083-.266-0.458-1.327-0.505-1.469a14.163,14.163,0,0,1-.771-5.8,52.394,52.394,0,0,1,.564-5.38l0.115-.627,0.632-.083c0.036,0,.09-0.01.161-0.015a4.987,4.987,0,0,1,2.029.26,3.383,3.383,0,0,1,1.853,1.507,3.161,3.161,0,0,1,.375,1.6l5.384-11.216a2.657,2.657,0,0,1,3.487-1.245,2.563,2.563,0,0,1,1.279,3.447l-5.2,10.843-1.578-.758,5.2-10.842a0.813,0.813,0,0,0-.423-1.1,0.906,0.906,0,0,0-1.188.408L6.74,565l-0.825-.5a2.028,2.028,0,0,1-.3-0.228,1.447,1.447,0,0,1-.357-0.469,3.905,3.905,0,0,1-.159-2.135c0.014-.185.021-0.286,0.027-0.4A2.727,2.727,0,0,0,5,559.92a1.646,1.646,0,0,0-.924-0.73,2.988,2.988,0,0,0-.741-0.158c-0.149,1.048-.311,2.627-0.426,4.462A12.449,12.449,0,0,0,3.588,568.632Zm3.2-5.651,0,0Z"/>
  <path id="Stroke-7" class="cls-10" d="M18.4,562.175c0.057-.011.143-0.025,0.255-0.039a4.4,4.4,0,0,1,1.673.1,3.209,3.209,0,0,1,.7.279,2.509,2.509,0,0,1,1.043,3.212,20.024,20.024,0,0,1-3.981,7.029c-1.187,1.416-4.223,4.37-4.3,4.527l-1.578-.758c0.234-.487,3.527-3.693,4.535-4.894a18.313,18.313,0,0,0,3.648-6.416c0.2-.653.123-0.982-0.211-1.166a1.485,1.485,0,0,0-.316-0.124,2.721,2.721,0,0,0-1.006-.055c-0.063.007-.1,0.014-0.114,0.016Z"/>
  <path id="Stroke-9" class="cls-10" d="M23.126,545.939H20.472c-1.991,0-3.981-.006-5.839-0.011-3.66-.011-6.345-0.028-7.65-0.052l0.033-1.75c1.292,0.024,3.972.041,7.622,0.052,1.857,0,3.846.009,5.836,0.011h2.652v1.75Z"/>
  <path id="Stroke-11" class="cls-10" d="M20.372,542.39a0.876,0.876,0,0,1,1.237-.018l2.346,2.279a0.875,0.875,0,0,1,0,1.255l-2.346,2.279a0.875,0.875,0,0,1-1.219-1.255l1.7-1.651-1.7-1.651A0.876,0.876,0,0,1,20.372,542.39Z"/>
  <path id="Stroke-13" class="cls-10" d="M5.466,544.875a0.55,0.55,0,1,0,.591.549A0.572,0.572,0,0,0,5.466,544.875Zm0,2.848a2.3,2.3,0,1,1,2.341-2.3A2.32,2.32,0,0,1,5.466,547.723Z"/>
  <path id="_31x17-3" data-name="31x17" class="cls-11" d="M77.5,198.97c-0.015-8.456-6.335-14.9-14.5-14.97H92C83.835,184.072,77.514,190.514,77.5,198.97Zm0,0.029c0-.01,0-0.019,0-0.029,0,0.01,0,.019,0,0.029h0Z"/>
  <path id="_31x17-4" data-name="31x17" class="cls-12" d="M108.5,198.97c-0.015-8.456-6.336-14.9-14.5-14.97h29C114.835,184.072,108.514,190.514,108.5,198.97Zm0,0.029c0-.01,0-0.019,0-0.029,0,0.01,0,.019,0,0.029h0Z"/>
  <path id="_31x17-5" data-name="31x17" class="cls-1" d="M139.5,184.03c0.015,8.456,6.336,14.9,14.5,14.97H125C133.165,198.927,139.486,192.486,139.5,184.03Zm0-.029c0,0.01,0,.019,0,0.029,0-.01,0-0.019,0-0.029h0Z"/>
  <path id="_31x17-6" data-name="31x17" class="cls-10" d="M170.5,198.97c-0.015-8.456-6.336-14.9-14.5-14.97h29C176.835,184.072,170.514,190.514,170.5,198.97Zm0,0.029c0-.01,0-0.019,0-0.029,0,0.01,0,.019,0,0.029h0Z"/>
  <path id="_31x17-7" data-name="31x17" class="cls-13" d="M201.5,198.97c-0.015-8.456-6.336-14.9-14.5-14.97h29C207.835,184.072,201.514,190.514,201.5,198.97Zm0,0.029c0-.01,0-0.019,0-0.029,0,0.01,0,.019,0,0.029h0Z"/>
  <path id="_31x17-8" data-name="31x17" class="cls-14" d="M232.5,198.97c-0.015-8.456-6.336-14.9-14.5-14.97h29C238.835,184.072,232.514,190.514,232.5,198.97Zm0,0.029c0-.01,0-0.019,0-0.029,0,0.01,0,.019,0,0.029h0Z"/>
  <path id="_57x75" data-name="57x75" class="cls-3" d="M47.513,99.967V97.311h5.179V90.459c-2.47-1.9-10.979-7.543-24.671-7.543-13.729,0-21.976,5.626-24.357,7.515v6.881H24.614v2.655H1.006V89.193l0.464-.4c2.339-2,11.166-8.536,26.55-8.536,15.321,0,24.421,6.532,26.846,8.535l0.482,0.4V99.967H47.513ZM28.177,73.952a11.12,11.12,0,0,1-11.117-11.1V54.1a11.117,11.117,0,0,1,22.235,0v8.755A11.12,11.12,0,0,1,28.177,73.952ZM36.637,54.1a8.46,8.46,0,0,0-16.921,0v8.755a8.46,8.46,0,0,0,16.921,0V54.1ZM31.29,86.636l3.931,6.955-1.667,1.768a0.957,0.957,0,0,0-.139,1.1c2.392,4.45,5.218,7.9,9.181,9.767a0.863,0.863,0,0,0,1-.2l1.764-1.884,6.333,4.245a6.365,6.365,0,0,1-2.708,3.42,5.983,5.983,0,0,1-4.319.435c-3.3-.734-7.259-3.494-10.486-7.027s-5.73-7.832-6.375-11.375a7.2,7.2,0,0,1,.431-4.565A5.586,5.586,0,0,1,31.29,86.636Z"/>
  <path id="_57x75-2" data-name="57x75" class="cls-3" d="M104.768,99.967V97.311h5.179V90.459c-2.47-1.9-10.979-7.543-24.671-7.543-13.729,0-21.976,5.626-24.357,7.515v6.881H78.769v2.67l-20.508-.014V89.193l0.464-.4c2.339-2,11.166-8.536,26.55-8.536,15.321,0,24.421,6.532,26.846,8.535l0.482,0.4V99.967h-7.836ZM85.433,73.952a11.12,11.12,0,0,1-11.117-11.1V54.1a11.117,11.117,0,0,1,22.235,0v8.755A11.12,11.12,0,0,1,85.433,73.952ZM93.893,54.1a8.46,8.46,0,0,0-16.921,0v8.755a8.46,8.46,0,0,0,16.921,0V54.1ZM88.219,88.406h7.813a5,5,0,0,1,5,5V111a5,5,0,0,1-5,5H88.219a5,5,0,0,1-5-5V93.405A5,5,0,0,1,88.219,88.406Zm1.688,24.047a0.89,0.89,0,0,0,.89.89h2.689a0.89,0.89,0,0,0,.89-0.89h0a0.89,0.89,0,0,0-.89-0.89H90.8a0.89,0.89,0,0,0-.89.89h0Zm-4-5.579a2,2,0,0,0,2,2h8.469a2,2,0,0,0,2-2V93.093a2,2,0,0,0-2-2H87.906a2,2,0,0,0-2,2v13.781Z"/>
  <path id="_24x27" data-name="24x27" class="cls-3" d="M119.757,142h-9.514A6.249,6.249,0,0,1,104,135.757v-9.514A6.249,6.249,0,0,1,110.243,120h9.514A6.249,6.249,0,0,1,126,126.243v9.514A6.249,6.249,0,0,1,119.757,142ZM115,126.838A4.162,4.162,0,1,0,119.162,131,4.149,4.149,0,0,0,115,126.838Zm5.95-3.268a1.19,1.19,0,1,0,1.189,1.19A1.189,1.189,0,0,0,120.95,123.57Z"/>
  <path id="_57x75-3" data-name="57x75" class="cls-15" d="M164.445,99.981v-2.67h2.676V90.459c-2.47-1.9-10.979-7.543-24.671-7.543-13.729,0-21.976,5.626-24.357,7.515v6.881h16.069v2.67l-18.726-.014V89.193l0.464-.4c2.339-2,11.166-8.536,26.55-8.536,15.321,0,24.421,6.532,26.846,8.535l0.482,0.4V99.967ZM142.607,73.952a11.12,11.12,0,0,1-11.118-11.1V54.1a11.118,11.118,0,0,1,22.235,0v8.755A11.12,11.12,0,0,1,142.607,73.952Zm8.46-19.852a8.461,8.461,0,0,0-16.921,0v8.755a8.461,8.461,0,0,0,16.921,0V54.1ZM139.694,91.273A6.706,6.706,0,0,1,147.6,90.09h0a11.451,11.451,0,0,1,2.151-.2,11.362,11.362,0,0,1,11.355,11.374,11.451,11.451,0,0,1-.189,2.061,6.735,6.735,0,0,1-1.118,8.036,6.707,6.707,0,0,1-8.06,1.1,11.383,11.383,0,0,1-1.988.177A11.365,11.365,0,0,1,138.4,101.259a11.573,11.573,0,0,1,.171-1.96A6.736,6.736,0,0,1,139.694,91.273ZM149.8,108.224c3.839,0,5.741-1.853,5.741-4.335,0-1.6-.738-3.3-3.647-3.953l-2.657-.591c-1.009-.23-2.173-0.535-2.173-1.489s0.816-1.623,2.289-1.623c2.968,0,2.7,2.042,4.17,2.042a1.313,1.313,0,0,0,1.454-1.241c0-1.832-2.927-3.207-5.411-3.207-2.7,0-5.567,1.146-5.567,4.2,0,1.471.525,3.035,3.415,3.761l3.588,0.9a1.463,1.463,0,0,1,1.358,1.432c0,0.918-.911,1.815-2.56,1.815-3.221,0-2.774-2.483-4.5-2.483a1.269,1.269,0,0,0-1.338,1.3C143.962,106.237,145.767,108.224,149.8,108.224Z"/>
  <path id="_26x27" data-name="26x27" class="cls-3" d="M66.065,126.459C65.2,125.423,63.6,125,60.544,125H49.456c-3.125,0-4.751.45-5.614,1.554C43,127.63,43,129.215,43,131.409v4.182c0,4.251,1,6.409,6.456,6.409H60.544c2.649,0,4.117-.373,5.067-1.288,0.974-.938,1.389-2.469,1.389-5.121v-4.182C67,129.1,66.935,127.5,66.065,126.459Zm-7.656,7.618-5.035,2.649a0.774,0.774,0,0,1-1.133-.691v-5.28a0.781,0.781,0,0,1,.372-0.666,0.769,0.769,0,0,1,.759-0.025l5.035,2.631A0.781,0.781,0,0,1,58.408,134.077Z"/>
</svg>
