<?xml version="1.0" encoding="UTF-8" standalone="no"?>
<svg width="113px" height="36px" viewBox="0 0 113 36" version="1.1" xmlns="http://www.w3.org/2000/svg" xmlns:xlink="http://www.w3.org/1999/xlink" xmlns:sketch="http://www.bohemiancoding.com/sketch/ns">
    <!-- Generator: Sketch 3.5.1 (25234) - http://www.bohemiancoding.com/sketch -->
    <title>Untitled</title>
    <desc>Created with Sketch.</desc>
    <defs></defs>
    <g id="Page-1" stroke="none" stroke-width="1" fill="none" fill-rule="evenodd" sketch:type="MSPage">
        <g id="airbnb" sketch:type="MSLayerGroup" transform="translate(-1.000000, 0.000000)" fill="#FFFFFF">
            <path d="M60.703,9.253 C60.703,10.528 59.676,11.555 58.401,11.555 C57.126,11.555 56.098,10.528 56.098,9.253 C56.098,7.978 57.09,6.951 58.401,6.951 C59.711,6.986 60.703,8.013 60.703,9.253 L60.703,9.253 Z M51.21,13.893 L51.21,14.46 C51.21,14.46 50.112,13.043 47.775,13.043 C43.914,13.043 40.903,15.983 40.903,20.056 C40.903,24.094 43.878,27.07 47.775,27.07 C50.148,27.07 51.21,25.617 51.21,25.617 L51.21,26.22 C51.21,26.503 51.423,26.716 51.706,26.716 L54.575,26.716 L54.575,13.397 L51.706,13.397 C51.423,13.397 51.21,13.645 51.21,13.893 L51.21,13.893 Z M51.21,22.43 C50.679,23.209 49.616,23.882 48.341,23.882 C46.074,23.882 44.339,22.465 44.339,20.056 C44.339,17.648 46.074,16.231 48.341,16.231 C49.581,16.231 50.714,16.939 51.21,17.683 L51.21,22.43 L51.21,22.43 Z M56.701,13.397 L60.101,13.397 L60.101,26.715 L56.701,26.715 L56.701,13.397 Z M107.494,13.043 C105.157,13.043 104.059,14.46 104.059,14.46 L104.059,6.986 L100.658,6.986 L100.658,26.716 L103.527,26.716 C103.81,26.716 104.023,26.467 104.023,26.22 L104.023,25.617 C104.023,25.617 105.121,27.07 107.459,27.07 C111.32,27.07 114.331,24.094 114.331,20.056 C114.331,16.018 111.32,13.043 107.494,13.043 L107.494,13.043 Z M106.928,23.846 C105.617,23.846 104.59,23.173 104.059,22.394 L104.059,17.648 C104.59,16.939 105.723,16.196 106.928,16.196 C109.195,16.196 110.93,17.612 110.93,20.021 C110.93,22.43 109.195,23.846 106.928,23.846 L106.928,23.846 Z M98.887,18.817 L98.887,26.751 L95.487,26.751 L95.487,19.206 C95.487,17.01 94.778,16.125 92.865,16.125 C91.838,16.125 90.776,16.656 90.103,17.435 L90.103,26.716 L86.702,26.716 L86.702,13.397 L89.394,13.397 C89.678,13.397 89.89,13.645 89.89,13.893 L89.89,14.46 C90.882,13.433 92.192,13.043 93.503,13.043 C94.991,13.043 96.23,13.468 97.222,14.318 C98.427,15.31 98.887,16.585 98.887,18.817 L98.887,18.817 Z M78.449,13.043 C76.111,13.043 75.013,14.46 75.013,14.46 L75.013,6.986 L71.613,6.986 L71.613,26.716 L74.482,26.716 C74.765,26.716 74.978,26.467 74.978,26.22 L74.978,25.617 C74.978,25.617 76.076,27.07 78.414,27.07 C82.275,27.07 85.286,24.094 85.286,20.056 C85.321,16.018 82.31,13.043 78.449,13.043 L78.449,13.043 Z M77.882,23.846 C76.572,23.846 75.545,23.173 75.013,22.394 L75.013,17.648 C75.545,16.939 76.678,16.196 77.882,16.196 C80.149,16.196 81.885,17.612 81.885,20.021 C81.885,22.43 80.149,23.846 77.882,23.846 L77.882,23.846 Z M68.673,13.043 C69.7,13.043 70.232,13.22 70.232,13.22 L70.232,16.373 C70.232,16.373 67.398,15.416 65.627,17.435 L65.627,26.751 L62.226,26.751 L62.226,13.397 L65.095,13.397 C65.379,13.397 65.591,13.645 65.591,13.893 L65.591,14.46 C66.229,13.716 67.61,13.043 68.673,13.043 L68.673,13.043 Z M33.358,25.511 C33.181,25.086 33.004,24.626 32.827,24.236 C32.544,23.599 32.26,22.996 32.012,22.43 L31.977,22.394 C29.533,17.081 26.911,11.697 24.149,6.384 L24.042,6.171 C23.759,5.64 23.476,5.073 23.192,4.507 C22.838,3.869 22.484,3.196 21.917,2.558 C20.784,1.142 19.154,0.362 17.419,0.362 C15.648,0.362 14.054,1.142 12.885,2.488 C12.353,3.125 11.964,3.798 11.61,4.436 C11.326,5.002 11.043,5.569 10.76,6.101 L10.653,6.313 C7.926,11.626 5.269,17.01 2.825,22.323 L2.79,22.394 C2.542,22.961 2.258,23.563 1.975,24.201 C1.798,24.59 1.621,25.015 1.444,25.476 C0.983,26.786 0.842,28.026 1.019,29.301 C1.408,31.958 3.179,34.189 5.623,35.181 C6.544,35.571 7.501,35.748 8.492,35.748 C8.776,35.748 9.13,35.712 9.413,35.677 C10.582,35.535 11.787,35.146 12.956,34.473 C14.408,33.658 15.789,32.489 17.348,30.789 C18.906,32.489 20.323,33.658 21.74,34.473 C22.909,35.146 24.113,35.535 25.282,35.677 C25.565,35.712 25.92,35.748 26.203,35.748 C27.195,35.748 28.187,35.571 29.072,35.181 C31.552,34.189 33.287,31.922 33.677,29.301 C33.96,28.061 33.819,26.822 33.358,25.511 L33.358,25.511 Z M17.383,27.353 C15.47,24.944 14.231,22.678 13.806,20.765 C13.629,19.95 13.593,19.242 13.699,18.604 C13.77,18.038 13.983,17.541 14.266,17.117 C14.939,16.16 16.073,15.558 17.383,15.558 C18.694,15.558 19.863,16.125 20.5,17.117 C20.784,17.541 20.996,18.038 21.067,18.604 C21.173,19.242 21.138,19.985 20.961,20.765 C20.536,22.642 19.296,24.909 17.383,27.353 L17.383,27.353 Z M31.516,29.018 C31.268,30.86 30.029,32.454 28.293,33.162 C27.443,33.516 26.522,33.623 25.601,33.516 C24.715,33.41 23.83,33.127 22.909,32.595 C21.634,31.887 20.359,30.789 18.871,29.16 C21.209,26.29 22.626,23.669 23.157,21.332 C23.405,20.234 23.44,19.242 23.334,18.321 C23.192,17.435 22.873,16.621 22.378,15.912 C21.28,14.318 19.438,13.397 17.383,13.397 C15.329,13.397 13.487,14.354 12.389,15.912 C11.893,16.621 11.574,17.435 11.433,18.321 C11.291,19.242 11.326,20.269 11.61,21.332 C12.141,23.669 13.593,26.326 15.896,29.195 C14.443,30.824 13.133,31.922 11.858,32.631 C10.937,33.162 10.051,33.446 9.166,33.552 C8.209,33.658 7.288,33.516 6.474,33.198 C4.738,32.489 3.498,30.895 3.25,29.053 C3.144,28.168 3.215,27.282 3.569,26.29 C3.676,25.936 3.852,25.582 4.03,25.157 C4.278,24.59 4.561,23.988 4.844,23.386 L4.88,23.315 C7.324,18.038 9.945,12.653 12.672,7.411 L12.779,7.199 C13.062,6.667 13.345,6.101 13.629,5.569 C13.912,5.002 14.231,4.471 14.62,4.011 C15.364,3.161 16.356,2.7 17.454,2.7 C18.552,2.7 19.544,3.161 20.288,4.011 C20.677,4.471 20.996,5.002 21.28,5.569 C21.563,6.101 21.846,6.667 22.13,7.199 L22.236,7.411 C24.928,12.689 27.549,18.073 29.993,23.351 L29.993,23.386 C30.276,23.953 30.524,24.59 30.808,25.157 C30.985,25.582 31.162,25.936 31.268,26.29 C31.552,27.211 31.658,28.097 31.516,29.018 L31.516,29.018 Z" id="Fill-2" sketch:type="MSShapeGroup"></path>
        </g>
    </g>
</svg>