<?xml version="1.0" encoding="UTF-8" standalone="no"?>
<svg width="441px" height="56px" viewBox="0 0 441 56" version="1.1" xmlns="http://www.w3.org/2000/svg" xmlns:xlink="http://www.w3.org/1999/xlink" xmlns:sketch="http://www.bohemiancoding.com/sketch/ns">
    <!-- Generator: Sketch 3.2.2 (9983) - http://www.bohemiancoding.com/sketch -->
    <title>Slice 1</title>
    <desc>Created with Sketch.</desc>
    <defs></defs>
    <g id="Page-1" stroke="none" stroke-width="1" fill="none" fill-rule="evenodd" sketch:type="MSPage">
        <g id="niui" sketch:type="MSLayerGroup" transform="translate(0.000000, 5.000000)" fill="#ffffff">
            <g id="Page-1" sketch:type="MSShapeGroup">
                <g id="niui">
                    <g id="Page-1">
                        <path d="M0.16308594,12.2 L0.16308594,36 C0.16308594,36.5 0.3,36.9 0.6,37.2 C0.88086081,37.5 1.2,37.6 1.6,37.6 C2.02929879,37.6 2.4,37.4 2.7,37.2 C2.9703792,36.9 3.1,36.4 3.1,35.9 L3.12988281,18.9 C4.24642485,16.9 5.6,15.3 7.1,14.4 C8.489265,13.4 10.1,12.9 11.9,12.9 C13.5934328,12.9 14.9,13.4 15.9,14.4 C16.7994836,15.3 17.2,16.5 17.2,17.8 L17.2460938,36 C17.2460938,36.5 17.4,36.9 17.7,37.2 C17.9638686,37.4 18.3,37.6 18.7,37.6 C19.1123066,37.6 19.4,37.4 19.7,37.2 C20.053387,36.9 20.2,36.5 20.2,36 L20.2128906,17.8 C20.2128906,15.8 19.5,14 18.1,12.6 C16.5761642,11.1 14.5,10.3 11.9,10.3 C9.9247946,10.3 8.2,10.7 6.7,11.6 C5.23534438,12.4 4.1,13.6 3.1,15.2 L3.12988281,12.2 C3.12988281,11.7 3,11.3 2.7,11.1 C2.36425638,10.8 2,10.7 1.6,10.7 C1.23176876,10.7 0.9,10.8 0.6,11.1 C0.30663919,11.3 0.2,11.7 0.2,12.2 L0.16308594,12.2 Z M38.2529297,10.3 C35.5732288,10.3 33.4,10.9 31.8,12.1 C30.1341063,13.3 29.1,15.2 28.7,17.6 C28.6347651,18.1 28.7,18.5 29,18.8 C29.2727877,19 29.6,19.2 30,19.2 C30.389325,19.3 30.7,19.2 31,18.9 C31.378257,18.7 31.6,18.4 31.6,18 C31.8089201,16.4 32.4,15.2 33.3,14.4 C34.4088596,13.4 36,12.9 38.2,12.9 C40.4381622,12.9 42.1,13.3 43.2,14.2 C44.2822318,15 44.8,16.1 44.8,17.7 C44.8085938,19.1 44.3,20 43.4,20.5 C42.3841096,21.1 40.2,21.6 36.8,22.1 C32.9094859,22.5 30.2,23.6 28.8,25.3 C27.7893831,26.4 27.3,28 27.3,30.1 C27.2949219,32.5 28,34.3 29.4,35.6 C30.9156974,36.9 33.1,37.6 36,37.6 C38.061534,37.6 39.9,37.2 41.6,36.5 C42.8147847,35.9 43.9,35.2 44.9,34.3 C44.8564453,35.2 45.1,35.9 45.7,36.4 C46.4195999,36.8 47.7,37 49.5,37 C49.9446637,37 50.3,36.9 50.6,36.6 C50.7740897,36.3 50.9,36 50.9,35.7 C50.853841,35.3 50.7,35 50.5,34.7 C50.2477201,34.5 49.9,34.4 49.5,34.4 C48.9716768,34.4 48.5,34.2 48.2,33.9 C47.9189439,33.6 47.8,33.2 47.8,32.6 L47.7753906,17.5 C47.7753906,14.9 46.9,13.1 45,11.9 C43.3730387,10.8 41.1,10.3 38.3,10.3 L38.2529297,10.3 Z M44.8085938,30.6 C44.0748661,31.9 43,32.9 41.6,33.6 C40.0393802,34.5 38.2,34.9 36,34.9 C34.0100814,34.9 32.6,34.5 31.6,33.6 C30.7561804,32.9 30.3,31.7 30.3,30.1 C30.3095703,28.5 30.8,27.3 31.7,26.5 C32.7340544,25.6 34.4,25 36.8,24.6 C39.2099729,24.3 41.1,24 42.5,23.5 C43.5804092,23.2 44.4,22.8 44.8,22.4 L44.8085938,30.6 L44.8085938,30.6 Z M57.4414062,4.4 L57.4414062,11.1 L54.8574219,11.1 C54.1236942,11.1 53.8,11.5 53.8,12.4 C53.7568359,13.3 54.1,13.7 54.9,13.7 L57.4414062,13.7 L57.4414062,32.9 C57.4414062,34.2 57.8,35.2 58.6,36.1 C59.419275,37.1 60.6,37.6 62,37.6 L64.2841797,37.6 C64.7307965,37.6 65.1,37.4 65.4,37.1 C65.6399752,36.9 65.8,36.6 65.8,36.2 C65.7675781,35.8 65.6,35.5 65.4,35.3 C65.0976548,35 64.7,34.9 64.3,34.9 L62.5615234,34.9 C61.859697,34.9 61.3,34.6 60.9,34.2 C60.6155583,33.8 60.5,33.3 60.5,32.7 L60.4560547,13.7 L64.3798828,13.7 C65.209314,13.7 65.6,13.3 65.6,12.4 C65.6240234,11.5 65.2,11.1 64.4,11.1 L60.4560547,11.1 L60.4560547,4.4 C60.4560547,4 60.3,3.6 60,3.3 C59.6904283,3.1 59.3,3 58.9,3 C58.5100891,3 58.2,3.1 57.9,3.3 C57.5849595,3.6 57.4,4 57.4,4.4 L57.4414062,4.4 Z M71.9404297,2.3 L71.9404297,24.5 C71.9404297,28.1 73,31.1 75,33.4 C77.2998162,36.2 80.6,37.6 84.8,37.6 C89.0234586,37.6 92.3,36.2 94.6,33.4 C96.615896,31.1 97.6,28.1 97.6,24.5 L97.636719,2.1 C97.636719,1.7 97.5,1.3 97.2,1.1 C96.871092,0.8 96.5,0.7 96.2,0.7 C95.7386047,0.7 95.4,0.8 95.1,1 C94.8134751,1.3 94.7,1.6 94.7,2 L94.6699219,24.5 C94.6699219,27.4 93.9,29.8 92.4,31.6 C90.6184808,33.8 88.1,34.9 84.8,34.9 C81.5266763,34.9 79,33.8 77.2,31.6 C75.6728439,29.7 74.9,27.4 74.9,24.5 L74.9072266,2.3 C74.9072266,1.8 74.7,1.4 74.4,1.1 C74.1416001,0.9 73.8,0.8 73.4,0.8 C73.0091125,0.8 72.7,0.9 72.4,1.1 C72.0839829,1.4 71.9,1.8 71.9,2.3 L71.9404297,2.3 Z M107.350586,2.3 L107.350586,36 C107.350586,36.5 107.5,36.9 107.8,37.2 C108.068361,37.4 108.4,37.6 108.8,37.6 C109.216799,37.6 109.6,37.4 109.8,37.2 C110.157879,36.9 110.3,36.5 110.3,36 L110.317383,2.3 C110.317383,1.8 110.2,1.4 109.8,1.1 C109.551756,0.8 109.2,0.7 108.8,0.7 C108.419269,0.7 108.1,0.8 107.8,1.1 C107.494139,1.4 107.4,1.8 107.4,2.3 L107.350586,2.3 Z M125.199219,36 C125.48633,37 126.1,37.6 127,37.6 C127.910812,37.6 128.5,37 128.9,36 L137.78418,12.1 C137.911784,11.7 137.8,11.3 137.6,11 C137.401366,10.7 137.1,10.5 136.7,10.4 C136.268878,10.3 135.9,10.3 135.5,10.4 C135.152342,10.5 134.9,10.8 134.8,11.2 L127.06543,32.9 L119.361328,11.2 C119.201822,10.8 118.9,10.5 118.5,10.4 C118.196938,10.3 117.8,10.3 117.4,10.4 C117.0166,10.5 116.7,10.7 116.5,11 C116.266926,11.3 116.2,11.7 116.3,12.1 L125.199219,36 L125.199219,36 Z M161.087891,29.5 C160.322262,31.1 159.4,32.4 158.5,33.2 C157.180007,34.3 155.6,34.9 153.7,34.9 C151.246407,34.9 149.3,33.8 147.9,31.6 C146.636713,29.7 146,27.4 145.8,24.7 L164.628906,24.7 L164.628906,24 C164.628906,20.2 163.7,17.1 161.9,14.5 C159.811839,11.7 157.1,10.3 153.7,10.3 C150.25747,10.3 147.5,11.7 145.5,14.5 C143.717764,17.1 142.8,20.2 142.8,24 C142.808594,27.7 143.7,30.8 145.5,33.3 C147.545908,36.2 150.3,37.6 153.7,37.6 C156.09539,37.6 158.2,36.9 160,35.7 C161.741871,34.5 163.1,32.8 164,30.6 C164.198243,30.1 164.2,29.6 164,29.2 C163.84733,28.9 163.6,28.6 163.2,28.5 C162.778644,28.4 162.4,28.3 162,28.5 C161.582355,28.7 161.3,29 161.1,29.5 L161.087891,29.5 Z M145.918945,22.1 C146.110353,19.7 146.8,17.7 148,16 C149.412117,14 151.3,12.9 153.7,12.9 C156.031587,12.9 157.9,14 159.4,16.1 C160.59343,17.8 161.3,19.8 161.5,22.1 L145.918945,22.1 L145.918945,22.1 Z" id="niui"></path>
                    </g>
                </g>
            </g>
        </g>
        <path d="M185.244141,8.02539062 L194.431641,41.1865234 C194.718751,42.2711643 195.324865,42.8294269 196.25,42.8613281 C197.175135,42.8613281 197.8291,42.3030655 198.211914,41.1865234 L206.011719,11.2792969 L213.859375,41.1386719 C214.146486,42.2871151 214.7526,42.8613281 215.677734,42.8613281 C216.63477,42.8613281 217.256835,42.2871151 217.543945,41.1386719 L226.731445,8.02539062 C226.827149,7.51497141 226.763347,7.06836129 226.540039,6.68554688 C226.316731,6.36653486 225.997723,6.15918017 225.583008,6.06347656 C225.168292,5.96777296 224.801434,6.01562404 224.482422,6.20703125 C224.067706,6.43033966 223.8125,6.79719797 223.716797,7.30761719 L215.582031,36.2578125 L208.165039,7.59472656 C207.877928,6.54198692 207.144212,6.015625 205.963867,6.015625 C204.815424,6.015625 204.097658,6.54198692 203.810547,7.59472656 L196.393555,36.2578125 L188.163086,7.1640625 C188.035481,6.71744568 187.796226,6.39843846 187.445312,6.20703125 C187.094399,6.01562404 186.727541,5.96777296 186.344727,6.06347656 C185.930011,6.12727896 185.611004,6.3186833 185.387695,6.63769531 C185.164387,7.02050973 185.116536,7.48307021 185.244141,8.02539062 L185.244141,8.02539062 Z M242.618164,15.6816406 C238.821921,15.6816406 235.855154,17.0852724 233.717773,19.8925781 C231.835603,22.3808718 230.894531,25.523093 230.894531,29.3193359 C230.894531,33.0836777 231.835603,36.2099485 233.717773,38.6982422 C235.855154,41.5374491 238.821921,42.9570312 242.618164,42.9570312 C246.382506,42.9570312 249.333323,41.5374491 251.470703,38.6982422 C253.384775,36.2099485 254.341797,33.0836777 254.341797,29.3193359 C254.341797,25.523093 253.384775,22.3808718 251.470703,19.8925781 C249.333323,17.0852724 246.382506,15.6816406 242.618164,15.6816406 L242.618164,15.6816406 Z M242.618164,18.3134766 C245.42547,18.3134766 247.610669,19.4459522 249.173828,21.7109375 C250.609382,23.7207132 251.327148,26.2568206 251.327148,29.3193359 C251.327148,32.3180488 250.609382,34.8382059 249.173828,36.8798828 C247.610669,39.1448681 245.42547,40.2773438 242.618164,40.2773438 C239.778957,40.2773438 237.561857,39.1448681 235.966797,36.8798828 C234.595045,34.8701071 233.90918,32.34995 233.90918,29.3193359 C233.90918,26.2568206 234.595045,23.7207132 235.966797,21.7109375 C237.561857,19.4459522 239.778957,18.3134766 242.618164,18.3134766 L242.618164,18.3134766 Z M261.663086,17.3085938 L261.663086,41.2822266 C261.663086,41.7607446 261.806639,42.1435533 262.09375,42.4306641 C262.380861,42.6858737 262.731769,42.8134766 263.146484,42.8134766 C263.529299,42.8134766 263.864256,42.6858737 264.151367,42.4306641 C264.470379,42.1435533 264.629883,41.7607446 264.629883,41.2822266 L264.629883,22.6201172 C265.204104,21.3759703 266.033523,20.4029983 267.118164,19.7011719 C268.33041,18.9036418 269.718091,18.5048828 271.28125,18.5048828 C272.07878,18.5048828 272.461589,18.0104216 272.429688,17.0214844 C272.397786,16.0644483 272.030928,15.5859375 271.329102,15.5859375 C269.797844,15.5859375 268.426113,15.9687462 267.213867,16.734375 C266.288732,17.3085966 265.427413,18.1539658 264.629883,19.2705078 L264.629883,17.3085938 C264.629883,16.8619769 264.470379,16.511069 264.151367,16.2558594 C263.864256,16.0644522 263.529299,15.96875 263.146484,15.96875 C262.731769,15.96875 262.380861,16.0804025 262.09375,16.3037109 C261.806639,16.5589205 261.663086,16.8938781 261.663086,17.3085938 L261.663086,17.3085938 Z M299.417969,7.69042969 C299.417969,7.18001047 299.258465,6.78125144 298.939453,6.49414063 C298.652342,6.23893102 298.317385,6.11132813 297.93457,6.11132813 C297.519855,6.11132813 297.168947,6.22298065 296.881836,6.44628906 C296.594725,6.73339987 296.451172,7.11620854 296.451172,7.59472656 L296.451172,20.0361328 C295.462235,18.5367764 294.281908,17.4362014 292.910156,16.734375 C291.570306,16.0325486 289.99122,15.6816406 288.172852,15.6816406 C284.504213,15.6816406 281.649099,17.0852724 279.607422,19.8925781 C277.789053,22.3808718 276.879883,25.523093 276.879883,29.3193359 C276.879883,33.0836777 277.789053,36.2099485 279.607422,38.6982422 C281.649099,41.5374491 284.504213,42.9570312 288.172852,42.9570312 C290.086924,42.9570312 291.825513,42.5263715 293.388672,41.6650391 C294.728522,40.8994102 295.749345,39.9583389 296.451172,38.8417969 L296.451172,40.8994141 C296.451172,41.3460309 296.594725,41.7128892 296.881836,42 C297.168947,42.2552096 297.503904,42.3987629 297.886719,42.4306641 C298.301434,42.4306641 298.636392,42.3190115 298.891602,42.0957031 C299.210614,41.8085923 299.386068,41.4098333 299.417969,40.8994141 L299.417969,7.69042969 Z M288.172852,18.3134766 C290.852552,18.3134766 292.94205,19.4459522 294.441406,21.7109375 C295.781257,23.7207132 296.451172,26.2568206 296.451172,29.3193359 C296.451172,32.34995 295.781257,34.8701071 294.441406,36.8798828 C292.94205,39.1448681 290.852552,40.2773438 288.172852,40.2773438 C285.461249,40.2773438 283.355802,39.1448681 281.856445,36.8798828 C280.548496,34.8701071 279.894531,32.34995 279.894531,29.3193359 C279.894531,26.2568206 280.548496,23.7207132 281.856445,21.7109375 C283.355802,19.4459522 285.461249,18.3134766 288.172852,18.3134766 L288.172852,18.3134766 Z M322.147461,6.82910156 L312.625,6.82910156 C311.157545,6.82910156 310.009119,7.3076124 309.179688,8.26464844 C308.44596,9.12598087 308.079102,10.1946551 308.079102,11.4707031 L308.079102,41.3300781 C308.079102,41.8085961 308.222655,42.1914048 308.509766,42.4785156 C308.796876,42.7337252 309.147784,42.8613281 309.5625,42.8613281 C309.945314,42.8613281 310.280272,42.7337252 310.567383,42.4785156 C310.886395,42.1914048 311.045898,41.8085961 311.045898,41.3300781 L311.045898,26.5917969 L322.147461,26.5917969 C325.241877,26.5917969 327.698233,25.5550234 329.516602,23.4814453 C331.175464,21.6311756 332.004883,19.3821747 332.004883,16.734375 C332.004883,14.0227729 331.175464,11.7418712 329.516602,9.89160156 C327.698233,7.84992469 325.241877,6.82910156 322.147461,6.82910156 L322.147461,6.82910156 Z M321.764648,23.9599609 L311.045898,23.9599609 L311.045898,11.6621094 C311.045898,11.0559866 311.205402,10.5615254 311.524414,10.1787109 C311.907228,9.73209412 312.449541,9.50878906 313.151367,9.50878906 L321.764648,9.50878906 C324.029634,9.50878906 325.832025,10.258456 327.171875,11.7578125 C328.384121,13.1295642 328.990234,14.8043521 328.990234,16.7822266 C328.990234,18.6962986 328.384121,20.3391858 327.171875,21.7109375 C325.832025,23.210294 324.029634,23.9599609 321.764648,23.9599609 L321.764648,23.9599609 Z M338.847656,17.3085938 L338.847656,41.2822266 C338.847656,41.7607446 338.99121,42.1435533 339.27832,42.4306641 C339.565431,42.6858737 339.916339,42.8134766 340.331055,42.8134766 C340.713869,42.8134766 341.048827,42.6858737 341.335938,42.4306641 C341.65495,42.1435533 341.814453,41.7607446 341.814453,41.2822266 L341.814453,22.6201172 C342.388675,21.3759703 343.218094,20.4029983 344.302734,19.7011719 C345.51498,18.9036418 346.902661,18.5048828 348.46582,18.5048828 C349.26335,18.5048828 349.646159,18.0104216 349.614258,17.0214844 C349.582357,16.0644483 349.215498,15.5859375 348.513672,15.5859375 C346.982414,15.5859375 345.610683,15.9687462 344.398438,16.734375 C343.473303,17.3085966 342.611983,18.1539658 341.814453,19.2705078 L341.814453,17.3085938 C341.814453,16.8619769 341.65495,16.511069 341.335938,16.2558594 C341.048827,16.0644522 340.713869,15.96875 340.331055,15.96875 C339.916339,15.96875 339.565431,16.0804025 339.27832,16.3037109 C338.99121,16.5589205 338.847656,16.8938781 338.847656,17.3085938 L338.847656,17.3085938 Z M372.200195,34.7744141 C371.434566,36.4332765 370.557297,37.6774047 369.568359,38.5068359 C368.292311,39.623378 366.697275,40.1816406 364.783203,40.1816406 C362.358712,40.1816406 360.428718,39.0810657 358.993164,36.8798828 C357.749017,35.0296131 357.063152,32.7487115 356.935547,30.0371094 L375.741211,30.0371094 L375.741211,29.2714844 C375.741211,25.5390438 374.81609,22.3808723 372.96582,19.796875 C370.924143,16.9895693 368.196632,15.5859375 364.783203,15.5859375 C361.369775,15.5859375 358.658213,16.9895693 356.648438,19.796875 C354.830069,22.3808723 353.920898,25.5390438 353.920898,29.2714844 C353.920898,32.9720237 354.830069,36.0982945 356.648438,38.6503906 C358.658213,41.4576963 361.369775,42.8613281 364.783203,42.8613281 C367.207694,42.8613281 369.313142,42.239264 371.099609,40.9951172 C372.854175,39.8147727 374.194006,38.1080841 375.119141,35.875 C375.310548,35.396482 375.310548,34.9498719 375.119141,34.5351562 C374.959635,34.184243 374.688478,33.9449876 374.305664,33.8173828 C373.890948,33.6578768 373.492189,33.6419264 373.109375,33.7695312 C372.694659,33.9609385 372.391603,34.295896 372.200195,34.7744141 L372.200195,34.7744141 Z M357.03125,27.3574219 C357.222657,25.0286342 357.908523,23.0188887 359.088867,21.328125 C360.524421,19.2545469 362.422514,18.2177734 364.783203,18.2177734 C367.143892,18.2177734 369.057935,19.2704973 370.525391,21.3759766 C371.705735,23.0986414 372.391601,25.0924366 372.583008,27.3574219 L357.03125,27.3574219 Z M391.005859,15.5859375 C388.421862,15.5859375 386.332365,16.1601505 384.737305,17.3085938 C383.046541,18.5208394 382.201172,20.1956273 382.201172,22.3330078 C382.201172,24.3108823 382.902988,25.8899681 384.306641,27.0703125 C385.582689,28.1868545 387.640285,29.1119755 390.479492,29.8457031 C393.60581,30.611332 395.743158,31.4567011 396.891602,32.3818359 C397.848638,33.1155636 398.327148,34.1363867 398.327148,35.4443359 C398.327148,36.8479888 397.768886,37.9645141 396.652344,38.7939453 C395.471999,39.7190801 393.845062,40.1816406 391.771484,40.1816406 C389.283191,40.1816406 387.4808,39.7190801 386.364258,38.7939453 C385.311518,37.9326129 384.785156,36.6725343 384.785156,35.0136719 C384.753255,34.5670551 384.577801,34.2320975 384.258789,34.0087891 C383.971678,33.7854807 383.62077,33.6897785 383.206055,33.7216797 C382.791339,33.7216797 382.456381,33.8492826 382.201172,34.1044922 C381.88216,34.391603 381.738607,34.7584613 381.770508,35.2050781 C381.866211,37.6933718 382.759432,39.5914648 384.450195,40.8994141 C386.140959,42.2073633 388.565414,42.8613281 391.723633,42.8613281 C394.881852,42.8613281 397.306307,42.1276115 398.99707,40.6601562 C400.560229,39.352207 401.341797,37.629568 401.341797,35.4921875 C401.341797,33.354807 400.687832,31.6800191 399.379883,30.4677734 C398.008131,29.1598242 395.647478,28.1230507 392.297852,27.3574219 C389.554348,26.6555954 387.672206,25.9059285 386.651367,25.1083984 C385.694331,24.3427696 385.21582,23.3059961 385.21582,21.9980469 C385.21582,20.8815048 385.758133,19.9563839 386.842773,19.2226562 C387.927414,18.552731 389.283195,18.2177734 390.910156,18.2177734 C393.047537,18.2177734 394.658523,18.6165325 395.743164,19.4140625 C396.764003,20.1477901 397.338216,21.2164643 397.46582,22.6201172 C397.497722,23.066734 397.689126,23.417642 398.040039,23.6728516 C398.359051,23.89616 398.725909,23.9918621 399.140625,23.9599609 C399.587242,23.8961585 399.9541,23.7366549 400.241211,23.4814453 C400.560223,23.1624333 400.703776,22.7796246 400.671875,22.3330078 C400.512369,20.3870345 399.730801,18.8238991 398.327148,17.6435547 C396.668286,16.271803 394.227881,15.5859375 391.005859,15.5859375 L391.005859,15.5859375 Z M416.75,15.5859375 C414.166003,15.5859375 412.076505,16.1601505 410.481445,17.3085938 C408.790682,18.5208394 407.945312,20.1956273 407.945312,22.3330078 C407.945312,24.3108823 408.647128,25.8899681 410.050781,27.0703125 C411.326829,28.1868545 413.384426,29.1119755 416.223633,29.8457031 C419.349951,30.611332 421.487299,31.4567011 422.635742,32.3818359 C423.592778,33.1155636 424.071289,34.1363867 424.071289,35.4443359 C424.071289,36.8479888 423.513026,37.9645141 422.396484,38.7939453 C421.21614,39.7190801 419.589203,40.1816406 417.515625,40.1816406 C415.027331,40.1816406 413.22494,39.7190801 412.108398,38.7939453 C411.055659,37.9326129 410.529297,36.6725343 410.529297,35.0136719 C410.497396,34.5670551 410.321942,34.2320975 410.00293,34.0087891 C409.715819,33.7854807 409.364911,33.6897785 408.950195,33.7216797 C408.53548,33.7216797 408.200522,33.8492826 407.945312,34.1044922 C407.6263,34.391603 407.482747,34.7584613 407.514648,35.2050781 C407.610352,37.6933718 408.503572,39.5914648 410.194336,40.8994141 C411.8851,42.2073633 414.309555,42.8613281 417.467773,42.8613281 C420.625992,42.8613281 423.050447,42.1276115 424.741211,40.6601562 C426.30437,39.352207 427.085938,37.629568 427.085938,35.4921875 C427.085938,33.354807 426.431973,31.6800191 425.124023,30.4677734 C423.752272,29.1598242 421.391618,28.1230507 418.041992,27.3574219 C415.298489,26.6555954 413.416346,25.9059285 412.395508,25.1083984 C411.438472,24.3427696 410.959961,23.3059961 410.959961,21.9980469 C410.959961,20.8815048 411.502273,19.9563839 412.586914,19.2226562 C413.671555,18.552731 415.027336,18.2177734 416.654297,18.2177734 C418.791677,18.2177734 420.402664,18.6165325 421.487305,19.4140625 C422.508143,20.1477901 423.082356,21.2164643 423.209961,22.6201172 C423.241862,23.066734 423.433266,23.417642 423.78418,23.6728516 C424.103192,23.89616 424.47005,23.9918621 424.884766,23.9599609 C425.331382,23.8961585 425.698241,23.7366549 425.985352,23.4814453 C426.304364,23.1624333 426.447917,22.7796246 426.416016,22.3330078 C426.25651,20.3870345 425.474942,18.8238991 424.071289,17.6435547 C422.412427,16.271803 419.972021,15.5859375 416.75,15.5859375 L416.75,15.5859375 Z" id="WordPress" fill="#ffffff" sketch:type="MSShapeGroup"></path>
    </g>
</svg>