<?xml version="1.0" encoding="UTF-8"?>
<svg width="332px" height="72px" viewBox="0 0 332 72" version="1.1" xmlns="http://www.w3.org/2000/svg" xmlns:xlink="http://www.w3.org/1999/xlink">
    <!-- Generator: Sketch 43.2 (39069) - http://www.bohemiancoding.com/sketch -->
    <title>Untitled</title>
    <desc>Created with Sketch.</desc>
    <defs></defs>
    <g id="Page-1" stroke="none" stroke-width="1" fill="none" fill-rule="evenodd">
        <g id="loco2" fill-rule="nonzero" fill="#026B80">
            <path d="M36.08,0 C16.15,0 0,16.11 0,36 C0.01,37.75 0.39,40.91 0.39,40.91 C17.15,36.03 25.73,33.56 38.99,29.8 C52.04,39.11 52.98,42.08 62.32,40.58 C58.21,31.68 53.32,26.43 48.67,25.09 C47.51,24.76 46.33,24.64 45.21,24.64 C41.86,24.66 39.08,25.83 39.08,25.83 L2.27,39.12 C2.16,38.08 2.1,37.04 2.1,36 C2.09,17.27 17.31,2.09 36.08,2.09 C54.84,2.09 70.06,17.27 70.06,36 C70.06,54.72 54.84,69.9 36.08,69.9 C20.87,69.9 7.52,59.82 3.39,45.22 C10.75,45.93 43.97,49.08 50.24,48.5 C57.82,47.8 62.61,45.71 62.61,43.42 C60.45,44.01 56.46,44.46 51.81,42.75 C47.16,41.03 38.39,33.17 38.39,33.17 L5.76,41.1 L38.01,40.06 L40.33,42.9 C27.73,42.9 12.29,42.96 0.66,42.96 C3.64,60.22 18.53,71.98 36.08,72 C56,72 72.16,55.88 72.16,36 C72.16,16.11 56,0 36.08,0 Z M163.32,11.09 C148.7,11.09 138.94,22.88 138.94,36.04 L138.94,36.18 C138.94,49.35 148.54,60.99 163.18,60.99 C177.82,60.99 187.56,49.21 187.56,36.04 C187.63,35.98 187.63,35.98 187.56,35.91 C187.56,22.77 177.94,11.1 163.32,11.1 L163.32,11.09 Z M269.3,11.09 C254.63,11.09 244.92,22.87 244.92,36.04 L244.92,36.18 C244.92,49.34 254.52,60.99 269.16,60.99 C283.8,60.99 293.54,49.21 293.54,36.04 C293.61,35.98 293.61,35.98 293.54,35.91 C293.54,22.77 283.97,11.1 269.3,11.1 L269.3,11.09 Z M220.51,11.11 C206.51,11.11 196.34,22.41 196.34,36.06 L196.34,36.19 C196.33,50 206.55,60.98 220.36,60.98 C228.92,60.98 234.45,57.61 239.56,52.57 L237.14,50.23 C232.24,55.05 227.47,57.74 220.5,57.74 C208.96,57.75 200.06,48.25 200.06,36.04 L200.06,35.93 C200.06,23.81 208.83,14.36 220.43,14.36 C227.68,14.36 232.52,17.35 236.73,21.45 L239.29,18.84 C234.29,14.29 229.14,11.13 220.51,11.13 L220.51,11.11 Z M317.14,11.23 C308.65,11.23 304.14,15.16 299.94,21.56 L302.63,23.35 C306.63,17.57 310.63,14.37 316.79,14.37 C322.59,14.37 327.7,18.43 327.7,24.7 C327.7,29.8 324.94,33.93 317,41.17 L299,57.43 L299,60.11 L298.99,60.12 L332,60.12 L332,56.67 L304.65,56.67 L319.43,43.3 C327.92,35.59 331.52,31.18 331.52,24.56 L331.52,24.43 C331.52,16.92 325.37,11.2 317.16,11.2 L317.14,11.23 Z M103.79,11.94 L103.79,60.14 L135.78,60.14 L135.78,56.85 L107.38,56.85 L107.38,11.94 L103.79,11.94 L103.79,11.94 Z M103.79,60.14 L103.78,60.14 L103.79,60.15 L103.79,60.14 Z M163.19,14.32 C175.14,14.32 183.82,24.11 183.82,36.01 L183.82,36.15 C183.82,48.07 175.26,57.72 163.31,57.72 L163.32,57.72 C151.37,57.72 142.67,47.93 142.67,36.02 L142.67,35.91 C142.67,23.99 151.23,14.34 163.18,14.34 L163.19,14.32 Z M269.16,14.32 C281.11,14.32 289.8,24.11 289.8,36.01 L289.8,36.15 C289.8,48.07 281.24,57.72 269.29,57.72 L269.3,57.72 C257.35,57.72 248.65,47.93 248.65,36.02 L248.65,35.88 C248.65,23.96 257.21,14.31 269.16,14.31 L269.16,14.32 Z" id="Shape"></path>
        </g>
    </g>
</svg>