<svg xmlns="http://www.w3.org/2000/svg" viewBox="0 0 332 72" id="logo">
  <path d="M36.08 0C16.15 0 0 16.11 0 36 0.01 37.75 0.39 40.91 0.39 40.91 17.15 36.03 25.73 33.56 38.99 29.8 52.04 39.11 52.98 42.08 62.32 40.58 58.21 31.68 53.32 26.43 48.67 25.09c-1.16-0.33-2.34-0.45-3.46-0.45-3.35 0.02-6.13 1.19-6.13 1.19L2.27 39.12C2.16 38.08 2.1 37.04 2.1 36 2.09 17.27 17.31 2.09 36.08 2.09 54.84 2.09 70.06 17.27 70.06 36 70.06 54.72 54.84 69.9 36.08 69.9 20.87 69.9 7.52 59.82 3.39 45.22c7.36 0.71 40.58 3.86 46.85 3.28 7.58-0.7 12.37-2.79 12.37-5.08-2.16 0.59-6.15 1.04-10.8-0.67-4.65-1.72-13.42-9.58-13.42-9.58l-32.63 7.93 32.25-1.04 2.32 2.84C27.73 42.9 12.29 42.96 0.66 42.96 3.64 60.22 18.53 71.98 36.08 72 56 72 72.16 55.88 72.16 36 72.16 16.11 56 0 36.08 0Zm127.24 11.09c-14.62 0-24.38 11.79-24.38 24.95l0 0.14c0 13.17 9.6 24.81 24.24 24.81 14.64 0 24.38-11.78 24.38-24.95 0.07-0.06 0.07-0.06 0-0.13 0-13.14-9.62-24.81-24.24-24.81zm105.98 0c-14.67 0-24.38 11.78-24.38 24.95l0 0.14c0 13.16 9.6 24.81 24.24 24.81 14.64 0 24.38-11.78 24.38-24.95 0.07-0.06 0.07-0.06 0-0.13 0-13.14-9.57-24.81-24.24-24.81zm-48.79 0.02c-14 0-24.17 11.3-24.17 24.95l0 0.13c-0.01 13.81 10.21 24.79 24.02 24.79 8.56 0 14.09-3.37 19.2-8.41l-2.42-2.34c-4.9 4.82-9.67 7.51-16.64 7.51-11.54 0.01-20.44-9.49-20.44-21.7l0-0.11c0-12.12 8.77-21.57 20.37-21.57 7.25 0 12.09 2.99 16.3 7.09l2.56-2.61c-5-4.55-10.15-7.71-18.78-7.71zm96.63 0.12c-8.49 0-13 3.93-17.2 10.33l2.69 1.79c4-5.78 8-8.98 14.16-8.98 5.8 0 10.91 4.06 10.91 10.33 0 5.1-2.76 9.23-10.7 16.47l-18 16.26 0 2.68-0.01 0.01 33.01 0 0-3.45-27.35 0 14.78-13.37c8.49-7.71 12.09-12.12 12.09-18.74l0-0.13c0-7.51-6.15-13.23-14.36-13.23zm-213.35 0.71 0 48.2 31.99 0 0-3.29-28.4 0 0-44.91-3.59 0zm0 48.2-0.01 0 0.01 0.01 0-0.01zm59.4-45.82c11.95 0 20.63 9.79 20.63 21.69l0 0.14c0 11.92-8.56 21.57-20.51 21.57l0.01 0c-11.95 0-20.65-9.79-20.65-21.7l0-0.11c0-11.92 8.56-21.57 20.51-21.57zm105.97 0c11.95 0 20.64 9.79 20.64 21.69l0 0.14c0 11.92-8.56 21.57-20.51 21.57l0.01 0c-11.95 0-20.65-9.79-20.65-21.7l0-0.14c0-11.92 8.56-21.57 20.51-21.57z"></path>
</svg>