<?xml version="1.0" encoding="utf-8"?>
<!-- Generator: Adobe Illustrator 21.0.0, SVG Export Plug-In . SVG Version: 6.00 Build 0)  -->
<svg version="1.1" id="Layer_1" xmlns="http://www.w3.org/2000/svg" xmlns:xlink="http://www.w3.org/1999/xlink" x="0px" y="0px"
	 viewBox="0 0 442.7 107.7" style="enable-background:new 0 0 442.7 107.7;" xml:space="preserve">
<style type="text/css">
	.st0{clip-path:url(#XMLID_11_);}
	.st1{clip-path:url(#XMLID_17_);}
	.st2{clip-path:url(#XMLID_18_);}
	.st3{fill:#253B80;}
	.st4{fill:#179BD7;}
	.st5{fill:#222D65;}
	.st6{clip-path:url(#XMLID_22_);}
	.st7{clip-path:url(#XMLID_23_);}
</style>
<g id="XMLID_4_">
	<g id="XMLID_87_">
		<g id="XMLID_88_">
			<defs>
				<rect id="XMLID_52_" width="442.7" height="117.8"/>
			</defs>
			<clipPath id="XMLID_9_">
				<use xlink:href="#XMLID_52_"  style="overflow:visible;"/>
			</clipPath>
		</g>
	</g>
	<g id="XMLID_82_">
		<g id="XMLID_83_">
			<defs>
				<rect id="XMLID_50_" width="442.7" height="117.8"/>
			</defs>
			<clipPath id="XMLID_11_">
				<use xlink:href="#XMLID_50_"  style="overflow:visible;"/>
			</clipPath>
			<g id="XMLID_85_" class="st0">
				<defs>
					<rect id="XMLID_51_" width="442.7" height="117.8"/>
				</defs>
				<clipPath id="XMLID_16_">
					<use xlink:href="#XMLID_51_"  style="overflow:visible;"/>
				</clipPath>
			</g>
		</g>
	</g>
	<g id="XMLID_75_">
		<g id="XMLID_76_">
			<defs>
				<rect id="XMLID_47_" width="442.7" height="117.8"/>
			</defs>
			<clipPath id="XMLID_17_">
				<use xlink:href="#XMLID_47_"  style="overflow:visible;"/>
			</clipPath>
			<g id="XMLID_78_" class="st1">
				<defs>
					<rect id="XMLID_48_" width="442.7" height="117.8"/>
				</defs>
				<clipPath id="XMLID_18_">
					<use xlink:href="#XMLID_48_"  style="overflow:visible;"/>
				</clipPath>
				<g id="XMLID_80_" class="st2">
					<defs>
						<rect id="XMLID_49_" width="442.7" height="117.8"/>
					</defs>
					<clipPath id="XMLID_19_">
						<use xlink:href="#XMLID_49_"  style="overflow:visible;"/>
					</clipPath>
				</g>
			</g>
		</g>
	</g>
	<g id="XMLID_72_">
		<g id="XMLID_73_">
			<defs>
				<rect id="XMLID_46_" width="442.7" height="117.8"/>
			</defs>
			<clipPath id="XMLID_20_">
				<use xlink:href="#XMLID_46_"  style="overflow:visible;"/>
			</clipPath>
		</g>
	</g>
	<g id="XMLID_12_">
		<g id="XMLID_13_">
			<g id="XMLID_14_">
				<g id="XMLID_15_">
					<path id="XMLID_57_" class="st3" d="M167.8,47c-1.3,8.8-8,8.8-14.5,8.8h-3.7l2.6-16.4c0.2-1,1-1.7,2-1.7h1.7
						c4.4,0,8.6,0,10.7,2.5C167.9,41.7,168.3,43.9,167.8,47z M165,24.1h-24.4c-1.7,0-3.1,1.2-3.4,2.9l-9.9,62.6
						c-0.2,1.2,0.8,2.3,2,2.3H141c1.7,0,3.1-1.2,3.4-2.9l2.7-16.9c0.3-1.7,1.7-2.9,3.3-2.9h7.7c16.1,0,25.4-7.8,27.8-23.2
						c1.1-6.7,0-12-3.1-15.8C179.3,26.3,173.1,24.1,165,24.1z"/>
					<path id="XMLID_54_" class="st3" d="M221.7,69.4c-1.1,6.7-6.4,11.2-13.2,11.2c-3.4,0-6.1-1.1-7.9-3.2c-1.7-2-2.4-5-1.8-8.2
						c1.1-6.6,6.4-11.3,13.1-11.3c3.3,0,6,1.1,7.8,3.2C221.5,63.3,222.2,66.2,221.7,69.4z M238,46.7h-11.7c-1,0-1.9,0.7-2,1.7
						l-0.5,3.3l-0.8-1.2c-2.5-3.7-8.2-4.9-13.8-4.9c-12.9,0-24,9.8-26.1,23.5c-1.1,6.8,0.5,13.4,4.4,18c3.6,4.2,8.7,5.9,14.7,5.9
						c10.4,0,16.2-6.7,16.2-6.7l-0.5,3.2c-0.2,1.2,0.8,2.4,2,2.4h10.5c1.7,0,3.1-1.2,3.4-2.9l6.3-40C240.2,47.8,239.2,46.7,238,46.7
						z"/>
					<path id="XMLID_33_" class="st3" d="M300.2,46.7h-11.7c-1.1,0-2.2,0.6-2.8,1.5L269.5,72l-6.9-22.9c-0.4-1.4-1.8-2.4-3.3-2.4
						h-11.5c-1.4,0-2.4,1.4-1.9,2.7l12.9,38l-12.2,17.2c-1,1.4,0,3.2,1.7,3.2H260c1.1,0,2.2-0.5,2.8-1.5l39.1-56.4
						C302.8,48.5,301.9,46.7,300.2,46.7z"/>
					<path id="XMLID_38_" class="st4" d="M341.9,47c-1.3,8.8-8,8.8-14.5,8.8h-3.7l2.6-16.4c0.2-1,1-1.7,2-1.7h1.7
						c4.4,0,8.6,0,10.7,2.5C342,41.7,342.4,43.9,341.9,47z M339.1,24.1h-24.4c-1.7,0-3.1,1.2-3.3,2.9l-9.9,62.6
						c-0.2,1.2,0.8,2.3,2,2.3H316c1.2,0,2.2-0.8,2.3-2l2.8-17.7c0.3-1.7,1.7-2.9,3.3-2.9h7.7c16.1,0,25.4-7.8,27.8-23.2
						c1.1-6.7,0-12-3.1-15.8C353.5,26.3,347.3,24.1,339.1,24.1z"/>
					<path id="XMLID_21_" class="st4" d="M395.8,69.4c-1.1,6.7-6.4,11.2-13.2,11.2c-3.4,0-6.1-1.1-7.9-3.2c-1.7-2-2.4-5-1.8-8.2
						C374,62.6,379.4,58,386,58c3.3,0,6,1.1,7.8,3.2C395.6,63.3,396.3,66.2,395.8,69.4z M412.1,46.7h-11.7c-1,0-1.9,0.7-2,1.7
						l-0.5,3.3l-0.8-1.2c-2.5-3.7-8.2-4.9-13.8-4.9c-12.9,0-24,9.8-26.1,23.5c-1.1,6.8,0.5,13.4,4.4,18c3.6,4.2,8.7,5.9,14.7,5.9
						c10.4,0,16.2-6.7,16.2-6.7l-0.5,3.2c-0.2,1.2,0.8,2.4,2,2.4h10.5c1.7,0,3.1-1.2,3.3-2.9l6.3-40
						C414.3,47.8,413.4,46.7,412.1,46.7z"/>
					<path id="XMLID_28_" class="st4" d="M425.9,25.8l-10,63.8c-0.2,1.2,0.8,2.3,2,2.3H428c1.7,0,3.1-1.2,3.4-2.9l9.9-62.6
						c0.2-1.2-0.8-2.4-2-2.4h-11.3C426.9,24.1,426,24.8,425.9,25.8z"/>
					<path id="XMLID_27_" class="st3" d="M25.9,104.1l1.9-11.9l-4.2-0.1H3.8L17.6,4.6c0-0.3,0.2-0.5,0.4-0.7
						c0.2-0.2,0.5-0.3,0.7-0.3h33.5C63.3,3.7,71,6,75,10.5c1.9,2.1,3.1,4.4,3.7,6.8c0.6,2.6,0.6,5.7,0,9.4l0,0.3v2.4l1.9,1.1
						c1.6,0.8,2.8,1.8,3.8,2.9c1.6,1.8,2.6,4.2,3.1,6.9c0.5,2.8,0.3,6.2-0.4,10c-0.9,4.4-2.2,8.2-4.1,11.4c-1.7,2.9-3.9,5.3-6.5,7.1
						c-2.5,1.8-5.4,3.1-8.8,4c-3.2,0.8-6.9,1.3-11,1.3H54c-1.9,0-3.7,0.7-5.1,1.9c-1.4,1.2-2.4,2.9-2.7,4.7L46,81.8l-3.3,20.9
						l-0.1,0.8c0,0.2-0.1,0.4-0.2,0.4c-0.1,0.1-0.2,0.1-0.3,0.1H25.9z"/>
					<path id="XMLID_26_" class="st4" d="M82.3,27.4c-0.1,0.6-0.2,1.3-0.3,2C77.5,52,62.4,59.8,43.1,59.8h-9.8c-2.4,0-4.3,1.7-4.7,4
						l-5,31.9l-1.4,9c-0.2,1.5,0.9,2.9,2.5,2.9H42c2.1,0,3.8-1.5,4.1-3.5l0.2-0.9l3.3-20.8l0.2-1.1c0.3-2,2.1-3.5,4.1-3.5h2.6
						c16.9,0,30.1-6.9,34-26.7c1.6-8.3,0.8-15.2-3.5-20.1C85.8,29.6,84.2,28.4,82.3,27.4z"/>
					<path id="XMLID_25_" class="st5" d="M77.7,25.5c-0.7-0.2-1.4-0.4-2.1-0.5c-0.7-0.2-1.5-0.3-2.2-0.4c-2.6-0.4-5.6-0.6-8.7-0.6
						H38.5c-0.6,0-1.3,0.1-1.8,0.4c-1.2,0.6-2.1,1.7-2.3,3.1l-5.6,35.4l-0.2,1c0.4-2.3,2.4-4,4.7-4h9.8c19.3,0,34.4-7.8,38.8-30.5
						c0.1-0.7,0.2-1.3,0.3-2c-1.1-0.6-2.3-1.1-3.6-1.5C78.3,25.7,78,25.6,77.7,25.5z"/>
					<path id="XMLID_24_" class="st3" d="M34.3,27.5c0.2-1.4,1.1-2.5,2.3-3.1c0.6-0.3,1.2-0.4,1.8-0.4h26.2c3.1,0,6,0.2,8.7,0.6
						c0.8,0.1,1.5,0.3,2.2,0.4c0.7,0.2,1.4,0.3,2.1,0.5c0.3,0.1,0.7,0.2,1,0.3c1.3,0.4,2.5,0.9,3.6,1.5c1.3-8.4,0-14.1-4.5-19.2
						c-5-5.7-14-8.1-25.5-8.1H18.7c-2.4,0-4.4,1.7-4.7,4L0,92.5c-0.3,1.7,1.1,3.3,2.8,3.3h20.7l5.2-32.9L34.3,27.5z"/>
				</g>
			</g>
		</g>
	</g>
	<g id="XMLID_5_">
		<g id="XMLID_6_">
			<defs>
				<polyline id="XMLID_1_" points="442.7,0 442.7,117.8 0,117.8 0,0 				"/>
			</defs>
			<clipPath id="XMLID_22_">
				<use xlink:href="#XMLID_1_"  style="overflow:visible;"/>
			</clipPath>
			<g id="XMLID_8_" class="st6">
				<defs>
					<polyline id="XMLID_2_" points="442.7,0 442.7,117.8 0,117.8 0,0 					"/>
				</defs>
				<clipPath id="XMLID_23_">
					<use xlink:href="#XMLID_2_"  style="overflow:visible;"/>
				</clipPath>
				<g id="XMLID_10_" class="st7">
					<defs>
						<polyline id="XMLID_3_" points="442.7,0 442.7,117.8 0,117.8 0,0 						"/>
					</defs>
					<clipPath id="XMLID_39_">
						<use xlink:href="#XMLID_3_"  style="overflow:visible;"/>
					</clipPath>
				</g>
			</g>
		</g>
	</g>
</g>
</svg>
