<svg width="211" height="375" viewBox="0 0 211 375" xmlns="http://www.w3.org/2000/svg"><g fill="none" fill-rule="evenodd"><rect fill="#FFF" width="211" height="375" rx="5"/><g fill="#DA433E"><path d="M57.25 17.26h7.06c.8 0 1.44.5 1.66 1.22h-7.5l-1.2-1.22zm3.45 3.48h3.6c.76 0 1.4-.5 1.64-1.16h-6.4l1.16 1.16zM55 15h9.3c2.22 0 4 1.8 4 4s-1.78 4-4 4h-1.36l-1.1-1.1h2.47c1.6 0 2.9-1.3 2.9-2.9 0-1.6-1.3-2.9-2.9-2.9h-8.2L55 15z"/><path d="M69.12 17.26h.84c.77 0 1.43.5 1.65 1.22h-2.2c-.04-.43-.14-.83-.28-1.22zm0 3.48h.84c.75 0 1.4-.5 1.63-1.16h-2.2c-.05.4-.14.8-.28 1.16zM67.5 15h2.18c2.2 0 4 1.8 4 4s-1.8 4-4 4h-2.2c.4-.3.76-.7 1.05-1.1h1.15c1.6 0 2.9-1.3 2.9-2.9 0-1.6-1.3-2.9-2.9-2.9h-1.15c-.3-.4-.64-.8-1.04-1.1zM81 15.2h2.94c.5 0 .97.07 1.42.23.46.15.86.38 1.22.7.35.3.63.7.84 1.2.2.46.3 1.03.3 1.67 0 .65-.1 1.22-.35 1.7-.24.47-.55.86-.94 1.18-.38.3-.8.54-1.27.7-.47.15-.93.23-1.38.23H81v-7.6zm2.32 6.38c.4 0 .8-.05 1.17-.14.36-.1.68-.25.96-.46.27-.2.5-.47.65-.8.16-.32.24-.7.24-1.18 0-.46-.07-.85-.2-1.18-.15-.33-.34-.6-.6-.8-.24-.2-.54-.36-.88-.46-.34-.1-.7-.14-1.12-.14h-1.2v5.16h.98zm7-2.55c0-.6.1-1.16.3-1.66.18-.5.46-.92.8-1.27.35-.35.77-.62 1.25-.8.48-.2 1-.3 1.58-.3.6 0 1.12.08 1.6.26.5.2.9.45 1.26.8.36.36.64.78.83 1.27.2.5.3 1.05.3 1.66 0 .58-.1 1.13-.3 1.6-.2.5-.47.92-.82 1.27-.34.35-.76.63-1.24.82-.5.2-1.02.3-1.6.3-.58 0-1.1-.1-1.6-.28-.47-.2-.9-.46-1.24-.8-.34-.36-.62-.78-.8-1.26-.2-.5-.3-1.03-.3-1.63zm1.38-.08c0 .4.07.78.2 1.13.1.34.3.64.5.9.24.24.5.44.82.58.3.14.66.2 1.05.2.38 0 .73-.06 1.05-.2.32-.14.6-.34.8-.6.24-.24.4-.54.53-.88.13-.35.2-.72.2-1.13 0-.38-.07-.74-.2-1.07-.12-.33-.3-.62-.52-.86-.22-.25-.5-.44-.8-.58-.33-.14-.68-.2-1.06-.2-.4 0-.74.06-1.05.2-.32.14-.58.33-.8.58-.23.24-.4.53-.53.86-.13.33-.2.7-.2 1.07zm9.1.08c0-.6.1-1.16.3-1.66.2-.5.47-.92.82-1.27s.76-.62 1.24-.8c.48-.2 1-.3 1.6-.3.57 0 1.1.08 1.6.26.47.2.9.45 1.24.8.36.36.63.78.83 1.27.2.5.3 1.05.3 1.66 0 .58-.1 1.13-.3 1.6-.2.5-.47.92-.83 1.27-.35.35-.77.63-1.25.82-.48.2-1.02.3-1.6.3-.58 0-1.1-.1-1.6-.28-.47-.2-.88-.46-1.23-.8-.35-.36-.62-.78-.82-1.26-.2-.5-.3-1.03-.3-1.63zm1.4-.08c0 .4.06.78.18 1.13.13.34.3.64.52.9.23.24.5.44.8.58.32.14.67.2 1.06.2.4 0 .74-.06 1.05-.2.33-.14.6-.34.82-.6.23-.24.4-.54.53-.88.12-.35.18-.72.18-1.13 0-.38-.06-.74-.18-1.07-.13-.33-.3-.62-.53-.86-.22-.25-.5-.44-.8-.58-.32-.14-.67-.2-1.06-.2-.4 0-.74.06-1.05.2-.3.14-.57.33-.8.58-.22.24-.4.53-.52.86-.12.33-.18.7-.18 1.07zm9.5-3.76h2.6c.35 0 .7.03 1.03.1.34.06.63.18.9.35.25.16.46.38.6.66.17.3.25.65.25 1.08 0 .55-.15 1-.45 1.38-.3.38-.73.6-1.28.68l1.98 3.37h-1.6L114 19.6h-.97v3.23h-1.33v-7.6zm2.36 3.22c.2 0 .38 0 .57-.03.2-.03.36-.07.52-.14.16-.06.3-.17.4-.3.1-.15.13-.34.13-.6 0-.22-.04-.4-.13-.53-.1-.14-.2-.24-.36-.3-.16-.08-.32-.12-.5-.14-.18-.03-.35-.04-.52-.04h-1.15v2.06h1.03zm6-3.23H123c.5 0 .96.07 1.42.23.45.15.86.38 1.2.7.36.3.64.7.85 1.2.2.46.32 1.03.32 1.67 0 .65-.13 1.22-.37 1.7-.25.47-.56.86-.94 1.18-.4.3-.82.54-1.3.7-.45.15-.9.23-1.36.23h-2.8v-7.6zm2.3 6.38c.43 0 .82-.05 1.2-.14.36-.1.68-.25.95-.46.3-.2.5-.47.66-.8.16-.32.24-.7.24-1.18 0-.46-.07-.85-.2-1.18-.15-.33-.35-.6-.6-.8-.25-.2-.54-.36-.88-.46-.34-.1-.72-.14-1.13-.14h-1.22v5.16h1zm9.82-6.4h1.15l3.2 7.63h-1.5l-.7-1.74h-3.23l-.68 1.75h-1.48l3.24-7.6zm1.7 4.72l-1.16-3.1-1.17 3.1h2.32zm8.87-3.07c-.14-.2-.33-.36-.56-.46-.25-.1-.5-.14-.76-.14-.15 0-.3 0-.45.05-.15.04-.28.1-.4.17-.1.08-.2.18-.28.3-.07.13-.1.28-.1.45 0 .26.1.46.26.6.18.13.4.25.66.35l.85.3c.3.08.58.2.84.38.26.16.48.38.66.65.17.28.26.64.26 1.1 0 .4-.07.76-.22 1.06-.15.3-.35.56-.6.76-.25.2-.54.35-.87.45-.33.1-.67.15-1.04.15-.46 0-.9-.08-1.34-.24-.44-.15-.8-.42-1.1-.8l1-.98c.15.25.36.44.62.58.27.14.55.2.84.2.16 0 .3 0 .47-.05.15-.03.3-.1.42-.18.12-.1.23-.2.3-.33.08-.14.12-.3.12-.47 0-.28-.1-.5-.26-.64-.17-.16-.4-.3-.65-.4l-.85-.3c-.3-.08-.6-.2-.85-.37-.26-.16-.48-.38-.66-.65-.18-.27-.27-.63-.27-1.08 0-.4.08-.73.24-1.02.15-.3.36-.53.62-.72.24-.2.54-.33.87-.42.33-.1.66-.14 1-.14.4 0 .78.06 1.15.18.37.13.7.33 1 .6l-.97 1.05zm4.1-1.64h1.33v3.03h3.5V15.2H153v7.6h-1.33v-3.35h-3.5v3.36h-1.3v-7.6z"/></g><g transform="translate(10 46)" stroke="#E78582" stroke-width="2"><circle cx="3" cy="3" r="3"/><path d="M5 5l3 3"/></g><path fill="#EFF2F6" d="M2 36h207v2H2zM2 344h207v2H2z"/><path fill="#EF4E42" d="M2 224h70v2H2z"/><path fill="#EFF2F6" d="M72 224h137v2H72zM2 284h207v2H2z"/><path fill="#F5D4A5" d="M0 61h211v59H0z"/><rect fill-opacity=".1" fill="#D3A369" x="58" y="81" width="95" height="8" rx="2"/><rect fill="#FFF" x="59" y="82" width="93" height="5" rx="1"/><rect fill="#FFF" opacity=".5" x="78" y="94" width="55" height="5" rx="1"/><path fill-opacity=".4" fill="#EFF2F6" d="M2 120h207v2H2z"/><circle fill="#FF8F73" cx="31" cy="151" r="18"/><circle fill="#E53F6D" cx="31" cy="255" r="14"/><circle fill="#B5E2E1" cx="78" cy="151" r="18"/><circle fill="#DDE657" cx="125" cy="151" r="18"/><circle fill="#FFC300" cx="172" cy="151" r="18"/><path d="M211 134.87c-5.93 2.95-10 9.06-10 16.13 0 7.07 4.07 13.18 10 16.13v-32.26z" fill="#FAC1B8"/><rect stroke-opacity=".15" stroke="#ADBACC" stroke-width="2" x="1" y="1" width="209" height="373" rx="4"/><g transform="translate(22 142)" stroke="#E54329"><path d="M1.44 5.2c2.3-1.26 4.97-2 7.8-2 2.6 0 5.06.62 7.23 1.7"/><path d="M17.8 2.44L8.87 19 .14 2.8C2.74 1.04 5.87 0 9.24 0c3.15 0 6.1.9 8.56 2.44z"/><path d="M7.28 16.04L5.8 13.32c.33-.44.86-.74 1.45-.74.97 0 1.75.78 1.75 1.73 0 .96-.77 1.72-1.72 1.74zM13.67 10.1l-1.16 2.16c-.15.05-.32.08-.5.08-.97 0-1.75-.78-1.75-1.73 0-.94.78-1.72 1.75-1.72.8 0 1.45.52 1.67 1.22z" stroke-width=".75" fill="#F9755D"/><ellipse stroke-width=".75" fill="#F9755D" cx="6.75" cy="7.16" rx="1.75" ry="1.73"/></g><g transform="translate(69 142)" stroke="#649E9D" stroke-width=".75" fill="#B5E2E1"><rect x="4.5" y="11" width="9" height="5.08" rx=".75"/><ellipse cx="12" cy="5.59" rx="5.38" ry="5.46"/><ellipse cx="12" cy="5.59" rx="3.75" ry="3.81"/><ellipse cx="12" cy="5.59" rx="2.25" ry="2.29"/><ellipse cx="4.75" cy="6.1" rx="4.25" ry="4.32"/><ellipse cx="4.75" cy="6.1" rx="3" ry="3.05"/><path d="M17.97 4.57c.02.25.03.5.03.76 0 5.05-4.03 9.15-9 9.15s-9-4.1-9-9.15c0-.25 0-.5.03-.76h17.94z"/></g><g transform="translate(116 143)"><path d="M16.58 7.73V7.5C16.58 3.36 13.18 0 9 0 4.8 0 1.42 3.36 1.42 7.5v.23" stroke="#919D16" stroke-width=".75"/><rect stroke="#919D16" stroke-width=".75" fill="#DDE657" x="1.66" y="11.02" width="14.92" height="3.98" rx="1.99"/><path d="M7.22 3.28c.33 0 .6-.26.6-.58 0-.33-.27-.6-.6-.6-.32 0-.6.27-.6.6 0 .32.28.58.6.58zm-1.9 1.4c.34 0 .6-.25.6-.58 0-.32-.26-.58-.6-.58-.32 0-.58.26-.58.58 0 .33.26.6.6.6zm2.14.95c.33 0 .6-.27.6-.6 0-.3-.27-.58-.6-.58-.33 0-.6.27-.6.6 0 .3.27.58.6.58z" fill="#919D16"/><path d="M17.3 10.3v1.18c0 .52-.44.94-.96.94H1.66c-.53 0-.95-.42-.95-.94V10.3" stroke="#919D16" stroke-width=".75" fill="#DDE657"/><path d="M0 8.9c0 .64.43 1.28 1.3 1.28.84 0 1.27-.64 1.27-1.27 0 .64.43 1.28 1.3 1.28.84 0 1.27-.64 1.27-1.27m2.57 0c0 .64.44 1.28 1.3 1.28.86 0 1.3-.64 1.3-1.27m2.56 0c0 .64.43 1.28 1.28 1.28.86 0 1.3-.64 1.3-1.27m2.56 0c0 .64-.43 1.28-1.3 1.28-.84 0-1.27-.64-1.27-1.27m-2.57 0c0 .64-.43 1.28-1.3 1.28-.85 0-1.27-.64-1.27-1.27m-2.6 0c0 .64-.4 1.28-1.27 1.28-.86 0-1.3-.64-1.3-1.27M0 8.9v-.23c0-.52.42-.94.95-.94h16.1c.53 0 .95.43.95.94v.24" stroke="#919D16" stroke-width=".75"/></g><path d="M163.22 150.95c-.07-.26.04-.63.23-.82l1.04-1.02c.18-.18.4-.55.47-.8l.38-1.4c.07-.26.35-.53.6-.6l1.43-.37c.27-.07.65-.28.84-.47l1.04-1.02c.2-.2.57-.3.84-.22l1.42.37c.26.06.7.06.96 0l1.42-.38c.27-.07.65.03.84.22l1.04 1.02c.2.2.57.4.84.47l1.42.37c.26.07.54.35.6.6l.4 1.4c.06.26.28.63.47.8l1.05 1.03c.2.2.3.56.23.82l-.38 1.4c-.08.25-.37.47-.63.47h-15.54c-.27 0-.55-.22-.63-.48l-.38-1.4z" stroke="#B76B00" stroke-width=".75"/><path d="M180.12 155.37c.1-.53.17-1.07.17-1.63 0-4.48-3.72-8.12-8.3-8.12s-8.3 3.64-8.3 8.12c0 .56.07 1.1.18 1.63h16.24z" stroke="#B76B00" stroke-width=".75" fill="#FFC300"/><path d="M170.82 148.87c.26 0 .47-.2.47-.46 0-.25-.22-.46-.48-.46-.27 0-.48.2-.48.47 0 .26.2.47.48.47zm2.84.23c.26 0 .47-.2.47-.46s-.2-.46-.47-.46c-.26 0-.48.2-.48.46s.22.46.48.46zm.23 2.56c.26 0 .47-.2.47-.47 0-.26-.2-.47-.48-.47-.27 0-.48.2-.48.46 0 .25.2.46.47.46zm2.6-1.16c.26 0 .47-.2.47-.47 0-.25-.2-.46-.47-.46-.26 0-.47.2-.47.46s.2.47.47.47zm.95 2.78c.26 0 .47-.2.47-.46s-.2-.47-.47-.47c-.26 0-.48.2-.48.47 0 .25.22.46.48.46zm-2.6.23c.25 0 .47-.2.47-.45 0-.26-.22-.47-.48-.47s-.47.2-.47.47c0 .25.2.46.47.46zm-3.32-.22c.26 0 .47-.2.47-.46s-.2-.47-.47-.47c-.27 0-.48.2-.48.47 0 .25.2.46.48.46zm-2.14-1.16c.26 0 .47-.2.47-.46s-.2-.47-.48-.47c-.27 0-.48.2-.48.46 0 .25.2.46.47.46zm-2.14-1.4c.26 0 .48-.2.48-.46 0-.25-.22-.46-.48-.46s-.47.2-.47.46.2.47.46.47zm-.94 2.56c.26 0 .47-.2.47-.46s-.22-.47-.48-.47c-.27 0-.48.2-.48.47 0 .25.2.46.48.46z" fill="#FF9800"/><g transform="translate(34 354)" stroke="#EF4E42" stroke-width=".75"><path d="M1.22 3.88v6.75c0 .13.12.24.25.24h8.06c.14 0 .25-.1.25-.24v-7"/><path d="M.12 4.5L5.62.12l5.26 4.25"/><rect fill="#FFE4DC" x="4.16" y="5.75" width="2.93" height="5" rx=".25"/></g><g transform="translate(78 354)"><rect stroke="#B7B1B1" stroke-width=".75" y="1" width="10" height="10" rx=".25"/><path fill="#B7B1B1" d="M2.05 4.25h5.9v.5h-5.9zM2.05 6.25h5.9v.5h-5.9zM2.05 8.25h5.9v.5h-5.9z"/><path stroke="#B7B1B1" stroke-width=".75" d="M2.05 1h5.9v1.5h-5.9zM5.7 1c.12-.1.2-.23.2-.38C5.9.28 5.44 0 4.87 0 4.3 0 3.85.28 3.85.63c0 .14.07.27.2.37H5.7z"/></g><g transform="translate(122 354)" stroke="#B7B1B1" stroke-width=".75"><circle cx="5.5" cy="5.5" r="5.5"/><circle fill="#F6F4F4" cx="5.63" cy="4.38" r="1.63"/><path d="M1.88 9.5c.62-.75 1.37-2.38 3.62-2.38S9.13 9.25 9.25 9.5"/></g><g transform="translate(166 353)"><path stroke="#B7B1B1" stroke-width=".75" d="M0 2.5h11V12H0z"/><ellipse fill="#E3E0E0" cx="2.69" cy="4.88" rx="1.15" ry="1.13"/><ellipse fill="#E3E0E0" cx="8.31" cy="4.88" rx="1.15" ry="1.13"/><path d="M2.8 4.25C2.8 3.12 2.7 0 5.64 0 8.57 0 8.2 3.13 8.2 4.25" stroke="#B7B1B1" stroke-width=".75"/></g><circle stroke="#FFF" stroke-width="2" cx="31" cy="255" r="11"/><rect fill-opacity=".7" fill="#D6DCE5" x="60" y="248" width="50" height="3" rx="1"/><rect fill="#F5F6F8" x="60" y="258" width="80" height="3" rx="1"/><circle fill="#96B0FF" cx="31" cy="315" r="14"/><rect fill-opacity=".7" fill="#D6DCE5" x="60" y="308" width="50" height="3" rx="1"/><rect fill="#F5F6F8" x="60" y="318" width="80" height="3" rx="1"/><path fill="#FFF" d="M31 318l-3.53 1.85.68-3.92-2.86-2.78 3.94-.58L31 309l1.76 3.57 3.95.58-2.85 2.78.68 3.92"/><rect fill="#EFF1F5" x="21" y="180" width="20" height="3" rx="1"/><rect fill="#EFF1F5" x="65" y="180" width="26" height="3" rx="1"/><rect fill="#EFF1F5" x="114" y="180" width="22" height="3" rx="1"/><rect fill="#EFF1F5" x="158" y="180" width="28" height="3" rx="1"/></g></svg>