<svg xmlns="http://www.w3.org/2000/svg" width="537" height="60"><path fill="#F6F9FC" d="M12 10h17a2 2 0 0 1 2 2v11a2 2 0 0 1-2 2H12a2 2 0 0 1-2-2V12a2 2 0 0 1 2-2z"/><path opacity="0.1" fill="#E25950" d="M31 21h-1v-7h1v7zm-21 0v-7h1v7h-1z"/><path fill="#E25950" d="M31 12v3H10v-3a2 2 0 0 1 2-2h17a2 2 0 0 1 2 2zM10 23v-3h21v3a2 2 0 0 1-2 2H12a2 2 0 0 1-2-2z"/><path fill="#43458B" d="M43 10h17a2 2 0 0 1 2 2v11a2 2 0 0 1-2 2H43a2 2 0 0 1-2-2V12a2 2 0 0 1 2-2z"/><path fill="#F6F9FC" d="M41 15.678l3.498-2.4.001-.001h.002v.001L49.926 17h-1.767L44.5 14.49 41 16.891v-1.213zm9-5.569v1.213l-3.499 2.4-.001.001-.001-.001-4.758-3.264a1.983 1.983 0 0 1 1.121-.444L46.5 12.51l3.5-2.401z"/><path fill="#E25950" d="M49.909 17l-3.659-2.51L42.591 17H41v-.121l5.248-3.601.001-.001h.002v.001L50 15.85V17h-.091zm-5.158-3.278v.001h-.002v-.001l-3.601-2.47a1.99 1.99 0 0 1 .601-.801l3.001 2.059L48.409 10H50v.121l-5.249 3.601z"/><path fill="#F6F9FC" d="M50 14.625h-3.375V17h-2.25v-2.375H41v-2.25h3.375V10h2.25v2.375H50v2.25z"/><path fill="#E25950" d="M50 13.998h-4V17h-1v-3.002h-4v-.996h4V10h1v3.002h4v.996z"/><path fill="#F6F9FC" d="M58.75 16a.75.75 0 1 1 0-1.5.75.75 0 0 1 0 1.5zm-1.25 3a.5.5 0 1 1 0-1 .5.5 0 0 1 0 1zm-1.25-5a.75.75 0 1 1 0-1.5.75.75 0 0 1 0 1.5zm-3 3a.75.75 0 1 1 0-1.5.75.75 0 0 1 0 1.5zm3 4a.75.75 0 1 1 0 1.5.75.75 0 0 1 0-1.5zM45.5 22.023l-.685.653c-.119.113-.311.018-.3-.149l.068-.959-.922-.146c-.16-.025-.208-.24-.074-.334l.77-.544-.465-.834c-.081-.145.052-.317.207-.268l.892.282.343-.895a.176.176 0 0 1 .332 0l.343.895.892-.282c.155-.049.288.123.207.268l-.465.834.77.544c.134.094.086.309-.074.334l-.922.146.068.959c.011.167-.181.262-.3.149l-.685-.653z"/><path fill="#FCD669" d="M78 10h9v15h-9V10z"/><path fill="#333" d="M74 10h5v15h-5a2 2 0 0 1-2-2V12a2 2 0 0 1 2-2z"/><path fill="#E25950" d="M91 25h-5V10h5a2 2 0 0 1 2 2v11a2 2 0 0 1-2 2z"/><path fill="#24B47E" d="M105 10h17a2 2 0 0 1 2 2v11a2 2 0 0 1-2 2h-17a2 2 0 0 1-2-2V12a2 2 0 0 1 2-2z"/><path fill="#FCD669" d="M113.5 11.496l8.999 6.004-8.999 6.004-8.999-6.004 8.999-6.004z"/><path fill="#43458B" d="M113.5 14a3.5 3.5 0 1 1 0 7 3.5 3.5 0 0 1 0-7z"/><path fill="#FFF" d="M116.689 18.929c-.18.4-.428.761-.737 1.064a8.447 8.447 0 0 0-5.861-3.263c.095-.421.262-.813.493-1.161a9.68 9.68 0 0 1 6.105 3.36z"/><path fill="#F6F9FC" d="M139 10h11v15h-11V10z"/><path opacity="0.1" fill="#E25950" d="M150 11h-11v-1h11v1zm-11 13h11v1h-11v-1z"/><path fill="#E25950" d="M144.045 20.97l-.003-1.974-1.399-.008.177-.819-1.82-.277.647-1.197-.58-1.585 1.593.634.471-1.818.698.356.668-1.283.76 1.264.621-.286.299 1.757 1.773-.557-.545 1.47.595 1.235-1.76.287.161.811-1.442-.014.008 1.985-.922.019zM140 25h-4a2 2 0 0 1-2-2V12a2 2 0 0 1 2-2h4v15zm13 0h-4V10h4a2 2 0 0 1 2 2v11a2 2 0 0 1-2 2zM167 10h17a2 2 0 0 1 2 2v11a2 2 0 0 1-2 2h-17a2 2 0 0 1-2-2V12a2 2 0 0 1 2-2z"/><path fill="#FFF" d="M180 19h-3v3h-3v-3h-3v-3h3v-3h3v3h3v3z"/><path fill="#E25950" d="M196 14h21v7h-21v-7z"/><path fill="#FCD669" d="M196 23v-3h21v3a2 2 0 0 1-2 2h-17a2 2 0 0 1-2-2z"/><path fill="#333" d="M217 12v3h-21v-3a2 2 0 0 1 2-2h17a2 2 0 0 1 2 2z"/><path fill="#E25950" d="M229 10h17a2 2 0 0 1 2 2v11a2 2 0 0 1-2 2h-17a2 2 0 0 1-2-2V12a2 2 0 0 1 2-2z"/><path fill="#F6F9FC" d="M248 19h-12v6h-3v-6h-6v-3h6v-6h3v6h12v3z"/><path opacity="0.1" fill="#E25950" d="M247 20v-5h1v5h-1zm-15 4h5v1h-5v-1zm0-14h5v1h-5v-1zm-5 5h1v5h-1v-5z"/><path fill="#FCD669" d="M258 13h21v9h-21v-9z"/><path fill="#E25950" d="M258 14v-2a2 2 0 0 1 2-2h17a2 2 0 0 1 2 2v2h-21zm19 11h-17a2 2 0 0 1-2-2v-2h21v2a2 2 0 0 1-2 2z"/><path fill="#F6F9FC" d="M263 15h2v2.5h-2V15z"/><path opacity="0.5" fill="#E25950" d="M263 20a2 2 0 0 1-2-2v-.5h2V20z"/><path fill="#E25950" d="M263 20v-2.5h2v.5a2 2 0 0 1-2 2zm-2-5h2v2.5h-2V15z"/><path fill="#F6F9FC" d="M291 10h17a2 2 0 0 1 2 2v11a2 2 0 0 1-2 2h-17a2 2 0 0 1-2-2V12a2 2 0 0 1 2-2z"/><path opacity="0.25" fill="#8898AA" d="M308 25h-17a2 2 0 0 1-2-2V12a2 2 0 0 1 2-2h17a2 2 0 0 1 2 2v11a2 2 0 0 1-2 2zm1-13a1 1 0 0 0-1-1h-17a1 1 0 0 0-1 1v11a1 1 0 0 0 1 1h17a1 1 0 0 0 1-1V12z"/><path fill="#555ABF" d="M310 19h-12v6h-3v-6h-6v-3h6v-6h3v6h12v3z"/><path fill="#F6F9FC" d="M326 10h9v15h-9V10z"/><path opacity="0.1" fill="#8898AA" d="M326 25v-1h9v1h-9zm0-15h9v1h-9v-1z"/><path fill="#555ABF" d="M322 10h5v15h-5a2 2 0 0 1-2-2V12a2 2 0 0 1 2-2z"/><path fill="#E25950" d="M339 25h-5V10h5a2 2 0 0 1 2 2v11a2 2 0 0 1-2 2z"/><path fill="#43458B" d="M371.929 23.5H369.5V25h-16v-1.5h-2.429A1.966 1.966 0 0 1 351 23V12c0-.174.029-.339.071-.5h2.429V10h16v1.5h2.429c.042.161.071.326.071.5v11c0 .174-.029.339-.071.5z"/><path fill="#F6F9FC" d="M368.659 10H370a2 2 0 0 1 2 2v.454L368.629 15H372v5h-3.288L372 22.483V23a2 2 0 0 1-2 2h-1.258L364 21.419V25h-5v-3.581L354.258 25H353a2 2 0 0 1-2-2v-.517L354.288 20H351v-5h3.371L351 12.454V12a2 2 0 0 1 2-2h1.341L359 13.519V10h5v3.519L368.659 10z"/><path fill="#E25950" d="M363 19v6h-3v-6h-9v-3h9v-6h3v6h9v3h-9zm.5-3.5v-.218l6.929-5.233a1.99 1.99 0 0 1 1.138.722l-6.261 4.729H363.5zm-12.291-4.374c.192-.392.507-.709.896-.906l6.99 5.28h-2.094l-5.792-4.374zM359.5 19.5v.218l-6.929 5.233a1.99 1.99 0 0 1-1.138-.722l6.261-4.729h1.806zm12.291 4.374a2 2 0 0 1-.896.906l-6.99-5.28h2.094l5.792 4.374zM384 10h17a2 2 0 0 1 2 2v11a2 2 0 0 1-2 2h-17a2 2 0 0 1-2-2V12a2 2 0 0 1 2-2z"/><path fill="#FFF" d="M392.316 17.4c.246-.842.382-1.362 1.77-1.903 1.388-.542 2.731.89 2.909 1.681-.054.046-.147-.023-.269-.093-.152-.088-.348-.175-.561-.032-.384.259-.466.476-.916.632-.451.155-.848.007-1.247-.329-.399-.336-1.06-.518-1.686.044m-.271.441c-.693.537-1.109.878-2.55.5-1.441-.379-1.686-2.326-1.365-3.071.159-.013.136.573.598.589.162.006.291-.006.41-.018.221-.022.406-.044.702.046.456.139.691.492.816.998.125.507.553 1.043 1.389.956m.361.091c.281.83.469 1.334-.358 2.574-.827 1.239-2.748.837-3.347.291.039-.156.585.057.751-.374.166-.432.109-.657.389-1.043.28-.385.689-.492 1.209-.446.52.047 1.166-.183 1.356-1.002m.114-.311c.876-.027 1.413-.058 2.357 1.094.943 1.153-.003 2.873-.7 3.287-.138-.083.226-.543-.139-.828-.364-.285-.596-.296-.883-.677-.287-.38-.269-.803-.073-1.287.196-.483.166-1.168-.562-1.589m-.541-.119c-.717-.506-1.164-.803-1.224-2.292-.06-1.489 1.731-2.293 2.537-2.203.06.149-.508.297-.388.744.119.447.298.596.298 1.072 0 .476-.268.804-.716 1.072-.448.268-.836.833-.507 1.607"/><path fill="#F6F9FC" d="M419 10h9v15h-9V10z"/><path opacity="0.1" fill="#8898AA" d="M419 25v-1h9v1h-9zm0-15h9v1h-9v-1z"/><path fill="#24B47E" d="M415 10h5v15h-5a2 2 0 0 1-2-2V12a2 2 0 0 1 2-2z"/><path fill="#F79A59" d="M432 25h-5V10h5a2 2 0 0 1 2 2v11a2 2 0 0 1-2 2z"/><path fill="#F6F9FC" d="M450 10h9v15h-9V10z"/><path opacity="0.1" fill="#8898AA" d="M450 25v-1h9v1h-9zm0-15h9v1h-9v-1z"/><path fill="#24B47E" d="M446 10h5v15h-5a2 2 0 0 1-2-2V12a2 2 0 0 1 2-2z"/><path fill="#E25950" d="M463 25h-5V10h5a2 2 0 0 1 2 2v11a2 2 0 0 1-2 2z"/><path fill="#F6F9FC" d="M477 10h17a2 2 0 0 1 2 2v11a2 2 0 0 1-2 2h-17a2 2 0 0 1-2-2V12a2 2 0 0 1 2-2z"/><path opacity="0.2" fill="#8898AA" d="M494 25h-17a2 2 0 0 1-2-2V12a2 2 0 0 1 2-2h17a2 2 0 0 1 2 2v11a2 2 0 0 1-2 2zm1-13a1 1 0 0 0-1-1h-17a1 1 0 0 0-1 1v11a1 1 0 0 0 1 1h17a1 1 0 0 0 1-1V12z"/><path fill="#E25950" d="M485.5 14a3.5 3.5 0 1 1 0 7 3.5 3.5 0 0 1 0-7z"/><path fill="#F6F9FC" d="M506 14h21v7h-21v-7z"/><path opacity="0.1" fill="#8898AA" d="M526 21v-7h1v7h-1zm-20-7h1v7h-1v-7z"/><path fill="#45B2E8" d="M506 23v-3h21v3a2 2 0 0 1-2 2h-17a2 2 0 0 1-2-2z"/><path fill="#E25950" d="M527 12v3h-21v-3a2 2 0 0 1 2-2h17a2 2 0 0 1 2 2z"/><path fill="#F6F9FC" d="M16 35h9v15h-9V35z"/><path opacity="0.1" fill="#8898AA" d="M16 50v-1h9v1h-9zm0-15h9v1h-9v-1z"/><path fill="#24B47E" d="M12 35h5v15h-5a2 2 0 0 1-2-2V37a2 2 0 0 1 2-2z"/><path fill="#E25950" d="M29 50h-5V35h5a2 2 0 0 1 2 2v11a2 2 0 0 1-2 2z"/><path fill="#24B47E" d="M18.587 42.484a1.913 1.913 0 0 0 3.826 0h.852l.002.014a2.753 2.753 0 1 1-5.505 0l.002-.014h.823z"/><path fill="#B5562B" d="M20.5 40.5a1.5 1.5 0 1 1-.001 3.001A1.5 1.5 0 0 1 20.5 40.5z"/><path fill="#F6F9FC" d="M41 39h21v7H41v-7z"/><path opacity="0.1" fill="#8898AA" d="M61 46v-7h1v7h-1zm-20-7h1v7h-1v-7z"/><path fill="#6772E5" d="M41 48v-3h21v3a2 2 0 0 1-2 2H43a2 2 0 0 1-2-2z"/><path fill="#E25950" d="M62 37v3H41v-3a2 2 0 0 1 2-2h17a2 2 0 0 1 2 2zM74 35h17a2 2 0 0 1 2 2v11a2 2 0 0 1-2 2H74a2 2 0 0 1-2-2V37a2 2 0 0 1 2-2z"/><path fill="#F6F9FC" d="M93 44H81v6h-3v-6h-6v-3h6v-6h3v6h12v3z"/><path opacity="0.1" fill="#555ABF" d="M92 44v-3h1v3h-1zm-14 5h3v1h-3v-1zm0-14h3v1h-3v-1zm-6 6h1v3h-1v-3z"/><path fill="#555ABF" d="M93 43H80v7h-1v-7h-7v-1h7v-7h1v7h13v1z"/><path fill="#43458B" d="M105 35h17a2 2 0 0 1 2 2v11a2 2 0 0 1-2 2h-17a2 2 0 0 1-2-2V37a2 2 0 0 1 2-2z"/><path fill="#F6F9FC" d="M103 40.678l3.498-2.4.001-.001h.001l.001.001L111.926 42h-1.767l-3.659-2.51-3.5 2.401v-1.213zm9-5.569v1.213l-3.499 2.4-.001.001-.001-.001-4.758-3.264a1.983 1.983 0 0 1 1.121-.444l3.638 2.496 3.5-2.401z"/><path fill="#E25950" d="M111.909 42l-3.659-2.51-3.659 2.51H103v-.121l5.249-3.601v-.001h.002v.001L112 40.85V42h-.091zm-5.158-3.278v.001h-.002v-.001l-3.601-2.47a1.99 1.99 0 0 1 .601-.801l3.001 2.059 3.659-2.51H112v.121l-5.249 3.601z"/><path fill="#F6F9FC" d="M112 39.625h-3.375V42h-2.25v-2.375H103v-2.25h3.375V35h2.25v2.375H112v2.25z"/><path fill="#E25950" d="M112 38.998h-4V42h-1v-3.002h-4v-.996h4V35h1v3.002h4v.996z"/><path fill="#F6F9FC" d="M119.5 41.719a1.22 1.22 0 1 1 0-2.439 1.22 1.22 0 0 1 0 2.439zm-2-2a1.22 1.22 0 1 1 0-2.439 1.22 1.22 0 0 1 0 2.439zm-.781 1.781a1.22 1.22 0 1 1-2.439 0 1.22 1.22 0 0 1 2.439 0zm.781 3.781a1.22 1.22 0 1 1 0 2.439 1.22 1.22 0 0 1 0-2.439z"/><path fill="#E25950" d="M119.5 41.187a.687.687 0 1 1-.002-1.374.687.687 0 0 1 .002 1.374zm-2 6.001a.688.688 0 1 1 0-1.376.688.688 0 0 1 0 1.376zm0-8.001a.687.687 0 1 1-.002-1.374.687.687 0 0 1 .002 1.374zm-2 3a.686.686 0 1 1 0-1.375.688.688 0 1 1 0 1.375z"/><path fill="#24B47E" d="M142 50h-6a2 2 0 0 1-2-2V37a2 2 0 0 1 2-2h6v15z"/><path fill="#E25950" d="M153 50h-12V35h12a2 2 0 0 1 2 2v11a2 2 0 0 1-2 2z"/><path fill="#FCD669" d="M141 38.969a3.531 3.531 0 1 1 0 7.062 3.531 3.531 0 0 1 0-7.061z"/><path fill="#E25950" d="M141 40.271a2.23 2.23 0 1 1 0 4.458 2.23 2.23 0 0 1 0-4.458z"/><path fill="#F6F9FC" d="M140 41h2v2.031a1 1 0 1 1-2 0V41z"/><path fill="#217AB7" d="M167 35h17a2 2 0 0 1 2 2v11a2 2 0 0 1-2 2h-17a2 2 0 0 1-2-2V37a2 2 0 0 1 2-2z"/><path fill="#FCD669" d="M186 44h-12v6h-3v-6h-6v-3h6v-6h3v6h12v3z"/><path fill="#F6F9FC" d="M217 42v6a2 2 0 0 1-2 2h-17a2 2 0 0 1-2-2v-6h21z"/><path opacity="0.2" fill="#8898AA" d="M215 50h-17a2 2 0 0 1-2-2v-6h1v6a1 1 0 0 0 1 1h17a1 1 0 0 0 1-1v-6h1v6a2 2 0 0 1-2 2z"/><path fill="#E25950" d="M196 43v-6a2 2 0 0 1 2-2h17a2 2 0 0 1 2 2v6h-21z"/><path fill="#F6F9FC" d="M200.224 39a2.367 2.367 0 0 0 2.354 2.367 2.936 2.936 0 0 1-1.762.593 2.96 2.96 0 1 1 0-5.92c.663 0 1.268.225 1.762.593A2.367 2.367 0 0 0 200.224 39z"/><path fill="#F6F9FC" d="M205.937 39.156a.594.594 0 1 1 .001-1.187.594.594 0 0 1-.001 1.187zm-1.5-1.187a.594.594 0 1 1 .002-1.188.594.594 0 0 1-.002 1.188zm-.281 2.375a.594.594 0 1 1-1.188 0 .594.594 0 0 1 1.188 0zm-1.187-1.188a.594.594 0 1 1 0-1.188.594.594 0 0 1 0 1.188zm2.375.594a.593.593 0 1 1 0 1.186.593.593 0 0 1 0-1.186z"/><path fill="#E25950" d="M246 50h-17a2 2 0 0 1-2-2v-7h8v-6h11a2 2 0 0 1 2 2v11a2 2 0 0 1-2 2z"/><path fill="#F6F9FC" d="M227 46h21v1h-21v-1zm0-2h21v1h-21v-1zm0-2h21v1h-21v-1zm8-2h13v1h-13v-1zm0-2h13v1h-13v-1zm0-2h12.723c.171.295.277.634.277 1h-13v-1zm12.723 13h-20.446a1.987 1.987 0 0 1-.277-1h21c0 .366-.106.705-.277 1z"/><path opacity="0.2" fill="#E25950" d="M246 50h-17a2 2 0 0 1-2-2v-7h1v7a1 1 0 0 0 1 1h17a1 1 0 0 0 1-1V37a1 1 0 0 0-1-1h-11v-1h11a2 2 0 0 1 2 2v11a2 2 0 0 1-2 2z"/><path fill="#43458B" d="M227 42v-5a2 2 0 0 1 2-2h7v7h-9z"/><path fill="#FFF" d="M234.516 37.219a.703.703 0 1 1 0-1.405.703.703 0 0 1 0 1.405zm-.297 1.297a.703.703 0 1 1-1.407 0 .703.703 0 0 1 1.407 0zm-1.703-1.297a.704.704 0 1 1 0-1.407.704.704 0 0 1 0 1.407zm-.297 1.297a.703.703 0 1 1-1.407 0 .703.703 0 0 1 1.407 0zm-1.703-1.297a.704.704 0 1 1 0-1.407.704.704 0 0 1 0 1.407zm-.297 1.297a.703.703 0 1 1-1.407 0 .703.703 0 0 1 1.407 0zm-1.703-1.297a.703.703 0 1 1 0-1.405.703.703 0 0 1 0 1.405zm0 2.593a.704.704 0 1 1-.001 1.407.704.704 0 0 1 .001-1.407zm2 0a.704.704 0 1 1-.001 1.407.704.704 0 0 1 .001-1.407zm2 0a.704.704 0 1 1-.001 1.407.704.704 0 0 1 .001-1.407zm2 0a.704.704 0 1 1-.001 1.407.704.704 0 0 1 .001-1.407z"/><path opacity="0.5" fill="#FFF" d="M236 39.021a.698.698 0 0 1-.484.198.704.704 0 1 1 0-1.406c.188 0 .358.076.484.197v1.011zm-9-.975a.697.697 0 0 1 1.219.47.703.703 0 0 1-.703.703.694.694 0 0 1-.516-.234v-.939z"/><path d="M277 50h-11.098l8.66-15H277a2 2 0 0 1 2 2v11a2 2 0 0 1-2 2zm-14.562 0H260a2 2 0 0 1-2-2V37a2 2 0 0 1 2-2h11.098l-8.66 15z"/></svg>