<svg width="23" height="23" viewBox="0 0 23 23" xmlns="http://www.w3.org/2000/svg"><path d="M4 15.5l14.02-1.87c.54-.07.75.26.46.73l-.46.78c-.3.47-.97.86-1.5.86H4v-.5zm12.3 1.1c.38-.06.53.16.3.5l-.6.9H6l10.3-1.4zm-7.5-4c-.9.78-1.88 1.2-2.9 1.27-1.03.07-1.64-.24-1.84-.93-.2-.7.03-1.68.7-2.95.66-1.3 1.48-2.36 2.44-3.14 1-.8 1.97-1.2 2.97-1.26 1.33-.1 1.93.5 1.86 1.77l-2.6.9c.1-.24.13-.44.1-.57-.05-.13-.16-.2-.34-.18-.65.04-1.38.87-2.23 2.5-.36.7-.55 1.2-.57 1.5-.02.3.12.46.42.44.12 0 .25-.05.37-.1.1-.07.23-.15.35-.26.12-.1.24-.23.35-.37.12-.15.22-.3.3-.5l-.83.07.88-1.7 3.16-.2-.15.33c-.8 1.55-1.6 2.67-2.45 3.37zm2.48.07c-.37-.7-.16-1.77.6-3.25C12.6 8 13.56 6.9 14.72 6.1c.87-.6 1.7-.93 2.5-.98.96-.07 1.54.26 1.72.97.18.7-.05 1.7-.7 2.97-.64 1.23-1.46 2.23-2.44 3.03-.96.8-1.9 1.24-2.85 1.3-.82.06-1.38-.2-1.67-.73zm2.9-3.52c-.42.72-.66 1.27-.74 1.67-.07.4.03.6.3.6s.6-.2.97-.6c.4-.38.8-.93 1.2-1.62.87-1.54 1.03-2.3.5-2.3-.3 0-.64.2-1.03.6-.38.37-.77.92-1.2 1.65z" fill="#8EB7D7" fill-rule="evenodd"/></svg>