<svg width="23" height="23" viewBox="0 0 23 23" xmlns="http://www.w3.org/2000/svg"><path d="M5 6c0-.55.45-1 1-1h11c.55 0 1 .45 1 1v11c0 .55-.45 1-1 1H6c-.55 0-1-.45-1-1V6zm7.07 9.2v.26l-.03.1v.06l-.02.1-.02.06v.07l-.04.08-.02.06-.03.05v.07l-.05.07-.04.07-.04.06-.05.07-.04.07-.05.05-.04.06-.06.05-.08.05-.06.04-.07.04-.1.04-.06.04-.07.04-.08.02-.1.03-.07.02-.08.02-.07.02H10.44l-.08.03h-.1l-.08.02h-.5l-.08-.02H9.5l-.1-.02h-.2l-.05-.03-.02-.08v-.1l-.02-.07v-.1l-.03-.07-.02-.08v-.17l-.02-.07v-.1l-.03-.07V16L9 15.92v-.08l-.02-.1.07.03.08.02h.25l.07.03h.48l.08-.02h.1l.07-.04.07-.03.07-.04.08-.05.05-.05.04-.04.04-.07.04-.08.02-.08.03-.1v-4.18h1.48v4.16-.02zm5.28 0v.2l-.02.1v.08l-.02.08v.17l-.05.07-.03.08-.02.06-.05.08-.04.08-.05.06-.04.07-.04.06-.06.05-.07.06-.06.06-.06.05-.05.05-.06.05-.08.04-.05.05h-.07l-.07.04-.07.03-.07.03-.08.03-.1.03h-.07l-.07.03h-.23l-.08.03h-.08l-.1.02h-.7l-.07-.02h-.08l-.08-.03h-.17l-.07-.03-.07-.03H14l-.08-.03h-.08l-.08-.03h-.08l-.07-.04-.06-.02-.08-.02-.07-.03-.1-.03-.06-.03-.07-.03-.08-.03-.08-.03.03-.07v-.08l.02-.08.02-.1v-.25l.03-.08.02-.08v-.08l.03-.1v-.1l.03-.07v-.08l.03-.08.08.03.08.05.07.03.08.04.07.03.06.03.08.03.07.05.1.02.07.04.08.03.07.03.1.02.08.03.08.03.08.02.08.02.1.02H14.87l.08.03h.44l.1-.02h.07l.07-.04.1-.02.05-.04.07-.06.05-.06.03-.06.04-.07.02-.08v-.26l-.05-.05-.04-.07-.04-.07-.07-.05-.07-.03-.05-.04-.07-.04-.06-.04-.07-.04-.06-.02-.06-.03-.07-.02-.08-.03-.1-.04-.1-.02-.1-.03-.06-.03-.08-.04-.08-.02-.08-.03-.07-.04-.08-.03-.08-.02-.06-.04-.06-.02-.05-.03-.07-.04H14l-.07-.05-.08-.05-.06-.04-.1-.06-.04-.04-.07-.05-.07-.03-.06-.06-.05-.06-.06-.06-.04-.07-.04-.06-.05-.07-.03-.08-.02-.07-.03-.08v-.07l-.03-.08V13l-.02-.07v-.43l.02-.08.02-.07v-.07l.04-.08.02-.07.03-.07.03-.06.04-.08.04-.06.04-.07.05-.08.05-.06.05-.06.06-.04.05-.06.07-.05.06-.05.05-.04.08-.05h.1l.07-.04.08-.04.08-.03.08-.04.1-.03h.08l.08-.03h.08l.08-.03.1-.02h.25l.1-.02h.43l.1.02h.16l.08.03H16l.1.02.07.02h.07l.08.02.07.02.05.02.08.03h.08l.08.05.07.03.07.02.07.03.07.03.07.03v.06l-.03.1V11.7l-.03.1-.02.07v.1l-.02.08-.02.08v.08l-.02.1-.03.07v.08l-.02.1-.02.07-.06-.04-.08-.05-.07-.04-.07-.04-.08-.03-.07-.03-.08-.03-.08-.03-.07-.02-.07-.03-.08-.04-.1-.03h-.06l-.08-.04h-.1l-.07-.03-.07-.02h-.6l-.06.03h-.07l-.06.04-.06.04-.07.05-.03.07-.03.06-.02.08v.2l.02.06.02.06.03.05.04.06.08.06.05.02.07.04.08.04.1.05.06.04h.07l.08.04.1.03.08.04.1.04.1.03.1.03.07.05.1.03.07.03.08.06.08.03.07.02.07.04.07.04.08.03.07.05.1.04.06.03.08.04.06.04.05.04.05.05.06.06.07.03.06.07.06.06.04.07.03.07.05.08.04.07.03.07v.06l.03.07v.08l.02.08v.1l.02.07v.18l-.02-.05z" fill="#8EB7D7" fill-rule="evenodd"/></svg>