<svg width="436" height="583" viewBox="0 0 436 583" xmlns="http://www.w3.org/2000/svg" xmlns:xlink="http://www.w3.org/1999/xlink"><defs><path id="a" d="M0 0h434v294H0z"/><linearGradient x1="50%" y1="0%" x2="50%" y2="100%" id="c"><stop stop-color="#3773FF" offset="0%"/><stop stop-color="#2B4DFF" offset="100%"/></linearGradient><circle id="d" cx="9" cy="9" r="9"/></defs><g fill="none" fill-rule="evenodd"><rect fill="#FFF" width="436" height="583" rx="5"/><g transform="translate(1 48)"><mask id="b" fill="#fff"><use xlink:href="#a"/></mask><use fill="#F9F8F5" xlink:href="#a"/><path d="M216.36 217.04c-22.7-10.1-49.3.1-59.4 22.8-10.12 22.7.1 49.3 22.8 59.42l8.13-18.27c-12.63-5.63-18.3-20.4-12.68-33.02 5.6-12.6 20.4-18.28 33-12.67l8.14-18.26z" fill="#8A8AA6" mask="url(#b)"/><path d="M31.22 147.82c13.9-20.6 8.47-48.58-12.14-62.47C-1.52 71.45-29.5 76.9-43.4 97.5l16.6 11.17c7.7-11.44 23.25-14.46 34.7-6.74 11.44 7.72 14.46 23.26 6.74 34.7l16.58 11.2z" fill="#FFA7DA" mask="url(#b)"/><path d="M16.5 285.64c13.54 20.84 41.4 26.77 62.25 13.23s26.77-41.4 13.24-62.25l-16.8 10.9c7.53 11.57 4.24 27.06-7.34 34.58s-27.06 4.23-34.58-7.35l-16.77 10.9z" fill="#E5DFD4" mask="url(#b)"/><path d="M171.78 72.3c23.04 9.3 49.27-1.83 58.58-24.87 9.3-23.04-1.82-49.27-24.86-58.58L198 7.4c12.8 5.16 19 19.73 13.82 32.54-5.17 12.8-19.75 18.98-32.55 13.8l-7.5 18.55z" fill="#FFC2B2" mask="url(#b)"/><path d="M329.9 64.47c-8.5 23.35 3.55 49.17 26.9 57.67 23.36 8.5 49.18-3.54 57.68-26.9l-18.8-6.83c-4.7 12.98-19.06 19.67-32.04 14.95-12.97-4.72-19.66-19.07-14.94-32.04l-18.8-6.83z" fill="#FFFC82" mask="url(#b)"/><path d="M366.28 284.66c4.3 24.47 27.65 40.8 52.13 36.5 24.48-4.32 40.82-27.66 36.5-52.13l-19.7 3.47c2.4 13.6-6.67 26.56-20.27 28.96-13.6 2.4-26.56-6.68-28.96-20.28l-19.7 3.48z" fill="#FF6679" mask="url(#b)"/><path mask="url(#b)" d="M0 0h434v294H0z"/></g><rect fill-opacity=".4" fill="#E0DFDA" x="269" y="260" width="102" height="34" rx="4"/><rect fill-opacity=".2" fill="#E0DFDA" x="65" y="179" width="306" height="35" rx="4"/><rect fill="#FFF" x="66" y="180" width="304" height="31" rx="3"/><rect fill="#202755" x="270" y="261" width="100" height="31" rx="3"/><path d="M1 470h434v108c0 2.2-1.8 4-4 4H5c-2.2 0-4-1.78-4-4V470z" fill="#1F2755"/><rect fill="#8181B1" opacity=".5" x="294" y="274" width="52" height="5" rx="1"/><rect fill="#8593A1" opacity=".2" x="145" y="25" width="32" height="4" rx="1"/><rect fill="#8593A1" opacity=".2" x="265" y="25" width="32" height="4" rx="1"/><rect fill="#8593A1" opacity=".2" x="194" y="25" width="54" height="4" rx="1"/><rect fill-opacity=".05" fill="#1E338B" x="50" y="416" width="46" height="20" rx="4"/><rect fill-opacity=".05" fill="#1E338B" x="195" y="416" width="46" height="20" rx="4"/><rect fill-opacity=".05" fill="#1E338B" x="340" y="416" width="46" height="20" rx="4"/><rect fill="url(#c)" x="51" y="417" width="44" height="17" rx="3"/><rect fill="#8593A1" opacity=".2" x="52" y="373" width="42" height="4" rx="1"/><rect fill="#8593A1" opacity=".15" x="23" y="390" width="100" height="3" rx="1"/><rect fill="#8593A1" opacity=".15" x="36" y="398" width="74" height="3" rx="1"/><rect fill="#FFF" opacity=".2" x="59" y="424" width="28" height="3" rx="1"/><g fill="#FFF"><path opacity=".2" d="M17 488h33v3H17z"/><path opacity=".15" d="M17 506h70v3H17zM17 518h44v3H17zM17 530h16v3H17zM17 542h19v3H17zM17 554h19v3H17z"/></g><path fill="#FFF" opacity=".2" d="M162 488h23v3h-23z"/><path fill="#FFF" opacity=".15" d="M162 506h50v3h-50zM162 518h54v3h-54zM162 530h16v3h-16zM162 542h19v3h-19zM162 554h39v3h-39z"/><path fill="#FFF" opacity=".2" d="M307 488h28v3h-28z"/><path fill="#FFF" opacity=".15" d="M307 506h56v3h-56zM307 518h64v3h-64zM307 530h21v3h-21z"/><rect fill="#E9E8E4" opacity=".7" x="79" y="193" width="60" height="5" rx="1"/><path d="M21.06 22.48l2.27-3.32c.43-.6 1-.92 1.7-.92.56 0 1.03.2 1.43.6.4.4.62.87.62 1.4 0 .42-.12.77-.33 1.1l-2.07 3 2.52 3.2c.26.3.38.68.38 1.1 0 .58-.2 1.05-.6 1.46-.4.4-.87.6-1.44.6-.62 0-1.1-.18-1.42-.58l-3.1-3.84v2.13c0 .63-.08 1.08-.3 1.44-.38.6-.94.92-1.68.92-.66 0-1.2-.2-1.54-.66-.33-.48-.5-1.02-.5-1.7v-7.9c0-.63.17-1.17.52-1.6.36-.43.88-.66 1.52-.66.62 0 1.1.23 1.52.66.23.24.38.5.42.74.05.16.05.45.05.87v1.98h.03zm11.33-1.73v7.6c0 .68-.17 1.22-.53 1.65-.35.48-.88.7-1.52.7-.6 0-1.1-.2-1.5-.65-.32-.36-.5-.93-.5-1.7v-7.6c0-.85.15-1.47.5-1.85.4-.45.9-.66 1.53-.66.6 0 1.1.2 1.5.64.35.4.5 1.02.5 1.87zM39.7 18c1.5 0 2.87.5 4.13 1.5.97.78 1.47 1.6 1.47 2.46 0 .7-.3 1.28-.9 1.68-.34.24-.72.34-1.12.34-.33 0-.64-.07-.95-.24-.12-.07-.43-.38-.92-.9-.44-.5-1.04-.76-1.73-.76-.66 0-1.23.24-1.68.7-.46.46-.7 1.03-.7 1.7 0 .66.24 1.23.7 1.7.44.48 1 .7 1.67.7.55 0 1.07-.2 1.55-.58.28-.28.6-.57.87-.85.3-.26.7-.4 1.18-.4.55 0 1.02.18 1.45.56.4.4.6.87.6 1.4 0 .77-.44 1.53-1.32 2.3-1.22 1.08-2.64 1.6-4.28 1.6-1 0-1.94-.2-2.84-.64-1.12-.54-2.02-1.33-2.68-2.37-.67-1.05-1-2.2-1-3.45 0-1.85.7-3.44 2.06-4.74 1.2-1.1 2.68-1.68 4.44-1.7zm10.4 4.48l2.26-3.32c.43-.6 1-.92 1.7-.92.56 0 1.03.2 1.43.6.4.4.6.87.6 1.4 0 .42-.1.77-.32 1.1l-2.06 3 2.5 3.2c.27.3.4.68.4 1.1 0 .58-.2 1.05-.6 1.46-.4.4-.88.6-1.45.6-.62 0-1.1-.18-1.42-.58l-3.1-3.84v2.13c0 .63-.08 1.08-.3 1.44-.38.6-.94.92-1.68.92-.66 0-1.2-.2-1.54-.66-.33-.4-.52-.98-.52-1.64V20.5c0-.63.17-1.17.53-1.6.4-.43.9-.66 1.54-.66.62 0 1.12.2 1.54.66.25.24.4.5.44.74.05.16.05.45.05.87v1.98z" fill="#0F2105"/><path d="M59.15 25.97c.45 0 .92.2 1.44.6.63.5 1.06.73 1.3.73.35 0 .52-.2.52-.55 0-.2-.1-.35-.3-.5-.13-.07-.72-.3-1.83-.68-1.82-.64-2.72-1.8-2.72-3.54 0-1.3.48-2.32 1.42-3.06.86-.64 1.88-.97 3.1-.97 1.08 0 2 .26 2.8.76.77.5 1.17 1.16 1.17 1.97 0 .47-.14.88-.45 1.2-.3.34-.7.48-1.16.48-.5 0-1.04-.23-1.66-.7-.38-.28-.66-.45-.85-.45-.34 0-.5.17-.5.47 0 .3.4.6 1.23.83 1.14.36 2 .8 2.6 1.3.84.7 1.24 1.64 1.24 2.88 0 1.35-.45 2.4-1.37 3.15-.86.7-1.97 1.05-3.35 1.05-1.37 0-2.5-.36-3.4-1.1-.72-.6-1.1-1.25-1.1-2.03 0-.53.16-.95.52-1.3.38-.34.8-.53 1.33-.53zM70 22.1H68.9c-.6 0-1.1-.16-1.47-.47-.4-.36-.62-.8-.62-1.4 0-.36.1-.7.3-1 .18-.33.44-.54.74-.68.3-.15 1.05-.22 2.2-.22h4.1c1 0 1.65.07 1.94.2.34.13.6.35.8.68.18.34.3.67.3 1.03 0 .57-.22 1.04-.67 1.45-.3.28-.83.45-1.56.45h-.93v6.12c0 .66-.12 1.18-.33 1.54-.37.6-.94.9-1.65.9-.74 0-1.28-.27-1.68-.82-.24-.35-.38-.87-.38-1.6V22.1zm9.83 6.93c-.2.45-.38.8-.6 1.02-.4.45-.9.66-1.5.66-.7 0-1.27-.27-1.65-.84-.24-.33-.35-.74-.35-1.16 0-.36.1-.7.26-1.07l3.83-8.18c.38-.8 1-1.2 1.87-1.2.88 0 1.52.4 1.9 1.24l3.9 8.22c.16.34.23.67.23.98 0 .47-.17.9-.48 1.28-.4.5-.92.73-1.56.73-.53 0-.96-.15-1.32-.46-.26-.24-.52-.64-.78-1.2h-3.77zm16.84-3.16l.95 1.55c.26.42.4.85.4 1.3 0 .57-.2 1.04-.6 1.42-.4.38-.87.57-1.44.57-.73 0-1.28-.3-1.66-.9L92.64 27v1.67c0 .57-.2 1.05-.57 1.45-.38.4-.86.6-1.43.6-.68 0-1.23-.24-1.58-.77-.34-.42-.48-1.02-.48-1.73v-7.56c0-1.57.83-2.33 2.5-2.33h2.6c.85 0 1.64.24 2.35.74.73.5 1.26 1.1 1.6 1.9.25.6.37 1.18.37 1.77 0 1.12-.45 2.16-1.33 3.13zm4.8-3.77h-1.05c-.6 0-1.1-.16-1.47-.47-.4-.36-.62-.8-.62-1.4 0-.36.1-.7.28-1 .2-.33.46-.54.77-.68.3-.15 1.05-.22 2.2-.22h4.1c.98 0 1.65.07 1.93.2.33.13.6.35.8.68.17.34.3.67.3 1.03 0 .57-.22 1.04-.67 1.45-.3.28-.83.45-1.57.45h-.92v6.12c0 .66-.12 1.18-.33 1.54-.37.6-.94.9-1.65.9-.74 0-1.28-.27-1.7-.82-.22-.35-.37-.87-.37-1.6V22.1zm12 4.72h1.86c.76 0 1.33.17 1.7.48.44.38.68.85.68 1.44 0 .6-.2 1.1-.66 1.45-.33.28-.9.42-1.68.42h-3.16c-.73 0-1.25-.05-1.54-.17-.54-.2-.9-.6-1.07-1.1-.12-.32-.17-.84-.17-1.58v-6.7c0-.56.02-.9.05-1.1.07-.38.2-.7.47-1 .3-.3.66-.5 1.1-.6.2-.04.63-.04 1.27-.04h2.42c.67 0 1.05 0 1.16.03.43.04.8.16 1.07.38.5.37.74.85.74 1.44 0 .64-.2 1.14-.63 1.5-.38.3-.9.45-1.57.45h-2v.83h1.6c.47 0 .85.12 1.16.38.33.26.47.6.47 1.1 0 .96-.6 1.46-1.77 1.46h-1.45v.92h-.02zm13.04-.95l.95 1.55c.27.42.4.85.4 1.3 0 .57-.18 1.04-.6 1.42-.4.38-.86.57-1.43.57-.74 0-1.28-.3-1.66-.9l-1.7-2.8v1.67c0 .57-.18 1.05-.56 1.45-.38.4-.85.6-1.42.6-.7 0-1.23-.24-1.6-.77-.32-.42-.46-1.02-.46-1.73v-7.56c0-1.57.83-2.33 2.5-2.33h2.6c.85 0 1.63.24 2.35.74.73.5 1.25 1.1 1.58 1.9.27.6.38 1.18.38 1.77 0 1.12-.45 2.16-1.32 3.13z" fill="#2BDE73"/><path stroke="#D3D1C6" stroke-width="2" d="M347 193l5 5 5-5"/><g transform="translate(401 17)"><mask id="e" fill="#fff"><use xlink:href="#d"/></mask><use fill="#F9F8F5" xlink:href="#d"/><path d="M17 18c.08-1.75-.62-2.55-.94-2.85-.33-.3-3.44-1.33-4.03-1.65-.6-.33-.4-.54-.94-.8 0-.14-.1-.58 0-.78.1-.2.38-.92.42-1.13.04-.22.06-.2.2-.13.17.06.54-1.15.54-1.3 0-.12.38-1.1-.2-.88.9-4.25-2.8-4.34-3.08-4.34-.28 0-1.87.08.3-.16-2.28 0-2.34.53-2.34.74-2.05.94-.88 3.67-.82 3.8-.34-.26-.53.34-.4.58.12.24.1.53.34 1.16.23.64.46.28.46.44 0 .15.25.84.48 1.17 0 .3.04.6-.06.96-.27.07-.45.3-.9.7-.46.4-2.9.97-3.84 1.52-.95.55-1.06.95-1.2 2.86V18h16z" fill="#D3D0C6" mask="url(#e)"/></g><path fill="#E7EAED" opacity=".5" d="M144 342h2v128h-2zM289 342h2v128h-2z"/><rect fill="url(#c)" x="196" y="417" width="44" height="17" rx="3"/><rect fill="#8593A1" opacity=".2" x="200" y="373" width="36" height="4" rx="1"/><rect fill="#8593A1" opacity=".15" x="173" y="390" width="90" height="3" rx="1"/><rect fill="#8593A1" opacity=".15" x="178" y="398" width="80" height="3" rx="1"/><rect fill="#FFF" opacity=".2" x="204" y="424" width="28" height="3" rx="1"/><rect fill="url(#c)" x="341" y="417" width="44" height="17" rx="3"/><rect fill="#8593A1" opacity=".2" x="348" y="373" width="30" height="4" rx="1"/><rect fill="#8593A1" opacity=".15" x="329" y="390" width="68" height="3" rx="1"/><rect fill="#8593A1" opacity=".15" x="321" y="398" width="84" height="3" rx="1"/><rect fill="#FFF" opacity=".2" x="349" y="424" width="28" height="3" rx="1"/><path fill-opacity=".15" fill="#E0DFDA" d="M1 48h434v2H1zM1 341h434v1H1z"/><rect stroke-opacity=".05" stroke="#202755" stroke-width="2" x="1" y="1" width="434" height="581" rx="4"/></g></svg>