<svg width="211" height="375" viewBox="0 0 211 375" xmlns="http://www.w3.org/2000/svg" xmlns:xlink="http://www.w3.org/1999/xlink"><defs><linearGradient x1="50%" y1="0%" x2="50%" y2="100%" id="a"><stop stop-color="#634FB8" offset="0%"/><stop stop-color="#5341A7" offset="100%"/></linearGradient><circle id="b" cx="9" cy="9" r="9"/><linearGradient x1="50%" y1="0%" x2="50%" y2="100%" id="d"><stop stop-color="#F500BC" offset="0%"/><stop stop-color="#B901B0" offset="100%"/></linearGradient><linearGradient x1="0%" y1="0%" y2="100%" id="e"><stop stop-color="#F64AE3" offset="0%"/><stop stop-color="#4A2DE1" offset="100%"/></linearGradient></defs><g fill="none" fill-rule="evenodd"><rect fill="#F2F1EA" width="211" height="375" rx="5"/><path d="M0 179h26v111H0v10h26v75h9v-75h57v75h9v-75h59v75h9v-75h42v-10h-42v-65h42v-10h-42v-36h42v-10h-50.84l32.12-112H211V47h-15.86l13.48-47h-9.36l-13.48 47H101V0h-9v47H35V0h-9v47H0v10h26v112H0v10zm35 111V179h57v111H35zm66 0V179h59v111h-59zM35 169V57h57v112H35zm66 0V57h81.9l-32.1 112H101z" fill-opacity=".1" fill="#D5D3C5"/><path d="M0 177h27v114H0v7h27v77h7v-77h59v77h7v-77h61v77h7v-77h43v-7h-43v-68h43v-7h-43v-39h43v-7h-52.17L191.8 55H211v-7h-17.18l13.76-48h-7.28l-13.76 48H100V0h-7v48H34V0h-7v48H0v7h27v115H0v7zm34 114V177h59v114H34zm66 0V177h61v114h-61zM34 170V55h59v115H34zm66 0V55h84.53l-32.98 115H100z" fill-opacity=".9" fill="#FFF"/><circle fill="#D5D3C5" cx="14" cy="27" r="9"/><rect fill-opacity=".08" fill="#291C66" x="6" y="341" width="199" height="29" rx="3"/><rect fill="url(#a)" x="7" y="342" width="197" height="26" rx="2"/><rect fill-opacity=".2" fill="#D5D3C5" x="21" y="308" width="184" height="29" rx="3"/><rect fill="#FFF" x="21" y="309" width="183" height="26" rx="2"/><g transform="translate(5 17)"><mask id="c" fill="#fff"><use xlink:href="#b"/></mask><use fill-opacity=".8" fill="#FFF" xlink:href="#b"/><path d="M17 18c.08-1.75-.62-2.55-.94-2.85-.33-.3-3.44-1.33-4.03-1.65-.6-.33-.4-.54-.94-.8 0-.14-.1-.58 0-.78.1-.2.38-.92.42-1.13.04-.22.06-.2.2-.13.17.06.54-1.15.54-1.3 0-.12.38-1.1-.2-.88.9-4.25-2.8-4.34-3.08-4.34-.28 0-1.87.08.3-.16-2.28 0-2.34.53-2.34.74-2.05.94-.88 3.67-.82 3.8-.34-.26-.53.34-.4.58.12.24.1.53.34 1.16.23.64.46.28.46.44 0 .15.25.84.48 1.17 0 .3.04.6-.06.96-.27.07-.45.3-.9.7-.46.4-2.9.97-3.84 1.52-.95.55-1.06.95-1.2 2.86V18h16z" fill="#A09E90" mask="url(#c)"/></g><circle fill="#000" cx="5.5" cy="5.5" r="1.5"/><circle fill="#000" cx="9.5" cy="5.5" r="1.5"/><circle fill="#000" cx="13.5" cy="5.5" r="1.5"/><circle fill="#000" cx="17.5" cy="5.5" r="1.5"/><circle fill="#000" cx="21.5" cy="5.5" r="1.5"/><path d="M206 4v-.5c0-.3-.23-.5-.5-.5h-9c-.27 0-.5.22-.5.5v4c0 .3.23.5.5.5h9c.27 0 .5-.22.5-.5V7h.5c.28 0 .5-.22.5-.5v-2c0-.28-.22-.5-.5-.5h-.5z" fill="#000"/><rect fill="#957BE5" opacity=".5" x="80" y="352" width="51" height="6" rx="1"/><rect fill="#8593A1" opacity=".2" x="42" y="317" width="51" height="3" rx="1"/><rect fill="#8593A1" opacity=".15" x="42" y="324" width="35" height="3" rx="1"/><rect fill="#E9E7DC" opacity=".7" x="39" y="60" width="22" height="22" rx="1"/><rect fill="#E9E7DC" opacity=".7" x="39" y="87" width="22" height="14" rx="1"/><rect fill="#E9E7DC" opacity=".7" x="66" y="87" width="22" height="78" rx="1"/><path d="M145 214v-31c0-.56-.45-1-1-1h-38c-.55 0-1 .45-1 1v31c0 .18.05.35.13.5-.08.14-.13.3-.13.5v9c0 .56.45 1 1 1h30v18c0 .54.44 1 1 1h18c.54 0 1-.44 1-1v-18c0-.18-.05-.35-.13-.5.08-.14.13-.3.13-.5v-9c0-.56-.45-1-1-1h-10zM105 61c0-.55.46-1 1-1h27c.55 0 .87.44.73.96l-5.46 19.08c-.15.53-.7.96-1.27.96h-21c-.55 0-1-.44-1-1V61z" fill="#E9E7DC" opacity=".7"/><path d="M67 139.9h11.86v31.74c0 5.03 2.28 8.02 4.13 9.28-1.94 1.7-7.8 3.18-12.22-.44-2.6-2.12-3.78-5.66-3.78-8.96V139.9zm74.02 26.4v-3.35h3.63v-11.68h-3.98c-1.54-7.04-7.8-12.27-15.3-12.27-8.62 0-15.63 7-15.63 15.6v27.26c2.44.35 5.4-.04 7.88-2.12 2.6-2.13 3.78-5.67 3.78-8.97v-1.02h5.9v-11.68h-5.9v-3.54c0-2.2 1.78-3.97 3.98-3.97s3.98 1.77 3.98 3.97v11.72c0 8.6 7 15.6 15.64 15.6v-11.63c-2.2 0-3.98-1.77-3.98-3.93zM96.2 151.22v17.18c0 1-.84 1.78-1.82 1.78-1 0-1.8-.78-1.8-1.77v-17.17h-11.7v20.17c0 3.62 1.2 8.22 6.84 9.7 5.63 1.5 8.86-1.6 8.86-1.6-.3 2.05-2.2 3.54-5.3 3.85-2.38.24-5.37-.55-6.87-1.18v10.7c3.83 1.14 7.85 1.5 11.83.7 7.17-1.37 11.7-7.35 11.7-15.33v-27.1H96.2v.1z" fill-opacity=".24" fill="#CDCAB3"/><path d="M68.18 139.12h11.4v30.58c0 4.85 2.2 7.73 3.98 8.94-1.85 1.63-7.5 3.07-11.74-.4-2.5-2.06-3.64-5.47-3.64-8.65V139.1zm71.18 25.43v-3.22h3.48v-11.26h-3.82c-1.48-6.78-7.5-11.82-14.7-11.82-8.3 0-15.04 6.74-15.04 15.04v26.25c2.35.34 5.2-.04 7.58-2.04 2.5-2.04 3.63-5.45 3.63-8.63v-1h5.68v-11.24h-5.7v-3.4c0-2.13 1.72-3.84 3.84-3.84s3.82 1.7 3.82 3.82v11.3c0 8.3 6.75 15.03 15.04 15.03v-11.2c-2.12 0-3.82-1.72-3.82-3.8zm-43.1-14.52v16.56c0 .94-.8 1.7-1.75 1.7-.94 0-1.73-.76-1.73-1.7v-16.57H81.52v19.44c0 3.5 1.17 7.92 6.6 9.36 5.4 1.44 8.5-1.55 8.5-1.55-.3 1.97-2.1 3.4-5.1 3.7-2.28.24-5.16-.52-6.6-1.13v10.3c3.68 1.1 7.54 1.45 11.37.7 6.88-1.33 11.24-7.1 11.24-14.78v-26.1h-11.3v.06z" fill-opacity=".8" fill="url(#d)"/><path d="M39.14 263.5c-.1.15-.14.32-.14.5v21c0 .56.45 1 1 1h47c.55 0 1-.45 1-1v-21c0-.56-.45-1-1-1H49v-8c0-.54-.45-1-1-1h-8c-.54 0-1 .45-1 1v8c0 .18.05.35.14.5z" fill="#E9E7DC" opacity=".7"/><rect fill="#E9E7DC" opacity=".7" x="14" y="135" width="8" height="30" rx="1"/><rect fill="#E9E7DC" opacity=".7" x="182" y="199" width="24" height="12" rx="1"/><path d="M121 32V6c0-.56-.45-1-1-1h-14c-.56 0-1 .45-1 1v26c0 .2.05.35.13.5-.08.15-.13.3-.13.5v9c0 .56.45 1 1 1h20c.56 0 1-.45 1-1v-9c0-.56-.45-1-1-1h-5z" fill="#E9E7DC" opacity=".7"/><rect fill="#E9E7DC" opacity=".7" x="150" y="5" width="16" height="8" rx="1"/><rect fill="#E9E7DC" opacity=".7" x="173" y="278" width="8" height="8" rx="1"/><circle fill="url(#e)" cx="21" cy="322" r="14"/><circle fill="#FFF" cx="21" cy="322" r="12"/><path d="M24.3 323.93h-6.92c.1-.2.14-.42.14-.65 0-.85-.68-1.53-1.53-1.53-.86 0-1.55.68-1.55 1.53 0 .23.05.45.15.65h-.15c-.48 0-1.45-.8-1.45-1.3 0-.48 0-1.2.08-1.7.07-.43 3.3-1.93 4.2-1.93h2.67c.56 0 2.34.73 3 .97.63.24 1.6.97 2.8 1.13 1.22.16 1.4.16 1.8.24.4.08 1.44.9 1.44 1.54s.07 1.05-.33 1.05h-1.6c.1-.2.15-.42.15-.65 0-.85-.7-1.53-1.54-1.53-.85 0-1.53.68-1.53 1.53 0 .23.05.45.14.65zm-8.72-3.96c.12-.2 2.02-.65 2.35-.65.32 0 2.18 0 2.58.16.42.17 3.8 1.38 3.4 1.38h-5.08c-.65 0-3.48-.5-3.24-.9zm.4 4.36c.6 0 1.06-.47 1.06-1.05 0-.58-.47-1.05-1.05-1.05-.6 0-1.06.47-1.06 1.05 0 .58.47 1.05 1.05 1.05zm9.7 0c.58 0 1.05-.47 1.05-1.05 0-.58-.47-1.05-1.05-1.05-.58 0-1.05.47-1.05 1.05 0 .58.47 1.05 1.05 1.05z" fill="#5341A7"/><rect stroke="#E5E3D6" stroke-width="2" opacity=".3" x="1" y="1" width="209" height="373" rx="4"/></g></svg>