<svg width="23" height="23" viewBox="0 0 23 23" xmlns="http://www.w3.org/2000/svg"><path d="M1 11.5C1 14.54 5.68 17 11.46 17c5.77 0 10.45-2.46 10.45-5.5S17.24 6 11.47 6C5.68 6 1 8.46 1 11.5zm3.3 3.2c-.04 0-.07-.02-.1-.05l-.02-.1 1.08-5.5c0-.06.05-.1.1-.1H7.7c.72 0 1.26.2 1.6.6.34.38.45.93.3 1.6-.04.3-.13.55-.26.8-.13.22-.3.43-.5.63-.26.23-.55.4-.86.5-.3.1-.7.15-1.15.15h-.93L5.6 14.6c0 .05-.05.1-.1.1H4.3zm2.38-2.57c.46 0 .8-.08 1-.25.23-.16.37-.45.45-.84.07-.37.05-.63-.08-.77-.13-.15-.4-.22-.83-.22H6.5l-.4 2.08h.58zm5.67 1.1c-.04 0-.07-.02-.1-.04 0-.04-.02-.07 0-.1l.46-2.45c.05-.23.04-.4-.02-.46-.04-.06-.16-.13-.52-.13h-.85l-.6 3.07c0 .05-.05.1-.1.1H9.4c-.03 0-.06-.03-.08-.05-.02-.04-.03-.07-.02-.1l1.07-5.52c0-.05.05-.1.1-.1h1.2c.03 0 .07.02.1.05 0 .03.02.06 0 .1l-.25 1.32h.93c.7 0 1.18.13 1.45.38.3.26.38.68.27 1.24l-.5 2.57c0 .05-.06.1-.1.1h-1.22zm1.32 1.46c-.04 0-.07-.02-.1-.05 0-.02-.02-.06 0-.1l1.06-5.5c0-.06.05-.1.1-.1h2.32c.72 0 1.26.2 1.6.6.34.38.45.93.32 1.6-.06.3-.15.55-.28.8-.14.22-.3.43-.52.63-.25.23-.54.4-.84.5-.3.1-.7.15-1.16.15h-.93l-.27 1.37c0 .05-.06.1-.1.1h-1.2zm2.38-2.57c.46 0 .8-.08 1-.25.23-.16.37-.45.45-.84.07-.37.05-.63-.08-.77-.13-.15-.4-.22-.83-.22h-.74l-.4 2.08h.6z" fill="#8EB7D7" fill-rule="evenodd"/></svg>