<svg width="23" height="23" viewBox="0 0 23 23" xmlns="http://www.w3.org/2000/svg"><path d="M9.47 5.1C8.23 5.3 8 5.75 8 6.6v.9h3V8H7c-.85 0-1.56.6-1.8 1.58-.26 1.1-.27 1.8 0 2.95.2.87.7 1.47 1.57 1.47H8v-1.22c0-.96.84-1.8 1.83-1.8h2.7c.82 0 1.47-.68 1.47-1.48V6.63c0-.8-.67-1.38-1.47-1.5C12.03 5.03 11.5 5 11 5s-1.1.02-1.52.1zM9 6h1v1H9V6zm4.53 11.9c1.24-.2 1.47-.66 1.47-1.5v-.9h-3V15h4c.85 0 1.56-.6 1.8-1.58.26-1.1.27-1.8 0-2.95C17.6 9.6 17.1 9 16.23 9H15v1.22c0 .96-.84 1.8-1.83 1.8h-2.7c-.82 0-1.47.68-1.47 1.48v2.87c0 .8.67 1.38 1.47 1.5.5.1 1.02.13 1.52.13s1.1-.02 1.52-.1zM14 17h-1v-1h1v1z" fill="#8EB7D7" fill-rule="evenodd"/></svg>