<svg width="23" height="23" viewBox="0 0 23 23" xmlns="http://www.w3.org/2000/svg"><path d="M10.18 14.97C6.68 14.55 4 12.5 4 10.02 4 7.25 7.36 5 11.5 5c4.14 0 7.5 2.25 7.5 5.02 0 1.42-.88 2.7-2.28 3.6l1.74 2.95h-2.9l-1.03-1.95c-.57.17-1.17.3-1.8.36v1.6H10.2v-1.6zm0-1.48c-1.9-.56-3.23-1.74-3.23-3.1 0-1.9 2.55-3.44 5.7-3.44 3.15 0 5.47 1.06 5.47 3.44 0 1.3-.7 2.2-1.82 2.75l-.16-.1c-.27-.13-.72-.27-.72-.27s2.24-.16 2.24-2.4c0-2.22-2.34-2.26-2.34-2.26h-5.14v5.37zm2.56.33c.45 0 .9-.03 1.3-.07-.1-.14-.2-.28-.27-.34-.15-.12-.2-.16-.35-.16h-.68v.57zm1.57-3.88h-1.54v1.44h1.55s.72 0 .72-.74c0-.75-.7-.7-.7-.7z" fill="#8EB7D7" fill-rule="evenodd"/></svg>