<svg width="23" height="23" viewBox="0 0 23 23" xmlns="http://www.w3.org/2000/svg"><path d="M18.9 11.32l-.63-.4c0-.06 0-.12-.02-.18l.54-.5c.05-.05.07-.13.06-.2-.02-.08-.07-.14-.14-.16l-.7-.26c0-.06-.03-.12-.05-.18l.43-.6c.05-.06.06-.14.03-.2-.03-.08-.1-.13-.17-.14l-.73-.12-.08-.16.3-.68c.03-.06.03-.14 0-.2-.06-.07-.13-.1-.2-.1l-.74.02-.1-.14.16-.72c.02-.07 0-.15-.06-.2-.05-.06-.13-.08-.2-.06l-.72.17-.14-.1.02-.75c0-.07-.03-.14-.1-.2-.06-.03-.13-.03-.2 0l-.68.3-.16-.08-.12-.73c0-.08-.06-.14-.13-.17s-.15-.02-.2.03l-.6.43-.2-.06-.25-.7c-.02-.06-.08-.1-.16-.13-.07 0-.15 0-.2.07l-.5.55c-.06 0-.12 0-.2-.02l-.38-.63c-.03-.06-.1-.1-.18-.1-.07 0-.14.04-.18.1l-.4.63c-.05 0-.12 0-.18.02l-.5-.54c-.05-.05-.13-.07-.2-.06-.08.02-.14.07-.16.14l-.26.7c-.06 0-.12.03-.18.05l-.6-.43c-.06-.05-.14-.06-.2-.03-.08.03-.13.1-.14.17l-.12.73-.16.08-.68-.3c-.06-.03-.14-.03-.2 0-.07.06-.1.13-.1.2l.02.74-.14.1-.72-.16c-.07-.02-.15 0-.2.06-.06.05-.08.13-.06.2l.17.72-.1.14-.75-.02c-.07 0-.14.03-.2.1-.03.06-.03.14 0 .2l.3.68-.08.16-.73.12c-.08 0-.14.06-.17.13s-.02.15.03.2l.43.6-.06.2-.7.25c-.06.02-.1.08-.13.16 0 .07 0 .15.07.2l.55.5c0 .06 0 .13-.02.2l-.63.38c-.06.04-.1.1-.1.18 0 .08.04.15.1.18l.63.4c0 .06 0 .12.02.18l-.54.5c-.05.05-.07.13-.06.2.02.08.07.14.14.16l.7.26c0 .06.03.12.05.18l-.43.6c-.05.06-.06.14-.03.2.03.08.1.13.17.14l.73.12.08.16-.3.68c-.03.07-.03.14 0 .2.06.07.13.1.2.1l.74-.02.1.14-.16.72c-.02.07 0 .15.06.2.05.06.13.08.2.06l.72-.17.14.1-.02.75c0 .07.03.14.1.2.06.03.14.03.2 0l.68-.3.16.08.12.73c0 .08.06.14.13.17s.15.02.2-.03l.6-.43.2.06.25.7c.02.06.08.1.16.13.07 0 .15 0 .2-.07l.5-.55c.06 0 .12 0 .2.02l.38.63c.04.06.1.1.18.1.08 0 .15-.04.18-.1l.4-.63c.06 0 .12 0 .18-.02l.5.54c.05.05.13.07.2.06.08-.02.14-.07.16-.14l.26-.7c.06 0 .12-.03.18-.05l.6.43c.06.05.14.06.2.03.08-.03.13-.1.14-.17l.12-.73.16-.08.68.3c.07.03.14.03.2 0 .07-.06.1-.13.1-.2l-.02-.74.14-.1.72.16c.07.02.15 0 .2-.06.06-.05.08-.13.06-.2l-.17-.72.1-.14.75.02c.07 0 .14-.03.2-.1.03-.06.03-.13 0-.2l-.3-.68.08-.16.73-.12c.08 0 .14-.06.17-.13s.02-.15-.03-.2l-.43-.6.06-.2.7-.25c.06-.02.1-.08.13-.16 0-.07 0-.15-.07-.2l-.55-.5c0-.06 0-.12.02-.2l.63-.38c.06-.03.1-.1.1-.18 0-.07-.04-.14-.1-.18zm-4.22 5.22c-.24-.05-.4-.3-.34-.53.05-.23.3-.38.53-.33.24.05.4.3.34.53-.04.24-.28.4-.52.34zm-.2-1.45c-.23-.05-.45.1-.5.3l-.22 1.05c-.7.3-1.45.5-2.26.5-.83 0-1.6-.2-2.3-.52l-.23-1.05c-.05-.22-.27-.36-.5-.3l-.9.2c-.18-.2-.34-.37-.48-.57h4.47c.05 0 .08 0 .08-.05v-1.58c0-.05-.03-.06-.08-.06h-1.3v-1h1.4c.13 0 .7.04.88.76.05.22.18.94.26 1.17.1.26.44.78.8.78H15.92l-.5.6-.95-.2zm-6.2 1.42c-.25.05-.5-.1-.54-.34-.05-.25.1-.48.34-.53.24-.06.48.1.53.34.06.23-.1.47-.33.52zm-1.7-6.9c.1.23 0 .5-.24.6-.22.1-.48 0-.58-.23-.1-.24 0-.5.22-.6.23-.1.5 0 .6.22zm-.53 1.24l.96-.42c.2-.1.3-.33.2-.54l-.18-.45h.77v3.5H6.2c-.13-.47-.2-.98-.2-1.5 0-.2 0-.4.03-.6zm4.2-.34V9.5h1.86c.1 0 .68.1.68.53 0 .36-.44.5-.8.5h-1.72zm6.73.93v.4h-.57c-.05 0-.07.05-.07.1v.26c0 .62-.35.75-.65.78-.28.04-.6-.12-.64-.3-.17-.94-.45-1.14-.9-1.5.56-.34 1.13-.86 1.13-1.55 0-.75-.5-1.22-.86-1.45-.48-.32-1.02-.4-1.17-.4H7.4c.8-.87 1.87-1.5 3.08-1.72l.7.72c.14.16.4.17.56 0l.77-.72c1.62.3 2.98 1.3 3.76 2.67l-.52 1.2c-.1.2 0 .44.2.53l1.02.45.02.55zm-5.8-6c.17-.17.45-.16.62 0 .17.2.16.48-.02.65-.17.17-.46.16-.63-.02-.17-.18-.16-.46.02-.63zm5.2 4.2c.1-.23.37-.33.6-.23.22.1.32.36.22.6-.1.2-.37.3-.6.2-.22-.1-.32-.35-.22-.57z" fill="#8EB7D7" fill-rule="evenodd"/></svg>