<svg width="23" height="23" viewBox="0 0 23 23" xmlns="http://www.w3.org/2000/svg"><path d="M16.28 16.25h.38c0 1.1-.18 1.9-.54 2.4-.35.5-.8.76-1.35.76-.44 0-.86-.15-1.26-.48-.4-.33-.76-1.22-1.08-2.67l-.9-4.06-3.12 7.07H6.42l4.48-9.65c-.24-1.25-.52-2.18-.86-2.78-.33-.6-.75-.9-1.24-.9-.4 0-.75.15-1.04.45-.3.3-.46.76-.5 1.4h-.38c.02-1.02.23-1.84.62-2.45.4-.62.88-.93 1.46-.94.38 0 .74.17 1.07.47.34.3.63.84.88 1.6.26.75.65 2.3 1.17 4.66l.74 3.32c.3 1.38.63 2.3.96 2.76.32.47.72.7 1.2.7.77 0 1.2-.54 1.32-1.65z" fill="#8EB7D7" fill-rule="evenodd"/></svg>