<svg width="23" height="23" viewBox="0 0 23 23" xmlns="http://www.w3.org/2000/svg"><path d="M17.66 13.5s.7.78 1.03 1.77c.32 1 .32 2.2.26 2.23-.07.03-.87-1.37-2.28-1.37-1.42 0-2.13 1.37-4.63 1.37-5.6 0-8.05-4.7-8.05-4.7s2.48 1.8 5.07 1.74c2.6-.07 3.3-.83 3.3-.83s-1.15-.97-3.15-2.96C7.22 8.74 5.35 6 5.35 6s3 2.44 3.97 3.15c.97.72 1.93 1.36 1.93 1.36s-.93-1-1.6-1.83C9 7.83 7.33 5.34 7.33 5.34s2.57 2.38 3.75 3.32c1.17.94 3.42 2.54 3.42 2.54s1.36-3.16-1.27-7.2c6.38 4.2 4.43 9.5 4.43 9.5z" fill="#8EB7D7" fill-rule="evenodd"/></svg>