<svg xmlns="http://www.w3.org/2000/svg" viewBox="0 0 250 204"><path fill="#9BA9BB" fill-rule="evenodd" d="M78.62 203.59c94.34 0 145.94-78.16 145.94-145.94 0-2.22 0-4.43-.15-6.63A104.36 104.36 0 0 0 250 24.47a102.38 102.38 0 0 1-29.46 8.07 51.47 51.47 0 0 0 22.55-28.37 102.79 102.79 0 0 1-32.57 12.45 51.34 51.34 0 0 0-87.41 46.78A145.62 145.62 0 0 1 17.4 9.81a51.33 51.33 0 0 0 15.88 68.47A50.91 50.91 0 0 1 10 71.86v.65a51.31 51.31 0 0 0 41.15 50.28 51.21 51.21 0 0 1-23.16.88 51.35 51.35 0 0 0 47.92 35.62A102.92 102.92 0 0 1 0 180.55a145.21 145.21 0 0 0 78.62 23"/></svg>