<svg xmlns="http://www.w3.org/2000/svg" width="436" height="583" viewBox="0 0 436 583" xmlns:xlink="http://www.w3.org/1999/xlink"><defs><linearGradient id="b" x1="0%" y1="0%" y2="100%"><stop stop-color="#71D0FF" offset="0%"/><stop stop-color="#99F5E0" offset="100%"/></linearGradient><rect id="a" width="434" height="126" x="1" y="38"/></defs><g fill="none" fill-rule="evenodd"><rect width="436" height="583" fill="#FFFFFF" rx="5"/><use fill="#80D0F8" xlink:href="#a"/><use fill="url(#b)" xlink:href="#a"/><rect width="434" height="581" x="1" y="1" stroke="#ADBACC" stroke-opacity=".15" stroke-width="2" rx="4"/><rect width="107" height="8" x="44" y="80" fill="#40A9F1" fill-opacity=".08" rx="2"/><rect width="105" height="5" x="45" y="81" fill="#FFFFFF" rx="1"/><rect width="140" height="5" x="45" y="102" fill="#DEFAFE" fill-opacity=".5" rx="1"/><rect width="105" height="5" x="45" y="114" fill="#DEFAFE" fill-opacity=".5" rx="1"/><path fill="#47515C" d="M21.42 18.76l-.2.46-1.6 4.35c-.07.2-.13.43-.4.43-.28 0-.37-.2-.46-.42l-2.66-6.71c-.05-.12-.1-.25-.1-.37 0-.1.05-.23.13-.28.32-.23.93-.02 1.08.36l1.53 3.89.45 1.1c.1-.23.16-.36.2-.5l1.58-4.41c.04-.1.07-.22.13-.32.16-.26.5-.26.64.02.1.2.17.41.25.63l1.51 4.12.19.45.17-.39c.58-1.5 1.18-3.01 1.72-4.54.18-.49.5-.53.98-.43.3.06.3.3.2.54a423.34 423.34 0 0 1-2.68 6.79c-.1.22-.14.48-.46.47-.31-.02-.36-.28-.44-.5l-1.53-4.16-.23-.58zm31.55 1.12c.47.28.81.66.97 1.18.38 1.27-.33 2.43-1.65 2.69-.33.07-.67.1-1 .1h-3.1c-.46 0-.57-.11-.57-.56v-6.63c0-.28.05-.5.37-.5 1.2.03 2.42.04 3.62.09.27.01.55.13.8.25 1.3.6 1.61 2.12.7 3.22l-.14.16zm-4.17 2.95h1.17c.63-.02 1.27-.02 1.9-.08.63-.07.95-.41.99-.96.04-.56-.25-1-.83-1.17-.23-.08-.5-.12-.74-.13-.72-.02-1.44 0-2.15 0-.11 0-.22.02-.34.04v2.3zm.01-5.56v2.16c.94 0 1.86.04 2.76-.02.6-.03.82-.35.87-.95.05-.62-.28-1.1-.95-1.17-.87-.08-1.76-.02-2.68-.02zm67.65 3.78l-.03.47v1.69c0 .58-.42.86-.94.6-.11-.05-.2-.24-.21-.37-.03-.28-.01-.56-.01-.84v-5.8c0-.54.1-.64.63-.64h2.62c.82.02 1.55.29 2.1.92a2.33 2.33 0 0 1-.47 3.5l-.34.22c.06.1.1.2.17.29.5.68 1.02 1.35 1.51 2.03.1.14.2.4.14.52-.07.12-.32.17-.5.2-.35.07-.59-.08-.79-.37-.51-.72-1.05-1.42-1.57-2.14a.6.6 0 0 0-.56-.29c-.57.02-1.13 0-1.75 0zm0-1c.89-.04 1.76-.03 2.61-.14.65-.09 1-.58 1.02-1.17.02-.7-.36-1.26-1.06-1.44-.84-.2-1.7-.06-2.57-.09v2.84zm-23.73.78l1.65 2.2c.07.1.15.2.2.32.1.2.05.35-.15.44a.92.92 0 0 1-1.07-.24c-.53-.7-1.07-1.42-1.58-2.14-.19-.27-.4-.39-.73-.37-.53.03-1.07 0-1.65 0l-.03.49v1.85c0 .4-.12.47-.58.47-.47 0-.57-.07-.57-.47V16.7c0-.42.13-.54.57-.54h2.66c.7.01 1.33.2 1.87.67a2.34 2.34 0 0 1-.24 3.76l-.35.24zm-3.34-.85h2.39c.12-.01.25-.05.37-.1.61-.2.93-.67.89-1.31-.04-.61-.43-1.11-1.08-1.27-.84-.2-1.7-.07-2.57-.08v2.76zm-46.58.84c.56.75 1.1 1.46 1.61 2.18.16.21.5.43.17.75-.23.21-.87.13-1.09-.13-.15-.18-.29-.38-.43-.57l-1.28-1.73c-.14-.19-.28-.28-.52-.28-.6.02-1.18 0-1.83 0v2.37c0 .3-.13.45-.43.44h-.25c-.36-.01-.44-.09-.45-.46v-2.11-4.53c0-.54.05-.59.57-.59.9 0 1.8-.02 2.7 0 1.13.05 2.03.5 2.49 1.6a2.25 2.25 0 0 1-.9 2.84l-.36.22zm-3.32-3.57v2.77h1.85c.19 0 .37-.02.55-.05.55-.08.98-.34 1.17-.9.27-.84-.27-1.7-1.21-1.8-.77-.08-1.55-.02-2.36-.02zM101 19.4l1.88 2.44c.35.45.7.89 1.03 1.35.09.13.18.37.12.47-.07.12-.3.17-.47.2-.4.07-.68-.12-.93-.44-.7-.93-1.41-1.83-2.13-2.74l-.32-.4c-.5.54-.97 1.05-1.43 1.58-.07.08-.08.23-.08.36l-.01 1.18c-.02.4-.15.47-.64.46-.41 0-.52-.1-.52-.48v-6.72c0-.41.1-.48.55-.49.49 0 .6.08.6.49.02 1.04.01 2.09.01 3.13v.44l.1.04.3-.33c1.02-1.13 2.05-2.24 3.06-3.38.26-.3.54-.45.92-.38.16.03.37.1.44.22.05.09-.04.32-.14.43-.37.44-.77.86-1.16 1.29L101 19.39zm6.79-2.18v2.18c.17.01.33.03.5.03h3.2c.43 0 .58.17.56.56-.02.36-.15.49-.54.49h-3.74v2.3c.17.02.33.04.5.04h3.38c.45 0 .55.12.54.55 0 .36-.11.47-.48.5H107.16c-.44 0-.53-.1-.53-.52v-6.68c0-.44.05-.5.48-.5h4.52c.43 0 .5.08.5.5 0 .44-.07.54-.49.54h-3.84zm-22.52 6.64c-.3.06-.51-.11-.65-.42-.15-.35-.34-.68-.5-1.02-.1-.2-.21-.3-.45-.3h-3.55c-.23 0-.36.1-.46.3-.14.31-.3.62-.46.94-.25.48-.37.55-.9.5-.38-.03-.5-.21-.34-.56l.53-1.06 2.92-5.71c.1-.22.16-.52.49-.52.32 0 .37.3.48.52l3.2 6.28c.07.1.12.22.18.34.26.53.15.71-.49.71zm-1.8-2.76l-1.58-3.18-1.58 3.18h3.16zm-51.6 1.02h-1.73c-.25 0-.39.08-.48.3-.16.37-.34.72-.51 1.08-.18.35-.77.5-1.1.3-.22-.15-.16-.33-.06-.52l2.05-4.07c.48-.95.95-1.89 1.45-2.82.08-.16.26-.35.4-.36.13 0 .33.19.4.34 1.18 2.28 2.34 4.56 3.5 6.85.23.45.1.62-.42.65-.37.02-.61-.1-.76-.45-.14-.33-.32-.63-.46-.95-.1-.26-.26-.36-.54-.35-.58.02-1.16 0-1.74 0zm.04-4.2l-1.6 3.18h3.17l-1.57-3.19zm40.14 3.15v2.16c0 .58-.37.83-.9.6-.1-.04-.18-.18-.21-.28-.04-.12-.03-.25-.03-.38v-6.34c0-.6.06-.66.64-.66.88 0 1.75-.02 2.63 0 1.04.05 1.93.42 2.43 1.4.6 1.17.16 2.57-1.03 3.12-.48.22-1.02.32-1.55.37-.62.06-1.26.01-1.98.01zm.03-1.09c.88 0 1.71.09 2.53-.02.9-.12 1.35-1.05 1-1.86-.29-.65-.86-.85-1.52-.88-.56-.02-1.12 0-1.68 0-.11 0-.22.03-.33.05v2.71zm-12.82-.18l1.44-2.2.74-1.13c.2-.28.73-.43 1.01-.24.1.07.16.25.15.38 0 .12-.11.25-.19.36-.79 1.22-1.57 2.44-2.37 3.65-.16.25-.24.5-.23.8v1.72c0 .67-.04.73-.57.72-.5 0-.56-.07-.56-.7 0-.6.02-1.21 0-1.81a1.5 1.5 0 0 0-.22-.7c-.78-1.25-1.58-2.47-2.38-3.7-.06-.1-.14-.21-.18-.33-.08-.2 0-.35.21-.42.42-.15.8 0 1.05.37l1.8 2.77.3.46z"/><rect width="30" height="3" x="136" y="19" fill="#ADBACC" fill-opacity=".2" rx="1"/><rect width="30" height="3" x="178" y="19" fill="#ADBACC" fill-opacity=".2" rx="1"/><rect width="20" height="3" x="220" y="19" fill="#ADBACC" fill-opacity=".2" rx="1"/><rect width="434" height="2" x="1" y="164" fill="#ADBACC" fill-opacity=".08"/><rect width="432" height="2" x="2" y="202" fill="#F5F6F8"/><rect width="432" height="2" x="2" y="391" fill="#F5F6F8"/><rect width="37" height="3" x="348" y="19" fill="#ADBACC" fill-opacity=".2" rx="1"/><rect width="20" height="3" x="397" y="19" fill="#ADBACC" fill-opacity=".2" rx="1"/><rect width="10" height="10" x="15" y="179" stroke="#ADBACC" stroke-opacity=".4" stroke-width="2" rx="1"/><rect width="30" height="2" x="32" y="183" fill="#F5F6F8"/><path fill="#ADBACC" fill-opacity=".2" d="M135 179a1 1 0 0 1 1-1h38c.55 0 1 .46 1 1v10a1 1 0 0 1-1 1h-38c-.55 0-1-.46-1-1v-10zm42 0a1 1 0 0 1 1-1h38c.55 0 1 .46 1 1v10a1 1 0 0 1-1 1h-38c-.55 0-1-.46-1-1v-10zm42 0a1 1 0 0 1 1-1h38c.55 0 1 .46 1 1v10a1 1 0 0 1-1 1h-38c-.55 0-1-.46-1-1v-10zm42 0a1 1 0 0 1 1-1h38c.55 0 1 .46 1 1v10a1 1 0 0 1-1 1h-38c-.55 0-1-.46-1-1v-10z"/><circle cx="415" cy="183" r="4" stroke="#DEE3EA" stroke-width="2"/><path stroke="#DEE3EA" stroke-width="2" d="M417.5 185.5l3.5 3.5"/><g transform="translate(70 270)"><path fill="#5421FF" d="M40 3.73h-5.86C32.91 3.73 25.81 0 19.34 0 12.85 0 9.15.93 7.3 1.87 5.46 2.8.52 3.1.52 3.1S-.4 8.1.22 8.1c.6 0 3.08.31 3.08 3.73S6.38 28 19.64 28c13.27 0 16.97-14.31 16.97-16.8s-.62-3.42-.62-3.42V6.22h8.02v1.56s-.62.93-.62 3.42c0 2.49 3.7 16.8 16.97 16.8C73.62 28 76.7 15.24 76.7 11.82S79.17 8.1 79.8 8.1c.61 0-.31-4.98-.31-4.98s-4.94-.31-6.79-1.24C70.84.93 67.14 0 60.67 0c-6.48 0-13.58 3.73-14.81 3.73H40z" opacity=".5"/><circle cx="14" cy="49" r="5" stroke="#E6EAEF" stroke-width="2"/><circle cx="29" cy="49" r="3" fill="#ADBACC" fill-opacity=".3"/><circle cx="14" cy="49" r="3" fill="#B3A7E2"/></g><path fill="#FFD57F" d="M326 273.73h-5.86c-1.23 0-8.33-3.73-14.8-3.73-6.48 0-10.18.93-12.03 1.87-1.85.93-6.79 1.24-6.79 1.24s-.92 4.98-.3 4.98c.6 0 3.08.31 3.08 3.73S292.38 298 305.64 298c13.27 0 16.97-14.31 16.97-16.8s-.62-3.42-.62-3.42v-1.56h8.02v1.56s-.62.93-.62 3.42c0 2.49 3.7 16.8 16.97 16.8 13.26 0 16.34-12.76 16.34-16.18s2.47-3.73 3.09-3.73c.61 0-.31-4.98-.31-4.98s-4.94-.31-6.79-1.24c-1.85-.94-5.55-1.87-12.02-1.87-6.48 0-13.58 3.73-14.81 3.73H326z"/><circle cx="299" cy="319" r="5" stroke="#E6EAEF" stroke-width="2"/><circle cx="314" cy="319" r="3" fill="#ADBACC" fill-opacity=".3"/><circle cx="299" cy="319" r="3" fill="#FFD580"/><path fill="#B9F4BC" d="M110 462.73h-5.86c-1.23 0-8.33-3.73-14.8-3.73-6.48 0-10.18.93-12.03 1.87-1.85.93-6.79 1.24-6.79 1.24s-.92 4.98-.3 4.98c.6 0 3.08.31 3.08 3.73S76.38 487 89.64 487c13.27 0 16.97-14.31 16.97-16.8s-.62-3.42-.62-3.42v-1.56h8.02v1.56s-.62.93-.62 3.42c0 2.49 3.7 16.8 16.97 16.8 13.26 0 16.34-12.76 16.34-16.18s2.47-3.73 3.09-3.73c.61 0-.31-4.98-.31-4.98s-4.94-.31-6.79-1.24c-1.85-.94-5.55-1.87-12.02-1.87-6.48 0-13.58 3.73-14.81 3.73H110z"/><circle cx="84" cy="508" r="5" stroke="#E6EAEF" stroke-width="2"/><circle cx="99" cy="508" r="3" fill="#ADBACC" fill-opacity=".3"/><circle cx="84" cy="508" r="3" fill="#B9F4BC"/><path fill="#00A1F2" fill-opacity=".5" d="M326 462.73h-5.86c-1.23 0-8.33-3.73-14.8-3.73-6.48 0-10.18.93-12.03 1.87-1.85.93-6.79 1.24-6.79 1.24s-.92 4.98-.3 4.98c.6 0 3.08.31 3.08 3.73S292.38 487 305.64 487c13.27 0 16.97-14.31 16.97-16.8s-.62-3.42-.62-3.42v-1.56h8.02v1.56s-.62.93-.62 3.42c0 2.49 3.7 16.8 16.97 16.8 13.26 0 16.34-12.76 16.34-16.18s2.47-3.73 3.09-3.73c.61 0-.31-4.98-.31-4.98s-4.94-.31-6.79-1.24c-1.85-.94-5.55-1.87-12.02-1.87-6.48 0-13.58 3.73-14.81 3.73H326z"/><circle cx="299" cy="508" r="5" stroke="#E6EAEF" stroke-width="2"/><circle cx="314" cy="508" r="3" fill="#ADBACC" fill-opacity=".3"/><circle cx="299" cy="508" r="3" fill="#80D0F8"/><rect width="2" height="377" x="217" y="204" fill="#F5F6F8"/><path fill="#E6EAEF" d="M141 323.04l4.16-4.16a2.86 2.86 0 0 0 0-4.04 2.84 2.84 0 0 0-4.04.02h-.24a2.84 2.84 0 0 0-4.04-.02 2.86 2.86 0 0 0 0 4.04l4.16 4.16zm215 0l4.16-4.16a2.86 2.86 0 0 0 0-4.04 2.84 2.84 0 0 0-4.04.02h-.24a2.84 2.84 0 0 0-4.04-.02 2.86 2.86 0 0 0 0 4.04l4.16 4.16zm-215 189l4.16-4.16a2.86 2.86 0 0 0 0-4.04 2.84 2.84 0 0 0-4.04.02h-.24a2.84 2.84 0 0 0-4.04-.02 2.86 2.86 0 0 0 0 4.04l4.16 4.16zm215 0l4.16-4.16a2.86 2.86 0 0 0 0-4.04 2.84 2.84 0 0 0-4.04.02h-.24a2.84 2.84 0 0 0-4.04-.02 2.86 2.86 0 0 0 0 4.04l4.16 4.16z"/></g></svg>
