<?xml version="1.0" encoding="utf-8"?>
<!-- Generator: Adobe Illustrator 19.2.1, SVG Export Plug-In . SVG Version: 6.00 Build 0)  -->
<svg version="1.1" id="Layer_1" xmlns="http://www.w3.org/2000/svg" xmlns:xlink="http://www.w3.org/1999/xlink" x="0px" y="0px"
	 viewBox="0 0 700 2120" style="enable-background:new 0 0 700 2120;" xml:space="preserve">
<style type="text/css">
	.st0{fill:none;stroke:#898989;stroke-width:4;stroke-miterlimit:10;}
	.st1{fill:none;stroke:#898989;stroke-width:2;stroke-miterlimit:10;}
	.st2{fill:#898989;}
	.st3{fill:none;stroke:#6C6E73;stroke-width:5;stroke-miterlimit:10;}
	.st4{fill:none;stroke:#898989;stroke-width:5;stroke-miterlimit:10;}
	.st5{fill:none;stroke:#CCCCCC;stroke-width:2;stroke-miterlimit:10;}
</style>
<g>
	<g>
		<g>
			<path class="st0" d="M350,4c0,0-60.8,2.9-81,5.8c-20.3,2.9-46.3,25.1-46.3,25.1s-36.6,26-54,34.7s-33.8,20.3-40.5,40.5
				s-3.9,22.2-11.6,38.6s-9.6,75.2-9.6,75.2v54c0,0,0,42.4,5.8,54v38.6"/>
			<path class="st0" d="M131,347.3c0,0-9,21-37.9,40.6c0,0-15,11.3-26,24.3s-8,32-8,32l52.9-22v-16.6c0,0,8-9.7,14.3-2.3h4.7
				C131,403.3,138,361.7,131,347.3z"/>
			<path class="st1" d="M110.5,374c0,0-3.1,27.2,1.6,31.6"/>
			<path class="st0" d="M112,422.2c0,0-2.5,280.7-1.2,397.7c0,0,1.9,46.3,0,55.9c-1.9,9.6-3.9,47.6-3.9,98.4s5.8,67.5,5.8,67.5
				s3.9,12.2,5.8,27c1.9,14.8,7.7,59.8,13.5,75.2c5.8,15.4,5.8,23.1,5.8,23.1s-3.9,23.1,38.6,54s77.2,46.3,173.6,46.3"/>
			<path class="st0" d="M235.5,35.8c0,0-78.4,91.6-88.1,247.8c0,0,64.6-34.7,204.5-34.7"/>
			<path class="st0" d="M124.7,148.4c0,0-5.7-38.9,27.6-64.9c0,0,30.6-27.3,83.2-47.6l-18.3,18.3L159,97.8c0,0-11.4,9.3-20.9,26.3
				L124.7,148.4z"/>
			<path class="st1" d="M146,111.9c0,0-14.4,104.3-15,235.5"/>
			<path class="st0" d="M351.9,1219.2c-84.9,0.6-146.6-25.1-146.6-25.1c-12.9-48.2-25.1-194.8-25.1-194.8l-11.6-297
				c0,0-4.5-127.9-11.6-189s-12.2-156.9-11.6-191s1.9-38.6,1.9-38.6"/>
			<path class="st1" d="M126.4,403.3l1.8,270.1c0,0,1.9,329.8,42.4,434l-13.5-410.8c0,0-7.7-171.7-24.1-306.7"/>
			<path class="st1" d="M107,974.2c0,0,6.4,18.6,38.6,19.3l34.7,5.8H350"/>
			<line class="st1" x1="182.2" y1="1016.7" x2="350" y2="1016.7"/>
			<path class="st1" d="M108.9,665.6c0,0,8.7,6.8,19.3,7.7c0,0,17.4,17.4,28.9,23.1l11.6,5.8H350"/>
			<line class="st1" x1="166.8" y1="659.8" x2="350" y2="659.8"/>
			<path class="st1" d="M313.4,702.3c0,0-13.5,142.8,11.6,297.1"/>
			<path class="st1" d="M170.6,1107.3c0,0,9.6,85.8,5.8,113.8"/>
			<path class="st1" d="M204.4,1194.1c0,0,1.3,33.8,35.7,48.2c24.4,10.3,64.6,13.5,109.9,13.5"/>
			<path class="st1" d="M133,262.5c0,0,4.8,13.5,12.6,27"/>
		</g>
		<g>
			<path class="st0" d="M350,4c0,0,60.8,2.9,81,5.8c20.3,2.9,46.3,25.1,46.3,25.1s36.6,26,54,34.7s33.8,20.3,40.5,40.5
				s3.9,22.2,11.6,38.6c7.7,16.4,9.6,75.2,9.6,75.2v54c0,0,0,42.4-5.8,54v38.6"/>
			<path class="st0" d="M569,347.3c0,0,9,21,37.9,40.6c0,0,15,11.3,26,24.3s8,32,8,32l-52.9-22v-16.6c0,0-8-9.7-14.3-2.3H569
				C569,403.3,562,361.7,569,347.3z"/>
			<path class="st1" d="M589.5,374c0,0,3.1,27.2-1.6,31.6"/>
			<path class="st0" d="M588,422.2c0,0,2.5,280.7,1.2,397.7c0,0-1.9,46.3,0,55.9c1.9,9.6,3.9,47.6,3.9,98.4s-5.8,67.5-5.8,67.5
				s-3.9,12.2-5.8,27c-1.9,14.8-7.7,59.8-13.5,75.2c-5.8,15.4-5.8,23.1-5.8,23.1s3.9,23.1-38.6,54s-77.2,46.3-173.6,46.3"/>
			<path class="st0" d="M464.5,35.8c0,0,78.4,91.6,88.1,247.8c0,0-64.6-34.7-204.5-34.7"/>
			<path class="st0" d="M575.3,148.4c0,0,5.7-38.9-27.6-64.9c0,0-30.6-27.3-83.2-47.6l18.3,18.3L541,97.8c0,0,11.4,9.3,20.9,26.3
				L575.3,148.4z"/>
			<path class="st1" d="M554,111.9c0,0,14.4,104.3,15,235.5"/>
			<path class="st0" d="M348.1,1219.2c84.9,0.6,146.6-25.1,146.6-25.1c12.9-48.2,25.1-194.8,25.1-194.8l11.6-297
				c0,0,4.5-127.9,11.6-189s12.2-156.9,11.6-191c-0.6-34.1-1.9-38.6-1.9-38.6"/>
			<path class="st1" d="M573.6,403.3l-1.8,270.1c0,0-1.9,329.8-42.4,434l13.5-410.8c0,0,7.7-171.7,24.1-306.7"/>
			<path class="st1" d="M593,974.2c0,0-6.4,18.6-38.6,19.3l-34.7,5.8H350"/>
			<line class="st1" x1="517.8" y1="1016.7" x2="350" y2="1016.7"/>
			<path class="st1" d="M591.1,665.6c0,0-8.7,6.8-19.3,7.7c0,0-17.4,17.4-28.9,23.1l-11.6,5.8H350"/>
			<line class="st1" x1="533.2" y1="659.8" x2="350" y2="659.8"/>
			<path class="st1" d="M386.6,702.3c0,0,13.5,142.8-11.6,297.1"/>
			<path class="st1" d="M529.4,1107.3c0,0-9.6,85.8-5.8,113.8"/>
			<path class="st1" d="M495.6,1194.1c0,0-1.3,33.8-35.7,48.2c-24.4,10.3-64.6,13.5-109.9,13.5"/>
			<path class="st1" d="M567,262.5c0,0-4.8,13.5-12.6,27"/>
		</g>
	</g>
</g>
<g>
	<g>
		<g>
			<g>
				<path class="st2" d="M350,1878.5l3.7-20.9c3.5,0,4.7,0.4,4.8,2c0,0,2.4-0.9,3.6-2.7c-4.7-2.2-9.4-2.3-9.4-2.3l-2.7,3.3l0,0
					l-2.7-3.3c0,0-4.7,0.1-9.4,2.3c1.2,1.8,3.6,2.7,3.6,2.7c0.2-1.6,1.3-2,4.8-2L350,1878.5z"/>
			</g>
			<g>
				<path class="st2" d="M350,1853.7c3.8,0,8.1,0.6,12.6,2.5c0.6-1.1,0.7-1.5,0.7-1.5c-4.8-1.9-9.4-2.6-13.3-2.6l0,0
					c-3.9,0-8.4,0.7-13.3,2.6c0,0,0.2,0.6,0.7,1.5C341.9,1854.2,346.2,1853.6,350,1853.7L350,1853.7z"/>
			</g>
		</g>
		<path class="st0" d="M497.4,1843.4c9.4-8,18.2-11.6,30.6-14.3c12.4-2.7,46.4-9.6,53.7-11s13.9-3.3,21.8,0c0,0,3.6,11.4,3.6,24.2
			c0,12.9-5.4,13.8-13.8,14.7c-8.3,0.9-45.5,4.3-56.3,4.8s-14.2-0.8-23.5-5.2c-9.4-4.4-19.9-10-19.9-10L497.4,1843.4z"/>
		<path class="st3" d="M476.1,1861.7"/>
		<path class="st0" d="M476.1,1861.7c0,0-6.1-6-20.5-7.8s-48.1-5.1-105.6-5.1"/>
		<path class="st0" d="M350,1755c142,0,201.8,3.2,214.6,5c0,0,3.2-3.5-7.1-31.2s-30.5-82.6-49.3-89c0,0-54.1-7.7-158.2-7.7"/>
		<path class="st0" d="M506,1639.5c0,0,4.7-1.8,11.2,3.3c6.5,5.1,25,23.7,43.4,72.4c18.4,48.7,21.4,64.6,21.4,64.6s2.7,3.5,5.8,6.5
			s5.9,6.6,10.8,12.6c4.8,5.9,10.5,13.5,13.2,16s5.4,3.8,7.3,9.8c1.9,5.9,4,13.3,4,13.3s2.1,13.6,1.4,52c-0.8,38.5-8.1,94-8.1,94
			s-8.6,2.7-37.2,3.6s-68,1.7-68,1.7s-17.3-18.4-20.1-21.1c-2.7-2.7-4.5-3.8-12.4-3.8c-7.8,0-129.5,0-129.5,0"/>
		<path class="st1" d="M582,1779.8c0,0,5.9,6.6-0.3,38.3"/>
		<path class="st0" d="M581.7,1778.4c0,0,7.8-0.8,12.5-1.1c4.7-0.3,4.2,1,11.8,0.6s29.8-4.1,34.6-6.2c0,0,4.6-2.2,3.8-6.2
			c0,0-1.7-9.4-3.8-15.1s-4.6-6.9-12.4-8.9s-21.6-4.3-28.1-4.3c-6.6,0-8.2,5.3-8.5,10.3c-0.3,5.1-0.3,22.5-0.3,22.5
			c-4,0.5-7.6,1.2-11.2,2"/>
		<path class="st0" d="M623,1837.9c0,0,4.5,5.6,4.5,27.7c0,22.2-1.4,65.9-6.9,104.8s-7.4,47.8-16.4,47.8s-59.6,0-86.7,0
			c-19.2,0-12-5.1-41.4-5.1s-126.1,0-126.1,0"/>
		<line class="st0" x1="511" y1="1989.2" x2="350" y2="1989.2"/>
		<path class="st0" d="M627.1,1892.5c0,0,3.7,25.5,3.7,84s-3.7,77-6.2,81.1c-2.5,4.1-2.7,5.2-11.2,5.2c-8.4,0-46.4,0-53.2,0
			s-8.6-4.9-10.3-19.6c-1.7-14.6-2-25-2-25"/>
		<line class="st4" x1="567.3" y1="1972.4" x2="572.7" y2="1919.3"/>
		<path class="st4" d="M560.8,1937.9c1.2-9.2,2.2-16.9,2.2-16.9s33.4-5.8,36.8-6.5s3.4-0.3,3.2,2.2s-2.4,23.6-5.7,36.2
			s-8.5,18.4-22.4,19.2s-18.3,0.8-17.8-3.8c0.2-1.5,0.9-7.3,1.8-14.2"/>
		<g>
			<path class="st2" d="M536.2,1940.7l57-9.3l3.5-0.6l-0.7,3.5c-0.5,2.6-1.1,5.1-1.7,7.6c-0.3,1.3-0.6,2.5-1,3.9
				c-0.2,0.5-0.2,0.6-0.4,1.1c-0.2,0.4-0.4,0.9-0.6,1.2c-0.4,0.7-1,1.4-1.6,2c-1.3,1.1-2.8,1.7-4.2,2.1s-2.7,0.6-4.1,0.7l-7.7,0.6
				l-31,2.5v-0.3l30.7-4.9l7.7-1.2c1.2-0.2,2.4-0.5,3.5-0.9s2-0.9,2.6-1.5c0.3-0.3,0.5-0.7,0.7-1.1c0.1-0.2,0.2-0.4,0.2-0.6
				c0.1-0.2,0.2-0.7,0.2-0.8c0.2-1.2,0.4-2.5,0.6-3.7c0.4-2.5,0.7-5.1,1.1-7.6l2.8,2.9l-57.6,5V1940.7z"/>
		</g>
		<path class="st1" d="M603.5,1817.2c0,0,4.5,1.4,10,7.3c4.6,5,7.6,6.7,7.6,6.7"/>
		<g>
			<path class="st2" d="M566.7,1760.2c0,0,0,0-0.1,0.4c0,0.2-0.1,0.5-0.2,0.6c-0.1,0.1-0.1,0.3-0.2,0.5c-0.3,0.7-0.9,1.7-1.6,2.7
				c-0.7,1.1-1.6,2.3-2.7,3.7c-1.1,1.4-2.4,2.9-3.8,4.5c-1.4,1.6-3,3.3-4.7,5.1c-1.7,1.8-3.5,3.6-5.3,5.5c-0.9,0.9-1.9,1.9-2.9,2.9
				c-1,0.9-2,1.9-3,2.9s-2,1.9-3,2.9s-2.1,1.9-3.1,2.9c-2.1,1.9-4.1,3.9-6.2,5.7c-2.1,1.9-4.1,3.7-6,5.5c-4,3.5-7.6,6.8-10.8,9.6
				c-6.4,5.5-10.7,9.2-10.7,9.2s4.1-3.9,10.2-9.7c3-2.9,6.6-6.4,10.4-10c1.9-1.9,3.8-3.8,5.8-5.7c2-1.9,3.9-4,5.9-6c1-1,2-2,2.9-3
				c1-1,1.9-2,2.9-3s1.9-2,2.8-3c0.9-1,1.8-2,2.7-3c1.8-1.9,3.5-3.8,5-5.6c1.6-1.8,3-3.6,4.4-5.2c1.3-1.6,2.5-3.1,3.5-4.5
				c1-1.3,1.8-2.6,2.4-3.5c0.6-1,1-1.8,1.2-2.2c0-0.1,0.1-0.2,0.1-0.3c0-0.1,0,0,0,0c0,0.1,0-0.1,0-0.1L566.7,1760.2z"/>
		</g>
		<g>
			<path class="st2" d="M513.3,1904c0,0-2.2-2.8-5.6-6.8c-3.4-4-8-9.4-12.8-14.5c-2.4-2.6-4.8-5.1-7.1-7.5c-1.2-1.2-2.3-2.3-3.4-3.3
				c-1.1-1-2.1-2-3.1-2.9s-1.9-1.7-2.6-2.4c-0.8-0.7-1.5-1.3-2.1-1.8c-1.2-1-1.8-1.5-1.8-1.5l2.6-3c0,0,0.6,0.6,1.8,1.7
				c0.6,0.6,1.3,1.2,2,2c0.8,0.8,1.6,1.7,2.5,2.6c0.9,1,1.9,2.1,2.9,3.2s2.1,2.4,3.2,3.6c2.2,2.5,4.4,5.3,6.6,8
				c4.4,5.5,8.7,11.2,11.8,15.4C511.3,1901.1,513.3,1904,513.3,1904z"/>
		</g>
		<g>
			<path class="st2" d="M563.4,1923.4c0,0-0.9,0.1-2.5,0.4c-1.6,0.2-3.9,0.5-6.8,0.9c-2.9,0.4-6.5,0.8-10.6,1.3
				c-2,0.2-4.2,0.5-6.5,0.8c-1.1,0.1-2.3,0.3-3.5,0.4c-1.2,0.2-2.4,0.4-3.7,0.6c-4.8,0.8-10,2.3-15.4,4.3s-11.1,4.3-17.2,6.3
				c-6.1,1.9-12.6,3.3-19.3,4s-13.5,0.5-20.2,0.5c-13.5-0.1-27-0.1-39.6-0.2c-12.6,0-24.4,0-34.5,0s-18.5,0.1-24.4,0.1
				c-5.9,0.1-9.3,0.1-9.3,0.1v-2c0,0,3.4,0,9.3,0.1c5.9,0,14.3,0.1,24.4,0.1s21.9,0,34.5,0c12.6-0.1,26.1-0.1,39.6-0.2
				c6.8,0,13.5,0,20-0.8s12.8-2.2,18.7-4.3c5.9-2,11.5-4.4,16.9-6.6s10.8-3.9,15.9-5c1.2-0.2,2.5-0.5,3.6-0.7
				c1.2-0.2,2.4-0.4,3.6-0.6c2.3-0.4,4.4-0.7,6.5-1.1c4-0.7,7.6-1.3,10.5-1.8s5.2-0.9,6.7-1.2c1.5-0.3,2.3-0.5,2.3-0.5L563.4,1923.4
				z"/>
		</g>
		<path class="st1" d="M607.6,2017.7c-1.2,26.8-3.6,37.1-5.4,40c-2.4,4.1-2.7,5.2-11.2,5.2"/>
		<path class="st1" d="M619.6,1977.4c0,57.9-3.8,76.2-6.2,80.3s-2.7,5.2-11.2,5.2"/>
		<path class="st1" d="M596.4,2018.3c-1.2,26.4-3.6,36.5-5.3,39.4c-2.4,4.1-2.7,5.2-11.2,5.2"/>
		<path class="st1" d="M585.3,2018.3c-1.2,26.4-3.6,36.5-5.3,39.4c-2.4,4.1-2.7,5.2-11.2,5.2"/>
		<path class="st1" d="M572.7,2018.3c-1.2,26.4-3.6,36.5-5.3,39.4c-2.1,3.6-2.6,4.9-8.4,5.2"/>
		<path class="st1" d="M644.4,1765.5c0,0-9.5,0.8-26.4,2c-11,0.8-19.5,2.4-26.9,3.4"/>
		<path class="st1" d="M476.1,1861.7c0,0,7.1-7.3,16.5-15.3"/>
		<path class="st0" d="M202.6,1843.4c-9.4-8-18.2-11.6-30.6-14.3c-12.4-2.7-46.4-9.6-53.7-11s-13.9-3.3-21.8,0
			c0,0-3.6,11.4-3.6,24.2c0,12.9,5.4,13.8,13.8,14.7c8.3,0.9,45.5,4.3,56.3,4.8s14.2-0.8,23.5-5.2c9.3-4.4,19.9-10,19.9-10
			L202.6,1843.4z"/>
		<path class="st3" d="M224,1861.7"/>
		<path class="st0" d="M224,1861.7c0,0,6.1-6,20.5-7.8s48.1-5.1,105.6-5.1"/>
		<path class="st0" d="M350,1755c-142,0-201.8,3.2-214.6,5c0,0-3.2-3.5,7.1-31.2s30.5-82.6,49.3-89c0,0,54.1-7.7,158.2-7.7"/>
		<path class="st0" d="M194,1639.5c0,0-4.7-1.8-11.2,3.3c-6.5,5.1-25,23.7-43.4,72.4c-18.4,48.7-21.4,64.6-21.4,64.6
			s-2.7,3.5-5.8,6.5s-5.9,6.6-10.8,12.6c-4.8,5.9-10.5,13.5-13.2,16s-5.4,3.8-7.3,9.8c-1.9,5.9-4,13.3-4,13.3s-2.1,13.6-1.4,52
			c0.8,38.5,8.1,94,8.1,94s8.6,2.7,37.2,3.6s68,1.7,68,1.7s17.3-18.4,20.1-21.1c2.7-2.7,4.5-3.8,12.4-3.8c7.8,0,128.5,0,128.5,0"/>
		<path class="st1" d="M118.1,1779.8c0,0-5.9,6.6,0.3,38.3"/>
		<path class="st0" d="M118.4,1778.4c0,0-7.8-0.8-12.5-1.1c-4.7-0.3-4.2,1-11.8,0.6c-7.5-0.5-29.8-4.1-34.6-6.2c0,0-4.6-2.2-3.8-6.2
			c0,0,1.7-9.4,3.8-15.1c2.1-5.7,4.6-6.9,12.4-8.9s21.6-4.3,28.1-4.3c6.6,0,8.2,5.3,8.5,10.3c0.3,5.1,0.3,22.5,0.3,22.5
			c4,0.5,7.6,1.2,11.2,2"/>
		<path class="st0" d="M77,1837.9c0,0-4.5,5.6-4.5,27.7c0,22.2,1.4,65.9,6.9,104.8c5.6,38.9,7.4,47.8,16.4,47.8s59.6,0,86.7,0
			c19.2,0,12-5.1,41.4-5.1s126.1,0,126.1,0"/>
		<line class="st0" x1="189.1" y1="1989.2" x2="350" y2="1989.2"/>
		<path class="st0" d="M73,1892.5c0,0-3.7,25.5-3.7,84s3.7,77,6.2,81.1c2.5,4.1,2.7,5.2,11.2,5.2s46.4,0,53.2,0s8.6-4.9,10.3-19.6
			c1.7-14.6,2-25,2-25"/>
		<line class="st4" x1="132.7" y1="1972.4" x2="127.4" y2="1919.3"/>
		<path class="st4" d="M139.2,1937.9c-1.2-9.2-2.2-16.9-2.2-16.9s-33.4-5.8-36.8-6.5c-3.4-0.7-3.4-0.3-3.2,2.2
			c0.2,2.5,2.4,23.6,5.7,36.2s8.5,18.4,22.4,19.2c13.9,0.8,18.3,0.8,17.8-3.8c-0.2-1.5-0.9-7.3-1.8-14.2"/>
		<g>
			<path class="st2" d="M163.8,1941.3l-57.6-5l2.8-2.9c0.3,2.5,0.7,5.1,1.1,7.6c0.2,1.3,0.4,2.5,0.6,3.7c0,0.1,0.1,0.6,0.2,0.8
				c0.1,0.2,0.1,0.3,0.2,0.6c0.2,0.4,0.4,0.7,0.7,1.1c0.6,0.6,1.6,1.1,2.6,1.5c1.1,0.4,2.3,0.7,3.5,0.9l7.7,1.2l30.7,4.9v0.3
				l-31-2.5l-7.7-0.6c-1.4-0.1-2.7-0.3-4.1-0.7c-1.4-0.4-2.9-0.9-4.2-2.1c-0.7-0.5-1.2-1.2-1.6-2c-0.2-0.4-0.4-0.8-0.6-1.2
				c-0.2-0.5-0.2-0.5-0.4-1.1c-0.4-1.3-0.7-2.6-1-3.9c-0.6-2.6-1.1-5.1-1.7-7.6l-0.7-3.5l3.5,0.6l57,9.3L163.8,1941.3z"/>
		</g>
		<path class="st1" d="M96.6,1817.2c0,0-4.5,1.4-10,7.3c-4.6,5-7.6,6.7-7.6,6.7"/>
		<g>
			<path class="st2" d="M137.4,1759.8C137.4,1759.7,137.4,1759.9,137.4,1759.8L137.4,1759.8c0.1,0.2,0.1,0.3,0.1,0.4
				c0.2,0.5,0.6,1.3,1.2,2.2c0.6,1,1.4,2.2,2.4,3.5c1,1.4,2.2,2.9,3.5,4.5c1.4,1.6,2.8,3.4,4.4,5.2c1.6,1.8,3.3,3.7,5,5.6
				c0.9,1,1.8,2,2.7,3s1.9,2,2.8,3c1,1,1.9,2,2.9,3s2,2,2.9,3c2,2,3.9,4,5.9,6s3.9,3.9,5.8,5.7c3.8,3.7,7.3,7.1,10.4,10
				c6.1,5.8,10.2,9.7,10.2,9.7s-4.3-3.7-10.7-9.2c-3.2-2.8-6.9-6.1-10.8-9.6c-2-1.8-4-3.6-6-5.5c-2.1-1.9-4.1-3.8-6.2-5.7
				c-1-1-2.1-1.9-3.1-2.9s-2-1.9-3-2.9s-2-1.9-3-2.9s-1.9-1.9-2.9-2.9c-1.9-1.9-3.7-3.7-5.3-5.5c-1.7-1.7-3.2-3.5-4.7-5.1
				c-1.4-1.6-2.7-3.1-3.8-4.5s-2-2.6-2.7-3.7s-1.3-2-1.6-2.7c-0.1-0.2-0.2-0.4-0.2-0.5c-0.1-0.1-0.1-0.4-0.2-0.6
				c-0.1-0.4-0.1-0.4-0.1-0.4L137.4,1759.8z"/>
		</g>
		<g>
			<path class="st2" d="M186.8,1904c0,0,2-2.9,5.1-7.2c3.1-4.3,7.4-9.9,11.8-15.4c2.2-2.8,4.5-5.5,6.6-8c1.1-1.3,2.2-2.5,3.2-3.6
				s2-2.2,2.9-3.2s1.8-1.9,2.5-2.6c0.7-0.8,1.4-1.4,2-2c1.1-1.1,1.8-1.7,1.8-1.7l2.6,3c0,0-0.7,0.6-1.8,1.5
				c-0.6,0.5-1.3,1.1-2.1,1.8c-0.8,0.7-1.7,1.5-2.6,2.4c-0.9,0.9-2,1.9-3.1,2.9c-1.1,1.1-2.2,2.2-3.4,3.3c-2.3,2.4-4.7,4.9-7.1,7.5
				c-4.8,5.2-9.4,10.5-12.8,14.5C189,1901.2,186.8,1904,186.8,1904z"/>
		</g>
		<g>
			<path class="st2" d="M137.6,1918.5c0,0,0.8,0.2,2.3,0.5s3.8,0.7,6.7,1.2s6.4,1.1,10.5,1.8c2,0.3,4.2,0.7,6.5,1.1
				c1.2,0.2,2.3,0.4,3.6,0.6c1.2,0.2,2.4,0.4,3.6,0.7c5.1,1,10.5,2.8,15.9,5s11,4.6,16.9,6.6s12.2,3.5,18.7,4.3
				c6.5,0.8,13.2,0.8,20,0.8c13.5,0.1,27,0.1,39.6,0.2c12.6,0,24.4,0,34.5,0s18.5-0.1,24.4-0.1c5.9-0.1,9.3-0.1,9.3-0.1v2
				c0,0-3.4,0-9.3-0.1c-5.9,0-14.3-0.1-24.4-0.1s-21.9,0-34.5,0c-12.6,0.1-26.1,0.1-39.6,0.2c-6.7,0-13.5,0.2-20.2-0.5
				c-6.7-0.6-13.2-2-19.3-4c-6.1-1.9-11.8-4.3-17.2-6.3s-10.6-3.5-15.4-4.3c-1.2-0.2-2.5-0.4-3.7-0.6c-1.2-0.1-2.3-0.3-3.5-0.4
				c-2.3-0.3-4.5-0.5-6.5-0.8c-4.1-0.5-7.6-1-10.6-1.3c-2.9-0.4-5.2-0.7-6.8-0.9c-1.6-0.2-2.5-0.4-2.5-0.4L137.6,1918.5z"/>
		</g>
		<path class="st1" d="M92.4,2017.7c1.2,26.8,3.6,37.1,5.4,40c2.4,4.1,2.7,5.2,11.2,5.2"/>
		<path class="st1" d="M80.4,1977.4c0,57.9,3.8,76.2,6.2,80.3c2.4,4.1,2.7,5.2,11.2,5.2"/>
		<path class="st1" d="M103.6,2018.3c1.2,26.4,3.6,36.5,5.3,39.4c2.4,4.1,2.7,5.2,11.2,5.2"/>
		<path class="st1" d="M114.8,2018.3c1.2,26.4,3.6,36.5,5.3,39.4c2.4,4.1,2.7,5.2,11.2,5.2"/>
		<path class="st1" d="M127.3,2018.3c1.2,26.4,3.6,36.5,5.3,39.4c2.1,3.6,2.6,4.9,8.4,5.2"/>
		<path class="st1" d="M55.7,1765.5c0,0,9.5,0.8,26.4,2c11,0.8,19.5,2.4,26.9,3.4"/>
		<path class="st1" d="M224,1861.7c0,0-7.1-7.3-16.5-15.3"/>
		<path class="st0" d="M224,1861.7c0,0,92,3.2,97.8,3.5c5.8,0.3,9.1,1.4,14.2,5.5s14.1,13.1,14.1,13.1s9-8.9,14.1-13.1
			s8.3-5.2,14.2-5.5c5.8-0.3,97.8-3.5,97.8-3.5"/>
		<path class="st1" d="M145.2,2018.3c0,25.9,1.4,42.4,5.1,0"/>
		<path class="st1" d="M554.8,2018.3c0,25.9-1.4,42.4-5.1,0"/>
	</g>
</g>
<polyline class="st5" points="620,2095.3 620,2115 77.9,2115 77.9,2095.3 "/>
<polyline class="st5" points="107.9,1609.3 107.9,1589.6 590,1589.6 590,1609.3 "/>
<polyline class="st5" points="52.5,1529.6 52.5,1510 645,1510 645,1529.6 "/>
<polyline class="st5" points="666.3,2018.3 685.9,2018.3 685.9,2065.3 666.3,2065.3 "/>
<polyline class="st5" points="666.2,4 685.9,4 685.9,1267.4 666.2,1267.4 "/>
<polyline class="st5" points="31.1,1016.7 11.4,1016.7 11.4,219.5 31.1,219.5 "/>
<polyline class="st5" points="11.4,1267.3 11.4,1185.8 112.7,1185.8 "/>
</svg>
