<?xml version="1.0" encoding="utf-8"?>
<!-- Generator: Adobe Illustrator 16.0.0, SVG Export Plug-In . SVG Version: 6.00 Build 0)  -->
<!DOCTYPE svg PUBLIC "-//W3C//DTD SVG 1.1//EN" "http://www.w3.org/Graphics/SVG/1.1/DTD/svg11.dtd">
<svg version="1.1" id="レイヤー_1" xmlns="http://www.w3.org/2000/svg" xmlns:xlink="http://www.w3.org/1999/xlink" x="0px"
	 y="0px" width="2000px" height="700px" viewBox="0 0 2000 700" enable-background="new 0 0 2000 700" xml:space="preserve">
<path fill="#040000" d="M-424.318-715.387c-6.98-14.983-18.979-18.232-24.974-18.232c-22.208,0-30.188,17.225-30.188,39.942
	c0,22.72,9.475,39.945,30.188,39.945c11.997,0,21.469-4.5,27.726-19.479l27.962,14.229c-11.995,21.22-33.715,35.188-59.168,35.188
	c-39.69,0-67.153-25.202-67.153-69.883c0-43.938,29.195-69.896,65.901-69.896c25.208,0,46.932,9.249,59.64,32.438L-424.318-715.387z
	"/>
<path fill="#040000" d="M-232.37-693.677c0,44.681-29.213,69.883-70.654,69.883c-41.431,0-70.644-25.202-70.644-69.883
	c0-44.688,29.213-69.896,70.644-69.896C-261.583-763.571-232.37-738.365-232.37-693.677 M-334.719-693.677
	c0,22.72,9.479,39.943,31.694,39.943c22.22,0,31.701-17.227,31.701-41.443c0-21.218-9.481-38.442-31.701-38.442
	C-325.239-733.621-334.719-716.395-334.719-693.677"/>
<path fill="#040000" d="M-204.457-760.082h38.963v11.73c9.977-11.73,26.454-15.221,38.444-15.221
	c15.224,0,26.447,5.994,35.191,17.705c12.718-12.979,27.203-17.705,42.692-17.705c12.958,0,40.933,4.493,40.933,34.938v101.363
	h-38.955v-77.637c0-18.739-5.229-27.218-19.977-27.218c-12.967,0-19.702,9.734-19.702,23.222v81.633H-125.8v-83.146
	c0-12.971-4.003-21.709-18.979-21.709c-15.732,0-20.717,10.228-20.717,22.206v82.646h-38.963v-132.808H-204.457z"/>
<rect x="27.951" y="-760.082" fill="#040000" width="38.955" height="132.812"/>
<path fill="#040000" d="M104.307-760.082h38.947v11.73c9.979-11.73,26.442-15.221,38.43-15.221c31.465,0,40.196,18.21,40.196,38.192
	v98.104h-38.94v-83.144c0-12.971-3.989-21.709-18.971-21.709c-15.727,0-20.715,10.228-20.715,22.206v82.646h-38.947V-760.082
	L104.307-760.082z"/>
<path fill="#040000" d="M377.153-760.082v133.06c0,42.177-43.188,48.77-63.667,48.77c-39.93,0-60.897-18.575-61.14-51.022h40.433
	c0.241,14.491,8.498,21.749,22.459,21.749c14.974,0,24.218-4.268,24.218-23.744v-15.218c-8.49,8.231-24.953,10.979-36.694,10.979
	c-37.209,0-51.682-29.963-51.682-63.411c0-32.444,16.984-64.647,52.178-64.647c14.479,0,26.954,3.229,37.95,13.97v-10.48h35.945
	L377.153-760.082L377.153-760.082z M314.503-735.112c-12.237,0-24.478,6.979-24.478,35.676c0,15.988,3.499,35.458,23.973,35.458
	c24.958,0,25.712-21.719,25.712-35.458C339.71-726.378,326.48-735.112,314.503-735.112"/>
<path fill="#040000" d="M548.1-733.621h-23.203v65.157c0,10.477,5.234,13.221,12.239,13.221c4.226,0,9.712-0.492,11.713-0.734v30.7
	c-4.986,0.497-16.472,1.491-24.947,1.491c-33.218,0-37.969-20.723-37.969-39.946v-69.888H466.98v-23.972h18.949v-38.438h38.963
	v38.438h23.204L548.1-733.621L548.1-733.621z"/>
<path fill="#040000" d="M710.375-693.677c0,44.681-29.224,69.883-70.631,69.883c-41.46,0-70.678-25.202-70.678-69.883
	c0-44.688,29.217-69.896,70.678-69.896C681.151-763.571,710.375-738.365,710.375-693.677 M608.011-693.677
	c0,22.72,9.504,39.943,31.732,39.943c22.186,0,31.672-17.227,31.672-41.443c0-21.218-9.486-38.442-31.672-38.442
	C617.515-733.621,608.011-716.395,608.011-693.677"/>
<polygon fill="#040000" points="760.707,-805.016 898,-805.016 898,-770.566 851.566,-770.566 851.566,-627.27 807.131,-627.27 
	807.131,-770.566 760.707,-770.566 "/>
<path fill="#040000" d="M1028.24-693.677c0,44.681-29.188,69.883-70.607,69.883c-41.461,0-70.67-25.202-70.67-69.883
	c0-44.688,29.209-69.896,70.67-69.896C999.053-763.571,1028.24-738.365,1028.24-693.677 M925.912-693.677
	c0,22.72,9.479,39.943,31.721,39.943c22.199,0,31.687-17.227,31.687-41.443c0-21.218-9.482-38.442-31.687-38.442
	C935.396-733.621,925.912-716.395,925.912-693.677"/>
<polygon fill="#040000" points="1056.881,-627.27 1056.881,-805.016 1095.828,-805.016 1095.828,-715.387 1136.266,-760.082 
	1183.963,-760.082 1138.52,-709.661 1187.699,-627.27 1143.264,-627.27 1110.303,-680.95 1095.828,-666.225 1095.828,-627.27 "/>
<path fill="#040000" d="M1201.301-607.436c4.484,0.25,8.982,0.491,13.226,0.491c14.065,0,17.979-8.604,17.979-16.091
	c0-1.996-0.233-4.248-3.479-14.228l-38.959-122.818h40.944l21.459,101.357h0.494l21.729-101.357h42.188l-46.672,141.536
	c-6.729,20.217-15.242,41.551-38.205,41.551h-30.701v-30.439L1201.301-607.436L1201.301-607.436z"/>
<path fill="#040000" d="M1463.359-693.677c0,44.681-29.189,69.883-70.631,69.883c-41.438,0-70.646-25.202-70.646-69.883
	c0-44.688,29.213-69.896,70.646-69.896C1434.172-763.571,1463.359-738.365,1463.359-693.677 M1361.035-693.677
	c0,22.72,9.479,39.943,31.693,39.943c22.229,0,31.707-17.227,31.707-41.443c0-21.218-9.479-38.442-31.707-38.442
	C1370.516-733.621,1361.035-716.395,1361.035-693.677"/>
<path fill="#040000" d="M67.451-790.557c0,10.717-8.687,19.418-19.426,19.418c-10.726,0-19.423-8.701-19.423-19.418
	c0-10.727,8.697-19.414,19.423-19.414C58.766-809.971,67.451-801.284,67.451-790.557"/>
<g>
	<g>
		<path stroke="#000000" stroke-miterlimit="10" d="M643.252-320.469v116.325h-31.95v-116.325H643.252z"/>
		<path stroke="#000000" stroke-miterlimit="10" d="M707.826-320.469v16.2h0.675c4.05-6.75,9.299-11.661,15.75-14.736
			c6.447-3.073,13.05-4.612,19.8-4.612c8.55,0,15.563,1.163,21.038,3.487c5.474,2.326,9.788,5.551,12.938,9.675
			c3.147,4.127,5.358,9.15,6.637,15.075c1.273,5.927,1.913,12.486,1.913,19.688v71.55h-31.95v-65.699
			c0-9.599-1.501-16.764-4.5-21.487c-3.002-4.726-8.325-7.088-15.975-7.088c-8.701,0-15.001,2.588-18.9,7.763
			c-3.902,5.175-5.85,13.69-5.85,25.538v60.975h-31.95v-116.324h30.374V-320.469L707.826-320.469z"/>
		<path stroke="#000000" stroke-miterlimit="10" d="M955.323-320.469v21.375h-23.4v57.602c0,5.398,0.9,9,2.7,10.8s5.4,2.7,10.8,2.7
			c1.8,0,3.523-0.074,5.175-0.227c1.648-0.146,3.227-0.371,4.728-0.675v24.75c-2.7,0.45-5.702,0.749-9,0.9
			c-3.304,0.146-6.525,0.225-9.675,0.225c-4.95,0-9.643-0.338-14.063-1.013c-4.426-0.675-8.325-1.986-11.7-3.938
			c-3.375-1.946-6.04-4.725-7.985-8.324c-1.95-3.601-2.927-8.324-2.927-14.176v-68.625h-19.35v-21.375h19.35v-34.875h31.95v34.875
			L955.323-320.469L955.323-320.469z"/>
		<path stroke="#000000" stroke-miterlimit="10" d="M1011.57-364.793v60.524h0.676c4.05-6.75,9.225-11.661,15.523-14.736
			c6.301-3.073,12.447-4.612,18.448-4.612c8.552,0,15.563,1.163,21.037,3.487c5.478,2.326,9.788,5.551,12.938,9.675
			c3.147,4.127,5.358,9.15,6.638,15.075c1.271,5.927,1.913,12.486,1.913,19.688v71.55h-31.95v-65.7c0-9.598-1.501-16.763-4.5-21.486
			c-3.003-4.726-8.325-7.088-15.976-7.088c-8.701,0-15.001,2.588-18.899,7.763c-3.901,5.175-5.851,13.69-5.851,25.538v60.975h-31.95
			v-160.649h31.95L1011.57-364.793L1011.57-364.793z"/>
		<path stroke="#000000" stroke-miterlimit="10" d="M1156.242-232.043c4.799,4.65,11.699,6.976,20.699,6.976
			c6.446,0,12-1.61,16.648-4.838c4.647-3.224,7.499-6.638,8.55-10.237h28.125c-4.5,13.95-11.398,23.929-20.697,29.926
			c-9.305,6.001-20.555,9-33.75,9c-9.151,0-17.402-1.463-24.75-4.389c-7.354-2.925-13.577-7.087-18.678-12.486
			c-5.102-5.399-9.036-11.849-11.812-19.351c-2.777-7.499-4.162-15.75-4.162-24.75c0-8.698,1.424-16.798,4.274-24.3
			c2.848-7.499,6.896-13.985,12.147-19.463c5.249-5.475,11.51-9.787,18.787-12.938c7.274-3.149,15.335-4.725,24.188-4.725
			c9.898,0,18.522,1.912,25.875,5.737c7.349,3.824,13.389,8.965,18.11,15.411c4.729,6.451,8.137,13.804,10.238,22.051
			c2.099,8.252,2.848,16.875,2.25,25.875h-83.926C1148.817-244.193,1151.439-236.691,1156.242-232.043z M1192.355-293.243
			c-3.825-4.198-9.644-6.301-17.438-6.301c-5.103,0-9.338,0.864-12.713,2.588c-3.375,1.727-6.075,3.862-8.101,6.412
			c-2.024,2.553-3.452,5.253-4.274,8.101c-0.826,2.852-1.314,5.399-1.463,7.649h51.976
			C1198.842-282.893,1196.18-289.042,1192.355-293.243z"/>
		<path stroke="#000000" stroke-miterlimit="10" d="M1362.115-320.469v16.2h0.676c4.049-6.75,9.299-11.661,15.75-14.736
			c6.447-3.073,13.049-4.612,19.799-4.612c8.551,0,15.563,1.163,21.038,3.487c5.474,2.326,9.788,5.551,12.938,9.675
			c3.146,4.127,5.358,9.15,6.638,15.075c1.271,5.927,1.912,12.486,1.912,19.688v71.55h-31.949v-65.699
			c0-9.599-1.502-16.764-4.5-21.487c-3.003-4.726-8.326-7.088-15.976-7.088c-8.701,0-15.002,2.588-18.899,7.763
			c-3.902,5.175-5.851,13.69-5.851,25.538v60.975h-31.95v-116.324h30.374V-320.469z"/>
		<path stroke="#000000" stroke-miterlimit="10" d="M1508.363-232.043c4.799,4.65,11.699,6.976,20.699,6.976
			c6.444,0,11.998-1.61,16.647-4.838c4.647-3.224,7.498-6.638,8.55-10.237h28.125c-4.5,13.95-11.398,23.929-20.697,29.926
			c-9.306,6.001-20.556,9-33.75,9c-9.15,0-17.402-1.463-24.75-4.389c-7.354-2.925-13.577-7.087-18.678-12.486
			s-9.036-11.849-11.812-19.351c-2.777-7.499-4.163-15.75-4.163-24.75c0-8.698,1.424-16.798,4.275-24.3
			c2.848-7.499,6.896-13.985,12.147-19.463c5.248-5.475,11.511-9.787,18.787-12.938c7.272-3.149,15.336-4.725,24.188-4.725
			c9.898,0,18.521,1.912,25.875,5.737c7.349,3.824,13.389,8.965,18.111,15.411c4.728,6.451,8.137,13.804,10.236,22.051
			c2.1,8.252,2.848,16.875,2.25,25.875h-83.925C1500.938-244.193,1503.561-236.691,1508.363-232.043z M1544.475-293.243
			c-3.821-4.198-9.639-6.301-17.438-6.301c-5.104,0-9.337,0.864-12.712,2.588c-3.375,1.727-6.075,3.862-8.104,6.412
			c-2.021,2.553-3.448,5.253-4.271,8.101c-0.826,2.852-1.315,5.399-1.462,7.649h51.975
			C1550.961-282.893,1548.301-289.042,1544.475-293.243z"/>
		<path stroke="#000000" stroke-miterlimit="10" d="M1610.96-284.693c0.45-7.499,2.324-13.726,5.625-18.675
			c3.298-4.95,7.499-8.923,12.6-11.926c5.101-2.998,10.837-5.137,17.214-6.412c6.373-1.272,12.785-1.912,19.236-1.912
			c5.854,0,11.774,0.414,17.775,1.237c5.997,0.825,11.475,2.438,16.425,4.837c4.95,2.4,9,5.737,12.15,10.013
			c3.146,4.275,4.725,9.938,4.725,16.987v60.524c0,5.252,0.299,10.276,0.9,15.075c0.598,4.802,1.646,8.402,3.146,10.8h-32.396
			c-0.604-1.8-1.091-3.635-1.464-5.513c-0.375-1.874-0.642-3.786-0.786-5.737c-5.104,5.252-11.104,8.927-18,11.025
			c-6.901,2.099-13.95,3.148-21.15,3.148c-5.551,0-10.728-0.675-15.524-2.023c-4.803-1.352-9-3.449-12.601-6.301
			c-3.6-2.849-6.412-6.447-8.438-10.801c-2.023-4.349-3.035-9.522-3.035-15.523c0-6.601,1.158-12.038,3.485-16.313
			c2.322-4.274,5.321-7.686,9-10.237c3.675-2.549,7.875-4.461,12.602-5.737c4.726-1.272,9.482-2.285,14.288-3.037
			c4.799-0.749,9.521-1.351,14.175-1.8c4.646-0.45,8.772-1.125,12.375-2.025c3.6-0.899,6.446-2.211,8.55-3.938
			c2.101-1.723,3.072-4.236,2.925-7.537c0-3.449-0.562-6.188-1.688-8.213c-1.126-2.025-2.626-3.601-4.5-4.726
			c-1.877-1.125-4.05-1.874-6.524-2.25c-2.476-0.372-5.141-0.562-7.987-0.562c-6.301,0-11.25,1.35-14.851,4.05
			c-3.6,2.7-5.702,7.2-6.3,13.5H1610.96L1610.96-284.693z M1684.76-261.068c-1.35,1.202-3.037,2.138-5.062,2.813
			s-4.201,1.236-6.524,1.688c-2.328,0.45-4.764,0.826-7.312,1.125c-2.556,0.302-5.104,0.675-7.65,1.125
			c-2.401,0.45-4.764,1.051-7.088,1.8c-2.327,0.752-4.354,1.766-6.074,3.037c-1.727,1.276-3.115,2.892-4.163,4.838
			c-1.051,1.951-1.574,4.427-1.574,7.425c0,2.853,0.523,5.254,1.574,7.2c1.048,1.951,2.479,3.487,4.275,4.612s3.896,1.913,6.3,2.362
			c2.397,0.449,4.873,0.676,7.425,0.676c6.303,0,11.174-1.048,14.625-3.15c3.449-2.099,5.998-4.611,7.65-7.537
			c1.648-2.926,2.661-5.886,3.037-8.888c0.373-2.999,0.562-5.4,0.562-7.2L1684.76-261.068L1684.76-261.068z"/>
		<path stroke="#000000" stroke-miterlimit="10" d="M1780.833-320.469v21.602h0.449c1.498-3.602,3.521-6.938,6.075-10.013
			c2.549-3.073,5.474-5.699,8.772-7.875c3.298-2.174,6.823-3.86,10.575-5.063c3.747-1.199,7.646-1.8,11.699-1.8
			c2.1,0,4.423,0.376,6.976,1.125v29.699c-1.501-0.299-3.302-0.563-5.4-0.787c-2.103-0.226-4.127-0.338-6.073-0.338
			c-5.852,0-10.802,0.978-14.852,2.926c-4.05,1.951-7.313,4.612-9.787,7.987s-4.238,7.312-5.286,11.812
			c-1.053,4.5-1.575,9.376-1.575,14.625v52.425h-31.948v-116.324L1780.833-320.469L1780.833-320.469z"/>
		<path stroke="#000000" stroke-miterlimit="10" d="M1906.381-299.094v-21.375h19.125v-9c0-10.35,3.225-18.821,9.676-25.425
			c6.447-6.599,16.199-9.899,29.25-9.899c2.85,0,5.698,0.112,8.551,0.338c2.849,0.225,5.625,0.415,8.324,0.562v23.851
			c-3.752-0.449-7.647-0.675-11.699-0.675c-4.354,0-7.465,1.013-9.338,3.037c-1.879,2.024-2.812,5.438-2.812,10.237v6.976h22.05
			v21.375h-22.05v94.949h-31.95v-94.949L1906.381-299.094L1906.381-299.094z"/>
		<path stroke="#000000" stroke-miterlimit="10" d="M2081.205-204.143v-16.2h-0.676c-4.051,6.75-9.303,11.627-15.75,14.625
			c-6.451,2.999-13.051,4.5-19.801,4.5c-8.552,0-15.563-1.125-21.037-3.375c-5.479-2.25-9.787-5.435-12.938-9.562
			c-3.15-4.124-5.365-9.146-6.638-15.075c-1.276-5.924-1.912-12.486-1.912-19.688v-71.551h31.949v65.7
			c0,9.603,1.498,16.764,4.5,21.487c2.999,4.726,8.325,7.088,15.976,7.088c8.697,0,14.997-2.588,18.899-7.763
			c3.896-5.175,5.851-13.688,5.851-25.537v-60.977h31.95v116.325L2081.205-204.143L2081.205-204.143z"/>
		<path stroke="#000000" stroke-miterlimit="10" d="M2208.775-320.469v21.375h-23.398v57.602c0,5.398,0.898,9,2.699,10.8
			s5.397,2.7,10.801,2.7c1.8,0,3.521-0.074,5.175-0.227c1.648-0.146,3.227-0.371,4.728-0.675v24.75c-2.7,0.45-5.702,0.749-9,0.9
			c-3.303,0.146-6.524,0.225-9.678,0.225c-4.947,0-9.64-0.338-14.062-1.013c-4.426-0.675-8.325-1.986-11.7-3.938
			c-3.375-1.946-6.04-4.725-7.986-8.324c-1.949-3.601-2.926-8.324-2.926-14.176v-68.625h-19.351v-21.375h19.351v-34.875h31.95
			v34.875L2208.775-320.469L2208.775-320.469z"/>
		<path stroke="#000000" stroke-miterlimit="10" d="M2311.824-204.143v-16.2h-0.676c-4.053,6.75-9.305,11.627-15.75,14.625
			c-6.451,2.999-13.053,4.5-19.803,4.5c-8.55,0-15.562-1.125-21.037-3.375c-5.478-2.25-9.788-5.435-12.938-9.562
			c-3.15-4.124-5.365-9.146-6.641-15.075c-1.273-5.924-1.912-12.486-1.912-19.688v-71.551h31.949v65.7
			c0,9.603,1.498,16.764,4.5,21.487c2.999,4.726,8.325,7.088,15.979,7.088c8.695,0,14.997-2.588,18.896-7.763
			s5.854-13.688,5.854-25.537v-60.977h31.947v116.325L2311.824-204.143L2311.824-204.143z"/>
		<path stroke="#000000" stroke-miterlimit="10" d="M2405.872-320.469v21.602h0.449c1.498-3.602,3.521-6.938,6.075-10.013
			c2.549-3.073,5.474-5.699,8.772-7.875c3.298-2.174,6.823-3.86,10.575-5.063c3.747-1.199,7.646-1.8,11.697-1.8
			c2.102,0,4.425,0.376,6.978,1.125v29.699c-1.501-0.299-3.302-0.563-5.397-0.787c-2.104-0.226-4.127-0.338-6.075-0.338
			c-5.853,0-10.8,0.978-14.853,2.926c-4.05,1.951-7.312,4.612-9.787,7.987c-2.475,3.375-4.238,7.312-5.288,11.812
			c-1.051,4.5-1.573,9.376-1.573,14.625v52.425h-31.948v-116.324L2405.872-320.469L2405.872-320.469z"/>
		<path stroke="#000000" stroke-miterlimit="10" d="M2502.172-232.043c4.799,4.65,11.7,6.976,20.7,6.976
			c6.448,0,11.999-1.61,16.649-4.838c4.646-3.224,7.5-6.638,8.551-10.237h28.125c-4.5,13.95-11.401,23.929-20.7,29.926
			c-9.302,6.001-20.552,9-33.75,9c-9.151,0-17.402-1.463-24.75-4.389c-7.351-2.925-13.577-7.087-18.675-12.486
			c-5.104-5.399-9.039-11.849-11.813-19.351c-2.777-7.499-4.162-15.75-4.162-24.75c0-8.698,1.424-16.798,4.274-24.3
			c2.848-7.499,6.896-13.985,12.147-19.463c5.249-5.475,11.512-9.787,18.787-12.938c7.274-3.149,15.335-4.725,24.188-4.725
			c9.897,0,18.521,1.912,25.875,5.737c7.348,3.824,13.388,8.965,18.11,15.411c4.728,6.451,8.138,13.804,10.237,22.051
			c2.102,8.252,2.851,16.875,2.25,25.875h-83.926C2494.747-244.193,2497.37-236.691,2502.172-232.043z M2538.285-293.243
			c-3.825-4.198-9.644-6.301-17.438-6.301c-5.102,0-9.338,0.864-12.713,2.588c-3.375,1.727-6.075,3.862-8.1,6.412
			c-2.025,2.553-3.453,5.253-4.275,8.101c-0.825,2.852-1.312,5.399-1.463,7.649h51.979
			C2544.771-282.893,2542.109-289.042,2538.285-293.243z"/>
	</g>
	<path fill="#040000" d="M644.552-352.197c0,9.531-7.727,17.271-17.273,17.271c-9.539,0-17.274-7.738-17.274-17.271
		c0-9.54,7.735-17.266,17.274-17.266C636.828-369.462,644.552-361.737,644.552-352.197"/>
</g>
<g>
	<path fill="#FF4500" d="M15.292,10.612H91.63c54.451,0,87.024,33.073,87.024,88.031c0,58.189-33.058,89.515-87.024,89.515H15.292
		V10.612z M61.529,148.377H83.41c35.073-0.738,48.993-14.425,48.993-49.975c0-32.328-17.401-48.008-48.993-48.008H61.529V148.377z"
		/>
	<path fill="#FF4500" d="M248.043,10.612h46.998l66.394,177.557h-48.237l-10.949-31.835h-61.9l-11.204,31.835H181.64L248.043,10.612
		z M251.023,122.01h40.292l-19.648-62.155h-0.497L251.023,122.01z"/>
	<polygon fill="#FF4500" points="451.471,188.158 398.251,188.158 342.3,10.612 390.531,10.612 425.347,142.646 425.85,142.646 
		460.661,10.612 508.9,10.612 	"/>
	<rect x="527.218" y="10.612" fill="#FF4500" width="46.244" height="177.557"/>
	<path fill="#FF4500" d="M608.544,10.612h76.338c54.438,0,87.013,33.073,87.013,88.031c0,58.189-33.059,89.515-87.013,89.515
		h-76.338V10.612z M654.781,148.377h21.874c35.075-0.738,48.983-14.425,48.983-49.975c0-32.328-17.385-48.008-48.983-48.008h-21.874
		V148.377z"/>
	<path fill="#FF4500" d="M858.317,10.612h83.05c30.591-0.488,64.16,7.457,64.16,44.516c0,15.91-9.442,28.843-23.37,35.807
		c18.892,5.477,30.579,21.871,30.579,42.019c0,42.278-31.079,55.206-69.141,55.206h-85.279L858.317,10.612L858.317,10.612z
		 M904.578,80.487h35.795c7.961,0,18.895-4.229,18.895-16.91c0-12.923-9.184-17.149-18.895-17.149h-35.795V80.487z M904.578,151.119
		h37.04c14.684,0,24.875-5.234,24.875-19.909c0-15.663-10.946-20.88-24.875-20.88h-37.04V151.119z"/>
	<path fill="#FF4500" d="M1123.448,6.888c55.956,0,87.54,41.026,87.54,92.504c0,51.467-31.584,92.489-87.54,92.489
		c-55.944,0-87.521-41.022-87.521-92.489C1035.926,47.915,1067.5,6.888,1123.448,6.888 M1123.448,152.097
		c29.85,0,41.295-26.355,41.295-52.705c0-26.365-11.445-52.732-41.295-52.732c-29.822,0-41.275,26.367-41.275,52.732
		C1082.17,125.739,1093.625,152.097,1123.448,152.097"/>
	<polygon fill="#FF4500" points="1402.378,188.158 1359.311,188.158 1336.151,78.169 1335.646,78.169 1313.261,188.158 
		1267.472,188.158 1221.082,10.612 1263.317,10.612 1290.586,123.383 1291.232,127.655 1291.735,127.655 1292.37,123.397 
		1317.832,10.612 1353.399,10.612 1378.864,123.383 1379.494,127.655 1380.007,127.655 1380.629,123.397 1405.908,10.612 
		1444.602,10.612 	"/>
	<rect x="1464.011" y="10.612" fill="#FF4500" width="46.237" height="177.557"/>
	<polygon fill="#FF4500" points="1545.327,10.612 1680.439,10.612 1680.439,47.669 1591.573,47.669 1591.573,78.75 1672.233,78.75 
		1672.233,114.549 1591.573,114.549 1591.573,148.377 1686.916,148.377 1686.916,188.168 1545.327,188.168 	"/>
	<polygon fill="#FF4500" points="1777.701,59.11 1817.293,59.11 1802.355,188.158 1762.781,188.158 	"/>
	<path fill="#FF4500" d="M1935.049,94.852c-7.693-9.206-24.354-14.179-36.543-14.179c-9.688,0-16.654,3.478-16.654,10.2
		c0,22.636,68.729,3.979,68.729,53.453c0,34.818-30.853,47.249-59.695,47.249c-28.842,0-45.232-8.215-64.644-26.099l24.118-20.888
		c11.944,11.429,24.116,18.648,41.768,18.648c6.485,0,21.142-1.489,21.142-13.433c0-20.644-68.698-4.226-68.698-51.232
		c0-33.317,29.083-46.243,55.933-46.243c20.396,0,40.535,7.211,58.423,19.144L1935.049,94.852z"/>
	<path fill="#FF4500" d="M1821.041,28c0,11.651-9.449,21.096-21.095,21.096c-11.677,0-21.132-9.441-21.132-21.096
		c0-11.658,9.455-21.103,21.132-21.103C1811.592,6.899,1821.041,16.342,1821.041,28"/>
</g>
<path fill="#040000" d="M59.416,652.355h-34.87v-5.646c-1.363,0.887-4.053,2.479-8.331,4.401c-0.827-1.17-3.71-5.312-7.641-8.269
	c10.462-3.035,24.105-13.849,27.909-21.412l12.25,1.526c0.414,0.07,0.894,0.271,0.894,0.886c0,0.765-0.894,1.099-1.375,1.248
	c8.752,9.414,19.15,14.03,27.415,16.586c-3.651,2.207-6.688,8.265-6.83,8.606c-1.509-0.547-5.003-1.938-9.422-4.485L59.416,652.355
	L59.416,652.355z M13.403,674.323c1.986-0.073,4.68-0.119,10.745-0.349c2.534-5.024,3.704-8.334,4.337-10.055H13.741v-9.084h56.628
	v9.084H56.167c7.667,6.336,12.478,12.952,14.329,15.498c-4.266,2.887-7.086,6.271-7.988,7.303c-0.901-1.438-2.407-3.797-4.821-6.89
	c-7.921,1.308-23.215,3.361-39.738,4.414c-0.552,1.236-0.839,1.929-1.603,1.929c-0.544,0-0.812-0.631-0.879-1.106L13.403,674.323z
	 M55.206,643.27c-6.758-4.416-11.703-9.311-13.562-11.092c-3.994,3.99-8.271,8.106-12.272,11.092H55.206z M50.802,663.922h-8.957
	c0,0.606-0.201,1.043-1.661,1.312c-1.229,2.767-2.75,5.381-4.273,8.069c6.963-0.574,11.099-1.051,14.474-1.469
	c-1.937-1.724-3.025-2.685-4.344-3.771L50.802,663.922z"/>
<path fill="#040000" d="M113.268,666.67c-3.919,4.971-6.609,7.102-8.122,8.346c-3.234-3.182-4.612-3.862-6.479-4.606
	c1.248-0.979,2.265-1.729,3.871-3.116c-4.281,1.86-9.508,3.86-15.097,5.729c0,0.819-0.261,1.795-1.025,1.795
	c-0.682,0-0.965-0.903-1.092-1.586l-2.354-9.718c2.69-0.274,3.372-0.483,7.802-1.442v-15.638h-7.101v-8.972h7.101v-14.305
	l10.16,0.549c0.846,0.068,1.457,0.14,1.457,0.756c0,0.479-0.402,0.822-1.457,1.314v11.686h6.133v8.972h-6.133v12.521
	c1.673-0.678,2.694-1.084,4.355-1.854h-0.469v-6.948h41.74v6.948h-26.673l-1.304,2.222h27.474c0,6.942-0.194,20.735-4.672,24.242
	c-2.616,2.059-7.034,2.28-11.375,2.28c-0.131-1.592-0.406-4.485-1.855-7.455c-2.351,3.175-4.758,5.584-8.193,8.612
	c-1.792-1.932-2.895-2.479-7.295-4.407c6.401-4.61,10.611-9.156,14.523-15.92h-3.093c-6.896,11.86-15.566,16.815-18.118,18.258
	c-2.194-2.823-2.75-3.369-6.062-5.508c2.333-1.104,10.402-4.955,16.058-12.75L113.268,666.67L113.268,666.67z M106.994,657.096
	c-0.399,2.354-0.529,4.611-0.462,6.142c1.506-1.854,2.608-3.44,4.195-6.142H106.994z M141.722,647.877h-32.157v-24.238h32.157
	V647.877z M132.422,630.773H118.86v2.36h13.562V630.773z M118.861,640.991h13.562v-2.351h-13.562V640.991L118.861,640.991z
	 M135.109,666.67c-1.505,2.977-2.687,5.508-5.443,9.584c0.827,0.063,1.598,0.146,2.41,0.146c1.394,0,2.623-0.146,3.1-1.722
	c0.425-1.315,1.11-4.563,1.248-8.008H135.109z"/>
<path fill="#040000" d="M212.985,649.391h-46.58v-3.146h46.58V649.391z M212.985,661.098h-46.58v-3.151h46.58V661.098z"/>
<path fill="#040000" d="M281.661,650.697c-0.138,0.541-0.548,0.819-1.65,1.25v2.83h8.893v8.931h-8.893v13.1
	c0,8.123-3.23,8.675-16.122,8.89c-0.484-3.591-2.888-8.412-3.849-10.399c1.572,0.209,3.502,0.481,6.047,0.481
	c3.249,0,3.249-0.687,3.249-4.214v-7.854H232.69v-8.931h36.646v-4.08h-40.033v-8.959h25.775v-3.86h-18.949V629h18.949v-6.59
	l11.01,0.68c0.834,0.07,1.39,0.209,1.39,0.828c0,0.614-0.905,0.973-1.654,1.237V629h19.482v8.879h-19.482v3.86h25.894v8.959
	L281.661,650.697L281.661,650.697z M245.279,664.059c2.973,2.41,8.405,8.119,10.902,11.849c-3.729,2.771-5.231,4.146-8.271,7.444
	c-1.17-1.727-5.313-7.987-11.162-12.536L245.279,664.059z"/>
<path fill="#040000" d="M312.656,681.354v2.55h-10.745v-57.847h57.719v57.847h-11.02v-2.55H312.656z M325.815,636.168h-13.159
	v13.633h13.159V636.168z M325.815,658.764h-13.159V672.4h13.159V658.764z M348.61,636.168h-13.16v13.633h13.16V636.168z
	 M335.45,672.387h13.16v-13.633h-13.16V672.387z"/>
<path fill="#040000" d="M396.56,684.383v1.506h-9.575v-13.217c-0.618,1.793-2.891,8-7.992,13.217
	c-2.403-2.19-6.122-3.989-8.815-4.68c9.646-9.781,9.706-19.765,9.706-24.445v-13.698h46.146v22.026h-37.045
	c-0.201,1.244-0.283,1.664-0.41,2.287h40.298v18.51h-10.335v-1.506H396.56z M416.672,640.782h-26.997v-2.547
	c-6.818,3.312-11.297,4.328-13.778,4.813c-1.803-3.927-4.62-6.543-5.648-7.496c11.084-1.722,21.147-6.826,28.513-13.485
	l10.123,0.553c0.353,0,1.792,0.127,1.521,1.64c4.609,4.211,15.292,9.438,25.28,11.297c-1.386,1.371-4.001,4.256-5.38,7.496
	c-6.188-1.438-12.332-4.332-13.636-4.951L416.672,640.782L416.672,640.782z M389.675,651.866h26.378v-2.42h-26.378V651.866z
	 M416.053,656.545h-26.378v2.838h26.378V656.545z M410.204,634.641c-3.111-1.848-5.246-3.575-7.035-5.086
	c-1.852,1.58-3.994,3.31-6.825,5.086H410.204z M418.534,674.465H396.56v2.828h21.978L418.534,674.465L418.534,674.465z"/>
<path fill="#040000" d="M487.621,637.893H507.8v7.021h-20.179v2.476h15.913v22.728h-15.913v2.487h20.854v7.5h-20.854v5.738H478.4
	v-5.738h-19.438v-7.5H478.4v-2.487h-16.248v-22.728H478.4v-2.476h-17.772v-7.021H478.4v-2.705h-19.866v19.236
	c0,17.846-2.399,24.726-5.563,31.055c-3.714-2.28-4.892-2.553-9.571-3.711c1.922-3.45,5.373-9.858,5.373-25.823v-28.297H472.6
	v-5.261l10.533,0.291c0.566,0,1.606,0.06,1.606,1.026c0,0.619-0.693,0.962-1.606,1.438v2.505h25.343v7.541h-20.231
	c-0.146,0.073-0.41,0.146-0.622,0.146L487.621,637.893L487.621,637.893z M478.4,653.381h-6.77v2.549h6.77V653.381z M478.4,661.506
	h-6.77v2.639h6.77V661.506z M487.621,655.943h6.412v-2.556h-6.412V655.943z M487.621,664.145h6.412v-2.639h-6.412V664.145z"/>
<path fill="#040000" d="M564.819,676.969c-4.344,5.621-10.063,7.76-15.54,7.76c-17.519,0-27.824-13.071-27.824-29.348
	c0-16.772,10.309-29.813,27.824-29.813c11.594,0,22.503,7.114,23.852,19.932h-11.863c-1.427-6.25-6.125-9.485-11.985-9.485
	c-11.188,0-15.392,9.485-15.392,19.369c0,9.396,4.203,18.883,15.392,18.883c8.1,0,12.787-4.344,13.509-12.123H550.25v-9.276h23.763
	v30.563h-7.921L564.819,676.969z"/>
<path fill="#040000" d="M610.001,683.426h-11.218v-35.965h-13.938v-8.466c7.835,0.154,15.045-2.541,16.237-11.016h8.919V683.426z"/>
<path fill="#040000" d="M677.557,641.947c0.398,0.345,0.809,0.69,0.809,1.031c0,0.354-0.466,0.829-1.021,0.829
	c-0.354,0-0.556-0.063-1.386-0.206c-9.221,5.521-24.784,11.438-35.738,13.026v10.94c0,5.103,1.644,5.103,13.431,5.103
	c8.474,0,16.938-0.216,25.426-1.382c-1.047,4.14-1.387,7.437-1.46,11.017c-2.481,0.154-5.984,0.358-12.266,0.358
	c-27.616,0-28.938-0.771-31.892-2.428c-3.991-2.192-4.558-6.19-4.558-11.502v-44.479l11.315,0.687
	c0.824,0.067,1.389,0.067,1.389,0.7c0,0.683-0.709,1.093-1.389,1.507v19.483c7.497-1.572,19.694-5.506,28.245-12.265
	L677.557,641.947z M672.37,625.982c2.139,1.646,5.651,5.151,7.021,6.745c-0.392,0.328-3.014,2.615-4.467,3.916
	c-0.976-0.887-4.34-4.28-7.374-6.602L672.37,625.982z M678.779,620.616c2.138,1.651,5.641,5.08,6.959,6.729
	c-1.237,1.043-3.364,3.031-4.612,4.195c-0.82-0.964-4.061-4.263-7.176-6.88L678.779,620.616z"/>
<path fill="#040000" d="M714.535,627.967c0.764,0.082,1.576,0.082,1.576,0.961c0,0.836-0.896,1.178-1.163,1.306v16.825
	c0,18.101-8.815,25.744-17.079,32.838c-3.025-3.51-5.052-4.754-9.3-7.51c6.818-4.469,10.052-8.81,11.146-10.606
	c0.82-1.297,3.375-5.287,3.375-14.114v-20.242L714.535,627.967z M732.087,627.42c0.769,0.077,1.319,0.077,1.319,0.771
	c0,0.61-0.701,0.944-1.319,1.22v33.543c8.487-5.572,15.164-14.242,17.846-18.041c1.245,3.93,2.56,6.53,5.31,10.327
	c-3.987,5.173-12.664,14.205-19.354,19.084c-2.753,1.996-5.45,4.138-8.137,6.207l-7.299-4.688c0.146-1.867,0.283-3.593,0.283-5.517
	v-43.521L732.087,627.42z"/>
<path fill="#040000" d="M781.431,635.497c-2.577,3.097-7.902,9.601-7.902,20.707c0,11.111,5.327,17.609,7.902,20.72l-4.59,3.973
	c-3.1-3.709-9.504-11.506-9.504-24.688c0-13.171,6.404-20.968,9.504-24.688L781.431,635.497z"/>
<path fill="#040000" d="M792.847,655.344v-7.551h17.31v-6.935h-19.788v-7.388h47.585v7.388H818.27v6.935h17.198v7.551h-16.732
	c3.354,8.049,11.27,14.662,21.188,17.513c-2.809,2.31-4.188,3.866-5.581,7.073c-13.647-5.375-19.021-15.244-19.938-16.901
	c-2.225,4.291-7.906,13.11-20.834,17.196c-0.462-1.229-1.226-3.198-5.108-6.975c5.48-1.343,16.744-4.183,20.778-17.906H792.847
	L792.847,655.344z"/>
<polygon fill="#040000" points="874.069,651.611 887.656,651.611 887.656,658.906 874.069,658.906 874.069,671.514 893.436,671.514 
	893.436,678.581 846.528,678.581 846.528,671.514 865.857,671.514 865.857,658.906 852.198,658.906 852.198,651.611 
	865.857,651.611 865.857,640.695 849.359,640.695 849.359,633.795 890.484,633.795 890.484,640.695 874.069,640.695 "/>
<path fill="#040000" d="M901.345,674.797c1.33-1.994,2.47-4.631,3.707-8.097c1.818-5.067,2.437-7.239,2.787-8.623
	c2.489,2.313,5.544,3.668,6.11,3.925c-1.036,3.235-3.211,9.651-5.428,14.721c0.364,0.67,0.573,1.175,0.573,1.595
	c0,0.364-0.179,0.565-0.41,0.565c-0.268,0-0.678-0.261-1.151-0.521L901.345,674.797z M905.305,644.952
	c2.124,1.183,5.138,3.097,7.396,5.263c-1.699,1.754-3.603,4.496-4.277,5.428c-2.184-2.123-3.711-3.159-6.826-5.11L905.305,644.952z
	 M908.523,632.863c2.575,1.437,5.508,3.448,7.438,5.263c-3.003,3.213-3.357,3.563-5,5.536c-0.633-0.685-3.577-3.563-6.87-5.536
	L908.523,632.863z M919.578,648.877c-0.208,0.87-1.658,7.586-3.514,12.041c-2.581-2.015-4.235-2.586-5.789-3.052
	c1.967-4.433,2.789-7.7,3.875-12.407l5.428,1.657V633.1l6.658,0.521c0.67,0.063,1.453,0.117,1.453,0.642
	c0,0.406-0.679,0.819-1.196,1.142v11.448l1.703-1.396c0.991,1.511,1.818,2.791,2.857,4.959v-16.119l7.064,0.271
	c0.483,0,1.036,0.053,1.036,0.608c0,0.631-0.671,0.892-1.244,1.137v10.082l2.131-1.812c1.118,1.767,1.699,2.677,2.422,4.039v-15.61
	l7.229,0.573c0.354,0.037,0.827,0.104,0.827,0.563c0,0.562-0.827,0.935-1.229,1.089v44.112h-6.825v-19.939
	c-1.084,0.773-1.137,0.837-1.695,1.344c-0.727-3.098-2.537-6.609-2.854-7.279v24.39h-6.854v-18.399
	c-1.205,1.032-1.406,1.238-2.132,2.021c-0.633-1.759-1.233-3.688-2.433-6.416c-0.057,5.182-0.057,9.354-2.261,14.519
	c-1.714,4.092-3.771,7.077-6.982,9.971c-2.062-2.582-5.209-4.494-5.938-4.959c7.694-7.737,8.268-13.733,8.268-18.953v-6.766
	L919.578,648.877L919.578,648.877z"/>
<path fill="#040000" d="M965.611,631.521c3.1,3.719,9.492,11.516,9.492,24.686c0,13.187-6.396,20.979-9.492,24.689l-4.547-3.974
	c2.521-3.106,7.854-9.604,7.893-20.72c0-11.106-5.369-17.61-7.893-20.707L965.611,631.521z"/>
<path fill="#FF4500" d="M105.827,580.036H14.774V556.6c50.604-39.873,58.241-50.021,58.241-72.312
	c0-10.93-4.706-16.786-12.131-16.786c-10.954,0-13.093,12.883-13.093,20.715c0,2.519,0.201,4.672,0.582,8l-32.235-2.936v-5.675
	c0-21.275,15.641-43.56,44.154-43.56c26.963,0,45.536,14.853,45.536,40.053c0,29.109-12.701,42.402-50.42,69.763v0.375h50.42
	L105.827,580.036L105.827,580.036z"/>
<path fill="#FF4500" d="M172.832,582.784c-23.051,0-47.485-16.021-47.485-69.387c0-49.832,22.869-69.349,47.485-69.349
	c24.229,0,47.477,16.015,47.477,69.349C220.309,566.766,195.898,582.784,172.832,582.784 M172.832,468.657
	c-8.983,0-18.17,9.768-18.17,44.741c0,33.819,6.24,44.768,18.17,44.768c11.531,0,18.185-9.771,18.185-44.768
	C191.017,478.424,184.177,468.657,172.832,468.657"/>
<path fill="#FF4500" d="M295.924,580.036h-31.65v-97.295c-8.413,3.115-19.352,3.89-28.532,4.479V466.12
	c19.739-0.598,29.497-6.838,35.365-19.346h24.817V580.036z"/>
<path fill="#FF4500" d="M320.335,446.781h94.37V471.4c-22.66,23.446-43.77,67.223-46.117,108.639h-36.729
	c7.623-39.079,25.011-76.784,51.396-107.459h-62.92V446.781L320.335,446.781z"/>
<path fill="#FF4500" d="M571.387,580.036h-31.662v-97.295c-8.397,3.115-19.333,3.89-28.517,4.479V466.12
	c19.739-0.598,29.508-6.838,35.369-19.346h24.81V580.036z"/>
<path fill="#FF4500" d="M740.771,582.784c-26.966,0-47.479-11.741-47.479-41.034c0-15.242,9.181-27.55,24.232-30.88v-0.397
	c-11.527-4.885-18.957-16.996-18.957-29.897c0-25.772,17.966-36.334,43.755-36.521c22.667,0.188,40.646,10.746,40.646,36.521
	c0,12.901-7.425,25.017-18.948,29.897v0.397c15.037,3.33,24.22,15.638,24.22,30.88C788.241,571.043,767.739,582.784,740.771,582.784
	 M740.771,521.236c-11.925,0-15.841,8-15.841,18.948c0,11.13,3.916,19.14,15.841,19.14c11.92,0,15.82-8.01,15.82-19.14
	C756.595,529.236,752.691,521.236,740.771,521.236 M740.771,467.504c-7.812,0-12.883,4.291-12.883,16.221
	c0,12.095,5.071,16.396,12.883,16.396c7.807,0,12.889-4.303,12.889-16.396C753.659,471.795,748.577,467.504,740.771,467.504"/>
<path fill="#FF4500" d="M1091.467,525.916l54.88-79.138h29.729v80.299h17.771v22.291h-17.586v30.668h-31.848v-30.668h-52.942
	L1091.467,525.916L1091.467,525.916z M1144.409,480.768h-0.402l-30.268,46.312h30.67V480.768L1144.409,480.768z"/>
<path fill="#FF4500" d="M1339.148,542.916c0.969,7.418,3.309,15.25,12.31,15.25c15.82,0,18.953-18.566,19.531-39.873h-0.578
	c-5.674,8.784-16.226,13.866-27.954,13.866c-18.547,0-37.299-12.295-37.299-41.608c0-28.138,19.525-46.504,47.083-46.504
	c24.608,0,49.229,14.073,49.229,64.479c0,34.969-9.191,74.26-51.393,74.26c-25.597,0-38.294-13.289-42.202-36.75L1339.148,542.916z
	 M1351.658,508.717c9.173,0,15.822-7.033,15.822-19.336c0-13.486-5.658-20.726-15.822-20.726c-10.756,0-16.028,7.615-16.028,20.726
	C1335.63,499.727,1340.712,508.717,1351.658,508.717"/>
<polyline fill="#FF4500" points="1022.846,479.404 1056.053,512.607 1021.578,547.094 "/>
<line fill="none" stroke="#FF4500" stroke-miterlimit="10" x1="937.95" y1="513.814" x2="1054.596" y2="513.814"/>
<line fill="none" stroke="#FF4500" stroke-miterlimit="10" x1="693.376" y1="438.92" x2="584.905" y2="580.35"/>
<line fill="none" stroke="#FF4500" stroke-miterlimit="10" x1="1309.87" y1="438.92" x2="1201.413" y2="580.35"/>
<rect x="814.039" y="470.081" fill="none" stroke="#FF4500" stroke-width="2" stroke-miterlimit="10" width="92.343" height="87.479"/>
<path fill="#FF4500" d="M831.662,515.834c1.811,1.643,3.532,2.604,6.021,2.604c1.356,0,3.894-0.592,3.894-2.395
	c0-1.044-0.797-1.584-2.355-1.843l-4.307-0.698c-3.856-0.619-5.979-2.66-5.979-5.729c0-5.032,4.064-7.103,8.517-7.103
	c3.435,0,6.84,1.396,9.166,4.006l-3.935,2.83c-1.375-1.677-3.395-2.629-5.593-2.629c-1.181,0-2.947,0.748-2.947,2.098
	c0,1.104,0.905,1.673,2.896,1.984l1.979,0.323c4.158,0.677,7.567,1.961,7.567,5.922c0,6.271-5.629,7.437-9.526,7.437
	c-3.518,0-6.546-1.137-9.374-4.239L831.662,515.834z"/>
<path fill="#FF4500" d="M869.307,514.803c0,5.711-4.828,7.842-8.812,7.842c-3.986,0-8.813-2.131-8.813-7.842v-13.556h5.205v13.13
	c0,2.327,0.909,4.061,3.606,4.061c2.713,0,3.607-1.729,3.607-4.061v-13.13h5.204L869.307,514.803L869.307,514.803z"/>
<polygon fill="#FF4500" points="875.656,501.247 880.92,501.247 888.48,514.553 888.531,514.553 888.531,501.247 893.263,501.247 
	893.263,522.049 888.07,522.049 880.439,508.963 880.387,508.963 880.387,522.049 875.656,522.049 "/>
<rect x="1436.115" y="470.081" fill="none" stroke="#FF4500" stroke-width="2" stroke-miterlimit="10" width="92.339" height="87.479"/>
<path fill="#FF4500" d="M1452.236,515.834c1.828,1.643,3.551,2.604,6.04,2.604c1.359,0,3.874-0.592,3.874-2.395
	c0-1.044-0.782-1.584-2.351-1.843l-4.314-0.698c-3.853-0.619-5.958-2.66-5.958-5.729c0-5.032,4.065-7.103,8.494-7.103
	c3.459,0,6.834,1.396,9.185,4.006l-3.944,2.83c-1.379-1.677-3.392-2.629-5.59-2.629c-1.198,0-2.94,0.748-2.94,2.098
	c0,1.104,0.899,1.673,2.885,1.984l1.997,0.323c4.144,0.677,7.562,1.961,7.562,5.922c0,6.271-5.626,7.437-9.528,7.437
	c-3.521,0-6.525-1.137-9.357-4.239L1452.236,515.834z"/>
<path fill="#FF4500" d="M1489.877,514.803c0,5.711-4.807,7.842-8.819,7.842c-3.968,0-8.796-2.131-8.796-7.842v-13.556h5.205v13.13
	c0,2.327,0.905,4.061,3.591,4.061c2.72,0,3.634-1.729,3.634-4.061v-13.13h5.188L1489.877,514.803L1489.877,514.803z"/>
<polygon fill="#FF4500" points="1496.234,501.247 1501.483,501.247 1509.042,514.553 1509.116,514.553 1509.116,501.247 
	1513.841,501.247 1513.841,522.049 1508.655,522.049 1501.035,508.963 1500.961,508.963 1500.961,522.049 1496.234,522.049 "/>
<polygon fill="none" points="-149.795,-259.741 -146.795,-259.741 -146.795,-259.741 "/>
<text transform="matrix(1 0 0 1 0 920.9729)" font-family="'HelveticaNeue-Bold'" font-size="225" letter-spacing="9">in the near future</text>
<text transform="matrix(1 0 0 1 0 920.9729)" fill="none" stroke="#000000" stroke-miterlimit="10" font-family="'HelveticaNeue-Bold'" font-size="225" letter-spacing="9">in the near future</text>
<g>
	<path stroke="#000000" stroke-miterlimit="10" d="M42.975,1014.652v116.323h-31.95v-116.323H42.975L42.975,1014.652z"/>
	<path stroke="#000000" stroke-miterlimit="10" d="M107.548,1014.652v16.198h0.675c4.05-6.75,9.299-11.659,15.75-14.735
		c6.447-3.073,13.05-4.611,19.8-4.611c8.55,0,15.56,1.163,21.038,3.486c5.474,2.327,9.788,5.552,12.938,9.675
		c3.15,4.127,5.361,9.151,6.637,15.075c1.273,5.927,1.913,12.485,1.913,19.688v71.55h-31.95v-65.698c0-9.6-1.501-16.765-4.5-21.486
		c-3.002-4.726-8.325-7.089-15.975-7.089c-8.701,0-15.001,2.589-18.9,7.764c-3.902,5.175-5.85,13.689-5.85,25.538v60.975h-31.95
		v-116.323h30.374V1014.652L107.548,1014.652z"/>
	<path stroke="#000000" stroke-miterlimit="10" d="M355.045,1014.652v21.375h-23.4v57.601c0,5.399,0.9,9,2.7,10.801
		c1.8,1.801,5.4,2.699,10.8,2.699c1.8,0,3.523-0.073,5.175-0.226c1.648-0.146,3.224-0.372,4.725-0.677v24.75
		c-2.7,0.45-5.702,0.749-9,0.9c-3.301,0.146-6.525,0.225-9.675,0.225c-4.95,0-9.64-0.338-14.062-1.013
		c-4.426-0.676-8.325-1.984-11.7-3.938c-3.375-1.947-6.04-4.727-7.987-8.325c-1.951-3.601-2.925-8.323-2.925-14.175v-68.625h-19.35
		v-21.375h19.35v-34.875h31.95v34.875L355.045,1014.652L355.045,1014.652z"/>
	<path stroke="#000000" stroke-miterlimit="10" d="M411.293,970.326v60.524h0.675c4.05-6.75,9.228-11.66,15.525-14.736
		c6.3-3.072,12.449-4.611,18.45-4.611c8.55,0,15.56,1.163,21.037,3.486c5.475,2.327,9.786,5.552,12.938,9.675
		c3.15,4.127,5.361,9.151,6.638,15.075c1.272,5.927,1.913,12.485,1.913,19.688v71.551h-31.95v-65.699c0-9.6-1.501-16.764-4.5-21.486
		c-3.002-4.726-8.322-7.089-15.975-7.089c-8.701,0-15.001,2.589-18.9,7.764c-3.9,5.175-5.85,13.689-5.85,25.538v60.975h-31.95
		V970.33h31.949V970.326L411.293,970.326z"/>
	<path stroke="#000000" stroke-miterlimit="10" d="M555.965,1103.076c4.799,4.651,11.7,6.977,20.7,6.977
		c6.448,0,11.999-1.608,16.65-4.838c4.646-3.225,7.499-6.639,8.55-10.237h28.125c-4.5,13.95-11.401,23.93-20.7,29.927
		c-9.302,6.001-20.552,9-33.75,9c-9.151,0-17.402-1.463-24.75-4.39c-7.351-2.925-13.577-7.087-18.675-12.485
		c-5.104-5.398-9.039-11.85-11.813-19.352c-2.774-7.499-4.162-15.75-4.162-24.75c0-8.697,1.427-16.799,4.274-24.301
		c2.848-7.499,6.897-13.984,12.15-19.463c5.249-5.474,11.51-9.787,18.786-12.938c7.272-3.148,15.336-4.726,24.188-4.726
		c9.9,0,18.524,1.912,25.875,5.737c7.348,3.825,13.388,8.965,18.112,15.412c4.726,6.449,8.136,13.803,10.235,22.05
		c2.102,8.252,2.851,16.875,2.25,25.875H548.09C548.54,1090.928,551.163,1098.43,555.965,1103.076z M592.078,1041.878
		c-3.825-4.198-9.641-6.302-17.438-6.302c-5.102,0-9.338,0.865-12.713,2.588c-3.375,1.729-6.075,3.863-8.1,6.412
		c-2.025,2.554-3.453,5.254-4.275,8.102c-0.826,2.853-1.312,5.398-1.463,7.648h51.979
		C598.564,1052.229,595.902,1046.078,592.078,1041.878z"/>
	<path stroke="#000000" stroke-miterlimit="10" d="M761.838,1014.652v16.198h0.676c4.052-6.75,9.302-11.659,15.75-14.735
		c6.447-3.073,13.052-4.611,19.802-4.611c8.551,0,15.561,1.163,21.036,3.486c5.476,2.327,9.787,5.552,12.938,9.675
		c3.149,4.127,5.361,9.151,6.638,15.075c1.272,5.927,1.912,12.485,1.912,19.688v71.55h-31.95v-65.698c0-9.6-1.502-16.765-4.5-21.486
		c-3.003-4.726-8.323-7.089-15.976-7.089c-8.701,0-15.001,2.589-18.899,7.764c-3.899,5.175-5.851,13.689-5.851,25.538v60.975h-31.95
		v-116.323h30.374V1014.652z"/>
	<path stroke="#000000" stroke-miterlimit="10" d="M908.086,1103.076c4.799,4.651,11.699,6.977,20.699,6.977
		c6.447,0,11.999-1.608,16.647-4.838c4.647-3.225,7.498-6.639,8.553-10.237h28.125c-4.5,13.95-11.401,23.93-20.7,29.927
		c-9.303,6.001-20.553,9-33.75,9c-9.15,0-17.402-1.463-24.75-4.39c-7.354-2.925-13.577-7.087-18.675-12.485
		c-5.104-5.398-9.038-11.85-11.813-19.352c-2.776-7.499-4.163-15.75-4.163-24.75c0-8.697,1.424-16.799,4.275-24.301
		c2.848-7.499,6.896-13.984,12.147-19.463c5.248-5.474,11.513-9.787,18.787-12.938c7.273-3.148,15.336-4.726,24.188-4.726
		c9.897,0,18.521,1.912,25.875,5.737c7.348,3.825,13.388,8.965,18.111,15.412c4.727,6.449,8.137,13.803,10.235,22.05
		c2.101,8.252,2.849,16.875,2.25,25.875h-83.92C900.66,1090.928,903.283,1098.43,908.086,1103.076z M944.197,1041.878
		c-3.824-4.198-9.642-6.302-17.438-6.302c-5.101,0-9.337,0.865-12.712,2.588c-3.375,1.729-6.075,3.863-8.101,6.412
		c-2.024,2.554-3.451,5.254-4.274,8.102c-0.826,2.853-1.313,5.398-1.462,7.648h51.978
		C950.684,1052.229,948.023,1046.078,944.197,1041.878z"/>
	<path stroke="#000000" stroke-miterlimit="10" d="M1010.683,1050.428c0.45-7.499,2.324-13.727,5.625-18.676
		c3.298-4.949,7.499-8.923,12.603-11.926c5.098-2.998,10.836-5.136,17.213-6.412c6.374-1.271,12.786-1.912,19.235-1.912
		c5.853,0,11.773,0.414,17.774,1.237c5.997,0.826,11.476,2.438,16.426,4.837c4.949,2.399,9,5.736,12.149,10.014
		c3.149,4.274,4.726,9.938,4.726,16.986v60.523c0,5.252,0.301,10.275,0.899,15.074c0.599,4.803,1.647,8.402,3.149,10.801h-32.399
		c-0.603-1.801-1.09-3.635-1.463-5.514c-0.376-1.873-0.64-3.785-0.787-5.736c-5.103,5.252-11.103,8.928-18,11.024
		c-6.901,2.1-13.95,3.149-21.149,3.149c-5.552,0-10.728-0.677-15.523-2.024c-4.804-1.351-9-3.448-12.602-6.301
		c-3.601-2.85-6.411-6.447-8.438-10.802c-2.024-4.35-3.037-9.521-3.037-15.522c0-6.6,1.16-12.038,3.487-16.312
		c2.32-4.274,5.32-7.688,9-10.237c3.674-2.55,7.875-4.462,12.6-5.737c4.728-1.271,9.485-2.285,14.288-3.037
		c4.799-0.748,9.521-1.351,14.175-1.8c4.647-0.45,8.774-1.125,12.375-2.024c3.603-0.898,6.447-2.211,8.552-3.938
		c2.1-1.725,3.07-4.235,2.926-7.537c0-3.448-0.563-6.188-1.688-8.213c-1.126-2.024-2.626-3.602-4.5-4.727
		c-1.877-1.125-4.05-1.874-6.521-2.25c-2.479-0.373-5.143-0.563-7.988-0.563c-6.3,0-11.25,1.351-14.85,4.05
		c-3.603,2.7-5.702,7.2-6.303,13.5L1010.683,1050.428L1010.683,1050.428z M1084.482,1074.053c-1.353,1.202-3.037,2.14-5.063,2.812
		c-2.021,0.675-4.201,1.235-6.521,1.688c-2.328,0.449-4.767,0.826-7.313,1.125c-2.553,0.303-5.102,0.676-7.648,1.125
		c-2.4,0.449-4.766,1.051-7.09,1.801c-2.326,0.752-4.352,1.766-6.072,3.036c-1.729,1.276-3.114,2.893-4.162,4.839
		c-1.053,1.95-1.575,4.427-1.575,7.426c0,2.853,0.524,5.253,1.575,7.199c1.048,1.95,2.476,3.486,4.272,4.611
		c1.802,1.125,3.898,1.912,6.302,2.361c2.396,0.45,4.873,0.677,7.426,0.677c6.3,0,11.173-1.048,14.625-3.149
		c3.449-2.1,5.998-4.611,7.647-7.536c1.648-2.927,2.661-5.888,3.037-8.89c0.373-2.998,0.563-5.398,0.563-7.199L1084.482,1074.053
		L1084.482,1074.053z"/>
	<path stroke="#000000" stroke-miterlimit="10" d="M1180.556,1014.652v21.601h0.449c1.498-3.601,3.523-6.937,6.075-10.013
		c2.549-3.073,5.474-5.698,8.775-7.875c3.298-2.173,6.82-3.859,10.572-5.062c3.747-1.199,7.649-1.8,11.699-1.8
		c2.1,0,4.423,0.376,6.976,1.125v29.698c-1.501-0.299-3.302-0.562-5.397-0.787c-2.104-0.225-4.127-0.338-6.075-0.338
		c-5.85,0-10.8,0.979-14.85,2.927c-4.052,1.95-7.313,4.611-9.787,7.986c-2.479,3.375-4.24,7.313-5.288,11.813
		c-1.051,4.5-1.575,9.376-1.575,14.625v52.427h-31.948v-116.325L1180.556,1014.652L1180.556,1014.652z"/>
	<path stroke="#000000" stroke-miterlimit="10" d="M1306.104,1036.027v-21.375h19.125v-9c0-10.352,3.227-18.822,9.678-25.427
		c6.445-6.6,16.197-9.898,29.25-9.898c2.848,0,5.697,0.112,8.55,0.338c2.848,0.226,5.625,0.415,8.325,0.563v23.852
		c-3.751-0.448-7.649-0.675-11.7-0.675c-4.354,0-7.463,1.013-9.337,3.038c-1.878,2.022-2.813,5.438-2.813,10.235v6.977h22.053
		v21.375h-22.053v94.948h-31.947v-94.948L1306.104,1036.027L1306.104,1036.027z"/>
	<path stroke="#000000" stroke-miterlimit="10" d="M1480.928,1130.979v-16.199h-0.676c-4.05,6.75-9.302,11.626-15.75,14.625
		c-6.451,2.999-13.05,4.5-19.8,4.5c-8.55,0-15.563-1.125-21.037-3.375c-5.479-2.25-9.788-5.437-12.938-9.562
		c-3.147-4.124-5.362-9.146-6.638-15.074c-1.276-5.925-1.912-12.486-1.912-19.688v-71.55h31.949v65.7
		c0,9.603,1.498,16.764,4.5,21.485c2.999,4.728,8.325,7.088,15.976,7.088c8.697,0,14.997-2.588,18.899-7.763
		c3.899-5.176,5.851-13.688,5.851-25.537v-60.977h31.95v116.325L1480.928,1130.979L1480.928,1130.979z"/>
	<path stroke="#000000" stroke-miterlimit="10" d="M1608.499,1014.652v21.375H1585.1v57.601c0,5.399,0.899,9,2.699,10.801
		c1.801,1.801,5.4,2.699,10.801,2.699c1.803,0,3.522-0.073,5.178-0.226c1.646-0.146,3.224-0.372,4.725-0.677v24.75
		c-2.7,0.45-5.702,0.749-9,0.9c-3.301,0.146-6.524,0.225-9.675,0.225c-4.95,0-9.643-0.338-14.063-1.013
		c-4.426-0.676-8.323-1.984-11.698-3.938c-3.375-1.947-6.039-4.727-7.986-8.325c-1.951-3.601-2.926-8.323-2.926-14.175v-68.625
		H1533.8v-21.375h19.353v-34.875h31.949v34.875L1608.499,1014.652L1608.499,1014.652z"/>
	<path stroke="#000000" stroke-miterlimit="10" d="M1711.547,1130.979v-16.199h-0.676c-4.05,6.75-9.302,11.626-15.75,14.625
		c-6.451,2.999-13.05,4.5-19.8,4.5c-8.553,0-15.563-1.125-21.037-3.375c-5.479-2.25-9.788-5.437-12.938-9.562
		c-3.147-4.124-5.365-9.146-6.638-15.074c-1.276-5.925-1.912-12.486-1.912-19.688v-71.55h31.949v65.7
		c0,9.603,1.498,16.764,4.5,21.485c2.999,4.728,8.325,7.088,15.976,7.088c8.697,0,14.997-2.588,18.899-7.763
		c3.899-5.176,5.851-13.688,5.851-25.537v-60.977h31.95v116.325L1711.547,1130.979L1711.547,1130.979z"/>
	<path stroke="#000000" stroke-miterlimit="10" d="M1805.595,1014.652v21.601h0.449c1.498-3.601,3.522-6.937,6.075-10.013
		c2.549-3.073,5.474-5.698,8.772-7.875c3.299-2.173,6.823-3.859,10.575-5.062c3.747-1.199,7.649-1.8,11.699-1.8
		c2.1,0,4.423,0.376,6.976,1.125v29.698c-1.501-0.299-3.302-0.562-5.397-0.787c-2.104-0.225-4.127-0.338-6.075-0.338
		c-5.851,0-10.8,0.979-14.851,2.927c-4.052,1.95-7.313,4.611-9.786,7.986c-2.479,3.375-4.24,7.313-5.288,11.813
		c-1.051,4.5-1.575,9.376-1.575,14.625v52.427h-31.949v-116.325L1805.595,1014.652L1805.595,1014.652z"/>
	<path stroke="#000000" stroke-miterlimit="10" d="M1901.895,1103.076c4.802,4.651,11.7,6.977,20.7,6.977
		c6.448,0,11.999-1.608,16.65-4.838c4.646-3.225,7.499-6.639,8.55-10.237h28.125c-4.5,13.95-11.4,23.93-20.699,29.927
		c-9.303,6.001-20.553,9-33.75,9c-9.149,0-17.4-1.463-24.75-4.39c-7.352-2.925-13.578-7.087-18.676-12.485
		c-5.102-5.398-9.039-11.85-11.812-19.352c-2.777-7.499-4.162-15.75-4.162-24.75c0-8.697,1.424-16.799,4.271-24.301
		c2.851-7.499,6.897-13.984,12.15-19.463c5.249-5.474,11.51-9.787,18.787-12.938c7.272-3.148,15.335-4.726,24.188-4.726
		c9.9,0,18.524,1.912,25.875,5.737s13.39,8.965,18.112,15.412c4.727,6.449,8.136,13.803,10.238,22.05
		c2.099,8.252,2.848,16.875,2.25,25.875h-83.928C1894.47,1090.928,1897.093,1098.43,1901.895,1103.076z M1938.008,1041.878
		c-3.824-4.198-9.641-6.302-17.438-6.302c-5.104,0-9.338,0.865-12.713,2.588c-3.375,1.729-6.075,3.863-8.103,6.412
		c-2.022,2.554-3.453,5.254-4.272,8.102c-0.826,2.853-1.314,5.398-1.463,7.648h51.976
		C1944.494,1052.229,1941.832,1046.078,1938.008,1041.878z"/>
</g>
<path fill="#040000" d="M44.274,982.924c0,9.529-7.727,17.271-17.276,17.271c-9.539,0-17.274-7.739-17.274-17.271
	c0-9.54,7.735-17.267,17.274-17.267C36.55,965.657,44.274,973.384,44.274,982.924"/>
<g enable-background="new    ">
	<path d="M51.198,235.304l67.809,108.994h0.455V235.304h33.449v162.468h-35.725L49.605,289.005H49.15v108.767H15.701V235.304H51.198
		z"/>
	<path d="M188.635,283.43c3.641-10.389,8.874-19.455,15.701-27.191c6.826-7.737,15.207-13.802,25.144-18.204
		c9.934-4.398,21.123-6.599,33.563-6.599c12.59,0,23.814,2.201,33.677,6.599c9.859,4.402,18.204,10.467,25.03,18.204
		c6.826,7.736,12.06,16.803,15.701,27.191c3.641,10.393,5.461,21.656,5.461,33.791c0,11.833-1.82,22.869-5.461,33.108
		s-8.875,19.153-15.701,26.736c-6.827,7.588-15.171,13.539-25.03,17.862c-9.862,4.324-21.087,6.485-33.677,6.485
		c-12.44,0-23.629-2.161-33.563-6.485c-9.937-4.323-18.317-10.274-25.144-17.862c-6.827-7.583-12.06-16.497-15.701-26.736
		s-5.461-21.275-5.461-33.108C183.174,305.086,184.995,293.823,188.635,283.43z M221.288,337.131
		c1.593,6.45,4.131,12.252,7.623,17.408c3.488,5.158,8.039,9.294,13.653,12.401c5.61,3.11,12.437,4.664,20.479,4.664
		c8.039,0,14.865-1.554,20.479-4.664c5.611-3.107,10.162-7.243,13.653-12.401c3.488-5.155,6.03-10.958,7.623-17.408
		c1.593-6.446,2.389-13.083,2.389-19.91c0-7.128-0.796-14.029-2.389-20.707c-1.593-6.673-4.135-12.629-7.623-17.862
		c-3.491-5.233-8.042-9.404-13.653-12.515c-5.614-3.107-12.44-4.665-20.479-4.665c-8.042,0-14.869,1.557-20.479,4.665
		c-5.614,3.111-10.165,7.282-13.653,12.515c-3.491,5.233-6.03,11.189-7.623,17.862c-1.593,6.677-2.389,13.578-2.389,20.707
		C218.899,324.047,219.695,330.685,221.288,337.131z"/>
	<path d="M492.409,397.772l-27.533-110.587h-0.455l-27.078,110.587h-36.18l-43.006-162.468h35.725l25.713,110.587h0.455
		l28.215-110.587h33.449l27.761,111.952h0.455l26.623-111.952h35.042l-43.689,162.468H492.409z"/>
</g>
<g enable-background="new    ">
	<path fill="none" stroke="#000000" stroke-miterlimit="10" d="M51.198,235.304l67.809,108.994h0.455V235.304h33.449v162.468
		h-35.725L49.605,289.005H49.15v108.767H15.701V235.304H51.198z"/>
	<path fill="none" stroke="#000000" stroke-miterlimit="10" d="M188.635,283.43c3.641-10.389,8.874-19.455,15.701-27.191
		c6.826-7.737,15.207-13.802,25.144-18.204c9.934-4.398,21.123-6.599,33.563-6.599c12.59,0,23.814,2.201,33.677,6.599
		c9.859,4.402,18.204,10.467,25.03,18.204c6.826,7.736,12.06,16.803,15.701,27.191c3.641,10.393,5.461,21.656,5.461,33.791
		c0,11.833-1.82,22.869-5.461,33.108s-8.875,19.153-15.701,26.736c-6.827,7.588-15.171,13.539-25.03,17.862
		c-9.862,4.324-21.087,6.485-33.677,6.485c-12.44,0-23.629-2.161-33.563-6.485c-9.937-4.323-18.317-10.274-25.144-17.862
		c-6.827-7.583-12.06-16.497-15.701-26.736s-5.461-21.275-5.461-33.108C183.174,305.086,184.995,293.823,188.635,283.43z
		 M221.288,337.131c1.593,6.45,4.131,12.252,7.623,17.408c3.488,5.158,8.039,9.294,13.653,12.401
		c5.61,3.11,12.437,4.664,20.479,4.664c8.039,0,14.865-1.554,20.479-4.664c5.611-3.107,10.162-7.243,13.653-12.401
		c3.488-5.155,6.03-10.958,7.623-17.408c1.593-6.446,2.389-13.083,2.389-19.91c0-7.128-0.796-14.029-2.389-20.707
		c-1.593-6.673-4.135-12.629-7.623-17.862c-3.491-5.233-8.042-9.404-13.653-12.515c-5.614-3.107-12.44-4.665-20.479-4.665
		c-8.042,0-14.869,1.557-20.479,4.665c-5.614,3.111-10.165,7.282-13.653,12.515c-3.491,5.233-6.03,11.189-7.623,17.862
		c-1.593,6.677-2.389,13.578-2.389,20.707C218.899,324.047,219.695,330.685,221.288,337.131z"/>
	<path fill="none" stroke="#000000" stroke-miterlimit="10" d="M492.409,397.772l-27.533-110.587h-0.455l-27.078,110.587h-36.18
		l-43.006-162.468h35.725l25.713,110.587h0.455l28.215-110.587h33.449l27.761,111.952h0.455l26.623-111.952h35.042l-43.689,162.468
		H492.409z"/>
</g>
<text transform="matrix(1 0 0 1 -8.2339 1348.9631)" font-family="'HelveticaNeue-Bold'" font-size="235" letter-spacing="6">here</text>
<text transform="matrix(1 0 0 1 -8.2339 1348.9631)" fill="none" stroke="#000000" stroke-miterlimit="10" font-family="'HelveticaNeue-Bold'" font-size="235" letter-spacing="6">here</text>
</svg>
