<?xml version="1.0" encoding="utf-8"?>
<!-- Generator: Adobe Illustrator 16.0.0, SVG Export Plug-In . SVG Version: 6.00 Build 0)  -->
<!DOCTYPE svg PUBLIC "-//W3C//DTD SVG 1.1//EN" "http://www.w3.org/Graphics/SVG/1.1/DTD/svg11.dtd">
<svg version="1.1" id="レイヤー_1" xmlns="http://www.w3.org/2000/svg" xmlns:xlink="http://www.w3.org/1999/xlink" x="0px"
	 y="0px" width="1000px" height="100px" viewBox="0 0 1000 100" enable-background="new 0 0 1000 100" xml:space="preserve">
<g>
	<path d="M3.462,4.625h38.999c27.819,0,44.46,16.887,44.46,44.97c0,29.727-16.895,45.734-44.46,45.734H3.462V4.625z M27.081,74.993
		h11.203c17.902-0.372,25.007-7.367,25.007-25.525c0-16.509-8.882-24.523-25.007-24.523H27.081V74.993z"/>
	<path d="M122.372,4.625h24.011l33.925,90.704h-24.649l-5.601-16.268h-31.626l-5.704,16.268H88.456L122.372,4.625z M123.906,61.529
		h20.567l-10.027-31.757h-0.259L123.906,61.529z"/>
	<path d="M226.307,95.329h-27.19L170.528,4.625h24.643l17.781,67.457h0.259l17.786-67.457h24.643L226.307,95.329z"/>
	<path d="M265,4.625h23.625v90.704H265V4.625z"/>
	<path d="M306.533,4.625h39.018c27.811,0,44.457,16.887,44.457,44.97c0,29.727-16.9,45.734-44.457,45.734h-39.018V4.625z
		 M330.168,74.993h11.169c17.932-0.372,25.029-7.367,25.029-25.525c0-16.509-8.88-24.523-25.029-24.523h-11.169V74.993z"/>
	<path d="M434.151,4.625h42.432c15.63-0.254,32.796,3.805,32.796,22.728c0,8.139-4.851,14.742-11.953,18.302
		c9.646,2.795,15.625,11.185,15.625,21.474c0,21.601-15.88,28.2-35.324,28.2h-43.577V4.625z M457.781,40.321h18.304
		c4.062,0,9.646-2.157,9.646-8.641c0-6.609-4.699-8.764-9.646-8.764h-18.304V40.321z M457.781,76.398h18.937
		c7.491,0,12.698-2.674,12.698-10.166c0-8.004-5.596-10.677-12.698-10.677h-18.937V76.398z"/>
	<path d="M569.613,2.713c28.572,0,44.71,20.964,44.71,47.26c0,26.295-16.138,47.257-44.71,47.257
		c-28.589,0-44.705-20.962-44.705-47.257C524.908,23.677,541.024,2.713,569.613,2.713z M569.613,76.9
		c15.241,0,21.085-13.465,21.085-26.927c0-13.465-5.844-26.931-21.085-26.931c-15.254,0-21.099,13.465-21.099,26.931
		C548.515,63.436,554.359,76.9,569.613,76.9z"/>
	<path d="M712.105,95.329h-22.004L678.263,39.13h-0.249l-11.439,56.199h-23.387L619.482,4.625h21.576l13.936,57.605l0.323,2.177
		h0.26l0.335-2.165l13.012-57.617h18.164l13.006,57.605l0.324,2.177h0.26l0.313-2.165l12.925-57.617h19.763L712.105,95.329z"/>
	<path d="M743.583,4.625h23.631v90.704h-23.631V4.625z"/>
	<path d="M785.13,4.625h69.038V23.54h-45.402v15.885h41.211v18.296h-41.211v17.272h48.707v20.336H785.13V4.625z"/>
	<polygon points="903.848,29.384 924.08,29.384 916.454,95.329 896.242,95.329 	"/>
	<g>
		<path d="M984.249,47.653c-3.932-4.696-12.438-7.246-18.677-7.246c-4.954,0-8.508,1.788-8.508,5.218
			c0,11.556,35.093,2.028,35.093,27.3c0,17.792-15.729,24.144-30.475,24.144c-14.734,0-23.116-4.191-33.032-13.341l12.313-10.661
			c6.115,5.843,12.326,9.527,21.352,9.527c3.322,0,10.793-0.768,10.793-6.866c0-10.547-35.093-2.154-35.093-26.168
			c0-17.021,14.864-23.622,28.557-23.622c10.43,0,20.713,3.681,29.874,9.779L984.249,47.653z"/>
	</g>
	<path d="M925.986,13.499c0,5.95-4.813,10.784-10.775,10.784c-5.957,0-10.77-4.834-10.77-10.784c0-5.941,4.813-10.778,10.77-10.778
		C921.174,2.721,925.986,7.558,925.986,13.499z"/>
</g>
<g>
</g>
<g>
</g>
<g>
</g>
<g>
</g>
<g>
</g>
<g>
</g>
</svg>
