<svg xmlns="http://www.w3.org/2000/svg" id="icon-belfast" viewBox="0 0 97.99 92.59" width="100%" height="100%"><title>beflast</title><path d="M51.7 0a46.29 46.29 0 0 0-42.22 65.29h84.43a46.29 46.29 0 0 0-42.21-65.29z" fill="#9dd2ed"></path><path d="M51.7 92.59a46.29 46.29 0 0 0 42.22-27.3h-84.44a46.29 46.29 0 0 0 42.22 27.3z" fill="#2e6682"></path><g><path d="M35.25 18.54l18.5 16-3 27.5h-10zm-18.5 18.25l7.75 25.21-1.64-23.72zm44.25 0l-4 25.21h13.75c.5-.25 6.25-25.25 6.25-25.25z" fill="#a5b3be"></path><path d="M35.25 18.54l5.5 43.46h-12.75l-1.25-24.71zm-35.25 18.25l10.5 25.21h14l-7.75-25.21zm55.5 0l-1.75 25.21h3.25l4-25.25z" fill="#9ca1a7"></path><path fill="#42808e" d="M14.5 62.04h52.5v3.25h-52.5z"></path><path d="M28.7 33l-1.95 4.3 1.25 24.7h-3.5l-2-29zm24.68 5l-2.63 24h3l1.67-24z" fill="#5599a5"></path><path d="M14.5 62h10v.28h-10zm13.5.28h22.75v-.28h-22.75zm25.75-.28v.28h13.25v-.28z" fill="#445656"></path></g><g><path d="M79.5 42.35h-5c-.35 0-.63-.39-.63-.87v-8.66c0-.48.28-.87.63-.87h5c.35 0 .63.39.63.87v8.67c0 .51-.28.86-.63.86z" fill="#5b5b5b"></path><path fill="#eaad00" d="M73.87 34.34h6.26v6.83h-6.26z"></path><path fill="#ededed" d="M91.03 60.06h-28.06l-.88-19h29.83l-.89 19z"></path><path fill="#706f6f" d="M63.89 42.68h26.22v1.49h-26.22z"></path><path fill="#fcd575" d="M63.89 45.29h26.22v1.49h-26.22z"></path><rect x="76.6" y="23.01" width=".79" height="22.6" rx=".4" ry=".4" fill="#7b6a58"></rect><path d="M64 64.7a.87.87 0 0 0 .82.59h12.18v-7.53l-13.6 5z" fill="#e86c60"></path><path d="M76.58 44.6l-15.58 8.66a.87.87 0 0 0-.4 1l2.28 6.83 14.12-5.17v-11.43a.87.87 0 0 0-.42.11z" fill="#5b5b5b"></path><path fill="#808080" d="M63.4 62.77l13.6-5.01v-1.85l-14.15 5.22.55 1.64z"></path><path d="M77 65.29h12.13a.87.87 0 0 0 .87-.59l.64-1.92-13.6-5z" fill="#cc4c46"></path><path d="M93 53.26l-15.58-8.66a.87.87 0 0 0-.42-.11v11.43l14.15 5.21 2.28-6.83a.87.87 0 0 0-.43-1.04z" fill="#444"></path><path fill="#5b5b5b" d="M77 57.76l13.6 5.01.55-1.64-14.15-5.22v1.85z"></path><path d="M79.48 49.35a.8.8 0 1 1 .81.79.8.8 0 0 1-.81-.79zm4.08 1.33a.76.76 0 1 0-.75.77.76.76 0 0 0 .75-.77zm2.44 1.32a.73.73 0 1 0-.72.73.72.72 0 0 0 .72-.73zm2.48 1.38a.69.69 0 1 0-.68.7.69.69 0 0 0 .72-.69zm1.85.73a.65.65 0 1 0 .66.64.65.65 0 0 0-.62-.64zm-16.57-5.57a.8.8 0 1 0 .79.81.8.8 0 0 0-.79-.81zm-2.53 1.39a.76.76 0 1 0 .75.77.76.76 0 0 0-.75-.77zm-2.52 1.36a.73.73 0 1 0 .72.73.72.72 0 0 0-.72-.73zm-2.52 1.41a.69.69 0 1 0 .68.7.69.69 0 0 0-.68-.7zm-2.55 1.41a.65.65 0 1 0 .64.66.65.65 0 0 0-.63-.66zm16.75-.86a.8.8 0 1 0 .87.71.8.8 0 0 0-.86-.7zm2.61 1.17a.76.76 0 1 0 .83.68.76.76 0 0 0-.83-.68zm2.63 1.14a.73.73 0 1 0 .79.65.73.73 0 0 0-.76-.65zm2.63 1.19a.69.69 0 1 0 .76.62.69.69 0 0 0-.73-.62zm-14.68-3.49a.8.8 0 1 0 .71.87.8.8 0 0 0-.71-.87zm-2.64 1.16a.76.76 0 1 0 .68.83.76.76 0 0 0-.68-.83zm-2.63 1.14a.73.73 0 1 0 .65.79.72.72 0 0 0-.64-.79zm-2.63 1.19a.69.69 0 1 0 .62.76.69.69 0 0 0-.62-.76z" fill="#fcd575"></path></g></svg>