<svg xmlns="http://www.w3.org/2000/svg" id="icon-bristol" viewBox="0 0 120 120" width="100%" height="100%"><title>craft</title><path d="M32.41 69.75h-1.88v-14.13c.6.8 1.22 1.57 1.88 2.31v11.82zm7.59-5.18v5.18h1.88v-4l-1.88-1.18zm-2.38-1.71v6.89h1.88v-5.52q-.91-.65-1.83-1.37zm7.13 4.38v2.51h1.88v-1.75c-.63-.21-1.22-.47-1.83-.76zm2.38 1v1.5h1.88v-.84c-.59-.2-1.22-.41-1.84-.65zm-4.71-2.24v3.73h1.88v-2.73c-.64-.31-1.3-.63-1.88-1zm-7.13-5.17v8.9h1.88v-7.26q-.97-.78-1.88-1.62zm14.26 8.9h2.45q-1.26-.29-2.49-.67zm-21.66-17.73l.61 13.53.17 3.86v.33h1.33v-14.79c-.76-1.06-1.5-2.15-2.16-3.3zm-12.41 3.92c-.12 1.35-.19 2.71-.19 4.08v1.32a31.75 31.75 0 0 1 3.78 3.79l.31-7 .32-6.11v-.78q-1.89 1.23-4 2.4-.12 1.15-.22 2.3zm45 14.81h-30.2v4q2.87.48 5.67 1c14.83 2.94 28.11 7.43 39 13.07a57.15 57.15 0 0 1 14.77-11.34v-6.75h-28.72zm-25.69-10.33q-1-.92-1.88-1.91v11.26h1.88zm55.21 9.35h1.84l.78-17.4a39.5 39.5 0 0 1-2.62 3.77zm-4.75-8.56v8.56h1.88v-10.35q-.95.93-1.92 1.79zm2.38-2.29v10.85h1.88v-13c-.64.76-1.27 1.47-1.92 2.15zm-4.75 4.24v6.61h1.88v-8.12q-.97.79-1.93 1.51zm24.82-7.73a73 73 0 0 1-6.88-3.83v.44l.54 12a47.72 47.72 0 0 1 6.51-5.22c-.05-1.14-.1-2.27-.21-3.39zm-46.11-41.71a46.3 46.3 0 0 0-45.66 38.69q2-1.16 3.86-2.38l.07-1.51h-.56v-1.06h9v1.06h-.56v.82a36.36 36.36 0 0 0 64.92.84l.07-1.66h-.53v-1.06h9v1.06h-.56l.08 1.85a69.85 69.85 0 0 0 6.79 3.88 46.29 46.29 0 0 0-45.92-40.53zm9.36 55.48v.56h1.88v-1.16c-.62.22-1.25.42-1.88.61zm2.38-.8v1.36h1.87v-2.11c-.62.27-1.2.52-1.87.76zm7.13-3.58v4.94h1.88v-6.21c-.62.47-1.25.87-1.88 1.28zm-11.66 4.95h1.65v-.41c-.55.15-1.1.28-1.65.41zm9.28-3.53v3.53h1.92v-4.61c-.66.38-1.29.73-1.92 1.08zm-2.38 1.19v2.34h1.88v-3.25c-.58.32-1.25.62-1.88.91z" fill="#dbf3fc"></path><path d="M75 88.81a56.61 56.61 0 0 0-4.09 4.94h-37.33c-1-1.69-2.12-3.34-3.3-4.94v-14.1q2.87.48 5.67 1c14.84 2.98 28.11 7.47 39.05 13.1z" fill="#484f29"></path><path d="M89.72 77.46v11.91c-1 1.33-1.94 2.7-2.84 4.12l-.16.26h-15.81a56.71 56.71 0 0 1 18.81-16.29zm-74.39-16.14a46.47 46.47 0 0 0 .67 6.78c.1.55.2 1.11.32 1.65h2.58l.1-1.29.15-3.36a31.75 31.75 0 0 0-3.82-3.78zm92.53-2.52a47.72 47.72 0 0 0-6.52 5.2l.26 5.73h5.25a46.45 46.45 0 0 0 1-9.75c.03-.38.01-.78 0-1.18z" fill="#698408"></path><path d="M86.71 93.75c-.31.5-.61 1-.91 1.52l-.43.73q-1.45 2.53-2.71 5.22a46 46 0 0 1-18.7 5q-1.17.06-2.36.06a46.11 46.11 0 0 1-18.73-4c-.44-.19-.88-.38-1.31-.59a46.19 46.19 0 0 1-5.2-2.94q-.7-1.42-1.47-2.8c-.42-.76-.85-1.51-1.3-2.25h53.12z" fill="#2e6682"></path><path fill="#89796e" d="M101.2 48.5v-1.06h-9v1.06h9z"></path><path d="M100.78 51.58l-.06-1.23-.08-1.85h-7.87l-.07 1.66-.09 1.84h8.19zm-7.08-.18l.06-1.08v-.21l.05-1h5.78v.49l.06 1.24v.54zm-65.93-2.08v-.82h-7.91l-.07 1.5-.06 1.24v.78h8.19v-.4zm-7 2.08v-2.27h5.78v.32l.1 2z" fill="#938376"></path><path d="M99.71 51.4h-6l.06-1.08v-.21l.05-1h5.78v.49l.06 1.24zm-73-2.14v-.13h-5.81v2.27h6l-.1-2z" fill="#3a3530"></path><path fill="#89796e" d="M27.73 48.5h.56v-1.06h-9v1.06h8.44z"></path><path d="M98 69.75h-2.58l.35-11.75a.94.94 0 1 1 1.88 0l.28 9.63zm-73.15-7.63l-.12-4.12a.94.94 0 0 0-1.87 0l-.07 2.45-.25 8.4v.89h2.56v-.64z" fill="#3a3530"></path><path d="M60.45 69.73a36.74 36.74 0 0 1-32.68-20.41l.1 2.3c.67 1.15 1.4 2.24 2.16 3.3v14.83h.25v1h59.44v-1h.28v-13.63a39.5 39.5 0 0 0 2.63-3.77v-.35l.08-1.86a36.83 36.83 0 0 1-32.26 19.59zm-29.92 0v-14.11c.6.8 1.22 1.57 1.88 2.31v11.82h-1.88zm2.38 0v-11.24q.91 1 1.88 1.91v9.35h-1.88zm4.25 0h-1.87v-8.9q.92.84 1.88 1.62zm2.38 0h-1.87v-6.87q.92.71 1.88 1.37zm2.38 0h-1.92v-5.16c.61.41 1.24.79 1.88 1.16zm.5-3.73c.62.34 1.24.66 1.88 1v2.76h-1.88zm4.25 3.73h-1.87v-2.49c.62.29 1.24.55 1.88.81zm2.38 0h-1.88v-1.5c.62.24 1.25.45 1.88.66zm.5 0v-.67q1.23.38 2.49.67zm20.89 0h-1.64c.55-.13 1.1-.26 1.65-.41zm2.38 0h-1.87v-.56c.63-.19 1.26-.39 1.88-.61zm2.38 0h-1.87v-1.34c.63-.24 1.26-.49 1.88-.76zm2.38 0h-1.88v-2.32c.63-.29 1.26-.59 1.88-.91zm2.38 0h-1.88v-3.51c.63-.34 1.26-.7 1.88-1.08zm2.38 0h-1.88v-4.92c.64-.41 1.26-.83 1.88-1.28zm2.38 0h-1.89v-6.59q1-.73 1.88-1.51zm4.75 0h-1.88v-10.83c.65-.68 1.28-1.39 1.88-2.12zm-2.38 0h-1.88v-8.54q1-.86 1.88-1.79zm20.57-14.34a73 73 0 0 1-6.88-3.83l-.06-1.23a69.85 69.85 0 0 0 6.79 3.88c.05.41.11.79.15 1.2zm-91.73-3q2-1.16 3.86-2.38l-.06 1.24q-1.89 1.23-4 2.4l.2-1.26z" fill="#89796e"></path><path d="M28.69 69.75v-.33l-.17-3.86-.63-13.56h-8.19l-.28 6.11-.31 7-.11 3.35-.06 1.29h-2.61c.23 1.08.51 2.15.81 3.2v.11c.31 1 .64 2.07 1 3.08a71.32 71.32 0 0 1 6.86 6.35 69 69 0 0 1 5.29 6.32v-19.06h-1.6zm-5.83-11.75a.94.94 0 0 1 1.88 0l.12 4.11.2 7v.64h-2.55v-.89l.25-8.4zM101.6 69.75l-.26-5.75-.54-12h-8.19v.33l-.78 17.4h-2.11v19.64a60.14 60.14 0 0 1 15.87-15c.3-.93.59-1.87.84-2.83.16-.61.29-1.23.43-1.84zm-5.83-11.75a.94.94 0 1 1 1.88 0l.28 9.63.07 2.12h-2.58z" fill="#685847"></path><path d="M105.58 74.42a46.25 46.25 0 0 1-10.12 17.13q-1.06 1.14-2.2 2.2t-2.57 2.25q-.93.76-1.91 1.46t-2.14 1.46q-1.93 1.25-4 2.3 1.26-2.69 2.71-5.22l.43-.73.91-1.52.16-.26c.9-1.42 1.85-2.79 2.84-4.12a60.14 60.14 0 0 1 15.89-14.95zm-72 19.33c-1-1.69-2.12-3.34-3.3-4.94a69 69 0 0 0-5.28-6.32 71.32 71.32 0 0 0-6.8-6.35 46.5 46.5 0 0 0 9.53 15.41q1.06 1.14 2.2 2.2t2.56 2.25a46.44 46.44 0 0 0 3.86 2.8q-.7-1.42-1.47-2.8c-.42-.76-.88-1.51-1.3-2.25z" fill="#889b37"></path><path fill="#e6e6e6" d="M46.02 53.233l.557-.157.567 2.016-.557.157zM48.933 54.813l.567-2.016.557.157-.567 2.016z"></path><path d="M48.35 43.78v9.82h1.72a.29.29 0 0 0 .24-.13c.56-.88 2.37-3.85 2.37-5.35a4.34 4.34 0 0 0-4.33-4.34zM44 48.11c0 1.5 1.81 4.48 2.37 5.35a.29.29 0 0 0 .24.13h1.72v-9.81a4.34 4.34 0 0 0-4.33 4.33z" fill="#335262"></path><rect x="46.91" y="54.76" width="2.89" height="2.31" rx=".29" ry=".29" fill="#c6a279"></rect><path d="M45.18 48.11c0 1.73 1.8 5.49 1.8 5.49h1.38v-9.82c-1.76 0-3.18 1.94-3.18 4.33zM51.53 48.11c0-2.39-1.42-4.33-3.18-4.33v9.82h1.38s1.8-3.75 1.8-5.49z" fill="#76b5b5"></path><path d="M47.73 53.6h1.27a38.05 38.05 0 0 0 .82-5.49c0-2.39-.65-4.33-1.44-4.33s-1.44 1.94-1.44 4.33a38.05 38.05 0 0 0 .79 5.49z" fill="#335262"></path><path d="M49.8 55.33h-2.89a.29.29 0 0 1 0-.58h2.89a.29.29 0 0 1 0 .58z" fill="#a67c52"></path><path fill="#e6e6e6" d="M79.916 30.885l1.058-.302 1.1 3.848-1.058.302zM85.359 34.397l1.096-3.848 1.058.301-1.096 3.848z"></path><path d="M83.7 13.14v18.7h3.3a.55.55 0 0 0 .46-.26c1.04-1.67 4.54-7.34 4.54-10.19a8.26 8.26 0 0 0-8.3-8.25zM75.45 21.39c0 2.86 3.45 8.53 4.51 10.2a.55.55 0 0 0 .46.26h3.28v-18.71a8.26 8.26 0 0 0-8.25 8.25z" fill="#2d2e83"></path><rect x="80.95" y="34.04" width="5.5" height="4.4" rx=".55" ry=".55" fill="#c6a279"></rect><path d="M77.65 21.39c0 3.3 3.43 10.45 3.43 10.45h2.62v-18.7c-3.34 0-6.05 3.69-6.05 8.25zM89.76 21.39c0-4.56-2.71-8.25-6.05-8.25v18.7h2.62s3.43-7.15 3.43-10.45z" fill="#ededed"></path><path d="M82.51 31.84h2.39s1.56-7.15 1.56-10.45c0-4.56-1.23-8.25-2.75-8.25s-2.71 3.69-2.71 8.25c0 3.3 1.51 10.45 1.51 10.45z" fill="#2d2e83"></path><path d="M86.45 35.14h-5.45a.55.55 0 0 1 0-1.14h5.5a.55.55 0 0 1 0 1.1z" fill="#a67c52"></path><path fill="#e6e6e6" d="M59.194 38.463l.403-.113.416 1.478-.403.113zM61.586 39.573l.422-1.481.404.115-.422 1.481z"></path><path d="M60.94 31.4v7.2h1.26l.18-.1c.41-.64 1.74-2.83 1.74-3.93a3.18 3.18 0 0 0-3.18-3.17zM57.77 34.58c0 1.1 1.33 3.28 1.74 3.93l.18.1h1.26v-7.21a3.18 3.18 0 0 0-3.18 3.18z" fill="#662483"></path><rect x="59.89" y="39.45" width="2.12" height="1.69" rx=".21" ry=".21" fill="#c6a279"></rect><path d="M58.61 34.58a14.49 14.49 0 0 0 1.32 4h1v-7.18c-1.27 0-2.32 1.42-2.32 3.18zM63.28 34.58c0-1.76-1-3.18-2.33-3.18v7.2h1a14.49 14.49 0 0 0 1.33-4.02z" fill="#c5a3d8"></path><path d="M60.49 38.6h.92a27.91 27.91 0 0 0 .6-4c0-1.76-.47-3.18-1.06-3.18s-1.06 1.42-1.06 3.18a27.9 27.9 0 0 0 .6 4z" fill="#662483"></path><path d="M62 39.88h-2.11a.21.21 0 0 1 0-.42h2.11a.21.21 0 0 1 0 .42z" fill="#a67c52"></path><path fill="#e6e6e6" d="M31.506 42.728l.327-.093.341 1.193-.327.093zM33.184 43.799l.34-1.193.327.093-.34 1.193z"></path><path d="M32.66 37.23v5.77h1l.14-.08a8.92 8.92 0 0 0 1.4-3.15 2.55 2.55 0 0 0-2.54-2.54zM30.11 39.79a8.92 8.92 0 0 0 1.4 3.15l.14.08h1v-5.79a2.55 2.55 0 0 0-2.54 2.56z" fill="#e30613"></path><rect x="31.81" y="43.7" width="1.7" height="1.36" rx=".17" ry=".17" fill="#c6a279"></rect><path d="M30.79 39.79a11.63 11.63 0 0 0 1.06 3.21h.81v-5.77c-1.03 0-1.87 1.15-1.87 2.56zM34.53 39.79c0-1.41-.84-2.55-1.87-2.55v5.76h.81a11.63 11.63 0 0 0 1.06-3.21z" fill="#27348b"></path><path d="M32.29 43h.71a22.41 22.41 0 0 0 .48-3.23c0-1.41-.38-2.55-.85-2.55s-.85 1.14-.85 2.55a22.41 22.41 0 0 0 .51 3.23z" fill="#e30613"></path><path d="M33.51 44h-1.7a.17.17 0 1 1 0-.34h1.7a.17.17 0 0 1 0 .34z" fill="#a67c52"></path><path fill="#e6e6e6" d="M44.346 29.811l.24-.069.25.875-.24.069zM45.54 30.585l.249-.875.24.069-.249.875z"></path><path d="M45.18 25.79a1.87 1.87 0 0 0-1.87 1.87 6.53 6.53 0 0 0 1 2.31l.11.06h1.48l.1-.03a6.53 6.53 0 0 0 1-2.31 1.87 1.87 0 0 0-1.82-1.9z" fill="#f39200"></path><path fill="#c6a279" d="M45.67 31.52h-.99l-.13-.13v-.75l.13-.12h.99l.13.12v.75l-.13.13z"></path><path fill="#a67c52" d="M45.8 30.77h-1.25l-.12-.13.12-.12h1.25l.12.12-.12.13z"></path></svg>