<svg id="craft" xmlns="http://www.w3.org/2000/svg" viewBox="0 0 249.06 72.21"><title>craft</title><path id="logo" d="M125.42,30.7H136.2l1.26-6.59H126.68l1.84-9.64h0l-8.18,6.41-0.61,3.23h-8.51l2.48-13c0.58-4.9,8-3.42,9.16-3.14l1.19-6.26c-13.43-5.16-17.35,9.4-17.35,9.4l-2.47,13h0L95.82,30.7H103L95.11,72.21h7L110,30.7h8.47L115.39,47c-2,11.83,9.88,10.53,13.66,9.77l1.18-6.2c-9,2-7.85-3.58-7.85-3.58Zm-41.35,17c-7.28,7.46-11.93,2.58-11.93,2.58-3.15-3.07.33-6.22,0.33-6.22,4.81-4.4,12.18.43,12.18,0.43Zm1.61-9s-10-5.14-17,.58a10.27,10.27,0,0,0-4.11,8.21c0,5.48,5,8.42,5,8.42S77.12,60,83,53.57l-0.65,3H89l4.16-19.71C96.27,17.41,73.09,24.3,73.09,24.3l-1.26,7C88.91,23.85,86,36.83,86,36.83ZM67.16,24.13A22.86,22.86,0,0,0,56.87,27.2l0.63-3H51l-5.9,32.36h6.61l4-21.29c3-6,10.27-4.14,10.27-4.14ZM41.93,10.26c0.33,0.25.65,0.52,1,.79l5-3.94,0.16-.2A23.16,23.16,0,0,0,45.6,4.72C34.08-4,16.68-.33,6.73,12.85S-1.95,43.76,9.57,52.46c9.4,7.1,22.73,6,32.72-1.85h0l-4.78-3.75c-7.4,4.76-16.59,5.1-23.23.09-8.85-6.68-9.82-20.3-2.18-30.43S33.1,3.6,42,10.28M170.18,54a21.41,21.41,0,0,1-4.65,2.23,16.84,16.84,0,0,1-5.49.87,16.33,16.33,0,0,1-6.43-1.25,15.16,15.16,0,0,1-5.07-3.44,16.13,16.13,0,0,1-3.33-5.15A16.55,16.55,0,0,1,144,40.94a17.34,17.34,0,0,1,1.17-6.39,15.6,15.6,0,0,1,8.44-8.74A15.92,15.92,0,0,1,160,24.52a16.81,16.81,0,0,1,5.49.87,21.47,21.47,0,0,1,4.65,2.23l-1.29,1.89a20.91,20.91,0,0,0-4-2,13.81,13.81,0,0,0-4.8-.79,13.58,13.58,0,0,0-5.52,1.1,13.22,13.22,0,0,0-4.28,3,13,13,0,0,0-2.76,4.43,15.33,15.33,0,0,0-1,5.52,15.63,15.63,0,0,0,1,5.56,13.77,13.77,0,0,0,2.76,4.54,12.67,12.67,0,0,0,4.28,3,13.58,13.58,0,0,0,5.52,1.1,13.82,13.82,0,0,0,4.8-.79,20.84,20.84,0,0,0,4-2ZM220,56.53V35.4q0-8.63-7.42-8.63a12,12,0,0,0-6.51,2A20.8,20.8,0,0,0,200.52,34V56.54H198.1V35.4q0-8.63-7.42-8.63a11.54,11.54,0,0,0-6.47,2,28.52,28.52,0,0,0-5.56,4.84V56.54h-2.42V25.14h2.39V31A24.16,24.16,0,0,1,181,28.66a19.62,19.62,0,0,1,2.91-2.08,16.15,16.15,0,0,1,3.37-1.48,12.59,12.59,0,0,1,3.78-.57,9.35,9.35,0,0,1,5.6,1.74,8.7,8.7,0,0,1,3.25,5.37,21.85,21.85,0,0,1,5.67-5A13.64,13.64,0,0,1,213,24.52a10.66,10.66,0,0,1,3.6.61,8.09,8.09,0,0,1,3,1.93,9.26,9.26,0,0,1,2.06,3.34,13.64,13.64,0,0,1,.76,4.8V56.54H220Zm29-8.13a8.36,8.36,0,0,1-.68,3.33,7.92,7.92,0,0,1-2,2.76,10.12,10.12,0,0,1-3.06,1.89,10.74,10.74,0,0,1-4,.72,15.65,15.65,0,0,1-5.68-1,24.47,24.47,0,0,1-5.07-2.69l1.14-1.82a25,25,0,0,0,4.54,2.5,13,13,0,0,0,5.07,1,7.9,7.9,0,0,0,5.45-1.82,5.74,5.74,0,0,0,2-4.46,5.13,5.13,0,0,0-1.21-3.59,10.67,10.67,0,0,0-3.06-2.27,34,34,0,0,0-4-1.7,24.56,24.56,0,0,1-4-1.82,10.06,10.06,0,0,1-3.06-2.65,6.81,6.81,0,0,1-1.21-4.24,7.15,7.15,0,0,1,.64-2.95A8,8,0,0,1,232.61,27a9.1,9.1,0,0,1,3-1.82,11,11,0,0,1,4-.68,14.67,14.67,0,0,1,4.73.76,16.8,16.8,0,0,1,4.35,2.27l-1.07,1.85a15.82,15.82,0,0,0-3.9-2.2,11.66,11.66,0,0,0-4-.68q-3.63,0-5.41,1.78a5.49,5.49,0,0,0-1.78,4,5.12,5.12,0,0,0,1.21,3.59,10.1,10.1,0,0,0,3.07,2.23,38,38,0,0,0,4,1.66,27.25,27.25,0,0,1,4,1.78,9.65,9.65,0,0,1,3.06,2.61,6.82,6.82,0,0,1,1.21,4.24" transform="translate(-0.03 0)" fill="#d95a48"/></svg>