<svg xmlns="http://www.w3.org/2000/svg" id="icon-Email" viewBox="0 0 35 35" width="100%" height="100%"><title>icon__email</title><desc>Created with Sketch.</desc><g fill="#fff"><path d="M19.049 19.676c-.472.232-1.008.355-1.549.355-.54 0-1.076-.123-1.55-.355l-15.924-7.796-.026.12v17c0 .553.49 1 1.094 1h32.813c.604 0 1.094-.447 1.094-1v-17l-.026-.119-15.925 7.795zM33.906 6h-32.813c-.604 0-1.094.447-1.094 1v2c0 .369.222.708.578.882l16.406 8.031c.161.079.339.118.516.118s.355-.039.516-.118l16.406-8.031c.355-.174.578-.513.578-.882v-2c0-.553-.49-1-1.094-1z"></path></g></svg>