<svg xmlns="http://www.w3.org/2000/svg" id="icon-Facebook" viewBox="0 0 35 35" width="100%" height="100%"><title>Facebook-color</title><desc>Created with Sketch.</desc><path d="M18.695 35h-16.763c-1.067 0-1.932-.865-1.932-1.932v-31.136c0-1.067.865-1.932 1.932-1.932h31.137c1.067 0 1.932.865 1.932 1.932v31.136c0 1.067-.865 1.932-1.932 1.932h-8.919v-13.554h4.549l.681-5.282h-5.231v-3.372c0-1.529.425-2.572 2.618-2.572l2.797-.001v-4.724c-.484-.064-2.144-.208-4.076-.208-4.033 0-6.794 2.462-6.794 6.982v3.895h-4.561v5.282h4.561v13.554z" fill="#fff"></path></svg>