<svg id="Layer_1" data-name="Layer 1" xmlns="http://www.w3.org/2000/svg" viewBox="0 0 218.65 93.41"><defs><style>.cls-1{opacity:0.96;}.cls-2{fill:#1e9fb5;}.cls-3{fill:#222d3a;}</style></defs><title>guru-tagline</title><g class="cls-1"><path class="cls-2" d="M26.78,59.2a49.46,49.46,0,0,1-12.85-1.41,18.39,18.39,0,0,1-8.25-4.48,16.94,16.94,0,0,1-4.39-7.88A45.83,45.83,0,0,1,0,33.74V25.54A41.8,41.8,0,0,1,1.37,14.18,17.4,17.4,0,0,1,6,6.22a20.23,20.23,0,0,1,8.71-4.68A50.74,50.74,0,0,1,28.27,0h9.41q2.2,0,4.44,0L47,0.17,44.85,11.61l-6.67-.12q-2.78,0-4.77,0h-6a31.07,31.07,0,0,0-6.63.58,8,8,0,0,0-4.06,2.11,8.29,8.29,0,0,0-2,4.31,39.39,39.39,0,0,0-.54,7.25V33.5a37.75,37.75,0,0,0,.58,7.42,9.22,9.22,0,0,0,2,4.35,6.79,6.79,0,0,0,3.81,2.07,30.64,30.64,0,0,0,6.05.5h8.46V37.06H25.78l2.32-11.28H48.83V50.41a15.3,15.3,0,0,1-.41,3.77,5.85,5.85,0,0,1-1.53,2.74,7.11,7.11,0,0,1-3,1.7A17.14,17.14,0,0,1,39,59.2H26.78Z"/><path class="cls-2" d="M56.54,0.17H70.22V35.82a38.72,38.72,0,0,0,.46,6.51,8.9,8.9,0,0,0,1.7,4.15,6.58,6.58,0,0,0,3.36,2.16,20.06,20.06,0,0,0,5.51.62,20.17,20.17,0,0,0,5.47-.62,6.58,6.58,0,0,0,3.4-2.16,9.23,9.23,0,0,0,1.74-4.15,35.63,35.63,0,0,0,.5-6.51V0.17H106V35.73a46.86,46.86,0,0,1-1.16,11.15,17.19,17.19,0,0,1-4,7.75,17.21,17.21,0,0,1-7.59,4.56,40.32,40.32,0,0,1-11.94,1.49A40.32,40.32,0,0,1,69.31,59.2a17.21,17.21,0,0,1-7.59-4.56,17.17,17.17,0,0,1-4-7.75,46.8,46.8,0,0,1-1.16-11.15V0.17Z"/><path class="cls-2" d="M161.34,20.48q0,6.47-2.69,10.32a15.56,15.56,0,0,1-7.84,5.68L164.16,59.2h-15L137.88,38.47h-9.37V59.2H115.16v-59H139a45.14,45.14,0,0,1,10.2,1,17.26,17.26,0,0,1,6.92,3.15,12.71,12.71,0,0,1,4,5.6,23.9,23.9,0,0,1,1.28,8.33v2.24Zm-13.43-1.41a12.69,12.69,0,0,0-.5-3.85,5,5,0,0,0-1.58-2.4,6.33,6.33,0,0,0-2.86-1.2,24.92,24.92,0,0,0-4.44-.33h-10V27.69h10a24.8,24.8,0,0,0,4.44-.33,6,6,0,0,0,2.86-1.24,5.23,5.23,0,0,0,1.58-2.45,13,13,0,0,0,.5-3.94V19.07Z"/><path class="cls-2" d="M169.22,0.17H182.9V35.82a38.74,38.74,0,0,0,.46,6.51,8.9,8.9,0,0,0,1.7,4.15,6.57,6.57,0,0,0,3.36,2.16,24.58,24.58,0,0,0,11,0,6.58,6.58,0,0,0,3.4-2.16,9.23,9.23,0,0,0,1.74-4.15,35.58,35.58,0,0,0,.5-6.51V0.17h13.6V35.73a46.86,46.86,0,0,1-1.16,11.15,17.19,17.19,0,0,1-4,7.75,17.21,17.21,0,0,1-7.59,4.56,40.32,40.32,0,0,1-11.94,1.49A40.31,40.31,0,0,1,182,59.2a17.21,17.21,0,0,1-7.59-4.56,17.17,17.17,0,0,1-4-7.75,46.81,46.81,0,0,1-1.16-11.15V0.17Z"/></g><g class="cls-1"><path class="cls-3" d="M4.51,84.85a12.51,12.51,0,0,0,.17,2.28,2.76,2.76,0,0,0,.63,1.39,2.39,2.39,0,0,0,1.27.69,9.54,9.54,0,0,0,2,.18H11.8l1.68,0-0.7,3.6Q11.17,93,10.22,93H8.4a15.25,15.25,0,0,1-3.9-.43,5.74,5.74,0,0,1-2.58-1.39A5.43,5.43,0,0,1,.51,88.65a15,15,0,0,1-.43-3.87V82.62a13.88,13.88,0,0,1,.45-3.84A5.72,5.72,0,0,1,2,76.26a5.68,5.68,0,0,1,2.58-1.4,15,15,0,0,1,3.85-.43h3.23l1.7,0-0.7,3.6-2,0h-2a9.53,9.53,0,0,0-2.06.18,2.36,2.36,0,0,0-1.24.67,2.66,2.66,0,0,0-.61,1.37,13.78,13.78,0,0,0-.16,2.31v2.28Z"/><path class="cls-3" d="M20.76,74.49V89.34h8.68l-0.7,3.6H16.49V74.49h4.28Z"/><path class="cls-3" d="M39.6,93.41a14.16,14.16,0,0,1-4.06-.49,5.42,5.42,0,0,1-4-4.12,15.39,15.39,0,0,1-.4-3.76v-2.7a15.34,15.34,0,0,1,.39-3.67,5.75,5.75,0,0,1,1.36-2.6,6,6,0,0,1,2.59-1.55A13.6,13.6,0,0,1,39.6,74a14,14,0,0,1,4,.49A5.82,5.82,0,0,1,46.23,76a5.76,5.76,0,0,1,1.37,2.59,15.26,15.26,0,0,1,.4,3.75V85a15.47,15.47,0,0,1-.39,3.69,5.47,5.47,0,0,1-3.93,4.16A13.6,13.6,0,0,1,39.6,93.41Zm0-3.58a8.82,8.82,0,0,0,2-.18,2.16,2.16,0,0,0,1.21-.71,3.15,3.15,0,0,0,.61-1.48A14.65,14.65,0,0,0,43.57,85V82.42A14.7,14.7,0,0,0,43.4,80a3.08,3.08,0,0,0-.61-1.48,2.26,2.26,0,0,0-1.21-.71,8.28,8.28,0,0,0-2-.19,9,9,0,0,0-2,.18,2.17,2.17,0,0,0-1.22.71,3.14,3.14,0,0,0-.61,1.48,14.6,14.6,0,0,0-.17,2.48V85a14.4,14.4,0,0,0,.17,2.45,3.13,3.13,0,0,0,.61,1.48,2.23,2.23,0,0,0,1.22.73A8.47,8.47,0,0,0,39.6,89.83Z"/><path class="cls-3" d="M50.77,74.49H55V85.63a12.13,12.13,0,0,0,.14,2,2.79,2.79,0,0,0,.53,1.3,2.06,2.06,0,0,0,1,.67,7.69,7.69,0,0,0,3.43,0A2.06,2.06,0,0,0,61.27,89a2.89,2.89,0,0,0,.54-1.3,11.14,11.14,0,0,0,.16-2V74.49h4.25V85.6a14.64,14.64,0,0,1-.36,3.49,5.05,5.05,0,0,1-3.63,3.85,12.6,12.6,0,0,1-3.73.47,12.61,12.61,0,0,1-3.73-.47,5.05,5.05,0,0,1-3.63-3.85,14.62,14.62,0,0,1-.36-3.49V74.49Z"/><path class="cls-3" d="M69.41,74.49H77A13.22,13.22,0,0,1,81,75a5.32,5.32,0,0,1,3.82,4,15,15,0,0,1,.38,3.56v2.2a14.7,14.7,0,0,1-.38,3.51,5.85,5.85,0,0,1-1.31,2.55A5.68,5.68,0,0,1,81,92.42a12.55,12.55,0,0,1-3.91.52h-7.7V74.49Zm4.2,14.88h3.08a8,8,0,0,0,1.92-.19,2.53,2.53,0,0,0,1.26-.7,3,3,0,0,0,.69-1.4,10.43,10.43,0,0,0,.21-2.29V82.62a10.25,10.25,0,0,0-.21-2.28A3,3,0,0,0,79.87,79a2.54,2.54,0,0,0-1.26-.7,8,8,0,0,0-1.92-.19H73.61v11.3Z"/><path class="cls-3" d="M111.79,85.34h-7.7v4h9.36l-0.7,3.6H99.82V74.49H113.3l-0.67,3.6H104.1v3.65h8.37Z"/><path class="cls-3" d="M126.85,83.17l6.61,9.77h-4.92l-4.17-6.66-4.15,6.66h-4.74l6.58-9.77-5.86-8.68H121l3.55,5.68,3.5-5.68h4.69Z"/><path class="cls-3" d="M140,86.72v6.22h-4.17V74.49h7.39q3.78,0,5.42,1.35a5.2,5.2,0,0,1,1.63,4.25v1a5.16,5.16,0,0,1-1.67,4.21q-1.67,1.39-5.43,1.39H140Zm6-6.27a4.07,4.07,0,0,0-.16-1.23,1.59,1.59,0,0,0-.51-0.76,2,2,0,0,0-.92-0.39A8.18,8.18,0,0,0,143,78h-3v5.29h3a8.18,8.18,0,0,0,1.43-.1,2,2,0,0,0,.92-0.39,1.59,1.59,0,0,0,.51-0.76,4.06,4.06,0,0,0,.16-1.23V80.45Z"/><path class="cls-3" d="M165.31,85.34h-7.7v4H167l-0.7,3.6H153.34V74.49h13.48l-0.67,3.6h-8.53v3.65H166Z"/><path class="cls-3" d="M184.39,80.84a5.54,5.54,0,0,1-.84,3.23,4.86,4.86,0,0,1-2.45,1.78l4.17,7.1h-4.69l-3.53-6.48h-2.93v6.48H170V74.49h7.44a14.12,14.12,0,0,1,3.19.31,5.39,5.39,0,0,1,2.16,1A4,4,0,0,1,184,77.53a7.47,7.47,0,0,1,.4,2.6v0.7Zm-4.2-.44a4,4,0,0,0-.16-1.21,1.56,1.56,0,0,0-.49-0.75,2,2,0,0,0-.89-0.38,7.79,7.79,0,0,0-1.39-.1h-3.14v5.13h3.14a7.74,7.74,0,0,0,1.39-.1,1.89,1.89,0,0,0,.89-0.39,1.63,1.63,0,0,0,.49-0.76,4.07,4.07,0,0,0,.16-1.23V80.39Z"/><path class="cls-3" d="M203.31,74.49l-0.7,3.6h-5.55V92.94h-4.28V78.09h-6.17l0.67-3.6h16Z"/><path class="cls-3" d="M213.93,82.05a9.28,9.28,0,0,1,2.25.65,4.14,4.14,0,0,1,1.45,1,3.78,3.78,0,0,1,.78,1.5,7.77,7.77,0,0,1,.23,2v0.39a7,7,0,0,1-.36,2.4,3.63,3.63,0,0,1-1.22,1.66,5.65,5.65,0,0,1-2.26,1,16.19,16.19,0,0,1-3.45.31H206.9l-2.27,0,0.65-3.47q2,0.05,3.49.05h2.66a9,9,0,0,0,1.41-.09,2.34,2.34,0,0,0,.88-0.3,1,1,0,0,0,.44-0.56,2.88,2.88,0,0,0,.12-0.89,4.52,4.52,0,0,0-.06-0.83,1,1,0,0,0-.28-0.56,1.67,1.67,0,0,0-.6-0.36,5.43,5.43,0,0,0-1-.25l-2.72-.47a11.56,11.56,0,0,1-2.46-.66,4.15,4.15,0,0,1-1.52-1,3.35,3.35,0,0,1-.76-1.48,8.5,8.5,0,0,1-.21-2V79.64a6.2,6.2,0,0,1,.36-2.2,3.82,3.82,0,0,1,1.19-1.63,5.67,5.67,0,0,1,2.16-1,13,13,0,0,1,3.25-.35h4.47l2,0L217.48,78q-2-.05-3.43-0.05h-2.5a7.73,7.73,0,0,0-1.3.09,2.07,2.07,0,0,0-.8.29,1,1,0,0,0-.4.53,2.56,2.56,0,0,0-.12.83,3.73,3.73,0,0,0,.06.75,1,1,0,0,0,.26.52,1.49,1.49,0,0,0,.56.35,5,5,0,0,0,1,.25Z"/></g></svg>