<svg xmlns="http://www.w3.org/2000/svg" id="icon-Instagram" viewBox="0 0 35 35" width="100%" height="100%"><title>Instagram</title><path d="M17.5,0c-4.75,0-5.35,0-7.22.1A12.86,12.86,0,0,0,6,.92a8.59,8.59,0,0,0-3.1,2A8.57,8.57,0,0,0,.92,6a12.83,12.83,0,0,0-.81,4.25C0,12.15,0,12.75,0,17.5s0,5.35.1,7.22A12.86,12.86,0,0,0,.92,29a8.59,8.59,0,0,0,2,3.1,8.57,8.57,0,0,0,3.1,2,12.83,12.83,0,0,0,4.25.81c1.87.08,2.46.1,7.22.1s5.35,0,7.22-.1A12.86,12.86,0,0,0,29,34.08,8.94,8.94,0,0,0,34.08,29a12.83,12.83,0,0,0,.81-4.25c.08-1.87.1-2.46.1-7.22s0-5.35-.1-7.22A12.86,12.86,0,0,0,34.08,6a8.59,8.59,0,0,0-2-3.1,8.57,8.57,0,0,0-3.1-2A12.83,12.83,0,0,0,24.72.11C22.85,0,22.25,0,17.5,0Zm0,3.15c4.67,0,5.23,0,7.07.1a9.67,9.67,0,0,1,3.25.6,5.42,5.42,0,0,1,2,1.31,5.42,5.42,0,0,1,1.31,2,9.67,9.67,0,0,1,.6,3.25c.08,1.85.1,2.4.1,7.07s0,5.23-.1,7.07a9.67,9.67,0,0,1-.6,3.25,5.8,5.8,0,0,1-3.32,3.32,9.67,9.67,0,0,1-3.25.6c-1.84.08-2.4.1-7.07.1s-5.23,0-7.07-.1a9.67,9.67,0,0,1-3.25-.6,5.42,5.42,0,0,1-2-1.31,5.42,5.42,0,0,1-1.31-2,9.67,9.67,0,0,1-.6-3.25c-.08-1.84-.1-2.4-.1-7.07s0-5.23.1-7.07a9.67,9.67,0,0,1,.6-3.25,5.42,5.42,0,0,1,1.31-2,5.42,5.42,0,0,1,2-1.31,9.67,9.67,0,0,1,3.25-.6C12.27,3.17,12.83,3.15,17.5,3.15Zm0,5.36a9,9,0,1,0,9,9A9,9,0,0,0,17.5,8.51Zm0,14.82a5.83,5.83,0,1,1,5.83-5.83A5.83,5.83,0,0,1,17.5,23.33ZM28.94,8.16a2.1,2.1,0,1,1-2.1-2.1A2.1,2.1,0,0,1,28.94,8.16Z" transform="translate(0)" fill="#fff"></path></svg>