<svg xmlns="http://www.w3.org/2000/svg" id="icon-Medium" viewBox="0 0 35 30" width="100%" height="100%"><title>Medium-black</title><desc>Created with Sketch.</desc><g fill="#fff"><path d="M34.617 5.351l-.02-.016-.012-.006-10.424-5.173-.219-.078-.287-.039c-.399 0-.796.199-1.012.546l-6.001 9.679 7.531 12.146 10.476-16.895c.035-.056.018-.126-.032-.165"></path><path d="M13.336 8.06v11.018l9.867 4.897-9.867-15.915"></path><path d="M24.686 24.71l8.122 4.031c1.057.525 1.914.157 1.914-.82v-19.397l-10.036 16.187"></path><path d="M11.623 5.366l-10.181-5.052c-.184-.091-.359-.134-.517-.134-.446 0-.758.342-.758.917v21.816c0 .584.431 1.275.957 1.537l8.967 4.45c.23.114.449.168.647.168.557 0 .948-.428.948-1.146v-22.455l-.062-.099"></path></g></svg>