<?xml version="1.0" encoding="UTF-8"?>
<svg width="947px" height="372px" viewBox="0 0 947 372" version="1.1" xmlns="http://www.w3.org/2000/svg" xmlns:xlink="http://www.w3.org/1999/xlink">
    <!-- Generator: Sketch 42 (36781) - http://www.bohemiancoding.com/sketch -->
    <title>Untitled</title>
    <desc>Created with Sketch.</desc>
    <defs></defs>
    <g id="Page-1" stroke="none" stroke-width="1" fill="none" fill-rule="evenodd">
        <g id="Group" transform="translate(496.821000, 119.178500)" fill-rule="nonzero" fill="#FFFFFF">
            <g transform="translate(0.000000, -0.000000)">
                <path d="M67.197,0.9075 C64.197,-0.0925 60.557,1.7975 58.137,5.6575 L11.197,80.4975 C10.5143396,81.6025427 9.96389847,82.7839773 9.557,84.0175 L10.417,84.3175 C15.6281545,70.8056274 30.606989,63.8510235 44.2917478,68.5896105 C57.9765067,73.3281975 65.4472984,88.0563769 61.187,101.8975 L62.337,102.2975 C62.3253295,102.206432 62.3546277,102.114875 62.417,102.0475 C62.8349632,100.843861 63.1101801,99.595316 63.237,98.3275 L71.457,10.3275 C71.897,5.7275 70.207,1.9175 67.197,0.9075 Z" id="indicator-top"></path>
                <path d="M61.197,101.8875 C56.7234144,115.935102 41.7697606,123.757991 27.6790283,119.42217 C13.5882959,115.086349 5.61935945,100.210012 9.817,86.0775 C9.997,85.4841667 10.2003333,84.8975 10.427,84.3175 L9.567,84.0175 L9.567,84.2775 C9.16237433,85.4523746 8.8972225,86.6707305 8.777,87.9075 L0.517,175.8175 C0.097,180.3575 1.827,184.0575 4.837,185.0775 C7.847,186.0975 11.477,184.1775 13.897,180.3175 L60.647,105.7775 C61.374715,104.703995 61.9533314,103.53667 62.367,102.3075 L61.197,101.8875 Z" id="indicator-bottom"></path>
            </g>
        </g>
        <g id="pixelpioneers-white" fill-rule="nonzero" fill="#FFFFFF">
            <path d="M540.66,329.55 C540.654477,334.059558 536.996232,337.711834 532.486671,337.709993 C527.97711,337.708152 524.321848,334.05289 524.320007,329.543329 C524.318166,325.033768 527.970442,321.375523 532.48,321.37 C534.6511,321.364672 536.734812,322.22478 538.270016,323.759984 C539.80522,325.295188 540.665328,327.3789 540.66,329.55 L540.66,329.55 Z M532.48,114.55 C535.787182,114.554038 538.770588,112.563879 540.037121,109.508824 C541.303654,106.453769 540.60346,102.936501 538.263495,100.599403 C535.923529,98.2623047 532.405405,97.5664249 529.351906,98.8367033 C526.298406,100.106982 524.311907,103.092826 524.32,106.4 C524.325518,110.902738 527.977259,114.550003 532.48,114.55 L532.48,114.55 Z" id="Shape"></path>
            <path d="M678.24,268.06 C657.04,328.06 599.65,371.43 532.34,371.43 C465.03,371.43 407.64,328.06 386.44,268.06 L412.34,268.06 C417.687199,280.306899 424.869662,291.667329 433.64,301.75 L441.14,295.26 C442.84488,293.796541 445.41211,293.986912 446.882486,295.68583 C448.352863,297.384748 448.172927,299.952731 446.48,301.43 L439.17,307.75 C463.599538,333.001622 497.230305,347.259028 532.365,347.259028 C567.499695,347.259028 601.130462,333.001622 625.56,307.75 L618.34,301.44 C616.647073,299.962731 616.467137,297.394748 617.937514,295.69583 C619.40789,293.996912 621.97512,293.806541 623.68,295.27 L631.12,301.7 C639.857901,291.627322 647.013046,280.284293 652.34,268.06 L678.24,268.06 Z M416.19,157.06 L389.55,157.06 C410.545324,106.811768 456.354223,71.2547403 510.24,63.38 C511.290492,60.3522118 512.808906,57.5077163 514.74,54.95 C504.30129,47.3302723 499.949361,33.8599288 503.95674,21.5730324 C507.96412,9.2861361 519.421111,0.971882847 532.345,0.971882847 C545.268889,0.971882847 556.72588,9.2861361 560.73326,21.5730324 C564.740639,33.8599288 560.38871,47.3302723 549.95,54.95 C551.881233,57.5076273 553.399659,60.3521456 554.45,63.38 C608.335777,71.2547403 654.144676,106.811768 675.14,157.06 L648.5,157.06 C643.799764,147.919577 638.040152,139.364069 631.34,131.57 L623.64,138.23 C621.93512,139.693459 619.36789,139.503088 617.897514,137.80417 C616.427137,136.105252 616.607073,133.537269 618.3,132.06 L625.82,125.55 C601.300304,100.264196 567.584664,85.9875901 532.362692,85.9762853 C497.14072,85.9649805 463.415923,100.21994 438.88,125.49 L446.47,132.05 C448.162927,133.527269 448.342863,136.095252 446.872486,137.79417 C445.40211,139.493088 442.83488,139.683459 441.13,138.22 L433.34,131.51 C426.635924,139.322805 420.876182,147.898644 416.18,157.06 L416.19,157.06 Z M511.28,30.85 C511.298534,38.1584877 515.106628,44.934321 521.34,48.75 C527.974975,44.2239442 536.705025,44.2239442 543.34,48.75 C551.970016,43.4274297 555.579318,32.7089127 551.926637,23.2503265 C548.273957,13.7917403 538.397363,8.28115456 528.429923,10.1404778 C518.462484,11.999801 511.236882,20.7006254 511.24,30.84 L511.28,30.85 Z" id="Shape"></path>
            <g id="Group" transform="translate(0.000000, 175.000000)">
                <path d="M19.11,73.64 L2.84217094e-14,73.64 L2.84217094e-14,2.24 L27.09,2.24 C31.4561273,2.15951735 35.7993922,2.88848063 39.9,4.39 C43.4089823,5.69680328 46.609463,7.71582994 49.3,10.32 C51.8491437,12.830776 53.8362723,15.8540746 55.13,19.19 C57.7914323,26.3369367 57.7914323,34.2030633 55.13,41.35 C53.8451969,44.6758927 51.8564197,47.6846431 49.3,50.17 C46.5983838,52.7478788 43.4000544,54.7485359 39.9,56.05 C35.7995108,57.5519677 31.4561615,58.2809451 27.09,58.2 L19.09,58.2 L19.11,73.64 Z M26.18,42.14 C30.4733333,42.14 33.5166667,41.0466667 35.31,38.86 C37.190873,36.4069472 38.1437063,33.3677985 38,30.28 C38.019374,28.6516026 37.8072537,27.0287137 37.37,25.46 C36.9768516,24.0668713 36.2724739,22.781211 35.31,21.7 C34.3037107,20.6017974 33.0582566,19.7498247 31.67,19.21 C29.914346,18.5618564 28.0507035,18.2563412 26.18,18.31 L19.11,18.31 L19.11,42.14 L26.18,42.14 Z" id="Shape"></path>
                <path d="M76.86,2.24 L95.97,2.24 L95.97,73.64 L76.86,73.64 L76.86,2.24 Z M117.91,2.24 L139.22,2.24 L149.83,20.3 L160.54,2.24 L180.34,2.24 L159.66,34.48 L184.23,73.65 L162.96,73.65 L148.58,49.5 L133.88,73.65 L114.03,73.65 L138.7,35.32 L117.91,2.24 Z M201.91,2.24 L251.99,2.24 L251.99,18.31 L220.99,18.31 L220.99,34.9 L246.82,34.9 L246.82,50.13 L221.02,50.13 L221.02,57.58 L253.47,57.58 L253.47,73.65 L201.91,73.65 L201.91,2.24 Z M273.2,2.24 L292.34,2.24 L292.34,57.57 L322.69,57.57 L322.69,73.64 L273.21,73.64 L273.2,2.24 Z" id="Shape"></path>
                <path d="M397,73.64 L377.89,73.64 L377.89,2.24 L404.98,2.24 C409.346127,2.15951735 413.689392,2.88848063 417.79,4.39 C421.298982,5.69680328 424.499463,7.71582994 427.19,10.32 C429.739144,12.830776 431.726272,15.8540746 433.02,19.19 C435.681432,26.3369367 435.681432,34.2030633 433.02,41.35 C431.735197,44.6758927 429.74642,47.6846431 427.19,50.17 C424.488384,52.7478788 421.290054,54.7485359 417.79,56.05 C413.689511,57.5519677 409.346162,58.2809451 404.98,58.2 L396.98,58.2 L397,73.64 Z M404.07,42.14 C408.363333,42.14 411.406667,41.0466667 413.2,38.86 C415.080873,36.4069472 416.033706,33.3677985 415.89,30.28 C415.909374,28.6516026 415.697254,27.0287137 415.26,25.46 C414.866852,24.0668713 414.162474,22.781211 413.2,21.7 C412.193711,20.6017974 410.948257,19.7498247 409.56,19.21 C407.804346,18.5618564 405.940704,18.2563412 404.07,18.31 L397,18.31 L397,42.14 L404.07,42.14 Z M532.03,74.59 C527.006026,74.6180071 522.02086,73.709147 517.33,71.91 C512.822401,70.1951192 508.687137,67.6284031 505.15,64.35 C501.630003,61.0708701 498.792365,57.1287618 496.8,52.75 C492.671197,43.3117886 492.671197,32.5782114 496.8,23.14 C498.785809,18.7720129 501.624767,14.8450706 505.15,11.59 C508.701936,8.33842755 512.83837,5.79005832 517.34,4.08 C526.79741,0.508663111 537.23259,0.508663111 546.69,4.08 C551.206678,5.78378734 555.357358,8.33256932 558.92,11.59 C562.445233,14.8450706 565.284191,18.7720129 567.27,23.14 C571.400023,32.5779561 571.400023,43.3120439 567.27,52.75 C565.276951,57.1283648 562.439403,61.0703469 558.92,64.35 C555.369883,67.6362591 551.216688,70.2035652 546.69,71.91 C542.010804,73.7011248 537.04025,74.6097935 532.03,74.59 L532.03,74.59 Z M532.03,58 C534.779285,58.055048 537.508069,57.5161131 540.03,56.42 C542.263158,55.4257993 544.265453,53.9785623 545.91,52.17 C547.552935,50.3252979 548.80179,48.1644727 549.58,45.82 C551.259956,40.704393 551.259956,35.185607 549.58,30.07 C548.801275,27.7257587 547.552478,25.5650328 545.91,23.72 C544.272378,21.9162085 542.26741,20.4840883 540.03,19.52 C534.891936,17.4789838 529.168064,17.4789838 524.03,19.52 C521.79167,20.4824557 519.786376,21.9148083 518.15,23.72 C516.503711,25.5639816 515.251447,27.7248187 514.47,30.07 C512.790044,35.185607 512.790044,40.704393 514.47,45.82 C515.250931,48.1654138 516.503253,50.3263504 518.15,52.17 C519.793961,53.9792175 521.796403,55.4265609 524.03,56.42 C526.551837,57.516415 529.280687,58.055363 532.03,58 L532.03,58 Z M876.43,73.64 L855.74,73.64 L845.74,57.26 L838.6,57.26 L838.6,73.64 L819.49,73.64 L819.49,2.24 L846.58,2.24 C850.946127,2.15951735 855.289392,2.88848063 859.39,4.39 C862.898982,5.69680328 866.099463,7.71582994 868.79,10.32 C871.339144,12.830776 873.326272,15.8540746 874.62,19.19 C875.976711,22.7249221 876.655214,26.4838281 876.62,30.27 C876.718172,35.0458714 875.577818,39.7657654 873.31,43.97 C871.071986,47.9582361 867.736703,51.2206365 863.7,53.37 L876.43,73.64 Z M845.7,42.03 C849.993333,42.03 853.036667,40.94 854.83,38.76 C856.709614,36.3216673 857.662857,33.2953875 857.52,30.22 C857.53924,28.5981871 857.327105,26.9819175 856.89,25.42 C856.495692,24.0333062 855.791272,22.7544088 854.83,21.68 C853.822417,20.5856959 852.577115,19.7372482 851.19,19.2 C849.433967,18.5532922 847.570604,18.2478228 845.7,18.3 L838.63,18.3 L838.63,42.03 L845.7,42.03 Z M454.75,2.24 L473.86,2.24 L473.86,73.64 L454.75,73.64 L454.75,2.24 Z M607.75,38.05 L607.75,73.64 L589.75,73.64 L589.75,1.3 C589.717365,1.01617248 589.83481,0.735819906 590.06,0.56 C590.27,0.42 590.65,0.56 591.22,1.09 L636.05,38.09 L636.05,2.24 L654.05,2.24 L654.05,74.69 C654.05,75.11 653.943333,75.3733333 653.73,75.48 C653.516667,75.5866667 653.133333,75.3933333 652.58,74.9 L607.75,38.05 Z M676.94,2.24 L727.02,2.24 L727.02,18.31 L696.02,18.31 L696.02,34.9 L721.85,34.9 L721.85,50.13 L696.04,50.13 L696.04,57.58 L728.49,57.58 L728.49,73.65 L676.93,73.65 L676.94,2.24 Z M748.23,2.24 L798.34,2.24 L798.34,18.31 L767.34,18.31 L767.34,34.9 L793.17,34.9 L793.17,50.13 L767.34,50.13 L767.34,57.58 L799.79,57.58 L799.79,73.65 L748.22,73.65 L748.23,2.24 Z M919.9,74.69 C916.27413,74.7333716 912.657755,74.3098928 909.14,73.43 C906.231691,72.6952621 903.414307,71.6387434 900.74,70.28 C898.499572,69.140319 896.418458,67.711444 894.55,66.03 C893.001813,64.6344956 891.579643,63.1052446 890.3,61.46 L904.16,51.06 C905.885273,53.2077034 907.940911,55.0675671 910.25,56.57 C912.905925,58.1691807 915.972304,58.954897 919.07,58.83 C921.367545,58.9529119 923.659608,58.5027465 925.74,57.52 C927.311399,56.6530293 928.233366,54.9497338 928.1,53.16 C928.15612,51.7417658 927.50877,50.3871957 926.37,49.54 C924.745526,48.4407637 922.956494,47.6070071 921.07,47.07 L912.67,44.24 C910.18481,43.446748 907.791281,42.3907795 905.53,41.09 C903.431101,39.8875566 901.534557,38.3622229 899.91,36.57 C898.328207,34.8126282 897.084068,32.7786134 896.24,30.57 C895.325884,28.0661433 894.881778,25.4150667 894.93,22.75 C894.863567,19.5558474 895.548647,16.3907791 896.93,13.51 C898.210653,10.9093076 900.059568,8.62977727 902.34,6.84 C904.679263,5.03831333 907.330058,3.68240815 910.16,2.84 C913.12025,1.92547923 916.201713,1.46359694 919.3,1.47 C922.13639,1.44082296 924.968172,1.70556944 927.75,2.26 C930.008286,2.71260398 932.208699,3.41700475 934.31,4.36 C936.085485,5.1663072 937.76303,6.17283458 939.31,7.36 C940.676388,8.41439047 941.926754,9.61112169 943.04,10.93 L932.12,22.38 C930.716186,20.8903872 929.086147,19.6315789 927.29,18.65 C925.131593,17.6149588 922.751543,17.1272719 920.36,17.23 C918.515145,17.0933369 916.679344,17.5946519 915.16,18.65 C914.059604,19.4841214 913.418166,20.7892432 913.43,22.17 C913.357975,23.375344 913.797256,24.5552312 914.64,25.42 C915.754209,26.3599783 917.061891,27.0428407 918.47,27.42 L927.92,30.57 C931.046318,31.5734916 934.061967,32.8936755 936.92,34.51 C939.148596,35.7619661 941.139052,37.3969836 942.8,39.34 C944.239541,41.0728155 945.326579,43.070248 946,45.22 C946.686142,47.4891744 947.023328,49.8494728 947,52.22 C947.031676,55.317711 946.496189,58.3950673 945.42,61.3 C944.389943,64.0371614 942.716127,66.4861464 940.54,68.44 C938.084056,70.5749677 935.204395,72.166449 932.09,73.11 C928.134282,74.2708396 924.020954,74.8039863 919.9,74.69 L919.9,74.69 Z" id="Shape"></path>
            </g>
        </g>
    </g>
</svg>