<svg xmlns="http://www.w3.org/2000/svg" viewBox="0 0 946.99 370.43"><title>Pixel Pioneers</title>
				<g class="compass" transform="translate(532.821, 211.1785)">
				<g class="compass__needle">
					<path id="indicator-top" d="M66.74.26c-3-1-6.64.89-9.06,4.75L10.74,79.85A16.58,16.58,0,0,0,9.1,83.37l.86.3a26.88,26.88,0,0,1,50.77,17.58l1.15.4a.31.31,0,0,1,.08-.25,16.28,16.28,0,0,0,.82-3.72L71,9.68C71.44,5.08,69.75,1.27,66.74.26Z" transform="translate(-35.543 -92.3525)" fill="#eb582e"></path>
					<path id="indicator-bottom" d="M60.74,101.24A26.88,26.88,0,0,1,9.36,85.43q.27-.89.61-1.76l-.86-.3v.26a15.86,15.86,0,0,0-.79,3.63L.06,175.17c-.42,4.54,1.31,8.24,4.32,9.26s6.64-.9,9.06-4.76l46.75-74.54a14.33,14.33,0,0,0,1.72-3.47Z" transform="translate(-35.543 -92.3525)" fill="#ea7d63"></path>
				</g>
				</g>
				<path d="M760.32 886.8a8.17 8.17 0 1 1-8.18-8.18 8.16 8.16 0 0 1 8.18 8.18zm-8.18-215a8.17 8.17 0 1 0-8.16-8.15 8.16 8.16 0 0 0 8.16 8.15z" transform="translate(-219.66 -558.25)" fill="#4e9677"></path><path d="M897.9 825.31c-21.2 60-78.59 103.37-145.9 103.37s-124.7-43.37-145.9-103.37h25.9a131.52 131.52 0 0 0 21.3 33.69l7.5-6.49a4.08 4.08 0 0 1 5.34 6.17l-7.31 6.32a129.67 129.67 0 0 0 186.39 0l-7.22-6.31a4.08 4.08 0 0 1 5.34-6.17l7.44 6.43a131.51 131.51 0 0 0 21.22-33.64zm-262.05-111h-26.64a155.11 155.11 0 0 1 120.69-93.68 30.68 30.68 0 0 1 4.5-8.43 29.86 29.86 0 1 1 35.21 0 30.67 30.67 0 0 1 4.5 8.43 155.11 155.11 0 0 1 120.69 93.68h-26.64a131 131 0 0 0-17.16-25.49l-7.7 6.66a4.08 4.08 0 0 1-5.34-6.17l7.52-6.51a130.24 130.24 0 0 0-186.94-.06l7.59 6.56a4.08 4.08 0 0 1-5.34 6.17l-7.79-6.71a131 131 0 0 0-17.16 25.55zm95.09-126.21a21.05 21.05 0 0 0 10.06 17.9 19.52 19.52 0 0 1 22 0 21.05 21.05 0 1 0-32.1-17.91z" transform="translate(-219.66 -558.25)" fill="#6fb89b"></path><g fill="#231f20"><path d="M238.77 805.89h-19.11v-71.4h27.09a35.36 35.36 0 0 1 12.81 2.15 27.13 27.13 0 0 1 9.4 5.93 25.28 25.28 0 0 1 5.83 8.87 31.75 31.75 0 0 1 0 22.16 24.73 24.73 0 0 1-5.83 8.82 27.5 27.5 0 0 1-9.4 5.88 35.34 35.34 0 0 1-12.81 2.15h-8zm7.07-31.5q6.44 0 9.13-3.28a13.1 13.1 0 0 0 2.69-8.58 17.19 17.19 0 0 0-.63-4.82 9.56 9.56 0 0 0-2.06-3.76 9.71 9.71 0 0 0-3.64-2.49 14.64 14.64 0 0 0-5.49-.9h-7.07v23.83z" transform="translate(-219.66 -558.25)"></path><path d="M76.86 176.24h19.11v71.4h-19.11zm41.05 0h21.31l10.61 18.06 10.71-18.06h19.8l-20.68 32.24 24.57 39.17h-21.27l-14.38-24.15-14.7 24.15h-19.85l24.67-38.33zm84 0h50.08v16.07h-31v16.59h25.83v15.23h-25.8v7.45h32.45v16.07h-51.56zm71.29 0h19.14v55.33h30.35v16.07h-49.48z"></path><path d="M616.66 805.89h-19.11v-71.4h27.09a35.36 35.36 0 0 1 12.81 2.15 27.13 27.13 0 0 1 9.4 5.93 25.28 25.28 0 0 1 5.83 8.87 31.75 31.75 0 0 1 0 22.16 24.73 24.73 0 0 1-5.83 8.82 27.5 27.5 0 0 1-9.4 5.88 35.34 35.34 0 0 1-12.81 2.15h-8zm7.07-31.5q6.44 0 9.13-3.28a13.1 13.1 0 0 0 2.69-8.58 17.19 17.19 0 0 0-.63-4.82 9.56 9.56 0 0 0-2.06-3.76 9.71 9.71 0 0 0-3.64-2.49 14.64 14.64 0 0 0-5.49-.9h-7.07v23.83zM751.69 806.84a40.42 40.42 0 0 1-14.7-2.68 37.57 37.57 0 0 1-12.18-7.56 36.53 36.53 0 0 1-8.35-11.6 36.94 36.94 0 0 1 0-29.61 36 36 0 0 1 8.35-11.55 38.08 38.08 0 0 1 12.19-7.51 41.54 41.54 0 0 1 29.35 0 38 38 0 0 1 12.23 7.51 36 36 0 0 1 8.35 11.55 36.93 36.93 0 0 1 0 29.61 36.56 36.56 0 0 1-8.35 11.6 37.45 37.45 0 0 1-12.23 7.56 40.56 40.56 0 0 1-14.66 2.68zm0-16.59a19.11 19.11 0 0 0 8-1.58 17.65 17.65 0 0 0 5.88-4.25 18.14 18.14 0 0 0 3.67-6.35 25.24 25.24 0 0 0 0-15.75 18.16 18.16 0 0 0-3.67-6.35 17.06 17.06 0 0 0-5.88-4.2 21.67 21.67 0 0 0-16 0 17 17 0 0 0-5.88 4.2 18.15 18.15 0 0 0-3.68 6.35 25.24 25.24 0 0 0 0 15.75 18.13 18.13 0 0 0 3.68 6.35 17.62 17.62 0 0 0 5.88 4.25 19.1 19.1 0 0 0 8 1.58zM1096.09 805.89h-20.69l-10-16.38h-7.14v16.38h-19.11v-71.4h27.09a35.36 35.36 0 0 1 12.81 2.15 27.13 27.13 0 0 1 9.4 5.93 25.28 25.28 0 0 1 5.83 8.87 30.14 30.14 0 0 1 2 11.08 27.66 27.66 0 0 1-3.31 13.7 23.9 23.9 0 0 1-9.61 9.4zm-30.73-31.61q6.44 0 9.13-3.27a13 13 0 0 0 2.69-8.54 17.06 17.06 0 0 0-.63-4.8 9.51 9.51 0 0 0-2.06-3.74 9.72 9.72 0 0 0-3.64-2.48 14.7 14.7 0 0 0-5.49-.9h-7.07v23.73zM674.41 734.49h19.11v71.4h-19.11zm153 35.81v35.59h-18v-72.34a.82.82 0 0 1 .31-.74c.21-.14.59 0 1.16.53l44.83 37v-35.85h18v72.45q0 .63-.32.79t-1.15-.58zm69.19-35.81h50.08v16.07h-31v16.59h25.83v15.23h-25.81v7.45h32.45v16.07h-51.56zm71.29 0h50.11v16.07h-31v16.59h25.83v15.23h-25.83v7.45h32.45v16.07h-51.57zm171.67 72.45a42.26 42.26 0 0 1-10.76-1.26 40.38 40.38 0 0 1-8.4-3.15 28.72 28.72 0 0 1-6.19-4.25 35.47 35.47 0 0 1-4.25-4.57l13.86-10.4a26 26 0 0 0 6.09 5.51 15.86 15.86 0 0 0 8.82 2.26 13.88 13.88 0 0 0 6.67-1.31 4.59 4.59 0 0 0 2.36-4.36 4.3 4.3 0 0 0-1.73-3.62 18.49 18.49 0 0 0-5.3-2.47l-8.4-2.83a36.7 36.7 0 0 1-7.14-3.15 23.05 23.05 0 0 1-5.62-4.52 19.23 19.23 0 0 1-3.67-6 21.66 21.66 0 0 1-1.31-7.82 20.39 20.39 0 0 1 2-9.24 19.34 19.34 0 0 1 5.41-6.67 24.07 24.07 0 0 1 7.82-4 30.75 30.75 0 0 1 9.14-1.37 41.07 41.07 0 0 1 8.45.79 30.81 30.81 0 0 1 6.56 2.1 25.6 25.6 0 0 1 5 3 24.34 24.34 0 0 1 3.73 3.57l-10.92 11.45a19.46 19.46 0 0 0-4.83-3.73 14.58 14.58 0 0 0-6.93-1.42 8.07 8.07 0 0 0-5.2 1.42 4.37 4.37 0 0 0-1.73 3.52 4.29 4.29 0 0 0 1.21 3.25 9.92 9.92 0 0 0 3.83 2l9.45 3.15a48.22 48.22 0 0 1 9 3.94 21.75 21.75 0 0 1 5.88 4.83 17.29 17.29 0 0 1 3.2 5.88 23.39 23.39 0 0 1 1 7 25.39 25.39 0 0 1-1.58 9.08 18.22 18.22 0 0 1-4.88 7.14 23.08 23.08 0 0 1-8.45 4.67 39.42 39.42 0 0 1-12.19 1.58z" transform="translate(-219.66 -558.25)"></path></g></svg>