<svg xmlns="http://www.w3.org/2000/svg" id="icon-Twitter" viewBox="0 0 35 30" width="100%" height="100%"><title>Twitter</title><path d="M35 3.453c-1.286.586-2.671.982-4.123 1.159 1.483-.91 2.621-2.353 3.158-4.072-1.389.843-2.923 1.456-4.563 1.784-1.307-1.43-3.174-2.324-5.241-2.324-3.963 0-7.178 3.297-7.178 7.363 0 .577.062 1.138.185 1.677-5.968-.308-11.258-3.236-14.802-7.696-.618 1.091-.972 2.357-.972 3.706 0 2.553 1.268 4.807 3.195 6.128-1.175-.036-2.284-.371-3.254-.919v.091c0 3.569 2.475 6.545 5.762 7.22-.602.173-1.237.259-1.892.259-.462 0-.914-.044-1.352-.131.914 2.924 3.564 5.054 6.707 5.111-2.457 1.976-5.555 3.154-8.918 3.154-.579 0-1.152-.034-1.713-.101 3.178 2.086 6.954 3.305 11.007 3.305 13.209 0 20.431-11.218 20.431-20.949 0-.32-.006-.64-.018-.954 1.403-1.039 2.621-2.334 3.581-3.811" fill="#fff"></path></svg>