<?xml version="1.0" encoding="utf-8"?>
<!-- Generator: Adobe Illustrator 18.1.0, SVG Export Plug-In . SVG Version: 6.00 Build 0)  -->
<!DOCTYPE svg PUBLIC "-//W3C//DTD SVG 1.1//EN" "http://www.w3.org/Graphics/SVG/1.1/DTD/svg11.dtd">
<svg version="1.1" id="Layer_1" xmlns="http://www.w3.org/2000/svg" xmlns:xlink="http://www.w3.org/1999/xlink" x="0px" y="0px"
	 width="43.6px" height="33px" viewBox="-275 404.9 43.6 33" enable-background="new -275 404.9 43.6 33" xml:space="preserve">
<g>
	<g>
		<g>
			<g>
				<path fill="#FFFFFF" d="M-270.8,406.3h11.9v3c5.8-5.2,13.4-5.2,18.2-2.2c5.2,3.2,5.2,8.2,5.2,14v16.7h-11.8v-13.3
					c0-3,0.2-6.9-2.8-9c-1.3-1.1-4.1-1.1-5.8,0.2c-3,2.2-2.6,4.8-2.6,9.3v12.5h-12.2V406.3z"/>
			</g>
		</g>
	</g>
	<g>
		<g>
			<g>
				<path fill="#003D50" d="M-240.2,412.3c0.7,0,1.3,0.2,1.9,0.2c0.3,0.2,0.5,0.2,0.9,0.4c0.2,0,0.2,0.2,0.4,0.2
					c0.2,0.2,0.1,0.2,0.2,0.4c0.2,0.5-0.2,0.9-0.4,1.3c-0.7,1.3-2.1,2.3-3.3,3.2c-1.3,1.1-2.6,1.9-4,2.8c-0.2,0.2-0.5,0.4-0.7,0.5
					c0.2,0.2,0.4,0.2,0.7,0.2l0,0c0,0,0.2,0.2,0.2,0.2c0.4-0.2,0.7-0.4,1.1-0.5c0.4-0.2,0.7-0.2,1.1-0.2c0.2,0.2,0.7,0.5,0.7,0.7
					c0.2,0.5,0.2,0.9-0.2,1.5c1.7,0.7,3.3,1.7,5,2.4c0.4,0.2,0.7,0.4,1.2,0.7c0.2,0.2-0.2,0.5-0.4,0.7c-0.7,0.2-1.2,0.7-1.9,0.7
					c-0.7-0.2-1.3-0.2-2.1-0.5c-1.1-0.2-2.1-0.5-3.2-0.7c-0.7-0.2-1.7-0.2-2.6-0.5c-0.7-0.2-1.2-0.2-1.9-0.2
					c-0.7-0.2-1.7-0.2-2.6-0.2c-1.1,0-2,0-3.1-0.2c-1.7,0.7-3.1,1.5-5,2.1c-1.2,0.4-2.3,0.7-3.5,1.2c0.4,0.5,0.9,0.7,1.2,1.3
					c0,0.2-0.2,0.2-0.2,0.2c-0.2,0.2-0.4,0.2-0.7,0.2c-1.2-0.2-2.3-0.5-3.5-0.9l0,0c-0.5,0.2-1.3,0.7-1.9,0c0-0.2-0.2-0.2-0.2-0.5
					c0.1-0.1-0.1-0.1-0.2-0.2c-0.2-0.2-0.4-0.2-0.5-0.2c-0.4-0.2-0.7-0.2-1.2-0.5c-0.7-0.2-1.5-0.4-2.1-0.7c-0.2-0.2-0.2-0.2,0-0.5
					c0.4-0.2,1.1-0.5,1.7-0.2c0.5,0,1.2,0.2,1.7,0.2l0,0c-0.7-0.7-1.2-1.3-1.9-2c-0.2-0.2-0.2-0.2-0.2-0.5c0-0.2,0.2-0.2,0.2-0.4
					c0.2-0.2,0.2-0.2,0.4-0.2c0.5-0.2,0.7-0.4,1.1-0.2c1.2,0.5,2.1,0.9,3.5,1.5c0.2,0.2,0.5,0.2,0.7,0.2c0.4-0.2,0.5-0.2,0.7-0.4
					c0.2,0,0.5-0.2,0.7-0.4c0.4-0.2,0.7-0.5,1.1-0.7c0.7-0.5,1.2-0.7,1.9-1.2c-0.9-0.4-2-0.9-2.9-1.3c-1.1-0.2-1.3-0.4-2.3-0.7
					c-0.7-0.2-1.5-0.4-1.5-0.4c-1.3-0.2-1.7-0.4-2.8-0.7c-0.3-0.5-1-0.5-1.7-0.7c0-0.2,0-0.2,0-0.2c0.2-0.2,0.5-0.5,0.7-0.7
					c0.4-0.2,0.7-0.5,1.2-0.7c0.9,0,1.7,0.2,2.6,0.2c1.2,0.2,2.4,0.2,3.5,0.4c1.5,0.2,3.2,0.2,4.7,0.5c0.2,0,0.2,0.2,0.4,0
					c0.2,0.2,0.2,0,0.4,0.2c0.2,0,0.2,0,0.4,0c0.7-0.5,1.5-1.2,2.4-1.5c0.5,0,1.1,0.2,1.3,0.7c1.7-1.2,3.3-2.4,5.2-3.3
					c1.7-0.9,3.3-1.7,4.7-2c0.9-0.2,2-0.4,2.9-0.5C-240.7,412.3-240.5,412.3-240.2,412.3"/>
			</g>
		</g>
		<g>
			<g>
				<path fill="#FFFFFF" d="M-239.3,413.4c-0.7,0.2-1.3,0.2-2.3,0.7c-0.7,0.2-2,0.7-3.1,1.3c-1.5,0.7-2.6,1.5-4.3,2.4
					c-0.5,0.4-1.7,1.3-1.9,1.5c-0.9-0.2-1.7-0.2-2.6-0.2l0.2-0.2c1.2-0.9,2.1-1.7,3.5-2.3c1-0.7,2.7-1.7,4-2.1
					c1.2-0.5,2.6-0.9,3.8-1.1C-240.9,413-240,413-239.3,413.4"/>
			</g>
		</g>
		<g>
			<g>
				<path fill="#FFFFFF" d="M-256.5,419.2c0.2-0.2,0.4-0.2,0.7-0.4c0.2-0.2,0.4-0.2,0.5-0.2c-0.2,0.4-0.2,0.5,0,0.9
					c0,0.2,0.2,0.4,0.2,0.5c-0.5,0.4-1.1,0.7-1.7,1.1c-0.2-0.2-0.2-0.2-0.2-0.5c-0.2-0.4,0-0.7,0.2-1.1L-256.5,419.2z"/>
			</g>
		</g>
		<g>
			<g>
				<path fill="#FFFFFF" d="M-257.5,423.6c-0.7,0.4-1.3,0.7-2,1.1c-1.3,0.7-2.8,1.5-4.8,2.4c-0.5,0.2-1.1,0.4-1.7,0.2
					c-0.4,0-0.4,0-0.7-0.2c-0.7-0.7-1.5-1.5-2.1-2.1c-0.2-0.2-0.2-0.2-0.2-0.4l0.3-0.2h0.2c1.1,0.4,1.7,0.7,2.8,1.3
					c0.4,0.2,0.7,0.4,1.2,0.5c0.4,0,0.7-0.2,1.2-0.2l0.2-0.2c0.5-0.4,0.7-0.5,1.1-0.7c1.1-0.7,2-1.2,3.1-1.9l0.2-0.2
					C-258.3,423.4-258,423.5-257.5,423.6"/>
			</g>
		</g>
	</g>
</g>
</svg>
