<?xml version="1.0" encoding="utf-8"?>
<!-- Generator: Adobe Illustrator 18.1.0, SVG Export Plug-In . SVG Version: 6.00 Build 0)  -->
<!DOCTYPE svg PUBLIC "-//W3C//DTD SVG 1.1//EN" "http://www.w3.org/Graphics/SVG/1.1/DTD/svg11.dtd">
<svg version="1.1" id="Layer_1" xmlns="http://www.w3.org/2000/svg" xmlns:xlink="http://www.w3.org/1999/xlink" x="0px" y="0px"
	 width="197.2px" height="49.9px" viewBox="-199 394 197.2 49.9" enable-background="new -199 394 197.2 49.9" xml:space="preserve"
	>
<g>
	<g>
		<g>
			<path fill="#003D50" d="M-23.6,426.3c-17.5,9-34.7,14.5-43,12.8c-7.3-1.5-3.7-11.5,6.7-19.7h2.2c-8.2,6.9-8.8,15.5-3.6,16.2
				c5.9,0.7,21.1-2.5,36.6-9.7L-23.6,426.3z"/>
		</g>
	</g>
	<g>
		<g>
			<path fill="#003D50" d="M-5.4,413.9c0.5,0,1,0.1,1.4,0.2c0.3,0.1,0.4,0.1,0.7,0.3c0.1,0,0.2,0.1,0.3,0.2c0.2,0.1,0.1,0.2,0.2,0.3
				c0.1,0.4-0.1,0.7-0.3,1c-0.6,1-1.6,1.7-2.5,2.4c-1,0.8-2,1.4-3,2.1c-0.2,0.1-0.4,0.3-0.6,0.4c0.2,0.1,0.3,0.1,0.5,0.2l0,0
				c0,0,0.1,0.1,0.2,0.1c0.3-0.1,0.5-0.3,0.8-0.4c0.3-0.2,0.5-0.2,0.8-0.1c0.2,0.1,0.5,0.4,0.6,0.6c0.1,0.4,0.1,0.7-0.1,1.1
				c1.3,0.6,2.5,1.2,3.7,1.8c0.3,0.2,0.6,0.3,0.9,0.5c0.1,0.2-0.1,0.4-0.3,0.5c-0.5,0.2-0.9,0.6-1.4,0.6c-0.5-0.1-1-0.2-1.6-0.4
				c-0.8-0.2-1.6-0.4-2.4-0.5c-0.6-0.1-1.3-0.2-1.9-0.4c-0.5-0.1-0.9-0.2-1.4-0.2c-0.6-0.1-1.2-0.1-1.9-0.1c-0.8,0-1.5,0-2.3-0.1
				c-1.2,0.5-2.3,1.1-3.7,1.6c-0.9,0.3-1.7,0.6-2.6,0.9c0.3,0.4,0.7,0.5,0.9,1c0,0.1-0.1,0.1-0.1,0.1c-0.2,0.1-0.3,0.1-0.5,0.2
				c-0.9-0.2-1.7-0.4-2.6-0.7h-0.2c-0.4,0.1-1,0.5-1.4,0c0-0.1-0.1-0.2-0.1-0.4c0-0.1-0.1-0.1-0.2-0.2c-0.2-0.1-0.3-0.1-0.4-0.2
				c-0.3-0.1-0.5-0.2-0.8-0.3c-0.6-0.2-1.1-0.3-1.6-0.6c-0.1-0.1-0.2-0.2,0-0.4c0.3-0.2,0.8-0.4,1.2-0.2c0.4,0,0.9,0.1,1.2,0.1l0,0
				c-0.5-0.5-0.9-1-1.4-1.5c-0.1-0.1-0.2-0.2-0.2-0.4c0-0.1,0.1-0.2,0.2-0.3c0.1-0.1,0.2-0.1,0.3-0.1c0.4-0.2,0.5-0.3,0.8-0.2
				c0.9,0.4,1.6,0.7,2.6,1.1c0.2,0.1,0.4,0.2,0.6,0.2c0.3-0.1,0.4-0.2,0.6-0.3c0.1,0,0.4-0.2,0.5-0.3c0.3-0.2,0.6-0.4,0.8-0.5
				c0.6-0.4,0.9-0.6,1.4-0.9c-0.7-0.3-1.5-0.7-2.2-1c-0.8-0.2-1-0.3-1.7-0.5c-0.5-0.1-1.1-0.3-1.1-0.3c-1-0.2-1.2-0.3-2.1-0.5
				c-0.4-0.2-0.9-0.2-1.4-0.4c0-0.1,0-0.1,0-0.2c0.1-0.2,0.4-0.4,0.6-0.6c0.3-0.2,0.5-0.4,0.9-0.5c0.7,0,1.2,0.1,2,0.2
				c0.9,0.1,1.8,0.2,2.6,0.3c1.1,0.1,2.4,0.2,3.5,0.4c0.1,0,0.2,0.1,0.3,0c0.1,0.1,0.2,0,0.3,0.1c0.1,0,0.2,0,0.3,0
				c0.5-0.4,1.1-0.9,1.8-1.1c0.4,0,0.8,0.2,1,0.5c1.3-0.9,2.5-1.8,3.9-2.5c1.3-0.7,2.5-1.2,3.5-1.5c0.7-0.2,1.5-0.3,2.2-0.4
				C-5.7,413.9-5.6,413.9-5.4,413.9"/>
		</g>
	</g>
	<g>
		<g>
			<path fill="#FFFFFF" d="M-4.7,414.7c-0.6,0.1-1,0.2-1.7,0.5c-0.6,0.2-1.5,0.6-2.3,1c-1.1,0.5-2,1.1-3.2,1.8
				c-0.4,0.3-1.3,1-1.4,1.1c-0.7-0.1-1.3-0.1-2-0.2l0.1-0.1c0.9-0.7,1.6-1.2,2.6-1.7c0.8-0.5,2.1-1.2,3.1-1.6
				c0.9-0.4,1.9-0.7,2.9-0.8C-5.8,414.5-5.2,414.5-4.7,414.7"/>
		</g>
	</g>
	<g>
		<g>
			<path fill="#FFFFFF" d="M-17.6,419.1c0.2-0.1,0.3-0.2,0.5-0.3c0.2-0.1,0.3-0.2,0.4-0.2c-0.1,0.3-0.1,0.4,0,0.7
				c0,0.2,0.2,0.3,0.2,0.4c-0.4,0.3-0.8,0.5-1.2,0.8c-0.1-0.1-0.2-0.2-0.2-0.4c-0.1-0.3,0-0.5,0.1-0.8L-17.6,419.1z"/>
		</g>
	</g>
	<g>
		<g>
			<path fill="#FFFFFF" d="M-18.3,422.4c-0.5,0.3-1,0.6-1.5,0.8c-1,0.5-2.1,1.1-3.6,1.8c-0.4,0.2-0.8,0.3-1.2,0.2
				c-0.3,0-0.3,0-0.6-0.1c-0.5-0.5-1.1-1.1-1.6-1.6c-0.1-0.1-0.2-0.2-0.2-0.3l0.3-0.2h0.1c0.8,0.3,1.3,0.6,2.1,1
				c0.3,0.1,0.6,0.3,0.9,0.4c0.3,0,0.6-0.1,0.9-0.2l0.2-0.1c0.4-0.3,0.6-0.4,0.8-0.5c0.8-0.5,1.5-0.9,2.3-1.4l0.2-0.1
				C-18.9,422.2-18.7,422.3-18.3,422.4"/>
		</g>
	</g>
	<g>
		<g>
			<g>
				<path fill="#FFFFFF" d="M-199,399.4h5.5v1.4c2.7-2.4,6.2-2.4,8.4-1c2.4,1.5,2.4,3.8,2.4,6.4v7.7h-5.5v-6.1
					c0-1.4,0.1-3.2-1.3-4.1c-0.6-0.5-1.9-0.5-2.7,0.1c-1.4,1-1.2,2.2-1.2,4.3v5.8h-5.6V399.4z"/>
			</g>
		</g>
	</g>
	<g>
		<g>
			<g>
				<path fill="#FFFFFF" d="M-176.2,400.1c-2.3,1.3-3.5,3.2-3.8,5.6c-0.2,1.9,0.2,4.2,1.8,5.9c2.9,3,8,3.1,10.9,2.1
					c2.4-0.8,4.4-2.2,5.2-5.3c0.5-2,0.3-4.1-1-6.1c-2.4-3.5-7.3-3.8-9.3-3.5C-173.6,399.1-175,399.4-176.2,400.1 M-171.8,402.8
					c0.9-0.2,2.3,0,3.1,1c0.8,0.9,1.1,2.3,1,3.3c-0.1,1-0.7,2.1-1.8,2.7c-1,0.5-2.4,0.5-3.4-0.2c-0.9-0.6-1.4-1.7-1.5-2.8
					c0-1,0.2-2.2,1.2-3.2C-172.6,403.1-172.2,403-171.8,402.8"/>
			</g>
		</g>
	</g>
	<g>
		<g>
			<g>
				<path fill="#FFFFFF" d="M-133.4,406.1c0,0.3-0.1,0.5-0.5,1.4l-2.1,6.4h-5.7l-5.4-14.5h6.1l1.9,6.1c0.3,1.1,0.4,1.3,0.4,1.7
					c0-0.3,0.1-0.6,0.4-1.7l1.9-6.1h6l1.9,6.1c0.3,1.1,0.4,1.3,0.4,1.7c0-0.3,0.1-0.6,0.4-1.7l1.9-6.1h6.1l-5.5,14.5h-5.7l-2-6.3
					C-133.3,406.6-133.3,406.4-133.4,406.1"/>
			</g>
		</g>
	</g>
	<g>
		<g>
			<g>
				<path fill="#FFFFFF" d="M-102.6,401.6c-2.6-3-8-3.1-10.5-2.4c-2.4,0.7-4.4,2.1-5.3,5.2c-0.6,2.3-0.4,4.5,1,6.5
					c2.6,3.7,7.6,3.5,10,3.2c1.8-0.3,5.1-1.3,6.3-4.5l0.1-0.1l-5.5-0.6c-0.2,0.2-0.3,0.4-0.9,0.9c-0.9,0.7-2.9,0.6-3.7,0.3
					c-0.9-0.4-1.7-1.5-1.8-2.2h12.3v-0.3C-100.6,405.7-101.2,403.3-102.6,401.6 M-106.4,404.8h-6.6c0.5-1.6,1.4-2.1,2.5-2.3
					C-109.3,402.3-107.3,402.6-106.4,404.8"/>
			</g>
		</g>
	</g>
	<g>
		<g>
			<g>
				<path fill="#FFFFFF" d="M-97.5,414.7c0.1,1.1,0.4,1.8,0.5,2.1c1.4,2.5,3.9,3,7,3s5.5-0.2,7.3-2.3c1.6-1.9,1.4-4.2,1.4-6.4v-11.5
					h-5.5v1.3c-1.2-1.2-2.5-1.6-3.5-1.7c-2-0.3-4.8,0.4-6.5,2.6c-1.4,1.8-1.6,4.4-1.4,6.2c0.3,2.2,1.5,3.8,3.5,4.9
					c2.2,1.2,5.8,0.9,7.8-0.8c0,0.6,0,1.9-0.2,2.5c-0.4,0.9-1.2,1.2-1.8,1.3c-0.6,0.1-2.2,0.4-2.8-0.7c-0.1-0.2-0.2-0.3-0.2-0.5
					C-91.9,414.7-97.5,414.7-97.5,414.7z M-90.5,403.8c0.7-0.2,2.3-0.1,3.1,0.8c0.5,0.5,0.8,1.2,0.7,1.9c-0.1,0.6-0.4,1.4-1,1.8
					c-0.9,0.6-2.5,0.6-3.4,0.1c-0.7-0.4-1.2-0.9-1.3-1.7c-0.1-0.5,0-1.4,0.5-2C-91.5,404.2-91.1,404-90.5,403.8"/>
			</g>
		</g>
	</g>
	<g>
		<g>
			<g>
				<path fill="#FFFFFF" d="M-78.2,399.4h5.5v14.5h-5.5V399.4z M-78.2,394h5.5v3.7h-5.5V394z"/>
			</g>
		</g>
	</g>
	<g>
		<g>
			<g>
				<path fill="#FFFFFF" d="M-63.8,403.5c0.1-0.4,0.3-0.6,0.6-0.9c0.7-0.6,3.4-0.4,4.1-0.1c0.8,0.4,1,1,1.1,2c0,0-1.7-0.1-2.9-0.1
					c-1.4,0.1-2,0.1-3.2,0.3c-2.4,0.3-4.8,0.7-5.4,3.6c-0.4,2,0.2,3.8,2.1,5l0.2,0.1c2.8,1.2,6.3,0.8,9.4-1c0,0,0,0.9,0.2,1.3h6.4
					c-0.7-0.6-1-1.6-1-3v-6.2c0-1.2,0.1-2.8-0.7-3.7c-1.3-1.7-3.7-2.1-7.9-2.1c-3.4,0-5.7,0.2-7,1.9c-0.6,0.9-0.8,1.6-0.8,2.7h4.8
					V403.5z M-58.2,407.5c-0.5,1.9-1.6,2.5-3,2.7c-0.8,0.1-2.1,0.2-2.7-0.9c-0.1-0.2-0.2-0.8-0.1-1c0.4-0.8,1.1-0.7,2.9-0.8H-58.2z"
					/>
			</g>
		</g>
	</g>
	<g>
		<g>
			<g>
				<path fill="#FFFFFF" d="M-48.5,399.4h5.5v1.4c2.7-2.4,6.2-2.4,8.4-1c2.4,1.5,2.4,3.8,2.4,6.4v7.7h-5.5v-6.1
					c0-1.4,0.1-3.2-1.3-4.1c-0.7-0.4-2.1-0.4-2.8,0.2c-1.4,1-1.2,2.2-1.2,4.3v5.8h-5.5L-48.5,399.4L-48.5,399.4z"/>
			</g>
		</g>
	</g>
	<g>
		<g>
			<g>
				<path fill="#FFFFFF" d="M-149.8,399.2v5.6c-1.7,0-2.8,0.2-3.9,1v8.1h-5.5v-14.5h5.5v1.7c0.3-0.5,1-1.1,1.9-1.5
					C-151.5,399.4-150.5,399.2-149.8,399.2"/>
			</g>
		</g>
	</g>
</g>
</svg>
