<?xml version="1.0" encoding="utf-8"?>
<!-- Generator: Adobe Illustrator 19.0.0, SVG Export Plug-In . SVG Version: 6.00 Build 0)  -->
<svg version="1.1" id="Layer_1" xmlns="http://www.w3.org/2000/svg" xmlns:xlink="http://www.w3.org/1999/xlink" x="0px" y="0px"
	 viewBox="0 0 135.3 135.3" style="enable-background:new 0 0 135.3 135.3;" xml:space="preserve">
<style type="text/css">
	.st0{clip-path:url(#XMLID_15_);fill:#FBFBFB;}
	.st1{clip-path:url(#XMLID_15_);}
	.st2{clip-path:url(#XMLID_16_);fill:#213B54;}
	.st3{clip-path:url(#XMLID_16_);fill:#41BCE6;}
	.st4{clip-path:url(#XMLID_16_);fill:#254763;}
	.st5{clip-path:url(#XMLID_16_);fill:#28353D;}
	.st6{clip-path:url(#XMLID_15_);fill:#344B62;}
	.st7{fill:#344B62;}
	.st8{fill:#FFFFFF;}
	.st9{fill:#E95591;}
</style>
<g id="XMLID_49_">
	<g id="XMLID_53_">
		<defs>
			<path id="XMLID_52_" d="M67.6,135.3C30.3,135.3,0,105,0,67.6C0,30.3,30.3,0,67.6,0c37.4,0,67.6,30.3,67.6,67.6
				C135.3,105,105,135.3,67.6,135.3"/>
		</defs>
		<clipPath id="XMLID_15_">
			<use xlink:href="#XMLID_52_"  style="overflow:visible;"/>
		</clipPath>
		<polyline id="XMLID_54_" class="st0" points="0.2,175.5 0.2,-0.4 136.7,-0.4 136.7,175.5 0.2,175.5 		"/>
		<g id="XMLID_57_" class="st1">
			<defs>
				<polyline id="XMLID_56_" points="-0.2,-0.8 136.3,-0.8 136.3,175.1 -0.2,175.1 -0.2,-0.8 				"/>
			</defs>
			<clipPath id="XMLID_16_">
				<use xlink:href="#XMLID_56_"  style="overflow:visible;"/>
			</clipPath>
			<polyline id="XMLID_58_" class="st2" points="-0.2,-0.8 136.3,-0.8 136.3,175.1 -0.2,175.1 -0.2,-0.8 			"/>
			<circle id="XMLID_59_" class="st3" cx="-13.8" cy="138.2" r="51.6"/>
			<polyline id="XMLID_60_" class="st4" points="142.2,44.2 33.6,100.9 36.4,106.3 145,49.6 			"/>
			<polyline id="XMLID_61_" class="st4" points="146.3,160.2 52.5,-19.9 47,-17.1 140.9,163 146.3,160.2 			"/>
			<polyline id="XMLID_62_" class="st4" points="72.7,26.2 153.8,-17.8 150.9,-23.2 69.8,20.8 72.7,26.2 			"/>
			<path id="XMLID_63_" class="st4" d="M-70.6,137.3h3.1c0-15.2,6.2-29,16.1-39c10-10,23.7-16.1,39-16.1c15.2,0,29,6.2,39,16.1
				c10,10,16.1,23.7,16.1,39c0,15.2-6.2,29-16.1,39c-10,10-23.7,16.1-39,16.1c-15.2,0-29-6.2-39-16.1c-10-10-16.1-23.7-16.1-39
				H-70.6h-3.1c0,33.8,27.4,61.2,61.2,61.2c33.8,0,61.2-27.4,61.2-61.2c0-33.8-27.4-61.2-61.2-61.2c-33.8,0-61.2,27.4-61.2,61.2
				H-70.6z"/>
			<path id="XMLID_64_" class="st5" d="M116.3,34c0.2,0,0.4,0.2,0.4,0.4v0.8h-0.8v-0.8C115.9,34.2,116,34,116.3,34"/>
			<path id="XMLID_65_" class="st5" d="M99.1,14.2c0.2,0,0.4,0.2,0.4,0.4v0.8h-0.8v-0.8C98.7,14.4,98.9,14.2,99.1,14.2"/>
			<polyline id="XMLID_66_" class="st4" points="82.1,44.1 -29.6,44.1 -29.6,48.3 82.1,48.3 			"/>
			<polyline id="XMLID_67_" class="st4" points="62.2,87 75.5,168.8 81.5,167.8 68.2,86 62.2,87 			"/>
		</g>
		<path id="XMLID_55_" class="st6" d="M53.5,25.7h-7.8c-0.3,0-0.6,0.3-0.6,0.6v11.4c0,0.3,0.3,0.6,0.6,0.6h9.2
			c0.4,0,0.6-0.3,0.6-0.7l-1.4-11.4C54,25.9,53.8,25.7,53.5,25.7"/>
		<path id="XMLID_68_" class="st6" d="M43.2,25.7h-3.3c-0.4,0-0.7,0.3-0.7,0.7v11.2c0,0.4,0.3,0.7,0.7,0.7h3.3
			c0.4,0,0.7-0.3,0.7-0.7V26.4C43.9,26,43.6,25.7,43.2,25.7"/>
		<path id="XMLID_69_" class="st6" d="M23.3,31.5H20c-0.4,0-0.7,0.3-0.7,0.7v5.3c0,0.4,0.3,0.7,0.7,0.7h3.3c0.4,0,0.7-0.3,0.7-0.7
			v-5.3C24,31.9,23.7,31.5,23.3,31.5"/>
		<path id="XMLID_70_" class="st6" d="M29.4,25.7h-3.3c-0.4,0-0.7,0.3-0.7,0.7v11.2c0,0.4,0.3,0.7,0.7,0.7h3.3
			c0.4,0,0.7-0.3,0.7-0.7V26.4C30.1,26,29.8,25.7,29.4,25.7"/>
		<path id="XMLID_71_" class="st6" d="M37.6,25.7h-5.8c-0.4,0-0.7,0.3-0.7,0.7v11.2c0,0.4,0.3,0.7,0.7,0.7h5.8
			c0.4,0,0.7-0.3,0.7-0.7V26.4C38.3,26,38,25.7,37.6,25.7"/>
		<path id="XMLID_72_" class="st6" d="M17.3,25.7h-2.7c-1.4,1.7-2.7,3.5-3.9,5.4v6.5c0,0.4,0.3,0.7,0.7,0.7h5.8
			c0.4,0,0.7-0.3,0.7-0.7V26.4C18,26,17.7,25.7,17.3,25.7"/>
		<path id="XMLID_73_" class="st6" d="M9.4,33.1c-1,1.7-1.9,3.4-2.8,5.1h2c0.4,0,0.7-0.3,0.7-0.7V33.1"/>
		<path id="XMLID_74_" class="st6" d="M94.1,82.8c-0.1,0-0.2,0-0.3,0.1L72.9,93c-0.3,0.1-0.5,0.5-0.4,0.8l2.9,15.3
			c0.1,0.4,0.4,0.6,0.7,0.6c0.1,0,0.2,0,0.3-0.1l24.8-12c0.4-0.2,0.5-0.6,0.3-1l-6.8-13.4C94.7,83,94.4,82.8,94.1,82.8"/>
		<path id="XMLID_75_" class="st6" d="M103.2,100.6c-0.1,0-0.2,0-0.3,0.1l-4.7,2.4c-0.3,0.2-0.5,0.6-0.3,1l1.5,2.9
			c0.1,0.2,0.4,0.4,0.6,0.4c0,0,0,0,0,0c0.1,0,0.2,0,0.3-0.1l4.7-2.4c0.3-0.2,0.5-0.6,0.3-1l-1.5-2.9
			C103.7,100.8,103.5,100.6,103.2,100.6"/>
		<path id="XMLID_76_" class="st6" d="M105.9,106c-0.1,0-0.2,0-0.3,0.1l-10,5.1c-0.3,0.2-0.5,0.6-0.3,1l2.6,5.2
			c0.1,0.2,0.4,0.4,0.6,0.4c0.1,0,0.2,0,0.3-0.1l10-5.1c0.3-0.2,0.5-0.6,0.3-1l-2.6-5.2C106.4,106.1,106.2,106,105.9,106"/>
		<path id="XMLID_77_" class="st6" d="M109.8,113.6c-0.1,0-0.2,0-0.3,0.1l-10,5.1c-0.3,0.2-0.5,0.6-0.3,1l2.6,5.2
			c0.1,0.2,0.4,0.4,0.6,0.4c0.1,0,0.2,0,0.3-0.1l2.3-1.1c2.4-1.6,4.7-3.4,6.9-5.3v-1.8l-1.5-3C110.3,113.7,110,113.6,109.8,113.6"/>
		<path id="XMLID_78_" class="st6" d="M90.5,125.3l-0.1,0l-11,1.9c-0.4,0.1-0.6,0.4-0.6,0.8l1,5.7c0,0.1,0.1,0.3,0.2,0.4
			c4.2-0.8,8.2-1.9,12.1-3.4l-0.8-4.8C91.2,125.6,90.9,125.3,90.5,125.3"/>
		<path id="XMLID_79_" class="st6" d="M89.1,116.9l-0.1,0l-11,1.9c-0.4,0.1-0.6,0.4-0.6,0.8l1,5.7c0.1,0.3,0.4,0.6,0.7,0.6
			c0,0,0,0,0,0l0.1,0l11-1.9c0.4-0.1,0.6-0.4,0.6-0.8l-1-5.7C89.7,117.2,89.4,116.9,89.1,116.9"/>
		<path id="XMLID_80_" class="st6" d="M87.3,110.6l-0.1,0l-11,1.9c-0.4,0.1-0.6,0.4-0.6,0.8l0.6,3.2c0.1,0.3,0.4,0.6,0.7,0.6l0.1,0
			l11-1.9c0.4-0.1,0.6-0.4,0.6-0.8l-0.6-3.2C88,110.9,87.7,110.6,87.3,110.6"/>
		<path id="XMLID_81_" class="st6" d="M51,14.2H40.4c-0.7,0-1.2,0.6-1.2,1.2v6.6c0,0.7,0.6,1.2,1.2,1.2h11.7c0.8,0,1.3-0.7,1.2-1.4
			l-1.2-6.6C52.1,14.6,51.6,14.2,51,14.2"/>
	</g>
	<path id="XMLID_51_" class="st7" d="M38.4,90.2c-2.5,0-4.5,0.7-4.5,1.6c0,0.9,2,1.6,4.5,1.6c2.5,0,4.5-0.7,4.5-1.6
		C42.9,90.9,40.9,90.2,38.4,90.2"/>
	<path id="XMLID_82_" class="st8" d="M45.4,80.2c0,3.2-5,9.7-6.4,11.5c-0.2,0.2-0.6,0.2-0.8,0c-1.4-1.8-6.4-8.3-6.4-11.5
		c0-3.8,3-6.8,6.8-6.8C42.4,73.4,45.4,76.4,45.4,80.2z"/>
	<circle id="XMLID_83_" class="st9" cx="38.6" cy="79.1" r="2.5"/>
	<path id="XMLID_84_" class="st9" d="M94.7,12.4c0.5,0,1-0.2,1.4-0.6c0.4-0.4,0.6-0.9,0.6-1.4c0-0.5-0.2-1-0.6-1.4
		c-0.4-0.4-0.9-0.6-1.4-0.6c-0.5,0-1,0.2-1.4,0.6c-0.4,0.4-0.6,0.9-0.6,1.4c0,0.5,0.2,1,0.6,1.4C93.7,12.2,94.2,12.4,94.7,12.4"/>
	<path id="XMLID_87_" class="st9" d="M78.1,17.4L78.1,17.4c-1,0.5-1.3,1.8-0.8,2.7c0.5,1,1.8,1.3,2.7,0.8c1-0.5,1.3-1.8,0.8-2.7
		C80.3,17.2,79.1,16.8,78.1,17.4z M85.9,13L85.9,13c-1,0.5-1.3,1.8-0.8,2.7c0.5,1,1.8,1.3,2.7,0.8c1-0.5,1.3-1.8,0.8-2.7
		C88.1,12.9,86.9,12.5,85.9,13z"/>
	<path id="XMLID_88_" class="st9" d="M71.3,25.5c0.5,0,1-0.2,1.4-0.6c0.4-0.4,0.6-0.9,0.6-1.4s-0.2-1-0.6-1.4
		c-0.4-0.4-0.9-0.6-1.4-0.6c-0.5,0-1,0.2-1.4,0.6c-0.4,0.4-0.6,0.9-0.6,1.4s0.2,1,0.6,1.4C70.2,25.3,70.7,25.5,71.3,25.5"/>
	<path id="XMLID_95_" class="st9" d="M91.8,65.4L91.8,65.4c0.5,1,1.7,1.3,2.7,0.8c1-0.5,1.3-1.7,0.8-2.7s-1.7-1.3-2.7-0.8
		C91.7,63.2,91.3,64.4,91.8,65.4z M88.1,58.6L88.1,58.6c0.5,1,1.7,1.3,2.7,0.8c1-0.5,1.3-1.7,0.8-2.7s-1.7-1.3-2.7-0.8
		C87.9,56.4,87.6,57.6,88.1,58.6z M84.4,51.7L84.4,51.7c0.5,1,1.7,1.3,2.7,0.8c1-0.5,1.3-1.7,0.8-2.7c-0.5-1-1.7-1.3-2.7-0.8
		C84.2,49.6,83.9,50.8,84.4,51.7z M80.7,44.9L80.7,44.9c0.5,1,1.7,1.3,2.7,0.8c1-0.5,1.3-1.7,0.8-2.7s-1.7-1.3-2.7-0.8
		C80.5,42.7,80.1,43.9,80.7,44.9z M77,38.1L77,38.1c0.5,1,1.7,1.3,2.7,0.8c1-0.5,1.3-1.7,0.8-2.7c-0.5-1-1.7-1.3-2.7-0.8
		C76.8,35.9,76.4,37.1,77,38.1z M73.2,31.3L73.2,31.3c0.5,1,1.7,1.3,2.7,0.8c1-0.5,1.3-1.7,0.8-2.7c-0.5-1-1.7-1.3-2.7-0.8
		C73.1,29.1,72.7,30.3,73.2,31.3z"/>
	<path id="XMLID_96_" class="st9" d="M97.3,73.3c0.5,0,1-0.2,1.4-0.6c0.4-0.4,0.6-0.9,0.6-1.4c0-0.5-0.2-1-0.6-1.4
		c-0.4-0.4-0.9-0.6-1.4-0.6c-0.5,0-1,0.2-1.4,0.6c-0.4,0.4-0.6,0.9-0.6,1.4c0,0.5,0.2,1,0.6,1.4C96.3,73.1,96.8,73.3,97.3,73.3"/>
	<path id="XMLID_104_" class="st9" d="M47.2,95.2L47.2,95.2c-1,0.5-1.4,1.7-0.8,2.7c0.5,1,1.7,1.4,2.7,0.8c1-0.5,1.4-1.7,0.8-2.7
		C49.4,95,48.2,94.7,47.2,95.2z M54.2,91.5L54.2,91.5c-1,0.5-1.4,1.7-0.8,2.7c0.5,1,1.7,1.4,2.7,0.8c1-0.5,1.4-1.7,0.8-2.7
		C56.4,91.4,55.2,91,54.2,91.5z M61.3,87.8L61.3,87.8c-1,0.5-1.4,1.7-0.8,2.7c0.5,1,1.7,1.4,2.7,0.8c1-0.5,1.4-1.7,0.8-2.7
		C63.5,87.7,62.2,87.3,61.3,87.8z M68.3,84.2L68.3,84.2c-1,0.5-1.4,1.7-0.8,2.7c0.5,1,1.7,1.4,2.7,0.8c1-0.5,1.4-1.7,0.8-2.7
		C70.5,84,69.3,83.7,68.3,84.2z M75.3,80.5L75.3,80.5c-1,0.5-1.4,1.7-0.8,2.7c0.5,1,1.7,1.4,2.7,0.8c1-0.5,1.4-1.7,0.8-2.7
		C77.5,80.4,76.3,80,75.3,80.5z M82.3,76.8L82.3,76.8c-1,0.5-1.4,1.7-0.8,2.7c0.5,1,1.7,1.4,2.7,0.8c1-0.5,1.4-1.7,0.8-2.7
		C84.5,76.7,83.3,76.3,82.3,76.8z M89.4,73.2L89.4,73.2c-1,0.5-1.4,1.7-0.8,2.7c0.5,1,1.7,1.4,2.7,0.8c1-0.5,1.4-1.7,0.8-2.7
		C91.5,73,90.3,72.7,89.4,73.2z"/>
	<path id="XMLID_105_" class="st9" d="M41.1,102.6c0.5,0,1-0.2,1.4-0.6c0.4-0.4,0.6-0.9,0.6-1.4c0-0.5-0.2-1-0.6-1.4
		c-0.4-0.4-0.9-0.6-1.4-0.6c-0.5,0-1,0.2-1.4,0.6c-0.4,0.4-0.6,0.9-0.6,1.4c0,0.5,0.2,1,0.6,1.4C40.1,102.4,40.6,102.6,41.1,102.6"
		/>
</g>
</svg>
