<svg id="Layer_1" xmlns="http://www.w3.org/2000/svg" xmlns:xlink="http://www.w3.org/1999/xlink" viewBox="0 0 120 120"><style>.st0{fill:#D2D3D3;} .st1{clip-path:url(#XMLID_3_);} .st2{clip-path:url(#XMLID_4_);} .st3{clip-path:url(#XMLID_5_);fill:#C1C1C1;} .st4{clip-path:url(#XMLID_6_);} .st5{clip-path:url(#XMLID_7_);fill:#FBFBFB;} .st6{clip-path:url(#XMLID_7_);} .st7{clip-path:url(#XMLID_8_);fill:#EFEFEF;} .st8{clip-path:url(#XMLID_8_);fill:#FFFFFF;} .st9{clip-path:url(#XMLID_7_);fill:#DBDCDD;} .st10{fill:#E6E6E6;} .st11{fill:#DEDEDE;} .st12{fill:#ECECEC;} .st13{fill:#CBCCCD;} .st14{fill:#39B1CF;} .st15{fill:#FFFFFF;} .st16{fill:#3783BA;} .st17{fill:#6974B6;}</style><g id="XMLID_1_"><path id="XMLID_32_" class="st0" d="M118.2 58.7l.2 3.3H115l-2.3-1.4z"/><path id="XMLID_33_" class="st0" d="M1.7 61.7l.3-3.1 3.6.6z"/><path id="XMLID_34_" class="st0" d="M60.2 27.7c-.2-.1-.5-.1-.7 0L31.7 43.8 2 61.1c-.5.3-.5 1 0 1.2l57.9 33.4c.2.1.5.1.7 0L118 62.3c.5-.3.5-1 0-1.2L60.2 27.7"/><g id="XMLID_37_"><defs><path id="XMLID_36_" d="M59.5 24.8L2.1 58.1c-.5.3-.5 1 0 1.2L60 92.7c.2.1.5.1.7 0l57.4-33.4c.5-.3.5-1 0-1.2L60.2 24.8c-.2-.2-.5-.2-.7 0"/></defs><clipPath id="XMLID_3_"><use xlink:href="#XMLID_36_" overflow="visible"/></clipPath><g id="XMLID_40_" class="st1"><defs><path id="XMLID_39_" d="M-51.3 39.1L68-30.2l120.1 69.3-119.3 69.4-120.1-69.4"/></defs><clipPath id="XMLID_4_"><use xlink:href="#XMLID_39_" overflow="visible"/></clipPath><g id="XMLID_43_" class="st2"><defs><path id="XMLID_42_" d="M68.8 108.5L-51.3 39.1 68-30.2l120.1 69.3-119.3 69.4"/></defs><clipPath id="XMLID_5_"><use xlink:href="#XMLID_42_" overflow="visible"/></clipPath><path id="XMLID_46_" class="st3" d="M27.7 73l-.3.2.3.2h.4c.1-.1.1-.1 0-.2l-.4-.2m-.6-.3h-.3c-.1.1-.1.1 0 .2l.3.2.3-.2-.3-.2"/><path id="XMLID_47_" class="st3" d="M27.8 72.6h-.2l-.3.2-.2.2-.3.2c-.1.1-.1.1 0 .2h.3l.3-.2.3-.2.3-.2v-.2h-.2"/></g></g></g><g id="XMLID_41_"><defs><path id="XMLID_38_" d="M-5.6 62.9l74.7-43.4 58.6 33.8L53 96.7-5.6 62.9"/></defs><clipPath id="XMLID_6_"><use xlink:href="#XMLID_38_" overflow="visible"/></clipPath><g id="XMLID_50_" class="st4"><defs><path id="XMLID_49_" d="M60.4 92.5L1.7 58.6 60 24.8l58.6 33.8-58.2 33.9"/></defs><clipPath id="XMLID_7_"><use xlink:href="#XMLID_49_" overflow="visible"/></clipPath><path id="XMLID_51_" class="st5" d="M60.2 24.9l-.2-.1L1.7 58.6l.2.1L15 51.1l2.9-1.7L37.6 38l2.6-1.5L54.7 28l5.5-3.1"/><g id="XMLID_54_" class="st6"><defs><path id="XMLID_53_" d="M52.9 96.7L-5.5 63l74.7-43.4 58.3 33.7-74.6 43.4"/></defs><clipPath id="XMLID_8_"><use xlink:href="#XMLID_53_" overflow="visible"/></clipPath><path id="XMLID_85_" class="st7" d="M41.2 76.9c-.1-.1-.1-.2 0-.3l4.3-3.2c.1-.1.4-.1.5 0l3.9 2.3c.1.1.1.2 0 .3L45 78.8c-.1.1-.4.1-.5 0l-3.3-1.9m4.4 2.5c-.2-.1-.2-.3 0-.3l4.8-2.8c.2-.1.4-.1.6 0l1.4.8c.2.1.2.3 0 .3l-4.8 2.8c-.2.1-.4.1-.6 0l-1.4-.8m2.4 1.4c-.2-.1-.2-.3 0-.3l4.8-2.8c.2-.1.4-.1.6 0l2.5 1.4c.2.1.2.3 0 .4L51 82.2c-.2.1-.4.1-.6 0L48 80.8m3.5 2c-.2-.1-.2-.3 0-.3l4.8-2.8c.2-.1.4-.1.6 0l1.4.8c.2.1.2.3 0 .3l-4.8 2.8c-.2.1-.4.1-.6 0l-1.4-.8m5.1.1c-.2-.1-.2-.3 0-.4l2.3-1.3c.2-.1.4-.1.6 0l1.4.8c.2.1.2.3 0 .3l-2.3 1.3c-.2.1-.4.1-.6 0l-1.4-.7m0 2.9c-.2-.1-.2-.3 0-.4l4.8-2.8c.2-.1.4-.1.6 0l2.5 1.4c.2.1.2.3 0 .3l-4.8 2.8c-.2.1-.4.1-.6 0l-2.5-1.3m3.7 2.1c-.2-.1-.2-.3 0-.3l4.8-2.8c.2-.1.4-.1.6 0l2.5 1.4c.2.1.2.3 0 .4l-4.8 2.8c-.2.1-.4.1-.6 0l-2.5-1.5m11.6-2.3L47.1 71.2l-10.6 7.5 1.2.7 1.9-1.6c.3-.2.8-.3 1.1-.1l5 2.9c.3.2.3.4 0 .6l-2.4 1.4 16.8 9.7 11.8-6.7m-32-30L15 51.1 1.9 58.7l27.7 16 10.3-19.1m-3.1 17.6c-.1-.1-.2-.2-.1-.3l7.4-15c.1-.1.3-.2.6-.2l11.2 1.9.2.1c.2.1.2.2 0 .3L37.5 73.2c-.2.1-.5.1-.7 0m22.5-14l-15.9-2.9-10.8 20.1 1.3.7 25.4-17.9M80.1 63l-17-3.1-14.4 10.2 25 14.5L86 77.4c-5-4.3-6.9-9.5-5.9-14.4M36.4 50.7l4.4-2.5.3.1.2.1c.1.1.2.2.1.2l-1.5 2.6c-.1.1-.3.2-.5.1l-3-.6M37.6 38L17.9 49.4l23 4.2 5.6-10.4-8.9-5.2m17.1-10l-14.6 8.5 7.6 4.4 7-12.9m-3 18.1c-.1-.1-.2-.2-.1-.3l.6-1.1c.1-.1.3-.2.5-.2l3 .6.2.1c.1.1.2.2.1.2l-.6 1.1c-.1.1-.3.2-.5.2l-3-.6h-.2m-3.6 6.6c-.1-.1-.2-.2-.1-.3l2.8-5c.1-.1.3-.2.6-.2L67 50.5l.2.1c.1.1.2.2.1.3L62 55.4c-.1.1-.3.1-.5.1l-13.2-2.7-.2-.1m14.7-5.1c-.1-.1-.2-.2 0-.3l1.1-.9c.1-.1.4-.1.6-.1l5.5 2.3h.1c.1.1.2.2 0 .3l-1.1.9c-.1.1-.4.1-.6.1l-5.6-2.3m-10-3.5c-.1-.1-.2-.2-.1-.3l1.1-1.9c.1-.1.3-.2.5-.2l6.4 1.2.2.1c.1.1.2.2.1.3l-1 1.9c-.1.1-.3.2-.5.2L53 44.2l-.2-.1m1.7-3.1c-.1-.1-.2-.2-.1-.3l1.1-1.9c.1-.1.3-.2.5-.2l6.4 1.2.2.1c.1.1.2.2.1.3l-1.1 1.9c-.1.1-.3.2-.5.2L54.6 41h-.1m10.2 4.6c-.1-.1-.2-.2 0-.3l2-1.7c.1-.1.4-.1.6-.1l5.5 2.3h.1c.1.1.2.2.1.3l-2 1.7c-.1.1-.4.1-.6.1l-5.7-2.3m-8.6-7.8c-.1 0-.1-.1-.1-.2l1.1-1.9c.1-.1.3-.2.5-.2l6.4 1.2.2.1c.1.1.2.2.1.3L63.2 39c-.1.1-.3.2-.5.2L56.3 38l-.2-.2m11.6 5.4c-.1-.1-.2-.2 0-.3l2-1.7c.1-.1.4-.1.6-.1l5.5 2.3h.1c.1.1.2.2 0 .3l-2 1.7c-.1.1-.4.1-.6.1l-5.6-2.3m5.8-1.3c-.1-.1-.2-.2 0-.3l1.1-.9c.1-.1.4-.1.6-.1l2.6 1.1h.1c.1.1.2.2.1.3l-1.1.9c-.1.1-.4.1-.6.1l-2.8-1.1m-15.8-7.2c-.1-.1-.2-.2-.1-.3l1.1-1.9c.1-.1.3-.2.5-.2l6.4 1.2.2.1c.1.1.2.2.1.3l-1.1 1.9c0 .2-.2.2-.5.2l-6.4-1.2-.2-.1m15 4.3c-.1-.1-.2-.2-.1-.3l1.1-.9c.1-.1.4-.1.6-.1l5.5 2.2h.1c.1.1.2.2.1.3l-1.1.9c-.1.1-.4.1-.6.1L72.7 39m-13.3-7.4c-.1-.1-.2-.2-.1-.3l1.1-1.9c.1-.1.3-.2.5-.2l6.4 1.2.2.1c.1.1.2.2.1.3l-1.1 1.9c-.1.1-.3.2-.5.2l-6.4-1.2-.2-.1m25.2 7.3l-1.7-1-2 1.6c-.1.1-.4.1-.6.1l-5.5-2.3h-.1c-.1-.1-.2-.2 0-.3l2-1.7c.1-.1.4-.1.6-.1l3.6 1.5-12.7-7.3v.1c-.1.1-.3.2-.5.2l-6.4-1.2-.3-.1c-.1-.1-.2-.2-.1-.3l1.1-1.9c0-.1.2-.1.3-.2l-2-1.2-15.8 29.4 17.2 3.1 22.9-18.4M98.5 47l-9.7-5.6-.6-.2H88c-.1-.1-.2-.2-.1-.3l-.7-.4L65.4 58l15.3 2.8c1.5-3.8 4.7-7.4 9.8-10.3 2.5-1.4 5.1-2.6 8-3.5m4.7 2.7l-2-1.2c-2.9.9-5.6 2-8 3.4-6.5 3.8-9.7 8.7-9.6 13.6 0 3.6 1.7 7.1 5.2 10.2l2.1-1.2c-6.8-6.9-5.2-15.8 4.9-21.7 2.1-1.2 4.7-2.3 7.4-3.1"/><path id="XMLID_86_" class="st7" d="M118.5 58.5l-15.2-8.8c-2.7.8-5.3 1.9-7.6 3.2-10.1 5.9-11.7 14.8-4.9 21.7l27.7-16.1"/><path id="XMLID_90_" class="st8" d="M41 53.6l-23-4.2-3 1.7 24.9 4.5 1.1-2m20.7 3.8l-17.2-3.1-1.1 2 15.9 2.9 1.2-.9 1.2-.9m19 3.4L65.4 58l-1.9 1.6L62 59l1.4.7-.3.2 17 3.1c.1-.8.4-1.5.6-2.2"/><path id="XMLID_91_" class="st8" d="M60.3 24.9h-.1L54.7 28l-6.9 12.9 2.1 1.3-2.5 1.5-.8-.5L41 53.6l-1.1 2-10.3 19.1 3 1.7 10.8-20.1 1.1-2.1 15.8-29.3"/><path id="XMLID_92_" class="st8" d="M63.4 59.7L62 59l-1.5-.6.1-.1-1.3.9-25.4 18 2.6 1.5 10.6-7.5-1-.5 1.8-1 .8.4 14.4-10.2.3-.2"/><path id="XMLID_93_" class="st8" d="M101.2 48.6L98.5 47c-2.8.9-5.5 2.1-7.9 3.5-5.1 3-8.3 6.5-9.8 10.3-.3.7-.5 1.4-.6 2.1-1 5 .9 10.1 5.9 14.4l2.7-1.5c-3.4-3.1-5.1-6.7-5.2-10.2 0-4.9 3.2-9.8 9.6-13.6 2.4-1.4 5.1-2.6 8-3.4"/><path id="XMLID_94_" class="st8" d="M73.7 84.5l-25-14.4-.8-.4-1.8 1 1 .5 24.8 14.4 1.8-1.1"/><path id="XMLID_95_" class="st8" d="M40.2 36.5L37.6 38l9 5.2.8.5 2.5-1.5-2.1-1.3-7.6-4.4"/><path id="XMLID_96_" class="st8" d="M87.2 40.5l-2.6-1.6-22.9 18.5-1.1.9-.1.1 1.5.6 1.5.6 1.9-1.6 21.8-17.5"/></g><path id="XMLID_52_" class="st9" d="M49.8 75.7l-3.9-2.3c-.1-.1-.4-.1-.5 0l-4.3 3.2c-.1.1-.1.2 0 .3l3.3 1.9c.1.1.4.1.5 0l4.9-2.8c.2-.1.2-.2 0-.3"/><path id="XMLID_97_" class="st9" d="M52.3 77.1l-1.4-.8c-.2-.1-.4-.1-.6 0l-4.8 2.8c-.2.1-.2.3 0 .3l1.4.8c.2.1.4.1.6 0l4.8-2.8c.2 0 .2-.2 0-.3"/><path id="XMLID_98_" class="st9" d="M60.8 82l-1.4-.8c-.2-.1-.4-.1-.6 0l-2.3 1.3c-.2.1-.2.3 0 .4l1.4.8c.2.1.4.1.6 0l2.3-1.3c.2-.1.2-.3 0-.4"/><path id="XMLID_99_" class="st9" d="M58.2 80.5l-1.4-.8c-.2-.1-.4-.1-.6 0l-4.8 2.8c-.2.1-.2.3 0 .3l1.4.8c.2.1.4.1.6 0l4.8-2.8c.2 0 .2-.2 0-.3"/><path id="XMLID_100_" class="st9" d="M55.8 79.1l-2.5-1.4c-.2-.1-.4-.1-.6 0L48 80.5c-.2.1-.2.3 0 .3l2.5 1.4c.2.1.4.1.6 0l4.8-2.8c.1 0 .1-.2-.1-.3"/><path id="XMLID_101_" class="st9" d="M64.5 84.1L62 82.7c-.2-.1-.4-.1-.6 0l-4.8 2.8c-.2.1-.2.3 0 .4l2.5 1.4c.2.1.4.1.6 0l4.8-2.8c.1-.1.1-.3 0-.4"/><path id="XMLID_102_" class="st9" d="M68.1 86.2l-2.5-1.4c-.2-.1-.4-.1-.6 0l-4.8 2.8c-.2.1-.2.3 0 .3l2.5 1.4c.2.1.4.1.6 0l4.8-2.8c.2 0 .2-.2 0-.3"/><path id="XMLID_103_" class="st9" d="M67.2 50.5H67l-15.7-3.2c-.2 0-.5 0-.6.2l-2.8 5c-.1.1 0 .2.1.3l.2.1 13.2 2.7c.2 0 .4 0 .5-.1l5.2-4.5c.3-.2.2-.4.1-.5"/><path id="XMLID_104_" class="st9" d="M56 45.3l-.2-.1-3-.6c-.2 0-.5 0-.5.2l-.6 1.1c-.1.1 0 .2.1.3l.2.1 3 .6c.2 0 .5 0 .5-.2l.6-1.1c.1-.2 0-.3-.1-.3"/><path id="XMLID_105_" class="st9" d="M60.9 43.1l-.1-.1-6.4-1.2c-.2 0-.5 0-.5.2l-1.1 1.9c-.1.1 0 .2.1.3l.2.1 6.4 1.2c.2 0 .5 0 .5-.2l1.1-1.9c0-.2 0-.3-.2-.3"/><path id="XMLID_106_" class="st9" d="M62.6 39.9l-.2-.1-6.4-1.1c-.2 0-.5 0-.5.2l-1.1 1.9c-.1.1 0 .2.1.3l.2.1 6.4 1.2c.2 0 .5 0 .5-.2l1.1-1.9c0-.2 0-.3-.1-.4"/><path id="XMLID_107_" class="st9" d="M64.2 36.8l-.2-.1-6.4-1.2c-.2 0-.5 0-.5.2L56 37.6c0 .1 0 .2.1.3l.2.1 6.4 1.2c.2 0 .5 0 .5-.2l1.1-1.9c.1-.2 0-.3-.1-.3"/><path id="XMLID_108_" class="st9" d="M65.8 33.6l-.2-.1-6.4-1.2c-.2 0-.5 0-.5.2l-1.1 1.9c-.1.1 0 .2.1.3l.2.1 6.4 1.2c.2 0 .5 0 .5-.2l1.1-1.9c.1-.1.1-.2-.1-.3"/><path id="XMLID_109_" class="st9" d="M67.5 30.5l-.2-.1-6.4-1.2c-.2 0-.5 0-.5.2l-1.1 1.9c-.1.1 0 .2.1.3l.2.1 6.4 1.2c.2 0 .5 0 .5-.2l1.1-1.9c0-.1 0-.2-.1-.3"/><path id="XMLID_110_" class="st9" d="M68.2 29.5l-5.9-3.4c-.1 0-.3.1-.3.2l-1.1 1.9c-.1.1 0 .2.1.3l.2.1 6.4 1.2c.2-.1.5-.1.6-.3"/><path id="XMLID_111_" class="st9" d="M77.9 41.7l-2.7-1.1c-.2-.1-.5-.1-.6.1l-1.1.9c-.1.1-.1.2 0 .3h.1l2.6 1.1c.2.1.5.1.6-.1l1.1-.9c.1-.1.1-.2 0-.3"/><path id="XMLID_112_" class="st9" d="M80 39.9l-5.6-2.3c-.2-.1-.5-.1-.6.1l-1.1.9c-.1.1-.1.2.1.3h.1l5.5 2.3c.2.1.5.1.6-.1l1.1-.9c.1 0 0-.2-.1-.3"/><path id="XMLID_113_" class="st9" d="M82.8 37.9l-2-1.2-3.6-1.5c-.2-.1-.5-.1-.6.1l-2 1.7c-.1.1-.1.2 0 .3h.1l5.5 2.3c.2.1.5.1.6-.1l2-1.6"/><path id="XMLID_114_" class="st9" d="M75.8 43.4l-5.6-2.3c-.2-.1-.5-.1-.6.1l-2 1.7c-.1.1-.1.2 0 .3h.1l5.5 2.3c.2.1.5.1.6-.1l2-1.7c.2-.1.1-.2 0-.3"/><path id="XMLID_115_" class="st9" d="M72.8 45.8l-5.6-2.3c-.2-.1-.5-.1-.6.1l-2 1.7c-.1.1-.1.2 0 .3h.1l5.5 2.3c.2.1.5.1.6-.1l2-1.7c.2-.1.2-.2 0-.3"/><path id="XMLID_116_" class="st9" d="M70 48.5l-5.6-2.3c-.2-.1-.5-.1-.6.1l-1.1.9c-.1.1-.1.2 0 .3h.1l5.5 2.3c.2.1.5.1.6-.1l1.1-.9c.2-.1.2-.2 0-.3"/><path id="XMLID_117_" class="st9" d="M41.2 48.3H41l-.3-.1-4.4 2.5 2.8.6c.2 0 .5 0 .5-.1l1.5-2.6c.2-.1.2-.2.1-.3"/><path id="XMLID_118_" class="st9" d="M45.8 80.7l-5-2.9c-.3-.2-.9-.2-1.1.1l-1.9 1.6 5.6 3.3 2.4-1.4c.2-.3.2-.6 0-.7"/><path id="XMLID_119_" class="st9" d="M88.8 41.4l-.9-.5c0 .1 0 .2.1.3l.1.1.7.1"/><path id="XMLID_120_" class="st9" d="M56.1 59.7l-.2-.1-11.2-1.9c-.2 0-.5 0-.6.2l-7.4 15c-.1.1 0 .2.1.3.2.1.5.1.7 0L56.1 60c.2-.1.1-.2 0-.3"/></g></g><path id="XMLID_35_" class="st10" d="M63.1 35.4h-.2v.1z"/><path id="XMLID_48_" class="st11" d="M93 47.5c-.6 0-1.2.1-1.6.4-.9.5-.9 1.4 0 1.9.1 0 .1.1.2.1 1.1-.6 2.2-1.1 3.4-1.6-.1-.1-.3-.2-.4-.3-.4-.3-1-.5-1.6-.5"/><path id="XMLID_121_" class="st12" d="M95 48.3c-1.2.5-2.3 1-3.4 1.6.4.2.9.3 1.4.3.6 0 1.2-.1 1.6-.4.7-.4.9-1 .4-1.5"/><path id="XMLID_122_" class="st11" d="M62.9 85.4L60 87.1c.3.1.5.1.8.1h.2l2-1.2c0-.2 0-.4-.1-.6"/><path id="XMLID_123_" class="st13" d="M60.7 84.6c-.6 0-1.2.1-1.6.4-.9.5-.9 1.4 0 1.9.2.1.5.2.8.3l2.9-1.7c-.1-.2-.3-.3-.5-.5-.4-.3-1-.4-1.6-.4"/><path id="XMLID_124_" class="st13" d="M63 86l-2.1 1.2c.5 0 1-.2 1.4-.4.5-.2.7-.5.7-.8"/><path id="XMLID_125_" class="st11" d="M22.7 60.7c-.6 0-1.2.1-1.6.4-.9.5-.9 1.4 0 1.9.4.3 1 .4 1.6.4.6 0 1.2-.1 1.6-.4.9-.5.9-1.4 0-1.9-.5-.3-1.1-.4-1.6-.4"/><path id="XMLID_126_" class="st14" d="M99.1 39.7C99.1 43 93 49 93 49s-6.1-5.9-6.1-9.3c0-3.3 2.7-6.1 6.1-6.1s6.1 2.7 6.1 6.1z"/><circle id="XMLID_127_" class="st15" cx="93" cy="39.2" r="2.1"/><path id="XMLID_128_" class="st16" d="M29.7 51.3c0 3.9-7 10.7-7 10.7s-7-6.8-7-10.7 3.1-7 7-7 7 3.1 7 7z"/><circle id="XMLID_129_" class="st15" cx="22.7" cy="50.8" r="2.5"/><path id="XMLID_130_" class="st17" d="M68.2 74.5c0 4.1-7.4 11.3-7.4 11.3s-7.4-7.2-7.4-11.3c0-4.1 3.3-7.4 7.4-7.4s7.4 3.4 7.4 7.4z"/><circle id="XMLID_131_" class="st15" cx="60.7" cy="74" r="2.6"/></g></svg>