<svg xmlns="http://www.w3.org/2000/svg" xmlns:xlink="http://www.w3.org/1999/xlink" viewBox="0 0 419 419"><path fill="#294B68" d="M386.6 213.6c0 42-14.6 80.7-39 111.1l-278.2-.8C45.3 293.6 31 255.2 31 213.6c0-98.2 79.6-177.8 177.8-177.8 98.2 0 177.8 79.6 177.8 177.8"/><defs><path id="a" d="M386.6 213.6c0 47.8-18.9 91.2-49.6 123.2-32.3 33.7-77.8 54.6-128.2 54.6C110.6 391.3 31 311.7 31 213.6c0-98.2 79.6-177.8 177.8-177.8 98.2 0 177.8 79.6 177.8 177.8"/></defs><clipPath id="b"><use xlink:href="#a" overflow="visible"/></clipPath><path clip-path="url(#b)" fill="#E6E6E6" d="M233.7 221.3c-14-18.9-14.5-46.1-14.5-46.5 0-5-4.1-9-9-9h-.1c-5 0-9 4.2-9 9.2 0 1.3.5 33.3 18 57 6.1 8.3 16.4 14 30.4 16.9 6.4 1.3 12.2 1.7 15.5 1.9v-18.1c-8.4-.3-24.9-2.7-31.3-11.4z"/><path clip-path="url(#b)" fill="#2CA3C7" d="M267.7 232.8h-.1c-.7 0-1.6 0-2.5-.1v18.1h2.8c5-.1 8.9-4.2 8.9-9.1-.2-5-4.2-8.9-9.1-8.9z"/><path clip-path="url(#b)" fill="#CCC" d="M260.6 250.5h-.5l1.6-18h.4l-1.5 18zm-11.3-1.6l-.5-.1 3.8-17.7.4.1-3.7 17.7zm-11.5-3.4l-.5-.2 6.8-16.8.3.1-6.6 16.9zm-11.1-6l-.5-.4 11-14.4.2.2-10.7 14.6zm-9.2-9.8l-.3-.4 15-10 .2.3-14.9 10.1zm-5.8-10.1l-.2-.4 16.3-7.8.1.3-8.1 4-8.1 3.9zm-4.4-10.6l-.2-.5 17.1-5.7.1.4-17 5.8zm-3.1-10.9l-.1-.5 17.6-4 .1.4-17.6 4.1zm-2-11.1l-.1-.4 17.9-2.5.1.5-17.9 2.4zm-1-11.3v-.7l18.1-.1v.3l-18.1.5z"/><path clip-path="url(#b)" fill="#2CA3C7" d="M431.5 437.8H56.2V322.3h375.3v115.5"/><path clip-path="url(#b)" fill="#2997B8" d="M285.9 373.8H185c-2.8 0-5 2.2-5 5s2.2 5 5 5h75.2c8.9-2.7 17.5-6.1 25.7-10"/><path clip-path="url(#b)" fill="#606F78" d="M363.8 278.8h-6c-.7 0-1.2-.5-1.2-1.2v-9.1c0-.7.5-1.2 1.2-1.2h6c.7 0 1.2.5 1.2 1.2v9.1c0 .6-.5 1.2-1.2 1.2z"/><path clip-path="url(#b)" fill="#FFF" d="M331.4 208.9h4.1c.7 0 1.3.6 1.3 1.3v9.9c0 1.8 1.5 3.3 3.3 3.3h15.5v-2h-15.5c-.7 0-1.3-.6-1.3-1.3v-9.9c0-1.8-1.5-3.3-3.3-3.3h-4.1v2z"/><path clip-path="url(#b)" fill="#FFF" d="M354 223.4h2.8c1.8 0 3.2 1.4 3.2 3.2v44.8h2v-44.8c0-2.9-2.3-5.2-5.2-5.2H354v2z"/><path clip-path="url(#b)" fill="#50667F" d="M317 241.8h8.3c.1 0 1.4-.1 2.8-1.2.7-.6 1.3-1.4 1.8-2.5s.8-2.6.8-4.4c0-3.5.1-16.3.1-28.3 0-6 .1-11.8.1-16v-7c0-.6-.4-1-1-1s-1 .4-1 1c0 0-.2 44.4-.2 51.4 0 1.6-.3 2.8-.6 3.7-.5 1.3-1.3 1.9-1.8 2.2-.3.2-.6.2-.7.3h-.2v.3-.3.3-.3 1-1H317c-.6 0-1 .4-1 1 0 .3.4.8 1 .8z"/><path clip-path="url(#b)" fill="#22435F" d="M161.3 81.7h-16.6c-1.6 0-2.8-1.3-2.8-2.8v-5.2c0-1.6 1.3-2.8 2.8-2.8h16.6c1.6 0 2.8 1.3 2.8 2.8v5.2c0 1.5-1.2 2.8-2.8 2.8z"/><path clip-path="url(#b)" fill="#FFF" d="M131.8 237.8h-113c-1.9 0-3.5-1.6-3.5-3.5s1.6-3.5 3.5-3.5h113c1.9 0 3.5 1.6 3.5 3.5-.1 1.9-1.6 3.5-3.5 3.5z"/><path clip-path="url(#b)" fill="#E6E6E6" d="M27.8 70.8h94.4c.3 0 .6.1.8.3l4.4-4.8c-.3-.3-.6-.6-1-.6H23.6c-.4 0-.9.3-1.3.6l4.6 4.7c.3-.1.5-.2.9-.2z"/><path clip-path="url(#b)" fill="#F2F2F2" d="M122.9 71.2c.3.2.4.4.4.8v159h4.4V67.9c0-.5-.1-1.1-.4-1.4l-4.4 4.7z"/><path clip-path="url(#b)" fill="#1D2947" d="M122.9 71.2l-2.9 3.1 2.9-3.1c-.1-.2-.4-.4-.7-.4H27.8c-.3 0-.6.2-.8.3l3 3.1-3.1-3.1c-.2.2-.4.4-.4.8v159h96.8V72c0-.4-.1-.6-.4-.8z"/><g clip-path="url(#b)"><defs><path id="c" d="M27 71.2h96.4v160H27v-160"/></defs><clipPath id="d"><use xlink:href="#c" overflow="visible"/></clipPath><path clip-path="url(#d)" fill="#273756" d="M134 149.3h-18.1c-1.5 0-2.8-1.6-2.8-3.1s1.3-3.1 2.8-3.1h8c1.8 0 2.6-1.1 2.6-2.9v-.3c0-1.8-.8-3.1-2.6-3.1H98.7c-1.8 0-3.6 1.3-3.6 3.1v.3c0 1.8 1.8 2.9 3.6 2.9h3c1.8 0 3.2 1.4 3.2 3.1 0 1.8-1.4 3.1-3.2 3.1H36.8c-1.8 0-3.3 1.9-3.3 3.6v.6c0 1.8 1.6 3.3 3.3 3.3h25c1.8 0 3.2 1.4 3.2 3.1 0 1.8-1.4 3.1-3.2 3.1h-8.4c-1.8 0-3.2 1.4-3.2 3.1s1.4 3.1 3.2 3.1H103c1.8 0 3.2-1.4 3.2-3.1s-1.4-3.1-3.2-3.1H88.9c-1.5 0-2.8-1.6-2.8-3.1s1.3-3.1 2.8-3.1h45c1.8 0 3.1-1.4 3.1-3.3v-.5c.1-1.8-1.3-3.7-3-3.7z"/></g><g clip-path="url(#b)"><defs><path id="e" d="M27 71.2h96.4v160H27v-160"/></defs><clipPath id="f"><use xlink:href="#e" overflow="visible"/></clipPath><path clip-path="url(#f)" fill="#273756" d="M54.8 217.8H36.7c-1.5 0-2.8-1.6-2.8-3.1s1.3-3.1 2.8-3.1h8c1.8 0 2.6-1.1 2.6-2.9v-.3c0-1.8-.8-3.1-2.6-3.1H19.5c-1.8 0-3.6 1.3-3.6 3.1v.3c0 1.8 1.8 2.9 3.6 2.9h3c1.8 0 3.2 1.4 3.2 3.1 0 1.8-1.4 3.1-3.2 3.1h-64.8c-1.8 0-3.3 1.9-3.3 3.6v.6c0 1.8 1.6 3.3 3.3 3.3h25c1.8 0 3.2 1.4 3.2 3.1s-1.4 3.1-3.2 3.1h-8.4c-1.8 0-3.2 1.4-3.2 3.1s1.4 3.1 3.2 3.1h49.6c1.8 0 3.2-1.4 3.2-3.1s-1.4-3.1-3.2-3.1H9.8c-1.5 0-2.8-1.6-2.8-3.1s1.3-3.1 2.8-3.1h45c1.8 0 3.1-1.4 3.1-3.3v-.6c0-1.7-1.3-3.6-3.1-3.6z"/></g><path clip-path="url(#b)" fill="#FFF" d="M123.4 73.1H26.3c-.3 0-.4-.2-.4-.4v-1.6c0-.3.2-.4.4-.4h97.1c.3 0 .4.2.4.4v1.6c.1.2-.1.4-.4.4z"/><path clip-path="url(#b)" fill="#F2F2F2" d="M123.4 76.6H26.3c-.3 0-.4-.2-.4-.4v-1.6c0-.3.2-.4.4-.4h97.1c.3 0 .4.2.4.4v1.6c.1.2-.1.4-.4.4z"/><path clip-path="url(#b)" fill="#FFF" d="M123.4 80.2H26.3c-.3 0-.4-.2-.4-.4v-1.6c0-.3.2-.4.4-.4h97.1c.3 0 .4.2.4.4v1.6c.1.2-.1.4-.4.4z"/><path clip-path="url(#b)" fill="#F2F2F2" d="M123.4 83.7H26.3c-.3 0-.4-.2-.4-.4v-1.6c0-.3.2-.4.4-.4h97.1c.3 0 .4.2.4.4v1.6c.1.2-.1.4-.4.4z"/><path clip-path="url(#b)" fill="#FFF" d="M123.4 87.2H26.3c-.3 0-.4-.2-.4-.4v-1.6c0-.3.2-.4.4-.4h97.1c.3 0 .4.2.4.4v1.6c.1.2-.1.4-.4.4z"/><path clip-path="url(#b)" fill="#F2F2F2" d="M123.4 90.8H26.3c-.3 0-.4-.2-.4-.4v-1.6c0-.3.2-.4.4-.4h97.1c.3 0 .4.2.4.4v1.5c.1.2-.1.5-.4.5z"/><path clip-path="url(#b)" fill="#FFF" d="M123.4 94.3H26.3c-.3 0-.4-.2-.4-.4v-1.6c0-.3.2-.4.4-.4h97.1c.3 0 .4.2.4.4v1.6c.1.1-.1.4-.4.4z"/><path clip-path="url(#b)" fill="#F2F2F2" d="M123.4 97.8H26.3c-.3 0-.4-.2-.4-.4v-1.6c0-.3.2-.4.4-.4h97.1c.3 0 .4.2.4.4v1.6c.1.2-.1.4-.4.4z"/><path clip-path="url(#b)" fill="#FFF" d="M123.4 101.3H26.3c-.3 0-.4-.2-.4-.4v-1.6c0-.3.2-.4.4-.4h97.1c.3 0 .4.2.4.4v1.6c.1.2-.1.4-.4.4z"/><path clip-path="url(#b)" fill="#F2F2F2" d="M123.4 104.9H26.3c-.3 0-.4-.2-.4-.4v-1.6c0-.3.2-.4.4-.4h97.1c.3 0 .4.2.4.4v1.6c.1.2-.1.4-.4.4z"/><path clip-path="url(#b)" fill="#FFF" d="M123.4 108.4H26.3c-.3 0-.4-.2-.4-.4v-1.6c0-.3.2-.4.4-.4h97.1c.3 0 .4.2.4.4v1.6c.1.2-.1.4-.4.4z"/><path clip-path="url(#b)" fill="#F2F2F2" d="M123.4 112H26.3c-.3 0-.4-.2-.4-.4V110c0-.3.2-.4.4-.4h97.1c.3 0 .4.2.4.4v1.6c.1.1-.1.4-.4.4z"/><path clip-path="url(#b)" fill="#FFF" d="M123.4 115.5H26.3c-.3 0-.4-.2-.4-.4v-1.6c0-.3.2-.4.4-.4h97.1c.3 0 .4.2.4.4v1.6c.1.2-.1.4-.4.4z"/><path clip-path="url(#b)" fill="#F2F2F2" d="M123.4 119H26.3c-.3 0-.4-.2-.4-.4V117c0-.3.2-.4.4-.4h97.1c.3 0 .4.2.4.4v1.6c.1.2-.1.4-.4.4z"/><path clip-path="url(#b)" fill="#FFF" d="M123.4 122.5H26.3c-.3 0-.4-.2-.4-.4v-1.6c0-.3.2-.4.4-.4h97.1c.3 0 .4.2.4.4v1.6c.1.2-.1.4-.4.4z"/><path clip-path="url(#b)" fill="#F2F2F2" d="M123.4 126H26.3c-.3 0-.4-.2-.4-.4V124c0-.3.2-.4.4-.4h97.1c.3 0 .4.2.4.4v1.6c.1.2-.1.4-.4.4z"/><path clip-path="url(#b)" fill="#FFF" d="M123.4 129.6H26.3c-.3 0-.4-.2-.4-.4v-1.6c0-.3.2-.4.4-.4h97.1c.3 0 .4.2.4.4v1.6c.1.2-.1.4-.4.4z"/><path clip-path="url(#b)" fill="#F2F2F2" d="M123.4 133.1H26.3c-.3 0-.4-.2-.4-.4v-1.6c0-.3.2-.4.4-.4h97.1c.3 0 .4.2.4.4v1.6c.1.2-.1.4-.4.4z"/><path clip-path="url(#b)" fill="#FFF" d="M123.4 136.6H26.3c-.3 0-.4-.2-.4-.4v-1.6c0-.3.2-.4.4-.4h97.1c.3 0 .4.2.4.4v1.6c.1.3-.1.4-.4.4z"/><path clip-path="url(#b)" fill="#F2F2F2" d="M123.4 140.2H26.3c-.3 0-.4-.2-.4-.4v-1.6c0-.3.2-.4.4-.4h97.1c.3 0 .4.2.4.4v1.6c.1.2-.1.4-.4.4z"/><path clip-path="url(#b)" fill="#E6E6E6" d="M117.1 223.1c-.6 0-1-.4-1-1V70.6h2v151.5c.1.6-.4 1-1 1z"/><path clip-path="url(#b)" fill="#FFF" d="M111.1 177.8c.1 0 .2.1.1.3l-.3.3-.1.1.1.4c0 .1-.1.2-.2.1l-.4-.2h-.1l-.4.2c-.1.1-.2-.1-.2-.1l.1-.4-.1-.1-.3-.3c-.1-.1-.1-.2.1-.3l.4-.1.1-.1.2-.4c.1-.1.2-.1.3 0l.2.4"/><circle clip-path="url(#b)" fill="#FFF" cx="105.4" cy="209.8" r=".5"/><circle clip-path="url(#b)" fill="#FFF" cx="75.8" cy="222.2" r=".5"/><circle clip-path="url(#b)" fill="#FFF" cx="95.8" cy="184.1" r=".5"/><circle clip-path="url(#b)" fill="#FFF" cx="80.3" cy="144.1" r=".5"/><circle clip-path="url(#b)" fill="#FFF" cx="33.6" cy="163.2" r=".8"/><circle clip-path="url(#b)" fill="#FFF" cx="79.4" cy="192.1" r=".8"/><circle clip-path="url(#b)" fill="#FFF" cx="64.9" cy="176.9" r=".8"/><circle clip-path="url(#b)" fill="#FFF" cx="62" cy="208" r=".5"/><circle clip-path="url(#b)" fill="#FFF" cx="43.6" cy="183.3" r=".8"/><path clip-path="url(#b)" fill="#D5D4D5" d="M279.2 238.7h-2.6c-.4 0-.7-.3-.7-.7 0-.4.3-.7.7-.7h2.6c.4 0 .7.3.7.7-.1.4-.4.7-.7.7zm4.8 0h-2.6c-.4 0-.7-.3-.7-.7 0-.4.3-.7.7-.7h2.6c.4 0 .7.3.7.7 0 .4-.4.7-.7.7zm4.8 0h-2.6c-.4 0-.7-.3-.7-.7 0-.4.3-.7.7-.7h2.6c.4 0 .7.3.7.7 0 .4-.3.7-.7.7zm4.8 0H291c-.4 0-.7-.3-.7-.7 0-.4.3-.7.7-.7h2.6c.4 0 .7.3.7.7 0 .4-.3.7-.7.7zm4.8 0h-2.6c-.4 0-.7-.3-.7-.7 0-.4.3-.7.7-.7h2.6c.4 0 .7.3.7.7 0 .4-.3.7-.7.7z"/><path clip-path="url(#b)" fill="#2CA3C7" d="M248 217.5h17.5c2.3 0 4.6.9 6.4 2.4l2.2 1.9c1.3 1.2 3.4 1 4.5-.3 1.2-1.3 1-3.4-.3-4.5l-2.2-1.9c-2.9-2.6-6.7-4-10.6-4h-1.2l.2 3.2v-3.2h-16.6c-1.8 0-3.2 1.4-3.2 3.2.1 1.7 1.5 3.2 3.3 3.2z"/><path clip-path="url(#b)" fill="#2CA3C7" d="M258.7 232l-14-3c-1.4-.3-2.3-1.7-2-3.1l3-14.3c.3-1.4 1.7-2.3 3.1-2l14 3c4.9 1 8 5.8 7 10.7l-.4 1.8c-1.1 4.8-5.9 7.9-10.7 6.9z"/><path clip-path="url(#b)" fill="#3B4D58" d="M152 349.8h58c1.1 0 2-.9 2-2s-.9-2-2-2h-58c-1.1 0-2 .9-2 2s.9 2 2 2"/><path clip-path="url(#b)" fill="#3B4D58" d="M193.4 378.3l43.6-71.4 37.1 71.3c.5 1 1.8 1.4 2.8.9 1-.5 1.4-1.8.9-2.8L239 301.8c-.3-.7-1-1.1-1.8-1.1-.7 0-1.4.4-1.8 1l-45.5 74.5c-.6 1-.3 2.2.7 2.8 1 .6 2.2.3 2.8-.7z"/><path clip-path="url(#b)" fill="#606F78" d="M135.3 378.3l43.6-71.4 37.1 71.3c.5 1 1.8 1.4 2.8.9 1-.5 1.4-1.8.9-2.8L181 301.8c-.3-.7-1-1.1-1.8-1.1-.7 0-1.4.4-1.8 1l-45.5 74.5c-.6 1-.3 2.2.7 2.8.8.6 2.1.3 2.7-.7z"/><path clip-path="url(#b)" fill="#606F78" d="M206 356.8h58c1.1 0 2-.9 2-2s-.9-2-2-2h-58c-1.1 0-2 .9-2 2s.9 2 2 2"/><path clip-path="url(#b)" fill="#FFF" d="M136.8 297.5s1.8 6.6 7.2 6.6 2.4-4 2.4-4l-9.6-2.6z"/><path clip-path="url(#b)" fill="#E6E6E6" d="M118.9 204.4h47c6 0 11.3 3.7 13.4 9.3l30 80.5h-68.7l-21.7-89.8z"/><path clip-path="url(#b)" fill="#E6E6E6" d="M267.6 304.2H153.8c-2.9 0-5.3-2.4-5.3-5.3s2.4-5.3 5.3-5.3h113.7c2.9 0 5.3 2.4 5.3 5.3.1 2.9-2.3 5.3-5.2 5.3z"/><path clip-path="url(#b)" fill="#FFF" d="M144.2 301.3c-3.3.9-6.7-1-7.7-4.4l-23.3-84.8c-.9-3.3 1-6.7 4.4-7.7 3.3-.9 6.7 1 7.7 4.4l23.3 84.8c.9 3.3-1.1 6.7-4.4 7.7z"/><path clip-path="url(#b)" fill="#FFF" d="M207.5 304.2h-63c-2.9 0-5.3-2.4-5.3-5.3s2.4-5.3 5.3-5.3h63c2.9 0 5.3 2.4 5.3 5.3s-2.4 5.3-5.3 5.3z"/><path clip-path="url(#b)" fill="#186CA7" d="M211 286.8h57v65c0 6.9 5.6 12.5 12.5 12.5s12.5-5.6 12.5-12.5v-77.5c0-3.3-1.3-6.5-3.7-8.8s-5.5-3.7-8.8-3.7H211c-6.9 0-12.5 5.6-12.5 12.5s5.6 12.5 12.5 12.5z"/><path clip-path="url(#b)" fill="#FFF" d="M271.4 368.5h43.1c.8 0 1.4-.6 1.4-1.4v-3.5h-45.6v3.8c0 .6.5 1.1 1.1 1.1z"/><path clip-path="url(#b)" fill="#28394C" d="M271.7 350.8c6.4 1.1 18-1.3 19.8-2.5.4-.2.9-.4 1.3-.5.7-.1 1.4.1 2 .5l.3.2-3.8 1.8c-.3.1-.4.5-.3.7l.3.6c.1.3.5.4.7.3l4.7-2.2 1.6 1.1-3.8 1.8c-.3.1-.4.5-.3.7l.3.6c.1.3.5.4.7.3l4.7-2.2 2 1.4-4.1 1.9c-.3.1-.4.5-.3.7l.3.6c.1.3.5.4.7.3l4.8-2.2.2-.2 2.8 2-1.7 8.2H269v-12c0-1.2 1.5-2.1 2.7-1.9z"/><path clip-path="url(#b)" fill="#FFF" d="M303.4 354.7l-4.8 2.2c-.3.1-.6 0-.7-.3l-.3-.6c-.1-.3 0-.6.3-.7l4.1-1.9 1.6 1.1-.2.2zm-8.8-.7l-.3-.6c-.1-.3 0-.6.3-.7l3.8-1.8 1.6 1.1-4.7 2.2c-.2.2-.6 0-.7-.2zm-3.3-2.3l-.3-.6c-.1-.3 0-.6.3-.7l3.8-1.8 1.6 1.1-4.7 2.3c-.2.1-.6 0-.7-.3z"/><path clip-path="url(#b)" fill="#ECECEC" d="M304.7 356.7c.5-.1 1.1-.2 1.7-.2 5.2 0 9.5 2.2 9.5 8.2h-3.3c0-2.9-3.4-7.3-7.9-8z"/><path clip-path="url(#b)" fill="#ECECEC" d="M304.7 356.7c4.4.7 7.8 5.1 7.8 8.1h-15.7c.1-3 3.5-7.4 7.9-8.1z"/><path clip-path="url(#b)" fill="#FFF" d="M188.7 156.5c-20.9 0-37.8 16.9-37.8 37.8v62.9h75.6v-62.9c-.1-20.9-17-37.8-37.8-37.8z"/><path clip-path="url(#b)" fill="#677EA7" d="M206.1 170.2h-2.7c0 2.1-.9 4-2.3 5.4-1.5 1.4-3.5 2.3-5.8 2.3s-4.3-.9-5.8-2.3-2.3-3.3-2.3-5.4c0-2.1.9-4 2.3-5.4 1.5-1.4 3.5-2.3 5.8-2.3s4.3.9 5.8 2.3 2.3 3.3 2.3 5.4h5.4c0-3.6-1.5-7-4-9.3-2.4-2.4-5.8-3.8-9.5-3.8s-7.1 1.4-9.5 3.8c-2.5 2.3-4 5.7-4 9.3 0 3.6 1.5 7 4 9.3 2.4 2.4 5.8 3.8 9.5 3.8s7.1-1.4 9.5-3.8c2.5-2.3 4-5.7 4-9.3h-2.7z"/><path clip-path="url(#b)" fill="#CCC" d="M204.7 147s3.3 14-10.4 23.6l10.4-23.6"/><path clip-path="url(#b)" fill="#E6E6E6" d="M195.9 149.1l5.8-1.4-5.8 1.2v.2l5.8-1.4-5.8 1.2 1.9-.4-1.9.4 1.9-.4-1.9.4c0 .1.1.9.1 1.9 0 1.5-.2 3.6-1.2 5.7-.5 1.1-1.1 2.1-2 3.2-.9 1.1-2.1 2.2-3.7 3.4-4.1 2.8-5.1 8.5-2.3 12.6s8.5 5.1 12.6 2.3c3-2.1 5.4-4.4 7.4-6.8 3-3.7 4.8-7.5 5.8-11.1 1-3.5 1.3-6.7 1.3-9.2 0-3.3-.5-5.4-.6-6-1.2-4.9-6-7.9-10.9-6.7-4.7 1.2-7.7 6.1-6.5 10.9"/><path clip-path="url(#b)" fill="#3C4E5A" d="M207 92.8v-22c0-.3-.2-.5-.5-.5s-.5.2-.5.5v22c0 .3.2.5.5.5s.5-.2.5-.5"/><circle clip-path="url(#b)" fill="#2CA3C7" cx="207.7" cy="71.2" r="3.5"/><path clip-path="url(#b)" fill="#2995B7" d="M226 148.1c0 2.6-2.1 4.6-4.6 4.6h-56.7c-2.6 0-4.6-2.1-4.6-4.6V93.4c0-2.6 2.1-4.6 4.6-4.6h56.7c2.6 0 4.6 2.1 4.6 4.6v54.7"/><path clip-path="url(#b)" fill="#2CA3C7" d="M247 148.1c0 2.6-2.1 4.6-4.6 4.6h-56.7c-2.6 0-4.6-2.1-4.6-4.6V93.4c0-2.6 2.1-4.6 4.6-4.6h56.7c2.6 0 4.6 2.1 4.6 4.6v54.7"/><path clip-path="url(#b)" fill="#969CD3" d="M202.2 124.7c-1.3 0-2.7.5-3.6 1.6-1.9 2-1.8 5.2.2 7.1.3.2 1.8 1.7 4.7 3.2 1.4.7 3.1 1.4 5.2 2 2 .5 4.3.9 6.9.9 2.5 0 4.8-.4 6.8-.9 3-.8 5.2-2.1 6.7-3.2s2.4-2.1 2.6-2.3c1.8-2.1 1.5-5.3-.6-7.1-.9-.8-2.1-1.2-3.2-1.2-1.4 0-2.8.6-3.8 1.7l-.1.1.1-.1c-.1.1-.8.8-2.2 1.5-.7.4-1.5.7-2.6 1-1 .3-2.3.4-3.7.4-1.6 0-3-.2-4.3-.6-1.9-.5-3.3-1.3-4.3-1.9-.5-.3-.8-.6-1-.7-.1-.1-.2-.1-.2-.2-1.1-.9-2.3-1.3-3.6-1.3"/><path clip-path="url(#b)" fill="#2995B7" d="M215.5 139.4c-2.6 0-4.9-.4-6.9-.9s-3.8-1.3-5.2-2c-2.8-1.5-4.4-2.9-4.7-3.2-2-1.9-2.1-5.1-.2-7.1 1-1 2.3-1.6 3.6-1.6 1.2 0 2.5.4 3.4 1.4l.2.2c.2.2.6.4 1 .7 1 .6 2.4 1.4 4.3 1.9 1.2.3 2.7.6 4.3.6 1.4 0 2.7-.2 3.7-.4 1-.3 1.9-.6 2.6-1 1.4-.7 2.1-1.4 2.2-1.5l-.1.1.1-.1c1-1.1 2.4-1.7 3.8-1.7 1.1 0 2.3.4 3.2 1.2 2.1 1.8 2.4 4.9.6 7.1-.2.3-1 1.2-2.6 2.3-1.5 1.1-3.8 2.4-6.7 3.2-1.7.5-4 .8-6.6.8M202.2 122c-2.1 0-4.2.9-5.6 2.4-2.9 3.1-2.8 8 .3 10.9.6.6 2.4 2.1 5.3 3.6 1.8.9 3.7 1.7 5.7 2.2 2.5.7 5 1 7.6 1 2.6 0 5.2-.3 7.6-1 2.8-.8 5.4-2.1 7.6-3.7 1.7-1.2 2.7-2.3 3-2.8 1.3-1.6 2-3.6 1.8-5.6-.2-2.1-1.2-3.9-2.7-5.2-1.4-1.2-3.1-1.8-5-1.8-2.2 0-4.3.9-5.8 2.6-.1.1-.6.5-1.4 1-.6.3-1.3.6-2 .8-.9.2-1.9.4-3 .4-1.2 0-2.4-.2-3.6-.5-1.6-.4-2.8-1.1-3.6-1.5-.4-.3-.7-.5-.8-.6l-.1-.1c-1.5-1.4-3.3-2.1-5.3-2.1"/><path clip-path="url(#b)" fill="#FFF" d="M215.9 139.8c-2.5 0-4.9-.3-7.2-.9-1.9-.5-3.7-1.2-5.4-2.1-2.7-1.4-4.4-2.8-5-3.4-1.2-1.2-2-2.8-2-4.5 0-1.7.6-3.3 1.7-4.6 1.2-1.3 2.9-2 4.6-2 1.6 0 3.2.6 4.3 1.7l.1.1c.2.1.5.4.9.7.8.5 2.2 1.2 3.9 1.7 1.3.3 2.6.5 3.9.5 1.2 0 2.3-.1 3.4-.4.8-.2 1.6-.5 2.3-.9 1.2-.6 1.8-1.3 1.8-1.3 1.2-1.4 2.9-2.2 4.8-2.2 1.5 0 2.9.5 4.1 1.5 2.7 2.3 3.1 6.3.8 9-.3.4-1.2 1.4-2.8 2.5-2.1 1.5-4.5 2.7-7.1 3.5-2.2.7-4.6 1.1-7.1 1.1z"/><path clip-path="url(#b)" fill="#3C4E5A" d="M228.1 123.7c1.1 0 2.3.4 3.2 1.2 2.1 1.8 2.4 4.9.6 7.1-.2.3-1 1.2-2.6 2.3-1.5 1.1-3.8 2.4-6.7 3.2-2 .6-4.3.9-6.8.9-2.6 0-4.9-.4-6.9-.9s-3.8-1.3-5.2-2c-2.8-1.5-4.4-2.9-4.7-3.2-2-1.9-2.1-5.1-.2-7.1 1-1 2.3-1.6 3.6-1.6 1.2 0 2.4.4 3.4 1.3l.2.2c.2.2.6.4 1 .7 1 .6 2.4 1.4 4.3 1.9 1.2.3 2.7.6 4.3.6 1.4 0 2.7-.2 3.7-.4 1-.3 1.9-.6 2.6-1 1.4-.7 2.1-1.5 2.2-1.5l-.1.1.1-.1c1.2-1.1 2.6-1.7 4-1.7m0-2.7c-2.2 0-4.3.9-5.8 2.6-.1.1-.6.5-1.5 1-.6.3-1.3.6-2 .8-.9.2-1.9.4-3 .4-1.2 0-2.4-.2-3.6-.5-1.6-.4-2.8-1.1-3.6-1.5-.4-.3-.7-.5-.8-.6l-.1-.1c-1.4-1.3-3.3-2-5.2-2-2.1 0-4.2.9-5.6 2.4-1.4 1.5-2.2 3.5-2.1 5.5.1 2.1.9 4 2.4 5.4.6.6 2.4 2.1 5.3 3.6 1.8.9 3.7 1.7 5.7 2.2 2.5.7 5 1 7.6 1 2.6 0 5.2-.3 7.5-1 2.8-.8 5.4-2.1 7.6-3.7 1.7-1.2 2.7-2.3 3-2.8 2.7-3.3 2.3-8.2-1-10.9-1.2-1.2-3-1.8-4.8-1.8z"/><circle clip-path="url(#b)" fill="#3C4E5A" cx="191" cy="116.9" r="2.8"/><circle clip-path="url(#b)" fill="#3C4E5A" cx="238.5" cy="116.9" r="2.8"/><path clip-path="url(#b)" fill="#186CA7" d="M226.4 256.8h-11s1.2 32.1-30.1 35.8c3 .4 4.9.3 4.9.3 37.6 0 36.2-36.1 36.2-36.1z"/><path clip-path="url(#b)" fill="#3786BC" d="M215.4 256.8h-64.6c0 29 23.2 36.8 34.5 36.8 31.6 0 30.1-36.8 30.1-36.8z"/><path clip-path="url(#b)" fill="#3786BC" d="M258.5 370.8c-7 0-12.5-5.7-12.5-12.6v-64.4h-57.2c-7 0-12.6-7.1-12.6-14s5.7-13 12.6-13h69.8c7 0 12.4 5.8 12.4 12.8v78.6c0 6.9-5.5 12.6-12.5 12.6z"/><path clip-path="url(#b)" fill="#FFF" d="M248.3 376.2h43.1c.8 0 1.4-.6 1.4-1.4v-3.5h-45.6v3.8c0 .6.5 1.1 1.1 1.1z"/><path clip-path="url(#b)" fill="#28394C" d="M248.7 358.5c6.4 1.1 18-1.3 19.8-2.5.4-.2.9-.4 1.3-.5.7-.1 1.4.1 2 .5l.3.2-3.8 1.8c-.3.1-.4.5-.3.7l.3.6c.1.3.5.4.7.3l4.7-2.2 1.6 1.1-3.8 1.8c-.3.1-.4.5-.3.7l.3.6c.1.3.5.4.7.3l4.7-2.2 2 1.4-4.1 1.9c-.3.1-.4.5-.3.7l.3.6c.1.3.5.4.7.3l4.8-2.2.2-.2 2.8 2.1-1.7 8.4H246v-12.3c0-1.2 1.5-2.1 2.7-1.9z"/><path clip-path="url(#b)" fill="#FFF" d="M280.3 362.4l-4.8 2.2c-.3.1-.6 0-.7-.3l-.3-.6c-.1-.3 0-.6.3-.7l4.1-1.9 1.6 1.1-.2.2zm-8.8-.7l-.3-.6c-.1-.3 0-.6.3-.7l3.8-1.8 1.6 1.1-4.7 2.2c-.2.1-.5 0-.7-.2zm-3.3-2.3l-.3-.6c-.1-.3 0-.6.3-.7l3.8-1.8 1.6 1.1-4.7 2.2c-.2.2-.6.1-.7-.2z"/><path clip-path="url(#b)" fill="#ECECEC" d="M281.6 364.6c.5-.1 1.1-.1 1.7-.1 5.2 0 9.5 2.3 9.5 8.3h-3.3c0-4-3.4-7.5-7.9-8.2z"/><path clip-path="url(#b)" fill="#ECECEC" d="M281.6 364.7c4.4.7 7.8 4.1 7.8 8.1h-15.7c.1-4 3.5-7.4 7.9-8.1z"/><path clip-path="url(#b)" fill="#92C4EA" d="M226.5 251.8h-10.9c0 2-.1 4-.1 5h11v-5z"/><path clip-path="url(#b)" fill="#81B5E2" d="M215.6 251.8H150v5h65.5c0-1 .1-3 .1-5z"/><path clip-path="url(#b)" fill="#F2F2F2" d="M208.8 242.7c-6.5 0-13.1-2-19.3-5.9-16.2-10.3-27.4-32.6-27.4-46.2 0-6.7 5.5-12.2 12.2-12.2s12.2 5.5 12.2 12.2c0 5.3 6.8 19.8 16.1 25.7 4.7 3 7.8 2.3 9.9 1.3 27.4-12.8 42.8-9.4 45.6-8.5l-6.9 23.4s.2.1.5.1c-.1 0-9.8-1.9-28.9 7.1-4.5 2-9.2 3-14 3z"/><path clip-path="url(#b)" fill="#CCC" d="M206.6 242.7c-.2 0-.5 0-.7-.1l2.2-24.3h.1l-1.6 24.4zm13.8-2.1l-8.6-22.8.2-.1 9 22.6-.6.3zm-27.2-1.7l-.5-.3L204 217l.2.1-11 21.8zm35.8-2l-8.9-22.7.4-.2 8.9 22.7-.4.2zm7.6-2.6l-6.7-23.4.4-.1 6.6 23.4-.3.1zm7.4-1.6l-3.6-24.1.5-.1 3.3 24.1-.2.1zm6.8-.4h-.2l1.6-24.3h.6l-2 24.3zm-67.8-.5l-.4-.4 16.5-17.9.2.2-16.3 18.1zm-7.7-8.4l-.3-.4 19.5-14.6.2.2-19.4 14.8zm-6-9.3l-.2-.4 21.4-11.6.2.3-21.4 11.7zm-4.6-10.1l-.2-.5 23.1-7.8.1.2-23 8.1zm-2.6-12.8v-.7h24.4v.1l-24.4.6z"/><path clip-path="url(#b)" fill="#F2F2F2" d="M250.9 235.1l-.8-.2c-.8-.2-1.2-1-1-1.8l7.1-25.7c.2-.8 1-1.2 1.8-1l.8.2c.8.2 1.2 1 1 1.8l-7.1 25.7c-.2.8-1 1.3-1.8 1zm180.1 6.7H266.2c-4.6 0-8.3 3.4-8.3 8l1.8 2 120.8-.2 58.8-1.8c0-4.6-3.7-8-8.3-8z"/><path clip-path="url(#b)" fill="#FFF" d="M258 249.8c0 4.6 3.7 8 8.2 8H431c4.6 0 8-3.4 8-8H258zm42.3-8h-25.5c-1 0-1.9-.8-1.9-1.9s.8-1.9 1.9-1.9h25.5c1 0 1.9.8 1.9 1.9s-.9 1.9-1.9 1.9zM323 120.1c-3 0-6 2.4-6 5.4V224c0 3 2.9 5.8 5.9 5.8h.1l1-1 .4-107.6-1.4-1.1z"/><path clip-path="url(#b)" fill="#E6E6E6" d="M323 120.1v109.6c3-.1 6-2.9 6-5.8v-98.4c0-2.9-3-5.3-6-5.4z"/><path clip-path="url(#b)" fill="#43B5D2" d="M331.2 213.3c-.7 0-1.2-.5-1.2-1.2V205c0-.7.5-1.2 1.2-1.2s1.2.5 1.2 1.2v7.1c0 .6-.5 1.2-1.2 1.2z"/><path clip-path="url(#b)" fill="#FFF" d="M361.9 274.5h-1.8c-.6 0-1.1-.5-1.1-1.1v-1.9c0-.6.5-1.1 1.1-1.1h1.8c.6 0 1.1.5 1.1 1.1v1.9c-.1.6-.5 1.1-1.1 1.1z"/><path clip-path="url(#b)" fill="#22435F" d="M277 66.7h-18.2c-1.7 0-3.1-1.4-3.1-3.1v-5.7c0-1.7 1.4-3.1 3.1-3.1H277c1.7 0 3.1 1.4 3.1 3.1v5.7c0 1.8-1.4 3.1-3.1 3.1zm9.8 14.7h-18.2c-1.7 0-3.1-1.4-3.1-3.1v-5.7c0-1.7 1.4-3.1 3.1-3.1h18.2c1.7 0 3.1 1.4 3.1 3.1v5.7c0 1.8-1.3 3.1-3.1 3.1z"/></svg>