<svg id="Layer_1" xmlns="http://www.w3.org/2000/svg" xmlns:xlink="http://www.w3.org/1999/xlink" viewBox="0 0 120 120"><style>.st0{fill:#3786BE;} .st1{clip-path:url(#XMLID_3_);fill:#FAFBFB;} .st2{clip-path:url(#XMLID_3_);} .st3{clip-path:url(#XMLID_4_);fill:#E6E6E6;} .st4{clip-path:url(#XMLID_4_);fill:#42BBE5;} .st5{clip-path:url(#XMLID_4_);fill:#FFFFFF;} .st6{clip-path:url(#XMLID_4_);fill:#55B680;} .st7{clip-path:url(#XMLID_4_);fill:#469F6B;} .st8{clip-path:url(#XMLID_4_);fill:#28353D;} .st9{clip-path:url(#XMLID_4_);fill:#50A979;} .st10{clip-path:url(#XMLID_3_);fill:#D3D4D5;} .st11{clip-path:url(#XMLID_3_);fill:#FFFFFF;} .st12{clip-path:url(#XMLID_3_);fill:#8686C0;} .st13{fill:#C1C5C8;} .st14{fill:#D8DBDD;} .st15{fill:#E6E8E9;} .st16{fill:#D0D2D3;} .st17{fill:#40ACD2;} .st18{fill:#E6E8E8;} .st19{fill:#3DABD1;} .st20{fill:#D0D1D2;} .st21{fill:#C3C8C9;} .st22{fill:#3A96B6;} .st23{fill:#D0D3D4;} .st24{fill:#3B9DC0;} .st25{fill:#314048;} .st26{fill:#FFFFFF;} .st27{fill:#3686BC;} .st28{fill:#8688C2;} .st29{fill:#C6C6C6;}</style><g id="XMLID_2_"><path id="XMLID_19_" class="st0" d="M110.5 35.8L94.1 23.1l-6.9-10.4-8.6-10.3H9c-4.1 0-7.5 3.3-7.5 7.5v97.6c0 4.1 3.3 7.5 7.5 7.5h94.6c3.1 0 5.8-2 6.9-4.7V35.8z"/><g id="XMLID_91_"><defs><path id="XMLID_90_" d="M87.2 12.7L78.6 2.4H9c-4.1 0-7.5 3.3-7.5 7.5v97.6c0 4.1 3.3 7.5 7.5 7.5h94.6c4.1 0 7.5-3.3 7.5-7.5V34.9l-17-11.8-6.9-10.4"/></defs><clipPath id="XMLID_3_"><use xlink:href="#XMLID_90_" overflow="visible"/></clipPath><path id="XMLID_7_" class="st1" d="M110.5 115.5V33c0-.7.1-1.3.3-1.8l-.1-53.7H.5v142.1l110.5-.1v-1.6c-.3-.8-.5-1.5-.5-2.4z"/><g id="XMLID_95_" class="st2"><defs><path id="XMLID_94_" d="M111 119.8H.9V-22.3H111v142.1"/></defs><clipPath id="XMLID_4_"><use xlink:href="#XMLID_94_" overflow="visible"/></clipPath><path id="XMLID_20_" class="st3" d="M110.5 115.5V33c0-.9.2-1.7.5-2.3v-52.9H.9v142.1H111v-2c-.3-.7-.5-1.5-.5-2.4z"/><path id="XMLID_8_" class="st4" d="M122-34.2c-23 0-41.7 18.7-41.7 41.7 0 19 12.8 35.1 30.2 40.1V33c0-6.1 8.9-6.4 9.9-1.1.4.7.6 1.5.6 2.4v14.8h1c23 0 41.7-18.7 41.7-41.7S145-34.2 122-34.2z"/><path id="XMLID_98_" class="st5" d="M-3.9 83.4l87.7-45.7-2.3-4.4L-6.2 79"/><path id="XMLID_99_" class="st5" d="M-7.3-10.2l75.8 145.4 4.4-2.3L-2.9-12.5"/><path id="XMLID_100_" class="st5" d="M55.8 49.5l7.2 74.2 4.9-.5-7.2-74.1"/><path id="XMLID_9_" class="st5" d="M120.9-41.2c-27.3 0-49.4 22.1-49.4 49.4 0 23.7 16.7 43.6 39.1 48.3v-5.1c-8.1-1.9-15.4-6.1-21.1-11.8-8.1-8.1-13-19.2-13-31.5s5-23.4 13-31.5c8.1-8.1 19.2-13 31.5-13s23.4 5 31.5 13c8.1 8.1 13 19.2 13 31.5s-5 23.4-13 31.5c-8 8-19.1 13-31.4 13v5c27.3-.1 49.3-22.2 49.3-49.4-.1-27.3-22.2-49.4-49.5-49.4z"/><path id="XMLID_102_" class="st5" d="M-4.3 2.9L83.4-26l-1.6-4.7L-5.8-1.8"/><path id="XMLID_103_" class="st6" d="M-4 87.5L29.5 70c.4-.2.8 0 1 .3l29.6 58.4-59.3 7L-4 87.5"/><path id="XMLID_104_" class="st7" d="M18 82.2c.1-.2.4-.2.5 0l1.6 4.3 1.7 4.6c.1.2-.1.4-.2.4h-6.8c-.2 0-.3-.2-.2-.4l1.7-4.6 1.7-4.3"/><path id="XMLID_105_" class="st8" d="M18.3 92.5c-.2 0-.3-.1-.3-.3v-.7h.7v.7c-.1.1-.3.3-.4.3"/><path id="XMLID_106_" class="st9" d="M20.2 92.1h-1.6c0 .2-.2.3-.3.3-.2 0-.3-.1-.3-.3h-1.6c-.2 0-.4.2-.4.4s.2.4.4.4h3.9c.2 0 .4-.2.4-.4-.1-.2-.3-.4-.5-.4"/><path id="XMLID_107_" class="st8" d="M18.6 92.1h-.7c0 .2.2.3.3.3.2.1.4-.1.4-.3"/><path id="XMLID_108_" class="st7" d="M30.6 98.1c.1-.2.4-.2.5 0l1.6 4.3 1.7 4.6c.1.2-.1.4-.2.4h-6.8c-.2 0-.3-.2-.2-.4l1.7-4.6 1.7-4.3"/><path id="XMLID_109_" class="st8" d="M30.8 108.4c-.2 0-.3-.1-.3-.3v-.7h.7v.7c0 .1-.2.3-.4.3"/><path id="XMLID_110_" class="st9" d="M32.8 108.1h-1.6c0 .2-.2.3-.3.3-.2 0-.3-.1-.3-.3H29c-.2 0-.4.2-.4.4s.2.4.4.4h3.9c.2 0 .4-.2.4-.4-.1-.2-.3-.4-.5-.4"/><path id="XMLID_111_" class="st8" d="M31.2 108.1h-.7c0 .2.2.3.3.3.2 0 .4-.1.4-.3"/><path id="XMLID_112_" class="st7" d="M13.1 100.5c.1-.2.4-.2.5 0l1.6 4.3 1.7 4.6c.1.2-.1.4-.2.4H10c-.2 0-.3-.2-.2-.4l1.7-4.6 1.6-4.3z"/><path id="XMLID_113_" class="st8" d="M13.4 110.8c-.2 0-.3-.1-.3-.3v-.7h.7v.7c-.1.1-.2.3-.4.3"/><path id="XMLID_114_" class="st9" d="M15.3 110.5h-1.6c0 .2-.2.3-.3.3-.2 0-.3-.1-.3-.3h-1.6c-.2 0-.4.2-.4.4s.2.4.4.4h3.9c.2 0 .4-.2.4-.4 0-.3-.2-.4-.5-.4"/><path id="XMLID_115_" class="st8" d="M13.7 110.5H13c0 .2.2.3.3.3.3 0 .4-.2.4-.3"/><path id="XMLID_10_" class="st5" d="M64 81h46.5v5H64z"/><path id="XMLID_11_" class="st5" d="M121 81v1.2c0 .9-.2 1.6-.5 2.3V86H137v-5h-16z"/><path id="XMLID_117_" class="st5" d="M19.4 33.1l-34.2-.1v4.9l34.2.1v-4.9"/><path id="XMLID_118_" class="st5" d="M60.7 48.9L49.9-17.2l-4.8.8 10.7 66.1"/></g><path id="XMLID_93_" class="st10" d="M87.8 64.9c-2 0-3.6.6-3.6 1.3 0 .7 1.6 1.3 3.6 1.3s3.6-.6 3.6-1.3c0-.8-1.6-1.3-3.6-1.3"/><path id="XMLID_119_" class="st11" d="M93.4 56.8c0 2.6-4 7.9-5.2 9.3-.2.2-.5.2-.6 0-1.2-1.5-5.2-6.7-5.2-9.3 0-3 2.5-5.5 5.5-5.5s5.5 2.5 5.5 5.5z"/><circle id="XMLID_120_" class="st12" cx="87.9" cy="55.9" r="2"/><path id="XMLID_121_" class="st10" d="M74 88.2h-7.4c-.3 0-.5.2-.5.5l1.1 9.2c0 .2.2.4.5.4H74c.3 0 .5-.2.5-.5v-9.2c0-.2-.3-.4-.5-.4"/><path id="XMLID_122_" class="st10" d="M78.7 88.2H76c-.3 0-.6.3-.6.6v9c0 .3.3.6.6.6h2.7c.3 0 .6-.3.6-.6v-9c-.1-.3-.3-.6-.6-.6"/><path id="XMLID_123_" class="st10" d="M94.8 88.2h-2.7c-.3 0-.6.3-.6.6v4.3c0 .3.3.6.6.6h2.7c.3 0 .6-.3.6-.6v-4.3c-.1-.3-.3-.6-.6-.6"/><path id="XMLID_124_" class="st10" d="M89.8 88.2h-2.7c-.3 0-.6.3-.6.6v9c0 .3.3.6.6.6h2.7c.3 0 .6-.3.6-.6v-9c0-.3-.3-.6-.6-.6"/><path id="XMLID_125_" class="st10" d="M85.2 88.2h-4.7c-.3 0-.6.3-.6.6v9c0 .3.3.6.6.6h4.7c.3 0 .6-.3.6-.6v-9c0-.3-.3-.6-.6-.6"/><path id="XMLID_126_" class="st10" d="M101.6 88.2h-4.7c-.3 0-.6.3-.6.6v9c0 .3.3.6.6.6h4.7c.3 0 .6-.3.6-.6v-9c0-.3-.2-.6-.6-.6"/><path id="XMLID_127_" class="st10" d="M108.5 88.2h-4.7c-.3 0-.6.3-.6.6v9c0 .3.3.6.6.6h4.7c.3 0 .6-.3.6-.6v-9c0-.3-.3-.6-.6-.6"/><path id="XMLID_128_" class="st10" d="M49.4 30.5l-.3.1-20 9.7c-.3.1-.4.5-.3.8l5.5 10.8c.1.2.3.3.5.3l.3-.1L52 44c.2-.1.4-.4.3-.7L50 31c-.1-.3-.3-.5-.6-.5"/><path id="XMLID_129_" class="st10" d="M30.2 32.4l-.3.1-3.8 1.9c-.3.1-.4.5-.3.8l1.2 2.4c.1.2.3.3.5.3l.3-.1 3.8-1.9c.3-.1.4-.5.3-.8l-1.2-2.4c-.1-.2-.3-.3-.5-.3"/><path id="XMLID_130_" class="st10" d="M31.3 24.1l-.3.1-8 4.1c-.3.1-.4.5-.3.8l2.1 4.2c.1.2.3.3.5.3l.3-.1 8.1-4.1c.3-.1.4-.5.3-.8l-2.1-4.2c-.2-.1-.4-.3-.6-.3"/><path id="XMLID_131_" class="st10" d="M28.2 18l-.3.1-8.1 4.1c-.3.1-.4.5-.3.8l2.1 4.2c.1.2.3.3.5.3l.3-.1 8.1-4.1c.3-.1.4-.5.3-.8l-2.1-4.2c-.1-.2-.3-.3-.5-.3"/><path id="XMLID_132_" class="st10" d="M25.4 13.6l-.3.1-8.1 4c-.3.1-.4.5-.3.8l1.2 2.4c.1.2.3.3.5.3l.3-.1 8.1-4.1c.3-.1.4-.5.3-.8l-1.2-2.4c-.1-.1-.3-.2-.5-.2"/><path id="XMLID_133_" class="st10" d="M14.7 2.4h-3.2l-1.8 1c-.2.1-.4.5-.2.7l1.2 2.4c.1.2.3.3.5.3l.3-.1 3.8-1.9c.3-.1.4-.5.3-.8l-.9-1.6"/><path id="XMLID_134_" class="st10" d="M20.3 3.6l-.3.1-8 4.1c-.3.1-.4.5-.3.8l1.2 2.4c.1.2.3.3.5.3l.3-.1 8.1-4.1c.2-.2.4-.5.2-.8l-1.2-2.4c-.1-.2-.3-.3-.5-.3"/><path id="XMLID_135_" class="st10" d="M22.4 7.7l-.3.1-8.1 4.1c-.3.1-.4.5-.3.8l2.1 4.2c.1.2.3.3.5.3l.3-.1 8.1-4.1c.3-.1.4-.5.3-.8L22.9 8c-.1-.2-.3-.3-.5-.3"/><path id="XMLID_136_" class="st10" d="M45.1 5.9l-4.3.7c-.3.1-.5.3-.5.7l.5 2.6c0 .3.3.5.6.5h.1l4.2-.7c.3-.1.5-.3.5-.7l-.5-2.6c-.1-.4-.3-.5-.6-.5"/><path id="XMLID_137_" class="st10" d="M45 2.4h-9.3l-.5.1c-.3.1-.5.3-.5.7l.5 2.6c0 .3.3.5.6.5h.1l8.9-1.5c.3-.1.5-.3.5-.7L45 2.4"/><path id="XMLID_138_" class="st10" d="M45.9 10.6l-9 1.5c-.3.1-.5.3-.5.7l.8 4.6c0 .3.3.5.6.5h.1l8.9-1.5c.3-.1.5-.3.5-.7l-.8-4.6c-.1-.3-.3-.5-.6-.5"/><path id="XMLID_139_" class="st10" d="M47.1 17.4l-9 1.5c-.3.1-.5.3-.5.7l.8 4.6c0 .3.3.5.6.5h.1l8.9-1.5c.3-.1.5-.3.5-.7l-.8-4.6c-.1-.3-.3-.5-.6-.5"/><path id="XMLID_140_" class="st10" d="M48.8 24.5l-9 1.5c-.3.1-.5.3-.5.7l.5 2.6c0 .3.3.5.6.5h.1l8.9-1.5c.3-.1.5-.3.5-.7l-.5-2.6c-.1-.3-.3-.5-.6-.5"/><path id="XMLID_141_" class="st10" d="M21.1 51.5l-.2.1-11.6 5.6c-.3.1-.4.5-.3.7l2.8 5.7c.1.2.3.3.5.3l.2-.1 11.6-5.6c.3-.1.4-.5.3-.7l-2.8-5.7c-.1-.1-.3-.3-.5-.3"/><path id="XMLID_142_" class="st10" d="M17 43.3l-.2.1L5.2 49c-.3.1-.4.5-.3.7l2.8 5.7c.1.2.3.3.5.3l.2-.1L20 50.1c.3-.1.4-.5.3-.7l-2.8-5.7c-.1-.3-.3-.4-.5-.4"/><path id="XMLID_143_" class="st10" d="M13.7 38.1l-7.9.2-.2.1-4 1.9v3.1l1.7 3.5c.1.3.4.4.7.4.1 0 .2 0 .3-.1l11.2-5.4c.4-.2.5-.6.4-1l-1-2c-.3-.4-.7-.7-1.2-.7"/><path id="XMLID_144_" class="st10" d="M78.2 100.3h-9.5c-.6 0-1.1.6-1 1.2l1 5.4c.1.5.5.8 1 .8h8.5c.5 0 1-.4 1-1v-5.4c0-.6-.4-1-1-1"/><path id="XMLID_145_" class="st10" d="M78.8 109.3H70c-.7 0-1.2.6-1.1 1.3l.7 4.3H80v-4.5c0-.6-.5-1.1-1.2-1.1"/><path id="XMLID_146_" class="st10" d="M53.8 56.1c-.1 0-.2 0-.3.1l-13.7 7.5c-.3.2-.4.5-.2.8l17.5 31.7c.1.2.3.3.5.3.3 0 .6-.3.6-.7l-3.8-39.3c0-.2-.3-.4-.6-.4"/></g><path id="XMLID_148_" class="st13" d="M112.8 20.6c-1.5 0-2.9-1.1-2.9-3.1v-.3c.5-1.5 1.7-2.3 2.9-2.3 1.5 0 2.9 1.1 2.9 3.1v.3c-.6 1.6-1.8 2.3-2.9 2.3m-1.3-9.5h-.4c-.3.1-.6.4-.6.7-.1.7-.4 1.3-.9 1.7-.4.3-.9.4-1.3.4-.2 0-.4 0-.5-.1h-.2c-.3 0-.5.1-.7.4l-.1.1c-.2.3-.1.7.1.9.4.5.5 1 .4 1.6-.1.6-.3 1.2-.8 1.6-.3.2-.4.5-.3.8v.2c.1.3.4.6.8.6.6 0 1.2.3 1.6.8.4.5.5 1.2.4 1.9-.1.3.1.7.4.9l.1.1c.1.1.3.1.4.1.2 0 .4-.1.5-.2.4-.3.8-.5 1.3-.5h.4c.6.1 1.1.4 1.4.9.2.2.4.4.7.4h.4c.3-.1.6-.4.6-.7.1-.7.4-1.3.9-1.7.4-.3.9-.4 1.3-.4.2 0 .4 0 .5.1h.2c.3 0 .5-.1.7-.4l.1-.1c.2-.3.1-.7-.1-.9-.4-.5-.5-1-.4-1.6.1-.6.3-1.2.8-1.6.3-.2.4-.5.3-.8v-.2c-.1-.3-.4-.6-.8-.6-.6 0-1.2-.3-1.6-.8-.4-.5-.4-1.1-.3-1.7.1-.3 0-.7-.3-.9l-.1-.1c-.1-.1-.3-.1-.4-.1-.2 0-.4.1-.5.2-.4.3-.8.4-1.2.4h-.5c-.6-.1-1.1-.4-1.4-.9-.4-.4-.6-.5-.9-.5"/><path id="XMLID_149_" class="st14" d="M103.9 23.1h-.2c-.2.1-.4.2-.4.5 0 .5-.3.9-.6 1.2-.3.2-.6.3-.9.3h-.6l1.8 1.8c.4-.7 1.1-1.1 1.7-1.1 1 0 1.9.8 2 2.1v.2c-.2.7-.6 1.1-1.1 1.3l1.2 1.2.1-.1c.3-.2.6-.3.9-.3h.5c.2 0 .3-.1.4-.2l.1-.1c.1-.2.1-.4-.1-.6-.3-.3-.4-.7-.3-1.1.1-.4.2-.8.6-1.1.2-.1.3-.3.2-.6v-.1c-.1-.2-.3-.4-.5-.4-.4 0-.8-.2-1.1-.5-.3-.3-.3-.8-.2-1.2.1-.2 0-.5-.2-.6l-.1-.1c-.1 0-.2-.1-.3-.1-.1 0-.2 0-.3.1-.2.2-.5.3-.8.3h-.3c-.4-.1-.8-.3-1-.6-.2-.2-.4-.2-.5-.2"/><path id="XMLID_150_" class="st15" d="M90.9 3h-.3c-.2 0-.4.1-.5.1-.5.1-.9.6-.9 1.1-.1 1.3-.7 2.4-1.6 3.1-.7.5-1.5.7-2.4.7-.4 0-.7 0-1.1-.1h-.3c-.2 0-.4 0-.5.1l3.9 4.7.8 1.2v-.1c.9-2.7 3-4 5.1-4 2.6 0 5.1 2 5.1 5.6 0 .1 0 .3-.1.4-.5 1.7-1.5 2.8-2.7 3.4l3.1 3.1c.7-.5 1.5-.7 2.4-.7.4 0 .7 0 1.1.1h.3c.4 0 .8-.2 1-.6.1-.2.2-.3.3-.5.3-.5.2-1.1-.2-1.5-.7-.8-1-1.8-.8-2.9.2-1.2.7-2.2 1.6-2.8.4-.3.6-.8.5-1.3 0-.2-.1-.4-.1-.5-.1-.5-.6-.9-1.2-.9-1.2-.1-2.2-.5-2.9-1.4-.7-.9-.8-2-.5-3.2.1-.5 0-1.1-.5-1.4-.2-.1-.3-.2-.5-.3-.2-.1-.4-.2-.6-.2-.3 0-.5.1-.7.3-.7.6-1.5.8-2.3.8-.3 0-.6 0-.9-.1-1.1-.2-2-.7-2.6-1.7-.1-.3-.5-.5-1-.5"/><path id="XMLID_151_" class="st16" d="M81.4 17v.5c0 .2.1.4.1.5 0 .2.1.3.2.4-.1-.4-.2-.9-.3-1.4"/><path id="XMLID_152_" class="st17" d="M83.3 8c-.2.1-.4.2-.5.4-.1.2-.2.3-.3.5-.3.5-.2 1.1.2 1.5.7.8 1 1.8.8 2.9-.2 1.2-.7 2.2-1.6 2.8-.3.2-.4.5-.5.8.1.5.2 1 .4 1.5.2.3.6.4 1 .5 1.2.1 2.2.5 2.9 1.4.7 1 .9 2.3.6 3.5-.1.5.1 1 .5 1.3.2.1.3.2.5.3.2.1.4.2.6.2l2.1-6.9c-1.1-.9-1.9-2.4-1.9-4.4V14l-.8-1.2-4-4.8"/><path id="XMLID_153_" class="st18" d="M91 14.8l-.8 2.5 1.6 2.4c.4.1.8.2 1.3.2.8 0 1.6-.2 2.4-.6L91 14.8"/><path id="XMLID_154_" class="st19" d="M90.3 17.3l-.4 1.3c.6.5 1.3.8 2 1l-1.6-2.3"/><path id="XMLID_12_" class="st18" d="M110.5 34.3l-3.8-3.8c-.3.2-.5.6-.5 1l4.3 3v-.2z"/><path id="XMLID_16_" class="st18" d="M100.8 25.2c.1-.1.2-.2.4-.2l-2.6-2.6c-.9.6-1.4 1.6-1.6 2.7l3.8 2.6c.1-.2.2-.4.2-.7.1-.4 0-.8-.3-1.1-.1-.2-.2-.4-.1-.6l.2-.1z"/><path id="XMLID_17_" class="st20" d="M86.6 29.5l-1.3 4.3 10.2 5.8c-3.5-2.8-6.5-6.3-8.9-10.1z"/><path id="XMLID_15_" class="st19" d="M110.5 34.5l-4.3-3v.1c0 .2-.2.4-.4.5h-.2c-.2 0-.3-.1-.4-.2-.2-.4-.5-.6-1-.6h-.3c-.3 0-.6.1-.9.3-.1.1-.2.1-.3.1-.1 0-.2 0-.3-.1l-.1-.1c-.2-.1-.3-.3-.2-.6.1-.5 0-.9-.2-1.3-.3-.3-.6-.5-1.1-.5-.2 0-.4-.2-.5-.4v-.1c0-.2 0-.4.2-.6.1-.1.3-.2.3-.4L97 25.1v.4c0 .5-.4.9-.9 1.1-.2 0-.4.1-.5.1h-.3c-.4 0-.9-.3-1.1-.6-.6-.9-1.4-1.5-2.6-1.7-.2 0-.4-.1-.7-.1-.9 0-1.6.3-2.3.9-.3.2-.6.3-.9.3l-1.2 3.9c2.4 3.8 5.4 7.3 8.8 10.1l12.4 7.1 2.7.9v-13z"/><path id="XMLID_162_" class="st18" d="M103 26.8c-.1.1-.1.3-.2.4v.2c0 1.4 1 2.1 2 2.1.3 0 .6-.1.8-.2l-2.6-2.5"/><path id="XMLID_163_" class="st21" d="M101.2 24.9c-.2 0-.3.1-.4.2l-.1.1c-.1.2-.1.4.1.6.3.3.4.7.3 1.1 0 .3-.1.5-.2.7l5.4 3.8c.1-.4.2-.7.5-1l-1.2-1.2c-.3.1-.5.2-.8.2-1 0-1.9-.8-2-2.1v-.2c.1-.2.1-.3.2-.4l-1.8-1.8"/><path id="XMLID_164_" class="st22" d="M100.8 27.7c-.1.1-.2.3-.3.4-.2.1-.3.3-.2.6v.1c.1.2.3.4.5.4.4 0 .8.2 1.1.5.3.4.3.8.2 1.3 0 .2 0 .4.2.6l.1.1c.1 0 .2.1.3.1.1 0 .2 0 .3-.1.3-.2.5-.3.9-.3h.3c.4.1.8.3 1 .6.1.2.3.2.4.2h.2c.2-.1.4-.2.4-.5v-.1l-5.4-3.9"/><path id="XMLID_165_" class="st23" d="M95.5 19.3c-.7.4-1.6.6-2.4.6-.4 0-.9-.1-1.3-.2l2.2 3.4 2.9 2c.2-1.1.7-2.1 1.6-2.7l-3-3.1"/><path id="XMLID_166_" class="st24" d="M89.9 18.7l-2.1 6.9c.3 0 .6-.1.9-.3.7-.6 1.4-.9 2.3-.9.2 0 .4 0 .7.1 1.1.2 2 .7 2.6 1.7.2.4.7.6 1.1.6h.3c.2 0 .4-.1.5-.1.5-.1.9-.6.9-1.1v-.4l-2.9-2-2.2-3.4c-.9-.3-1.5-.6-2.1-1.1"/><path id="XMLID_167_" class="st25" d="M86.7 11.9l-8-9.6H7.1c-3 0-5.8 2.5-5.8 5.5v4l85.4.1z"/><circle id="XMLID_168_" class="st26" cx="8.1" cy="7.5" r="1.8"/><circle id="XMLID_169_" class="st27" cx="13.6" cy="7.5" r="1.8"/><circle id="XMLID_170_" class="st28" cx="19.1" cy="7.5" r="1.8"/><path id="XMLID_13_" class="st29" d="M110.5 34.3L78.6 2.4v21.1c0 6.3 5.1 11.3 11.3 11.3h20.5v-.5z"/></g></svg>