<svg id="Layer_1" xmlns="http://www.w3.org/2000/svg" xmlns:xlink="http://www.w3.org/1999/xlink" viewBox="0 0 120 120"><style>.st0{fill:#56677C;} .st1{fill:#FBFBFB;} .st2{fill:#6A7F93;} .st3{clip-path:url(#XMLID_3_);fill:#EFEFEF;} .st4{clip-path:url(#XMLID_3_);fill:#41BCE6;} .st5{clip-path:url(#XMLID_3_);fill:#FFFFFF;} .st6{clip-path:url(#XMLID_3_);fill:#56B881;} .st7{clip-path:url(#XMLID_3_);fill:#47A06B;} .st8{clip-path:url(#XMLID_3_);fill:#28353D;} .st9{fill:#DBDCDD;} .st10{fill:#FFFFFF;} .st11{fill:#8787C1;} .st12{fill:#4F5F73;} .st13{fill:#4B5C6D;} .st14{fill:#F5F5F7;} .st15{fill:#3784BA;} .st16{clip-path:url(#XMLID_8_);fill:#EFEFEF;} .st17{clip-path:url(#XMLID_8_);} .st18{clip-path:url(#XMLID_9_);fill:#FFFFFF;} .st19{clip-path:url(#XMLID_10_);} .st20{clip-path:url(#XMLID_11_);fill:#56B881;} .st21{fill:#47A06B;} .st22{fill:#28353D;} .st23{fill:#51AB7A;} .st24{fill:#E9E9E9;} .st25{fill:#CFD1D1;} .st26{fill:#E2E3E3;} .st27{fill:#E4E4E4;} .st28{fill:#C6C6C6;} .st29{fill:#DFDFDF;} .st30{fill:#67798C;} .st31{fill:#1E2F3A;} .st32{fill:#394B59;} .st33{clip-path:url(#XMLID_12_);} .st34{clip-path:url(#XMLID_13_);fill:#EFEFEF;} .st35{clip-path:url(#XMLID_13_);fill:#FFFFFF;} .st36{clip-path:url(#XMLID_13_);fill:#4F657A;} .st37{clip-path:url(#XMLID_13_);fill:#56B881;} .st38{clip-path:url(#XMLID_13_);fill:#47A06B;} .st39{clip-path:url(#XMLID_13_);fill:#080B0C;} .st40{clip-path:url(#XMLID_12_);fill:#4F657A;} .st41{clip-path:url(#XMLID_12_);fill:#D7D8D8;}</style><g id="XMLID_2_"><path id="XMLID_6_" class="st0" d="M108.8 6.3H39.2c-1.6 0-2.8 1.3-2.8 2.8v100.3c0 1.6 1.3 2.8 2.8 2.8h69.6c1.6 0 2.8-1.3 2.8-2.8V9.2c.1-1.6-1.2-2.9-2.8-2.9m-2.1 95H41.3V17.1h65.4v84.2"/><path id="XMLID_7_" class="st1" d="M106.7 17.1v84.2H41.3V17.1h65.4"/><circle id="XMLID_14_" class="st2" cx="69.9" cy="12.2" r=".7"/><path id="XMLID_15_" class="st2" d="M78.9 12.5c0 .1-.1.3-.3.3h-6.2c-.1 0-.3-.1-.3-.3v-.6c0-.1.1-.3.3-.3h6.2c.1 0 .3.1.3.3v.6z"/><circle id="XMLID_16_" class="st2" cx="74" cy="106.8" r="2.4"/><g id="XMLID_28_"><defs><path id="XMLID_20_" d="M106.9 101.5H41.5V17.2h65.4v84.3"/></defs><clipPath id="XMLID_3_"><use xlink:href="#XMLID_20_" overflow="visible"/></clipPath><path id="XMLID_29_" class="st3" d="M106.9 101.5H41.5V17.2h65.4v84.3"/><circle id="XMLID_32_" class="st4" cx="113.4" cy="34.9" r="24.7"/><path id="XMLID_33_" class="st5" d="M38.7 79.9l52-27.1-1.3-2.6-52 27.1"/><path id="XMLID_34_" class="st5" d="M36.7 24.4l45 86.3 2.6-1.4-45-86.3-2.6 1.4"/><path id="XMLID_35_" class="st5" d="M74.1 59.8l4.3 44 2.9-.3-4.3-44-2.9.3"/><path id="XMLID_36_" class="st5" d="M140.6 35.3h-1.5c0 7.3-3 13.9-7.7 18.7-4.8 4.8-11.4 7.7-18.7 7.7-7.3 0-13.9-3-18.7-7.7-4.8-4.8-7.7-11.4-7.7-18.7 0-7.3 3-13.9 7.7-18.7 4.8-4.8 11.4-7.7 18.7-7.7 7.3 0 13.9 3 18.7 7.7 4.8 4.8 7.7 11.4 7.7 18.7h3C142.1 19.1 129 6 112.8 6 96.5 6 83.4 19.1 83.4 35.3c0 16.2 13.1 29.3 29.3 29.3 16.2 0 29.3-13.1 29.3-29.3h-1.4z"/><path id="XMLID_37_" class="st5" d="M38.5 32.2l52-17.2-.9-2.8-52 17.2.9 2.8"/><path id="XMLID_38_" class="st6" d="M38.6 82.3l19.9-10.4c.2-.1.5 0 .6.2l17.5 34.7-35.1 4.2-2.9-28.7"/><path id="XMLID_39_" class="st7" d="M51 78.7c.1-.1.2-.1.3 0l1 2.6 1 2.7c0 .1 0 .2-.1.2h-4c-.1 0-.2-.1-.1-.2l1-2.7.9-2.6"/><path id="XMLID_40_" class="st8" d="M51.1 84.8c-.1 0-.2-.1-.2-.2v-.4h.4v.4c0 .1-.1.2-.2.2"/><path id="XMLID_41_" class="st7" d="M59.2 88.2c.1-.1.2-.1.3 0l1 2.6 1 2.7c0 .1 0 .2-.1.2h-4c-.1 0-.2-.1-.1-.2l1-2.7.9-2.6"/><path id="XMLID_69_" class="st8" d="M59.3 94.3c-.1 0-.2-.1-.2-.2v-.4h.4v.4c0 .1-.1.2-.2.2"/><path id="XMLID_74_" class="st7" d="M48.8 89.6c.1-.1.2-.1.3 0l1 2.6 1 2.7c0 .1 0 .2-.1.2h-4c-.1 0-.2-.1-.1-.2l1-2.7.9-2.6"/><path id="XMLID_75_" class="st8" d="M49 95.7c-.1 0-.2-.1-.2-.2v-.4h.4v.4c0 .1-.1.2-.2.2"/><path id="XMLID_76_" class="st5" d="M78 80h43v-2H78"/><path id="XMLID_77_" class="st5" d="M52.5 50.1L32.2 50v2.9l20.3.1v-2.9"/><path id="XMLID_78_" class="st5" d="M77 59.5l-6.4-39.2-2.8.4 6.3 39.2 2.9-.4"/></g><path id="XMLID_17_" class="st9" d="M90.9 75.6c-1.2 0-2.2.4-2.2.8s1 .8 2.2.8c1.2 0 2.2-.4 2.2-.8-.1-.4-1-.8-2.2-.8"/><path id="XMLID_79_" class="st10" d="M94.2 70.8c0 1.5-2.4 4.7-3.1 5.5-.1.1-.3.1-.4 0-.7-.9-3.1-4-3.1-5.5 0-1.8 1.5-3.3 3.3-3.3s3.3 1.5 3.3 3.3z"/><circle id="XMLID_80_" class="st11" cx="91" cy="70.3" r="1.2"/><path id="XMLID_81_" class="st9" d="M84.9 82.8h-4.4c-.2 0-.3.1-.3.3l.7 5.5c0 .1.1.2.3.2h3.7c.2 0 .3-.1.3-.3V83c0-.1-.1-.2-.3-.2"/><path id="XMLID_82_" class="st9" d="M87.7 82.8h-1.6c-.2 0-.3.2-.3.3v5.4c0 .2.2.3.3.3h1.6c.2 0 .3-.2.3-.3v-5.4c0-.2-.1-.3-.3-.3"/><path id="XMLID_83_" class="st9" d="M97.2 82.8h-1.6c-.2 0-.3.2-.3.3v2.6c0 .2.2.3.3.3h1.6c.2 0 .3-.2.3-.3v-2.6c.1-.2-.1-.3-.3-.3"/><path id="XMLID_84_" class="st9" d="M81.5 18.7h-.1l-1.5.6c-.2.1-.3.3-.2.4l.9 2.4c.1.1.2.2.3.2h.1l1.5-.6c.2-.1.3-.3.2-.4l-.9-2.3c0-.2-.2-.3-.3-.3"/><path id="XMLID_85_" class="st9" d="M94.3 82.8h-1.6c-.2 0-.3.2-.3.3v5.4c0 .2.2.3.3.3h1.6c.2 0 .3-.2.3-.3v-5.4c.1-.2-.1-.3-.3-.3"/><path id="XMLID_86_" class="st9" d="M91.6 82.8h-2.8c-.2 0-.3.2-.3.3v5.4c0 .2.2.3.3.3h2.8c.2 0 .3-.2.3-.3v-5.4c0-.2-.1-.3-.3-.3"/><path id="XMLID_87_" class="st9" d="M101.3 82.8h-2.8c-.2 0-.3.2-.3.3v5.4c0 .2.2.3.3.3h2.8c.2 0 .3-.2.3-.3v-5.4c.1-.2-.1-.3-.3-.3"/><path id="XMLID_88_" class="st9" d="M105.4 82.8h-2.8c-.2 0-.3.2-.3.3v5.4c0 .2.2.3.3.3h2.8c.2 0 .3-.2.3-.3v-5.4c0-.2-.1-.3-.3-.3"/><path id="XMLID_89_" class="st9" d="M70.3 48.5h-.2l-11.9 5.7c-.2.1-.3.3-.2.5l3.2 6.4c.1.1.2.2.3.2h.2l10-4.8c.1-.1.2-.2.2-.4l-1.4-7.3c.1-.1 0-.3-.2-.3"/><path id="XMLID_90_" class="st9" d="M58.9 49.7h-.2l-2.3 1.2c-.2.1-.2.3-.1.5l.7 1.4c.1.1.2.2.3.2h.2l2.3-1.2c.2-.1.2-.3.1-.5l-.7-1.4c0-.2-.1-.2-.3-.2"/><path id="XMLID_91_" class="st9" d="M59.6 44.8h-.2l-4.8 2.4c-.2.1-.2.3-.1.5l1.3 2.5c.1.1.2.2.3.2h.2l4.8-2.4c.2-.1.2-.3.1-.5L59.9 45c-.1-.2-.2-.2-.3-.2"/><path id="XMLID_92_" class="st9" d="M57.7 41.1h-.2l-4.4 2.2V45l.7 1.4c.1.1.2.2.3.2h.2l4.8-2.4c.2-.1.2-.3.1-.5L58 41.3c0-.1-.1-.2-.3-.2"/><path id="XMLID_93_" class="st9" d="M56.1 38.5h-.2l-2.7 1.4v2.5l3.7-1.9c.2-.1.2-.3.1-.5l-.7-1.4s-.1-.1-.2-.1"/><path id="XMLID_94_" class="st9" d="M53.1 32.6c0 .3.1.6.1.9V35l.7-.4c.2-.1.2-.3.1-.5l-.7-1.4s-.1-.1-.2-.1"/><path id="XMLID_95_" class="st9" d="M54.3 35h-.2l-1 .5v3.9l2.5-1.3c.2-.1.2-.3.1-.5l-1.3-2.5c.1 0 0-.1-.1-.1"/><path id="XMLID_96_" class="st9" d="M67.8 33.9s-.1 0 0 0l-2.6.4c-.2 0-.3.2-.3.4l.3 1.6c0 .2.2.3.3.3h.1l2.5-.4c.2 0 .3-.2.3-.4l-.3-1.6c0-.2-.2-.3-.3-.3"/><path id="XMLID_97_" class="st9" d="M67.3 31s-.1 0 0 0l-5.3.9c-.2 0-.3.2-.3.4l.3 1.6c0 .2.2.3.3.3h.1l5.3-.9c.2 0 .3-.2.3-.4l-.3-1.6c-.1-.2-.3-.3-.4-.3"/><path id="XMLID_98_" class="st9" d="M66.6 27.2l-5.3.9c-.2 0-.3.2-.3.4l.5 2.7c0 .2.2.3.3.3h.1l5.3-.9c.2 0 .3-.2.3-.4l-.5-2.7c-.1-.2-.2-.3-.4-.3"/><path id="XMLID_99_" class="st9" d="M68.3 36.7c-.1 0-.1 0 0 0l-5.3.9c-.2 0-.3.2-.3.4l.5 2.7c0 .2.2.3.3.3h.1l5.3-.9c.2 0 .3-.2.3-.4l-.6-2.7c0-.1-.2-.3-.3-.3"/><path id="XMLID_100_" class="st9" d="M69 40.8c-.1 0-.1 0 0 0l-5.3.9c-.2 0-.3.2-.3.4l.5 2.7c0 .2.2.3.3.3h.1l5.3-.9c.2 0 .3-.2.3-.4l-.5-2.7c-.1-.2-.3-.3-.4-.3"/><path id="XMLID_101_" class="st9" d="M70 45s-.1 0 0 0l-5.3.9c-.2 0-.3.2-.3.4l.3 1.6c0 .2.2.3.3.3h.1l5.3-.9c.2 0 .3-.2.3-.4l-.3-1.6c-.1-.2-.2-.3-.4-.3"/><path id="XMLID_102_" class="st9" d="M53.6 61h-.1l-.2.1V66l2.2-1c.2-.1.2-.3.2-.4l-1.6-3.4c-.3-.1-.4-.2-.5-.2"/><path id="XMLID_103_" class="st9" d="M87.4 89.9h-5.6c-.4 0-.6.3-.6.7l.6 3.2c.1.3.3.5.6.5h5.1c.3 0 .6-.3.6-.6v-3.2c-.1-.3-.3-.6-.7-.6"/><path id="XMLID_104_" class="st9" d="M87.8 95.3h-5.2c-.4 0-.7.4-.7.8l.7 4.5c.1.3.3.6.7.6h4.5c.4 0 .7-.3.7-.7V96c0-.4-.3-.7-.7-.7"/><path id="XMLID_105_" class="st9" d="M76 20.4h-.1l-4 1.3c-.2.1-.3.3-.3.5l1 5.1c0 .2.2.3.4.3h.1l4.6-1.5c.2-.1.3-.3.3-.5l-1.6-4.9c-.1-.2-.3-.3-.4-.3"/><path id="XMLID_106_" class="st9" d="M78.7 19.5h-.1l-1.5.5c-.2.1-.3.3-.2.4l1.7 5.1c0 .1.2.2.3.2h.1l1.5-.5c.2-.1.3-.3.2-.4L79 19.7c0-.1-.2-.2-.3-.2"/><path id="XMLID_107_" class="st12" d="M56.6 108.2H53c-.5 1.8-1.9 3.2-3.7 3.8h8.6l-1.3-3.8"/><path id="XMLID_108_" class="st13" d="M47.6 112.3H16c-3.1 0-5.6-2.5-5.6-5.6V33.5c0-3.1 2.5-5.6 5.6-5.6h31.6c3.1 0 5.6 2.5 5.6 5.6v73.2c0 3.1-2.5 5.6-5.6 5.6"/><circle id="XMLID_109_" class="st2" cx="31.7" cy="106.5" r="2.6"/><path id="XMLID_110_" class="st10" d="M17 44.9v4.7V44.9z"/><path id="XMLID_111_" class="st10" d="M17 51.2V56v-4.8z"/><circle id="XMLID_113_" class="st2" cx="26.9" cy="33.8" r=".6"/><path id="XMLID_114_" class="st14" d="M50.5 101.4H13.4c-.2 0-.4-.2-.4-.4V38.6c0-.2.2-.4.4-.4h37.1c.2 0 .3.2.3.4v62.5c0 .2-.1.3-.3.3"/><path id="XMLID_150_" class="st15" d="M50.5 101.1H13.4c-.2 0-.4-.2-.4-.4V38.2c0-.2.2-.4.4-.4h37.1c.2 0 .4.2.4.4v62.5c-.1.2-.2.4-.4.4"/><g id="XMLID_183_"><defs><path id="XMLID_182_" d="M50.7 101.1H13.4c-.2 0-.4-.2-.4-.4l.2-62.5c0-.2.2-.4.4-.4h37.1c.2 0 .2.2.2.4v62.5c-.1.2 0 .4-.2.4"/></defs><clipPath id="XMLID_8_"><use xlink:href="#XMLID_182_" overflow="visible"/></clipPath><path id="XMLID_184_" class="st16" d="M55.9 97.5c0 13.1-10.6 23.7-23.7 23.7S8.5 110.6 8.5 97.5 19 73.8 32.1 73.8c13.2 0 23.8 10.6 23.8 23.7"/><g id="XMLID_187_" class="st17"><defs><path id="XMLID_186_" d="M55.9 97.5c0 13.1-10.6 23.7-23.7 23.7S8.5 110.6 8.5 97.5 19 73.8 32.1 73.8c13.2 0 23.8 10.6 23.8 23.7"/></defs><clipPath id="XMLID_9_"><use xlink:href="#XMLID_186_" overflow="visible"/></clipPath><path id="XMLID_188_" class="st18" d="M44.9 74.2s-.9 1.2-1.8 3-1.8 4.4-1.8 7.2c0 2.4.7 5 2.5 7.4 1.8 2.5 4.8 4.7 9.3 6.6l.7-1.7c-4.3-1.8-7-3.9-8.5-6.1-1.6-2.1-2.1-4.3-2.1-6.4 0-2.4.8-4.7 1.6-6.4.4-.8.8-1.5 1.1-2 .2-.2.3-.4.4-.5l.1-.1-1.5-1"/><path id="XMLID_189_" class="st18" d="M12 102.8l30.6-15.4-.8-1.6-30.6 15.4"/><path id="XMLID_190_" class="st18" d="M16.2 77.4l14.2 27.9 1.6-.8-14.2-27.9"/><path id="XMLID_191_" class="st18" d="M33.5 90.5l.7 15.3 1.8-.1-.7-15.2"/></g></g><g id="XMLID_192_"><defs><path id="XMLID_185_" d="M50.5 101.1H13.4c-.2 0-.4-.2-.4-.4V38.2c0-.2.2-.4.4-.4h37.1c.2 0 .4.2.4.4v62.5c-.1.2-.2.4-.4.4"/></defs><clipPath id="XMLID_10_"><use xlink:href="#XMLID_185_" overflow="visible"/></clipPath><g id="XMLID_195_" class="st19"><defs><path id="XMLID_194_" d="M55.6 97.5c0 13.1-10.6 23.7-23.7 23.7S8.2 110.6 8.2 97.5s10.6-23.7 23.7-23.7 23.7 10.6 23.7 23.7"/></defs><clipPath id="XMLID_11_"><use xlink:href="#XMLID_194_" overflow="visible"/></clipPath><path id="XMLID_196_" class="st20" d="M15.8 79.5L22.5 93c.2.3 0 .7-.3.9L10.4 100c-.4.2-.9-.1-1-.5l-2-17.4c0-.3.2-.6.5-.7l7.2-2.2c.2-.1.6 0 .7.3"/><path id="XMLID_197_" class="st20" d="M46.4 76.4S38.8 88.1 52.3 95c13.5 6.9 6.7-13.2 6.7-13.2l-12.6-5.4"/></g></g><path id="XMLID_152_" class="st21" d="M16.6 86.1c.1-.1.2-.1.3 0l1 2.6 1 2.7c0 .1 0 .2-.1.2h-4c-.1 0-.2-.1-.1-.2l1-2.7.9-2.6"/><path id="XMLID_193_" class="st22" d="M16.8 92.2c-.1 0-.2-.1-.2-.2v-.4h.4v.4c-.1.1-.1.2-.2.2"/><path id="XMLID_198_" class="st23" d="M17.9 92h-1c0 .1-.1.2-.2.2s-.2-.1-.2-.2h-1c-.1 0-.3.1-.3.3s.1.3.3.3h2.3c.1 0 .3-.1.3-.3s-.1-.3-.2-.3"/><path id="XMLID_199_" class="st22" d="M16.9 92h-.4c0 .1.1.2.2.2.2 0 .2-.1.2-.2"/><path id="XMLID_200_" class="st24" d="M23.1 80.9c-.2 0-.4.2-.4.3 0 .2.3.3.6.3h3s.1-.1.2-.1v-.2h-3.1c-.1 0-.2-.1-.2-.2-.1 0-.1-.1-.1-.1"/><path id="XMLID_201_" class="st25" d="M28.9 81.3h-5.5c-.1 0-.2-.1-.2-.2.1-1.6 1.4-2.8 3-2.8s2.9 1.2 3 2.7c0 .1-.1.3-.3.3"/><path id="XMLID_204_" class="st26" d="M25.6 78.6h-.2c-.2 0-.5.1-.7.3-.2.2-.5.4-.6.5-.1.2-.1.4-.1.4s.4-.4.9-.6c.2-.2.5-.3.6-.4.2-.1.3-.1.3-.1h-.1c0-.1 0-.1-.1-.1"/><path id="XMLID_205_" class="st24" d="M44.7 97.8v.1c0 .1-.1.2-.2.2H40c-.1 0-.3-.1-.2-.3-.2 0-.3.1-.3.3 0 .1.2.3.5.3h4.6c.3 0 .5-.1.5-.3-.1-.2-.2-.3-.4-.3"/><path id="XMLID_206_" class="st25" d="M40.1 98.1h4.5c.1 0 .2-.1.2-.2-.1-1.3-1.2-2.3-2.5-2.3s-2.3 1-2.5 2.2c0 .2.1.3.3.3"/><path id="XMLID_209_" class="st26" d="M42.7 95.9s-.1 0 0 0h-.1l.8.4c.4.2.7.5.7.5s0-.1-.1-.3c-.1-.1-.3-.3-.5-.4-.3 0-.5-.1-.7-.1 0-.1-.1-.1-.1-.1"/><path id="XMLID_210_" class="st24" d="M30.1 81.5c0 .1-.1.2-.2.2h-3.3l-.1-.1h-.2c-.1 0-.1.1-.1.1 0 .1.2.2.3.2H30c.2 0 .3-.1.3-.2s-.1-.2-.2-.2"/><path id="XMLID_211_" class="st27" d="M26.4 81.5c-.1 0-.1 0-.2.1l.2-.1"/><path id="XMLID_212_" class="st28" d="M29.9 81.7h-3.3l-.1-.1c.1-.9.9-1.7 1.8-1.7s1.7.7 1.8 1.6c0 .1-.1.2-.2.2"/><path id="XMLID_215_" class="st29" d="M27.9 80.1h-.1c-.1 0-.3.1-.5.2-.1.1-.3.2-.3.3-.1.1-.1.2-.1.2s.1-.1.2-.1c.1-.1.2-.2.4-.3.3-.2.6-.3.6-.3h-.2c.1 0 .1 0 0 0"/><path id="XMLID_216_" class="st21" d="M47.6 77.5c.1-.1.2-.1.3 0l1 2.6 1 2.7c0 .1 0 .2-.1.2h-4c-.1 0-.2-.1-.1-.2l1-2.7.9-2.6"/><path id="XMLID_217_" class="st22" d="M47.7 83.6c-.1 0-.2-.1-.2-.2V83h.4v.4c0 .1-.1.2-.2.2"/><path id="XMLID_218_" class="st23" d="M48.9 83.4h-1c0 .1-.1.2-.2.2s-.2-.1-.2-.2h-1c-.1 0-.3.1-.3.3s.1.3.3.3h2.3c.1 0 .3-.1.3-.3s-.1-.3-.2-.3"/><path id="XMLID_219_" class="st22" d="M47.9 83.4h-.4c0 .1.1.2.2.2s.2-.1.2-.2"/><path id="XMLID_220_" class="st9" d="M31.7 75.3c-1.5 0-2.8.6-2.8 1.3 0 .7 1.2 1.3 2.8 1.3 1.5 0 2.8-.6 2.8-1.3-.1-.7-1.3-1.3-2.8-1.3"/><path id="XMLID_221_" class="st10" d="M38.4 65.1c0 3.2-4.9 9.6-6.3 11.3-.2.2-.6.2-.8 0-1.4-1.8-6.3-8.2-6.3-11.3 0-3.7 3-6.7 6.7-6.7s6.7 3.1 6.7 6.7z"/><circle id="XMLID_222_" class="st11" cx="31.7" cy="64.1" r="2.4"/><path id="XMLID_223_" class="st9" d="M73 63.7h-.2l-8.1 4.5c-.2.1-.2.3-.1.5L75 87.5c.1.1.2.2.3.2.2 0 .4-.2.4-.4L73.3 64c0-.2-.2-.3-.3-.3"/><path id="XMLID_224_" class="st2" d="M36.7 34.6h-6.6c-.5 0-.9-.4-.9-.9s.4-.9.9-.9h6.6c.5 0 .9.4.9.9s-.4.9-.9.9z"/><path id="XMLID_225_" class="st30" d="M61.1 88.7c-1.5-.7-1.6-1.5-2-4.9-.1-1-.2-1.3-1.3-1.5-2.4-.4-5.1-.5-7.7 0-1.1.2-1.2.5-1.3 1.5-.3 3.4-.4 4.2-2 4.9h14.3z"/><path id="XMLID_226_" class="st30" d="M61.1 107.6c-1.5.7-1.6 1.5-2 4.9-.1 1-.2 1.3-1.3 1.5-2.4.4-5.1.5-7.7 0-1.1-.2-1.2-.5-1.3-1.5-.3-3.4-.4-4.2-2-4.9h14.3z"/><path id="XMLID_227_" class="st31" d="M63.4 94.5c0-1.3 0-1.7-.4-1.7h-.2c-.1 0-.3.1-.3.2l-.2.4c-.3.2-.3.4-.3.5v1.2c0 .2.1.3.1.4l.2.5c.1.1.2.2.4.2h.2c.5 0 .5-.4.5-1.7z"/><path id="XMLID_228_" class="st31" d="M62.7 92.8c-.1 0-.3.1-.3.2l-.2.4c-.2.2-.2.4-.2.5v.6h1.4c0-1.2 0-1.7-.5-1.7h-.2z"/><path id="XMLID_229_" class="st31" d="M62.7 98.7l-.2.1-.1.4c0 .1-.1.3-.1.4v3.3c0 .2 0 .3.1.4l.1.4.2.1.1-.2v-4.7l-.1-.2z"/><path id="XMLID_230_" class="st31" d="M62.7 98.7l-.2.1-.1.4c0 .1-.1.3-.1.4v1.6h.4v-2.5z"/><path id="XMLID_231_" class="st32" d="M59.6 108.2H48.4c-1.6 0-2.9-1.3-2.9-2.9V91.4c0-1.6 1.3-2.9 2.9-2.9h11.2c1.6 0 2.9 1.3 2.9 2.9v13.9c0 1.6-1.3 2.9-2.9 2.9"/><g id="XMLID_234_"><defs><path id="XMLID_233_" d="M59.2 107.2H48.8c-1.3 0-2.3-1-2.3-2.3V91.8c0-1.3 1-2.3 2.3-2.3h10.4c1.3 0 2.3 1 2.3 2.3V105c0 1.2-1.1 2.2-2.3 2.2"/></defs><clipPath id="XMLID_12_"><use xlink:href="#XMLID_233_" overflow="visible"/></clipPath><g id="XMLID_237_" class="st33"><defs><path id="XMLID_236_" d="M71.3 115.5H45.7V82.4h25.6v33.1"/></defs><clipPath id="XMLID_13_"><use xlink:href="#XMLID_236_" overflow="visible"/></clipPath><path id="XMLID_238_" class="st34" d="M71.3 115.5H45.7V82.4h25.6v33.1"/><path id="XMLID_239_" class="st35" d="M44.5 107.2l20.4-10.7-.5-1L44 106.2l.5 1"/><path id="XMLID_240_" class="st35" d="M43.7 85.4l17.7 33.8 1-.5-17.7-33.9-1 .6"/><path id="XMLID_241_" class="st35" d="M58.4 99.3l1.7 17.3 1.1-.2-1.6-17.2-1.2.1"/><path id="XMLID_242_" class="st35" d="M84.5 89.7h-.6c0 2.9-1.2 5.5-3 7.3-1.9 1.9-4.5 3-7.3 3-2.9 0-5.5-1.2-7.3-3-1.9-1.9-3-4.5-3-7.3 0-2.9 1.2-5.5 3-7.3 1.9-1.9 4.5-3 7.3-3 2.9 0 5.5 1.2 7.3 3 1.9 1.9 3 4.5 3 7.3h1.2c0-6.4-5.2-11.5-11.5-11.5-6.4 0-11.5 5.2-11.5 11.5 0 6.4 5.2 11.5 11.5 11.5 6.4 0 11.5-5.2 11.5-11.5h-.6z"/><path id="XMLID_243_" class="st36" d="M44.4 88.4l20.4-6.7-.3-1.1-20.4 6.7"/><path id="XMLID_244_" class="st37" d="M44.5 108l7.8-4.1.3.1 6.9 13.6-13.8 1.6z"/><path id="XMLID_245_" class="st38" d="M49.4 106.6h.1l.4 1 .4 1-.1.1h-1.5l-.1-.1.4-1z"/><path id="XMLID_246_" class="st39" d="M49.4 109v-.3h.1v.2z"/><path id="XMLID_247_" class="st38" d="M52.6 110.3h.1l.4 1 .4 1.1h-1.7l.4-1.1z"/><path id="XMLID_248_" class="st39" d="M52.7 112.7l-.1-.1v-.2h.1v.2z"/><path id="XMLID_249_" class="st38" d="M48.5 110.8h.1l.4 1 .4 1.1v.1h-1.6v-.1l.4-1.1z"/><path id="XMLID_250_" class="st39" d="M48.6 113.2h-.1v-.2h.2v.2z"/><path id="XMLID_251_" class="st35" d="M60 108h17v-1H60"/><path id="XMLID_252_" class="st35" d="M59.5 99.1L57 83.7l-1.1.2 2.5 15.4 1.1-.2"/></g><path id="XMLID_235_" class="st40" d="M71.3 115.5v-.2H45.9V82.6h25.2v32.9h.2v-.2.2h.2V82.2h-26v33.5h26v-.2z"/><path id="XMLID_253_" class="st41" d="M57 94.7s-.1 0 0 0L52.3 97l-.1.2 1.3 2.5.2.1 3.9-1.9.1-.2-.5-2.9c-.1 0-.2-.1-.2-.1"/><path id="XMLID_254_" class="st41" d="M52.4 95.2l-.8.4-.1.2.3.6h.2l.8-.4.1-.2-.3-.6h-.2"/><path id="XMLID_255_" class="st41" d="M52.7 93.2l-1.9 1v.2l.5 1h.1l1.9-.9.1-.2-.5-1-.2-.1"/><path id="XMLID_256_" class="st41" d="M52 91.8l-1.9 1-.1.2.5.9.2.1 1.9-1 .1-.1-.5-1-.2-.1"/><path id="XMLID_257_" class="st41" d="M51.3 90.8l-1.9.9v.2l.3.6h.1l1.9-.9.1-.2-.3-.6h-.2"/><path id="XMLID_258_" class="st41" d="M50.8 89.5h-.3l-1.8.9v.2l.5.9.2.1 1.8-1 .1-.1-.5-1"/><path id="XMLID_259_" class="st41" d="M56.2 89.5h-1.3l.1.4.1.1 1-.2.1-.1v-.2"/><path id="XMLID_260_" class="st41" d="M56.1 90.1l-2 .3-.1.2.1 1.1.2.1 2.1-.4.1-.1-.2-1.1-.2-.1"/><path id="XMLID_261_" class="st41" d="M56.4 91.7l-2.1.3-.1.2.2 1.1.2.1 2-.4.2-.1-.2-1.1-.2-.1"/><path id="XMLID_262_" class="st41" d="M56.8 93.3l-2.1.4-.1.1.1.6.2.1 2.1-.3.1-.2-.1-.6-.2-.1"/><path id="XMLID_263_" class="st41" d="M50.3 99.6l-2.7 1.3v.2l.6 1.3.2.1 2.7-1.3.1-.2-.7-1.3-.2-.1"/><path id="XMLID_264_" class="st41" d="M58 100.7l-3.3 1.8-.1.2 2.5 4.6h1.5l-.6-6.4c.1-.2.1-.2 0-.2"/></g></g></svg>