<svg id="Layer_1" xmlns="http://www.w3.org/2000/svg" xmlns:xlink="http://www.w3.org/1999/xlink" viewBox="0 0 120 120"><style>.st0{fill:#495D77;} .st1{fill:#39B1CF;} .st2{fill:#F0F0F0;} .st3{fill:#CACACA;} .st4{fill:#2898B2;} .st5{fill:#FFFFFF;} .st6{fill:#5B738C;} .st7{fill:none;} .st8{fill:#122938;} .st9{fill:#39ADCC;} .st10{clip-path:url(#XMLID_30_);fill:#36A3C0;} .st11{clip-path:url(#XMLID_30_);fill:#39ADCC;} .st12{clip-path:url(#XMLID_31_);fill:#35A1BE;} .st13{clip-path:url(#XMLID_31_);fill:#3297B2;} .st14{clip-path:url(#XMLID_31_);fill:#F2F2F2;} .st15{fill:#EBEDEE;} .st16{fill:#39A3C0;} .st17{fill:#3699B4;} .st18{fill:#DFE1E3;} .st19{fill:#3297B2;} .st20{fill:#2F8CA6;} .st21{fill:#3195B0;} .st22{fill:#DBDEDF;} .st23{fill:#35A0BD;}</style><path id="XMLID_32_" class="st0" d="M79.09 43.613l-34.3 37.202-2.426-2.238 34.3-37.2z"/><path id="XMLID_29_" class="st0" d="M85.1 51.2l16.5-17.9c2.1-2.2 1.9-5.7-.3-7.8l-8.5-7.9c-2.2-2.1-5.7-1.9-7.8.3l-16.5 18c-2.1 2.2-1.9 5.7.3 7.8l8.5 7.9c2.3 2 5.7 1.8 7.8-.4z"/><path id="XMLID_28_" class="st0" d="M37.6 105.1l16.3-17.6c2-2.2 1.9-5.6-.3-7.7L45.2 72c-2.2-2-5.6-1.9-7.7.3L21.2 90c-2 2.2-1.9 5.6.3 7.7l8.4 7.8c2.2 2 5.7 1.8 7.7-.4z"/><g id="XMLID_19_"><circle id="XMLID_27_" class="st0" cx="77.1" cy="76.4" r="9"/><path id="XMLID_26_" class="st0" d="M35.7 36.915l-1.083 1.176-6.03-5.557 1.086-1.176z"/><path id="XMLID_25_" class="st0" d="M56.633 51.874l-5.558 6.028-6.397-5.897 5.56-6.03z"/><path id="XMLID_24_" class="st1" d="M69.9 87l17-18.5c.6-.6.5-1.6-.1-2.2l-24-22.2c-.6-.6-1.6-.5-2.2.1l-17 18.5c-.6.6-.5 1.6.1 2.2l24.1 22.2c.5.6 1.5.5 2.1-.1z"/><g id="XMLID_21_"><path id="XMLID_23_" class="st2" d="M50.2 51.5c-7.5 8.1-19.7 9.3-28.6 3.2l29.4-32c6.8 8.3 6.7 20.6-.8 28.8z"/><path id="XMLID_22_" class="st3" d="M19 52.6l29.7-32.2.1.1c.8.7 1.5 1.5 2.1 2.3L21.6 54.7c-.8-.6-1.6-1.2-2.4-1.9-.1-.1-.1-.2-.2-.2z"/></g><circle id="XMLID_20_" class="st3" cx="27" cy="30.1" r="4.6"/></g><path id="XMLID_18_" class="st4" d="M55.7 59l8.1-8.8c.5-.5.5-1.4-.1-1.9-.5-.5-1.4-.5-1.9.1l-8.1 8.8c-.5.5-.5 1.4.1 1.9s1.4.5 1.9-.1z"/><circle id="XMLID_17_" class="st5" cx="83.2" cy="67.8" r="1.1"/><circle id="XMLID_16_" class="st5" cx="80.8" cy="70.7" r="1.1"/><circle id="XMLID_15_" class="st5" cx="78.4" cy="73.7" r="1.1"/><path id="XMLID_14_" class="st6" d="M25.11 92.084l3.944-4.25 4.25 3.945-3.944 4.25z"/><path id="XMLID_13_" class="st6" d="M29.978 86.667l3.946-4.25 4.25 3.945-3.945 4.25z"/><path id="XMLID_12_" class="st6" d="M34.92 81.318l3.946-4.25 4.25 3.945-3.944 4.25z"/><path id="XMLID_11_" class="st6" d="M30.71 97.436l3.946-4.25 4.25 3.945-3.945 4.253z"/><path id="XMLID_10_" class="st6" d="M35.58 92.02l3.946-4.252 4.25 3.946-3.945 4.25z"/><path id="XMLID_9_" class="st6" d="M40.38 86.676l3.947-4.25 4.25 3.945-3.945 4.25z"/><path id="XMLID_8_" class="st6" d="M72.626 37.632l3.946-4.25 4.25 3.945-3.945 4.25z"/><path id="XMLID_7_" class="st6" d="M77.495 32.215l3.946-4.25 4.253 3.945-3.946 4.25z"/><path id="XMLID_6_" class="st6" d="M82.297 26.87l3.945-4.25 4.25 3.946-3.945 4.25z"/><path id="XMLID_5_" class="st6" d="M78.087 42.99l3.945-4.252 4.25 3.946-3.944 4.25z"/><path id="XMLID_4_" class="st6" d="M83.03 37.64l3.945-4.25 4.25 3.945-3.945 4.25z"/><path id="XMLID_3_" class="st6" d="M87.9 32.223l3.944-4.25 4.25 3.945-3.944 4.25z"/><path id="XMLID_4940_" class="st7" d="M-113.3 917.4c.9 0 1.7.8 1.7 1.7 0 5.3 5 5.5 5.5 5.5.9 0 1.7.8 1.7 1.7 0 .9-.7 1.7-1.7 1.7-.6 0-5.5.2-5.5 5.5 0 .9-.8 1.7-1.7 1.7s-1.7-.8-1.7-1.7c0-2.3-.8-3.8-2.6-4.7-1.4-.7-2.9-.8-3-.8-.9 0-1.7-.8-1.7-1.7s.8-1.7 1.7-1.7c.9 0 5.5-.3 5.5-5.5.1-.9.9-1.7 1.8-1.7z"/><g id="XMLID_1_"><path id="XMLID_38_" class="st8" d="M660.5 578.4c1.2 0 1.2-1.8 0-1.8s-1.2 1.8 0 1.8"/><path id="XMLID_43_" class="st9" d="M670.1 596.2c-2.5 20.2-21 34.6-41.2 32.1s-34.6-21-32.1-41.2c2.5-20.2 21-34.6 41.2-32.1 20.3 2.6 34.7 21 32.1 41.2"/><g id="XMLID_51_"><defs><path id="XMLID_45_" d="M670.1 596.2c-2.5 20.2-21 34.6-41.2 32.1s-34.6-21-32.1-41.2c2.5-20.2 21-34.6 41.2-32.1 20.3 2.6 34.7 21 32.1 41.2"/></defs><clipPath id="XMLID_30_"><use xlink:href="#XMLID_45_" overflow="visible"/></clipPath><path id="XMLID_53_" class="st10" d="M633.5 554.8c-3.7 0-7.2.5-10.6 1.6 1 1.6 3.4 3.8 9.1 4.1 1.3.1 2.3.1 3.1.1 1.7 0 2.7-.1 3.6-.2.9-.1 1.6-.2 2.6-.2 1.2 0 2.9.2 5.8.7.5.1.9.1 1.4.1 1.5 0 2.5-.5 3.3-1.3-4.1-2.3-8.7-3.9-13.7-4.5-1.6-.4-3.1-.4-4.6-.4"/><path id="XMLID_60_" class="st11" d="M665.8 568.6s-6.3-3.8-10.7-2.1c-4.3 1.7-1.3 4.7-1.3 4.7s1.6 1.7 0 2.3c-1.5.6-2.5-1.2-2.5-1.2s-3.2-3.2-5-2.1-.4 2.9-.4 2.9 2.7 2.9-1.3 4.6c-4 1.7-5.6 1.7-5.9 4.7-.3 3-.4 8.2 2.3 8.6 2.7.4 8.6-.3 9.7 5.4 1.1 5.7 3.1 3.6 2.5 10.1-.6 6.5-.3 6.6.7 6.8 1 .3 8-3.2 8.4-17.1.3-13.9 9.8-11 9.8-11l-6.3-16.6"/><path id="XMLID_73_" class="st10" d="M596.9 587.1c-.2 1.3-.3 2.6-.3 3.9l.1.2s.2-.1.5-.2h-.6v-.5c.1-1.2.2-2.3.3-3.4m19.7-27.7h-.2c.5 1.3 1.2 4.2-.1 7.9-1.8 5.1-5.6 7.2-5.6 7.2s-3.8 3.1-3.4 7c.1 1.3-1 2.7-2.6 4 .2.2.3.4.5.7 1.6-1.3 2.7-2.7 2.6-4-.4-3.9 3.4-7 3.4-7s3.8-2.1 5.6-7.2-.2-8.6-.2-8.6"/><path id="XMLID_74_" class="st11" d="M618.6 626.6s2.3-4.6 10.7-3.2c8.4 1.4 13.7 0 16.5 5.2 2.8 5.2-19.2 4.2-19.2 4.2l-8-6.2"/></g><g id="XMLID_76_"><defs><path id="XMLID_75_" d="M670.1 596.2c-2.5 20.2-20.7 34.4-40.9 32.1-20.4-2.3-34.9-21-32.3-41.2 2.5-20.2 21-34.6 41.2-32.1 20.2 2.6 34.6 21 32 41.2"/></defs><clipPath id="XMLID_31_"><use xlink:href="#XMLID_75_" overflow="visible"/></clipPath><path id="XMLID_77_" class="st12" d="M653.1 570.1c.2 1 1 1.7 1 1.7s.3.3.5.7c-.1-.6-.7-1.3-.7-1.3s-.5-.4-.8-1.1"/><path id="XMLID_78_" class="st12" d="M655.3 567.1c-2.1.9-2.4 2-2.2 3 .3.7.8 1.1.8 1.1s.6.7.7 1.3c.2.4.4.9.1 1.3.1 0 .3-.1.4-.1 1.5-.6 0-2.3 0-2.3s-2.6-2.5.2-4.3"/><path id="XMLID_79_" class="st12" d="M645.7 572.6c.1.6.5 1.1.5 1.1s.4.4.6.9c-.2-.9-.8-1.6-.8-1.6s-.1-.1-.3-.4"/><path id="XMLID_80_" class="st12" d="M647.2 570.6c-.2 0-.4.1-.6.2-.9.6-1 1.2-.9 1.8.1.3.3.5.3.5s.6.7.8 1.6c.4.9.6 2.2-1.1 3.2h.1c4-1.7 1.3-4.6 1.3-4.6s-1.2-1.5.1-2.7"/><path id="XMLID_85_" class="st12" d="M653.3 613c.1.8.4.9.9 1h.1c.3 0 .8-.2 1.5-.6-.2.1-.4.1-.6.1h-.1c-.2-.1-.4-.1-.6-.2-.2.1-.4.1-.5.1h-.1c-.2-.1-.5-.1-.6-.4m-1.8-14.2c.6 1.8 1.2 2.4 1.7 3.4-.4-1.2-1.1-1.7-1.7-3.4m-4-6.7l-.2.4c1.4.5 2.6 1.5 3.3 3.1-.6-1.8-1.7-2.8-3.1-3.5m-8.3-2.7c.4 1.2 1 2.1 2.1 2.3 1.5.2 4 .1 6.1.9l.2-.4c-.8-.4-1.7-.6-2.6-.7-1-.1-2-.1-2.7-.2h-.2c-.3 0-.7-.1-.9-.1-1-.3-1.6-.9-2-1.8"/><path id="XMLID_90_" class="st12" d="M654.4 602.7l-.9.9c.1.8.1 1.9 0 3.5-.3 3.4-.4 5-.2 5.9.2.2.4.3.7.4h.1c.1 0 .3 0 .5-.1-.5-.4-.6-1.6-.1-6.6.1-1.9.1-3.1-.1-4m-6.8-10.8l-.1.3c1.4.6 2.5 1.7 3.1 3.6.2.4.3.9.4 1.3.1.7.3 1.3.5 1.8.6 1.6 1.3 2.2 1.7 3.4.2-.3.5-.5.7-.8-.6-1-1.4-1.9-1.9-4.8-.6-3-2.4-4.2-4.4-4.8m-2.6-.5c.9.1 1.8.4 2.6.7l.1-.3c-.9-.2-1.9-.3-2.7-.4m-3.4-11.8c-1.6.7-2.4 1.4-2.6 3.4-.2 1.8-.3 4.5.2 6.4.4.9 1 1.5 1.8 1.6.3 0 .6.1.9.1-2.5-.6-2.4-5.7-2.1-8.6.3-1.5.8-2.3 1.8-2.9"/><path id="XMLID_91_" class="st12" d="M669.9 585.3c-.7.1-1.4.4-2.1.8.8-.3 1.5-.4 2.2-.5-.1 0-.1-.2-.1-.3"/><path id="XMLID_92_" class="st12" d="M603.2 587.8c-2.9 5.8 2.1 6.5 2.1 6.5s0-.2.1-.6c-.8-.2-4-1.2-2.2-5.9.1.1.1.1 0 0"/><path id="XMLID_93_" class="st12" d="M609.9 588.5c-.9 0-1.6.4-2.2 1l.1.1c.5-.4 1.1-.6 1.7-.6 1 0 2.2.5 3.6 1.7 1.5 1.3 2.7 1.8 3.7 1.8.8 0 1.4-.3 2-.6.6-.3 1.1-.6 1.6-.6.9 0 1.8.8 3.1 3.6 2.5 5.2 1.2 9.6-.1 12.1 1.4-2.4 3.1-7 .5-12.7-1.3-2.8-2.3-3.6-3.1-3.6-.5 0-1.1.3-1.6.6-.6.3-1.2.6-2 .6-1 0-2.1-.4-3.7-1.8-1.5-1.1-2.6-1.6-3.6-1.6"/><path id="XMLID_94_" class="st13" d="M596.8 590.3s-.1 0-.1.1c0 0 0-.1.1-.1"/><path id="XMLID_95_" class="st12" d="M622 609.3l-.1.1s.3 3.1-.6 4.8c1-1.1 1-3.5 1-4.7-.1 0-.2-.1-.3-.2"/><path id="XMLID_96_" class="st14" d="M622.6 554s.6 5.3 9.8 5.9c9.2.6 5.9-1.3 15.1.3 9.3 1.6 6-12.9 6-12.9l-30.9 6.7z"/><path id="XMLID_97_" class="st14" d="M666.9 568.7s-6.3-3.8-10.7-2.1-1.3 4.7-1.3 4.7 1.6 1.7 0 2.3c-1.5.6-2.5-1.2-2.5-1.2s-3.2-3.2-5-2.1c-1.8 1.2-.4 2.9-.4 2.9s2.7 2.9-1.3 4.6c-4 1.7-5.6 1.7-5.9 4.7-.3 3-.4 8.2 2.3 8.6 2.7.4 8.6-.3 9.7 5.4s3.1 3.6 2.5 10.1c-.6 6.5-.3 6.6.7 6.8s8-3.2 8.4-17.1c.3-13.9 9.8-11 9.8-11l-6.3-16.6"/><path id="XMLID_98_" class="st14" d="M616.1 558.7s1.9 3.6.2 8.6c-1.8 5.1-5.6 7.2-5.6 7.2s-3.8 3.1-3.4 7c.2 1.6-1.6 3.4-3.8 4.9-3.2 2.3-7.3 4.1-7.3 4.1l-5.8-9.9 12.2-19.1 13.5-2.8"/><path id="XMLID_99_" class="st14" d="M618.8 627.2s2.3-4.6 10.7-3.2c8.4 1.4 13.7 0 16.5 5.2 2.8 5.2-19.2 4.2-19.2 4.2l-8-6.2"/><path id="XMLID_100_" class="st14" d="M615.3 610.7s1.5 4.8 4.4 4.7c2.9-.1 2.3-6 2.3-6s5.6-6.1 1.7-14.4c-2.1-4.5-3.2-3.8-4.8-3-1.3.6-2.9 1.3-5.7-1.2-6.1-5.4-7.7 3.5-7.7 3.5s-5.2-.7-2-6.7-7.5 3.4-7.5 3.4 5.5-1 8.1 7.2c2.6 8.1 7.1 6 11.2 12.5"/></g><path id="XMLID_44_" class="st15" d="M674.8 565.8l-1.7 4.2 1.7-4.2"/><path id="XMLID_101_" class="st16" d="M647.4 592.6l-.4.8.4-.8"/><path id="XMLID_102_" class="st17" d="M647.5 592.1l-.1.5.1-.5"/><path id="XMLID_103_" class="st17" d="M647.6 591.9l-.1.2.1-.2"/><path id="XMLID_104_" class="st18" d="M649.3 587.7l-1.7 4.2 1.7-4.2"/><path id="XMLID_105_" class="st16" d="M663.7 594.1l-.1.3.1-.3"/><path id="XMLID_106_" class="st18" d="M663.6 594.4l-.6 1.4.6-1.4"/><path id="XMLID_107_" class="st6" d="M599.5 577.3c-.1.3-.4.9-.6 1.5l.6-1.5"/><path id="XMLID_111_" class="st19" d="M604.8 585.5c-.2.1-.4.3-.6.4-.1.2-.1.4-.3.6.1.1.2.2.3.4.4-.3.7-.5 1-.8-.1-.2-.3-.4-.4-.6"/><path id="XMLID_112_" class="st20" d="M604.2 585.9c-.1.1-.2.1-.3.2 0 .1 0 .2-.1.3l.1.1c.2-.2.3-.4.3-.6"/><path id="XMLID_115_" class="st21" d="M623.4 607.1c-.2.4-.4.7-.6 1 .2-.2.4-.6.6-1 .1 0 0 0 0 0m-15.7-17.6c-.3.3-.5.6-.8 1 .2-.3.5-.6.9-.9 0 0-.1 0-.1-.1"/><path id="XMLID_119_" class="st22" d="M603.6 585.6h-.3c.2.3.4.5.6.8 0-.1.1-.2.1-.3 0-.3-.2-.5-.4-.5"/><path id="XMLID_121_" class="st8" d="M648.5 625.4l-1.3.5c.5-.2 1-.4 1.3-.5z"/><path id="XMLID_122_" class="st8" d="M647.2 625.9l-1.6.6c.5-.1 1.1-.4 1.6-.6z"/><path id="XMLID_123_" class="st0" d="M668.7 602.7c-.2.7-.3.9-.6 1.6 1.4 2.3 3 5.2 4.1 7.3 4.8 9.9 5.6 17.6 2.1 21.1-3.5 3.5-11.2 2.7-21.1-2.1-10.3-5-21.9-13.7-32.7-24.5-10.8-10.8-19.5-22.4-24.5-32.7-4.8-9.9-5.6-17.6-2.1-21.1 3.5-3.5 11.2-2.7 21.1 2.1 1.9.9 3.2 1.6 5.2 2.8.6-.2 1-.4 1.6-.6-13.2-8-23.8-10.2-28.8-5.2-8.1 8.1 3.6 32.5 26.7 55.6 18.1 18.1 37.1 29.2 48.3 29.2 3.1 0 5.6-.8 7.3-2.6 5.1-5.1 2.2-17.1-6.6-30.9"/><path id="XMLID_124_" class="st6" d="M669.5 583.4c0 .1 0 .1 0 0 0 .1 0 .1 0 0 0 .1 0 .1 0 0"/><path id="XMLID_127_" class="st23" d="M667.8 586.1c-.1 0-.1.1 0 0-1.4.9-2.7 2.3-3.5 4.9 1.2-1.6 2.4-3.3 3.5-4.9"/><path id="XMLID_128_" class="st23" d="M653.2 602.3c.1.4.2.9.2 1.5 0-.1.1-.1.1-.2 0-.5-.2-.9-.3-1.3"/><path id="XMLID_129_" class="st21" d="M653.2 602.2c-.1 0-.1 0 0 0"/><path id="XMLID_130_" class="st21" d="M653.9 601.4c-.2.3-.5.5-.7.8v.1c.2.4.3.8.4 1.3l.9-.9c-.2-.5-.4-.9-.6-1.3"/><path id="XMLID_131_" class="st21" d="M667.8 586.1s-.1 0-.1.1c0 0 0-.1.1-.1"/><path id="XMLID_133_" class="st6" d="M623.3 627.1c-.2.1-.4.2-.5.3.1.6 1.7.1 1.5.6.3-.2.5-.3.8-.5-.6 0-1.2-.2-1.8-.4"/><path id="XMLID_138_" class="st0" d="M634.9 618.9c-.4.3-.7.6-1.1.8.4.3.8.6 1.1.9.3-.3.7-.6 1.1-.8-.3-.3-.7-.6-1.1-.9"/><path id="XMLID_139_" class="st0" d="M675.3 551.4c-4-4-12-3.3-22.6 1.9-2.5 1.2-4 2-6.7 3.6.6.2.9.3 1.5.6 2.4-1.5 3.4-2 5.7-3.1 5.8-2.8 10.9-4.3 14.8-4.3 2.7 0 4.9.7 6.3 2.2 3.5 3.5 2.7 11.2-2.1 21.1-5 10.3-13.7 21.9-24.5 32.7-7 7-18.7 16.7-26.3 21.1.1.6 1.7.1 1.5.6 7.5-4.4 18.2-13.3 25.7-20.8 10.9-10.9 19.7-22.6 24.8-33 5.2-10.6 5.8-18.6 1.9-22.6z"/><path id="XMLID_140_" class="st0" d="M615 630.6c-9.9 4.8-17.6 5.6-21.1 2.1-3.5-3.5-2.7-11.2 2.1-21.1 1-2 2.1-4 3.3-6.1-.2-.6-.4-1.1-.6-1.6-8.1 13.3-10.7 24.6-5.7 29.6 1.7 1.7 4.2 2.6 7.3 2.6 5.9 0 14-3.1 22.9-8.7-.7 0-1.3-.2-1.7-.5-2.2 1.5-4.4 2.7-6.5 3.7z"/><path id="XMLID_146_" class="st0" d="M633.5 535l-1.1 1.1v3.2l-2.1-2.1H625v6.4h5.3l2.1-2.1v4.3h2.1v-4.3l2.1 2.1h5.3v-6.4h-5.3l-2.1 2.1v-3.2l-1-1.1zm-7.4 3.2h1.1v4.3h-1.1v-4.3zm2.1 0h1.1v4.3h-1.1v-4.3zm9.6 0h1.1v4.3h-1.1v-4.3zm2.1 0h1.1v4.3h-1.1v-4.3z"/></g></svg>