<?xml version="1.0" encoding="utf-8"?>
<!-- Generator: Adobe Illustrator 19.0.0, SVG Export Plug-In . SVG Version: 6.00 Build 0)  -->
<svg version="1.1" id="Layer_1" xmlns="http://www.w3.org/2000/svg" xmlns:xlink="http://www.w3.org/1999/xlink" x="0px" y="0px"
	 viewBox="0 0 192.1 192.1" style="enable-background:new 0 0 192.1 192.1;" xml:space="preserve">
<style type="text/css">
	.st0{clip-path:url(#XMLID_41_);fill:url(#XMLID_42_);}
	.st1{clip-path:url(#XMLID_41_);}
	.st2{clip-path:url(#XMLID_41_);fill:#45A2DD;}
	.st3{clip-path:url(#XMLID_41_);fill:#76D1C1;}
	.st4{clip-path:url(#XMLID_41_);fill:url(#XMLID_44_);}
	.st5{clip-path:url(#XMLID_41_);fill:#5DA2CD;}
	.st6{clip-path:url(#XMLID_41_);fill:#3D87BF;}
	.st7{clip-path:url(#XMLID_41_);fill:url(#XMLID_46_);}
	.st8{clip-path:url(#XMLID_47_);}
	.st9{fill:#444444;}
	.st10{fill:#FFFFFF;}
</style>
<g id="XMLID_62_">
	<g id="XMLID_789_">
		<defs>
			<path id="XMLID_787_" d="M192.1,96.1c0,53.1-43,96.1-96.1,96.1C43,192.1,0,149.1,0,96.1C0,43,43,0,96.1,0
				C149.1,0,192.1,43,192.1,96.1"/>
		</defs>
		<clipPath id="XMLID_41_">
			<use xlink:href="#XMLID_787_"  style="overflow:visible;"/>
		</clipPath>
		
			<linearGradient id="XMLID_42_" gradientUnits="userSpaceOnUse" x1="29.5124" y1="46.3161" x2="30.5124" y2="46.3161" gradientTransform="matrix(-130.0306 -227.5533 227.5533 -130.0306 -6541.5493 12946.667)">
			<stop  offset="0" style="stop-color:#3887BE"/>
			<stop  offset="1" style="stop-color:#56B881"/>
		</linearGradient>
		<path id="XMLID_792_" class="st0" d="M84.2,148l-33.7-33.1L83.6,84l30,30.3L84.2,148 M96.1,0C43,0,0,43,0,96.1
			c0,17.1,4.5,33.2,12.3,47.1L46.8,126l24.4,24.4L48,179.3c2.4,1.4,4.8,2.6,7.3,3.8h2.5c4.9,0,9.2,2.1,12.2,5.5
			c8.3,2.3,17,3.6,26,3.6l0,0c53.1,0,96.1-43,96.1-96.1C192.1,43,149.1,0,96.1,0"/>
		<g id="XMLID_795_" class="st1">
			<defs>
				<polyline id="XMLID_794_" points="67.6,98.9 50.5,114.8 84.2,148 100.5,129.3 83.6,84 				"/>
			</defs>
			<clipPath id="XMLID_43_">
				<use xlink:href="#XMLID_794_"  style="overflow:visible;"/>
			</clipPath>
			<g style="clip-path:url(#XMLID_43_);">
				
					<image style="overflow:visible;" width="135" height="136" id="XMLID_796_" xlink:href="8885A0E27094FDD4.jpg"  transform="matrix(0.48 0 0 -0.48 49.5813 148.6715)">
				</image>
			</g>
		</g>
		<polygon id="XMLID_793_" class="st2" points="45.1,84.2 45.1,94.6 50.5,114.8 90.9,104 90.9,93.5 		"/>
		
			<rect id="XMLID_797_" x="47.1" y="78.4" transform="matrix(-0.9659 0.2588 -0.2588 -0.9659 156.5947 157.1465)" class="st3" width="41.8" height="20.9"/>
		
			<linearGradient id="XMLID_44_" gradientUnits="userSpaceOnUse" x1="29.5124" y1="46.0356" x2="30.5124" y2="46.0356" gradientTransform="matrix(-130.0306 -227.5533 227.5533 -130.0306 -6541.5493 12946.667)">
			<stop  offset="0" style="stop-color:#3176A6"/>
			<stop  offset="1" style="stop-color:#4BA171"/>
		</linearGradient>
		<path id="XMLID_798_" class="st4" d="M57.9,183.1h-2.5c4.7,2.2,9.6,4.1,14.7,5.5C67.1,185.2,62.7,183.1,57.9,183.1"/>
		<path id="XMLID_799_" class="st5" d="M152.6-2.9c-0.2,32-6.2,87.6-41.5,130.4C90.9,152,79,173.9,72.3,192.1h30.1
			c6-13.3,15.5-28.9,30.3-46.9c41-49.9,48-111.5,48.1-147.6c-1.3-0.3-2.6-0.5-3.9-0.5H152.6z"/>
		<path id="XMLID_806_" class="st6" d="M163.1-2.5v6v0.2l-0.5,10.7v0.1l-0.3,3.7l7,0.5l0.3-3.8v-0.1l0.5-11V3.7v-6.1L163.1-2.5
			L163.1-2.5z M159.9,38.8v0.1V39l-1.2,6.4v0.1l-1.3,6.5v0.1l-1.6,6.7l6.9,1.5l1.5-6.7v-0.1l1.4-6.9l1.2-6.6V40v-0.1v-0.2
			L159.9,38.8L159.9,38.8z M149.9,78.6l-0.3,1v0.1l-2.6,6.9l-0.1,0.2l-2.8,6.9l-0.1,0.1l-1.7,3.8l6.3,2.9l1.9-3.9v-0.1l3-7.2v-0.1
			l2.7-7.1V82l0.4-1.2L149.9,78.6L149.9,78.6z M132.5,115.5l-3.5,5.4l-0.1,0.2l-4.6,6.4l-0.1,0.1l-3.6,4.7l5.4,4.2l3.7-4.7l0.1-0.1
			v-0.1l4.8-6.7h0.1v-0.1l3.6-5.6L132.5,115.5z M107.7,149l-2.9,4.1l-0.1,0.1l-3.9,6h-0.1l-3.6,5.8v0.1H97l-0.9,1.6l6,3.5l1-1.5H103
			l3.6-5.7V163l3.9-5.8l2.9-4.1L107.7,149L107.7,149z M86.2,185.5l-0.5,1.3v0.1l-2.1,4.8v0.1l-0.1,0.1l-0.1,0.2H91l1-2.5l0.1-0.1
			l0.5-1.1L86.2,185.5L86.2,185.5z"/>
		<g id="XMLID_809_" class="st1">
			<defs>
				<path id="XMLID_808_" d="M46.8,126l-25.4,32.3c8.5,15,11.8,12.4,26.7,21l23.2-28.9L46.8,126"/>
			</defs>
			<clipPath id="XMLID_45_">
				<use xlink:href="#XMLID_808_"  style="overflow:visible;"/>
			</clipPath>
			<g style="clip-path:url(#XMLID_45_);">
				
					<image style="overflow:visible;" width="125" height="114" id="XMLID_810_" xlink:href="8885A0E27094FDD5.jpg"  transform="matrix(0.48 0 0 -0.48 11.6614 179.8716)">
				</image>
			</g>
		</g>
		<polygon id="XMLID_807_" class="st2" points="5,133.6 5,146.8 21.5,159.6 47,126.4 47,113.1 		"/>
		
			<rect id="XMLID_811_" x="5.1" y="112.9" transform="matrix(-0.6088 0.7934 -0.7934 -0.6088 139.6613 177.7536)" class="st3" width="41.8" height="20.9"/>
		
			<linearGradient id="XMLID_46_" gradientUnits="userSpaceOnUse" x1="44.5468" y1="2.6062" x2="45.5468" y2="2.6062" gradientTransform="matrix(41.7955 97.5229 -97.5229 41.7955 -1579.6915 -4484.9478)">
			<stop  offset="0" style="stop-color:#B3EFE4"/>
			<stop  offset="1" style="stop-color:#4BD9C0"/>
		</linearGradient>
		<path id="XMLID_812_" class="st7" d="M14.3-2.9C5.2-2.9-2,4.3-2,13.3v95.2c0,0,13.9-27.9,41.8-41.8c27.9-13.9,51.3-16.5,69.7-34.8
			C130.4,11,130.4-2.9,130.4-2.9H14.3z"/>
	</g>
</g>
<g id="XMLID_896_">
	<defs>
		<circle id="XMLID_895_" cx="96.1" cy="96.1" r="96.1"/>
	</defs>
	<clipPath id="XMLID_47_">
		<use xlink:href="#XMLID_895_"  style="overflow:visible;"/>
	</clipPath>
	<g id="XMLID_894_" class="st8">
		<path id="XMLID_813_" class="st9" d="M74.7,59.8c-3.9,0-7,3.1-7,7v55.7c0,3.9,3.1,7,7,7h104.5c13.9,0,13.9,13.9,13.9,13.9v-13.9
			V73.7c0,0,0-13.9-13.9-13.9H74.7z"/>
		<path id="XMLID_816_" class="st10" d="M113.4,73.7c-2.2,0-4.1,0.3-5.9,1c-1.7,0.7-3.2,1.5-4.2,2.6c-1.1,1.1-1.9,2.3-2.5,3.7
			c-0.6,1.3-0.9,2.8-0.9,4.2c0,1.3,0.3,2.6,0.8,3.8c0.5,1.2,1,2.3,1.7,3.2c0.7,0.9,1.7,1.7,2.7,2.5c1,0.8,2,1.4,2.9,2
			c1,0.5,2.1,1,3.2,1.4c4,1.6,6,3.5,6,5.9c0,1-0.4,1.8-1.2,2.5c-0.7,0.6-1.7,1-2.8,1c-0.6,0-1.3-0.1-2-0.2c-0.7-0.2-1.3-0.3-1.9-0.5
			c-0.6-0.2-1.1-0.5-1.6-0.8c-0.5-0.3-1.1-0.5-1.4-0.8c-0.4-0.2-0.7-0.5-1-0.7l-0.4-0.2c-0.2-0.2-0.5-0.3-1-0.2
			c-0.5,0-0.8,0.2-1,0.5l-2.7,4.8c-0.2,0.4-0.3,0.8-0.2,1c0.1,0.2,0.2,0.4,0.5,0.7c0.4,0.4,0.9,0.9,1.5,1.3c0.6,0.4,1.6,0.9,2.6,1.4
			c1.1,0.5,2.4,1,3.9,1.3c1.6,0.3,3.2,0.4,5,0.4c2.1,0,3.9-0.3,5.7-1c1.8-0.7,3.2-1.6,4.4-2.7c1.2-1.1,2.1-2.5,2.7-3.9
			c0.6-1.4,1-2.8,1-4.4s-0.3-2.9-0.9-4.2c-0.5-1.3-1.2-2.5-2-3.4c-0.8-0.9-1.8-1.7-2.9-2.5c-1.1-0.8-2.1-1.4-3-1.9
			c-0.9-0.4-1.8-0.9-2.9-1.3c-2.3-0.9-3.9-1.9-4.9-2.7c-1-0.9-1.4-1.8-1.4-2.9c0-0.8,0.3-1.5,1-2.1c0.7-0.6,1.6-0.9,2.6-0.9
			c0.7,0,1.4,0.1,2.2,0.3c0.8,0.2,1.5,0.5,2.2,0.9c0.7,0.3,1.3,0.6,1.9,0.9c0.5,0.3,1,0.7,1.4,1c0.5,0.3,0.7,0.4,0.8,0.4
			c0.3,0.2,0.6,0.2,1,0c0.4-0.2,0.8-0.4,1-0.8l2.9-4.5c0.2-0.2,0.3-0.4,0.2-0.9c0-0.5-0.2-0.8-0.5-1
			C121.9,75.1,117.7,73.7,113.4,73.7z M131.4,74.3c-0.3,0-0.6,0.1-0.8,0.3c-0.2,0.2-0.3,0.5-0.3,0.8v6.4c0,0.3,0.1,0.5,0.3,0.8
			c0.2,0.2,0.4,0.3,0.8,0.3h8.3v31c0,0.3,0.1,0.5,0.3,0.8s0.5,0.3,0.8,0.3h7c0.3,0,0.5-0.1,0.8-0.3c0.2-0.2,0.4-0.5,0.4-0.8v-31h8.3
			c0.3,0,0.6-0.1,0.8-0.3c0.2-0.2,0.3-0.5,0.3-0.8v-6.4c0-0.3-0.1-0.6-0.3-0.8c-0.2-0.2-0.4-0.3-0.8-0.3H131.4z"/>
	</g>
</g>
</svg>
