<?xml version="1.0" encoding="utf-8"?>
<!-- Generator: Adobe Illustrator 19.0.0, SVG Export Plug-In . SVG Version: 6.00 Build 0)  -->
<svg version="1.1" id="Layer_1" xmlns="http://www.w3.org/2000/svg" xmlns:xlink="http://www.w3.org/1999/xlink" x="0px" y="0px"
	 viewBox="0 0 136.1 136.1" style="enable-background:new 0 0 136.1 136.1;" xml:space="preserve">
<style type="text/css">
	.st0{clip-path:url(#XMLID_42_);fill:#FBFBFB;}
	.st1{clip-path:url(#XMLID_42_);}
	.st2{clip-path:url(#XMLID_121_);fill:#E5E5E5;}
	.st3{clip-path:url(#XMLID_121_);fill:#41BCE6;}
	.st4{clip-path:url(#XMLID_121_);fill:#FCFCFC;}
	.st5{clip-path:url(#XMLID_121_);fill:#56B881;}
	.st6{clip-path:url(#XMLID_121_);fill:#47A06B;}
	.st7{clip-path:url(#XMLID_121_);fill:#28353D;}
	.st8{clip-path:url(#XMLID_122_);fill:#CCCCCD;}
	.st9{clip-path:url(#XMLID_42_);fill:#CCCCCD;}
	.st10{clip-path:url(#XMLID_42_);fill:#51AB7A;}
	.st11{clip-path:url(#XMLID_123_);fill:#EAEAEA;}
	.st12{clip-path:url(#XMLID_123_);fill:#D2D2D2;}
	.st13{clip-path:url(#XMLID_123_);fill:#E7E7E7;}
	.st14{clip-path:url(#XMLID_123_);fill:#52AA78;}
	.st15{clip-path:url(#XMLID_123_);fill:#BCBCBD;}
	.st16{clip-path:url(#XMLID_123_);fill:#FCFCFC;}
	.st17{clip-path:url(#XMLID_123_);fill:#4E6E87;}
</style>
<g id="XMLID_40_">
	<g id="XMLID_44_">
		<defs>
			<path id="XMLID_43_" d="M136.1,68c0,37.6-30.5,68-68,68c-37.6,0-68-30.5-68-68S30.5,0,68,0C105.6,0,136.1,30.5,136.1,68"/>
		</defs>
		<clipPath id="XMLID_42_">
			<use xlink:href="#XMLID_43_"  style="overflow:visible;"/>
		</clipPath>
		<polyline id="XMLID_45_" class="st0" points="136.7,-32.7 136.7,143.5 0,143.5 0,-32.7 136.7,-32.7 		"/>
		<g id="XMLID_48_" class="st1">
			<defs>
				<polyline id="XMLID_47_" points="137.1,143.9 -3.1,143.9 -3.1,-32.3 137.1,-32.3 137.1,143.9 				"/>
			</defs>
			<clipPath id="XMLID_121_">
				<use xlink:href="#XMLID_47_"  style="overflow:visible;"/>
			</clipPath>
			<polyline id="XMLID_49_" class="st2" points="137.1,143.9 -7.5,143.9 -7.5,-32.3 137.1,-32.3 137.1,143.9 			"/>
			<circle id="XMLID_50_" class="st3" cx="150.7" cy="4.6" r="51.7"/>
			<polyline id="XMLID_51_" class="st4" points="-5.5,98.8 103.3,42 100.4,36.6 -8.3,93.4 			"/>
			<polyline id="XMLID_52_" class="st4" points="-9.6,-17.4 84.4,163.1 89.8,160.2 -4.2,-20.2 -9.6,-17.4 			"/>
			<polyline id="XMLID_53_" class="st4" points="68.6,56.8 77.5,148.7 83.6,148.1 74.7,56.2 68.6,56.8 			"/>
			<path id="XMLID_54_" class="st4" d="M207.6,5.5h-3.1c0,15.3-6.2,29-16.2,39c-10,10-23.8,16.2-39,16.2c-15.3,0-29-6.2-39-16.2
				c-10-10-16.2-23.8-16.2-39c0-15.3,6.2-29,16.2-39c10-10,23.8-16.2,39-16.2c15.3,0,29,6.2,39,16.2c10,10,16.2,23.8,16.2,39H207.6
				h3.1c0-33.9-27.5-61.4-61.4-61.4C115.5-55.8,88-28.3,88,5.5c0,33.9,27.5,61.4,61.4,61.4c33.9,0,61.4-27.5,61.4-61.4H207.6z"/>
			<path id="XMLID_55_" class="st5" d="M-5.6,103.8L36,82.1c0.5-0.2,1-0.1,1.3,0.4L73.9,155l-73.5,8.7L-5.6,103.8"/>
			<path id="XMLID_56_" class="st6" d="M29.8,91.3c0.1-0.3,0.5-0.3,0.6,0l2,5.3l2.2,5.7c0.1,0.2-0.1,0.4-0.3,0.4h-4.2h-4.2
				c-0.2,0-0.4-0.2-0.3-0.4l2.2-5.7L29.8,91.3"/>
			<path id="XMLID_57_" class="st7" d="M30.1,104c-0.2,0-0.4-0.2-0.4-0.4v-0.8h0.8v0.8C30.5,103.9,30.3,104,30.1,104"/>
			<path id="XMLID_58_" class="st6" d="M39.2,110.1c0.1-0.3,0.5-0.3,0.6,0l2,5.3l2.2,5.7c0.1,0.2-0.1,0.4-0.3,0.4h-4.2h-4.2
				c-0.2,0-0.4-0.2-0.3-0.4l2.2-5.7L39.2,110.1"/>
			<path id="XMLID_59_" class="st7" d="M39.5,122.8c-0.2,0-0.4-0.2-0.4-0.4v-0.8h0.8v0.8C39.9,122.6,39.7,122.8,39.5,122.8"/>
			<path id="XMLID_60_" class="st6" d="M15.7,119c0.1-0.3,0.5-0.3,0.6,0l2,5.3l2.2,5.7c0.1,0.2-0.1,0.4-0.3,0.4H16h-4.2
				c-0.2,0-0.4-0.2-0.3-0.4l2.2-5.7L15.7,119"/>
			<path id="XMLID_61_" class="st7" d="M16,131.8c-0.2,0-0.4-0.2-0.4-0.4v-0.8h0.8v0.8C16.4,131.6,16.2,131.8,16,131.8"/>
			<polyline id="XMLID_62_" class="st4" points="76.7,98.9 166.6,98.9 166.6,94.8 76.7,94.8 76.7,98.9 			"/>
			<polyline id="XMLID_63_" class="st4" points="23.4,36.4 -19,36.3 -19.1,42.3 23.4,42.4 23.4,36.4 			"/>
			<polyline id="XMLID_64_" class="st4" points="74.6,56 61.3,-26 55.3,-25 68.6,56.9 74.6,56 			"/>
		</g>
		<g id="XMLID_66_" class="st1">
			<defs>
				<path id="XMLID_65_" d="M60.6,33.1C60.6,33.1,60.6,33.1,60.6,33.1c-0.1,0-0.2,0-0.3,0.1l-24.8,12c-0.4,0.2-0.5,0.6-0.3,1
					l6.8,13.5c0.1,0.3,0.4,0.4,0.7,0.4c0.1,0,0.2,0,0.3-0.1l20.9-10.1c0.3-0.1,0.5-0.5,0.4-0.8l-2.9-15.3
					C61.3,33.4,61,33.1,60.6,33.1"/>
			</defs>
			<clipPath id="XMLID_122_">
				<use xlink:href="#XMLID_65_"  style="overflow:visible;"/>
			</clipPath>
			<rect id="XMLID_67_" x="35" y="33.1" class="st8" width="29.4" height="27"/>
		</g>
		<path id="XMLID_46_" class="st9" d="M36.8,35.5c-0.1,0-0.2,0-0.3,0.1L31.7,38c-0.3,0.2-0.5,0.6-0.3,1l1.5,2.9
			c0.1,0.2,0.4,0.4,0.6,0.4c0.1,0,0.2,0,0.3-0.1l4.8-2.4c0.3-0.2,0.5-0.6,0.3-1l-1.5-2.9C37.3,35.7,37.1,35.5,36.8,35.5"/>
		<path id="XMLID_68_" class="st9" d="M38.2,25.3c-0.1,0-0.2,0-0.3,0.1l-10,5.1c-0.3,0.2-0.5,0.6-0.3,1l2.6,5.2
			c0.1,0.2,0.4,0.4,0.6,0.4c0.1,0,0.2,0,0.3-0.1l10-5.1c0.3-0.2,0.5-0.6,0.3-1l-2.6-5.2C38.7,25.4,38.4,25.3,38.2,25.3"/>
		<path id="XMLID_69_" class="st9" d="M34.3,17.6c-0.1,0-0.2,0-0.3,0.1l-9.2,4.7V26l1.5,3c0.1,0.2,0.4,0.4,0.6,0.4
			c0.1,0,0.2,0,0.3-0.1l10-5.1c0.3-0.2,0.5-0.6,0.3-1L34.9,18C34.8,17.8,34.6,17.6,34.3,17.6"/>
		<path id="XMLID_70_" class="st9" d="M30.8,12.1c-0.1,0-0.2,0-0.3,0.1l-4.3,2.2c-0.5,0.4-0.9,0.7-1.4,1.1v4.9l7.8-4
			c0.3-0.2,0.5-0.6,0.3-1l-1.5-2.9C31.3,12.3,31.1,12.1,30.8,12.1"/>
		<path id="XMLID_71_" class="st9" d="M55.3,2.6l-0.1,0l-5.3,0.9c-0.4,0.1-0.6,0.4-0.6,0.8l0.6,3.3c0.1,0.3,0.4,0.6,0.7,0.6l0.1,0
			L56,7.2c0.4-0.1,0.6-0.4,0.6-0.8L56,3.1C55.9,2.8,55.6,2.6,55.3,2.6"/>
		<path id="XMLID_72_" class="st9" d="M56.3,8.5l-0.1,0l-11.1,1.9c-0.4,0.1-0.6,0.4-0.6,0.8l1,5.7c0.1,0.3,0.4,0.6,0.7,0.6l0.1,0
			l11.1-1.9c0.4-0.1,0.6-0.4,0.6-0.8l-1-5.7C57,8.7,56.7,8.5,56.3,8.5"/>
		<path id="XMLID_73_" class="st9" d="M57.8,16.9C57.8,16.9,57.8,16.9,57.8,16.9l-0.1,0l-11.1,1.9c-0.4,0.1-0.6,0.4-0.6,0.8l1,5.7
			c0.1,0.3,0.4,0.6,0.7,0.6l0.1,0L58.9,24c0.4-0.1,0.6-0.4,0.6-0.8l-1-5.7C58.4,17.1,58.1,16.9,57.8,16.9"/>
		<path id="XMLID_74_" class="st9" d="M59.9,25.7l-0.1,0l-11.1,1.9c-0.4,0.1-0.6,0.4-0.6,0.8l0.6,3.3c0.1,0.3,0.4,0.6,0.7,0.6l0.1,0
			l11.1-1.9c0.4-0.1,0.6-0.4,0.6-0.8l-0.6-3.3C60.6,25.9,60.3,25.7,59.9,25.7"/>
		<path id="XMLID_75_" class="st9" d="M134.4,83.1H132v8.1C133,88.5,133.8,85.8,134.4,83.1"/>
		<path id="XMLID_76_" class="st10" d="M15.7,106.1h-2c0,0.2-0.2,0.4-0.4,0.4c-0.2,0-0.4-0.2-0.4-0.4h-2c-0.3,0-0.5,0.2-0.5,0.5
			c0,0.3,0.2,0.5,0.5,0.5h4.8c0.3,0,0.5-0.2,0.5-0.5C16.3,106.4,16,106.1,15.7,106.1"/>
		<path id="XMLID_77_" class="st9" d="M66.1,64.9C66.1,64.9,66.1,64.9,66.1,64.9c-0.1,0-0.2,0-0.4,0.1l-17,9.3
			c-0.4,0.2-0.5,0.7-0.3,1L56.5,90V78.9c0-3.2,2.6-5.8,5.8-5.8h5.3l-0.7-7.6C66.8,65.2,66.5,64.9,66.1,64.9"/>
	</g>
	<g id="XMLID_79_">
		<defs>
			<path id="XMLID_78_" d="M136.5,67.9c0,37.7-30.6,68.2-68.2,68.2C30.6,136.1,0,105.6,0,67.9S30.6-0.3,68.2-0.3
				C105.9-0.3,136.5,30.2,136.5,67.9"/>
		</defs>
		<clipPath id="XMLID_123_">
			<use xlink:href="#XMLID_78_"  style="overflow:visible;"/>
		</clipPath>
		<path id="XMLID_80_" class="st11" d="M132,91.2c-0.1,0.3-0.3,0.7-0.4,1c-0.3,0.9-0.7,1.7-1,2.6c-0.6,1.4-1.3,2.8-2,4.2
			c-1,2-2.1,3.9-3.3,5.8c-1.9,3-4,5.8-6.4,8.4c-6.8,7.7-15.4,13.8-25,17.8c-2.8,1.2-5.8,2.1-8.8,2.9c-0.9,0.2-1.9,0.5-2.8,0.7
			c-2,0.4-4,0.8-6.1,1c-1.9,0.2-3.9,0.4-5.9,0.4c-0.7,0-1.5,0-2.3,0c-1.2,0-2.5,0-3.7-0.1c-2.6-0.1-5.2-0.4-7.8-0.9v0.1
			c3.8,0.7,7.7,1,11.7,1c29.1,0,54-18.2,63.8-43.9V91.2"/>
		<path id="XMLID_96_" class="st12" d="M56.5,109.7v11l7.8,15.3c1.2,0.1,2.5,0.1,3.7,0.1c0.8,0,1.5,0,2.3,0L56.5,109.7 M85.9,128.9
			c-0.6,0-1.1-0.4-1.2-1l-1.2-6.7c-0.1-0.8,0.4-1.5,1.2-1.5h11.8c0.7,0,1.2,0.6,1.2,1.2v6.7c0,0.7-0.6,1.2-1.2,1.2H85.9 M83.4,117.4
			c-0.3,0-0.5-0.2-0.6-0.5l-1.4-11.5c0-0.3,0.2-0.7,0.6-0.7h9.2c0.3,0,0.6,0.3,0.6,0.6v11.5c0,0.3-0.3,0.6-0.6,0.6H83.4 M93.7,117.4
			c-0.4,0-0.7-0.3-0.7-0.7v-11.2c0-0.4,0.3-0.7,0.7-0.7H97c0.4,0,0.7,0.3,0.7,0.7v11.2c0,0.4-0.3,0.7-0.7,0.7H93.7 M99.3,117.4
			c-0.4,0-0.7-0.3-0.7-0.7v-11.2c0-0.4,0.3-0.7,0.7-0.7h5.8c0.4,0,0.7,0.3,0.7,0.7v11.2c0,0.4-0.3,0.7-0.7,0.7H99.3 M107.5,117.4
			c-0.4,0-0.7-0.3-0.7-0.7v-11.2c0-0.4,0.3-0.7,0.7-0.7h3.3c0.4,0,0.7,0.3,0.7,0.7v11.2c0,0.4-0.3,0.7-0.7,0.7H107.5 M113.6,111.5
			c-0.4,0-0.7-0.3-0.7-0.7v-5.3c0-0.4,0.3-0.7,0.7-0.7h3.3c0.4,0,0.7,0.3,0.7,0.7v5.3c0,0.4-0.3,0.7-0.7,0.7H113.6 M128.6,98.9H78.8
			l3.4,35.6c0.9-0.2,1.9-0.4,2.8-0.7l-0.2-1.3c-0.1-0.8,0.5-1.6,1.4-1.6h7.6c9.7-4,18.2-10.1,25-17.8v-7.7c0-0.4,0.3-0.7,0.7-0.7
			h5.7C126.5,102.9,127.6,100.9,128.6,98.9 M70.1,73.1h-2.5l4,41.1c0,0.5-0.4,0.8-0.8,0.8c-0.2,0-0.5-0.1-0.6-0.4L56.5,90v6.4
			L76,133.7L70.1,73.1 M82.4,92.2c-0.3,0-0.5-0.2-0.6-0.5l-1.4-11.5c0-0.3,0.2-0.7,0.6-0.7h9.2c0.3,0,0.6,0.3,0.6,0.6v11.5
			c0,0.3-0.3,0.6-0.6,0.6H82.4 M92.7,92.2c-0.4,0-0.7-0.3-0.7-0.7V80.3c0-0.4,0.3-0.7,0.7-0.7H96c0.4,0,0.7,0.3,0.7,0.7v11.2
			c0,0.4-0.3,0.7-0.7,0.7H92.7 M98.3,92.2c-0.4,0-0.7-0.3-0.7-0.7V80.3c0-0.4,0.3-0.7,0.7-0.7h5.8c0.4,0,0.7,0.3,0.7,0.7v11.2
			c0,0.4-0.3,0.7-0.7,0.7H98.3 M106.9,92.2c-0.4,0-0.7-0.3-0.7-0.7V80.3c0-0.4,0.3-0.7,0.7-0.7h5.8c0.4,0,0.7,0.3,0.7,0.7v11.2
			c0,0.4-0.3,0.7-0.7,0.7H106.9 M115.8,92.2c-0.4,0-0.7-0.3-0.7-0.7V80.3c0-0.4,0.3-0.7,0.7-0.7h3.3c0.4,0,0.7,0.3,0.7,0.7v11.2
			c0,0.4-0.3,0.7-0.7,0.7H115.8 M132,73.1H76.3l2.1,21.6h52.2c0.4-0.8,0.7-1.7,1-2.6h-8.6c-0.7,0-1.2-0.6-1.2-1.2v-6.7
			c0-0.7,0.6-1.2,1.2-1.2h9V73.1"/>
		<path id="XMLID_97_" class="st13" d="M56.5,96.3v13.3L70.3,136c2-0.1,4-0.2,5.9-0.4l-0.2-1.9L56.5,96.3"/>
		<path id="XMLID_98_" class="st13" d="M76.3,73.1h-6.2l5.9,60.6l0.2,1.9c2.1-0.2,4.1-0.6,6.1-1l-3.4-35.6h-2.1v-4.2h1.7L76.3,73.1"
			/>
		<path id="XMLID_99_" class="st14" d="M56.5,120.6v14.5c2.5,0.4,5.1,0.7,7.8,0.9L56.5,120.6"/>
		<path id="XMLID_100_" class="st13" d="M130.6,94.8H78.4h-1.7v4.2h2.1h49.8C129.3,97.6,130,96.2,130.6,94.8"/>
		<path id="XMLID_101_" class="st15" d="M91.2,104.8H82c-0.4,0-0.6,0.3-0.6,0.7l1.4,11.5c0,0.3,0.3,0.5,0.6,0.5h7.8
			c0.3,0,0.6-0.3,0.6-0.6v-11.5C91.7,105,91.5,104.8,91.2,104.8"/>
		<path id="XMLID_102_" class="st15" d="M97,104.8h-3.3c-0.4,0-0.7,0.3-0.7,0.7v11.2c0,0.4,0.3,0.7,0.7,0.7H97
			c0.4,0,0.7-0.3,0.7-0.7v-11.2C97.7,105.1,97.3,104.8,97,104.8"/>
		<path id="XMLID_103_" class="st15" d="M116.9,104.8h-3.3c-0.4,0-0.7,0.3-0.7,0.7v5.3c0,0.4,0.3,0.7,0.7,0.7h3.3
			c0.4,0,0.7-0.3,0.7-0.7v-5.3C117.6,105.1,117.3,104.8,116.9,104.8"/>
		<path id="XMLID_104_" class="st15" d="M110.8,104.8h-3.3c-0.4,0-0.7,0.3-0.7,0.7v11.2c0,0.4,0.3,0.7,0.7,0.7h3.3
			c0.4,0,0.7-0.3,0.7-0.7v-11.2C111.5,105.1,111.2,104.8,110.8,104.8"/>
		<path id="XMLID_105_" class="st15" d="M105.1,104.8h-5.8c-0.4,0-0.7,0.3-0.7,0.7v11.2c0,0.4,0.3,0.7,0.7,0.7h5.8
			c0.4,0,0.7-0.3,0.7-0.7v-11.2C105.8,105.1,105.5,104.8,105.1,104.8"/>
		<path id="XMLID_106_" class="st15" d="M90.2,79.6H81c-0.4,0-0.6,0.3-0.6,0.7l1.4,11.5c0,0.3,0.3,0.5,0.6,0.5h7.8
			c0.3,0,0.6-0.3,0.6-0.6V80.2C90.7,79.8,90.5,79.6,90.2,79.6"/>
		<path id="XMLID_107_" class="st15" d="M96,79.6h-3.3c-0.4,0-0.7,0.3-0.7,0.7v11.2c0,0.4,0.3,0.7,0.7,0.7H96c0.4,0,0.7-0.3,0.7-0.7
			V80.3C96.7,79.9,96.3,79.6,96,79.6"/>
		<path id="XMLID_108_" class="st15" d="M119.1,79.6h-3.3c-0.4,0-0.7,0.3-0.7,0.7v11.2c0,0.4,0.3,0.7,0.7,0.7h3.3
			c0.4,0,0.7-0.3,0.7-0.7V80.3C119.8,79.9,119.5,79.6,119.1,79.6"/>
		<path id="XMLID_109_" class="st15" d="M104.1,79.6h-5.8c-0.4,0-0.7,0.3-0.7,0.7v11.2c0,0.4,0.3,0.7,0.7,0.7h5.8
			c0.4,0,0.7-0.3,0.7-0.7V80.3C104.8,79.9,104.5,79.6,104.1,79.6"/>
		<path id="XMLID_110_" class="st15" d="M112.8,79.6h-5.8c-0.4,0-0.7,0.3-0.7,0.7v11.2c0,0.4,0.3,0.7,0.7,0.7h5.8
			c0.4,0,0.7-0.3,0.7-0.7V80.3C113.5,79.9,113.2,79.6,112.8,79.6"/>
		<path id="XMLID_111_" class="st15" d="M125.3,104.8h-5.7c-0.4,0-0.7,0.3-0.7,0.7v7.7C121.3,110.5,123.4,107.7,125.3,104.8"/>
		<path id="XMLID_112_" class="st15" d="M96.4,119.7H84.7c-0.8,0-1.3,0.7-1.2,1.5l1.2,6.7c0.1,0.6,0.6,1,1.2,1h10.6
			c0.7,0,1.2-0.6,1.2-1.2V121C97.7,120.3,97.1,119.7,96.4,119.7"/>
		<path id="XMLID_113_" class="st15" d="M132,83.1h-9c-0.7,0-1.2,0.6-1.2,1.2V91c0,0.7,0.6,1.2,1.2,1.2h8.6c0.1-0.3,0.3-0.7,0.4-1
			V83.1"/>
		<path id="XMLID_114_" class="st15" d="M93.9,131h-7.6c-0.8,0-1.5,0.8-1.4,1.6l0.2,1.3C88.1,133.1,91,132.1,93.9,131"/>
		<path id="XMLID_115_" class="st15" d="M67.6,73.1h-5.3c-3.2,0-5.8,2.6-5.8,5.8V90l13.6,24.7c0.1,0.3,0.4,0.4,0.6,0.4
			c0.4,0,0.8-0.3,0.8-0.8L67.6,73.1"/>
		<path id="XMLID_116_" class="st16" d="M136.1,156.6H60.6V75c0-3.2,2.6-5.8,5.8-5.8h69.7V156.6z"/>
		<path id="XMLID_120_" class="st17" d="M74.6,103.1l2.8,0.7l2.1-3.3l-4-1c-1-0.2-2,0.4-2.2,1.3C73.1,101.9,73.7,102.9,74.6,103.1z
			 M110.9,103.7l-9.1,8.2l-10.7-8.3c-0.2-0.2-0.4-0.3-0.7-0.3l-1.4-0.4l-2.1,3.3l2.2,0.6l11.6,9c0.3,0.3,0.7,0.4,1.1,0.4
			c0.4,0,0.9-0.2,1.2-0.5l10.2-9.2c0.8-0.7,0.8-1.8,0.1-2.6C112.8,103,111.6,103,110.9,103.7z M90.9,94.7l9.9,6.4
			c0.8,0.5,2,0.3,2.5-0.5l10.2-14.7c0.6-0.8,0.4-2-0.5-2.6c-0.8-0.6-2-0.4-2.6,0.5L101.4,97l-10-6.4c-0.4-0.3-0.9-0.4-1.4-0.2
			c-0.5,0.1-0.9,0.4-1.2,0.8l-15.3,24c-0.5,0.9-0.3,2,0.6,2.5c0.3,0.2,0.7,0.3,1,0.3c0.6,0,1.2-0.3,1.6-0.9L90.9,94.7z"/>
	</g>
</g>
</svg>
