<?xml version="1.0" encoding="utf-8"?>
<!-- Generator: Adobe Illustrator 19.0.0, SVG Export Plug-In . SVG Version: 6.00 Build 0)  -->
<svg version="1.1" id="Layer_1" xmlns="http://www.w3.org/2000/svg" xmlns:xlink="http://www.w3.org/1999/xlink" x="0px" y="0px"
	 viewBox="0 0 135.3 135.3" style="enable-background:new 0 0 135.3 135.3;" xml:space="preserve">
<style type="text/css">
	.st0{clip-path:url(#XMLID_11_);fill:#FBFBFB;}
	.st1{clip-path:url(#XMLID_11_);}
	.st2{clip-path:url(#XMLID_12_);fill:#E5E5E5;}
	.st3{clip-path:url(#XMLID_12_);fill:#FFFFFF;}
	.st4{clip-path:url(#XMLID_11_);fill:#CECFD0;}
	.st5{clip-path:url(#XMLID_13_);fill:#FFFFFF;}
	.st6{clip-path:url(#XMLID_21_);fill:#4EAA7C;}
	.st7{clip-path:url(#XMLID_22_);fill:#56B081;}
	.st8{clip-path:url(#XMLID_23_);fill:#56B081;}
	.st9{clip-path:url(#XMLID_24_);fill:#419172;}
	.st10{clip-path:url(#XMLID_25_);fill:#57A382;}
	.st11{clip-path:url(#XMLID_26_);fill:#57A382;}
	.st12{clip-path:url(#XMLID_27_);fill:#5FCA94;}
	.st13{clip-path:url(#XMLID_28_);fill:#6ED69E;}
	.st14{clip-path:url(#XMLID_29_);fill:#52BC82;}
	.st15{clip-path:url(#XMLID_30_);fill:#419172;}
	.st16{clip-path:url(#XMLID_31_);fill:#57A382;}
	.st17{clip-path:url(#XMLID_32_);fill:#57A382;}
	.st18{clip-path:url(#XMLID_33_);fill:#489E77;}
	.st19{clip-path:url(#XMLID_34_);fill:#57AA82;}
	.st20{clip-path:url(#XMLID_35_);fill:#FFFFFF;}
	.st21{clip-path:url(#XMLID_36_);fill:#FFFFFF;}
	.st22{clip-path:url(#XMLID_37_);fill:#FFFFFF;}
	.st23{clip-path:url(#XMLID_38_);fill:#FFFFFF;}
	.st24{clip-path:url(#XMLID_39_);fill:#FFFFFF;}
	.st25{clip-path:url(#XMLID_40_);fill:#FFFFFF;}
	.st26{clip-path:url(#XMLID_41_);fill:#FFFFFF;}
</style>
<g id="XMLID_86_">
	<g id="XMLID_90_">
		<defs>
			<path id="XMLID_89_" d="M67.6,0c37.4,0,67.6,30.3,67.6,67.6s-30.3,67.6-67.6,67.6C30.3,135.3,0,105,0,67.6S30.3,0,67.6,0"/>
		</defs>
		<clipPath id="XMLID_11_">
			<use xlink:href="#XMLID_89_"  style="overflow:visible;"/>
		</clipPath>
		<polyline id="XMLID_91_" class="st0" points="135.1,-40.2 135.1,135.7 -1.4,135.7 -1.4,-40.2 135.1,-40.2 		"/>
		<g id="XMLID_94_" class="st1">
			<defs>
				<polyline id="XMLID_93_" points="135.5,136.1 -1,136.1 -1,-39.8 135.5,-39.8 135.5,136.1 				"/>
			</defs>
			<clipPath id="XMLID_12_">
				<use xlink:href="#XMLID_93_"  style="overflow:visible;"/>
			</clipPath>
			<polyline id="XMLID_95_" class="st2" points="135.5,136.1 -1,136.1 -1,-39.8 135.5,-39.8 135.5,136.1 			"/>
			<circle id="XMLID_96_" class="st2" cx="149.1" cy="-3" r="51.6"/>
			<polyline id="XMLID_98_" class="st3" points="-52.5,-1.5 95.8,137.3 100,132.8 -48.3,-6 -52.5,-1.5 			"/>
			<polyline id="XMLID_99_" class="st3" points="79.6,114.9 -6.6,161.1 -3.6,166.5 82.6,120.3 79.6,114.9 			"/>
			<polyline id="XMLID_104_" class="st3" points="54.1,81.3 165.9,81.3 165.9,77.1 54.1,77.1 			"/>
			<polyline id="XMLID_105_" class="st3" points="73.1,48.3 59.8,-33.5 53.8,-32.6 67.1,49.3 73.1,48.3 			"/>
		</g>
		<path id="XMLID_106_" class="st4" d="M95.4,85h-3.3c-0.4,0-0.7,0.3-0.7,0.7v11.2c0,0.4,0.3,0.7,0.7,0.7h3.3c0.4,0,0.7-0.3,0.7-0.7
			V85.7C96.1,85.3,95.8,85,95.4,85"/>
		<path id="XMLID_107_" class="st4" d="M115.3,85H112c-0.4,0-0.7,0.3-0.7,0.7V91c0,0.4,0.3,0.7,0.7,0.7h3.3c0.4,0,0.7-0.3,0.7-0.7
			v-5.3C116,85.3,115.7,85,115.3,85"/>
		<path id="XMLID_108_" class="st4" d="M109.2,85h-3.3c-0.4,0-0.7,0.3-0.7,0.7v11.2c0,0.4,0.3,0.7,0.7,0.7h3.3
			c0.4,0,0.7-0.3,0.7-0.7V85.7C109.9,85.3,109.6,85,109.2,85"/>
		<path id="XMLID_109_" class="st4" d="M103.5,85h-5.8c-0.4,0-0.7,0.3-0.7,0.7v11.2c0,0.4,0.3,0.7,0.7,0.7h5.8
			c0.4,0,0.7-0.3,0.7-0.7V85.7C104.2,85.3,103.9,85,103.5,85"/>
		<path id="XMLID_110_" class="st4" d="M123.8,85H118c-0.4,0-0.7,0.3-0.7,0.7v11.2c0,0.4,0.3,0.7,0.7,0.7h2.7
			c1.4-1.7,2.7-3.5,3.9-5.4v-6.5C124.5,85.3,124.2,85,123.8,85"/>
		<path id="XMLID_112_" class="st4" d="M128.6,85h-2c-0.4,0-0.7,0.3-0.7,0.7v4.4C126.8,88.5,127.7,86.7,128.6,85"/>
		<path id="XMLID_113_" class="st4" d="M59.1,25.5c-0.1,0-0.2,0-0.3,0.1L34,37.6c-0.4,0.2-0.5,0.6-0.3,1L40.5,52
			c0.1,0.3,0.4,0.4,0.7,0.4c0.1,0,0.2,0,0.3-0.1l20.9-10.1c0.3-0.1,0.5-0.5,0.4-0.8l-2.9-15.3C59.8,25.7,59.5,25.5,59.1,25.5"/>
		<path id="XMLID_114_" class="st4" d="M35.3,27.9c-0.1,0-0.2,0-0.3,0.1l-4.7,2.4c-0.3,0.2-0.5,0.6-0.3,1l1.5,2.9
			c0.1,0.2,0.4,0.4,0.6,0.4c0.1,0,0.2,0,0.3-0.1l4.7-2.4c0.3-0.2,0.5-0.6,0.3-1L36,28.3C35.8,28,35.6,27.9,35.3,27.9"/>
		<path id="XMLID_115_" class="st4" d="M36.7,17.6c-0.1,0-0.2,0-0.3,0.1l-10,5.1c-0.3,0.2-0.5,0.6-0.3,1l2.6,5.2
			c0.1,0.2,0.4,0.4,0.6,0.4c0.1,0,0.2,0,0.3-0.1l10-5.1c0.3-0.2,0.5-0.6,0.3-1L37.3,18C37.2,17.8,37,17.6,36.7,17.6"/>
		<path id="XMLID_116_" class="st4" d="M32.8,10c-0.1,0-0.2,0-0.3,0.1l-2.3,1.1c-2.4,1.6-4.7,3.4-6.9,5.3v1.8l1.5,3
			c0.1,0.2,0.4,0.4,0.6,0.4c0.1,0,0.2,0,0.3-0.1l10-5.1c0.3-0.2,0.5-0.6,0.3-1l-2.6-5.2C33.3,10.2,33.1,10,32.8,10"/>
		<path id="XMLID_117_" class="st4" d="M55.3,1.1C51.2,1.9,47.1,3,43.2,4.5l0.8,4.8c0.1,0.3,0.4,0.6,0.7,0.6l0.1,0l11-1.9
			c0.4-0.1,0.6-0.4,0.6-0.8l-1-5.7C55.5,1.3,55.4,1.2,55.3,1.1"/>
		<path id="XMLID_118_" class="st4" d="M56.3,9.3C56.3,9.3,56.3,9.3,56.3,9.3l-0.1,0l-11,1.9c-0.4,0.1-0.6,0.4-0.6,0.8l1,5.7
			c0.1,0.3,0.4,0.6,0.7,0.6l0.1,0l11-1.9c0.4-0.1,0.6-0.4,0.6-0.8l-1-5.7C56.9,9.5,56.6,9.3,56.3,9.3"/>
		<path id="XMLID_119_" class="st4" d="M58.4,18.1l-0.1,0l-11,1.9c-0.4,0.1-0.6,0.4-0.6,0.8l0.6,3.2c0.1,0.3,0.4,0.6,0.7,0.6l0.1,0
			l11-1.9c0.4-0.1,0.6-0.4,0.6-0.8l-0.6-3.2C59,18.3,58.7,18.1,58.4,18.1"/>
	</g>
	<g id="XMLID_122_">
		<defs>
			<path id="XMLID_121_" d="M67.6-0.1c37.4,0,67.7,30.4,67.7,67.7s-30.4,67.7-67.7,67.7S-0.1,105-0.1,67.6
				C-0.2,30.3,30.2-0.1,67.6-0.1"/>
		</defs>
		<clipPath id="XMLID_13_">
			<use xlink:href="#XMLID_121_"  style="overflow:visible;"/>
		</clipPath>
		<path id="XMLID_123_" class="st5" d="M3,49c-0.2,0-0.3,0.1-0.4,0.3c0,0.2,0.1,0.4,0.3,0.5H3c0.2,0,0.3-0.1,0.4-0.3
			C3.4,49.3,3.3,49.1,3,49"/>
	</g>
	<g id="XMLID_125_">
		<defs>
			<path id="XMLID_124_" d="M67.6-0.1c37.4,0,67.7,30.4,67.7,67.7s-30.4,67.7-67.7,67.7S-0.1,105-0.1,67.6
				C-0.2,30.3,30.2-0.1,67.6-0.1"/>
		</defs>
		<clipPath id="XMLID_14_">
			<use xlink:href="#XMLID_124_"  style="overflow:visible;"/>
		</clipPath>
	</g>
	<g id="XMLID_142_">
		<defs>
			<path id="XMLID_141_" d="M67.6-0.1c37.4,0,67.7,30.4,67.7,67.7s-30.4,67.7-67.7,67.7S-0.1,105-0.1,67.6
				C-0.2,30.3,30.2-0.1,67.6-0.1"/>
		</defs>
		<clipPath id="XMLID_15_">
			<use xlink:href="#XMLID_141_"  style="overflow:visible;"/>
		</clipPath>
	</g>
	<g id="XMLID_159_">
		<defs>
			<path id="XMLID_158_" d="M67.6-0.1c37.4,0,67.7,30.4,67.7,67.7s-30.4,67.7-67.7,67.7S-0.1,105-0.1,67.6
				C-0.2,30.3,30.2-0.1,67.6-0.1"/>
		</defs>
		<clipPath id="XMLID_16_">
			<use xlink:href="#XMLID_158_"  style="overflow:visible;"/>
		</clipPath>
	</g>
	<g id="XMLID_173_">
		<defs>
			<path id="XMLID_172_" d="M67.6-0.1c37.4,0,67.7,30.4,67.7,67.7s-30.4,67.7-67.7,67.7S-0.1,105-0.1,67.6
				C-0.2,30.3,30.2-0.1,67.6-0.1"/>
		</defs>
		<clipPath id="XMLID_17_">
			<use xlink:href="#XMLID_172_"  style="overflow:visible;"/>
		</clipPath>
	</g>
	<g id="XMLID_199_">
		<defs>
			<path id="XMLID_198_" d="M67.6-0.1c37.4,0,67.7,30.4,67.7,67.7s-30.4,67.7-67.7,67.7S-0.1,105-0.1,67.6
				C-0.2,30.3,30.2-0.1,67.6-0.1"/>
		</defs>
		<clipPath id="XMLID_18_">
			<use xlink:href="#XMLID_198_"  style="overflow:visible;"/>
		</clipPath>
	</g>
	<g id="XMLID_217_">
		<defs>
			<path id="XMLID_216_" d="M67.6-0.1c37.4,0,67.7,30.4,67.7,67.7s-30.4,67.7-67.7,67.7S-0.1,105-0.1,67.6
				C-0.2,30.3,30.2-0.1,67.6-0.1"/>
		</defs>
		<clipPath id="XMLID_19_">
			<use xlink:href="#XMLID_216_"  style="overflow:visible;"/>
		</clipPath>
	</g>
	<g id="XMLID_241_">
		<defs>
			<path id="XMLID_240_" d="M67.6-0.1c37.4,0,67.7,30.4,67.7,67.7s-30.4,67.7-67.7,67.7S-0.1,105-0.1,67.6
				C-0.2,30.3,30.2-0.1,67.6-0.1"/>
		</defs>
		<clipPath id="XMLID_20_">
			<use xlink:href="#XMLID_240_"  style="overflow:visible;"/>
		</clipPath>
	</g>
	<g id="XMLID_255_">
		<defs>
			<path id="XMLID_254_" d="M67.6-0.1c37.4,0,67.7,30.4,67.7,67.7s-30.4,67.7-67.7,67.7S-0.1,105-0.1,67.6
				C-0.2,30.3,30.2-0.1,67.6-0.1"/>
		</defs>
		<clipPath id="XMLID_21_">
			<use xlink:href="#XMLID_254_"  style="overflow:visible;"/>
		</clipPath>
		<path id="XMLID_256_" class="st6" d="M81.5,30.5L65.1,64.7l38.5-7.6c0,0,0,0,0-0.1s0.4-0.4,0.5-0.5L81.4,31.3l0.5-0.2"/>
	</g>
	<g id="XMLID_258_">
		<defs>
			<path id="XMLID_257_" d="M67.6-0.1c37.4,0,67.7,30.4,67.7,67.7s-30.4,67.7-67.7,67.7S-0.1,105-0.1,67.6
				C-0.2,30.3,30.2-0.1,67.6-0.1"/>
		</defs>
		<clipPath id="XMLID_22_">
			<use xlink:href="#XMLID_257_"  style="overflow:visible;"/>
		</clipPath>
		<line id="XMLID_259_" class="st7" x1="81.4" y1="31.3" x2="81.4" y2="31.3"/>
	</g>
	<g id="XMLID_261_">
		<defs>
			<path id="XMLID_260_" d="M67.6-0.1c37.4,0,67.7,30.4,67.7,67.7s-30.4,67.7-67.7,67.7S-0.1,105-0.1,67.6
				C-0.2,30.3,30.2-0.1,67.6-0.1"/>
		</defs>
		<clipPath id="XMLID_23_">
			<use xlink:href="#XMLID_260_"  style="overflow:visible;"/>
		</clipPath>
		<path id="XMLID_262_" class="st8" d="M103.7,56.6c-0.1,0.1-0.1,0.2-0.1,0.3c0,0,0,0,0,0.1l0.4-0.1L103.7,56.6"/>
	</g>
	<g id="XMLID_264_">
		<defs>
			<path id="XMLID_263_" d="M67.6-0.1c37.4,0,67.7,30.4,67.7,67.7s-30.4,67.7-67.7,67.7S-0.1,105-0.1,67.6
				C-0.2,30.3,30.2-0.1,67.6-0.1"/>
		</defs>
		<clipPath id="XMLID_24_">
			<use xlink:href="#XMLID_263_"  style="overflow:visible;"/>
		</clipPath>
		<path id="XMLID_265_" class="st9" d="M81.4,31.3l22.4,25.2c0-0.1,0.1-0.1,0.2-0.1l-4.8-18.2L81.4,31.3
			C81.4,31.4,81.4,31.4,81.4,31.3"/>
	</g>
	<g id="XMLID_267_">
		<defs>
			<path id="XMLID_266_" d="M67.6-0.1c37.4,0,67.7,30.4,67.7,67.7s-30.4,67.7-67.7,67.7S-0.1,105-0.1,67.6
				C-0.2,30.3,30.2-0.1,67.6-0.1"/>
		</defs>
		<clipPath id="XMLID_25_">
			<use xlink:href="#XMLID_266_"  style="overflow:visible;"/>
		</clipPath>
		<path id="XMLID_268_" class="st10" d="M81.4,31.3L81.4,31.3C81.4,31.4,81.4,31.4,81.4,31.3"/>
	</g>
	<g id="XMLID_270_">
		<defs>
			<path id="XMLID_269_" d="M67.6-0.1c37.4,0,67.7,30.4,67.7,67.7s-30.4,67.7-67.7,67.7S-0.1,105-0.1,67.6
				C-0.2,30.3,30.2-0.1,67.6-0.1"/>
		</defs>
		<clipPath id="XMLID_26_">
			<use xlink:href="#XMLID_269_"  style="overflow:visible;"/>
		</clipPath>
		<path id="XMLID_271_" class="st11" d="M103.9,56.5c-0.1,0-0.1,0.1-0.2,0.1l0.3,0.3L103.9,56.5"/>
	</g>
	<g id="XMLID_273_">
		<defs>
			<path id="XMLID_272_" d="M67.6-0.1c37.4,0,67.7,30.4,67.7,67.7s-30.4,67.7-67.7,67.7S-0.1,105-0.1,67.6
				C-0.2,30.3,30.2-0.1,67.6-0.1"/>
		</defs>
		<clipPath id="XMLID_27_">
			<use xlink:href="#XMLID_272_"  style="overflow:visible;"/>
		</clipPath>
		<path id="XMLID_277_" class="st12" d="M86.6,76.8l17.2-19.4c-0.1-0.1-0.1-0.2-0.1-0.3l-37,6.8l8.8,25.7l10.6-12.1 M67.5,64.5
			c-0.1,0.1-0.2,0.2-0.3,0.2c-0.1,0-0.1,0-0.2-0.1c-0.2-0.1-0.2-0.4-0.1-0.5c0.1-0.1,0.2-0.2,0.3-0.2c0.1,0,0.1,0,0.2,0.1
			C67.6,64,67.6,64.4,67.5,64.5z M69.3,65.7c-0.1,0.1-0.2,0.2-0.3,0.2c-0.1,0-0.1,0-0.2-0.1c-0.2-0.1-0.2-0.4-0.1-0.5
			s0.2-0.2,0.3-0.2c0.1,0,0.1,0,0.2,0.1C69.4,65.2,69.4,65.5,69.3,65.7z"/>
	</g>
	<g id="XMLID_279_">
		<defs>
			<path id="XMLID_278_" d="M67.6-0.1c37.4,0,67.7,30.4,67.7,67.7s-30.4,67.7-67.7,67.7S-0.1,105-0.1,67.6
				C-0.2,30.3,30.2-0.1,67.6-0.1"/>
		</defs>
		<clipPath id="XMLID_28_">
			<use xlink:href="#XMLID_278_"  style="overflow:visible;"/>
		</clipPath>
		<path id="XMLID_280_" class="st13" d="M104,56.9l-0.4,0.1c0,0.1,0.1,0.2,0.1,0.3L104,56.9"/>
	</g>
	<g id="XMLID_282_">
		<defs>
			<path id="XMLID_281_" d="M67.6-0.1c37.4,0,67.7,30.4,67.7,67.7s-30.4,67.7-67.7,67.7S-0.1,105-0.1,67.6
				C-0.2,30.3,30.2-0.1,67.6-0.1"/>
		</defs>
		<clipPath id="XMLID_29_">
			<use xlink:href="#XMLID_281_"  style="overflow:visible;"/>
		</clipPath>
		<polyline id="XMLID_283_" class="st14" points="67.2,63.8 52.8,109.3 76.3,89 67.2,63.8 		"/>
	</g>
	<g id="XMLID_285_">
		<defs>
			<path id="XMLID_284_" d="M67.6-0.1c37.4,0,67.7,30.4,67.7,67.7s-30.4,67.7-67.7,67.7S-0.1,105-0.1,67.6
				C-0.2,30.3,30.2-0.1,67.6-0.1"/>
		</defs>
		<clipPath id="XMLID_30_">
			<use xlink:href="#XMLID_284_"  style="overflow:visible;"/>
		</clipPath>
		<path id="XMLID_286_" class="st15" d="M81.4,31.3L32.1,55.9c0,0,0,0,0,0.1l35.5,9.1L81.4,31.3"/>
	</g>
	<g id="XMLID_288_">
		<defs>
			<path id="XMLID_287_" d="M67.6-0.1c37.4,0,67.7,30.4,67.7,67.7s-30.4,67.7-67.7,67.7S-0.1,105-0.1,67.6
				C-0.2,30.3,30.2-0.1,67.6-0.1"/>
		</defs>
		<clipPath id="XMLID_31_">
			<use xlink:href="#XMLID_287_"  style="overflow:visible;"/>
		</clipPath>
		<line id="XMLID_289_" class="st16" x1="32.1" y1="55.9" x2="32.1" y2="55.9"/>
	</g>
	<g id="XMLID_291_">
		<defs>
			<path id="XMLID_290_" d="M67.6-0.1c37.4,0,67.7,30.4,67.7,67.7s-30.4,67.7-67.7,67.7S-0.1,105-0.1,67.6
				C-0.2,30.3,30.2-0.1,67.6-0.1"/>
		</defs>
		<clipPath id="XMLID_32_">
			<use xlink:href="#XMLID_290_"  style="overflow:visible;"/>
		</clipPath>
		<line id="XMLID_292_" class="st17" x1="81.4" y1="31.3" x2="81.4" y2="31.3"/>
	</g>
	<g id="XMLID_294_">
		<defs>
			<path id="XMLID_293_" d="M67.6-0.1c37.4,0,67.7,30.4,67.7,67.7s-30.4,67.7-67.7,67.7S-0.1,105-0.1,67.6
				C-0.2,30.3,30.2-0.1,67.6-0.1"/>
		</defs>
		<clipPath id="XMLID_33_">
			<use xlink:href="#XMLID_293_"  style="overflow:visible;"/>
		</clipPath>
		<path id="XMLID_295_" class="st18" d="M32.1,55.9C32.1,56.1,32.1,56.1,32.1,55.9l20.6,53.3l14.6-45.3L32.1,55.9"/>
	</g>
	<g id="XMLID_297_">
		<defs>
			<path id="XMLID_296_" d="M67.6-0.1c37.4,0,67.7,30.4,67.7,67.7s-30.4,67.7-67.7,67.7S-0.1,105-0.1,67.6
				C-0.2,30.3,30.2-0.1,67.6-0.1"/>
		</defs>
		<clipPath id="XMLID_34_">
			<use xlink:href="#XMLID_296_"  style="overflow:visible;"/>
		</clipPath>
		<path id="XMLID_298_" class="st19" d="M32,55.9v0.1C32.1,56.1,32.1,56.1,32,55.9"/>
	</g>
	<g id="XMLID_300_">
		<defs>
			<path id="XMLID_299_" d="M67.6-0.1c37.4,0,67.7,30.4,67.7,67.7s-30.4,67.7-67.7,67.7S-0.1,105-0.1,67.6
				C-0.2,30.3,30.2-0.1,67.6-0.1"/>
		</defs>
		<clipPath id="XMLID_35_">
			<use xlink:href="#XMLID_299_"  style="overflow:visible;"/>
		</clipPath>
		<circle id="XMLID_301_" class="st20" cx="32" cy="55.9" r="3.5"/>
	</g>
	<g id="XMLID_303_">
		<defs>
			<path id="XMLID_302_" d="M67.6-0.1c37.4,0,67.7,30.4,67.7,67.7s-30.4,67.7-67.7,67.7S-0.1,105-0.1,67.6
				C-0.2,30.3,30.2-0.1,67.6-0.1"/>
		</defs>
		<clipPath id="XMLID_36_">
			<use xlink:href="#XMLID_302_"  style="overflow:visible;"/>
		</clipPath>
		<circle id="XMLID_304_" class="st21" cx="81.4" cy="31.3" r="3.5"/>
	</g>
	<g id="XMLID_306_">
		<defs>
			<path id="XMLID_305_" d="M67.6-0.1c37.4,0,67.7,30.4,67.7,67.7s-30.4,67.7-67.7,67.7S-0.1,105-0.1,67.6
				C-0.2,30.3,30.2-0.1,67.6-0.1"/>
		</defs>
		<clipPath id="XMLID_37_">
			<use xlink:href="#XMLID_305_"  style="overflow:visible;"/>
		</clipPath>
		<circle id="XMLID_307_" class="st22" cx="99.1" cy="38.2" r="3.5"/>
	</g>
	<g id="XMLID_309_">
		<defs>
			<path id="XMLID_308_" d="M67.6-0.1c37.4,0,67.7,30.4,67.7,67.7s-30.4,67.7-67.7,67.7S-0.1,105-0.1,67.6
				C-0.2,30.3,30.2-0.1,67.6-0.1"/>
		</defs>
		<clipPath id="XMLID_38_">
			<use xlink:href="#XMLID_308_"  style="overflow:visible;"/>
		</clipPath>
		<circle id="XMLID_310_" class="st23" cx="104" cy="56.9" r="3.5"/>
	</g>
	<g id="XMLID_312_">
		<defs>
			<path id="XMLID_311_" d="M67.6-0.1c37.4,0,67.7,30.4,67.7,67.7s-30.4,67.7-67.7,67.7S-0.1,105-0.1,67.6
				C-0.2,30.3,30.2-0.1,67.6-0.1"/>
		</defs>
		<clipPath id="XMLID_39_">
			<use xlink:href="#XMLID_311_"  style="overflow:visible;"/>
		</clipPath>
		<circle id="XMLID_313_" class="st24" cx="66.5" cy="63.8" r="3.5"/>
	</g>
	<g id="XMLID_315_">
		<defs>
			<path id="XMLID_314_" d="M67.6-0.1c37.4,0,67.7,30.4,67.7,67.7s-30.4,67.7-67.7,67.7S-0.1,105-0.1,67.6
				C-0.2,30.3,30.2-0.1,67.6-0.1"/>
		</defs>
		<clipPath id="XMLID_40_">
			<use xlink:href="#XMLID_314_"  style="overflow:visible;"/>
		</clipPath>
		<circle id="XMLID_316_" class="st25" cx="75.5" cy="89.5" r="3.5"/>
	</g>
	<g id="XMLID_318_">
		<defs>
			<path id="XMLID_317_" d="M67.6-0.1c37.4,0,67.7,30.4,67.7,67.7s-30.4,67.7-67.7,67.7S-0.1,105-0.1,67.6
				C-0.2,30.3,30.2-0.1,67.6-0.1"/>
		</defs>
		<clipPath id="XMLID_41_">
			<use xlink:href="#XMLID_317_"  style="overflow:visible;"/>
		</clipPath>
		<circle id="XMLID_319_" class="st26" cx="52.8" cy="109.3" r="3.5"/>
	</g>
</g>
</svg>
