<svg xmlns="http://www.w3.org/2000/svg" width="103.437" height="81.72" viewBox="0 0 103.437 81.72">
  <defs>
    <style>
      .cls-1 {
        fill: #d41f00;
        fill-rule: evenodd;
      }
    </style>
  </defs>
  <path id="info-block-1.svg" class="cls-1" d="M517.993,3118.92l-11.527,15.59a2.241,2.241,0,0,1-3.111.47l-22.217-16.19-2.077-13.49a3.16,3.16,0,0,1,2.663-3.6l13.6-2.07,22.2,16.2A2.21,2.21,0,0,1,517.993,3118.92Zm-30.817-12.58v-0.01a2.4,2.4,0,1,0-2.009,2.72v0.01h0.008A2.389,2.389,0,0,0,487.176,3106.34Zm5.783,9.23a3.484,3.484,0,0,0-1.483.37,3.714,3.714,0,0,0-1.95,2.59,3.5,3.5,0,0,0,0,1.51,4.2,4.2,0,0,0,.731,1.36,5.5,5.5,0,0,0,2.623,1.94,4.483,4.483,0,0,0,1.542.24,3.3,3.3,0,0,0,1.472-.38,3.876,3.876,0,0,0,1.95-2.59,3.4,3.4,0,0,0-.019-1.47,4.326,4.326,0,0,0-.692-1.38,5.494,5.494,0,0,0-2.624-1.94A4.3,4.3,0,0,0,492.959,3115.57Zm1.921-4.95,7.714,14.27,1.434-.73-7.715-14.32Zm14.472,4.17a4.27,4.27,0,0,0-.7-1.44,5.561,5.561,0,0,0-2.623-1.94,4.539,4.539,0,0,0-1.551-.25,3.628,3.628,0,0,0-1.482.37,3.723,3.723,0,0,0-1.951,2.6,3.536,3.536,0,0,0,.088,1.51,4.339,4.339,0,0,0,.7,1.39,5.494,5.494,0,0,0,2.624,1.94,4.474,4.474,0,0,0,1.541.24,3.307,3.307,0,0,0,1.473-.38,3.882,3.882,0,0,0,1.95-2.59l0.01,0.02A3.428,3.428,0,0,0,509.352,3114.79Zm-2.477,2.74a1.917,1.917,0,0,1-.887.13,3,3,0,0,1-.976-0.26,5.242,5.242,0,0,1-.975-0.56,4.918,4.918,0,0,1-.809-0.75,3.065,3.065,0,0,1-.537-0.85,1.991,1.991,0,0,1-.156-0.88,1.812,1.812,0,0,1,1.083-1.47,1.961,1.961,0,0,1,.9-0.12,3,3,0,0,1,.975.26,5.069,5.069,0,0,1,.976.54,5.219,5.219,0,0,1,.829.75,2.928,2.928,0,0,1,.546.83,1.846,1.846,0,0,1,.137.88A1.957,1.957,0,0,1,506.875,3117.53Zm-10.523,2.88a1.934,1.934,0,0,1-1.073,1.47,1.915,1.915,0,0,1-.887.13,3,3,0,0,1-.975-0.26,5.242,5.242,0,0,1-.975-0.56,4.924,4.924,0,0,1-.81-0.75,3.062,3.062,0,0,1-.536-0.85,1.977,1.977,0,0,1-.156-0.88,1.811,1.811,0,0,1,1.082-1.47,1.967,1.967,0,0,1,.9-0.12,3.012,3.012,0,0,1,.975.26,5.091,5.091,0,0,1,.975.54,5.219,5.219,0,0,1,.829.75,2.9,2.9,0,0,1,.517.86A1.845,1.845,0,0,1,496.352,3120.41Zm-18.695,18.01a2.228,2.228,0,0,1-1.951-2.44l1.668-16.08,8.553,19.38Zm-7.149,20.55a2.184,2.184,0,0,1-2.194-2.18v-9.89h-0.127v-17.16H453.944c-1.407,0-2.983-.85-2.983-2.25a2.052,2.052,0,0,1,2.233-2.24h14.993v-29.21l-7.4-7.39-14.708,14.62a2.554,2.554,0,0,1-2.778.55,2.662,2.662,0,0,1-1.349-2.56v-7.5H436.7l-0.073,17.85a2.537,2.537,0,0,1-.748,1.8l-12.672,12.58h10.5c1.407,0,3,.85,3,2.25v23.24a2.249,2.249,0,1,1-4.5,0v-20.99H417.212a2.043,2.043,0,0,1-2.057-1.43,2.538,2.538,0,0,1,.556-2.77l16.494-16.04v-18.74a2.071,2.071,0,0,1,2.248-2.25H444.2a2.072,2.072,0,0,1,2.249,2.25v3.75l12.54-12a2.543,2.543,0,0,1,1.8-.75h0a2.543,2.543,0,0,1,1.8.75l5.593,5.59v-4.13a0.544,0.544,0,0,1,.127-0.01v-5.27a2.195,2.195,0,0,1,4.389,0v77.35A2.184,2.184,0,0,1,470.508,3158.97Zm-17.314-20.98a2.067,2.067,0,0,1,2.249,2.25v9.74a2.072,2.072,0,0,1-2.249,2.25,2.109,2.109,0,0,1-2.233-2.32v-9.3A2.36,2.36,0,0,1,453.194,3137.99Zm47.966-.57-8.465,3.7a2.243,2.243,0,0,1-2.925-1.14l-7.139-16.13Z" transform="translate(-414.969 -3077.25)"/>
</svg>
