<svg xmlns="http://www.w3.org/2000/svg" width="113.969" height="83" viewBox="0 0 113.969 83">
  <defs>
    <style>
      .cls-1 {
        fill: #d41f00;
        fill-rule: evenodd;
      }
    </style>
  </defs>
  <path id="info-block-2.svg" class="cls-1" d="M319.547,269.309l-11.785,15.836a2.3,2.3,0,0,1-3.18.482l-22.713-16.456-2.123-13.7a3.224,3.224,0,0,1,2.721-3.661l13.9-2.1,22.693,16.456A2.234,2.234,0,0,1,319.547,269.309Zm-31.506-12.785a0,0,0,0,0,0,0,2.452,2.452,0,1,0-2.053,2.759v0.01h0.007A2.426,2.426,0,0,0,288.041,256.524Zm5.912,9.38a3.687,3.687,0,0,0-1.515.374,3.782,3.782,0,0,0-1.994,2.638,3.548,3.548,0,0,0,0,1.535,4.366,4.366,0,0,0,.748,1.378,5.611,5.611,0,0,0,2.682,1.968,4.508,4.508,0,0,0,1.575.246,3.53,3.53,0,0,0,1.5-.384,3.943,3.943,0,0,0,2-2.637,3.433,3.433,0,0,0-.02-1.486,4.412,4.412,0,0,0-.708-1.408,5.627,5.627,0,0,0-2.682-1.968A4.528,4.528,0,0,0,293.953,265.9Zm1.965-5.029,7.886,14.5,1.466-.738-7.887-14.547Zm14.8,4.241a4.389,4.389,0,0,0-.718-1.465,5.622,5.622,0,0,0-2.682-1.969,4.5,4.5,0,0,0-1.586-.256,3.672,3.672,0,0,0-1.515.374,3.8,3.8,0,0,0-1.994,2.637,3.543,3.543,0,0,0,.09,1.536,4.368,4.368,0,0,0,.717,1.417,5.622,5.622,0,0,0,2.682,1.969,4.49,4.49,0,0,0,1.576.245,3.547,3.547,0,0,0,1.5-.383,3.94,3.94,0,0,0,1.994-2.638l0.01,0.02A3.427,3.427,0,0,0,310.714,265.116Zm-2.533,2.776a1.926,1.926,0,0,1-.907.138,3.043,3.043,0,0,1-1-.265,5.5,5.5,0,0,1-1-.572,4.964,4.964,0,0,1-.828-0.758,3.137,3.137,0,0,1-.548-0.866,1.991,1.991,0,0,1-.16-0.9,1.853,1.853,0,0,1,1.107-1.5,2.088,2.088,0,0,1,.917-0.118,3.241,3.241,0,0,1,1,.265,5.071,5.071,0,0,1,1,.551,5.458,5.458,0,0,1,.848.758,2.945,2.945,0,0,1,.558.847,1.868,1.868,0,0,1,.14.895A1.969,1.969,0,0,1,308.181,267.892Zm-10.758,2.933a1.968,1.968,0,0,1-1.1,1.486,1.926,1.926,0,0,1-.907.138,3.05,3.05,0,0,1-1-.265,5.558,5.558,0,0,1-1-.571,5.013,5.013,0,0,1-.828-0.759,3.146,3.146,0,0,1-.548-0.865,2.011,2.011,0,0,1-.16-0.9A1.855,1.855,0,0,1,293,267.6a2.061,2.061,0,0,1,.917-0.118,3.283,3.283,0,0,1,1,.265,5.052,5.052,0,0,1,1,.552,5.4,5.4,0,0,1,.847.758,2.943,2.943,0,0,1,.528.875A1.862,1.862,0,0,1,297.423,270.825ZM278.31,289.112a2.261,2.261,0,0,1-1.994-2.471l1.705-16.338,8.744,19.685ZM271,310a2.229,2.229,0,0,1-2.243-2.214V297.733h-0.13v-3.121a2.274,2.274,0,0,1-.763.14H220.042a2.279,2.279,0,1,1,0-4.557h47.823a2.3,2.3,0,0,1,.763.139v-8.006a2.274,2.274,0,0,1-.763.139H220.042a2.279,2.279,0,1,1,0-4.557h47.823a2.274,2.274,0,0,1,.763.14v-8.006a2.3,2.3,0,0,1-.763.139H220.042a2.279,2.279,0,1,1,0-4.557h47.823a2.3,2.3,0,0,1,.763.139v-8.006a2.274,2.274,0,0,1-.763.139H237.912a2.279,2.279,0,1,1,0-4.557h29.953a2.274,2.274,0,0,1,.763.14v-14.3c-0.041,0,.041-0.361,0-0.36v-4.261l0.13-.005V229.2a2.244,2.244,0,0,1,4.487,0v78.579A2.229,2.229,0,0,1,271,310Zm-49.337-53.6,0,0a0,0,0,0,0,0,0,2.092,2.092,0,0,1-.216.175c-0.048.038-.092,0.083-0.142,0.116a2.329,2.329,0,0,1-.266.14c-0.044.021-.086,0.051-0.133,0.069a2.169,2.169,0,0,1-.334.1c-0.031.007-.06,0.021-0.09,0.027a2.313,2.313,0,0,1-.438.042,2.287,2.287,0,0,1-.437-0.042c-0.015,0-.029-0.009-0.044-0.013a2.244,2.244,0,0,1-.381-0.112c-0.014-.006-0.027-0.016-0.041-0.022a2.233,2.233,0,0,1-.356-0.186c-0.032-.021-0.06-0.051-0.091-0.074a2.339,2.339,0,0,1-.266-0.215v0l0,0-11.756-11.7a2.269,2.269,0,0,1,0-3.222,2.3,2.3,0,0,1,3.238,0l10.133,10.084,21.419-21.41a2.3,2.3,0,0,1,3.238-.008,2.269,2.269,0,0,1,.007,3.222Zm80.674,31.7-8.654,3.759a2.294,2.294,0,0,1-2.991-1.151l-7.3-16.387Z" transform="translate(-206 -227)"/>
</svg>
