<svg id="Layer_1" xmlns="http://www.w3.org/2000/svg" viewBox="0 0 120 120"><style>.st0{fill:none;} .st1{fill:#EBEDEE;} .st2{fill:#EFEFEF;} .st3{fill:#56B881;} .st4{fill:#FFFFFF;} .st5{fill:#DBDCDD;} .st6{fill:#8787C1;} .st7{fill:#8380C7;} .st8{fill:#47A06B;} .st9{fill:#28353D;} .st10{fill:#DADADB;} .st11{fill:#E8E8EA;} .st12{fill:#4FA877;} .st13{fill:#C8C8CB;} .st14{fill:#7775B7;} .st15{fill:#8688C2;} .st16{fill:#797AB8;} .st17{fill:#2F73A2;} .st18{fill:#3783BA;} .st19{fill:#256189;} .st20{fill:#337CAE;}</style><path class="st0" d="M30.8 15.1c.5-.1 1-.4 1.2-.9-.2-.3-.5-.5-.8-.6H31c-.6 0-1.1.4-1.2.9.2.3.5.5 1 .6z"/><path class="st1" d="M32 16.6v1.3c1-.4 1.8-1.4 1.9-2.7 0-.3 0-.7-.1-1-.2 1.1-.8 2-1.8 2.4zm-2.4-.1c-.8-.3-1.4-.9-1.7-1.7 0 1.3.7 2.3 1.6 2.8v.8h.1v-1.9zm1.4-2.9h.2c.3.1.6.3.8.6.1-.1.1-.3.1-.4 0-.7-.6-1.2-1.3-1.2-.7 0-1.3.6-1.3 1.3 0 .3.1.5.3.7.1-.6.6-1 1.2-1z"/><path class="st2" d="M11 53.3s0-.1 0 0v48-48zm0-3.3s0-.1 0 0v3.3V50zm0 51.5v-.2.2zm41.6-61.2v.5l9.7-3.2v-4.9h-.2l-11.4-1.5c1.3 2.9 2 6 1.9 9.1zm9.7 43.2v-4.7l-2 1zm25 13.5h.2l4 .5h2.8c.2 0 .4.2.4.4l.5.1v-.1c0-.2.2-.4.4-.4h1.9c.2 0 .4.2.4.4v.5l.8.1v-.6c0-.2.2-.4.4-.4h1.9c.2 0 .4.2.4.4v.9l.6.1v-1c0-.2.2-.4.4-.4h3.3c.3 0 .4.2.4.4v1.6l.7.1v-1.7c0-.2.2-.4.4-.4h2.8V87.1H87.3V97zM57.2 81.4L37.6 91.6v2.6l18-9.3c.3-.1.6 0 .7.2l6 11.9v-5.8l-5.1-9.8zm-2.8-33.2h.2c.2 0 .3.1.4.2l1.5 2.9c.1.1 0 .2 0 .3.1.2 0 .4-.2.5L50.7 55h-.2c-.2 0-.3-.1-.4-.2l-1.2-2.3c-.5.7-1.1 1.4-1.6 2.1l11.4 21.9 3.6-1.9v-3.2l-2.7 1.3h-.2c-.2 0-.3-.1-.4-.2l-3.8-7.6c-.1-.1 0-.2 0-.3-.1-.2 0-.5.2-.6l6.9-3.3v-7.1c-.2 0-.4-.1-.4-.3l-.6-3.2v-.3c-.1-.3.1-.5.3-.5l.7-.1v-.5l-.8.1h-.1c-.2 0-.4-.1-.4-.3l-.6-3.2V45c-.1-.3.1-.4.3-.4l1.6-.3v-2.9l-10.1 3.4c-.4 1.9-1.1 3.8-2 5.5l4.2-2.1zm2.7 13.1l-2.7 1.4h-.2c-.2 0-.3-.1-.4-.2l-.8-1.7v-.3c-.1-.2 0-.3.2-.4l2.7-1.4h.2c.1 0 .3.1.4.2l.8 1.7v.3c.1.1 0 .3-.2.4zm-.2-8.4c.1 0 .2.1.4.2l1.5 2.9v.3c.1.2 0 .3-.2.4L53 59.6h-.2c-.2 0-.3-.1-.4-.2l-1.5-2.9v-.3c-.1-.2 0-.3.2-.4l5.6-2.9h.2zm-9.4 9.9h-9.9v24.7l17.9-9.3zm44.7.4l-4.9 2.5v18.7h22.8v-9.2c-7.2-1.9-13.4-6.2-17.9-12zM97.5 75v.2c0 1.4-1.7 4-2.8 5.5.8.1 1.4.5 1.4.8v.2c0 .5-1.1.9-2.5.9s-2.5-.4-2.5-.9v-.2c0-.4.7-.7 1.6-.8-1.1-1.5-2.8-4.1-2.8-5.5V75c0-2.1 1.7-3.8 3.8-3.8 2.1 0 3.8 1.7 3.8 3.8zM87.3 61.6l2.8-1.4c-1.1-1.7-2-3.6-2.8-5.5v6.9zm3.7-20V41.3c0-3.9.8-7.6 2.2-11l-2.4-.3c-1.6 3.7-2.5 7.8-2.5 12.1 0 8.6 3.5 16.2 9.1 21.8 3.5 3.5 7.9 6.2 12.7 7.7V69C99 64.8 91 54.2 91 41.6zM45.6 59.2l-1-2c-.2.2-.4.3-.6.5l-1.8 1.5h3.4z"/><path class="st2" d="M44 57.7c-.7.5-1.4 1-2.2 1.5h.3c.7-.5 1.3-1 1.9-1.5zm49.2-27.4c-1.4 3.4-2.2 7.1-2.2 11v.1c0-4 .8-7.7 2.3-11.2l-.1.1zm-5.9 31.5l2.8-1.5c0-.1-.1-.1-.1-.2l-2.8 1.4v.3zM58.7 76.5v.2l3.6-1.9v-.2zm-3.2 1.7l-17.9 9.3v.2l18-9.4zm4.8 1.6l2 3.9v-.2l-2-3.7zm-13-25.2c-.1 0-.1.1 0 0l11.3 21.9h.1L47.3 54.6z"/><path class="st2" d="M58.662 76.68l-.092-.18.09-.045.09.177zM88.3 42s0 .1 0 0c0 8.7 3.5 16.4 9.1 22 3.5 3.5 7.9 6.2 12.7 7.7v-.2c-4.9-1.5-9.2-4.2-12.7-7.7-5.6-5.6-9.1-13.2-9.1-21.8zm-26-4.2v-.2l-9.7 3.2v.2l9.7-3.2zm-6 47.3c-.1-.2-.4-.3-.7-.2l-18 9.3v.1l18-9.3c.3-.1.6 0 .7.2l6 11.9V97l-6-11.9zm31-.6h22.8v.3H87.3zM42.2 59.2c-.1.1-.2.1-.3.2h3.9l-.1-.2h-3.5z"/><path class="st2" d="M41.8 59.2c-.1.1-.2.1-.3.2h.4c.1-.1.2-.1.3-.2h-.4zm54.3 22.4s0-.1 0 0c0-.5-.6-.8-1.4-.9 0 .1-.1.1-.1.2.8.1 1.4.4 1.5.7zm-3.3-.8c0-.1-.1-.1-.1-.2-.9.1-1.6.5-1.6.8v.1c.1-.3.8-.5 1.7-.7zM89.9 75v.1c.1-2.1 1.7-3.7 3.8-3.7 2.1 0 3.7 1.7 3.8 3.7V75c0-2.1-1.7-3.8-3.8-3.8-2.1 0-3.8 1.7-3.8 3.8zm9.3 22.8h1.9c.2 0 .4.1.4.4v-.3c0-.2-.2-.4-.4-.4h-1.9c-.2 0-.4.2-.4.4v.3c0-.2.2-.4.4-.4zm-3.5 0h1.9c.2 0 .4.1.4.4v-.3c0-.2-.2-.4-.4-.4h-1.9c-.2 0-.4.2-.4.4v.1h.1c0-.1.2-.2.3-.2zm-1.3 0c.1 0 .2 0 .3.1h.1c0-.2-.2-.4-.4-.4h-2.8l2.2.3h.6zm8.1 0h3.3c.3 0 .4.1.4.4v-.3c0-.2-.1-.4-.4-.4h-3.3c-.2 0-.4.2-.4.4v.3c0-.2.2-.4.4-.4zm4.4.1v.3c0-.2.2-.4.4-.4h2.8v-.3h-2.8c-.2 0-.4.2-.4.4zM55.4 64.3l6.9-3.3v-.3L55.4 64c-.2.1-.3.4-.2.6 0-.2.1-.3.2-.3zm1.9-3.7l-.8-1.7c-.1-.1-.3-.2-.4-.2h-.2l-2.7 1.4c-.2.1-.3.3-.2.4 0-.1.1-.2.2-.2l2.7-1.4h.2c.1 0 .3.1.4.2l.8 1.7v-.2zm-6.4-4.4c0-.1.1-.2.2-.2l5.6-2.9h.2c.1 0 .2.1.4.2l1.5 2.9V56l-1.5-2.9c-.2-.1-.3-.2-.4-.2h-.2l-5.6 2.9c-.2.1-.3.3-.2.4zm3.5-7.7h.2c.2 0 .3 0 .4.2l1.5 2.9c0-.1.1-.2 0-.3L55 48.4c-.1-.1-.2-.2-.4-.2h-.2l-4.2 2.2c-.1.1-.2.3-.2.4l4.4-2.3zm6.3-3.7l1.6-.3v-.2l-1.6.3c-.2 0-.4.2-.3.4 0-.1.2-.2.3-.2zm.9 4.8l.7-.1v-.3l-.7.1c-.2 0-.4.2-.3.5.1-.1.2-.2.3-.2z"/><path class="st3" d="M91 41.4v.2c0 12.6 8 23.2 19.1 27.3v-.3c-11.1-4-19-14.7-19.1-27.2z"/><path class="st3" d="M110.1 68.6v-36l-16.8-2.3c-1.5 3.4-2.3 7.2-2.3 11.2.1 12.4 8 23.1 19.1 27.1zm-8.6-12.7l1.2-3.2 1.1-3c.1-.2.3-.2.3 0l1.1 3 1.2 3.2v.2c0 .1 0 .2-.2.2h-1.9v.5c-.1.1-.2.2-.3.2s-.2-.1-.2-.2v-.5h-2.1c-.1 0-.2-.1-.2-.2v-.2c0 .1 0 0 0 0zm-3.3-13.4v.2c0 .1-.1.2-.3.2-.1 0-.2-.1-.2-.2v-.6h-2.1c-.1 0-.2-.1-.2-.2v-.2l1.2-3.2 1.2-3c.1-.2.3-.2.3 0l1.1 3 1.2 3.2v.2c0 .1 0 .2-.2.2h-2v.4z"/><path class="st3" d="M97.8 35.7c.1-.2.3-.2.3 0l1.1 3 1.2 3.1v-.1l-1.2-3.2-1.1-3c0-.2-.2-.2-.3 0l-1.2 3-1.2 3.2v.1l1.2-3.1 1.2-3zm.1 6.4h-.2v.1h.5v-.1zm5.9 7.8c.1-.2.3-.2.3 0l1.1 3 1.2 3.1v-.1l-1.2-3.2-1.1-3c0-.2-.2-.2-.3 0l-1.1 3-1.2 3.2v.1l1.2-3.1 1.1-3z"/><path class="st4" d="M62.3 78.5l-2.1 1.1.1.2 2-1zm25-13v.3l4.9-2.5-.2-.2-4.7 2.4zM57.1 81.2L37.6 91.4v.2l19.6-10.2zm30.2-15.7L92 63c-.7-.9-1.3-1.7-1.9-2.7l-2.8 1.5v3.7z"/><path class="st4" d="M55.6 78.3l-18 9.4v3.7l19.5-10.2zm6.7-3.5l-3.6 1.9 1.5 2.9 2.1-1.1v-3.7z"/><path class="st4" d="M60.34 79.75l-.088.047-.092-.177.088-.046z"/><path class="st4" d="M60.166 79.63l-1.523-2.927.09-.046 1.522 2.927zM45.6 59.2h.1l-1.1-2-.1.1 1.1 1.9zm2 3.6h-.1l8 15.4.1-.1zm9.6 18.6l5.1 9.8V91l-5-9.6z"/><path class="st4" d="M55.55 78.113l.088-.046.092.177-.09.047zM57.3 81.4l5 9.6v-7.3l-2-3.9zM47.2 54.7c-.3.4-.6.7-1 1.1-.5.5-1 .9-1.5 1.4l1.1 2h2.9v3.6h-1l8 15.3 3-1.5-11.5-21.9z"/><path class="st4" d="M55.54 78.112l3.017-1.567.092.177-3.02 1.568zM45.6 59.2l.1.2h.1l-.1-.2z"/><path class="st4" d="M48.6 59.2h-2.9l.1.2h2.8zm8.56 22.004l.09-.046.092.177-.09.046z"/><path class="st4" d="M55.56 78.33l.09-.047 1.52 2.93-.09.045zm1.727 3.05l-.092-.176 3.015-1.572.092.178z"/><path class="st4" d="M55.643 78.277l3.017-1.567 1.522 2.928-3.018 1.568zM92.3 63.2l-.1.1c4.5 5.7 10.7 10 18 12v-.2c-7.2-2-13.4-6.2-17.9-11.9zm-2.2-3c-1-1.8-2-3.7-2.8-5.7v.2c.8 1.9 1.7 3.8 2.8 5.5zm-1.8-18.3s0 .1 0 0c0-4.2.9-8.3 2.5-12h-.1c-1.5 3.7-2.4 7.7-2.4 12z"/><path class="st4" d="M90.1 60.4c.1-.1 0-.1 0-.2H90c.1.1.1.1.1.2z"/><path class="st4" d="M91.8 59.5l1.5 2.9.1-.1-1.6-3-1.7.9c0 .1.1.1.1.2l1.6-.9zm-2.4-27.3h.1l-.8-2.5-.1-.1zM92 63l.2.2.1-.1-.2-.2-.1.1z"/><path class="st4" d="M92.1 63c-.7-.9-1.3-1.7-1.9-2.7h-.1c.6.9 1.2 1.8 1.9 2.7h.1zm.2.2l1.1-.6-.1-.2-1.2.6c.1 0 .1.1.2.2z"/><path class="st4" d="M97.4 64c-5.6-5.6-9.1-13.3-9.1-21.9v-.2c0-4.3.9-8.3 2.4-12l-2.1-.3.8 2.5h-.1l.1.2-2.2.7v21.4c.8 2 1.7 3.9 2.8 5.6l1.7-.9 1.6 3-.1.1.1.2-1.1.6c4.5 5.7 10.7 9.9 17.9 11.9v-3.3c-4.8-1.4-9.2-4.1-12.7-7.6z"/><path class="st4" d="M90.2 60.3c.6.9 1.2 1.8 1.9 2.7l1.2-.6-1.5-2.9-1.6.8zM62.3 41.5v-.2l-10.1 3.4c0 .1 0 .1-.1.2l10.2-3.4z"/><path class="st4" d="M62.3 41.3v-1.1c-.2-.1-.3-.2-.3-.4v-.3c0-.2.1-.5.3-.6v-1.2L52.6 41c0 1.2-.2 2.4-.4 3.6l10.1-3.3zm-2.2-1.6c.3-.1.6.1.7.4v.3c.1.3-.1.5-.4.6-.3.1-.7-.1-.7-.4v-.3c-.1-.2.1-.5.4-.6zm-2.3.8c.3-.1.6.1.7.4v.3c.1.3-.1.5-.4.6-.3.1-.7-.1-.7-.4v-.3c-.1-.2.1-.5.4-.6zm-2.7 1.4c-.1-.3.1-.6.4-.7.3-.1.6.1.7.4v.3c.1.3-.1.6-.4.7-.4.1-.7-.1-.7-.4v-.3zm-2 .1c.3-.1.6.1.7.4v.3c.1.3-.1.5-.4.6-.3.1-.6 0-.7-.4v-.3c-.1-.2.1-.5.4-.6zm34.2-12.5z"/><path class="st4" d="M55.5 41.5c.3-.1.6.1.7.4v-.3c-.1-.3-.4-.5-.7-.4-.3.1-.5.4-.4.7.1-.2.2-.3.4-.4zm-2.4.7c.3-.1.6.1.7.4v-.2c-.1-.3-.4-.5-.7-.4-.3.1-.5.4-.4.6 0-.2.2-.3.4-.4zm4.7-1.5c.3-.1.6.1.7.4v-.2c-.1-.3-.4-.5-.7-.4-.3.1-.5.4-.4.6 0-.2.2-.3.4-.4zm4.5-1.5V39c-.2.1-.4.3-.3.6 0-.2.1-.4.3-.4zm-2.2.7c.3-.1.6.1.7.4v-.2c-.1-.3-.4-.5-.7-.4-.3.1-.5.4-.4.6 0-.2.2-.3.4-.4zm27.2-6.8l2.2-.7-.1-.2-2.1.7zm0-3.6v3.4l2.1-.7-.8-2.6z"/><path class="st3" d="M47.7 95.9l.9 2.5 13.7 1.8v-3.1l-6-11.9c-.1-.2-.4-.3-.7-.2l-18 9.3V97h.2l8.7 1.2.9-2.2c.1-.3.3-.3.3-.1zm2.3 6.3v-.1l-.1-.2h-.1l.2.3z"/><path class="st3" d="M47.4 96.1c.1-.2.3-.2.3 0l.8 2.3h.1l-.9-2.5c0-.2-.2-.2-.3 0l-.9 2.2h.1l.8-2z"/><path class="st4" d="M87.3 86.9h22.8v.2H87.3zm0-2.1v.6c.1.1.1.2.1.3v.2c0 .1 0 .2-.1.3v.7h22.8v-2.1H87.3zm2.4 1.1c0 .3-.3.6-.6.6s-.6-.2-.6-.6v-.2c0-.3.3-.6.6-.6s.6.3.6.6v.2zm2.3 0c0 .3-.3.6-.6.6s-.6-.2-.6-.6v-.2c0-.3.3-.6.6-.6s.6.3.6.6v.2zm2.1.4c-.1.1-.2.2-.4.2s-.3 0-.4-.2c-.1-.1-.2-.2-.2-.4v-.2c0-.1.1-.3.2-.4.1-.1.2-.2.4-.2.1 0 .3.1.4.2.1.1.2.2.2.4v.2c0 .1-.1.3-.2.4z"/><path class="st4" d="M89.1 85.1c-.3 0-.6.3-.6.6v.1c.1-.3.3-.5.6-.5s.5.2.6.5v-.1c0-.3-.3-.6-.6-.6zm2.3 0c-.3 0-.6.3-.6.6v.1c.1-.3.3-.5.6-.5s.5.2.6.5v-.1c0-.3-.3-.6-.6-.6zm-4.1.5c0 .1.1.1.1.2v-.1c0-.1 0-.2-.1-.3v.2zm6.4-.3c.1 0 .3.1.4.2.1.1.1.2.2.3v-.1c0-.2-.1-.3-.2-.4-.1-.1-.3-.2-.4-.2-.2 0-.3.1-.4.2-.1.1-.2.3-.2.4v.1c0-.1.1-.2.2-.3.1-.1.2-.2.4-.2zM47.4 62.6h-9.8v.2h9.9zm-5.5-3.2c-1.4.9-2.8 1.7-4.3 2.3v.9h9.8l-1.7-3.2h-3.8z"/><path class="st4" d="M41.5 59.4c-1.2.7-2.5 1.3-3.9 1.7v.6c1.5-.6 2.9-1.4 4.3-2.3h-.4zm6 3.2h-.1l.1.2h.1z"/><path class="st4" d="M48.6 62.6h-1.1l.1.2h1zm-2.8-3.2h-.1l1.7 3.2h.1z"/><path class="st4" d="M48.6 59.4h-2.8l1.7 3.2h1.1z"/><path class="st5" d="M93.6 82.4c-1.3 0-2.3-.3-2.5-.8v.1c0 .5 1.1.9 2.5.9s2.5-.4 2.5-.9v-.1c-.2.5-1.2.8-2.5.8z"/><path class="st5" d="M94.5 80.9c-.3.4-.5.6-.6.8-.1.1-.3.1-.4 0-.2-.2-.4-.5-.7-.9-.9.1-1.6.4-1.7.8.1.5 1.2.8 2.5.8s2.3-.3 2.5-.8c-.1-.3-.7-.6-1.6-.7z"/><path class="st6" d="M89.9 75.1s0 .1 0 0c0 1.5 1.7 4 2.8 5.6h.1c-1.1-1.5-2.8-4.1-2.9-5.6zm4.8 5.6c1.1-1.5 2.8-4.1 2.8-5.5v-.1c-.1 1.5-1.9 4.1-2.9 5.6h.1zm-.3.2h.1c0-.1.1-.1.1-.2h-.1s-.1.1-.1.2zm-1.4-.1c0-.1-.1-.1-.1-.2h-.1c0 .1.1.1.1.2h.1z"/><path class="st6" d="M93.7 71.4c-2.1 0-3.7 1.7-3.8 3.7.1 1.5 1.8 4.1 2.9 5.5h.8c.3 0 .7 0 .9.1 1.1-1.5 2.9-4.1 2.9-5.6 0-2-1.6-3.7-3.7-3.7zm1.4 3.2c0 .8-.6 1.4-1.4 1.4s-1.4-.6-1.4-1.4v-.2c0-.8.6-1.4 1.4-1.4s1.4.6 1.4 1.4v.2c0-.1 0 0 0 0z"/><path class="st6" d="M93.6 80.8c.3 0 .6 0 .8.1 0-.1.1-.1.1-.2-.3 0-.6-.1-.9-.1h-.8c0 .1.1.1.1.2h.7zm.1-7.8c-.8 0-1.4.6-1.4 1.4v.1c.1-.7.7-1.3 1.4-1.3s1.3.6 1.4 1.3v-.1c0-.8-.6-1.4-1.4-1.4z"/><path class="st6" d="M93.5 81.5c-.1-.2-.3-.4-.5-.7h-.1c.3.4.5.7.7.9.1.1.3.1.4 0 .2-.2.4-.5.6-.8h-.1c-.2.3-.4.5-.5.6-.2.1-.4.1-.5 0z"/><path class="st6" d="M93 80.8c.2.3.4.5.5.7.1.1.3.1.4 0 .1-.2.3-.4.5-.6-.3 0-.5-.1-.8-.1H93z"/><path class="st2" d="M93.7 75.8c-.7 0-1.3-.6-1.4-1.3v.1c0 .8.6 1.4 1.4 1.4s1.4-.6 1.4-1.4v-.1c-.1.7-.7 1.3-1.4 1.3z"/><path class="st2" d="M93.7 73.2c-.7 0-1.3.6-1.4 1.3.1.7.7 1.3 1.4 1.3s1.3-.6 1.4-1.3c-.1-.7-.7-1.3-1.4-1.3z"/><path class="st5" d="M101.5 98.2c0-.3-.2-.4-.4-.4h-1.9c-.2 0-.4.2-.4.4v.3l2.7.4v-.7zm-3.9-.4h-1.9c-.1 0-.3.1-.3.2l2.6.4v-.2c0-.3-.2-.4-.4-.4zm-3.2 0h-.6l.9.1c-.1-.1-.2-.1-.3-.1zm11.8.4c0-.3-.1-.4-.4-.4h-3.3c-.2 0-.4.2-.4.4v.7l4.1.6v-1.3zm3.9-.4h-2.8c-.2 0-.4.2-.4.4v1.4l3.2.4v-2.2zM59.6 72.4h-.2c-.2 0-.3-.1-.4-.2l-3.8-7.6v.3l3.8 7.6c.1.1.2.2.4.2h.2l2.7-1.3v-.3l-2.7 1.3z"/><path class="st5" d="M59 72.2c.1.1.2.2.4.2h.2l2.7-1.3V61l-6.9 3.3c-.1 0-.2.1-.2.3l3.8 7.6zm-1.9-11.1l-2.7 1.4h-.2c-.2 0-.3-.1-.4-.2l-.8-1.7v-.1.3l.8 1.7c.1.1.2.2.4.2h.2l2.7-1.4c.2-.1.3-.3.2-.4 0 .1-.1.1-.2.2z"/><path class="st5" d="M56.5 59.1c-.1-.1-.3-.2-.4-.2h-.2l-2.7 1.4c-.1.1-.2.1-.2.2v.1l.8 1.7c.1.1.2.2.4.2h.2l2.7-1.4c.1-.1.2-.1.2-.2v-.1l-.8-1.7zm2.1-2.6L53 59.4h-.2c-.2 0-.3-.1-.4-.2l-1.5-2.9v-.1.3l1.5 2.9c.1.1.2.2.4.2h.2l5.6-2.9c.2-.1.3-.3.2-.4 0 .1-.1.1-.2.2z"/><path class="st5" d="M57.3 53.3c-.2-.1-.3-.2-.4-.2h-.2L51.1 56c-.1.1-.2.1-.2.2v.1l1.5 2.9c.1.1.2.2.4.2h.2l5.6-2.9c.1-.1.2-.1.2-.2v-.1l-1.5-2.9zm-1-1.5l-5.6 2.9h-.2c-.2 0-.3-.1-.4-.2L49 52.4l-.1.1 1.2 2.3c.1.1.2.2.4.2h.2l5.6-2.9c.2-.1.3-.3.2-.5 0 .1-.1.2-.2.2z"/><path class="st5" d="M55 48.7c-.1-.2-.2-.2-.4-.2h-.2l-4.5 2.3c-.3.5-.6 1.1-.9 1.6l1.1 2.1c.1.1.2.2.4.2h.2l5.6-2.9c.1 0 .2-.1.2-.2L55 48.7zm6.5-.1c-.3 0-.5-.1-.5-.3l-.6-3.2V45v.3l.6 3.2c0 .2.2.3.4.3h.1l.8-.1v-.2l-.8.1z"/><path class="st5" d="M61 48.3c0 .2.2.3.4.3h.1l.8-.1v-3.9l-1.6.3c-.1 0-.3.1-.3.2v.1l.6 3.1zm.9 4.7l-.6-3.2v.3l.6 3.2c0 .2.2.3.4.3v-.3c-.2 0-.4-.1-.4-.3z"/><path class="st5" d="M62.3 53.3v-3.8l-.7.1c-.1 0-.2.1-.3.2l.6 3.2c0 .2.2.3.4.3z"/><path class="st7" d="M53.4 43.1c-.3.1-.6 0-.7-.4v-.1.3c.1.4.4.5.7.4.3-.1.5-.4.4-.6 0 .2-.2.3-.4.4zm4-1.7c0 .3.4.5.7.4.3-.1.5-.4.4-.6 0 .2-.2.4-.4.4-.3.1-.7-.1-.7-.4v-.1.3zm2.3-.8c0 .3.4.5.7.4.3-.1.5-.4.4-.6 0 .2-.2.4-.4.4-.3.1-.7-.1-.7-.4v-.1.3zm2.3-1v.2c0 .2.1.3.3.4V40c-.2-.1-.3-.2-.3-.4zm-6.9 2.6c0 .3.3.5.7.4.3-.1.5-.4.4-.7-.1.2-.2.3-.4.4-.4.1-.7 0-.7-.4v.3z"/><path class="st7" d="M53.1 42.2c-.2.1-.4.2-.4.4v.1c.1.4.4.5.7.4.2-.1.4-.2.4-.4v-.1c-.1-.3-.4-.5-.7-.4zm9.2-2.2v-.8c-.2.1-.3.2-.3.4v.1c0 .1.1.2.3.3zm-1.9.8c.2-.1.4-.2.4-.4v-.1c-.1-.3-.4-.5-.7-.4-.2.1-.4.2-.4.4v.1c0 .3.4.5.7.4zm-2.3.8c.2-.1.4-.2.4-.4v-.1c-.1-.3-.4-.5-.7-.4-.2.1-.4.2-.4.4v.1c0 .3.4.5.7.4zm-2.3.7c.2-.1.3-.2.4-.4-.1-.3-.4-.5-.7-.4-.2.1-.3.2-.4.4 0 .4.3.5.7.4zm33.3 44c-.3 0-.5-.2-.6-.5v.1c0 .4.3.6.6.6s.6-.3.6-.6v-.1c-.1.3-.3.5-.6.5zm-1.8-.1c.1-.1.1-.2.1-.3v-.1c0 .1 0 .1-.1.2v.2zm4.1.1c-.3 0-.5-.2-.6-.5v.1c0 .4.3.6.6.6s.6-.3.6-.6v-.1c-.1.3-.3.5-.6.5z"/><path class="st7" d="M89.1 85.3c-.3 0-.5.2-.6.5.1.3.3.5.6.5s.5-.2.6-.5c-.1-.3-.3-.5-.6-.5zm-1.8.7c0-.1.1-.1.1-.2s0-.1-.1-.2v.4zm4.1-.7c-.3 0-.5.2-.6.5.1.3.3.5.6.5s.5-.2.6-.5c-.1-.3-.3-.5-.6-.5zm2.7.8c-.1.1-.2.2-.4.2s-.3-.1-.4-.2c-.1-.1-.1-.2-.2-.3v.1c0 .2.1.3.2.4.1.2.2.2.4.2s.3-.1.4-.2c.1-.1.2-.3.2-.4v-.1c-.1.1-.1.2-.2.3z"/><path class="st7" d="M93.7 86.3c.2 0 .3-.1.4-.2.1-.1.1-.2.2-.3 0-.1-.1-.2-.2-.3-.1-.1-.3-.2-.4-.2-.2 0-.3.1-.4.2-.1.1-.1.2-.2.3 0 .1.1.2.2.3.1.1.2.2.4.2z"/><path class="st8" d="M98.2 42l2 .1c.2 0 .2-.1.2-.2v-.1s-.1.1-.2.1h-4.6c-.1 0-.1 0-.2-.1v.1c0 .1.1.2.2.2h2.1V42h.5z"/><path class="st8" d="M95.6 41.9h4.6c.1 0 .2 0 .2-.1l-1.2-3.1-1.1-3c0-.2-.2-.2-.3 0l-1.2 3-1.2 3.1c.1.1.1.1.2.1zm2.6.2V42h-.5v.1h.2z"/><path class="st9" d="M97.9 42.7c-.1 0-.2-.1-.2-.2v.2c0 .1.1.2.2.2.2 0 .3-.1.3-.2v-.2c0 .1-.1.2-.3.2z"/><path class="st9" d="M97.7 42.5c0 .1.1.2.2.2.2 0 .3-.1.3-.2v-.3h-.5v.3z"/><path class="st8" d="M101.7 56.3h2.1v-.2h-2.1c-.1 0-.1 0-.2-.1v.1c0 .1.1.2.2.2zm4.5-.2h-1.9v.2h1.9c.2 0 .2-.1.2-.2V56c0 .1-.1.1-.2.1z"/><path class="st8" d="M101.7 56.1h4.5c.1 0 .2 0 .2-.1l-1.2-3.1-1.1-3c0-.2-.2-.2-.3 0l-1.1 3-1.2 3.1c.1.1.1.1.2.1zm2.3 0h-.2v.2h.5v-.2z"/><path class="st9" d="M103.8 56.6v.2c0 .1.1.2.2.2s.2-.1.3-.2v-.2c-.1.1-.2.2-.3.2s-.2-.1-.2-.2z"/><path class="st9" d="M103.8 56.3v.3c0 .1.1.2.2.2s.2-.1.3-.2v-.3h-.5z"/><path class="st8" d="M47.4 96.1l-.8 2 1.9.3-.8-2.3c0-.2-.2-.2-.3 0z"/><path class="st10" d="M35.4 92.7l-11.6 6.1 6.6-.9 5-2.6zm0-29.9h-1.2c-1.6.3-3.2.5-4.8.5-1.6 0-3.3-.2-4.9-.6H14.3v36.8l21-10.9V62.8zm-21-5.5v1.8h2.2c-.8-.5-1.5-1.2-2.2-1.8z"/><path class="st10" d="M29.4 63.3c1.6 0 3.2-.2 4.8-.5h-9.7c1.6.3 3.3.5 4.9.5zm-9.9-4.2c-1.5-.9-3-2-4.3-3.3-.3-.3-.6-.6-.8-.9v2.4c.7.7 1.4 1.3 2.2 1.8h2.9zm15.9 29.7v-.2l-21 10.9v.2zm0 6.5l-5 2.6.4-.1 4.6-2.3zM16.5 59.1h-2.2v.2h2.5c-.1-.1-.2-.1-.3-.2z"/><path class="st10" d="M19.5 59.1h-2.9c.1.1.2.1.3.2h3c-.2 0-.3-.1-.4-.2zm18.1 3.7h-2.2v25.8l2.2-1.1zm0 28.8l-2.2 1.1v2.6l2.2-1.1z"/><path class="st10" d="M37.6 87.5l-2.2 1.1v.2l2.2-1.1zm-2.2 7.8v.2l2.2-1.2v-.1zm-21-32.6h8.2z"/><path class="st11" d="M35.4 92.5l-12.1 6.3h.5l11.6-6.1z"/><path class="st11" d="M35.4 88.8l-21 10.9v.3l8.9-1.2 12.1-6.3zm2.2 2.6l-2.2 1.1v.2l2.2-1.1z"/><path class="st11" d="M37.6 87.7l-2.2 1.1v3.7l2.2-1.1z"/><path class="st12" d="M30.8 97.8l4.6-.6v-1.7zm4.6-2.3v1.8l2-.3h.2v-2.6l-2.2 1.1z"/><path class="st11" d="M22.6 62.7h1.9zm12.5-.1c-.3.1-.6.1-.9.2h1.2v-.2h-.3zm-10.6.1c-.3-.1-.5-.1-.8-.2h-9.3v.2h10.1z"/><path class="st11" d="M35.1 62.6H23.7c.3.1.5.1.8.2h9.7c.3-.1.6-.2.9-.2zm-20.7-3.3v3.2h9.3c-2.4-.7-4.7-1.7-6.8-3.2h-2.5zm21 3.2c-.1 0-.2.1-.3.1l.3-.1z"/><path class="st11" d="M35.4 62.5v-.7c-5.2 1.2-10.8.4-15.6-2.4h-3c2.1 1.5 4.4 2.6 6.8 3.2H35c.2-.1.3-.1.4-.1zm0 .1h2.2v.2h-2.2zm2.2 0v-.9c-.7.3-1.5.6-2.2.8v.1h2.2z"/><path class="st11" d="M37.6 61.1c-.7.2-1.5.4-2.2.6v.7c.7-.2 1.5-.5 2.2-.8v-.5z"/><path class="st10" d="M84.9 41.9c0-2.9.4-5.6 1-8.3l-13.8 4.6 4.7 28.9 10.5-5.5v-6.9c-.1-.1-.1-.3-.2-.4-.1-.2-.2-.5-.3-.7l-.3-.9c-.1-.2-.2-.5-.2-.7l-.3-.9c-.1-.2-.1-.5-.2-.7-.1-.3-.1-.6-.2-.9-.1-.2-.1-.5-.2-.7-.1-.3-.1-.6-.2-1 0-.2-.1-.5-.1-.7 0-.3-.1-.7-.1-1 0-.2-.1-.4-.1-.7 0-.4-.1-.8-.1-1.1V42c.1.1.1 0 .1-.1 0 .1 0 0 0 0zM62.7 81c0-.2 0-.4.2-.5l9.5-5.2.2-.1c.2 0 .3.1.4.3l2.3 23 1.3-.2-2.5-25.7-5.6 2.9-6.2 3.2v4.8l8.1 15.6 2-.3-9.7-17.6V81zm23.6-51.4l-4.8.6-.1.1-1.8.6h-.1c-.2 0-.3-.1-.4-.3l-.6.1v.1c.1.2 0 .4-.3.5l-5.4 1.8h-.2c-.2 0-.5-.2-.5-.4l-.2-1.2-.9.1.5 2.9 14.8-4.9zM67 43.5c.2 0 .4.1.4.3L68 47v.3c.1.3-.1.4-.3.4l-5.4 1v.5l5.6-1c.1 0 .3.2.4.3l.6 3.2v.3c.1.3-.1.5-.3.5l-6.2 1.1h-.1v7.1l7-3.4h.2c.2 0 .3.2.5.3l1.6 8.6c.1.2 0 .3-.1.4 0 .2-.1.3-.2.4l-9 4.4v3.2l11.3-5.8-4.7-29.5-6.5 2.2v2.9l4.6-.9zm2.5 10l.3 1.8v.3c.1.3-.1.4-.3.4l-6.2 1.1h-.1c-.2 0-.4-.1-.4-.3l-.3-1.8v-.3c-.1-.3.1-.4.3-.4l6.3-1.1c.2 0 .3.1.4.3zm-1.3-17.9l-.6-3.6-5.1.7h-.2v4.9l5.9-2zM80 97.9l1.3-.2c0-.1.1-.2.3-.2H83l4.1-.5h.2v-9.9h-8.4L80 97.9zM62.3 97l1.6 3 2.8-.4-4.4-8.4zm15.1-26.1l1.3 13.6h8.6V65.8l-8.6 4.4z"/><path class="st10" d="M78.5 66.4l8.8-4.6v-.2l-10.5 5.5v.2zm-4.9 2.4l-11.3 5.8v.2L73.6 69zM62.3 83.7l8 15.5h.1l-8.1-15.7zm15-12.8l1.4 13.6-1.3-13.6zm8.6-37.3c-.7 2.7-1 5.4-1 8.3v.1c0-.6 0-1.3.1-1.9v-.6c0-.5.1-.9.1-1.4 0-.2.1-.5.1-.7.1-.4.1-.9.2-1.3 0-.2.1-.4.1-.6.1-.6.2-1.1.4-1.6v-.3zm-17.6 2.2l-.1-.2-5.9 2v.2zm3.2-1.1l10.1-3.3 5.6-1.9-.9.1-14.8 4.9zm15.8-5.2h-.1zM63.9 100l-1.6-3v.1l1.5 2.9zm14.8-15.5v.3h8.6v-.3zm-7.2-50l-.5-2.9.5 2.9zm2.6 16.3l2.7 16.3-4.7-28.9zm2.7 16.5v-.2zm-5.3-32.6v-.2.2zm10 62.8c-.1 0-.2.1-.3.2l1.7-.2h-1.4zM69.3 57.6h.2c.2 0 .3.1.4.3l1.6 8.6v.1c.1-.1.1-.3.1-.4L70 57.6c-.2-.1-.3-.3-.5-.3h-.2l-7 3.4v.3l7-3.4zM67 43.7c.2 0 .4.2.4.3l.6 3.2V47l-.6-3.2c0-.2-.2-.3-.4-.3l-4.7.8v.2l4.7-.8zm.9 4.8c.1 0 .3.1.4.3l.6 3.2v-.3l-.6-3.2c-.1-.1-.3-.3-.4-.3l-5.6 1v.3l5.6-1zm-5.4 6.2c0-.2.2-.2.3-.2l6.3-1.1c.2 0 .3.1.4.3l.3 1.8v-.2l-.3-1.8c-.1-.2-.2-.3-.4-.3l-6.3 1.1c-.2 0-.4.2-.3.4zm16-23.9v-.1h-.1l.1.1c0-.1 0-.1 0 0zm-5.9 44.4l-.2.1-9.5 5.2c-.2.1-.3.3-.2.5 0-.1.1-.3.2-.3l9.5-5.2.2-.1c.2 0 .3.1.4.4l2.2 22.7-2.3-23c0-.2-.1-.3-.3-.3zm6.1-5l8.6-4.4zm-16.4 8.6l6.2-3.2-6.2 3.2zm14.5-11.5l1.7-.9-1.7.9zm9.1-16.8c.1.2.1.5.2.7 0-.3-.1-.5-.2-.7zm-1-6.7v.6c.1-.2.1-.4 0-.6zm2 9.8c.1.2.2.5.3.7-.2-.2-.2-.5-.3-.7zm-.5-1.5c.1.2.1.5.2.7-.1-.3-.2-.5-.2-.7zm-1.1-4.9c0 .2.1.5.1.7 0-.2-.1-.5-.1-.7zm-.4-5.1s0-.1 0 0c0-.1 0-.1 0 0 0-.1 0 0 0 0zm.7 6.7c0 .2.1.5.2.7-.1-.2-.2-.4-.2-.7zm-.5-3.3c0 .2.1.4.1.7-.1-.2-.1-.5-.1-.7z"/><path class="st10" d="M85.4 36.1c-.1.4-.1.9-.2 1.3.1-.4.2-.9.2-1.3zm-.3 2c0 .4-.1.9-.1 1.4 0-.5.1-1 .1-1.4zm.8-4.3c-.1.5-.3 1.1-.4 1.6.2-.5.3-1.1.4-1.6zm-1 8.2c0-.6 0-1.3.1-1.9-.1.6-.1 1.3-.1 1.9zm-3.3-10.6l5.6-1.9zm-4.8 35.7l-2.7-16.3 2.7 16.3zm-8-27.8zM62.3 61l7-3.4z"/><path class="st11" d="M77.4 70.9l1.3-.7-1.3.7zm-8.9 4.7l5.6-3zm18.8-13.8l-8.8 4.6zM74.1 72.4l-11.8 6.1v.3l6.2-3.2 5.6-3zm3.3-1.5l1.3-.7 8.6-4.4v-.3l-10 5.2z"/><path class="st11" d="M78.5 66.4l-1.7.9.5 2.9v.5l10-5.2v-3.7zM73.6 69l-11.3 5.8v3.7l11.8-6.1-.2-1.5z"/><path class="st11" d="M77.3 70.9h.1l-.1-.2zm-1.7-.3l1.7-.1v.2-.4.1zm1.7-.4l-.5-2.9zm0 .5v-.2z"/><path class="st11" d="M77.3 70.5l-1.7.1v.1zM73.6 69l.3 1.9-.3-1.9zm3.7 1.4v-.1zm-15 20.8l4.4 8.4h.1L62.3 91zm0-.2l4.5 8.6 3.5-.4-8-15.5zm11.8-18.4l2.5 25.7-2.5-25.7zm4.4 14.5v-2.6h.2l-1.3-13.6-1.1.6v.1c.1.3-.2.6-.5.6H75.5s-.1 0-.1-.1h-.1l-1.1.6 2.5 25.7 3.4-.4-1-10.8h-.6zm-3.1-12.7c0-.1 0-.1 0 0-.1-.1-.1-.2-.1-.3v-.2c0-.3.2-.5.5-.6.3-.1.6.2.6.5v.2c.1.3-.2.6-.5.6H75.6s-.1 0-.1-.1h-.1v-.1zm.3 2.4c0-.1 0-.1 0 0-.1-.1-.1-.2-.1-.3v-.2c-.1-.4.2-.6.5-.6.3-.1.6.2.6.5v.2c.1.3-.2.6-.5.6H75.9s-.1 0-.1-.1h-.1v-.1zm.2 2.4c0-.1 0-.1 0 0-.1-.1-.1-.2-.1-.3V78.6c0-.3.2-.6.5-.6.3-.1.6.2.6.5v.3c.1.3-.2.6-.5.6H76.1s-.1 0-.1-.1h-.1v-.1zm.2 2.3c0-.1 0-.1 0 0-.1-.2-.1-.2-.1-.3V81c0-.3.2-.6.5-.6.3-.1.6.2.6.5v.2c.1.3-.2.6-.5.6H76.3s-.1 0-.1-.1h-.1v-.1zm.2 2.4c0-.1 0-.1 0 0-.1-.1-.1-.2-.1-.3v-.2c0-.3.2-.6.5-.6.3-.1.6.2.6.5v.2c.1.3-.2.6-.5.6H76.5s-.1 0-.1-.1h-.1v-.1zm.8 2.6H76.8s-.1 0-.1-.1h-.1l-.1-.1v-.5c-.1-.3.2-.6.5-.6.3-.1.6.2.6.5v.2c.1.3-.2.6-.5.6z"/><path class="st11" d="M78.7 84.5h-.2v.3h.2zm-2.6-8.6h.3s.1 0 .1.1h.1l.1.1v.1c0-.3-.3-.6-.6-.5-.3 0-.6.2-.5.6.1-.2.3-.4.5-.4zm-.3-2.4h.3s.1 0 .1.1h.1l.1.1v.1c0-.3-.3-.6-.6-.5-.3.1-.5.3-.5.6v.1c.1-.3.2-.5.5-.5zm1.8 12.2c0-.3-.3-.6-.6-.5-.3 0-.6.3-.5.6.1-.2.3-.4.5-.4h.3s.1 0 .1.1h.1c0 .1 0 .1.1.2-.1 0-.1 0 0 0zm-1.1-5.1h.3s.1 0 .1.1h.1l.1.1v.1c0-.3-.3-.6-.6-.5-.3 0-.5.3-.5.6v.1c.1-.3.2-.5.5-.5zm.2 2.4h.3s.1 0 .1.1h.1l.1.1v.1c0-.3-.3-.6-.6-.5-.3 0-.5.3-.5.6v.1c.1-.3.2-.5.5-.5zm-.4-4.7h.3s.1 0 .1.1h.1l.1.1c0-.3-.3-.6-.6-.5-.3 0-.5.3-.5.6v.1c.1-.3.3-.4.5-.4zm-.1-6.7zm-2.1.8v.2-.2zm-.2-1.5l.2 1.5-.2-1.5zm1.2 1s0-.1 0 0l-1.1.5v.3l1.1-.6c.1-.1.1-.1 0-.2.1 0 .1 0 0 0zm1.1-.6v.2l1.1-.6v-.3l-1.1.7z"/><path class="st11" d="M75.6 70.7l-1.7.2.1 1.5 1.1-.5V71.6c0-.3.2-.6.5-.6.3-.1.5.1.6.4l1.1-.6v-.2l-1.7.1zm.6.6c-.1 0-.1 0 0 0z"/><path class="st11" d="M75.6 70.9c-.3 0-.5.3-.5.6v.1c0-.3.2-.5.5-.5h.3s.1 0 .1.1h.1s0 .1.1.1h.1c-.2-.3-.4-.5-.7-.4zm-.3 1.2zm1.1 9.6zm-.3-.2c0-.1 0-.1 0 0 0-.1 0-.1 0 0zm.3 2.5zm-.4-4.7zm-.6-4.9c0-.1 0-.1 0 0 0-.1 0-.1 0 0zm1.3 12zm-.1-2.3zm.3 2.4zm-.3-.2c0-.1 0-.1 0 0 0-.1 0-.1 0 0zm-.9-11.7zm-.2-2.4zM76 77zm.3 6.9c0-.1 0-.1 0 0 0-.1 0-.1 0 0zm-.1-2.3zm-.3-2.4c0-.1 0-.1 0 0 0-.1 0-.1 0 0zm-.2-2.4c0-.1 0-.1 0 0 0-.1 0-.1 0 0zm.1.1zm.4 2.5zm-.7-4.9zm1.8 8.8c-.1 0-.1 0 0 0-.1 0-.1 0 0 0zm-.2-2.4c-.1 0-.1 0 0 0-.1 0-.1 0 0 0zm-.2 2.1zm-.4-4.7zm.2 2.3zm.2.1zm.2 2.4zm-.4-4.7zm0-2.2c-.1 0-.1 0 0 0-.1 0-.1 0 0 0zm.2 2.4c-.1 0-.1 0 0 0-.1 0-.1 0 0 0zm-.6-2.7zm-.3-2.4zm.5 2.5zm-.3-2.4zm1.2 11.9zm-1-11.7c-.1 0-.1 0 0 0-.1 0-.1 0 0 0zm.8 11.6zm.3.2c0 .1 0 .1 0 0 0 .1 0 .1 0 0zM75.2 72c0-.1 0-.1 0 0 0-.1 0-.1 0 0zm.9-.7c0 .1 0 .1 0 0 0 .1 0 .1 0 0zm-.1-.1zm-.2-.1zM85 44.4c0 .4 0 .8.1 1.1-.1-.4-.1-.7-.1-1.1zm.1 1.8c0 .3.1.7.1 1 0-.3 0-.7-.1-1zm1.5 6.6l.3.9c-.1-.4-.2-.7-.3-.9zm-1.2-4.9c.1.3.1.6.2 1-.1-.4-.2-.7-.2-1zm.3 1.6c.1.3.1.6.2.9 0-.2-.1-.5-.2-.9zm.4 1.7l.3.9-.3-.9zm-1.2-9.1zm2.4 12.6c-.1-.1-.1-.3-.2-.4.1.2.1.3.2.4zm-2.1-17.3c0 .2-.1.5-.1.7.1-.2.1-.5.1-.7zm.3-2c0 .2-.1.4-.1.6.1-.1.1-.3.1-.6zm-.5 4.1zm.9-5.7c0-.1 0-.1.1-.2-.1.1-.1.1-.1.2z"/><path class="st11" d="M84.9 42.1v2.3c0 .4 0 .8.1 1.1 0 .2.1.4.1.7 0 .3.1.7.1 1 0 .2.1.5.1.7.1.3.1.6.2 1 0 .2.1.5.2.7.1.3.1.6.2.9.1.2.1.5.2.7l.3.9c.1.2.1.5.2.7l.3.9c.1.2.2.5.3.7.1.1.1.3.2.4v-.2c-1.6-4-2.5-8.2-2.5-12.5 0-.1 0 0 0 0z"/><path class="st11" d="M85.9 33.8c-.1.5-.3 1.1-.4 1.6 0 .2-.1.4-.1.6-.1.4-.1.9-.2 1.3 0 .2-.1.5-.1.7 0 .5-.1 1-.1 1.5v.6c0 .6-.1 1.3-.1 1.9 0 4.4.9 8.6 2.4 12.5V33.1l-1.3.5c-.1.1-.1.1-.1.2zm-4.3-2.4l-10.1 3.3zm-12.8 7.9v-.2l-6.5 2.2v.2zm3.3-1.1l13.8-4.6c0-.1 0-.1.1-.2L72.1 38v.2z"/><path class="st11" d="M85.9 33.6c.1-.1.1-.2.1-.2h-.1v.2zm-23.5 5.3c.3-.1.6.1.7.4v.3c.1.3-.1.5-.4.6H62.4v1.1l6.5-2.2-.5-3.3-6 2V39c-.1-.1 0-.1 0-.1zm4.6-1.5c.3-.1.6.1.7.4v.3c.1.3-.1.5-.4.6h-.5l-.1-.1c0-.1-.1-.1-.1-.2v-.3c-.1-.3.1-.6.4-.7zm-2.7 1.4c-.1-.3.1-.6.4-.7.3-.1.6.1.7.4v.3c.1.3-.1.6-.4.7h-.5l-.1-.1c0-.1-.1-.1-.1-.2v-.4z"/><path class="st11" d="M71.5 34.7L72 38l14-4.6c.3-1.3.8-2.6 1.2-3.9l-5.6 1.9-10.1 3.3z"/><path class="st11" d="M87.3 29.5c-.6 1.3-1 2.6-1.3 3.9h.1c.3-1.4.7-2.7 1.2-3.9zM72 38l.1.2V38zm0 0h.1l-.6-3.3zm-7.3.4h.5l.1.1c0 .1.1.1.1.2v-.3c-.1-.3-.4-.5-.7-.4-.3.1-.5.4-.4.7.1-.1.2-.2.4-.3zm-2.3.7h.5l.1.1c0 .1.1.1.1.2v-.2c-.1-.3-.4-.5-.7-.4 0 0-.1 0-.1.1v.2h.1zm4.6-1.5h.5l.1.1c0 .1.1.1.1.2v-.2c-.1-.3-.4-.5-.7-.4-.3.1-.5.4-.4.6 0-.1.2-.2.4-.3z"/><path class="st11" d="M86 33.4c0 .1 0 .1-.1.2l1.3-.4V33l-1.2.4zm1.3-.5v-3.5c-.5 1.3-.9 2.6-1.3 3.9l1.3-.4zm-20.2 5.8zm-4.6 1.5s-.1 0 0 0zm4.4-1.5s0-.1 0 0c0-.1 0 0 0 0zm-2.3.8s-.1-.1 0 0c-.1-.1 0 0 0 0zm-.2-.2zm.4.2s-.1 0 0 0c-.1 0 0 0 0 0zm1.9-1zm-3.9.6s0 .1 0 0c0 .1 0 0 0 0zm-.2 0zm2.6-.6c-.1 0-.1-.1 0 0-.1-.1-.1 0 0 0zm.1.1zm-.4-.2zm-1.9.9zm4.6-1.5zm-.1-.1c-.1 0-.1-.1 0 0-.1-.1-.1 0 0 0zm-.3-.1z"/><path class="st12" d="M63.8 100l-1.5-2.9v3.1z"/><path class="st11" d="M78.9 87.1h8.4v-.2h-8.4z"/><path class="st11" d="M78.9 86.9h8.4v-.7c0 .1-.1.1-.1.1h-.1c-.1 0-.2.1-.3.1-.3 0-.6-.3-.6-.6v-.2c0-.3.3-.6.6-.6.2 0 .4.1.5.3v-.6h-8.6l.2 2.2zm5.1-1.2c0-.3.3-.6.6-.6s.6.3.6.6v.2c0 .3-.3.6-.6.6-.4 0-.6-.2-.6-.6v-.2zm-2.3 0c0-.3.3-.6.6-.6s.6.3.6.6v.2c0 .3-.3.6-.6.6s-.6-.2-.6-.6v-.2zm-1.7-.6c.3 0 .6.3.6.6v.2c0 .3-.3.6-.6.6s-.6-.2-.6-.6v-.2c0-.3.3-.6.6-.6z"/><path class="st11" d="M84.6 85.3c.3 0 .5.2.6.5v-.1c0-.3-.3-.6-.6-.6s-.6.3-.6.6v.1c.1-.3.3-.5.6-.5zm2.2-.2c-.3 0-.6.3-.6.6v.1c.1-.3.3-.5.6-.5.1 0 .2 0 .3.1h.1c.1 0 .1.1.1.1v-.2c-.1-.1-.3-.2-.5-.2zm-6.8.2c.3 0 .5.2.6.5v-.1c0-.3-.3-.6-.6-.6s-.6.3-.6.6v.1c.1-.3.3-.5.6-.5zm2.3 0c.3 0 .5.2.6.5v-.1c0-.3-.3-.6-.6-.6s-.6.3-.6.6v.1c.1-.3.3-.5.6-.5zm-3.8 1.8h.4v-.2h-.4zm0-2.3v2.1h.4l-.2-2.1zm8.6 1.6c-.1 0-.2.1-.3.1.1 0 .2 0 .3-.1zm.2-.2c0 .1-.1.1-.1.1l.1-.1z"/><path class="st11" d="M87.1 85.4c.1 0 .1.1.1.1l-.1-.1zm-.3-.1c.1 0 .2 0 .3.1-.1-.1-.2-.1-.3-.1zM74.1 50.8l-2-12.6zm-2.6-16.1v-.2.2zm2.4 36.2zm1.7-.3l1.7-.2-1.7.2zm-1.7.3zm0 0l1.7-.2v-.1zm-5.6-35.3l-.6-3.5.5 3.5zm5.3 33.2l-4.8-29.5zm0 .2v-.2z"/><path class="st11" d="M68.3 35.8v-.2h-.1l.1.2z"/><path class="st11" d="M71.5 34.5l-.5-2.9-3.3.5.6 3.5zm-.3 4c0 .1 0 .1 0 0 0 .4-.2.7-.5.8-.3 0-.5-.2-.7-.4l-1.2.4 4.7 29.5 3.2-1.6L74 50.9l-2.1-12.6-.7.2zm-.9 2.6v-.2c0-.3.2-.6.5-.7.3 0 .6.2.7.5v.2c0 .3-.2.6-.5.7-.3 0-.6-.2-.7-.5zm.4 2.4v-.2c0-.4.2-.7.5-.7s.6.2.7.5v.2c0 .3-.2.6-.5.7-.3 0-.6-.2-.7-.5zm4.9 23.1v.3c0 .3-.2.6-.5.7-.3 0-.6-.2-.7-.5V66.8c0-.3.2-.6.5-.7.3 0 .6.2.7.5zm-.3-2.3v.2c0 .3-.2.7-.5.7s-.6-.2-.7-.5v-.3c-.1-.3.1-.5.5-.6.3 0 .6.2.7.5zm-.4-2.4v.2c0 .3-.2.7-.5.7s-.6-.2-.7-.5v-.2c-.1-.3.2-.7.5-.7s.6.2.7.5zm-.4-2.3v.2c0 .3-.2.6-.5.7-.3 0-.6-.2-.7-.5v-.2c0-.4.2-.7.5-.7s.6.2.7.5zm-.4-2.4v.2c0 .3-.2.6-.5.7-.3 0-.6-.2-.7-.5v-.2c0-.3.2-.6.5-.7.3 0 .6.2.7.5zm-.3-2.4v.3c0 .3-.2.6-.5.7-.3 0-.6-.2-.7-.5V55c-.1-.3.1-.6.5-.7.3 0 .6.2.7.5zm-.4-2.3v.2c0 .3-.2.6-.5.7-.3 0-.6-.2-.7-.5v-.2c0-.3.2-.6.5-.7.3 0 .6.2.7.5zm-.4-2.4v.3c0 .3-.2.6-.5.7-.3 0-.6-.2-.7-.5V50.3c0-.3.2-.6.5-.7.3 0 .6.2.7.5zm-.3-2.3v.2c0 .3-.2.6-.5.7-.3 0-.6-.2-.7-.5v-.3c-.1-.3.1-.5.5-.6.3 0 .6.2.7.5zm-.4-2.2c0 .3-.2.6-.5.7-.3 0-.6-.2-.7-.5v-.2c-.1-.3.2-.6.5-.7.3 0 .6.2.7.5v.2z"/><path class="st11" d="M76.8 67.3v-.2l-3.2 1.7v.1zm-5.3-32.6v-.2l-3.2 1.1v.2zm-.7 5.7c.3 0 .6.2.7.5v-.2c-.1-.3-.4-.5-.7-.5-.3.1-.5.4-.5.7.1-.2.3-.4.5-.5zm.4-1.9zm0 4.3c.3 0 .6.2.7.5v-.2c-.1-.3-.4-.5-.7-.5s-.5.3-.5.7c.1-.2.3-.4.5-.5zM72.6 55c.1-.2.2-.4.5-.4s.5.2.7.4v-.2c-.1-.3-.4-.5-.7-.5-.4.1-.6.4-.5.7zm.3 2.4c.1-.2.3-.4.5-.5.3 0 .6.2.7.5v-.2c-.1-.3-.4-.5-.7-.5-.3.1-.5.4-.5.7zm-1.3-12.5c-.3.1-.6.4-.5.7.1-.2.3-.4.5-.5.3 0 .6.2.7.5v-.2c-.1-.3-.4-.5-.7-.5zm1.7 14.9c.1-.2.3-.4.5-.5.3 0 .6.2.7.5v-.2c-.1-.3-.4-.5-.7-.5-.3 0-.5.3-.5.7zm.4 2.3c.1-.2.3-.4.5-.5.3 0 .6.2.7.5v-.2c-.1-.3-.4-.5-.7-.5-.3 0-.6.4-.5.7zm-1.9-11.8c.1-.2.3-.4.5-.4.3 0 .5.2.7.4v-.2c-.1-.3-.4-.5-.7-.5-.3.1-.5.4-.5.7zm-.3-2.4c0-.2.2-.4.5-.4s.6.2.7.5v-.2c-.1-.3-.4-.5-.7-.5-.4.1-.6.4-.5.6zm2.9 18.9c.1-.2.3-.4.5-.4.3 0 .5.2.7.4v-.2c-.1-.3-.4-.5-.7-.5-.3.1-.5.4-.5.7zm-2.2-14.1c.1-.2.3-.4.5-.5.3 0 .6.2.7.4v-.1c-.1-.3-.4-.5-.7-.5-.3.1-.5.4-.5.7zm1.9 11.7c0-.2.2-.4.5-.4s.6.2.7.5v-.2c-.1-.3-.4-.5-.7-.5-.4.1-.6.4-.5.6zm3.2 5.9v-.1l-1.7.2zM73.6 69l.3 1.9v-.2l-.3-1.8v.1z"/><path class="st11" d="M73.9 70.7v.1l1.7-.2 1.7-.2v-.1l-1.7.1z"/><path class="st11" d="M73.6 68.9l.3 1.8v-.1l1.7-.2 1.7-.2-.5-2.9-3.2 1.6zm2.4.3c0 .3-.2.6-.5.7-.3 0-.6-.2-.7-.5v-.2c0-.3.2-.7.5-.7s.6.2.7.5v.2z"/><path class="st11" d="M73.9 70.6v.1l1.7-.3zm1.4-2.1c-.3 0-.5.4-.5.7.1-.3.2-.5.5-.5s.6.2.7.5V69c-.1-.3-.4-.5-.7-.5zm.3 2.1l-1.7.2v.1zm-6.8-31.5v.2-.2zm0 0l-.5-3.3.5 3.3zm1.2-.4l-1.2.4v.2l1.2-.4v-.2c0 .1 0 0 0 0zm1.2-.2l.9-.3V38l-.8.3c-.1.1-.1.1-.1.2z"/><path class="st11" d="M70 38.7v-.2c-.1-.3.1-.6.5-.7.3 0 .6.2.7.5l.8-.3-.5-3.3-3.2 1.1.5 3.3 1.2-.4zm.1-3.2c.3 0 .6.2.7.5v.2c0 .3-.2.6-.5.7-.3 0-.6-.2-.7-.5v-.2c-.1-.3.2-.6.5-.7zm.9 2.9s.1.1.1.2v-.2H71z"/><path class="st11" d="M70.1 35.7c.3 0 .6.2.7.5V36c-.1-.3-.4-.5-.7-.5-.3.1-.6.4-.5.7.1-.2.3-.4.5-.5zm.4 2.4c.2 0 .4.1.5.3l.2-.1c-.1-.3-.4-.5-.7-.5-.4.1-.6.4-.5.7 0-.2.2-.4.5-.4z"/><path class="st13" d="M62.3 71.4l9-4.4zm9.2-4.8l-.1.1-9.1 4.4v.3l9-4.4c.2-.1.3-.2.2-.4z"/><path class="st13" d="M69.9 57.9c-.1-.2-.2-.3-.4-.3h-.2l-7 3.4v10.1l9.1-4.4.1-.1v-.1l-1.6-8.6zm-7.6-9.2l5.4-1zm0-4.2l4.7-.8zm5.7 2.8c0 .2-.2.2-.3.2l-5.4 1v.2l5.4-1c.2 0 .4-.2.3-.4z"/><path class="st13" d="M67.4 44c0-.1-.2-.3-.4-.3l-4.7.8v3.9l5.4-1c.1 0 .3-.1.3-.2v-.1l-.6-3.1zm-5.1 5.5l5.6-1zm6.3 3c.2 0 .4-.2.3-.5-.1.1-.2.2-.3.2l-6.2 1.1h-.1v.3h.1l6.2-1.1z"/><path class="st13" d="M67.9 48.5l-5.6 1v3.8h.1l6.2-1.1c.1 0 .2-.1.3-.2l-.6-3.2c-.1-.2-.3-.3-.4-.3zm1.6 7.3l-6.2 1.1h-.1c-.2 0-.4-.1-.4-.3l-.3-1.8v-.1.3l.3 1.8c0 .2.2.3.4.3h.1l6.2-1.1c.2 0 .4-.2.3-.4 0 .1-.2.2-.3.2z"/><path class="st13" d="M69.5 53.7c-.1-.2-.2-.3-.4-.3l-6.3 1.1c-.1 0-.3.1-.3.2v.1l.3 1.8c0 .2.2.3.4.3h.1l6.2-1.1c.1 0 .3-.1.3-.2v-.1l-.3-1.8zm2.4-22.2l.2 1.2zm6.6-.9v.1zm-5.9 2.5h.2l5.4-1.8c.3-.1.4-.3.3-.5 0 .1-.1.3-.3.3l-5.4 1.8h-.2c-.2 0-.5-.2-.5-.4l-.2-1 .2 1.2c0 .2.3.4.5.4z"/><path class="st13" d="M72.6 32.9h.2l5.4-1.8c.2-.1.3-.2.3-.3v-.2l-6.6.9.2 1c0 .2.3.4.5.4zm6.5-2.3zm.4.3l1.9-.6.1-.1-1.3.2-.5.2h-.1c-.1 0-.2 0-.2-.1h-.2c0 .3.1.4.3.4z"/><path class="st13" d="M79.6 30.6l.5-.2-.9.1c.1.1.2.1.4.1zM62.7 81.3l9.7 17.6zm12.5 17.2L73 75.8zM62.7 81v.3l9.7 17.6h.1L62.7 81c0 .1 0 0 0 0z"/><path class="st13" d="M73 75.8c-.1-.3-.2-.4-.4-.4l-.2.1-9.5 5.2c-.1.1-.2.2-.2.3v.1l9.8 17.8 2.7-.4L73 75.8z"/><path class="st14" d="M64.5 39.4l-.1-.1c0 .1.1.1.1.1zm2.6-.7h.2-.2zm-4.8 1.5zm4.7-1.5h-.1.1zm-1.6.1zm-.7.7h-.1.1zm.1 0h.2-.2zm-.4-.2c0-.1-.1-.1-.1-.2 0 .1 0 .1.1.2zm2.3-.8c0-.1-.1-.1-.1-.2 0 .1.1.1.1.2zm-4.2 1.7h.2-.2zm4.3-1.6l-.1-.1.1.1zm-3.9.6l.1.1-.1-.1zm-.2-.1h.1-.1zm-.1 0h-.2.2zm2.8-.3c0-.1-.1-.1-.1-.2 0 .1.1.1.1.2zm-3.1.3zm5.1-1.5h-.1.1zm-2.2.9l.1.1-.1-.1zm2.3-.8l.1.1-.1-.1zm-.5-.1h.2-.2zm.7.4c0-.1-.1-.1-.1-.2 0 .1.1.1.1.2zm-3 .4h.2-.2zm.4 0H65h.1zm-2.1.9c0 .1.1.1.1.2 0-.1-.1-.1-.1-.2zm-.5.9h.2c.3-.1.5-.4.4-.6 0 .2-.2.4-.4.4h-.4v.2h.2c-.1 0 0 0 0 0z"/><path class="st14" d="M66.6 38.3c0 .1.1.1.1.2l.1.1h.5c.3-.1.5-.4.4-.6 0 .2-.2.4-.4.4-.3.1-.6-.1-.7-.4v-.1.4zm-2.3.8c0 .1 0 .1.1.2l.1.1h.5c.3-.1.5-.4.4-.7-.1.2-.2.3-.4.4-.3.1-.7 0-.7-.4v.4zm-1.3.2l-.1-.1h-.5s-.1 0-.1.1v.7h.4c.2-.1.4-.2.4-.4v-.1c0-.1-.1-.1-.1-.2z"/><path class="st14" d="M67.3 38.5c.2-.1.4-.2.4-.4V38c0-.1-.1-.1-.1-.2l-.1-.1H67c-.2.1-.4.2-.4.4v.1c.1.2.4.4.7.3zm-2.3.7c.2-.1.3-.2.4-.4 0-.1-.1-.1-.1-.2l-.1-.1h-.5c-.2.1-.3.2-.4.4 0 .3.4.4.7.3zm10.3 35.1v-.2.2zm.2.2l-.1-.1.1.1zm1.5 12h.1-.1c-.1 0 0 0 0 0zm-.3-.1l-.1-.1.1.1zm-.9-7.3v-.2.2zm.7 5s-.1 0-.1-.1l.1.1zm.4-5.3zm-.8.6s-.1 0-.1-.1l.1.1zm-.1-.1l-.1-.1.1.1zm-.4-7.1h.1-.1c-.1 0 0 0 0 0zm-.2 0s-.1 0-.1-.1l.1.1zm1.4 14.3s-.1 0-.1-.1l.1.1zm-.3-.3V86v.2zm-.6-9.2s-.1 0-.1-.1l.1.1zm.1 4.4v-.2.2zm-.8-9.4c0 .1.1.1 0 0 .1.1.1 0 0 0zm.6 2.6h.1-.1c-.1 0 0 0 0 0zm.4 7l-.1-.1.1.1zm.1-2.2h.1-.1c-.1 0 0 0 0 0zm-.5-2.5l-.1-.1.1.1zm.3.1h.1-.1c-.1 0 0 0 0 0zm.6 7.1h.1-.1c-.1 0 0 0 0 0zm-.5-.3v-.2.2zm.1-2.1s-.1 0-.1-.1l.1.1zm-.7-7.1s-.1 0-.1-.1l.1.1zm0 2.1v-.2.2zm.9 5h.1-.1c-.1 0 0 0 0 0zm-.1 2.3l-.1-.1.1.1zm.5-3.3s-.1 0-.1-.1c0 0 0 .1.1.1zm-.2-2.3s-.1 0-.1-.1c0 0 0 .1.1.1zm.2.4v-.2.2zm0 1.9l.1.1-.1-.1zm.4 2.8v-.2.2zm-.8-2.9zm.2-2.2l.1.1-.1-.1zm0 4.6zm.4.1l.1.1-.1-.1zm0 0s-.1 0-.1-.1l.1.1zm-.8-4.8zm.2-2.3l.1.1-.1-.1zm-.3-4.4zm.2 2.4v-.2.2zm1 11.5l.1.1-.1-.1zm-1.3-9.6zm1 5.2v-.2.2zm.5 4.6zm-.9-9.3v-.2.2zm-.9-2.9zm.7 2.5s-.1 0-.1-.1l.1.1zm-.3-2.4l.1.1-.1-.1zm0 0s-.1 0-.1-.1c0 0 0 .1.1.1zm.9 11.8H77h.1c.1 0 0 0 0 0zm.2 0s.1 0 .1.1l-.1-.1zM75.2 72zm-.1-.2s0 .1 0 0c0 .1 0 0 0 0zm0-.1zm1.1-.2v-.1.1zm-.1-.2zm-.2-.2s.1 0 .1.1l-.1-.1zm.1.1c.1 0 .1.1 0 0 .1.1.1 0 0 0zm-.3-.1h-.1.1c.1 0 0 0 0 0z"/><path class="st14" d="M77.1 86.3c-.3.1-.6-.2-.6-.5v.5l.1.1h.1s.1 0 .1.1h.3c.3 0 .6-.3.5-.6-.1.2-.3.3-.5.4zm-1.5-11.7c.1 0 .1 0 0 0h.3c.3 0 .6-.3.5-.6-.1.2-.3.4-.5.4-.3.1-.5-.1-.6-.4v.4l.1.1h.1l.1.1zm.9 9.5c.1 0 .1 0 0 0h.3c.3 0 .6-.3.5-.6-.1.2-.3.4-.5.4-.3.1-.5-.1-.6-.4v.4l.1.1h.1l.1.1zm-.2-2.4c.1 0 .1 0 0 0h.3c.3 0 .6-.3.5-.6-.1.2-.3.4-.5.4-.3.1-.5-.1-.6-.4v.4l.1.1h.1l.1.1zm-.2-2.3c.1 0 .1 0 0 0h.3c.3 0 .6-.3.5-.6-.1.2-.3.3-.5.3-.3.1-.5-.1-.6-.4v.5l.1.1h.1l.1.1zm-.4-7.4h-.5.1s.1 0 .1.1h.3c.3 0 .6-.3.5-.6-.1.3-.3.5-.5.5zm.2 5c.1 0 .1 0 0 0h.3c.3 0 .6-.3.5-.6-.1.2-.3.4-.5.4-.3.1-.6-.2-.6-.5v.5l.1.1h.1l.1.1z"/><path class="st14" d="M76.2 76.8c.2 0 .4-.2.5-.4V76.1l-.1-.1h-.1s-.1 0-.1-.1h-.3c-.2 0-.4.2-.5.4 0 .3.3.6.6.5zm-.3-2.4c.2 0 .4-.2.5-.4V73.7l-.1-.1h-.1s-.1 0-.1-.1h-.3c-.3 0-.4.2-.5.5.1.3.3.5.6.4zm.5 4.7c.2 0 .4-.2.5-.3V78.5l-.1-.1h-.1s-.1 0-.1-.1h-.3c-.2 0-.4.1-.5.4.1.3.3.5.6.4zm-.2-7.6l-.8.5c.1.1.2.1.3 0 .2 0 .4-.2.5-.5 0 .1 0 .1 0 0 0 .1 0 .1 0 0zm1.4 14.2c-.1 0-.1 0 0 0-.1-.1-.1-.1-.1-.2h-.1s-.1 0-.1-.1H77c-.2 0-.4.2-.5.4 0 .3.3.6.6.5.2-.1.4-.2.5-.4v-.2zm-.8-1.8c.2 0 .4-.2.5-.4V83.2l-.1-.1h-.1s-.1 0-.1-.1h-.3c-.3 0-.4.2-.5.5.1.3.3.5.6.4zm-.2-2.4c.2 0 .4-.2.5-.4V80.8l-.1-.1h-.1s-.1 0-.1-.1h-.3c-.3 0-.4.2-.5.5.1.3.3.5.6.4z"/><path class="st14" d="M75.2 71.8c-.1.1-.1.1 0 .1v.1l.1.1.2-.1c-.2-.1-.3-.1-.3-.2z"/><path class="st14" d="M75.2 71.8c0-.1-.1-.1-.1-.2 0 0 0 .1.1.2-.1-.1-.1 0 0 0zm0 0l.2.2.8-.4v-.2l-1 .4z"/><path class="st14" d="M76.1 71.3s0-.1 0 0l-.1-.1s-.1 0-.1-.1h-.3c-.3 0-.4.2-.5.5 0 .1 0 .1.1.2l.9-.5zm-3.6-20.5c-.3 0-.6-.2-.7-.4v.2c.1.3.4.5.7.5.3-.1.5-.4.5-.7v-.1c-.1.2-.3.4-.5.5zm.8 4.7c-.3 0-.6-.2-.7-.5v.3c.1.3.4.5.7.5.3-.1.5-.4.5-.7V55c-.1.2-.3.4-.5.5zm-.4-2.3c-.3 0-.6-.2-.7-.5v.2c.1.3.4.5.7.5.3-.1.5-.4.5-.7v-.1c-.1.3-.2.5-.5.6zM70.7 39c-.2 0-.3-.1-.5-.2l-.2.1c.1.2.4.4.7.4.3-.1.5-.4.5-.7v-.1c-.1.2-.3.4-.5.5zm1.1 7.1c-.3 0-.6-.2-.7-.5v.2c.1.3.4.5.7.5.3-.1.5-.4.5-.7-.1.2-.3.4-.5.5zM74 60.3c-.3 0-.6-.2-.7-.5v.2c.1.3.4.5.7.5.3-.1.5-.4.5-.7-.1.2-.2.5-.5.5zm-.4-2.4c-.3 0-.6-.2-.7-.5v.2c.1.3.4.5.7.5.3-.1.5-.4.5-.7-.1.2-.3.4-.5.5zm.8 4.7c-.3 0-.6-.2-.7-.5v.2c.1.3.4.5.7.5.3 0 .5-.4.5-.7-.1.2-.3.4-.5.5zm.4 2.4c-.3 0-.6-.2-.7-.5v-.1.3c.1.3.4.5.7.5s.5-.4.5-.7c-.1.2-.3.4-.5.5zm.3 2.3c-.3 0-.6-.2-.7-.4v.2c.1.3.4.5.7.5.3-.1.5-.4.5-.7v-.1c-.1.2-.3.4-.5.5zm-3.2-24c-.1.2-.3.4-.5.5-.3 0-.6-.2-.7-.5v.2c.1.3.4.5.7.5.3-.1.5-.4.5-.7zm.3 5.2c-.3 0-.6-.2-.7-.5v-.1.3c.1.3.4.5.7.5.3-.1.5-.4.5-.7-.1.2-.3.4-.5.5zm-.7-7.6c-.1.2-.3.4-.5.5-.3 0-.6-.2-.7-.5v.2c.1.3.4.5.7.5.3-.1.5-.4.5-.7z"/><path class="st14" d="M72 47.5c-.3.1-.5.2-.5.4v.1c.1.3.4.5.7.5.2-.1.4-.3.5-.5-.1-.3-.4-.5-.7-.5zm-1.8-8.7c.1.1.3.2.5.2.2-.1.4-.3.5-.5l-1 .3zm1.4 6.3c-.2.1-.4.3-.5.5.1.3.4.5.7.5.2-.1.4-.3.5-.5-.1-.3-.4-.5-.7-.5zm3.3 21.3c-.2 0-.4.2-.5.5.1.3.4.4.7.4.2-.1.4-.3.5-.5-.2-.2-.4-.4-.7-.4zm-3.9-25c.2-.1.4-.3.5-.5-.1-.3-.4-.5-.7-.5-.2.1-.4.3-.5.5.1.3.4.5.7.5zm2.8 17.9c-.2.1-.4.3-.5.5.1.3.4.5.7.5.3 0 .4-.3.5-.5-.1-.3-.4-.5-.7-.5zm-.4-2.4c-.2.1-.4.3-.5.5.1.3.4.5.7.5.2-.1.4-.3.5-.5-.1-.3-.4-.5-.7-.5zm-2-13.1c.2-.1.4-.3.5-.5-.1-.3-.4-.5-.7-.5-.2.1-.4.3-.5.5.1.3.4.5.7.5zm2.8 17.8c-.2.1-.4.3-.5.5.1.3.4.5.7.5.2-.1.4-.3.5-.5-.1-.3-.4-.5-.7-.5zm.4 2.4c-.3.1-.5.2-.5.4v.1c.1.3.4.5.7.5.2-.1.4-.3.5-.5-.1-.3-.4-.5-.7-.5zm-1.9-11.8c-.2.1-.4.3-.5.5.1.3.4.5.7.5.3-.1.4-.3.5-.6-.1-.2-.4-.4-.7-.4zm-.4-2.3c-.2 0-.4.2-.5.5.1.3.4.4.7.4.2-.1.4-.3.5-.5-.2-.2-.4-.4-.7-.4zm.8 4.7c-.3 0-.5.2-.5.4.1.3.4.5.7.5.2-.1.4-.3.5-.5-.2-.2-.4-.4-.7-.4zm2.4 15.1c-.3 0-.6-.2-.7-.5v.2c.1.3.4.5.7.5.3-.1.5-.4.5-.7-.1.2-.3.4-.5.5z"/><path class="st14" d="M75.3 68.7c-.3 0-.4.3-.5.5.1.3.4.5.7.5.2-.1.4-.3.5-.5-.1-.3-.4-.5-.7-.5zm-5.2-30c-.1 0-.1.1-.1.1v.1l.2-.1-.1-.1zm-.1-.2v.2h.1c0-.1-.1-.1-.1-.2zm.3-1.8c-.3 0-.6-.2-.7-.5v.2c.1.3.4.5.7.5.3-.1.5-.4.5-.7-.1.2-.3.4-.5.5z"/><path class="st14" d="M70.2 38.8l.9-.3c0-.1-.1-.1-.1-.2l-1 .3.2.2z"/><path class="st14" d="M70.1 38.7l1-.3c-.1-.2-.3-.3-.5-.3-.3 0-.5.2-.5.4-.1.1 0 .1 0 .2zm0-3c-.2.1-.4.3-.5.5.1.3.4.5.7.5.2-.1.4-.3.5-.5-.1-.3-.4-.5-.7-.5zm17 50.7zm.2-.2zm0-.6zm-.2-.2zm-2.5 1.1c.3 0 .6-.3.6-.6v-.1c-.1.3-.3.5-.6.5s-.5-.2-.6-.5v.1c0 .4.2.6.6.6zm-2.3 0c.3 0 .6-.3.6-.6v-.1c-.1.3-.3.5-.6.5s-.5-.2-.6-.5v.1c0 .4.3.6.6.6zm4.5-.2c-.3 0-.5-.3-.6-.5v.1c0 .3.3.6.6.6.1 0 .2 0 .3-.1h.1c.1 0 .1-.1.1-.1V86c-.1.2-.3.3-.5.3zm-6.8 0c-.3 0-.5-.2-.6-.5v.1c0 .4.3.6.6.6s.6-.3.6-.6v-.1c-.1.3-.3.5-.6.5z"/><path class="st14" d="M82.3 86.3c.3 0 .5-.2.6-.5-.1-.3-.3-.5-.6-.5s-.5.2-.6.5c.1.3.3.5.6.5zm4.5 0c.2 0 .4-.1.5-.3v-.5c0-.1-.1-.1-.1-.1h-.1c-.1 0-.2-.1-.3-.1-.3 0-.5.2-.6.5.1.2.3.5.6.5zm-2.2 0c.3 0 .5-.2.6-.5-.1-.3-.3-.5-.6-.5s-.5.2-.6.5c.1.3.3.5.6.5zm-4.6-1c-.3 0-.5.2-.6.5.1.3.3.5.6.5s.5-.2.6-.5c-.1-.3-.3-.5-.6-.5z"/><path class="st4" d="M112.4 103.4c.2-.1.3-.2.5-.3.4-.3.6-.8.6-1.2V87.1h-1.1v16.3zm0-31.3c.4.1.7.2 1.1.2v-2.5c-.4-.1-.7-.2-1.1-.3v2.6zm0 12.4h1.1V76c-.4-.1-.7-.1-1.1-.2v8.7z"/><path class="st4" d="M112.4 72.1v.2c.4.1.7.2 1.1.2v-.2c-.4 0-.7-.1-1.1-.2zm0 12.4h1.1v.3h-1.1zM19.5 101l-4.3 2.2 6.5-.8 4.4-2.3zm-6.8-.8l-.2.1v.2l.2-.1zm99.5-15.7h.2v-8.7h-.2v8.7zm0-15V72h.2v-2.5c-.1.1-.1 0-.2 0z"/><path class="st4" d="M12.5 100.3h.2V62.7h-.2v-3.6h.2v-3.6c-.6-.7-1.2-1.5-1.7-2.2v48l1.5-.8v-.2zm99.7-13.2v16.4c.1 0 .1 0 .2-.1V87.1h-.2z"/><path class="st4" d="M12.7 52.8c-.6-.9-1.2-1.8-1.7-2.8v3.3c.5.8 1.1 1.5 1.7 2.2v-2.7zm0 47.8v-.2l-.2.1v.2l.2-.1zm-.2-.1l-1.5.8v.2l1.5-.8zm99.7-28.4v.2h.2v-.2h-.2zm-86.1 28l-4.4 2.3.4-.1 4.4-2.2zm86.1-15.6h.2v.3h-.2zM12.7 59.3v-.2h-.2v.2h.2zm97.4 9.6v2.6l2.1.6v-2.5c-.7-.3-1.4-.5-2.1-.7zM78.6 29l-.6-1.6h-.5L78 29zm-14 72.6l.8 1.6 2.9-.4-.8-1.6zm6.9-71.7l-.3-1.6h-.7l.2 1.7zm-9.4 2.8h.2v-1.6l5.1-.7-.3-1.6-4.8.6-13.7-1.8c.8 1.2 1.5 2.4 2.1 3.6l11.4 1.5zm48 64.8h.5c.3 0 .4.2.4.4v5.6l.6.1h.6V87.1h-2.1v10.4zm-3.9 2v3.3l.7.1v-3.3zm-24.9-.1l-1.2.1.2 1.7 1.3-.2-.3-1.6zm9.4-1.5c0-.2.2-.4.4-.4h.5l-4-.5h-.2v1.6h-.3v1.7h.6v-2.4c0-.2.2-.4.4-.4h1.8c.3 0 .4.2.5.4v2.8l.4.1v-2.9zm4.6.1l-.5-.1v3.4l.5.1v-3.2zm14.8-13.5h2.1v-8.7c-.7-.1-1.4-.3-2.1-.5v9.2zm-36.8 16l-2.1.2.9 1.6 2-.3zm28.2-1.7v2.4c0 .2-.2.4-.4.4h-1.9c-.2 0-.4-.2-.4-.4v-2.7l-.8-.1v3.3l4.1.6V99l-.6-.2zm-26.1 1.4l.2 1.6 1.3-.2-.2-1.6z"/><path class="st4" d="M71.2 100.7h-.1l.9 1.6h.1zm38.9-29.2v.2l2.1.6v-.2l-2.1-.6zM87.3 29.3zm0 .2c0-.1.1-.1.1-.2h-.1v.2zm-22.7 72.1l.8 1.6-.8-1.6zm45.5-17.1h2.1v.3h-2.1zM70.7 30l-.2-1.7-.1.1zM88 97.8h1.8c.3 0 .4.1.5.4v-.3c-.1-.2-.2-.4-.5-.4H88c-.2 0-.4.2-.4.4v.3c0-.2.2-.4.4-.4zm7.4.2l-.1.2c0-.1 0-.1.1-.2zm-.6.2v-.3h-.1c.1.1.1.2.1.3zm-4.1-.3v.3c0-.2.2-.4.4-.4h2.7l-2.2-.3h-.5c-.2 0-.4.2-.4.4zm19.9-.1c.3 0 .4.1.4.4v-.3c0-.2-.1-.4-.4-.4h-.5v.3h.5zM78 29l-.5-1.6h-.1zm3.3-.4h.1l-.5-1.6h-.1zm-5.9 71.6l.2 1.6-.2-1.6zm37-30.9v.3c.4.1.7.2 1.1.3v-.3c-.4-.1-.7-.2-1.1-.3z"/><path class="st4" d="M113.5 69.6V31.1c0-.7-.4-1.3-1.1-1.5v39.7c.4.1.7.2 1.1.3zm-1.3-.1c.1 0 .1 0 .2.1v-.3c-.1 0-.1 0-.2-.1v.3z"/><path class="st4" d="M112.2 69.2c.1 0 .1 0 .2.1V29.6c-.1 0-.1 0-.2-.1v39.7zm-2.1-.6v.3c.7.2 1.4.5 2.1.7v-.3c-.7-.3-1.4-.5-2.1-.7zm.3-38.4v-.1l-.3-.9h-.1l.4 1zm-4.9 0l.6-1.5h-.1l-.5 1.5c0-.1 0 0 0 0zm2.3.3v.1h.5v-.1h-.3zM19.5 101l-.5.1-4.4 2.2.6-.1 4.3-2.2zm-7.9 2.1c.4.3.8.5 1.3.4l-.2-1.6-.2-1.2-1.5.8v.4c0 .5.2.9.6 1.2z"/><path class="st4" d="M14.4 101.7v.2h-1.7l.2 1.6 1.7-.2 4.4-2.2z"/><path class="st4" d="M12.7 100.6l-.2.1.2 1.2h1.7v-.2l-1.7.2zm54.8.6l.8 1.6h.1l-.8-1.6z"/><path class="st4" d="M71.1 100.7l-3.5.5.8 1.6 3.6-.5-.9-1.6zm5.6-.7l.2 1.6 3.4-.4-.2-1.7zm35.7-24.4v.2c.4.1.7.1 1.1.2v-.2c-.4-.1-.7-.1-1.1-.2z"/><path class="st4" d="M112.4 72.3v3.3c.4.1.7.1 1.1.2v-3.3c-.4 0-.7-.1-1.1-.2zm-.2 3.5h.2v-.2h-.2v.2zm0-3.5v3.3h.2v-3.3h-.2zm-2.1 3c.7.2 1.4.4 2.1.5v-.2c-.7-.1-1.4-.3-2.1-.5v.2z"/><path class="st4" d="M110.1 75.1c.7.2 1.4.4 2.1.5v-3.3c-.7-.2-1.4-.3-2.1-.6v3.4zM88.6 29.6l-.2-.5-1.1.4zM35.4 98.9l-8.9 1.2-4.4 2.2 13.3-1.7zm29.2 2.7l-2.3.3v-1.7l-13.7-1.8.2.5 1.1 3 12.1 1.6h.4l2.9-.4-.7-1.5z"/><path class="st4" d="M45.3 101.3l.9-2.4.3-.8-8.7-1.1h-.2v1.6l-2.2.3v1.7l2.2-.3 7.7 1zm3.3-2.9h-.1l.3.7 1.1 2.8-1.1-3zm-2.4.7l.4-1h-.1l-.3.8-.9 2.4h.1zm66.2-12.2h1.1v.2h-1.1zm0-2.1h1.1v2.1h-1.1zm-.2 2.1h.2v.2h-.2zm0-2.1h.2v2.1h-.2zm-2.1 2.1h2.1v.2h-2.1zm0-2.1h2.1v2.1h-2.1zM12.7 62.5h-.2v.2h.2zm-.2-3.2h.2v3.2h-.2zm54.9-28.9l-.2-1.6h-.1l.3 1.6z"/><path class="st4" d="M70.4 28.4l-3.2.4.2 1.6 3.3-.4zm11 71l.2 1.6 5.4-.7v-1.7zm8.4-1.6H88c-.2 0-.4.2-.4.4v2.1l2.7.4v-2.5c-.1-.3-.2-.4-.5-.4zm11.3 3.5h-1.9c-.2 0-.4-.2-.4-.4v.3c0 .2.2.4.4.4h1.9c.2 0 .4-.2.4-.4v-.3c0 .2-.2.4-.4.4z"/><path class="st4" d="M99.2 101.3h1.9c.2 0 .4-.2.4-.4v-2.1l-2.7-.4v2.4c0 .3.2.5.4.5zm-17-74.4l.4-.1-.7.1h.3zM95.4 98c0 .1-.1.1-.1.2v3.2l2.7.4v-3.3l-2.6-.5zm-.7-.1l-.9-.1h-2.7c-.2 0-.4.2-.4.4v2.5l4.1.6v-3.1c0-.1 0-.2-.1-.3zm7.4 1v3.4l4.1.5v-3.3zm8.5-1.1h-.5v2.2l-3.2-.4v3.3l4.1.6v-5.3c0-.3-.1-.4-.4-.4zm-39-67.9l-.4-1.7v.1l.3 1.6zm5.8-2.5l-6.2.8.4 1.7L78 29zm1.2 1.5l-.5-1.6-.1.1.6 1.6z"/><path class="st4" d="M81.3 28.6l-.5-1.6-2.7.3.5 1.6 2.7-.3zm-7.9 71.8l-.1.1.8 1.5h.1zM74.2 102l1.4-.2-.2-1.6-2 .2zm36-71.7h-4.5c-.1 0-.1 0-.2-.1v.1c0 .1.1.2.2.2h2.1v-.1h.5v.1h1.9c.2 0 .2-.1.2-.2v-.1c0 .1-.1.1-.2.1z"/><path class="st4" d="M106.1 28.7l-.6 1.5c0 .1.1.1.2.1h4.5c.1 0 .2 0 .2-.1l-.4-1.1-3.9-.4zm1.7 1.7v.1h.5v-.1zm0 .5v.2c0 .1.1.2.2.2s.2-.1.3-.3v-.1c-.1.1-.2.2-.3.2s-.2-.1-.2-.2z"/><path class="st4" d="M107.8 30.9c0 .1.1.2.2.2s.2-.1.3-.2v-.3h-.5v.3zM46.2 99.1l-.8 2.2 4.5.6-1.1-2.8-.3-.7-1.9-.3zm-22.4-.3l-4.3 2.2 6.6-.9 4.3-2.2zm-9.4.7V62.7h-1.7v37.5h.4zm-1.3.7h-.4v.2zm1.3-42.9c-.4-.4-.9-.8-1.3-1.3-.1-.2-.3-.3-.4-.5v3.6h1.7v-1.8zm0 0v-2.4c-.6-.7-1.2-1.4-1.7-2.1v2.7c.1.2.3.3.4.5.4.5.8.9 1.3 1.3z"/><path class="st4" d="M14.4 99.7v-.2l-1.3.7.6-.1z"/><path class="st4" d="M13.1 100.2l-.4.2v.2l1-.5zm17.3-2.3l-4.3 2.2h.4l4.3-2.3zM12.7 59.1h1.7v.2h-1.7zm10.6 39.7l-4.3 2.3.5-.1 4.3-2.2z"/><path class="st4" d="M13.7 100.1l-1 .5v1.3l1.7-.2V100zm.7-.1v1.7l4.6-.6 4.3-2.3z"/><path class="st4" d="M13.7 100.1l.7-.1v-.3zm17.1-2.3l-4.3 2.3 8.9-1.2v-1.7zm6.8-.8h-.2l-2 .3V99l2.2-.3V97zM12.7 62.5h1.7v.2h-1.7zm1.7-3.2h-1.7v3.2h1.7zm60.9 39.2l.1 1.7 1.3-.2v-.8l-.1-.9zm-2.9.4l-2 .3.8 1.5 2.1-.2zm8.8-.8v-.4l-1.2.2.2 1.7 1.2-.2-.1-1.2-.1-.1zm-9.3-66.6l-.4-1.6-.8.1.3 1.6zm11.1 66h3.6c.2 0 .3.2.4.4v.7h.3V97h-.2l-4.1.5zM63.9 100l.7 1.6 2.9-.4-.8-1.6zm14.6-69.4l.6-.1-.5-1.5H78l.5 1.5v.1zm-10.8 1.5l-.3-1.6-5.1.7v1.6h.2l5.2-.7zm44.3-2.6l-2-.3.3.9v.2c0 .1 0 .2-.2.2h-1.9v.5c-.1.2-.2.3-.3.3s-.2-.1-.2-.2v-.6h-2.1c-.1 0-.2-.1-.2-.2v-.2l.5-1.4-11.2-1.5h-.2l-2.3-.3h-.1l-3.5-.5h-.1l-1.1-.2H87l-4.5.6-.4.1H82c-.1 0-.1 0-.2-.1l-1 .1.5 1.6.3.9v.3c0 .2-.1.3-.2.4l4.8-.6 1-.3h.1c0 .1-.1.2-.1.2l1.1-.4.2.5h.1l2.1.3h.1l2.4.3h.1l16.8 2.3v36c.7.2 1.4.5 2.1.7V29.5h-.2zM70.3 99.2l.8 1.5h.1l-.8-1.5z"/><path class="st4" d="M87.2 29.5c0-.1.1-.1.1-.2l-1 .3.9-.1z"/><path class="st4" d="M87.3 29.5v-.2s-.1.1 0 .2zM63.8 100l.8 1.6-.7-1.6zm17.4-1.9c0-.1.1-.3.3-.3h5.1c.2 0 .3.1.4.4v-.3c-.1-.2-.2-.4-.4-.4H83l-1.7.2v.2l-.1.2zm-2.7-67.5v-.1L78 29l.5 1.6zm3.2-1.1l-.3-.9h-.1l.4 1.1v-.2zm-5 69.7l-.1-.9zm5-69.5v.1zm-15 69.9l.8 1.6h.1l-.8-1.6zM66.8 99.6l.8 1.6 3.5-.5-.8-1.5zm9.9.4v-.8zm-.1-1.7l.1.9v.8l-.1-1.7z"/><path class="st4" d="M76.7 100l3.4-.5-.1-1.6-3.4.4zm10.6-70.5zm0 0zm0 0zm0 0zm-25 70.7v1.7l2.3-.3-.8-1.6zM71 31.6l-.3-1.6-3.3.4.3 1.7zm10.3 67.8l-.1-1.2zm-.1-1.2l.1 1.2-.2-1.3c.1 0 .1 0 .1.1zm5.4-.4h-5.1c-.1 0-.2.1-.3.3l.2 1.3 5.6-.7v-.4c-.1-.4-.2-.5-.4-.5zM71.9 31.5l-.3-1.6h-.1l.4 1.6z"/><path class="st4" d="M78.5 30.6L78 29l-6.4.9.3 1.6zm.8-.1c-.1 0-.1-.1-.2-.2l-.5-1.4h-.1l.5 1.6h.3zm2.4-.7v-.1c0 .1-.1.3-.3.3l-1.3.4 1.3-.2c.2-.1.3-.2.3-.4z"/><path class="st4" d="M79.3 30.5l.9-.1 1.3-.4.3-.3-.4-1.1-2.7.3.5 1.4c0 .1 0 .2.1.2zm-6.8 68.4h-.1l.9 1.6.1-.1z"/><path class="st4" d="M72.5 98.9l.9 1.5 2-.2-.2-1.7z"/><path class="st15" d="M31 10.7c.1 0 .2 0 .3.1 0 0-.2-.1-.3-.1zm.5.1c.1 0 .2.1.4.1-.1 0-.3 0-.4-.1zm-1.7 3.7c0 .1-.1.2-.1.3-.1.7.4 1.2 1.1 1.3v-1c-.5-.1-.8-.3-1-.6zm1-2.7v-1.1h-.1c-1.6 0-3 1.4-3 3 0 .4.1.8.2 1.1v-.1c0-1.6 1.3-2.8 2.9-2.9z"/><path class="st15" d="M29.6 16.5v1.9h1.2v-2.3c-.7-.1-1.2-.6-1.1-1.3 0-.1 0-.2.1-.3-.2-.2-.3-.4-.3-.7 0-.7.6-1.3 1.3-1.3.7 0 1.3.6 1.3 1.2 0-.7-.5-1.3-1.3-1.3v-.6c-1.6.1-2.9 1.3-2.9 2.9v.1c.3.8.9 1.4 1.7 1.7z"/><path class="st16" d="M32 14.2c-.2.5-.7.8-1.2.8v.1c.5 0 1-.4 1.2-.9zm-.6-3.4c.1 0 .1 0 .2.1-.1-.1-.2-.1-.2-.1zm-.6-.1h.2-.2zm2.9 3v.2c0 .1.1.2.1.3 0-.1 0-.3-.1-.5.1-1.2-.7-2.3-1.8-2.7 1 .4 1.8 1.5 1.8 2.7zm-1.8 4.7s.1 0 0 0l.1-.6h-.1v.6zm.1-4.2c.1-.1.1-.2.1-.4 0 .1 0 .3-.1.4z"/><path class="st16" d="M31.9 16.5v1.4h.1l-.1-1.4c1.1-.3 1.7-1.2 1.9-2.3 0-.1-.1-.2-.1-.3-.1 1.2-.8 2.2-1.8 2.6zm0 1.9v-.5.5zm-1-6.6l.1.3c1.2 0 2.3.8 2.7 1.8v-.2c0-1.2-.8-2.3-1.8-2.7-.1-.1-.2-.1-.4-.1-.1 0-.1 0-.2-.1-.1 0-.2 0-.3-.1h-.2l.1 1.1c-.1 0 0 0 0 0zm.1 4.3c.4 0 .7-.2.9-.5.1-.2.2-.4.2-.7 0-.3 0-.5-.1-.7-.2.5-.7.9-1.2.9v1h.2z"/><path class="st16" d="M31.9 17.9v-1.4c1-.4 1.7-1.4 1.8-2.6-.4-1-1.4-1.8-2.7-1.8l-.1-.3h-.1v.6c.8 0 1.3.6 1.3 1.3 0 .2 0 .3-.1.4.1.2.1.4.1.7 0 .3-.1.5-.2.7-.2.3-.5.5-.9.5h-.2v2.3c.4 0 .7 0 1.1.1v-.5z"/><path class="st15" d="M11 49.9V30.7c-3 6.1-3 13.1 0 19.2zm24.4-29.5v.2h.6c-.2-.1-.4-.1-.6-.2zm-3.6-.7h-1v-.1h-1.1l-.1-.1v-1.1h-.1c-2.9.2-5.7.9-8.4 2.2-.1.1-.3.1-.4.2h14.7v-.4c-1.2-.3-2.4-.6-3.6-.7zm4.8 1.1c-.2-.1-.4-.1-.6-.2h-.6v.2h1.2zm-15.9 0c-1.5.8-2.8 1.7-4.1 2.8 1.6-1.2 3.3-2.1 5.1-2.8h-1z"/><path class="st15" d="M12.5 29.5l5.4-.7C21 25.2 25.6 23 30.7 23c1.6 0 3.2.2 4.7.7v-2.9H21.7c-1.8.7-3.5 1.6-5.1 2.8-.5.4-.9.8-1.3 1.2-1.8 1.8-3.2 3.8-4.2 5.9V50 31.1c-.1-.8.6-1.5 1.4-1.6zm40.1 10.8zm-2.4 10.1c.9-1.8 1.6-3.6 2-5.5-.5 1.9-1.1 3.7-2 5.5zm-1.3 2.1c-.5.7-1.1 1.4-1.6 2.1.6-.7 1.1-1.4 1.6-2.1z"/><path class="st15" d="M40.7 20.8c-.1-.1-.3-.1-.4-.2-.1-.1-.3-.1-.4-.2-2.5-1.2-5.2-1.8-7.9-2v1.2s0 .1-.1.1h-.1c1.2.1 2.4.4 3.6.7.2.1.4.1.6.2.2.1.4.1.6.2h-1.2v2.9c2.2.6 4.1 1.6 5.9 3l2.7.3 1-1 1.2-1.2c-1.7-1.7-3.5-3-5.5-4zm6.6 33.8c-.1 0-.1.1 0 0-.1.1-.1 0 0 0zM52.6 41v-.2.2zm-2.7 9.8c.1-.1.2-.3.2-.4 0 .1-.1.3-.2.4zm-3.7 5c.4-.4.7-.7 1-1.1-.3.4-.6.7-1 1.1zm6-11c0-.1 0-.1.1-.2-.1.1-.1.2-.1.2zm0-.2c.2-1.2.4-2.4.4-3.6 0 1.2-.2 2.4-.4 3.6zM49 52.4l-.1.1.1-.1zm.9-1.6c-.3.5-.6 1.1-.9 1.6.3-.5.6-1.1.9-1.6zM14.4 32.6v2.1c.3-.8.6-1.5.9-2.2l-.9.1zm4.1 19.9c-1.8-1.8-3.2-4.1-4.1-6.6v8.9c.3.3.5.6.8.9l3.3-3.2z"/><path class="st15" d="M12.7 31.1l3.7-.5c.4-.7 1-1.3 1.5-1.9l-5.4.7c-.8.1-1.4.8-1.4 1.6v19c.5 1 1 1.9 1.7 2.8V31.1zM43 28l1-1-2.8-.4c.6.5 1.2.9 1.8 1.4z"/><path class="st15" d="M14.4 45.9c-.6-1.8-1-3.7-1-5.6s.3-3.9 1-5.6v-2.1l.9-.1c.3-.6.7-1.2 1.1-1.8l-3.7.5v21.7c.5.7 1.1 1.4 1.7 2.1v-9.1zm15.2-27.5v1.1l.1.1h1.1v-1.2h-1.2zm2.3 1.1l-.1.2h.1c.1 0 .1-.1 0-.2l.1-1.1h-.1v1.1z"/><path class="st15" d="M31.8 19.6h-1v.1h1v-.1zm0 0l.1-1.2-.1 1.2zm0 0l.1-1.2c-.4 0-.7 0-1.1-.1v1.2l1 .1z"/><path class="st16" d="M50.7 31.2c1.3 2.9 2 6 2 9.1 0-3.1-.7-6.2-2-9.1zm-2.1-3.6c-.7-1-1.5-1.9-2.4-2.8.9.9 1.6 1.8 2.4 2.8zm2 3.6c-.6-1.3-1.3-2.5-2.1-3.6.9 1.1 1.6 2.4 2.1 3.6zm-.4 19.2c.9-1.8 1.6-3.6 2-5.5l-1.2.4c-.4 2-1 3.9-1.9 5.7l1.1-.6zm-5.6 6.7l-.6.6c.2-.1.4-.3.6-.6z"/><path class="st16" d="M46.1 27.3l2.5.3c-.7-1-1.5-1.9-2.3-2.8L45 26c.2.3.5.5.7.8.1.1.2.3.4.5zm2.5 24.6c-.4.8-1 1.6-1.5 2.4l.2.4c.6-.7 1.2-1.4 1.6-2.1l-.3-.7zm2.7-10.6l1.3-.4v-.5c0-3.1-.7-6.2-2-9.1l-2-.3c1.8 3.2 2.7 6.7 2.7 10.3z"/><path class="st16" d="M48 42.4l3.3-1.1c0-3.6-.9-7.1-2.7-10.3l-3.6-.5c2.5 3.5 3.5 7.8 3 11.9zm-4 15.3l.6-.6-2.2-4.1c-1.5 1.3-3.1 2.4-4.8 3.2v3h4.2c.8-.5 1.5-.9 2.2-1.5zm4.6-5.8c-.1-.1 0-.2 0-.3-.1-.2 0-.4.2-.5l.3-.1c.9-1.8 1.5-3.7 1.9-5.7l-4 1.3c-.5 1.3-1.1 2.4-1.9 3.6l2.1 4.1c.4-.8 1-1.6 1.4-2.4zm-2.9-25.1c-.2-.3-.5-.5-.7-.8l-1 1 2.1.3c-.2-.2-.3-.4-.4-.5zM47 54.4l.2.3.1-.1-.3-.2c.1-.1 0-.1 0 0z"/><path class="st16" d="M47.1 54.3L45 50.2s0 .1-.1.1l2.2 4c-.1 0 0 0 0 0zM52.6 41v-.2l-1.3.4v.2l1.3-.4zm-1.3.5v-.2L48 42.4v.2l3.3-1.1zm-9.5 17.7h-4.2v.2h3.9c.1-.1.2-.2.3-.2zm8.1-8.4c.1-.1.2-.3.2-.4l-1 .6c-.1.1-.1.3-.2.4l1-.6z"/><path class="st16" d="M48.8 51.4c.1-.2.2-.3.3-.4l-.3.1c-.2.1-.3.3-.2.5 0-.1.1-.2.2-.2zm-4.1 5.8c-.1-.1-.1 0-.1 0h.1c-.1 0 0 0 0 0z"/><path class="st16" d="M42.5 53s-.1 0 0 0l2.1 4.2.1-.1-2.2-4.1z"/><path class="st16" d="M47 54.4c-.2.3-.5.6-.7.9-.5.7-1.1 1.2-1.7 1.8v.1c.5-.4 1-.9 1.5-1.4.4-.4.7-.7 1-1.1l-.1-.3z"/><path class="st16" d="M46.3 55.3c.3-.3.5-.6.7-.9l-2.1-4.1c-.6.8-1.2 1.5-1.9 2.2l-.5.5 2.1 4.1c.6-.6 1.2-1.1 1.7-1.8zm5.8-10.4c0-.1 0-.1.1-.2L51 45v.2l1.1-.3zm-1.2.4v-.2l-4 1.3c0 .1-.1.2-.1.2l4.1-1.3zm.6-2.1v.3c.1.3-.1.5-.4.6 0 .3-.1.6-.1.9l1.2-.4c.2-1.2.4-2.4.4-3.6l-1.3.4v1.4c.1.1.2.3.2.4z"/><path class="st16" d="M51 45c.1-.3.1-.6.1-.9-.3.1-.6 0-.7-.4v-.3c-.1-.3.1-.5.4-.6.2-.1.3 0 .4.1v-1.4l-3.3 1.1c-.2 1.3-.5 2.6-1 3.8L51 45zm-2.5-1.4c.3-.1.6.1.7.4v.3c.1.3-.1.5-.4.6-.3.1-.6-.1-.7-.4v-.3c-.1-.2.1-.5.4-.6zm3-.2v-.2c0-.1-.1-.3-.3-.3v.2c.1 0 .2.1.3.3z"/><path class="st16" d="M50.8 43h.4v-.2c-.1-.1-.3-.1-.4-.1-.3.1-.5.4-.4.6 0-.1.2-.2.4-.3zm-2.3.8c.3-.1.6.1.7.4V44c-.1-.3-.4-.5-.7-.4-.3.1-.5.4-.4.6 0-.2.2-.3.4-.4zM37.6 59.4v1.7c1.3-.4 2.6-1 3.9-1.7h-3.9zm11.4-7l-.3-.6c0 .1 0 .1-.1.2l.3.6c0-.1.1-.2.1-.2zm-.4-.8c0 .1-.1.2 0 .3 0 0 0-.1.1-.2l-.1-.1z"/><path class="st16" d="M48.9 51.4c-.1.1-.1.3-.2.4l.3.6c.3-.5.6-1 .9-1.6l-1 .6z"/><path class="st16" d="M48.7 51.8c.1-.1.1-.3.2-.4h-.1c-.1 0-.2.1-.2.2l.1.2zm2.8-8.3c0 .2-.2.3-.4.4v.2c.3-.1.5-.4.4-.6zm-.4.4c-.3.1-.6-.1-.7-.4v-.1.3c.1.4.4.5.7.4v-.2zm-2.3.8c-.3.1-.6-.1-.7-.4v-.1.3c.1.3.4.5.7.4.3-.1.5-.4.4-.6 0 .2-.2.3-.4.4zm2.4-1.7c0 .3-.1.6-.1.8.2-.1.3-.2.4-.4v-.1l-.3-.3z"/><path class="st16" d="M48.5 43.8c-.2.1-.4.2-.4.4v.1c.1.3.4.5.7.4.2-.1.4-.2.4-.4v-.1c-.1-.3-.4-.5-.7-.4zm2.6.1c.1-.3.1-.6.1-.9-.1-.1-.3-.1-.4 0-.2.1-.4.2-.4.4v.1c.1.3.4.5.7.4zM35.4 57c-1.5.4-3.1.6-4.7.6-4.8 0-9.1-1.9-12.2-5.1l-3.3 3.3c1.3 1.3 2.8 2.4 4.3 3.3h15.9V57zm0 2.4v-.2H19.5c.1.1.2.1.3.2h15.6zm2.2-3.2c-.7.3-1.5.6-2.2.8v2.2h2.2v-3z"/><path class="st16" d="M35.4 59.197l2.2.006v.2l-2.2-.006zm-15.6.103c4.8 2.8 10.3 3.6 15.6 2.4v-2.4H19.8z"/><path class="st16" d="M37.6 59.4h-2.2v2.4c.7-.2 1.5-.4 2.2-.6v-1.8zm10.9-31.8l-2.5-.3c1 1.2 1.8 2.4 2.5 3.7l2 .3c-.4-1.3-1.1-2.6-2-3.7z"/><path class="st16" d="M45 30.5l3.6.5c-.7-1.3-1.5-2.5-2.5-3.7L44 27l-1 1c.8.8 1.4 1.6 2 2.5z"/><path class="st4" d="M35.4 23.7c-1.5-.4-3.1-.7-4.7-.7-5.1 0-9.7 2.2-12.8 5.7l17.5-2.3v-2.7zm5.7 6.2l-3.5-.4v3.9z"/><path class="st4" d="M37.4 26.2h.4l3.4.5c-1.7-1.3-3.7-2.3-5.9-3v2.8l2.1-.3zm-2 3.6l-1 .1 1 1.9zM18.5 52.5l5.6-5.6 1.9-4.7 1.9-4.6 4.6-1.9.7-.3-2.6-5-15.3 2c-.4.7-.7 1.5-.9 2.2v11.3c.8 2.5 2.2 4.8 4.1 6.6z"/><path class="st4" d="M35.4 31.8l-1-1.9h-.1l1.1 2.1zm1.2 2.3l.5-.2.5-.5v-3.9l-2.2.3v2z"/><path class="st4" d="M36.6 34.1l-1.2-2.3v.2l1.1 2.1zm-5.9-3.7h-.1l2.6 5h.1z"/><path class="st4" d="M35.4 34.6V32l-1.1-2.1-3.6.5 2.6 5zm0-2.6v2.6l1.1-.5zm-2.3-4.6l.5.9 1.8-.2v-1.7l-17.5 2.3c-.5.6-1 1.2-1.5 1.9l14.1-1.9 2.6-1.3z"/><path class="st4" d="M31 28.7l2.1-1.1.4.7h.1l-.5-.9-2.6 1.3h.5zm6.6.8l3.5.5 1.9-1.9c-.5-.5-1.1-1-1.7-1.5l-3.4-.5h-.4l-2 .3v1.7l2.2-.3v1.7z"/><path class="st4" d="M33.1 27.6L31 28.7l2.5-.4zm-2.5 2.8l-.6-1.2h.1L30 29l.5-.3-14.1 1.9c-.4.6-.7 1.2-1.1 1.8l15.3-2zm4.8-.6v-1.7l-1.8.2.8 1.6zm-22 10.5c0 2 .3 3.9 1 5.6V34.7c-.7 1.7-1 3.6-1 5.6z"/><path class="st4" d="M30.5 28.7l-.5.3.1.2.9-.5zm3.8 1.2h.1l-.8-1.6h-.1zm3.3-.4v-1.7l-2.2.3v1.7zm-7.6-.3l.6 1.2zm.1 0H30h.1zm.6 1.2l-.6-1.2H30l.6 1.2z"/><path class="st4" d="M33.5 28.3l-2.5.4-.9.5.6 1.2 3.6-.5zm-2.8 29.3c-4.4 0-8.9-1.7-12.2-5.1 3.1 3.2 7.4 5.1 12.2 5.1z"/><path class="st2" d="M42.4 53c-1.4 1.3-3 2.4-4.8 3.2 1.7-.8 3.4-1.8 4.8-3.2zm4.4-6.4c-.5 1.2-1.1 2.4-1.9 3.5.8-1.1 1.5-2.3 1.9-3.6v.1zm1.2-6.3c0 .7-.1 1.4-.1 2.1h.1c.5-4.1-.5-8.4-2.9-11.9H45c1.9 2.7 3 6.1 3 9.8zm-3 9.9c-.1 0-.1 0 0 0-.1 0-.1 0 0 0zm2.9-7.6v-.2h-.1v.2h.1zm-5.4 10.3c0 .1-.1.1 0 0-.1.1 0 .1 0 0zm.5-.4c.7-.7 1.3-1.5 1.9-2.2-.7 1-1.5 1.9-2.4 2.7l.5-.5zm3.9-5.9c0-.1.1-.2.1-.2h-.1c0 .1-.1.2-.1.2h.1zm.1-.2c.5-1.2.8-2.5 1-3.8h-.1c-.2 1.3-.5 2.6-1 3.8h.1zM30.7 57.6c1.6 0 3.1-.2 4.7-.6-1.5.4-3 .6-4.7.6zm6.9-1.4c-.7.3-1.4.6-2.2.8.7-.2 1.5-.5 2.2-.8zM45 30.5c-.6-.9-1.3-1.7-2-2.5l-.1.1c.7.7 1.4 1.5 2 2.4h.1z"/><path class="st2" d="M37.6 43.8v12.4c1.8-.8 3.4-1.9 4.8-3.2l-4.8-9.2zm6.1 3.9l1.3 2.4c.7-1.1 1.4-2.3 1.9-3.5l-3.2 1.1zM37.6 36l4.3 8.3 5.9-2c.1-.7.1-1.4.1-2.1 0-3.7-1.1-7.1-3.1-9.8l-3.9-.5-3.5 3.5V36z"/><path class="st2" d="M41.8 44.4h.1L37.6 36v.2zm1.9 3.3l1.2 2.5s0-.1.1-.1l-1.3-2.4zm4.1-5.1v-.2l-5.9 2 .1.2 5.8-2z"/><path class="st2" d="M41.9 44.6h.1l-.1-.2h-.1zm.6 8.3l-4.9-9.4v.2l4.9 9.2c-.1.1 0 .1 0 0z"/><path class="st2" d="M37.6 43.6l4.9 9.4c.9-.8 1.7-1.7 2.4-2.7l-1.3-2.5-3 1-1.1-3.3h.1l-.1-.2 2.3-.8-4.2-8.2v7.3z"/><path class="st2" d="M39.6 45.4l2.3-.8-.1-.2-2.3.8zm7.2 1.2c0-.1.1-.2.1-.2l-3.3 1.1.1.2 3.1-1.1zM43.6 47.5h-.1l.1.2h.1z"/><path class="st2" d="M46.9 46.4c.5-1.2.8-2.5 1-3.8l-5.9 2 1.5 3 3.4-1.2zm-.7-2.1c.3-.1.6.1.7.4v.3c.1.3-.1.6-.4.7-.3.1-.6-.1-.7-.4V45c-.1-.3.1-.6.4-.7z"/><path class="st2" d="M43.6 47.5L42 44.6h-.1l1.6 2.9zm2.2-2.5c.1-.2.2-.3.4-.4.3-.1.6.1.7.4v-.3c-.1-.3-.4-.5-.7-.4s-.5.4-.4.7z"/><path class="st2" d="M40.6 48.5l-1-3.1h-.1l1.1 3.3 3-1-.1-.2z"/><path class="st2" d="M40.6 48.5l2.9-1-1.6-2.9-2.3.8zm5.9-3.1c-.3.2-.6 0-.7-.4v.3c.1.3.4.5.7.4.3-.1.5-.4.4-.7-.1.2-.2.3-.4.4z"/><path class="st2" d="M46.2 44.6c-.2.1-.3.2-.4.4.1.4.4.6.7.4.2-.1.3-.2.4-.4-.1-.3-.4-.5-.7-.4zM35.4 56.9V39.6l-.3-.6-1.7 4.1-4.6 1.9-4.7 1.9-5.6 5.6c3.4 3.4 7.8 5.1 12.2 5.1 1.7 0 3.2-.2 4.7-.7zm2.2-13.1l-2.2-4.2V57c.8-.2 1.5-.5 2.2-.8V43.8zm0-7.8v-2.6l-.5.5-.3.7z"/><path class="st2" d="M36.8 34.7l.1.3.7 1.2V36l-.8-1.4zm.8 1.5l-.7-1.2.7 1.2zm-.7-1.2l-.1-.3zm-1.8 3.9v.1l.3.6v-.2z"/><path class="st2" d="M35.4 38.2l-.1.3-.2.4.3.5zm0 1.2v.2l2.2 4.2v-.2zM37.6 43.6v-7.4l-.7-1.2-.1-.3-1.4 3.5v1.2zm5.3-15.5L41 30l3.9.5c-.6-.9-1.2-1.7-2-2.4z"/><path class="st17" d="M34 37l-.8-1.6-.7.3-4.6 1.9 2.8 2.7zm3.1-3.1l-.5.2.1.2z"/><path class="st17" d="M36.6 34.4l.1-.1-.1-.2h-.1zm-2.5 2.5l-.8-1.5h-.1L34 37z"/><path class="st17" d="M35.4 34.6l-2.1.8.8 1.5 1.3-1.3zm1.2-.2l-.1-.3-1.1.5v1z"/><path class="st18" d="M27.9 37.6L26 42.2l-1.9 4.7 6.6-6.6z"/><path class="st19" d="M30.7 40.3l2.7 2.8 1.7-4.1-1.1-2zm6.1-5.7l.3-.7-.4.4zm0 0l-.1-.3-.1.1.2.3z"/><path class="st19" d="M35.1 38.9l-1-2-.1.1 1.1 2z"/><path class="st19" d="M35.3 38.5l.1-.3v-2.6l-1.3 1.3 1 2zm1.3-4.1l-1.2 1.2v2.6l1.4-3.5z"/><path class="st20" d="M33.4 43.1l-2.7-2.8-6.6 6.6 4.7-1.9z"/></svg>