<?xml version="1.0" encoding="utf-8"?>
<!-- Generator: Adobe Illustrator 19.0.0, SVG Export Plug-In . SVG Version: 6.00 Build 0)  -->
<svg version="1.1" id="Layer_1" xmlns="http://www.w3.org/2000/svg" xmlns:xlink="http://www.w3.org/1999/xlink" x="0px" y="0px"
	 viewBox="0 0 135.3 135.3" style="enable-background:new 0 0 135.3 135.3;" xml:space="preserve">
<style type="text/css">
	.st0{clip-path:url(#XMLID_55_);fill:#FBFBFB;}
	.st1{clip-path:url(#XMLID_55_);}
	.st2{clip-path:url(#XMLID_66_);fill:#213B54;}
	.st3{clip-path:url(#XMLID_66_);fill:#41BCE6;}
	.st4{clip-path:url(#XMLID_66_);fill:#4F6680;}
	.st5{clip-path:url(#XMLID_66_);fill:#28353D;}
	.st6{clip-path:url(#XMLID_55_);fill:#344B62;}
	.st7{clip-path:url(#XMLID_55_);fill:#FFFFFF;}
	.st8{clip-path:url(#XMLID_55_);fill:#8787C1;}
	.st9{clip-path:url(#XMLID_107_);fill:#E5E5E5;}
	.st10{clip-path:url(#XMLID_107_);fill:#1E354C;}
	.st11{clip-path:url(#XMLID_107_);fill:#475C73;}
	.st12{clip-path:url(#XMLID_107_);fill:#243037;}
	.st13{clip-path:url(#XMLID_107_);fill:#2F4358;}
	.st14{clip-path:url(#XMLID_107_);fill:#EAEAEA;}
	.st15{clip-path:url(#XMLID_107_);fill:#8787C1;}
</style>
<g id="XMLID_53_">
	<g id="XMLID_57_">
		<defs>
			<path id="XMLID_56_" d="M135.3,67.6c0,37.4-30.3,67.6-67.6,67.6S0,105,0,67.6S30.3,0,67.6,0S135.3,30.3,135.3,67.6"/>
		</defs>
		<clipPath id="XMLID_55_">
			<use xlink:href="#XMLID_56_"  style="overflow:visible;"/>
		</clipPath>
		<polyline id="XMLID_58_" class="st0" points="175.3,135.2 -0.7,135.2 -0.7,-1.2 175.3,-1.2 175.3,135.2 		"/>
		<g id="XMLID_61_" class="st1">
			<defs>
				<polyline id="XMLID_60_" points="-1.1,135.7 -1.1,-0.8 174.9,-0.8 174.9,135.7 -1.1,135.7 				"/>
			</defs>
			<clipPath id="XMLID_66_">
				<use xlink:href="#XMLID_60_"  style="overflow:visible;"/>
			</clipPath>
			<polyline id="XMLID_62_" class="st2" points="-1.1,135.7 -1.1,-0.8 174.9,-0.8 174.9,135.7 -1.1,135.7 			"/>
			<circle id="XMLID_63_" class="st3" cx="138" cy="149.3" r="51.6"/>
			<polyline id="XMLID_64_" class="st4" points="44,-6.7 100.7,101.9 106.1,99 49.4,-9.5 44,-6.7 			"/>
			<polyline id="XMLID_65_" class="st4" points="160,-10.8 -20.2,83 -17.3,88.5 162.8,-5.4 160,-10.8 			"/>
			<polyline id="XMLID_67_" class="st4" points="86,67.2 -5.8,76.1 -5.3,82.2 86.6,73.3 86,67.2 			"/>
			<path id="XMLID_68_" class="st4" d="M137.1,206V203c-15.2,0-29-6.2-39-16.1c-10-10-16.1-23.7-16.1-39c0-15.2,6.2-29,16.1-39
				c10-10,23.7-16.1,39-16.1c15.2,0,29,6.2,39,16.1c10,10,16.1,23.7,16.1,39c0,15.2-6.2,29-16.1,39c-10,10-23.7,16.1-39,16.1V206
				v3.1c33.8,0,61.2-27.4,61.2-61.2c0-33.8-27.4-61.2-61.2-61.2c-33.8,0-61.2,27.4-61.2,61.2c0,33.8,27.4,61.2,61.2,61.2V206z"/>
			<path id="XMLID_69_" class="st5" d="M33.8,19.2c0-0.2,0.2-0.4,0.4-0.4H35v0.8h-0.8C34,19.6,33.8,19.4,33.8,19.2"/>
			<path id="XMLID_70_" class="st5" d="M14,36.3c0-0.2,0.2-0.4,0.4-0.4h0.8v0.8h-0.8C14.2,36.7,14,36.6,14,36.3"/>
			<polyline id="XMLID_71_" class="st4" points="43.9,75.3 43.9,165.1 48,165.1 48,75.3 			"/>
			<polyline id="XMLID_72_" class="st4" points="86.7,73.3 168.6,60 167.6,54 85.8,67.3 86.7,73.3 			"/>
		</g>
		<path id="XMLID_59_" class="st6" d="M64.3,112.1c-2.5,0-4.5,0.7-4.5,1.6c0,0.9,2,1.6,4.5,1.6c2.5,0,4.5-0.7,4.5-1.6
			C68.8,112.9,66.8,112.1,64.3,112.1"/>
		<path id="XMLID_73_" class="st7" d="M71.3,102.1c0,3.2-5,9.7-6.4,11.5c-0.2,0.2-0.6,0.2-0.8,0c-1.4-1.8-6.4-8.3-6.4-11.5
			c0-3.8,3-6.8,6.8-6.8C68.2,95.4,71.3,98.4,71.3,102.1z"/>
		<circle id="XMLID_74_" class="st8" cx="64.5" cy="101.1" r="2.5"/>
		<path id="XMLID_75_" class="st6" d="M37.5,80C37.4,80,37.4,80,37.5,80L26,81.4c-0.3,0-0.5,0.3-0.5,0.6v7.8c0,0.3,0.3,0.6,0.6,0.6
			h11.4c0.3,0,0.6-0.3,0.6-0.6v-9.2C38.1,80.3,37.8,80,37.5,80"/>
		<path id="XMLID_76_" class="st6" d="M37.3,91.6H26.1c-0.4,0-0.7,0.3-0.7,0.7v3.3c0,0.4,0.3,0.7,0.7,0.7h11.2
			c0.4,0,0.7-0.3,0.7-0.7v-3.3C38.1,91.9,37.7,91.6,37.3,91.6"/>
		<path id="XMLID_77_" class="st6" d="M37.3,111.5H32c-0.4,0-0.7,0.3-0.7,0.7v3.3c0,0.4,0.3,0.7,0.7,0.7h5.3c0.4,0,0.7-0.3,0.7-0.7
			v-3.3C38.1,111.8,37.7,111.5,37.3,111.5"/>
		<path id="XMLID_78_" class="st6" d="M37.3,105.4H26.1c-0.4,0-0.7,0.3-0.7,0.7v3.3c0,0.4,0.3,0.7,0.7,0.7h11.2
			c0.4,0,0.7-0.3,0.7-0.7v-3.3C38.1,105.7,37.7,105.4,37.3,105.4"/>
		<path id="XMLID_79_" class="st6" d="M37.3,97.2H26.1c-0.4,0-0.7,0.3-0.7,0.7v5.8c0,0.4,0.3,0.7,0.7,0.7h11.2
			c0.4,0,0.7-0.3,0.7-0.7v-5.8C38.1,97.5,37.7,97.2,37.3,97.2"/>
		<path id="XMLID_80_" class="st6" d="M37.3,117.5H26.1c-0.4,0-0.7,0.3-0.7,0.7v2.3c1.9,1.5,3.9,2.9,5.9,4.2h6
			c0.4,0,0.7-0.3,0.7-0.7v-5.8C38.1,117.8,37.7,117.5,37.3,117.5"/>
		<path id="XMLID_81_" class="st6" d="M37.3,126h-3.9c1.5,0.9,3,1.7,4.6,2.5v-1.7C38.1,126.3,37.7,126,37.3,126"/>
		<path id="XMLID_82_" class="st6" d="M104.9,49.6c-2,5.3-7.2,9.1-13.2,9.1H91l1.8,3.8c0.1,0.3,0.4,0.4,0.7,0.4c0,0,0.1,0,0.1,0
			l15.3-2.9c0.4-0.1,0.6-0.4,0.6-0.7c0-0.1,0-0.2-0.1-0.3L104.9,49.6"/>
		<path id="XMLID_83_" class="st6" d="M104,30.1c-0.1,0-0.2,0-0.3,0.1l-2.9,1.5c-0.2,0.1-0.4,0.4-0.4,0.6c0,0.1,0,0.2,0.1,0.3
			l0.8,1.5c1.1,1,2,2.2,2.7,3.4l2.8-1.4c0.2-0.1,0.4-0.4,0.4-0.6c0-0.1,0-0.2-0.1-0.3l-2.4-4.7C104.5,30.2,104.3,30.1,104,30.1"/>
		<path id="XMLID_84_" class="st6" d="M111.6,26.2c-0.1,0-0.2,0-0.3,0.1l-5.2,2.6c-0.2,0.1-0.4,0.4-0.4,0.6c0,0.1,0,0.2,0.1,0.3
			l5.1,10c0.1,0.2,0.4,0.4,0.6,0.4c0.1,0,0.2,0,0.3-0.1l5.2-2.6c0.2-0.1,0.4-0.4,0.4-0.6c0-0.1,0-0.2-0.1-0.3l-5.1-10
			C112.1,26.3,111.9,26.2,111.6,26.2"/>
		<path id="XMLID_85_" class="st6" d="M118.9,23.5h-2.2l-3,1.5c-0.2,0.1-0.4,0.4-0.4,0.6c0,0.1,0,0.2,0.1,0.3l5.1,10
			c0.1,0.2,0.4,0.4,0.6,0.4c0.1,0,0.2,0,0.3-0.1l5.2-2.6c0.2-0.1,0.4-0.4,0.4-0.6c0-0.1,0-0.2-0.1-0.3l-2.2-4.2
			C121.6,26.8,120.3,25.1,118.9,23.5"/>
		<path id="XMLID_86_" class="st6" d="M130.8,43.4l-5.1,0.9c-0.3,0.1-0.6,0.4-0.6,0.7l0,0.1l1.9,11c0.1,0.3,0.4,0.6,0.7,0.6
			c0,0,0.1,0,0.1,0l5.7-1c0.3,0,0.5-0.2,0.6-0.5C133.4,51.1,132.2,47.2,130.8,43.4"/>
		<path id="XMLID_87_" class="st6" d="M123.2,44.7c0,0-0.1,0-0.1,0l-5.7,1c-0.3,0.1-0.6,0.4-0.6,0.7l0,0.1l1.9,11
			c0.1,0.3,0.4,0.6,0.7,0.6c0,0,0.1,0,0.1,0l5.7-1c0.3-0.1,0.6-0.4,0.6-0.7l0-0.1l-1.9-11C123.8,44.9,123.5,44.7,123.2,44.7"/>
		<path id="XMLID_88_" class="st6" d="M114.4,46.9c0,0-0.1,0-0.1,0l-3.2,0.6c-0.3,0.1-0.6,0.4-0.6,0.7l0,0.1l1.9,11
			c0.1,0.3,0.4,0.6,0.7,0.6c0,0,0.1,0,0.1,0l3.2-0.6c0.3-0.1,0.6-0.4,0.6-0.7l0-0.1l-1.9-11C115,47.1,114.7,46.9,114.4,46.9"/>
		<path id="XMLID_89_" class="st6" d="M21.9,82.1c-0.1,0-0.1,0-0.2,0L15,83.3c-0.6,0.1-1,0.6-1,1.2V95c0,0.7,0.6,1.2,1.2,1.2h6.6
			c0.7,0,1.2-0.6,1.2-1.2V83.3C23.1,82.6,22.5,82.1,21.9,82.1"/>
		<path id="XMLID_90_" class="st6" d="M74.6,58.7H46.5L28.1,68.8c-0.3,0.1-0.4,0.4-0.4,0.6c0,0.4,0.3,0.8,0.7,0.8c0,0,0.1,0,0.1,0
			l48.6-4.7c0.4,0,0.7-0.4,0.7-0.7c0-0.1,0-0.2-0.1-0.4L74.6,58.7"/>
	</g>
	<g id="XMLID_92_">
		<defs>
			<path id="XMLID_91_" d="M135.2,68c0,37.6-30.5,68-68,68c-37.6,0-68-30.5-68-68c0-37.6,30.5-68,68-68C104.8,0,135.2,30.5,135.2,68
				"/>
		</defs>
		<clipPath id="XMLID_107_">
			<use xlink:href="#XMLID_91_"  style="overflow:visible;"/>
		</clipPath>
		<path id="XMLID_93_" class="st9" d="M11.2,30.4h-0.7C5,38.7,1.2,48.4-0.2,58.7h0.8C1.9,48.4,5.7,38.7,11.2,30.4"/>
		<path id="XMLID_100_" class="st10" d="M69.9,43L39.7,58.7h6.7l21-11.6c0.1-0.1,0.2-0.1,0.4-0.1c0.3,0,0.5,0.1,0.7,0.4l6.2,11.3
			h3.5L69.9,43 M79.4,38.1l-4,2.1l9.7,18.6H91l-5.1-10.5c-0.4,0.1-0.9,0.1-1.3,0.1c-3.5,0-6.5-3-6.5-6.5
			C78.1,40.5,78.6,39.1,79.4,38.1 M93.8,30.6l-9.7,5c0.1,0,0.2,0,0.3,0c1.8,0,3.4,0.8,4.6,2l7.4-3.8c0.1-0.1,0.2-0.1,0.3-0.1
			c0.3,0,0.6,0.2,0.7,0.4l7.4,15.4c0.6-1.6,0.9-3.3,0.9-5c0-2.6-0.7-4.9-1.9-7l-0.2,0.1c-0.1,0.1-0.2,0.1-0.3,0.1
			c-0.3,0-0.5-0.1-0.6-0.4l-1.6-3.2C99.2,32.3,96.6,31,93.8,30.6 M14.4,36.7c-0.2,0-0.4-0.2-0.4-0.4c0-0.2,0.2-0.4,0.4-0.4h0.8v0.8
			H14.4 M63.4,30.4H11.2c-5.5,8.3-9.2,18-10.6,28.3h25.8l40.7-21.2L63.4,30.4 M80.8,30.4H70.3l2.2,4.3L80.8,30.4"/>
		<path id="XMLID_103_" class="st11" d="M75.4,40.2L69.9,43l8.2,15.7h6.9L75.4,40.2 M70.3,30.4h-6.9l3.7,7.1l5.4-2.8L70.3,30.4"/>
		<path id="XMLID_104_" class="st11" d="M91.7,30.4H80.8l-8.3,4.3l-5.4,2.8L26.4,58.7h13.3L69.9,43l5.4-2.8l4-2.1
			c1.1-1.4,2.8-2.4,4.7-2.5l9.7-5C93.1,30.5,92.4,30.4,91.7,30.4"/>
		<path id="XMLID_105_" class="st12" d="M15.3,35.9h-0.8c-0.2,0-0.4,0.2-0.4,0.4c0,0.2,0.2,0.4,0.4,0.4h0.8V35.9"/>
		<path id="XMLID_106_" class="st13" d="M96.8,33.8c-0.1,0-0.2,0-0.3,0.1L89,37.6c1.1,1.2,1.9,2.8,1.9,4.5c0,1.2-0.3,2.3-0.9,3.3
			l3.9,3.9c0.4,0.4,0.5,0.9,0.1,1.2l-1,1c-0.2,0.2-0.4,0.3-0.7,0.3c-0.2,0-0.5-0.1-0.7-0.3l-3.9-3.9c-0.6,0.3-1.2,0.6-1.9,0.7
			L91,58.7h0.7c6.1,0,11.2-3.8,13.2-9.1l-7.4-15.4C97.4,33.9,97.1,33.8,96.8,33.8"/>
		<path id="XMLID_111_" class="st13" d="M101.3,34.1l1.6,3.2c0.1,0.2,0.4,0.4,0.6,0.4c0.1,0,0.2,0,0.3-0.1l0.2-0.1
			C103.3,36.3,102.3,35.1,101.3,34.1"/>
		<path id="XMLID_112_" class="st13" d="M67.8,47.1c-0.1,0-0.2,0-0.4,0.1l-21,11.6h28.2l-6.2-11.3C68.3,47.2,68.1,47.1,67.8,47.1"/>
		<path id="XMLID_115_" class="st10" d="M84.4,37.5c-2.4,0-4.4,2-4.4,4.4s2.1,4.6,4.6,4.6c0.1,0,0.3,0,0.4,0l-2.3-4.8
			c-0.1-0.1-0.1-0.2-0.1-0.3c0-0.3,0.2-0.5,0.4-0.7l4.1-2.1C86.4,37.9,85.4,37.5,84.4,37.5"/>
		<path id="XMLID_116_" class="st13" d="M87.2,38.6L83,40.6c-0.3,0.1-0.4,0.4-0.4,0.7c0,0.1,0,0.2,0.1,0.3l2.3,4.8
			c2.2-0.2,3.9-2.1,3.9-4.3C89,40.7,88.2,39.4,87.2,38.6"/>
		<path id="XMLID_117_" class="st10" d="M84.4,35.6c-0.1,0-0.2,0-0.3,0l-4.7,2.5c-0.8,1.1-1.3,2.4-1.3,3.8c0,3.5,3,6.5,6.5,6.5
			c0.5,0,0.9,0,1.3-0.1L85,46.5c-0.1,0-0.3,0-0.4,0c-2.4,0-4.6-2.1-4.6-4.6s2-4.4,4.4-4.4c1,0,2,0.4,2.8,1l1.9-0.9
			C87.8,36.4,86.2,35.6,84.4,35.6"/>
		<path id="XMLID_118_" class="st11" d="M84.1,35.6c-1.9,0.1-3.6,1-4.7,2.5L84.1,35.6"/>
		<path id="XMLID_119_" class="st13" d="M89,37.6l-1.9,0.9c1.1,0.9,1.8,2.2,1.8,3.5c0,2.3-1.7,4.1-3.9,4.3l0.9,1.8
			c0.7-0.1,1.3-0.4,1.9-0.7l3.9,3.9c0.2,0.2,0.4,0.3,0.7,0.3c0.2,0,0.5-0.1,0.7-0.3l1-1c0.4-0.4,0.2-0.9-0.1-1.2L90,45.4
			c0.6-1,0.9-2.1,0.9-3.3C90.9,40.4,90.2,38.8,89,37.6"/>
		<path id="XMLID_120_" class="st14" d="M91.4,55.4H-14.8c-7.8,0-14.2-6.3-14.2-14.2v0c0-7.8,6.3-14.2,14.2-14.2H91.4
			c7.8,0,14.2,6.3,14.2,14.2v0C105.5,49.1,99.2,55.4,91.4,55.4z"/>
		<path id="XMLID_148_" class="st15" d="M93.5,45.9L89.6,42c0.6-1,0.9-2.1,0.9-3.3c0-3.5-3-6.5-6.5-6.5c-3.5,0-6.3,2.8-6.3,6.3
			c0,3.5,3,6.5,6.5,6.5c1.2,0,2.2-0.3,3.2-0.9l3.9,3.9c0.4,0.4,1,0.4,1.4,0l1-1C94,46.8,93.9,46.3,93.5,45.9z M79.7,38.6
			c0-2.4,2-4.4,4.4-4.4c2.4,0,4.6,2.1,4.6,4.6c0,2.4-2,4.4-4.4,4.4C81.8,43.1,79.7,41,79.7,38.6z"/>
	</g>
</g>
</svg>
