<?xml version="1.0" encoding="utf-8"?>
<!-- Generator: Adobe Illustrator 19.0.0, SVG Export Plug-In . SVG Version: 6.00 Build 0)  -->
<svg version="1.1" id="Layer_1" xmlns="http://www.w3.org/2000/svg" xmlns:xlink="http://www.w3.org/1999/xlink" x="0px" y="0px"
	 viewBox="0 0 198.2 198.2" style="enable-background:new 0 0 198.2 198.2;" xml:space="preserve">
<style type="text/css">
	.st0{fill:#203A55;}
	.st1{clip-path:url(#XMLID_54_);fill:#3887BE;}
	.st2{clip-path:url(#XMLID_54_);fill:#297CAA;}
	.st3{clip-path:url(#XMLID_54_);fill:#489DCC;}
	.st4{clip-path:url(#XMLID_54_);fill:#DFDFDF;}
	.st5{clip-path:url(#XMLID_54_);fill:#3C4E5A;}
	.st6{clip-path:url(#XMLID_54_);fill:#43B5D2;}
	.st7{clip-path:url(#XMLID_54_);fill:#8689CA;}
	.st8{clip-path:url(#XMLID_54_);fill:#56B881;}
</style>
<g id="XMLID_62_">
	<circle id="XMLID_67_" class="st0" cx="99.1" cy="99.1" r="99.1"/>
	<g id="XMLID_70_">
		<defs>
			<circle id="XMLID_69_" cx="99" cy="99.1" r="99.1"/>
		</defs>
		<clipPath id="XMLID_54_">
			<use xlink:href="#XMLID_69_"  style="overflow:visible;"/>
		</clipPath>
		<path id="XMLID_71_" class="st1" d="M136.4,60.7l-3.5-9.2H49.8c-4.5,0-8.2,3.7-8.2,8.2v129.8c0,4.5,3.7,8.2,8.2,8.2H154
			c4.5,0,8.2-3.7,8.2-8.2V84.9l-18.7-10.7L136.4,60.7z"/>
		<polygon id="XMLID_72_" class="st2" points="144.2,62.6 138.9,79.8 162.2,93.1 162.2,80.7 		"/>
		<path id="XMLID_73_" class="st3" d="M143.2,80.7c-5.7,0-10.2-4.6-10.3-10.2l0-19l29.3,29.3L143.2,80.7z"/>
		<path id="XMLID_74_" class="st4" d="M58.2,77.9h-2.9c-0.5,0-0.8-0.4-0.8-0.8v0c0-0.5,0.4-0.8,0.8-0.8h2.9c0.5,0,0.8,0.4,0.8,0.8v0
			C59,77.5,58.6,77.9,58.2,77.9z"/>
		<path id="XMLID_75_" class="st4" d="M58.2,83.4h-2.9c-0.5,0-0.8-0.4-0.8-0.8v0c0-0.5,0.4-0.8,0.8-0.8h2.9c0.5,0,0.8,0.4,0.8,0.8v0
			C59,83,58.6,83.4,58.2,83.4z"/>
		<path id="XMLID_76_" class="st5" d="M77.6,113H62.9c-0.4,0-0.8-0.4-0.8-0.8v0c0-0.4,0.4-0.8,0.8-0.8h14.8c0.4,0,0.8,0.4,0.8,0.8v0
			C78.5,112.7,78.1,113,77.6,113z"/>
		<path id="XMLID_77_" class="st6" d="M102.3,123.4H87.5c-0.4,0-0.8-0.4-0.8-0.8v0c0-0.4,0.4-0.8,0.8-0.8h14.8
			c0.4,0,0.8,0.4,0.8,0.8v0C103.1,123.1,102.8,123.4,102.3,123.4z"/>
		<path id="XMLID_78_" class="st6" d="M130.2,123.4h-14.8c-0.4,0-0.8-0.4-0.8-0.8v0c0-0.4,0.4-0.8,0.8-0.8h14.8
			c0.4,0,0.8,0.4,0.8,0.8v0C131,123.1,130.7,123.4,130.2,123.4z"/>
		<path id="XMLID_79_" class="st6" d="M112.4,132.3H87.5c-0.4,0-0.8-0.4-0.8-0.8v0c0-0.4,0.4-0.8,0.8-0.8h24.9
			c0.4,0,0.8,0.4,0.8,0.8v0C113.2,131.9,112.9,132.3,112.4,132.3z"/>
		<path id="XMLID_80_" class="st6" d="M121.5,127.8H87.5c-0.4,0-0.8-0.4-0.8-0.8v0c0-0.4,0.4-0.8,0.8-0.8h33.9
			c0.4,0,0.8,0.4,0.8,0.8v0C122.3,127.4,121.9,127.8,121.5,127.8z"/>
		<path id="XMLID_81_" class="st4" d="M58.2,88.3h-2.9c-0.5,0-0.8-0.4-0.8-0.8v0c0-0.5,0.4-0.8,0.8-0.8h2.9c0.5,0,0.8,0.4,0.8,0.8v0
			C59,87.9,58.6,88.3,58.2,88.3z"/>
		<path id="XMLID_82_" class="st4" d="M58.2,93.3h-2.9c-0.5,0-0.8-0.4-0.8-0.8v0c0-0.5,0.4-0.8,0.8-0.8h2.9c0.5,0,0.8,0.4,0.8,0.8v0
			C59,92.9,58.6,93.3,58.2,93.3z"/>
		<path id="XMLID_83_" class="st4" d="M58.2,97.7h-2.9c-0.5,0-0.8-0.4-0.8-0.8v0c0-0.5,0.4-0.8,0.8-0.8h2.9c0.5,0,0.8,0.4,0.8,0.8v0
			C59,97.3,58.6,97.7,58.2,97.7z"/>
		<path id="XMLID_84_" class="st4" d="M58.2,102.7h-2.9c-0.5,0-0.8-0.4-0.8-0.8v0c0-0.5,0.4-0.8,0.8-0.8h2.9c0.5,0,0.8,0.4,0.8,0.8
			v0C59,102.3,58.6,102.7,58.2,102.7z"/>
		<path id="XMLID_85_" class="st4" d="M58.2,107.7h-2.9c-0.5,0-0.8-0.4-0.8-0.8v0c0-0.5,0.4-0.8,0.8-0.8h2.9c0.5,0,0.8,0.4,0.8,0.8
			v0C59,107.3,58.6,107.7,58.2,107.7z"/>
		<path id="XMLID_86_" class="st4" d="M58.2,113h-2.9c-0.5,0-0.8-0.4-0.8-0.8v0c0-0.5,0.4-0.8,0.8-0.8h2.9c0.5,0,0.8,0.4,0.8,0.8v0
			C59,112.7,58.6,113,58.2,113z"/>
		<path id="XMLID_87_" class="st4" d="M58.2,117.9h-2.9c-0.5,0-0.8-0.4-0.8-0.8v0c0-0.5,0.4-0.8,0.8-0.8h2.9c0.5,0,0.8,0.4,0.8,0.8
			v0C59,117.5,58.6,117.9,58.2,117.9z"/>
		<path id="XMLID_88_" class="st4" d="M58.2,123.3h-2.9c-0.5,0-0.8-0.4-0.8-0.8v0c0-0.5,0.4-0.8,0.8-0.8h2.9c0.5,0,0.8,0.4,0.8,0.8
			v0C59,122.9,58.6,123.3,58.2,123.3z"/>
		<path id="XMLID_89_" class="st4" d="M58.2,128.3h-2.9c-0.5,0-0.8-0.4-0.8-0.8v0c0-0.5,0.4-0.8,0.8-0.8h2.9c0.5,0,0.8,0.4,0.8,0.8
			v0C59,127.9,58.6,128.3,58.2,128.3z"/>
		<path id="XMLID_90_" class="st4" d="M74.7,123.5h-6.5c-0.5,0-0.8-0.4-0.8-0.8v0c0-0.5,0.4-0.8,0.8-0.8h6.5c0.5,0,0.8,0.4,0.8,0.8
			v0C75.5,123.1,75.2,123.5,74.7,123.5z"/>
		<path id="XMLID_91_" class="st5" d="M84.5,123.5h-6.5c-0.5,0-0.8-0.4-0.8-0.8v0c0-0.5,0.4-0.8,0.8-0.8h6.5c0.5,0,0.8,0.4,0.8,0.8
			v0C85.4,123.1,85,123.5,84.5,123.5z"/>
		<path id="XMLID_92_" class="st7" d="M111.8,123.5h-6.5c-0.5,0-0.8-0.4-0.8-0.8v0c0-0.5,0.4-0.8,0.8-0.8h6.5c0.5,0,0.8,0.4,0.8,0.8
			v0C112.7,123.1,112.3,123.5,111.8,123.5z"/>
		<path id="XMLID_93_" class="st4" d="M140.4,123.5h-6.5c-0.5,0-0.8-0.4-0.8-0.8v0c0-0.5,0.4-0.8,0.8-0.8h6.5c0.5,0,0.8,0.4,0.8,0.8
			v0C141.2,123.1,140.9,123.5,140.4,123.5z"/>
		<path id="XMLID_94_" class="st4" d="M122,132.3h-6.5c-0.5,0-0.8-0.4-0.8-0.8v0c0-0.5,0.4-0.8,0.8-0.8h6.5c0.5,0,0.8,0.4,0.8,0.8v0
			C122.8,131.9,122.4,132.3,122,132.3z"/>
		<path id="XMLID_95_" class="st4" d="M131.8,132.3h-6.5c-0.5,0-0.8-0.4-0.8-0.8v0c0-0.5,0.4-0.8,0.8-0.8h6.5c0.5,0,0.8,0.4,0.8,0.8
			v0C132.6,131.9,132.2,132.3,131.8,132.3z"/>
		<path id="XMLID_96_" class="st8" d="M132.6,127.8h-6.5c-0.5,0-0.8-0.4-0.8-0.8v0c0-0.5,0.4-0.8,0.8-0.8h6.5c0.5,0,0.8,0.4,0.8,0.8
			v0C133.4,127.5,133.1,127.8,132.6,127.8z"/>
		<path id="XMLID_97_" class="st6" d="M143.1,127.8h-6.5c-0.5,0-0.8-0.4-0.8-0.8v0c0-0.5,0.4-0.8,0.8-0.8h6.5c0.5,0,0.8,0.4,0.8,0.8
			v0C143.9,127.5,143.5,127.8,143.1,127.8z"/>
		<path id="XMLID_98_" class="st6" d="M102.3,157.3H87.5c-0.4,0-0.8-0.4-0.8-0.8v0c0-0.4,0.4-0.8,0.8-0.8h14.8
			c0.4,0,0.8,0.4,0.8,0.8v0C103.1,156.9,102.8,157.3,102.3,157.3z"/>
		<path id="XMLID_99_" class="st6" d="M130.2,157.3h-14.8c-0.4,0-0.8-0.4-0.8-0.8v0c0-0.4,0.4-0.8,0.8-0.8h14.8
			c0.4,0,0.8,0.4,0.8,0.8v0C131,156.9,130.7,157.3,130.2,157.3z"/>
		<path id="XMLID_100_" class="st6" d="M112.4,166.1H87.5c-0.4,0-0.8-0.4-0.8-0.8v0c0-0.4,0.4-0.8,0.8-0.8h24.9
			c0.4,0,0.8,0.4,0.8,0.8v0C113.2,165.7,112.9,166.1,112.4,166.1z"/>
		<path id="XMLID_101_" class="st6" d="M113.3,161.7H87.5c-0.4,0-0.8-0.4-0.8-0.8v0c0-0.4,0.4-0.8,0.8-0.8h25.7
			c0.4,0,0.8,0.4,0.8,0.8v0C114.1,161.3,113.7,161.7,113.3,161.7z"/>
		<path id="XMLID_102_" class="st7" d="M111.8,157.3h-6.5c-0.5,0-0.8-0.4-0.8-0.8v0c0-0.5,0.4-0.8,0.8-0.8h6.5
			c0.5,0,0.8,0.4,0.8,0.8v0C112.7,156.9,112.3,157.3,111.8,157.3z"/>
		<path id="XMLID_103_" class="st4" d="M140.4,157.3h-6.5c-0.5,0-0.8-0.4-0.8-0.8v0c0-0.5,0.4-0.8,0.8-0.8h6.5
			c0.5,0,0.8,0.4,0.8,0.8v0C141.2,156.9,140.9,157.3,140.4,157.3z"/>
		<path id="XMLID_104_" class="st4" d="M122,166.1h-6.5c-0.5,0-0.8-0.4-0.8-0.8v0c0-0.5,0.4-0.8,0.8-0.8h6.5c0.5,0,0.8,0.4,0.8,0.8
			v0C122.8,165.7,122.4,166.1,122,166.1z"/>
		<path id="XMLID_105_" class="st4" d="M123.9,161.7h-6.5c-0.5,0-0.8-0.4-0.8-0.8v0c0-0.5,0.4-0.8,0.8-0.8h6.5
			c0.5,0,0.8,0.4,0.8,0.8v0C124.7,161.3,124.4,161.7,123.9,161.7z"/>
		<path id="XMLID_106_" class="st4" d="M131.8,166.1h-6.5c-0.5,0-0.8-0.4-0.8-0.8v0c0-0.5,0.4-0.8,0.8-0.8h6.5
			c0.5,0,0.8,0.4,0.8,0.8v0C132.6,165.7,132.2,166.1,131.8,166.1z"/>
		<path id="XMLID_107_" class="st8" d="M132.6,161.7h-6.5c-0.5,0-0.8-0.4-0.8-0.8v0c0-0.5,0.4-0.8,0.8-0.8h6.5
			c0.5,0,0.8,0.4,0.8,0.8v0C133.4,161.3,133.1,161.7,132.6,161.7z"/>
		<path id="XMLID_108_" class="st6" d="M143.1,161.7h-6.5c-0.5,0-0.8-0.4-0.8-0.8v0c0-0.5,0.4-0.8,0.8-0.8h6.5
			c0.5,0,0.8,0.4,0.8,0.8v0C143.9,161.3,143.5,161.7,143.1,161.7z"/>
		<path id="XMLID_109_" class="st4" d="M74.7,127.8h-6.5c-0.5,0-0.8-0.4-0.8-0.8v0c0-0.5,0.4-0.8,0.8-0.8h6.5c0.5,0,0.8,0.4,0.8,0.8
			v0C75.5,127.5,75.2,127.8,74.7,127.8z"/>
		<path id="XMLID_110_" class="st5" d="M84.5,127.8h-6.5c-0.5,0-0.8-0.4-0.8-0.8v0c0-0.5,0.4-0.8,0.8-0.8h6.5c0.5,0,0.8,0.4,0.8,0.8
			v0C85.4,127.5,85,127.8,84.5,127.8z"/>
		<path id="XMLID_111_" class="st4" d="M74.7,132h-6.5c-0.5,0-0.8-0.4-0.8-0.8v0c0-0.5,0.4-0.8,0.8-0.8h6.5c0.5,0,0.8,0.4,0.8,0.8v0
			C75.5,131.6,75.2,132,74.7,132z"/>
		<path id="XMLID_112_" class="st5" d="M84.5,132h-6.5c-0.5,0-0.8-0.4-0.8-0.8v0c0-0.5,0.4-0.8,0.8-0.8h6.5c0.5,0,0.8,0.4,0.8,0.8v0
			C85.4,131.6,85,132,84.5,132z"/>
		<path id="XMLID_113_" class="st4" d="M74.7,157.6h-6.5c-0.5,0-0.8-0.4-0.8-0.8v0c0-0.5,0.4-0.8,0.8-0.8h6.5c0.5,0,0.8,0.4,0.8,0.8
			v0C75.5,157.3,75.2,157.6,74.7,157.6z"/>
		<path id="XMLID_114_" class="st4" d="M84.5,157.6h-6.5c-0.5,0-0.8-0.4-0.8-0.8v0c0-0.5,0.4-0.8,0.8-0.8h6.5c0.5,0,0.8,0.4,0.8,0.8
			v0C85.4,157.3,85,157.6,84.5,157.6z"/>
		<path id="XMLID_115_" class="st4" d="M74.7,162h-6.5c-0.5,0-0.8-0.4-0.8-0.8v0c0-0.5,0.4-0.8,0.8-0.8h6.5c0.5,0,0.8,0.4,0.8,0.8v0
			C75.5,161.6,75.2,162,74.7,162z"/>
		<path id="XMLID_116_" class="st4" d="M84.5,162h-6.5c-0.5,0-0.8-0.4-0.8-0.8v0c0-0.5,0.4-0.8,0.8-0.8h6.5c0.5,0,0.8,0.4,0.8,0.8v0
			C85.4,161.6,85,162,84.5,162z"/>
		<path id="XMLID_117_" class="st4" d="M74.7,166.2h-6.5c-0.5,0-0.8-0.4-0.8-0.8v0c0-0.5,0.4-0.8,0.8-0.8h6.5c0.5,0,0.8,0.4,0.8,0.8
			v0C75.5,165.8,75.2,166.2,74.7,166.2z"/>
		<path id="XMLID_118_" class="st4" d="M84.5,166.2h-6.5c-0.5,0-0.8-0.4-0.8-0.8v0c0-0.5,0.4-0.8,0.8-0.8h6.5c0.5,0,0.8,0.4,0.8,0.8
			v0C85.4,165.8,85,166.2,84.5,166.2z"/>
		<path id="XMLID_119_" class="st5" d="M77.8,146.8H62.6c-0.5,0-0.8-0.4-0.8-0.8v0c0-0.5,0.4-0.8,0.8-0.8h15.2
			c0.5,0,0.8,0.4,0.8,0.8v0C78.6,146.5,78.2,146.8,77.8,146.8z"/>
		<path id="XMLID_120_" class="st4" d="M58.2,132.6h-2.9c-0.5,0-0.8-0.4-0.8-0.8v0c0-0.5,0.4-0.8,0.8-0.8h2.9c0.5,0,0.8,0.4,0.8,0.8
			v0C59,132.3,58.6,132.6,58.2,132.6z"/>
		<path id="XMLID_121_" class="st4" d="M58.2,137.2h-2.9c-0.5,0-0.8-0.4-0.8-0.8v0c0-0.5,0.4-0.8,0.8-0.8h2.9c0.5,0,0.8,0.4,0.8,0.8
			v0C59,136.8,58.6,137.2,58.2,137.2z"/>
		<path id="XMLID_122_" class="st4" d="M58.2,142.9h-2.9c-0.5,0-0.8-0.4-0.8-0.8v0c0-0.5,0.4-0.8,0.8-0.8h2.9c0.5,0,0.8,0.4,0.8,0.8
			v0C59,142.5,58.6,142.9,58.2,142.9z"/>
		<path id="XMLID_123_" class="st4" d="M58.2,147.3h-2.9c-0.5,0-0.8-0.4-0.8-0.8v0c0-0.5,0.4-0.8,0.8-0.8h2.9c0.5,0,0.8,0.4,0.8,0.8
			v0C59,146.9,58.6,147.3,58.2,147.3z"/>
		<path id="XMLID_124_" class="st4" d="M58.2,151.6h-2.9c-0.5,0-0.8-0.4-0.8-0.8v0c0-0.5,0.4-0.8,0.8-0.8h2.9c0.5,0,0.8,0.4,0.8,0.8
			v0C59,151.3,58.6,151.6,58.2,151.6z"/>
		<path id="XMLID_125_" class="st4" d="M58.2,157.4h-2.9c-0.5,0-0.8-0.4-0.8-0.8v0c0-0.5,0.4-0.8,0.8-0.8h2.9c0.5,0,0.8,0.4,0.8,0.8
			v0C59,157,58.6,157.4,58.2,157.4z"/>
		<path id="XMLID_126_" class="st4" d="M58.2,162h-2.9c-0.5,0-0.8-0.4-0.8-0.8v0c0-0.5,0.4-0.8,0.8-0.8h2.9c0.5,0,0.8,0.4,0.8,0.8v0
			C59,161.6,58.6,162,58.2,162z"/>
		<path id="XMLID_127_" class="st4" d="M58.2,166.8h-2.9c-0.5,0-0.8-0.4-0.8-0.8v0c0-0.5,0.4-0.8,0.8-0.8h2.9c0.5,0,0.8,0.4,0.8,0.8
			v0C59,166.5,58.6,166.8,58.2,166.8z"/>
		<path id="XMLID_128_" class="st4" d="M58.2,171h-2.9c-0.5,0-0.8-0.4-0.8-0.8v0c0-0.5,0.4-0.8,0.8-0.8h2.9c0.5,0,0.8,0.4,0.8,0.8v0
			C59,170.6,58.6,171,58.2,171z"/>
		<path id="XMLID_129_" class="st4" d="M58.2,176h-2.9c-0.5,0-0.8-0.4-0.8-0.8v0c0-0.5,0.4-0.8,0.8-0.8h2.9c0.5,0,0.8,0.4,0.8,0.8v0
			C59,175.7,58.6,176,58.2,176z"/>
		<path id="XMLID_130_" class="st4" d="M66,171h-2.9c-0.5,0-0.8-0.4-0.8-0.8v0c0-0.5,0.4-0.8,0.8-0.8H66c0.5,0,0.8,0.4,0.8,0.8v0
			C66.9,170.6,66.5,171,66,171z"/>
		<path id="XMLID_131_" class="st4" d="M83.4,146.8h-2.9c-0.5,0-0.8-0.4-0.8-0.8v0c0-0.5,0.4-0.8,0.8-0.8h2.9c0.5,0,0.8,0.4,0.8,0.8
			v0C84.2,146.5,83.8,146.8,83.4,146.8z"/>
		<path id="XMLID_132_" class="st4" d="M66,138.1h-2.9c-0.5,0-0.8-0.4-0.8-0.8v0c0-0.5,0.4-0.8,0.8-0.8H66c0.5,0,0.8,0.4,0.8,0.8v0
			C66.9,137.7,66.5,138.1,66,138.1z"/>
		<path id="XMLID_133_" class="st4" d="M83.2,113.1h-2.9c-0.5,0-0.8-0.4-0.8-0.8v0c0-0.5,0.4-0.8,0.8-0.8h2.9c0.5,0,0.8,0.4,0.8,0.8
			v0C84,112.7,83.7,113.1,83.2,113.1z"/>
		<path id="XMLID_134_" class="st5" d="M77.6,77.7H62.9c-0.4,0-0.8-0.4-0.8-0.8v0c0-0.4,0.4-0.8,0.8-0.8h14.8c0.4,0,0.8,0.4,0.8,0.8
			v0C78.5,77.3,78.1,77.7,77.6,77.7z"/>
		<path id="XMLID_135_" class="st6" d="M102.3,88.1H87.5c-0.4,0-0.8-0.4-0.8-0.8v0c0-0.4,0.4-0.8,0.8-0.8h14.8
			c0.4,0,0.8,0.4,0.8,0.8v0C103.1,87.7,102.8,88.1,102.3,88.1z"/>
		<path id="XMLID_136_" class="st6" d="M112.4,96.9H87.5c-0.4,0-0.8-0.4-0.8-0.8v0c0-0.4,0.4-0.8,0.8-0.8h24.9
			c0.4,0,0.8,0.4,0.8,0.8v0C113.2,96.5,112.9,96.9,112.4,96.9z"/>
		<path id="XMLID_137_" class="st6" d="M111.9,92.5H78c-0.4,0-0.8-0.4-0.8-0.8v0c0-0.4,0.4-0.8,0.8-0.8h33.9c0.4,0,0.8,0.4,0.8,0.8
			v0C112.7,92.1,112.3,92.5,111.9,92.5z"/>
		<path id="XMLID_138_" class="st4" d="M74.7,88.1h-6.5c-0.5,0-0.8-0.4-0.8-0.8v0c0-0.5,0.4-0.8,0.8-0.8h6.5c0.5,0,0.8,0.4,0.8,0.8
			v0C75.5,87.7,75.2,88.1,74.7,88.1z"/>
		<path id="XMLID_139_" class="st5" d="M84.5,88.1h-6.5c-0.5,0-0.8-0.4-0.8-0.8v0c0-0.5,0.4-0.8,0.8-0.8h6.5c0.5,0,0.8,0.4,0.8,0.8
			v0C85.4,87.7,85,88.1,84.5,88.1z"/>
		<path id="XMLID_140_" class="st7" d="M111.8,88.1h-6.5c-0.5,0-0.8-0.4-0.8-0.8v0c0-0.5,0.4-0.8,0.8-0.8h6.5c0.5,0,0.8,0.4,0.8,0.8
			v0C112.7,87.7,112.3,88.1,111.8,88.1z"/>
		<path id="XMLID_141_" class="st4" d="M122.4,88.1H116c-0.5,0-0.8-0.4-0.8-0.8v0c0-0.5,0.4-0.8,0.8-0.8h6.5c0.5,0,0.8,0.4,0.8,0.8
			v0C123.3,87.7,122.9,88.1,122.4,88.1z"/>
		<path id="XMLID_142_" class="st4" d="M122,96.9h-6.5c-0.5,0-0.8-0.4-0.8-0.8v0c0-0.5,0.4-0.8,0.8-0.8h6.5c0.5,0,0.8,0.4,0.8,0.8v0
			C122.8,96.5,122.4,96.9,122,96.9z"/>
		<path id="XMLID_143_" class="st4" d="M131.8,96.9h-6.5c-0.5,0-0.8-0.4-0.8-0.8v0c0-0.5,0.4-0.8,0.8-0.8h6.5c0.5,0,0.8,0.4,0.8,0.8
			v0C132.6,96.5,132.2,96.9,131.8,96.9z"/>
		<path id="XMLID_144_" class="st8" d="M122.4,92.5H116c-0.5,0-0.8-0.4-0.8-0.8v0c0-0.5,0.4-0.8,0.8-0.8h6.5c0.5,0,0.8,0.4,0.8,0.8
			v0C123.3,92.1,122.9,92.5,122.4,92.5z"/>
		<path id="XMLID_145_" class="st6" d="M132.9,92.5h-6.5c-0.5,0-0.8-0.4-0.8-0.8v0c0-0.5,0.4-0.8,0.8-0.8h6.5c0.5,0,0.8,0.4,0.8,0.8
			v0C133.7,92.1,133.4,92.5,132.9,92.5z"/>
		<path id="XMLID_146_" class="st4" d="M74.7,92.5h-6.5c-0.5,0-0.8-0.4-0.8-0.8v0c0-0.5,0.4-0.8,0.8-0.8h6.5c0.5,0,0.8,0.4,0.8,0.8
			v0C75.5,92.1,75.2,92.5,74.7,92.5z"/>
		<path id="XMLID_147_" class="st4" d="M74.7,96.6h-6.5c-0.5,0-0.8-0.4-0.8-0.8v0c0-0.5,0.4-0.8,0.8-0.8h6.5c0.5,0,0.8,0.4,0.8,0.8
			v0C75.5,96.3,75.2,96.6,74.7,96.6z"/>
		<path id="XMLID_148_" class="st5" d="M84.5,96.6h-6.5c-0.5,0-0.8-0.4-0.8-0.8v0c0-0.5,0.4-0.8,0.8-0.8h6.5c0.5,0,0.8,0.4,0.8,0.8
			v0C85.4,96.3,85,96.6,84.5,96.6z"/>
		<path id="XMLID_149_" class="st4" d="M66,102.7h-2.9c-0.5,0-0.8-0.4-0.8-0.8v0c0-0.5,0.4-0.8,0.8-0.8H66c0.5,0,0.8,0.4,0.8,0.8v0
			C66.9,102.4,66.5,102.7,66,102.7z"/>
		<path id="XMLID_150_" class="st4" d="M83.2,77.7h-2.9c-0.5,0-0.8-0.4-0.8-0.8v0c0-0.5,0.4-0.8,0.8-0.8h2.9c0.5,0,0.8,0.4,0.8,0.8
			v0C84,77.3,83.7,77.7,83.2,77.7z"/>
	</g>
</g>
</svg>
