<?xml version="1.0" encoding="utf-8"?>
<!-- Generator: Adobe Illustrator 19.0.0, SVG Export Plug-In . SVG Version: 6.00 Build 0)  -->
<svg version="1.1" id="Layer_1" xmlns="http://www.w3.org/2000/svg" xmlns:xlink="http://www.w3.org/1999/xlink" x="0px" y="0px"
	 viewBox="0 0 135.3 135.3" style="enable-background:new 0 0 135.3 135.3;" xml:space="preserve">
<style type="text/css">
	.st0{clip-path:url(#XMLID_42_);fill:#FBFBFB;}
	.st1{clip-path:url(#XMLID_42_);}
	.st2{clip-path:url(#XMLID_221_);fill:#213B54;}
	.st3{clip-path:url(#XMLID_221_);fill:#254763;}
	.st4{clip-path:url(#XMLID_221_);fill:#28353D;}
	.st5{clip-path:url(#XMLID_42_);fill:#344B62;}
	.st6{clip-path:url(#XMLID_222_);fill:#FFFFFF;}
	.st7{clip-path:url(#XMLID_224_);fill:#597384;}
	.st8{clip-path:url(#XMLID_225_);fill:#597384;}
	.st9{clip-path:url(#XMLID_226_);fill:#597384;}
	.st10{clip-path:url(#XMLID_227_);fill:#597384;}
	.st11{clip-path:url(#XMLID_228_);fill:#597384;}
	.st12{clip-path:url(#XMLID_229_);fill:#597384;}
	.st13{clip-path:url(#XMLID_230_);fill:#597384;}
	.st14{clip-path:url(#XMLID_231_);fill:#4EAA7C;}
	.st15{clip-path:url(#XMLID_232_);fill:#56B081;}
	.st16{clip-path:url(#XMLID_233_);fill:#56B081;}
	.st17{clip-path:url(#XMLID_243_);fill:#419172;}
	.st18{clip-path:url(#XMLID_244_);fill:#57A382;}
	.st19{clip-path:url(#XMLID_245_);fill:#57A382;}
	.st20{clip-path:url(#XMLID_246_);fill:#5FCA94;}
	.st21{clip-path:url(#XMLID_247_);fill:#6ED69E;}
	.st22{clip-path:url(#XMLID_248_);fill:#52BC82;}
	.st23{clip-path:url(#XMLID_249_);fill:#419172;}
	.st24{clip-path:url(#XMLID_250_);fill:#57A382;}
	.st25{clip-path:url(#XMLID_251_);fill:#57A382;}
	.st26{clip-path:url(#XMLID_252_);fill:#489E77;}
	.st27{clip-path:url(#XMLID_253_);fill:#57AA82;}
	.st28{clip-path:url(#XMLID_254_);fill:#FFFFFF;}
	.st29{clip-path:url(#XMLID_255_);fill:#FFFFFF;}
	.st30{clip-path:url(#XMLID_256_);fill:#FFFFFF;}
	.st31{clip-path:url(#XMLID_257_);fill:#FFFFFF;}
	.st32{clip-path:url(#XMLID_258_);fill:#FFFFFF;}
	.st33{clip-path:url(#XMLID_259_);fill:#FFFFFF;}
	.st34{clip-path:url(#XMLID_260_);fill:#FFFFFF;}
</style>
<g id="XMLID_40_">
	<g id="XMLID_44_">
		<defs>
			<path id="XMLID_43_" d="M67.6,0c37.4,0,67.6,30.3,67.6,67.6s-30.3,67.6-67.6,67.6C30.3,135.3,0,105,0,67.6S30.3,0,67.6,0"/>
		</defs>
		<clipPath id="XMLID_42_">
			<use xlink:href="#XMLID_43_"  style="overflow:visible;"/>
		</clipPath>
		<polyline id="XMLID_45_" class="st0" points="135.1,-40.2 135.1,135.7 -1.4,135.7 -1.4,-40.2 135.1,-40.2 		"/>
		<g id="XMLID_48_" class="st1">
			<defs>
				<polyline id="XMLID_47_" points="135.5,136.1 -1,136.1 -1,-39.8 135.5,-39.8 135.5,136.1 				"/>
			</defs>
			<clipPath id="XMLID_221_">
				<use xlink:href="#XMLID_47_"  style="overflow:visible;"/>
			</clipPath>
			<polyline id="XMLID_49_" class="st2" points="135.5,136.1 -1,136.1 -1,-39.8 135.5,-39.8 135.5,136.1 			"/>
			<circle id="XMLID_50_" class="st2" cx="149.1" cy="-3" r="51.6"/>
			<polyline id="XMLID_51_" class="st3" points="-6.9,91.1 101.7,34.4 98.8,28.9 -9.7,85.6 			"/>
			<polyline id="XMLID_52_" class="st3" points="-11,-24.9 82.8,155.2 88.3,152.4 -5.6,-27.8 -11,-24.9 			"/>
			<polyline id="XMLID_53_" class="st3" points="62.5,109.1 -18.6,153.1 -15.6,158.5 65.5,114.5 62.5,109.1 			"/>
			<path id="XMLID_54_" class="st3" d="M205.8-2h-3.1c0,15.2-6.2,29-16.1,39c-10,10-23.7,16.1-39,16.1c-15.2,0-29-6.2-39-16.1
				c-10-10-16.1-23.7-16.1-39c0-15.2,6.2-29,16.1-39c10-10,23.7-16.1,39-16.1c15.2,0,29,6.2,39,16.1c10,10,16.1,23.7,16.1,39H205.8
				h3.1c0-33.8-27.4-61.2-61.2-61.2c-33.8,0-61.2,27.4-61.2,61.2c0,33.8,27.4,61.2,61.2,61.2c33.8,0,61.2-27.4,61.2-61.2H205.8z"/>
			<path id="XMLID_55_" class="st4" d="M19,101.3c-0.2,0-0.4-0.2-0.4-0.4V100h0.8v0.8C19.4,101.1,19.2,101.3,19,101.3"/>
			<path id="XMLID_56_" class="st4" d="M36.1,121c-0.2,0-0.4-0.2-0.4-0.4v-0.8h0.8v0.8C36.6,120.8,36.4,121,36.1,121"/>
			<polyline id="XMLID_57_" class="st3" points="53.1,91.2 164.9,91.2 164.9,87 53.1,87 			"/>
			<polyline id="XMLID_58_" class="st3" points="73.1,48.3 59.8,-33.5 53.8,-32.6 67.1,49.3 73.1,48.3 			"/>
		</g>
		<path id="XMLID_46_" class="st5" d="M89.6,97h-9.2c-0.4,0-0.6,0.3-0.6,0.7l1.4,11.4c0,0.3,0.3,0.5,0.6,0.5h7.8
			c0.3,0,0.6-0.3,0.6-0.6V97.6C90.2,97.3,89.9,97,89.6,97"/>
		<path id="XMLID_59_" class="st5" d="M95.4,97h-3.3c-0.4,0-0.7,0.3-0.7,0.7v11.2c0,0.4,0.3,0.7,0.7,0.7h3.3c0.4,0,0.7-0.3,0.7-0.7
			V97.7C96.1,97.3,95.8,97,95.4,97"/>
		<path id="XMLID_60_" class="st5" d="M115.3,97H112c-0.4,0-0.7,0.3-0.7,0.7v5.3c0,0.4,0.3,0.7,0.7,0.7h3.3c0.4,0,0.7-0.3,0.7-0.7
			v-5.3C116,97.3,115.7,97,115.3,97"/>
		<path id="XMLID_61_" class="st5" d="M109.2,97h-3.3c-0.4,0-0.7,0.3-0.7,0.7v11.2c0,0.4,0.3,0.7,0.7,0.7h3.3c0.4,0,0.7-0.3,0.7-0.7
			V97.7C109.9,97.3,109.6,97,109.2,97"/>
		<path id="XMLID_62_" class="st5" d="M103.5,97h-5.8c-0.4,0-0.7,0.3-0.7,0.7v11.2c0,0.4,0.3,0.7,0.7,0.7h5.8c0.4,0,0.7-0.3,0.7-0.7
			V97.7C104.2,97.3,103.9,97,103.5,97"/>
		<path id="XMLID_63_" class="st5" d="M123.8,97H118c-0.4,0-0.7,0.3-0.7,0.7v11.2c0,0.4,0.3,0.7,0.7,0.7h2.7
			c1.4-1.7,2.7-3.5,3.9-5.4v-6.5C124.5,97.3,124.2,97,123.8,97"/>
		<path id="XMLID_64_" class="st5" d="M128.6,97h-2c-0.4,0-0.7,0.3-0.7,0.7v4.4C126.8,100.5,127.7,98.7,128.6,97"/>
		<path id="XMLID_65_" class="st5" d="M59.1,25.5c-0.1,0-0.2,0-0.3,0.1L34,37.6c-0.4,0.2-0.5,0.6-0.3,1L40.5,52
			c0.1,0.3,0.4,0.4,0.7,0.4c0.1,0,0.2,0,0.3-0.1l20.9-10.1c0.3-0.1,0.5-0.5,0.4-0.8l-2.9-15.3C59.8,25.7,59.5,25.5,59.1,25.5"/>
		<path id="XMLID_66_" class="st5" d="M35.3,27.9c-0.1,0-0.2,0-0.3,0.1l-4.7,2.4c-0.3,0.2-0.5,0.6-0.3,1l1.5,2.9
			c0.1,0.2,0.4,0.4,0.6,0.4c0.1,0,0.2,0,0.3-0.1l4.7-2.4c0.3-0.2,0.5-0.6,0.3-1L36,28.3C35.8,28,35.6,27.9,35.3,27.9"/>
		<path id="XMLID_67_" class="st5" d="M36.7,17.6c-0.1,0-0.2,0-0.3,0.1l-10,5.1c-0.3,0.2-0.5,0.6-0.3,1l2.6,5.2
			c0.1,0.2,0.4,0.4,0.6,0.4c0.1,0,0.2,0,0.3-0.1l10-5.1c0.3-0.2,0.5-0.6,0.3-1L37.3,18C37.2,17.8,37,17.6,36.7,17.6"/>
		<path id="XMLID_68_" class="st5" d="M32.8,10c-0.1,0-0.2,0-0.3,0.1l-2.3,1.1c-2.4,1.6-4.7,3.4-6.9,5.3v1.8l1.5,3
			c0.1,0.2,0.4,0.4,0.6,0.4c0.1,0,0.2,0,0.3-0.1l10-5.1c0.3-0.2,0.5-0.6,0.3-1l-2.6-5.2C33.3,10.2,33.1,10,32.8,10"/>
		<path id="XMLID_69_" class="st5" d="M55.3,1.1C51.2,1.9,47.1,3,43.2,4.5l0.8,4.8c0.1,0.3,0.4,0.6,0.7,0.6l0.1,0l11-1.9
			c0.4-0.1,0.6-0.4,0.6-0.8l-1-5.7C55.5,1.3,55.4,1.2,55.3,1.1"/>
		<path id="XMLID_70_" class="st5" d="M56.3,9.3C56.3,9.3,56.3,9.3,56.3,9.3l-0.1,0l-11,1.9c-0.4,0.1-0.6,0.4-0.6,0.8l1,5.7
			c0.1,0.3,0.4,0.6,0.7,0.6l0.1,0l11-1.9c0.4-0.1,0.6-0.4,0.6-0.8l-1-5.7C56.9,9.5,56.6,9.3,56.3,9.3"/>
		<path id="XMLID_71_" class="st5" d="M58.4,18.1l-0.1,0l-11,1.9c-0.4,0.1-0.6,0.4-0.6,0.8l0.6,3.2c0.1,0.3,0.4,0.6,0.7,0.6l0.1,0
			l11-1.9c0.4-0.1,0.6-0.4,0.6-0.8l-0.6-3.2C59,18.3,58.7,18.1,58.4,18.1"/>
		<path id="XMLID_72_" class="st5" d="M94.8,111.9H83.1c-0.8,0-1.3,0.7-1.2,1.4l1.2,6.6c0.1,0.6,0.6,1,1.2,1h10.5
			c0.7,0,1.2-0.6,1.2-1.2v-6.6C96.1,112.5,95.5,111.9,94.8,111.9"/>
	</g>
	<g id="XMLID_74_">
		<defs>
			<path id="XMLID_73_" d="M67.7,0c37.4,0,67.7,30.4,67.7,67.7c0,37.4-30.4,67.7-67.7,67.7S0,105.1,0,67.7C-0.1,30.4,30.3,0,67.7,0"
				/>
		</defs>
		<clipPath id="XMLID_222_">
			<use xlink:href="#XMLID_73_"  style="overflow:visible;"/>
		</clipPath>
		<path id="XMLID_75_" class="st6" d="M3.1,49.1c-0.2,0-0.3,0.1-0.4,0.3c0,0.2,0.1,0.4,0.3,0.5h0.1c0.2,0,0.3-0.1,0.4-0.3
			C3.5,49.4,3.4,49.2,3.1,49.1"/>
	</g>
	<g id="XMLID_77_">
		<defs>
			<path id="XMLID_76_" d="M67.7,0c37.4,0,67.7,30.4,67.7,67.7c0,37.4-30.4,67.7-67.7,67.7S0,105.1,0,67.7C-0.1,30.4,30.3,0,67.7,0"
				/>
		</defs>
		<clipPath id="XMLID_224_">
			<use xlink:href="#XMLID_76_"  style="overflow:visible;"/>
		</clipPath>
		<path id="XMLID_92_" class="st7" d="M31.8,55.6c-0.2,0-0.3,0.1-0.4,0.3c0,0.2,0.1,0.4,0.3,0.5h0.1c0.1,0,0.3-0.1,0.3-0.2v-0.1h0.1
			C32.2,55.8,32.1,55.6,31.8,55.6C31.9,55.6,31.8,55.6,31.8,55.6 M29.7,55.1c-0.2,0-0.3,0.1-0.4,0.3c0,0.2,0.1,0.4,0.3,0.5h0.1
			c0.2,0,0.3-0.1,0.4-0.3C30.3,55.4,30,55.2,29.7,55.1C29.8,55.1,29.8,55.1,29.7,55.1 M27.6,54.6c-0.2,0-0.3,0.1-0.4,0.3
			c0,0.2,0.1,0.4,0.3,0.5h0.1c0.2,0,0.3-0.1,0.4-0.3C28.2,55,28,54.7,27.6,54.6C27.7,54.6,27.7,54.6,27.6,54.6 M25.7,54.2
			c-0.2,0-0.3,0.1-0.4,0.3c0,0.2,0.1,0.4,0.3,0.5h0.1c0.2,0,0.3-0.1,0.4-0.3C26.1,54.5,26,54.3,25.7,54.2 M23.6,53.7
			c-0.2,0-0.3,0.1-0.4,0.3c0,0.2,0.1,0.4,0.3,0.5h0.1c0.2,0,0.3-0.1,0.4-0.3C24,54,23.9,53.7,23.6,53.7 M21.5,53.2
			c-0.2,0-0.3,0.1-0.4,0.3c0,0.2,0.1,0.4,0.3,0.5h0.1c0.2,0,0.3-0.1,0.4-0.3C22,53.5,21.8,53.3,21.5,53.2
			C21.6,53.2,21.5,53.2,21.5,53.2 M19.4,52.8c-0.2,0-0.3,0.1-0.4,0.3c0,0.2,0.1,0.4,0.3,0.5h0.1c0.2,0,0.3-0.1,0.4-0.3
			C19.9,53.1,19.8,52.9,19.4,52.8C19.6,52.8,19.6,52.8,19.4,52.8 M17.4,52.3c-0.2,0-0.3,0.1-0.4,0.3c0,0.2,0.1,0.4,0.3,0.5h0.1
			c0.2,0,0.3-0.1,0.4-0.3S17.7,52.4,17.4,52.3C17.5,52.3,17.5,52.3,17.4,52.3 M15.4,51.9c-0.2,0-0.3,0.1-0.4,0.3
			c0,0.2,0.1,0.4,0.3,0.5h0.1c0.2,0,0.3-0.1,0.4-0.3C15.8,52.1,15.7,51.9,15.4,51.9 M13.3,51.3c-0.2,0-0.3,0.1-0.4,0.3
			c0,0.2,0.1,0.4,0.3,0.5h0.1c0.2,0,0.3-0.1,0.4-0.3C13.8,51.7,13.7,51.5,13.3,51.3 M11.3,50.9c-0.2,0-0.3,0.1-0.4,0.3
			c0,0.2,0.1,0.4,0.3,0.5h0.1c0.2,0,0.3-0.1,0.4-0.3C11.7,51.2,11.6,51,11.3,50.9C11.4,50.9,11.3,50.9,11.3,50.9 M9.2,50.5
			c-0.2,0-0.3,0.1-0.4,0.3c0,0.2,0.1,0.4,0.3,0.5h0.1c0.2,0,0.3-0.1,0.4-0.3C9.6,50.8,9.5,50.6,9.2,50.5C9.3,50.5,9.2,50.5,9.2,50.5
			 M7.1,50c-0.2,0-0.3,0.1-0.4,0.3c0,0.2,0.1,0.4,0.3,0.5h0.1c0.2,0,0.3-0.1,0.4-0.3C7.6,50.3,7.4,50,7.1,50C7.2,50,7.2,50,7.1,50
			 M5.1,49.5c-0.2,0-0.3,0.1-0.4,0.3c0,0.2,0.1,0.4,0.3,0.5h0.1c0.2,0,0.3-0.1,0.4-0.3C5.6,49.8,5.4,49.6,5.1,49.5"/>
	</g>
	<g id="XMLID_94_">
		<defs>
			<path id="XMLID_93_" d="M67.7,0c37.4,0,67.7,30.4,67.7,67.7c0,37.4-30.4,67.7-67.7,67.7S0,105.1,0,67.7C-0.1,30.4,30.3,0,67.7,0"
				/>
		</defs>
		<clipPath id="XMLID_225_">
			<use xlink:href="#XMLID_93_"  style="overflow:visible;"/>
		</clipPath>
		<path id="XMLID_109_" class="st8" d="M81.6,30.6c-0.1,0-0.3,0.1-0.3,0.2c-0.1,0.2,0,0.4,0.2,0.5h0.1h0.1c0.1,0,0.3-0.1,0.3-0.2
			c0.1-0.2,0-0.4-0.2-0.5C81.8,30.6,81.7,30.6,81.6,30.6 M82.7,28.7c-0.1,0-0.3,0.1-0.3,0.2c-0.1,0.2,0,0.4,0.2,0.5
			c0.1,0,0.1,0,0.2,0s0.3-0.1,0.3-0.2c0.1-0.2,0-0.4-0.2-0.5C82.8,28.7,82.7,28.7,82.7,28.7 M83.7,26.9c-0.1,0-0.3,0.1-0.3,0.2
			c-0.1,0.2,0,0.4,0.2,0.5c0.1,0,0.1,0,0.2,0s0.3-0.1,0.3-0.2c0.1-0.2,0-0.4-0.2-0.5C83.8,26.9,83.7,26.9,83.7,26.9 M84.7,25
			c-0.1,0-0.3,0.1-0.3,0.2c-0.1,0.2,0,0.4,0.2,0.5c0.1,0,0.1,0,0.2,0s0.3-0.1,0.3-0.2c0.1-0.2,0-0.4-0.2-0.5
			C84.8,25,84.7,25,84.7,25 M85.6,23.2c-0.1,0-0.3,0.1-0.3,0.2c-0.1,0.2,0,0.4,0.2,0.5c0.1,0,0.1,0,0.2,0s0.3-0.1,0.3-0.2
			c0.1-0.2,0-0.4-0.2-0.5C85.8,23.2,85.6,23.2,85.6,23.2 M86.6,21.3c-0.1,0-0.3,0.1-0.3,0.2c-0.1,0.2,0,0.4,0.2,0.5
			c0.1,0,0.1,0,0.2,0s0.3-0.1,0.3-0.2c0.1-0.2,0-0.4-0.2-0.5C86.7,21.3,86.6,21.3,86.6,21.3 M87.6,19.4c-0.1,0-0.3,0.1-0.3,0.2
			c-0.1,0.2,0,0.4,0.2,0.5c0.1,0,0.1,0,0.2,0c0.1,0,0.3-0.1,0.3-0.2c0.1-0.2,0-0.4-0.2-0.5C87.7,19.4,87.6,19.4,87.6,19.4
			 M88.6,17.6c-0.1,0-0.3,0.1-0.3,0.2c-0.1,0.2,0,0.4,0.2,0.5c0.1,0,0.1,0,0.2,0s0.3-0.1,0.3-0.2c0.1-0.2,0-0.4-0.2-0.5
			C88.7,17.6,88.6,17.6,88.6,17.6 M89.6,15.7c-0.1,0-0.3,0.1-0.3,0.2c-0.1,0.2,0,0.4,0.2,0.5c0.1,0,0.1,0,0.2,0s0.3-0.1,0.3-0.2
			c0.1-0.2,0-0.4-0.2-0.5C89.7,15.7,89.6,15.7,89.6,15.7 M90.6,13.9c-0.1,0-0.3,0.1-0.3,0.2c-0.1,0.2,0,0.4,0.2,0.5
			c0.1,0,0.1,0,0.2,0s0.3-0.1,0.3-0.2c0.1-0.2,0-0.4-0.2-0.5C90.7,13.9,90.6,13.9,90.6,13.9 M91.5,12c-0.1,0-0.3,0.1-0.3,0.2
			c-0.1,0.2,0,0.4,0.2,0.5c0.1,0,0.1,0,0.2,0c0.1,0,0.3-0.1,0.3-0.2c0.1-0.2,0-0.4-0.2-0.5C91.7,12,91.5,12,91.5,12 M92.5,10.2
			c-0.1,0-0.3,0.1-0.3,0.2c-0.1,0.2,0,0.4,0.2,0.5c0.1,0,0.1,0,0.2,0s0.3-0.1,0.3-0.2c0.1-0.2,0-0.4-0.2-0.5
			C92.6,10.2,92.5,10.2,92.5,10.2 M93.5,8.3c-0.1,0-0.3,0.1-0.3,0.2c-0.1,0.2,0,0.4,0.2,0.5c0.1,0,0.1,0,0.2,0S94,9,94,8.8
			c0.1-0.2,0-0.4-0.2-0.5C93.6,8.3,93.6,8.3,93.5,8.3 M94.5,6.4c-0.1,0-0.3,0.1-0.3,0.2c-0.1,0.2,0,0.4,0.2,0.5c0.1,0,0.1,0,0.2,0
			s0.3-0.1,0.3-0.2c0.1-0.2,0-0.4-0.2-0.5C94.6,6.4,94.6,6.4,94.5,6.4"/>
	</g>
	<g id="XMLID_111_">
		<defs>
			<path id="XMLID_110_" d="M67.7,0c37.4,0,67.7,30.4,67.7,67.7c0,37.4-30.4,67.7-67.7,67.7S0,105.1,0,67.7C-0.1,30.4,30.3,0,67.7,0
				"/>
		</defs>
		<clipPath id="XMLID_226_">
			<use xlink:href="#XMLID_110_"  style="overflow:visible;"/>
		</clipPath>
		<path id="XMLID_123_" class="st9" d="M100.3,37.7c-0.1,0-0.2,0-0.3,0.1c-0.2,0.2-0.3,0.5-0.1,0.8c0.1,0.1,0.3,0.2,0.4,0.2
			s0.2,0,0.3-0.1c0.2-0.2,0.3-0.5,0.1-0.8C100.6,37.8,100.4,37.7,100.3,37.7 M102.1,36.4c-0.1,0-0.2,0-0.3,0.1
			c-0.2,0.2-0.3,0.5-0.1,0.8c0.1,0.1,0.3,0.2,0.4,0.2s0.2,0,0.3-0.1c0.2-0.2,0.3-0.5,0.1-0.8C102.5,36.5,102.4,36.4,102.1,36.4
			 M104,35.1c-0.1,0-0.2,0-0.3,0.1c-0.2,0.2-0.3,0.5-0.1,0.8c0.1,0.1,0.3,0.2,0.4,0.2s0.2,0,0.3-0.1c0.2-0.2,0.3-0.5,0.1-0.8
			C104.4,35.2,104.2,35.1,104,35.1 M106,33.8c-0.1,0-0.2,0-0.3,0.1c-0.2,0.2-0.3,0.5-0.1,0.8c0.1,0.1,0.3,0.2,0.4,0.2s0.2,0,0.3-0.1
			c0.2-0.2,0.3-0.5,0.1-0.8C106.3,33.9,106.1,33.8,106,33.8 M107.8,32.4c-0.1,0-0.2,0-0.3,0.1c-0.2,0.2-0.3,0.5-0.1,0.8
			c0.1,0.1,0.3,0.2,0.4,0.2s0.2,0,0.3-0.1c0.2-0.2,0.3-0.5,0.1-0.8C108.2,32.6,108,32.4,107.8,32.4 M109.7,31.1
			c-0.1,0-0.2,0-0.3,0.1c-0.2,0.2-0.3,0.5-0.1,0.8c0.1,0.1,0.3,0.2,0.4,0.2s0.2,0,0.3-0.1c0.2-0.2,0.3-0.5,0.1-0.8
			C110,31.2,109.9,31.1,109.7,31.1 M111.6,29.8c-0.1,0-0.2,0-0.3,0.1c-0.2,0.2-0.3,0.5-0.1,0.8c0.1,0.1,0.3,0.2,0.4,0.2
			c0.1,0,0.2,0,0.3-0.1c0.2-0.2,0.3-0.5,0.1-0.8C112,29.9,111.8,29.8,111.6,29.8 M113.5,28.5c-0.1,0-0.2,0-0.3,0.1
			c-0.2,0.2-0.3,0.5-0.1,0.8c0.1,0.1,0.3,0.2,0.4,0.2s0.2,0,0.3-0.1c0.2-0.2,0.3-0.5,0.1-0.8C113.8,28.6,113.7,28.5,113.5,28.5
			 M115.4,27.2c-0.1,0-0.2,0-0.3,0.1c-0.2,0.2-0.3,0.5-0.1,0.8c0.1,0.1,0.3,0.2,0.4,0.2s0.2,0,0.3-0.1c0.2-0.2,0.3-0.5,0.1-0.8
			C115.7,27.3,115.6,27.2,115.4,27.2 M117.2,25.9c-0.1,0-0.2,0-0.3,0.1c-0.2,0.2-0.3,0.5-0.1,0.8c0.1,0.1,0.3,0.2,0.4,0.2
			c0.1,0,0.2,0,0.3-0.1c0.2-0.2,0.3-0.5,0.1-0.8C117.7,26,117.4,25.9,117.2,25.9 M119.2,24.6c-0.1,0-0.2,0-0.3,0.1
			c-0.2,0.2-0.3,0.5-0.1,0.8c0.1,0.1,0.3,0.2,0.4,0.2c0.1,0,0.2,0,0.3-0.1c0.2-0.2,0.3-0.5,0.1-0.8
			C119.5,24.7,119.3,24.6,119.2,24.6"/>
	</g>
	<g id="XMLID_125_">
		<defs>
			<path id="XMLID_124_" d="M67.7,0c37.4,0,67.7,30.4,67.7,67.7c0,37.4-30.4,67.7-67.7,67.7S0,105.1,0,67.7C-0.1,30.4,30.3,0,67.7,0
				"/>
		</defs>
		<clipPath id="XMLID_227_">
			<use xlink:href="#XMLID_124_"  style="overflow:visible;"/>
		</clipPath>
		<path id="XMLID_149_" class="st10" d="M125.1,102.7c-0.1,0-0.2,0.1-0.3,0.2c-0.1,0.2-0.1,0.4,0.1,0.5c0.1,0,0.1,0.1,0.2,0.1
			c0.1,0,0.2,0,0.3-0.1c0-0.1,0.1-0.1,0.1-0.2c0-0.2,0-0.3-0.2-0.4C125.2,102.7,125.1,102.7,125.1,102.7 M123.3,101.5
			c-0.1,0-0.2,0.1-0.3,0.2c-0.1,0.2-0.1,0.4,0.1,0.5c0.1,0,0.1,0.1,0.2,0.1c0.1,0,0.2-0.1,0.3-0.2c0.1-0.2,0.1-0.4-0.1-0.5
			C123.4,101.5,123.3,101.5,123.3,101.5 M121.6,100.3c-0.1,0-0.2,0.1-0.3,0.2c-0.1,0.2-0.1,0.4,0.1,0.5c0.1,0,0.1,0.1,0.2,0.1
			c0.1,0,0.2-0.1,0.3-0.2c0.1-0.2,0.1-0.4-0.1-0.5C121.7,100.3,121.6,100.3,121.6,100.3 M119.8,99.1c-0.1,0-0.2,0.1-0.3,0.2
			c-0.1,0.2-0.1,0.4,0.1,0.5c0.1,0,0.1,0.1,0.2,0.1c0.1,0,0.2-0.1,0.3-0.2c0.1-0.2,0.1-0.4-0.1-0.5C120,99.2,119.8,99.1,119.8,99.1
			 M118.1,98c-0.1,0-0.2,0.1-0.3,0.2c-0.1,0.2-0.1,0.4,0.1,0.5c0.1,0,0.1,0.1,0.2,0.1s0.2-0.1,0.3-0.2c0.1-0.2,0.1-0.4-0.1-0.5
			C118.2,98,118.1,98,118.1,98 M116.3,96.8c-0.1,0-0.2,0.1-0.3,0.2c-0.1,0.2-0.1,0.4,0.1,0.5c0.1,0,0.1,0.1,0.2,0.1s0.2-0.1,0.3-0.2
			c0.1-0.2,0.1-0.4-0.1-0.5C116.5,96.8,116.3,96.8,116.3,96.8 M114.6,95.6c-0.1,0-0.2,0.1-0.3,0.2c-0.1,0.2-0.1,0.4,0.1,0.5
			c0.1,0,0.1,0.1,0.2,0.1s0.2-0.1,0.3-0.2c0.1-0.2,0.1-0.4-0.1-0.5C114.7,95.6,114.6,95.6,114.6,95.6 M112.7,94.4
			c-0.1,0-0.2,0.1-0.3,0.2c-0.1,0.2-0.1,0.4,0.1,0.5c0.1,0,0.1,0.1,0.2,0.1s0.2-0.1,0.3-0.2c0.1-0.2,0.1-0.4-0.1-0.5
			C113,94.5,112.9,94.4,112.7,94.4 M111,93.3c-0.1,0-0.2,0.1-0.3,0.2c-0.1,0.2-0.1,0.4,0.1,0.5c0.1,0,0.1,0.1,0.2,0.1
			s0.2-0.1,0.3-0.2c0.1-0.2,0.1-0.4-0.1-0.5C111.2,93.3,111.1,93.3,111,93.3 M109.2,92.1c-0.1,0-0.2,0.1-0.3,0.2
			c-0.1,0.2-0.1,0.4,0.1,0.5c0.1,0,0.1,0.1,0.2,0.1s0.2-0.1,0.3-0.2c0.1-0.2,0.1-0.4-0.1-0.5C109.5,92.1,109.4,92.1,109.2,92.1
			 M107.5,90.9c-0.1,0-0.2,0.1-0.3,0.2c-0.1,0.2-0.1,0.4,0.1,0.5c0.1,0,0.1,0.1,0.2,0.1c0.1,0,0.2-0.1,0.3-0.2
			c0.1-0.2,0.1-0.4-0.1-0.5C107.7,90.9,107.6,90.9,107.5,90.9 M105.8,89.8c-0.1,0-0.2,0.1-0.3,0.2c-0.1,0.2-0.1,0.4,0.1,0.5
			c0.1,0,0.1,0.1,0.2,0.1s0.2-0.1,0.3-0.2c0.1-0.2,0.1-0.4-0.1-0.5C106,89.8,105.9,89.8,105.8,89.8 M104,88.6
			c-0.1,0-0.2,0.1-0.3,0.2c-0.1,0.2-0.1,0.4,0.1,0.5c0.1,0,0.1,0.1,0.2,0.1s0.2-0.1,0.3-0.2c0.1-0.2,0.1-0.4-0.1-0.5
			C104.2,88.6,104.1,88.6,104,88.6 M102.3,87.4c-0.1,0-0.2,0.1-0.3,0.2c-0.1,0.2-0.1,0.4,0.1,0.5c0.1,0,0.1,0.1,0.2,0.1
			c0.1,0,0.2-0.1,0.3-0.2c0.1-0.2,0.1-0.4-0.1-0.5C102.5,87.4,102.4,87.4,102.3,87.4 M100.5,86.2c-0.1,0-0.2,0.1-0.3,0.2
			c-0.1,0.2-0.1,0.4,0.1,0.5c0.1,0,0.1,0.1,0.2,0.1s0.2-0.1,0.3-0.2c0.1-0.2,0.1-0.4-0.1-0.5C100.7,86.3,100.6,86.2,100.5,86.2
			 M98.8,85.1c-0.1,0-0.2,0.1-0.3,0.2c-0.1,0.2-0.1,0.4,0.1,0.5c0.1,0,0.1,0.1,0.2,0.1s0.2-0.1,0.3-0.2c0.1-0.2,0.1-0.4-0.1-0.5
			C99,85.1,98.9,85.1,98.8,85.1 M97,83.9c-0.1,0-0.2,0.1-0.3,0.2c-0.1,0.2-0.1,0.4,0.1,0.5c0.1,0,0.1,0.1,0.2,0.1s0.2-0.1,0.3-0.2
			c0.1-0.2,0.1-0.4-0.1-0.5C97.2,83.9,97.1,83.9,97,83.9 M95.3,82.7c-0.1,0-0.2,0.1-0.3,0.2c-0.1,0.2-0.1,0.4,0.1,0.5
			c0.1,0,0.1,0.1,0.2,0.1s0.2-0.1,0.3-0.2c0.1-0.2,0.1-0.4-0.1-0.5C95.5,82.7,95.4,82.7,95.3,82.7 M93.5,81.5
			c-0.1,0-0.2,0.1-0.3,0.2c-0.1,0.2-0.1,0.4,0.1,0.5c0.1,0,0.1,0.1,0.2,0.1s0.2-0.1,0.3-0.2c0.1-0.2,0.1-0.4-0.1-0.5
			C93.7,81.6,93.6,81.5,93.5,81.5 M91.8,80.4c-0.1,0-0.2,0.1-0.3,0.2c-0.1,0.2-0.1,0.4,0.1,0.5c0.1,0,0.1,0.1,0.2,0.1
			c0.1,0,0.2-0.1,0.3-0.2c0.1-0.2,0.1-0.4-0.1-0.5C92,80.4,91.9,80.4,91.8,80.4 M90,79.2c-0.1,0-0.2,0.1-0.3,0.2
			c-0.1,0.2-0.1,0.4,0.1,0.5c0.1,0,0.1,0.1,0.2,0.1s0.2-0.1,0.3-0.2c0.1-0.2,0.1-0.4-0.1-0.5C90.2,79.2,90.1,79.2,90,79.2 M88.3,78
			c-0.1,0-0.2,0.1-0.3,0.2c-0.1,0.2-0.1,0.4,0.1,0.5c0.1,0,0.1,0.1,0.2,0.1s0.2-0.1,0.3-0.2c0.1-0.2,0.1-0.4-0.1-0.5
			C88.5,78,88.4,78,88.3,78 M86.7,76.9l-0.5,0.7l0.1,0.1c0.1,0,0.1,0.1,0.2,0.1c0.1,0,0.2-0.1,0.3-0.2C87.1,77.3,87,77,86.7,76.9"/>
	</g>
	<g id="XMLID_151_">
		<defs>
			<path id="XMLID_150_" d="M67.7,0c37.4,0,67.7,30.4,67.7,67.7c0,37.4-30.4,67.7-67.7,67.7S0,105.1,0,67.7C-0.1,30.4,30.3,0,67.7,0
				"/>
		</defs>
		<clipPath id="XMLID_228_">
			<use xlink:href="#XMLID_150_"  style="overflow:visible;"/>
		</clipPath>
		<path id="XMLID_167_" class="st11" d="M134.5,56.6c-0.1,0.1-0.2,0.2-0.2,0.4c0,0.2,0.2,0.4,0.4,0.5
			C134.6,57.2,134.6,56.9,134.5,56.6 M104.2,56.5c-0.1,0-0.1,0-0.2,0l0.1,0.5l-0.3,0.3c0.1,0.1,0.2,0.2,0.4,0.2
			c0.3,0,0.5-0.2,0.5-0.5C104.8,56.7,104.5,56.5,104.2,56.5 M106.4,56.5c-0.3,0-0.5,0.2-0.5,0.5c0,0.3,0.2,0.5,0.5,0.5
			c0.3,0,0.5-0.2,0.5-0.5C107,56.7,106.7,56.5,106.4,56.5 M108.6,56.5c-0.3,0-0.5,0.2-0.5,0.5c0,0.3,0.2,0.5,0.5,0.5
			s0.5-0.2,0.5-0.5C109.1,56.7,108.9,56.5,108.6,56.5 M110.8,56.5c-0.3,0-0.5,0.2-0.5,0.5c0,0.3,0.2,0.5,0.5,0.5s0.5-0.2,0.5-0.5
			C111.3,56.7,111.1,56.5,110.8,56.5 M113,56.5c-0.3,0-0.5,0.2-0.5,0.5c0,0.3,0.2,0.5,0.5,0.5c0.3,0,0.5-0.2,0.5-0.5
			C113.5,56.7,113.3,56.5,113,56.5 M115.1,56.5c-0.3,0-0.5,0.2-0.5,0.5c0,0.3,0.2,0.5,0.5,0.5s0.5-0.2,0.5-0.5
			C115.7,56.7,115.5,56.5,115.1,56.5 M117.3,56.5c-0.3,0-0.5,0.2-0.5,0.5c0,0.3,0.2,0.5,0.5,0.5c0.3,0,0.5-0.2,0.5-0.5
			C117.9,56.7,117.7,56.5,117.3,56.5 M119.5,56.5c-0.3,0-0.5,0.2-0.5,0.5c0,0.3,0.2,0.5,0.5,0.5c0.3,0,0.5-0.2,0.5-0.5
			C120.1,56.7,119.8,56.5,119.5,56.5 M121.7,56.5c-0.3,0-0.5,0.2-0.5,0.5c0,0.3,0.2,0.5,0.5,0.5s0.5-0.2,0.5-0.5
			C122.2,56.7,122,56.5,121.7,56.5 M123.9,56.5c-0.3,0-0.5,0.2-0.5,0.5c0,0.3,0.2,0.5,0.5,0.5c0.3,0,0.5-0.2,0.5-0.5
			C124.4,56.7,124.2,56.5,123.9,56.5 M126.1,56.5c-0.3,0-0.5,0.2-0.5,0.5c0,0.3,0.2,0.5,0.5,0.5s0.5-0.2,0.5-0.5
			C126.6,56.7,126.4,56.5,126.1,56.5 M128.3,56.5c-0.3,0-0.5,0.2-0.5,0.5c0,0.3,0.2,0.5,0.5,0.5c0.3,0,0.5-0.2,0.5-0.5
			C128.8,56.7,128.6,56.5,128.3,56.5 M130.4,56.5c-0.3,0-0.5,0.2-0.5,0.5c0,0.3,0.2,0.5,0.5,0.5s0.5-0.2,0.5-0.5
			C131,56.7,130.8,56.5,130.4,56.5 M132.6,56.5c-0.3,0-0.5,0.2-0.5,0.5c0,0.3,0.2,0.5,0.5,0.5s0.5-0.2,0.5-0.5
			C133.2,56.7,133,56.5,132.6,56.5"/>
	</g>
	<g id="XMLID_169_">
		<defs>
			<path id="XMLID_168_" d="M67.7,0c37.4,0,67.7,30.4,67.7,67.7c0,37.4-30.4,67.7-67.7,67.7S0,105.1,0,67.7C-0.1,30.4,30.3,0,67.7,0
				"/>
		</defs>
		<clipPath id="XMLID_229_">
			<use xlink:href="#XMLID_168_"  style="overflow:visible;"/>
		</clipPath>
		<path id="XMLID_191_" class="st12" d="M81.2,132.5L81.2,132.5c-0.3,0-0.4,0.2-0.4,0.4c0,0.2,0.2,0.3,0.4,0.3c0,0,0,0,0.1,0
			c0.2,0,0.4-0.2,0.3-0.4C81.6,132.6,81.4,132.5,81.2,132.5 M81,130.4L81,130.4c-0.3,0-0.4,0.2-0.4,0.4s0.2,0.3,0.4,0.3
			c0,0,0,0,0.1,0c0.2,0,0.4-0.2,0.3-0.4C81.4,130.5,81.2,130.4,81,130.4 M80.6,128.4L80.6,128.4c-0.3,0-0.4,0.2-0.4,0.4
			s0.2,0.3,0.4,0.3c0,0,0,0,0.1,0c0.2,0,0.4-0.2,0.3-0.4C81.1,128.5,80.8,128.4,80.6,128.4 M80.4,126.2L80.4,126.2
			c-0.3,0-0.4,0.2-0.4,0.4s0.2,0.3,0.4,0.3c0,0,0,0,0.1,0c0.2,0,0.4-0.2,0.3-0.4C80.7,126.4,80.6,126.2,80.4,126.2 M80.1,124.1
			L80.1,124.1c-0.3,0-0.4,0.2-0.4,0.4s0.2,0.3,0.4,0.3c0,0,0,0,0.1,0c0.2,0,0.4-0.2,0.3-0.4C80.5,124.3,80.3,124.1,80.1,124.1
			 M79.9,122L79.9,122c-0.3,0-0.4,0.2-0.4,0.4s0.2,0.3,0.4,0.3c0,0,0,0,0.1,0c0.2,0,0.4-0.2,0.3-0.4C80.2,122.2,80.1,122,79.9,122
			 M79.5,120L79.5,120c-0.3,0-0.4,0.2-0.4,0.4s0.2,0.3,0.4,0.3c0,0,0,0,0.1,0c0.2,0,0.4-0.2,0.3-0.4C80,120.1,79.8,120,79.5,120
			 M79.3,117.9L79.3,117.9c-0.3,0-0.4,0.2-0.4,0.4c0,0.2,0.2,0.3,0.4,0.3c0,0,0,0,0.1,0c0.2,0,0.4-0.2,0.3-0.4
			C79.6,118,79.5,117.9,79.3,117.9 M79,115.8L79,115.8c-0.3,0-0.4,0.2-0.4,0.4c0,0.2,0.2,0.3,0.4,0.3c0,0,0,0,0.1,0
			c0.2,0,0.4-0.2,0.3-0.4C79.4,115.9,79.2,115.8,79,115.8 M78.8,113.7L78.8,113.7c-0.3,0-0.4,0.2-0.4,0.4c0,0.2,0.2,0.3,0.4,0.3
			c0,0,0,0,0.1,0c0.2,0,0.4-0.2,0.3-0.4C79.1,113.8,79,113.7,78.8,113.7 M78.4,111.6L78.4,111.6c-0.3,0-0.4,0.2-0.4,0.4
			c0,0.2,0.2,0.3,0.4,0.3c0,0,0,0,0.1,0c0.2,0,0.4-0.2,0.3-0.4C78.9,111.8,78.7,111.6,78.4,111.6 M78.2,109.5L78.2,109.5
			c-0.3,0-0.4,0.2-0.4,0.4s0.2,0.3,0.4,0.3c0,0,0,0,0.1,0c0.2,0,0.4-0.2,0.3-0.4C78.5,109.7,78.4,109.5,78.2,109.5 M77.9,107.4
			L77.9,107.4c-0.3,0-0.4,0.2-0.4,0.4c0,0.2,0.2,0.3,0.4,0.3c0,0,0,0,0.1,0c0.2,0,0.4-0.2,0.3-0.4C78.3,107.6,78.1,107.4,77.9,107.4
			 M77.7,105.3L77.7,105.3c-0.3,0-0.4,0.2-0.4,0.4s0.2,0.3,0.4,0.3c0,0,0,0,0.1,0c0.2,0,0.4-0.2,0.3-0.4
			C78,105.5,77.9,105.3,77.7,105.3 M77.3,103.2L77.3,103.2c-0.3,0-0.4,0.2-0.4,0.4c0,0.2,0.2,0.3,0.4,0.3c0,0,0,0,0.1,0
			c0.2,0,0.4-0.2,0.3-0.4C77.8,103.3,77.6,103.2,77.3,103.2 M77.1,101.2L77.1,101.2c-0.3,0-0.4,0.2-0.4,0.4c0,0.2,0.2,0.3,0.4,0.3
			c0,0,0,0,0.1,0c0.2,0,0.4-0.2,0.3-0.4C77.5,101.3,77.3,101.2,77.1,101.2 M76.8,99.1L76.8,99.1c-0.3,0-0.4,0.2-0.4,0.4
			c0,0.2,0.2,0.3,0.4,0.3c0,0,0,0,0.1,0c0.2,0,0.4-0.2,0.3-0.4C77.2,99.2,77,99.1,76.8,99.1 M76.6,97L76.6,97
			c-0.3,0-0.4,0.2-0.4,0.4c0,0.2,0.2,0.3,0.4,0.3c0,0,0,0,0.1,0c0.2,0,0.4-0.2,0.3-0.4C76.9,97.1,76.8,97,76.6,97 M76.3,94.9
			L76.3,94.9c-0.3,0-0.4,0.2-0.4,0.4c0,0.2,0.2,0.3,0.4,0.3c0,0,0,0,0.1,0c0.2,0,0.4-0.2,0.3-0.4C76.7,95,76.5,94.9,76.3,94.9
			 M76,92.8C76,92.8,75.9,92.8,76,92.8c-0.3,0-0.4,0.2-0.4,0.4c0,0.2,0.2,0.3,0.4,0.3c0,0,0,0,0.1,0c0.2,0,0.4-0.2,0.3-0.4
			C76.4,93,76.3,92.8,76,92.8 M75.7,90.7L75.7,90.7c-0.3,0-0.4,0.2-0.4,0.4c0,0.2,0.2,0.3,0.4,0.3c0,0,0,0,0.1,0
			c0.2,0,0.4-0.2,0.3-0.4C76.1,90.9,75.9,90.7,75.7,90.7"/>
	</g>
	<g id="XMLID_193_">
		<defs>
			<path id="XMLID_192_" d="M67.7,0c37.4,0,67.7,30.4,67.7,67.7c0,37.4-30.4,67.7-67.7,67.7S0,105.1,0,67.7C-0.1,30.4,30.3,0,67.7,0
				"/>
		</defs>
		<clipPath id="XMLID_230_">
			<use xlink:href="#XMLID_192_"  style="overflow:visible;"/>
		</clipPath>
		<path id="XMLID_205_" class="st13" d="M46.2,130.1c-0.2,0-0.3,0.1-0.4,0.3c-0.1,0.2,0,0.4,0.3,0.5h0.1c0.2,0,0.3-0.1,0.4-0.3
			c0.1-0.2,0-0.4-0.3-0.5C46.3,130.1,46.3,130.1,46.2,130.1 M46.9,128c-0.2,0-0.3,0.1-0.4,0.3c-0.1,0.2,0.1,0.4,0.3,0.5h0.1
			c0.2,0,0.3-0.1,0.4-0.3c0.1-0.2-0.1-0.4-0.3-0.5H46.9 M47.5,126.1c-0.2,0-0.3,0.1-0.4,0.3c-0.1,0.2,0,0.4,0.3,0.5h0.1
			c0.2,0,0.3-0.1,0.4-0.3c0.1-0.2,0-0.4-0.3-0.5H47.5 M48.2,124c-0.2,0-0.3,0.1-0.4,0.3c-0.1,0.2,0,0.4,0.3,0.5h0.1
			c0.2,0,0.3-0.1,0.4-0.3s0-0.4-0.3-0.5C48.2,124,48.2,124,48.2,124 M48.7,122c-0.2,0-0.3,0.1-0.4,0.3c-0.1,0.2,0,0.4,0.3,0.5h0.1
			c0.2,0,0.3-0.1,0.4-0.3c0.1-0.2,0-0.4-0.3-0.5C48.8,122,48.8,122,48.7,122 M49.4,120.1c-0.2,0-0.3,0.1-0.4,0.3
			c-0.1,0.2,0,0.4,0.3,0.5h0.1c0.2,0,0.3-0.1,0.4-0.3c0.1-0.2,0-0.4-0.3-0.5H49.4 M50,118c-0.2,0-0.3,0.1-0.4,0.3
			c-0.1,0.2,0,0.4,0.3,0.5H50c0.2,0,0.3-0.1,0.4-0.3c0.1-0.2,0-0.4-0.3-0.5H50 M50.7,116c-0.2,0-0.3,0.1-0.4,0.3
			c-0.1,0.2,0.1,0.4,0.3,0.5h0.1c0.2,0,0.3-0.1,0.4-0.3c0.1-0.2-0.1-0.4-0.3-0.5C50.7,116,50.7,116,50.7,116 M51.2,113.9
			c-0.2,0-0.3,0.1-0.4,0.3c-0.1,0.2,0.1,0.4,0.3,0.5h0.1c0.2,0,0.3-0.1,0.4-0.3c0.1-0.2-0.1-0.4-0.3-0.5
			C51.3,113.9,51.3,113.9,51.2,113.9 M51.9,112c-0.2,0-0.3,0.1-0.4,0.3c-0.1,0.2,0,0.4,0.3,0.5h0.1c0.2,0,0.3-0.1,0.4-0.3
			c0.1-0.2,0-0.4-0.3-0.5H51.9 M52.5,110c-0.2,0-0.3,0.1-0.4,0.3c-0.1,0.2,0,0.4,0.3,0.5h0.1c0.2,0,0.3-0.1,0.4-0.3
			c0.1-0.2,0-0.4-0.3-0.5H52.5"/>
	</g>
	<g id="XMLID_207_">
		<defs>
			<path id="XMLID_206_" d="M67.7,0c37.4,0,67.7,30.4,67.7,67.7c0,37.4-30.4,67.7-67.7,67.7S0,105.1,0,67.7C-0.1,30.4,30.3,0,67.7,0
				"/>
		</defs>
		<clipPath id="XMLID_231_">
			<use xlink:href="#XMLID_206_"  style="overflow:visible;"/>
		</clipPath>
		<path id="XMLID_208_" class="st14" d="M81.6,30.6L65.2,64.8l38.5-7.6c0,0,0,0,0-0.1c0-0.1,0.4-0.4,0.5-0.5L81.5,31.4l0.5-0.2"/>
	</g>
	<g id="XMLID_210_">
		<defs>
			<path id="XMLID_209_" d="M67.7,0c37.4,0,67.7,30.4,67.7,67.7c0,37.4-30.4,67.7-67.7,67.7S0,105.1,0,67.7C-0.1,30.4,30.3,0,67.7,0
				"/>
		</defs>
		<clipPath id="XMLID_232_">
			<use xlink:href="#XMLID_209_"  style="overflow:visible;"/>
		</clipPath>
		<line id="XMLID_211_" class="st15" x1="81.5" y1="31.4" x2="81.5" y2="31.4"/>
	</g>
	<g id="XMLID_213_">
		<defs>
			<path id="XMLID_212_" d="M67.7,0c37.4,0,67.7,30.4,67.7,67.7c0,37.4-30.4,67.7-67.7,67.7S0,105.1,0,67.7C-0.1,30.4,30.3,0,67.7,0
				"/>
		</defs>
		<clipPath id="XMLID_233_">
			<use xlink:href="#XMLID_212_"  style="overflow:visible;"/>
		</clipPath>
		<path id="XMLID_214_" class="st16" d="M103.8,56.7c-0.1,0.1-0.1,0.2-0.1,0.3c0,0,0,0,0,0.1l0.4-0.1L103.8,56.7"/>
	</g>
	<g id="XMLID_216_">
		<defs>
			<path id="XMLID_215_" d="M67.7,0c37.4,0,67.7,30.4,67.7,67.7c0,37.4-30.4,67.7-67.7,67.7S0,105.1,0,67.7C-0.1,30.4,30.3,0,67.7,0
				"/>
		</defs>
		<clipPath id="XMLID_243_">
			<use xlink:href="#XMLID_215_"  style="overflow:visible;"/>
		</clipPath>
		<path id="XMLID_217_" class="st17" d="M81.5,31.4l22.4,25.2c0-0.1,0.1-0.1,0.2-0.1l-4.8-18.2L81.5,31.4
			C81.5,31.5,81.5,31.5,81.5,31.4"/>
	</g>
	<g id="XMLID_219_">
		<defs>
			<path id="XMLID_218_" d="M67.7,0c37.4,0,67.7,30.4,67.7,67.7c0,37.4-30.4,67.7-67.7,67.7S0,105.1,0,67.7C-0.1,30.4,30.3,0,67.7,0
				"/>
		</defs>
		<clipPath id="XMLID_244_">
			<use xlink:href="#XMLID_218_"  style="overflow:visible;"/>
		</clipPath>
		<path id="XMLID_220_" class="st18" d="M81.5,31.4L81.5,31.4C81.5,31.5,81.5,31.5,81.5,31.4"/>
	</g>
	<g id="XMLID_234_">
		<defs>
			<path id="XMLID_223_" d="M67.7,0c37.4,0,67.7,30.4,67.7,67.7c0,37.4-30.4,67.7-67.7,67.7S0,105.1,0,67.7C-0.1,30.4,30.3,0,67.7,0
				"/>
		</defs>
		<clipPath id="XMLID_245_">
			<use xlink:href="#XMLID_223_"  style="overflow:visible;"/>
		</clipPath>
		<path id="XMLID_235_" class="st19" d="M104,56.6c-0.1,0-0.1,0.1-0.2,0.1l0.3,0.3L104,56.6"/>
	</g>
	<g id="XMLID_237_">
		<defs>
			<path id="XMLID_236_" d="M67.7,0c37.4,0,67.7,30.4,67.7,67.7c0,37.4-30.4,67.7-67.7,67.7S0,105.1,0,67.7C-0.1,30.4,30.3,0,67.7,0
				"/>
		</defs>
		<clipPath id="XMLID_246_">
			<use xlink:href="#XMLID_236_"  style="overflow:visible;"/>
		</clipPath>
		<path id="XMLID_241_" class="st20" d="M86.7,76.9l17.2-19.4c-0.1-0.1-0.1-0.2-0.1-0.3l-37,6.8l8.8,25.7l10.6-12.1 M67.6,64.6
			c-0.1,0.1-0.2,0.2-0.3,0.2c-0.1,0-0.1,0-0.2-0.1c-0.2-0.1-0.2-0.4-0.1-0.5s0.2-0.2,0.3-0.2c0.1,0,0.1,0,0.2,0.1
			C67.7,64.1,67.7,64.5,67.6,64.6z M69.4,65.8C69.3,65.9,69.2,66,69,66c-0.1,0-0.1,0-0.2-0.1c-0.2-0.1-0.2-0.4-0.1-0.5
			c0.1-0.1,0.2-0.2,0.3-0.2c0.1,0,0.1,0,0.2,0.1C69.5,65.3,69.5,65.5,69.4,65.8z"/>
	</g>
	<g id="XMLID_475_">
		<defs>
			<path id="XMLID_242_" d="M67.7,0c37.4,0,67.7,30.4,67.7,67.7c0,37.4-30.4,67.7-67.7,67.7S0,105.1,0,67.7C-0.1,30.4,30.3,0,67.7,0
				"/>
		</defs>
		<clipPath id="XMLID_247_">
			<use xlink:href="#XMLID_242_"  style="overflow:visible;"/>
		</clipPath>
		<path id="XMLID_476_" class="st21" d="M104.1,57l-0.4,0.1c0,0.1,0.1,0.2,0.1,0.3L104.1,57"/>
	</g>
	<g id="XMLID_478_">
		<defs>
			<path id="XMLID_477_" d="M67.7,0c37.4,0,67.7,30.4,67.7,67.7c0,37.4-30.4,67.7-67.7,67.7S0,105.1,0,67.7C-0.1,30.4,30.3,0,67.7,0
				"/>
		</defs>
		<clipPath id="XMLID_248_">
			<use xlink:href="#XMLID_477_"  style="overflow:visible;"/>
		</clipPath>
		<polyline id="XMLID_479_" class="st22" points="67.3,63.9 52.9,109.4 76.4,89.1 67.3,63.9 		"/>
	</g>
	<g id="XMLID_481_">
		<defs>
			<path id="XMLID_480_" d="M67.7,0c37.4,0,67.7,30.4,67.7,67.7c0,37.4-30.4,67.7-67.7,67.7S0,105.1,0,67.7C-0.1,30.4,30.3,0,67.7,0
				"/>
		</defs>
		<clipPath id="XMLID_249_">
			<use xlink:href="#XMLID_480_"  style="overflow:visible;"/>
		</clipPath>
		<path id="XMLID_482_" class="st23" d="M81.5,31.4L32.2,56c0,0,0,0,0,0.1l35.5,9.1L81.5,31.4"/>
	</g>
	<g id="XMLID_484_">
		<defs>
			<path id="XMLID_483_" d="M67.7,0c37.4,0,67.7,30.4,67.7,67.7c0,37.4-30.4,67.7-67.7,67.7S0,105.1,0,67.7C-0.1,30.4,30.3,0,67.7,0
				"/>
		</defs>
		<clipPath id="XMLID_250_">
			<use xlink:href="#XMLID_483_"  style="overflow:visible;"/>
		</clipPath>
		<line id="XMLID_485_" class="st24" x1="32.2" y1="56" x2="32.2" y2="56"/>
	</g>
	<g id="XMLID_487_">
		<defs>
			<path id="XMLID_486_" d="M67.7,0c37.4,0,67.7,30.4,67.7,67.7c0,37.4-30.4,67.7-67.7,67.7S0,105.1,0,67.7C-0.1,30.4,30.3,0,67.7,0
				"/>
		</defs>
		<clipPath id="XMLID_251_">
			<use xlink:href="#XMLID_486_"  style="overflow:visible;"/>
		</clipPath>
		<line id="XMLID_488_" class="st25" x1="81.5" y1="31.4" x2="81.5" y2="31.4"/>
	</g>
	<g id="XMLID_490_">
		<defs>
			<path id="XMLID_489_" d="M67.7,0c37.4,0,67.7,30.4,67.7,67.7c0,37.4-30.4,67.7-67.7,67.7S0,105.1,0,67.7C-0.1,30.4,30.3,0,67.7,0
				"/>
		</defs>
		<clipPath id="XMLID_252_">
			<use xlink:href="#XMLID_489_"  style="overflow:visible;"/>
		</clipPath>
		<path id="XMLID_491_" class="st26" d="M32.2,56C32.2,56.2,32.2,56.2,32.2,56l20.6,53.3L67.5,64L32.2,56"/>
	</g>
	<g id="XMLID_493_">
		<defs>
			<path id="XMLID_492_" d="M67.7,0c37.4,0,67.7,30.4,67.7,67.7c0,37.4-30.4,67.7-67.7,67.7S0,105.1,0,67.7C-0.1,30.4,30.3,0,67.7,0
				"/>
		</defs>
		<clipPath id="XMLID_253_">
			<use xlink:href="#XMLID_492_"  style="overflow:visible;"/>
		</clipPath>
		<path id="XMLID_494_" class="st27" d="M32.1,56v0.1C32.2,56.2,32.2,56.2,32.1,56"/>
	</g>
	<g id="XMLID_496_">
		<defs>
			<path id="XMLID_495_" d="M67.7,0c37.4,0,67.7,30.4,67.7,67.7c0,37.4-30.4,67.7-67.7,67.7S0,105.1,0,67.7C-0.1,30.4,30.3,0,67.7,0
				"/>
		</defs>
		<clipPath id="XMLID_254_">
			<use xlink:href="#XMLID_495_"  style="overflow:visible;"/>
		</clipPath>
		<circle id="XMLID_497_" class="st28" cx="32.1" cy="56" r="3.5"/>
	</g>
	<g id="XMLID_499_">
		<defs>
			<path id="XMLID_498_" d="M67.7,0c37.4,0,67.7,30.4,67.7,67.7c0,37.4-30.4,67.7-67.7,67.7S0,105.1,0,67.7C-0.1,30.4,30.3,0,67.7,0
				"/>
		</defs>
		<clipPath id="XMLID_255_">
			<use xlink:href="#XMLID_498_"  style="overflow:visible;"/>
		</clipPath>
		<circle id="XMLID_500_" class="st29" cx="81.5" cy="31.4" r="3.5"/>
	</g>
	<g id="XMLID_502_">
		<defs>
			<path id="XMLID_501_" d="M67.7,0c37.4,0,67.7,30.4,67.7,67.7c0,37.4-30.4,67.7-67.7,67.7S0,105.1,0,67.7C-0.1,30.4,30.3,0,67.7,0
				"/>
		</defs>
		<clipPath id="XMLID_256_">
			<use xlink:href="#XMLID_501_"  style="overflow:visible;"/>
		</clipPath>
		<circle id="XMLID_503_" class="st30" cx="99.2" cy="38.3" r="3.5"/>
	</g>
	<g id="XMLID_505_">
		<defs>
			<path id="XMLID_504_" d="M67.7,0c37.4,0,67.7,30.4,67.7,67.7c0,37.4-30.4,67.7-67.7,67.7S0,105.1,0,67.7C-0.1,30.4,30.3,0,67.7,0
				"/>
		</defs>
		<clipPath id="XMLID_257_">
			<use xlink:href="#XMLID_504_"  style="overflow:visible;"/>
		</clipPath>
		<circle id="XMLID_506_" class="st31" cx="104.1" cy="57" r="3.5"/>
	</g>
	<g id="XMLID_508_">
		<defs>
			<path id="XMLID_507_" d="M67.7,0c37.4,0,67.7,30.4,67.7,67.7c0,37.4-30.4,67.7-67.7,67.7S0,105.1,0,67.7C-0.1,30.4,30.3,0,67.7,0
				"/>
		</defs>
		<clipPath id="XMLID_258_">
			<use xlink:href="#XMLID_507_"  style="overflow:visible;"/>
		</clipPath>
		<circle id="XMLID_509_" class="st32" cx="66.6" cy="63.9" r="3.5"/>
	</g>
	<g id="XMLID_511_">
		<defs>
			<path id="XMLID_510_" d="M67.7,0c37.4,0,67.7,30.4,67.7,67.7c0,37.4-30.4,67.7-67.7,67.7S0,105.1,0,67.7C-0.1,30.4,30.3,0,67.7,0
				"/>
		</defs>
		<clipPath id="XMLID_259_">
			<use xlink:href="#XMLID_510_"  style="overflow:visible;"/>
		</clipPath>
		<circle id="XMLID_512_" class="st33" cx="75.6" cy="89.6" r="3.5"/>
	</g>
	<g id="XMLID_514_">
		<defs>
			<path id="XMLID_513_" d="M67.7,0c37.4,0,67.7,30.4,67.7,67.7c0,37.4-30.4,67.7-67.7,67.7S0,105.1,0,67.7C-0.1,30.4,30.3,0,67.7,0
				"/>
		</defs>
		<clipPath id="XMLID_260_">
			<use xlink:href="#XMLID_513_"  style="overflow:visible;"/>
		</clipPath>
		<circle id="XMLID_515_" class="st34" cx="52.9" cy="109.4" r="3.5"/>
	</g>
</g>
</svg>
