<svg version="1.1" xmlns="http://www.w3.org/2000/svg" x="0" y="0" viewBox="0 0 455.8 204.3" xml:space="preserve"><style type="text/css">.st0{fill:none;} .st1{fill:#58595B;} .st2{fill:#CFAE78;} .st3{fill:#E31F26;}</style><path class="st0" d="M-68.5-68.8h591.8v340.2H-68.5z" id="ƒAƒCƒ_x5C_ƒŒ_x5B_ƒVƒ_x2021_ƒ_x201C_ƒGƒŠƒA"/><g id="_x34_-1"><path class="st1" d="M102.4 0c16.3 33.6 33.1 65.1 51.4 98.6 7.2-14 35.6-65.5 53.1-98.6h2.3c5.4 45.8 8.9 84.8 14.7 125.8-2.9-.5-5.5-.9-8.4-.9-2.9 0-5.5.4-8.4.9-2.5-32-5-61.7-8.8-92.3h-.4c-16.3 29.9-32.8 59.2-46.9 91.4h-1.6c-14-29.7-30.4-60.5-46-91.4h-.4c-3.4 29.5-8.4 72.1-8.6 92.3-2.1-.5-4.1-.9-6.3-.9-2.1 0-4.1.4-6.3.9C88.2 86.3 95.4 37.9 99.3 0h3.1zM246.4 48.7c0-15.4-.7-31-1.4-46.3 6.8.5 13.6.9 20.4.9 6.8 0 13.6-.9 20.4-.9 20.2 0 37.2 7 37.2 28.3 0 23.1-23.1 32.4-36.7 34.2 8.8 10.9 38.6 49.4 49 61-3.6-.5-7.2-.9-10.7-.9-3.4 0-7 .4-10.4.9-7.2-10.9-31-43.8-46.3-59.4h-6.8v13.1c0 15.4.7 31 1.4 46.3-3-.5-5.9-.9-8.8-.9-2.9 0-5.7.4-8.8.9.7-15.4 1.4-31 1.4-46.3V48.7zm14.7 10.2c3.2.7 7.3.9 12 .9 14.7 0 34.2-6.1 34.2-27.4 0-18.8-15.6-23.4-27.7-23.4-8.2 0-13.6.5-17.4.9-.5 13.1-1.1 25.9-1.1 38.8v10.2zM332.8 145.7c20.9 0 22.9-19.5 22.9-47.8V48.7c0-15.4-.7-31-1.4-46.3 3 .5 5.9.9 8.8.9 2.9 0 5.7-.4 8.8-.9-.7 15.4-1.4 31-1.4 46.3 0 21.5.5 46.5.5 63.7 0 21.3-14.7 38.3-36.7 38.3l-1.5-5z"/><g><path class="st1" d="M82.4 131.2c2.5 5.2 5.1 10.1 7.9 15.2 1.1-2.2 5.5-10.1 8.2-15.2h.4c.8 7.1 1.4 13.1 2.3 19.4-.4-.1-.9-.1-1.3-.1s-.9 0-1.3.1c-.4-5-.8-9.5-1.3-14.3h-.1c-2.5 4.6-5.1 9.2-7.3 14.1h-.2c-2.2-4.6-4.7-9.3-7.1-14.1h-.1c-.5 4.6-1.3 11.1-1.3 14.3-.3-.1-.6-.1-1-.1-.3 0-.6 0-1 .1 1-6.1 2.1-13.6 2.7-19.4h.5zM105.3 131.2c.8 0 1.4.6 1.4 1.4 0 .8-.6 1.4-1.4 1.4-.8 0-1.4-.6-1.4-1.4 0-.7.6-1.4 1.4-1.4zm-1.1 11.4c0-1.7-.1-3.6-.2-5.2.4.1.8.1 1.2.1.4 0 .8 0 1.2-.1-.2 1.6-.2 3.5-.2 5.2v2.9c0 1.7.1 3.6.2 5.2-.4-.1-.8-.1-1.2-.1-.4 0-.8 0-1.2.1.2-1.6.2-3.5.2-5.2v-2.9zM112.5 133.7h.1c-.1 1.4-.2 2.7-.2 4.1.4 0 1.7 0 2.9-.1v1.2h-2.9c-.1.3-.2 4.6-.2 7 0 2.1.1 4.2 2.2 4.2.3 0 .9-.1 1.2-.2v.7c-.6.2-1.4.4-2.1.4-2.3 0-3.4-1.3-3.4-3.5 0-2 .2-4.5.2-8.6h-1.9c0-.2.1-.4.1-.6 0-.2 0-.4-.1-.5.8 0 1.4.1 1.8.1 0-.7-.1-1.9-.1-3.1l2.4-1.1zM118.2 148c.4.7 1.6 1.9 3.1 1.9 1.4 0 2.7-.9 2.7-2.5 0-3.4-6.5-1.4-6.5-6.1 0-2.4 1.7-4.2 4.6-4.2 1.4 0 2.2.5 3.1.8-.3.5-.6 1.5-.7 2h-.3c-.3-.9-1.2-1.7-2.4-1.7-1.1 0-2.4.7-2.4 2.3 0 3.6 6.5 1.4 6.5 6.1 0 2.1-1.9 4.4-5 4.4-1.7 0-2.8-.5-3.6-.9.2-.5.5-1.5.5-2h.4zM127.5 141.9c0-1.3 0-2.9-.1-4.4.4.1.8.1 1.2.1.4 0 .7 0 1.1-.1-.2 2.2-.3 5-.3 7.7 0 1.9.4 2.8.9 3.3.5.6 1.3 1 2.4 1 1.5 0 2.6-.8 3.1-1.8.6-1.2.6-1.4.6-5.8 0-1.5 0-3.2-.1-4.5.4.1.7.1 1.2.1.4 0 .8 0 1.1-.1-.2 2.9-.2 5.5-.2 8.4 0 1.6 0 3.3.1 4.8-.4-.1-.7-.1-1.1-.1-.4 0-.7 0-1.1.1.1-.8.1-1.6.1-2.4h-.1c-.9 1.7-2.6 2.7-4.3 2.7-2.9 0-4.6-1.7-4.6-4.5 0-1.9.1-3.2.1-4.5zM147.6 151c-1.7 0-3.3-1-4-2-.7.5-1.3 1-1.9 1.6h-.5c.2-1.7.2-5.3.2-7.8v-5c0-2.5 0-6.1-.2-8 .4.1.8.1 1.2.1.4 0 .8 0 1.4-.1-.2 1.5-.3 6.9-.3 10.3 1.2-1.9 2.7-2.9 4.7-2.9 3.8 0 5.6 3.1 5.6 6.5 0 4.2-2.7 7.3-6.2 7.3zm.1-12.7c-2.4 0-4.3 1.6-4.3 6.2 0 3.6 1.4 5.6 4 5.6 2.3 0 4-2.6 4-6.5 0-3.4-1.8-5.3-3.7-5.3zM157.2 131.2c.8 0 1.4.6 1.4 1.4 0 .8-.6 1.4-1.4 1.4-.8 0-1.4-.6-1.4-1.4 0-.7.6-1.4 1.4-1.4zm-1 11.4c0-1.7-.1-3.6-.2-5.2.4.1.8.1 1.2.1.4 0 .8 0 1.2-.1-.2 1.6-.2 3.5-.2 5.2v2.9c0 1.7.1 3.6.2 5.2-.4-.1-.8-.1-1.2-.1-.4 0-.8 0-1.2.1.2-1.6.2-3.5.2-5.2v-2.9zM161.9 148c.4.7 1.6 1.9 3.1 1.9 1.4 0 2.7-.9 2.7-2.5 0-3.4-6.5-1.4-6.5-6.1 0-2.4 1.7-4.2 4.6-4.2 1.4 0 2.2.5 3.1.8-.3.5-.6 1.5-.7 2h-.3c-.3-.9-1.2-1.7-2.4-1.7-1.1 0-2.3.7-2.3 2.3 0 3.6 6.5 1.4 6.5 6.1 0 2.1-1.9 4.4-5 4.4-1.7 0-2.8-.5-3.6-.9.2-.5.5-1.5.5-2h.3zM171.9 137.7c0-2.5-.1-6.1-.2-8 .4.1.8.1 1.2.1.4 0 .8 0 1.2-.1-.2 1.9-.2 5.4-.2 7.8v2.1h.1c1-1.6 2.4-2.5 4.4-2.5 2 0 4.4 1 4.4 4.8 0 1.6-.1 3.2-.1 5.1v3.6c-.4-.1-.8-.1-1.2-.1-.4 0-.8 0-1.1.1.1-2 .2-4 .2-6.2v-1.7c0-2.7-1.2-4.2-3-4.2-2.6 0-3.7 1.7-3.7 4.5 0 2.1.1 5.7.2 7.5-.4-.1-.8-.1-1.2-.1-.4 0-.8 0-1.2.1.2-1.9.2-5.4.2-8v-4.8zM187.1 131.2c.8 0 1.4.6 1.4 1.4 0 .8-.6 1.4-1.4 1.4-.8 0-1.4-.6-1.4-1.4 0-.7.7-1.4 1.4-1.4zm-1 11.4c0-1.7-.1-3.6-.2-5.2.4.1.8.1 1.2.1.4 0 .8 0 1.2-.1-.2 1.6-.2 3.5-.2 5.2v2.9c0 1.7.1 3.6.2 5.2-.4-.1-.8-.1-1.2-.1-.4 0-.8 0-1.2.1.2-1.6.2-3.5.2-5.2v-2.9zM199.2 138.8c0-2.4-.1-4.8-.2-7.2 1 .1 2.1.1 3.2.1 1 0 2.1-.1 3.2-.1 3.1 0 5.8 1.1 5.8 4.4 0 3.6-3.6 5-5.7 5.3 1.4 1.7 6 7.6 7.6 9.4-.6-.1-1.1-.1-1.7-.1-.5 0-1.1 0-1.6.1-1.1-1.7-4.8-6.8-7.2-9.2h-1.1v2c0 2.4.1 4.8.2 7.2-.5-.1-.9-.1-1.4-.1-.4 0-.9 0-1.4.1.1-2.4.2-4.8.2-7.2v-4.7zm2.2 1.5c.5.1 1.1.1 1.9.1 2.3 0 5.3-.9 5.3-4.2 0-2.9-2.4-3.6-4.3-3.6-1.3 0-2.1.1-2.7.1-.1 2-.2 4-.2 6v1.6z"/><path class="st1" d="M218.4 137.2c3.9 0 5.7 2.6 5.7 5.6v1.1c-2 0-4-.1-5.9-.1-1.2 0-2.4.1-3.6.1v.8c0 2.9 1.7 5.1 4.8 5.1 1.5 0 3.2-.8 4.1-2l.1.1-.2 1.4c-1.1.9-2.9 1.7-4.6 1.7-4 0-6.7-2.8-6.7-6.5 0-4.5 2.3-7.3 6.3-7.3zm-3.8 5.6c1.1 0 2.4.1 3.6.1 1.2 0 2.5-.1 3.7-.1 0-2-.5-4.8-3.4-4.8-2.7.1-3.7 2.9-3.9 4.8zM231.6 137.2c.7 0 1.2.1 2.2.1.8.1 1.6.1 1.9.1 1.1 0 1.9-.1 2.2-.1 0 .2-.1.4-.1.6 0 .2 0 .4.1.6-1.1-.1-2.1-.2-3.1-.2l-.1.1c1.1.6 1.9 2.1 1.9 3.5 0 2.8-2 4.4-5.1 4.4-.5 0-1-.1-1.5-.1-.7 0-1.4.6-1.4 1.3 0 1 .4 1.4 1.6 1.4 1 0 2 .1 3 .1 3.4.1 4.7 1.6 4.7 3.5 0 2.5-1.9 5.6-6.6 5.6-3.5 0-5.8-1.5-5.8-4 0-2 1.5-3.2 3-3.6-1.1-.3-1.7-1.1-1.7-2.2 0-1.2 1-2.1 2-2.3v-.1c-1.7-.7-2.7-2.1-2.7-4.1.3-3.2 2.7-4.6 5.5-4.6zm.4 13.3c-2.7 0-4.3.9-4.3 3.2 0 2.5 1.8 3.5 4.1 3.5 2.2 0 4.4-1.1 4.4-3.6 0-2.1-1.3-3.1-4.2-3.1zm-.3-12.5c-2 0-3.1 1.5-3.1 3.7 0 2.3 1 3.8 3.1 3.8s3-1.9 3-3.9c0-2.3-1.2-3.6-3-3.6zM240.1 132.6c0 .8.6 1.4 1.4 1.4.8 0 1.4-.6 1.4-1.4 0-.8-.6-1.4-1.4-1.4-.7 0-1.4.7-1.4 1.4zm.4 12.9c0 1.7-.1 3.6-.2 5.2.4-.1.8-.1 1.2-.1.4 0 .8 0 1.2.1-.2-1.6-.2-3.5-.2-5.2v-2.9c0-1.7.1-3.6.2-5.2-.4.1-.8.1-1.2.1-.4 0-.8 0-1.2-.1.2 1.6.2 3.5.2 5.2v2.9zM251.4 137.2c3.2 0 6.7 1.8 6.7 6.9 0 5-3.5 6.9-6.7 6.9s-6.7-1.9-6.7-6.9c0-5.1 3.5-6.9 6.7-6.9zm0 12.9c3.3 0 4.3-2.9 4.3-6s-1-6-4.3-6-4.3 2.9-4.3 6 1 6 4.3 6zM266.1 138.6c-2.6 0-3.7 1.7-3.7 4.5v2.4c0 1.7 0 3.6.2 5.2-.4-.1-.8-.1-1.2-.1-.4 0-.8 0-1.2.1.2-1.6.2-3.5.2-5.2v-2.9c0-1.7-.1-3.6-.2-5.2.4.1.8.1 1.2.1.3 0 .7 0 1.1-.1-.1.7-.1 1.5-.1 2.2 1-1.6 2.4-2.5 4.4-2.5 2 0 4.4 1 4.4 4.8 0 1.6-.1 3.2-.1 5.1 0 1.2 0 2.4.1 3.6-.4-.1-.8-.1-1.2-.1-.4 0-.8 0-1.1.1.1-2 .2-4 .2-6.2v-1.7c0-2.6-1.2-4.1-3-4.1zM274.1 138.8c1.7-1.2 3-1.6 4.5-1.6 2.7 0 4.5 1.6 4.5 4.1 0 2.1-.1 4.1-.1 6.4 0 .9 0 2 1.1 2 .2 0 .4 0 .6-.1v.6c-.4.2-1.1.4-1.8.4-1.2 0-1.8-.8-1.9-1.7-1.3 1.3-2.5 2-4.3 2-1.9 0-3.7-1.3-3.7-3.4 0-2.2 1.5-3.4 3.9-3.8 4-.6 4.2-.9 4.2-1.9 0-1.9-.8-3.5-3-3.5-1.5 0-2.8.7-3.5 1.9h-.3v-1.4zm6.8 4.9c-1.9.6-5.8.4-5.8 3.5 0 1.7 1.2 2.6 2.4 2.6 1.4 0 2.6-.9 3.3-1.9l.1-4.2zM286.7 137.7c0-2.5-.1-6.1-.2-8 .4.1.8.1 1.2.1.4 0 .8 0 1.2-.1-.2 1.9-.2 5.4-.2 8v5c0 2.5.1 6.1.2 8-.4-.1-.8-.1-1.2-.1-.4 0-.8 0-1.2.1.2-1.9.2-5.4.2-8v-5zM296.8 153.7c3.2 0 3.5-3 3.5-7.4v-7.6c0-2.4-.1-4.8-.2-7.2.5.1.9.1 1.4.1.4 0 .9-.1 1.4-.1-.1 2.4-.2 4.8-.2 7.2 0 3.3.1 7.2.1 9.8 0 3.3-2.3 5.9-5.7 5.9l-.3-.7zM311.5 137.2c3.9 0 5.7 2.6 5.7 5.6v1.1c-2 0-4-.1-5.9-.1-1.2 0-2.4.1-3.6.1v.8c0 2.9 1.7 5.1 4.8 5.1 1.5 0 3.2-.8 4.2-2l.1.1-.2 1.4c-1.1.9-2.9 1.7-4.6 1.7-4 0-6.7-2.8-6.7-6.5-.2-4.5 2.1-7.3 6.2-7.3zm-3.8 5.6c1.1 0 2.4.1 3.6.1 1.2 0 2.5-.1 3.7-.1 0-2-.5-4.8-3.4-4.8-2.8.1-3.8 2.9-3.9 4.8zM322.5 133.7h.1c-.1 1.4-.2 2.7-.2 4.1.4 0 1.7 0 2.9-.1v1.2h-2.9c-.1.3-.2 4.6-.2 7 0 2.1.1 4.2 2.2 4.2.3 0 .9-.1 1.2-.2v.7c-.6.2-1.4.4-2.1.4-2.3 0-3.4-1.3-3.4-3.5 0-2 .2-4.5.2-8.6h-1.9c0-.2.1-.4.1-.6 0-.2 0-.4-.1-.5.8 0 1.4.1 1.8.1 0-.7-.1-1.9-.1-3.1l2.4-1.1z"/></g><g><path class="st2" d="M421.9 173.9c-.3-.1-.7-.2-.9-.3-.2-.1-.2-.3-.2-.4l28.4-80.4h-4.8l-35.5 81s13 .5 20 1.3c.5.1 1.1.1 1.8.2-4.8-.6-5.5-.7-6.3-.9-1.4-.2-1.9-.4-2.5-.5z"/><path d="M437.9 92.8s-48.5 71.9-51.1 74.8c-2.6 3-5.9 6.9-12.1 9.6-6.7 3-15.3 3.9-24.6 3.8-3.1 0-6.3-.1-9.6-.2-12.2-.7-37.5-2.2-48.4-2.6-10.9-.4-43.2-1.3-59.5-1.2-16.3.1-35 0-59.8 1.5-24.9 1.4-63 3.7-90.9 7.6-28 3.9-55.2 7.8-58.5 8.6 0 0 6.5-.6 11.1-.9 4.6-.3 8.7-.6 8.7-.6s44.2-5.5 64.1-7.4c19.9-1.8 44.5-2.9 65.7-3.4 21.2-.5 33.6 0 52.5.7s45.3 3.3 56.2 4.5c10.9 1.1 18.3 2.2 31.7 3.9 13.3 1.7 26.5 3.7 31.9 4.5 5.4.8 14.2 1.8 22.7 2.3 8.5.5 12 .1 23.4-.7 11.4-.8 29.1-4.9 36.1-6.5 8.2-1.9 22-5.9 23.6-6.4 1.6-.5 2.5-.8 3.2-1.5.5-.5 1.2-1.4 1.7-2.9.4-1.5-.5-1.6-.9-1.7-1.9-.6-19.1-2.8-26-3.6-6.9-.8-20-1.3-20-1.3l35.5-81h-6.7z"/><path class="st3" d="M172.8 178.6c24.9-1.4 43.5-1.3 59.8-1.5 16.3-.1 48.7.8 59.5 1.2 10.9.4 36.2 1.9 48.4 2.6 3.3.2 6.5.3 9.6.2 9.3.1 17.9-.8 24.6-3.8 6.1-2.7 9.5-6.6 12.1-9.6 2.6-3 51.1-74.8 51.1-74.8s-3.1.1-3.8.2c-.7.1-1.1.2-1.5.3 0 0-39.3 51.8-45.2 59.5-5.9 7.7-9.8 13-18.3 17.1-8.6 4.1-21.6 5.9-37.8 5.4-16.7-.6-36.4-1.1-58.8-1.5-22.4-.4-55.6.3-66.2.6-10.6.3-40 1.8-51.2 2.5-10.8.7-34 2.8-47 4-13 1.2-34.6 4.2-43.2 5.4-18.9 2.6-49 8.1-64.9 11 0 0 9.9-1.3 13.9-1.7 3.1-.3 8.4-.7 9.5-.9 3.4-.8 30.6-4.7 58.5-8.6 27.9-3.9 66-6.2 90.9-7.6z"/><path class="st2" d="M451 184.7c-1.6.5-15.4 4.6-23.6 6.4-7 1.6-24.8 5.7-36.1 6.5-11.4.8-14.9 1.2-23.4.7-8.5-.5-17.2-1.4-22.7-2.3-5.5-.8-18.6-2.8-31.9-4.5-13.4-1.7-20.8-2.7-31.7-3.9-10.9-1.2-37.3-3.8-56.2-4.5-18.9-.7-31.3-1.2-52.5-.7s-45.8 1.6-65.7 3.4c-19.9 1.9-64.1 7.4-64.1 7.4 4.4-.3 28.8-1.4 28.8-1.4s43-4.6 68-5.5c25-.9 50.1-.6 74.8.3 24.7.9 50.1 4.4 68 6.6 22.8 2.9 39.8 5.8 50.7 7.5 10.8 1.6 23.3 4.2 38 3.2s23.1-2.8 34-5.1c10.9-2.3 24.7-6.3 28-7.3 3.3-1 7.3-2.1 11.3-3.4 2.5-.8 5.5-1.6 7.8-3 2.5-1.6 3.4-5 3.4-5-.4 1.5-1.2 2.4-1.7 2.9-.8.9-1.7 1.2-3.2 1.7z"/></g></g></svg>