<svg xmlns="http://www.w3.org/2000/svg" width="166" height="39" viewBox="0 0 166 39"><title>natUIve</title><path d="M.163 12.2V36c0 .5.137.9.437 1.2.28.3.6.4 1 .4.43 0 .8-.2 1.1-.4.27-.3.4-.8.4-1.3l.03-17c1.116-2 2.47-3.6 3.97-4.5 1.39-1 3-1.5 4.8-1.5 1.693 0 3 .5 4 1.5.9.9 1.3 2.1 1.3 3.4l.046 18.2c0 .5.154.9.454 1.2.264.2.6.4 1 .4.412 0 .7-.2 1-.4.353-.3.5-.7.5-1.2l.013-18.2c0-2-.713-3.8-2.113-5.2-1.524-1.5-3.6-2.3-6.2-2.3-1.975 0-3.7.4-5.2 1.3-1.465.8-2.6 2-3.6 3.6l.03-3c0-.5-.13-.9-.43-1.1-.336-.3-.7-.4-1.1-.4-.368 0-.7.1-1 .4-.293.2-.4.6-.4 1.1zm38.09-1.9c-2.68 0-4.853.6-6.453 1.8-1.666 1.2-2.7 3.1-3.1 5.5-.065.5 0 .9.3 1.2.273.2.6.4 1 .4.39.1.7 0 1-.3.378-.2.6-.5.6-.9.209-1.6.8-2.8 1.7-3.6 1.109-1 2.7-1.5 4.9-1.5 2.238 0 3.9.4 5 1.3 1.082.8 1.6 1.9 1.6 3.5.009 1.4-.5 2.3-1.4 2.8-1.016.6-3.2 1.1-6.6 1.6-3.89.4-6.6 1.5-8 3.2-1.01 1.1-1.5 2.7-1.5 4.8-.005 2.4.7 4.2 2.1 5.5 1.516 1.3 3.7 2 6.6 2 2.062 0 3.9-.4 5.6-1.1 1.215-.6 2.3-1.3 3.3-2.2-.044.9.2 1.6.8 2.1.72.4 2 .6 3.8.6.445 0 .8-.1 1.1-.4.174-.3.3-.6.3-.9-.046-.4-.2-.7-.4-1-.252-.2-.6-.3-1-.3-.528 0-1-.2-1.3-.5-.281-.3-.4-.7-.4-1.3l-.025-15.1c0-2.6-.875-4.4-2.775-5.6-1.627-1.1-3.9-1.6-6.7-1.6zm6.556 20.3c-.734 1.3-1.809 2.3-3.209 3-1.56.9-3.4 1.3-5.6 1.3-1.99 0-3.4-.4-4.4-1.3-.844-.7-1.3-1.9-1.3-3.5.01-1.6.5-2.8 1.4-3.6 1.034-.9 2.7-1.5 5.1-1.9 2.41-.3 4.3-.6 5.7-1.1 1.08-.3 1.9-.7 2.3-1.1l.009 8.2zM57.44 4.4v6.7h-2.584c-.733 0-1.057.4-1.057 1.3-.043.9.3 1.3 1.1 1.3h2.541v19.2c0 1.3.359 2.3 1.159 3.2.82 1 2 1.5 3.4 1.5h2.284c.447 0 .816-.2 1.116-.5.24-.2.4-.5.4-.9-.032-.4-.2-.7-.4-.9-.302-.3-.7-.4-1.1-.4h-1.738c-.702 0-1.262-.3-1.662-.7-.284-.4-.4-.9-.4-1.5l-.044-19h3.924c.83 0 1.22-.4 1.22-1.3.024-.9-.4-1.3-1.2-1.3h-3.944V4.4c0-.4-.156-.8-.456-1.1-.31-.2-.7-.3-1.1-.3-.39 0-.7.1-1 .3-.315.3-.5.7-.5 1.1zm14.5-2.1v22.2c0 3.6 1.059 6.6 3.059 8.9 2.3 2.8 5.6 4.2 9.8 4.2 4.223 0 7.5-1.4 9.8-4.2 2.016-2.3 3-5.3 3-8.9l.037-22.4c0-.4-.137-.8-.437-1-.329-.3-.7-.4-1-.4-.461 0-.8.1-1.1.3-.287.3-.4.6-.4 1l-.03 22.5c0 2.9-.77 5.3-2.27 7.1-1.782 2.2-4.3 3.3-7.6 3.3-3.273 0-5.8-1.1-7.6-3.3-1.527-1.9-2.3-4.2-2.3-7.1l.007-22.2c0-.5-.207-.9-.507-1.2-.258-.2-.6-.3-1-.3-.39 0-.7.1-1 .3-.316.3-.5.7-.5 1.2zm35.41 0V36c0 .5.149.9.449 1.2.268.2.6.4 1 .4.417 0 .8-.2 1-.4.358-.3.5-.7.5-1.2l.017-33.7c0-.5-.117-.9-.517-1.2-.248-.3-.6-.4-1-.4-.38 0-.7.1-1 .4-.306.3-.4.7-.4 1.2zM125.199 36c.287 1 .901 1.6 1.801 1.6.91 0 1.5-.6 1.9-1.6l8.884-23.9c.128-.4.016-.8-.184-1.1-.199-.3-.5-.5-.9-.6-.431-.1-.8-.1-1.2 0-.348.1-.6.4-.7.8l-7.735 21.7-7.704-21.7c-.16-.4-.461-.7-.861-.8-.303-.1-.7-.1-1.1 0-.383.1-.7.3-.9.6-.233.3-.3.7-.2 1.1l8.9 23.9zm35.889-6.5c-.766 1.6-1.688 2.9-2.588 3.7-1.32 1.1-2.9 1.7-4.8 1.7-2.454 0-4.4-1.1-5.8-3.3-1.263-1.9-1.9-4.2-2.1-6.9h18.829V24c0-3.8-.929-6.9-2.729-9.5-2.088-2.8-4.8-4.2-8.2-4.2-3.443 0-6.2 1.4-8.2 4.2-1.782 2.6-2.7 5.7-2.7 9.5.009 3.7.9 6.8 2.7 9.3 2.046 2.9 4.8 4.3 8.2 4.3 2.395 0 4.5-.7 6.3-1.9 1.742-1.2 3.1-2.9 4-5.1.198-.5.2-1 0-1.4-.153-.3-.4-.6-.8-.7-.421-.1-.8-.2-1.2 0-.418.2-.7.5-.9 1zm-15.17-7.4c.192-2.4.882-4.4 2.082-6.1 1.412-2 3.3-3.1 5.7-3.1 2.332 0 4.2 1.1 5.7 3.2 1.193 1.7 1.9 3.7 2.1 6h-15.581z" fill="#000" fill-rule="evenodd"/></svg>