<?xml version="1.0" encoding="UTF-8"?>
<svg width="165px" height="38px" viewBox="0 0 165 38" version="1.1" xmlns="http://www.w3.org/2000/svg" xmlns:xlink="http://www.w3.org/1999/xlink">
    <!-- Generator: Sketch 52.5 (67469) - http://www.bohemiancoding.com/sketch -->
    <title>Untitled</title>
    <desc>Created with Sketch.</desc>
    <g id="Page-1" stroke="none" stroke-width="1" fill="none" fill-rule="evenodd">
        <g id="natuive" fill="#20B2AA">
            <path d="M0.163,12.2 L0.163,36 C0.163,36.5 0.3,36.9 0.6,37.2 C0.88,37.5 1.2,37.6 1.6,37.6 C2.03,37.6 2.4,37.4 2.7,37.2 C2.97,36.9 3.1,36.4 3.1,35.9 L3.13,18.9 C4.246,16.9 5.6,15.3 7.1,14.4 C8.49,13.4 10.1,12.9 11.9,12.9 C13.593,12.9 14.9,13.4 15.9,14.4 C16.8,15.3 17.2,16.5 17.2,17.8 L17.246,36 C17.246,36.5 17.4,36.9 17.7,37.2 C17.964,37.4 18.3,37.6 18.7,37.6 C19.112,37.6 19.4,37.4 19.7,37.2 C20.053,36.9 20.2,36.5 20.2,36 L20.213,17.8 C20.213,15.8 19.5,14 18.1,12.6 C16.576,11.1 14.5,10.3 11.9,10.3 C9.925,10.3 8.2,10.7 6.7,11.6 C5.235,12.4 4.1,13.6 3.1,15.2 L3.13,12.2 C3.13,11.7 3,11.3 2.7,11.1 C2.364,10.8 2,10.7 1.6,10.7 C1.232,10.7 0.9,10.8 0.6,11.1 C0.307,11.3 0.2,11.7 0.2,12.2 L0.163,12.2 Z M38.253,10.3 C35.573,10.3 33.4,10.9 31.8,12.1 C30.134,13.3 29.1,15.2 28.7,17.6 C28.635,18.1 28.7,18.5 29,18.8 C29.273,19 29.6,19.2 30,19.2 C30.39,19.3 30.7,19.2 31,18.9 C31.378,18.7 31.6,18.4 31.6,18 C31.809,16.4 32.4,15.2 33.3,14.4 C34.409,13.4 36,12.9 38.2,12.9 C40.438,12.9 42.1,13.3 43.2,14.2 C44.282,15 44.8,16.1 44.8,17.7 C44.809,19.1 44.3,20 43.4,20.5 C42.384,21.1 40.2,21.6 36.8,22.1 C32.91,22.5 30.2,23.6 28.8,25.3 C27.79,26.4 27.3,28 27.3,30.1 C27.295,32.5 28,34.3 29.4,35.6 C30.916,36.9 33.1,37.6 36,37.6 C38.062,37.6 39.9,37.2 41.6,36.5 C42.815,35.9 43.9,35.2 44.9,34.3 C44.856,35.2 45.1,35.9 45.7,36.4 C46.42,36.8 47.7,37 49.5,37 C49.945,37 50.3,36.9 50.6,36.6 C50.774,36.3 50.9,36 50.9,35.7 C50.854,35.3 50.7,35 50.5,34.7 C50.248,34.5 49.9,34.4 49.5,34.4 C48.972,34.4 48.5,34.2 48.2,33.9 C47.919,33.6 47.8,33.2 47.8,32.6 L47.775,17.5 C47.775,14.9 46.9,13.1 45,11.9 C43.373,10.8 41.1,10.3 38.3,10.3 L38.253,10.3 Z M44.809,30.6 C44.075,31.9 43,32.9 41.6,33.6 C40.04,34.5 38.2,34.9 36,34.9 C34.01,34.9 32.6,34.5 31.6,33.6 C30.756,32.9 30.3,31.7 30.3,30.1 C30.31,28.5 30.8,27.3 31.7,26.5 C32.734,25.6 34.4,25 36.8,24.6 C39.21,24.3 41.1,24 42.5,23.5 C43.58,23.2 44.4,22.8 44.8,22.4 L44.809,30.6 Z M57.44,4.4 L57.44,11.1 L54.856,11.1 C54.123,11.1 53.799,11.5 53.799,12.4 C53.756,13.3 54.099,13.7 54.899,13.7 L57.44,13.7 L57.44,32.9 C57.44,34.2 57.799,35.2 58.599,36.1 C59.419,37.1 60.599,37.6 61.999,37.6 L64.283,37.6 C64.73,37.6 65.099,37.4 65.399,37.1 C65.639,36.9 65.799,36.6 65.799,36.2 C65.767,35.8 65.599,35.5 65.399,35.3 C65.097,35 64.699,34.9 64.299,34.9 L62.561,34.9 C61.859,34.9 61.299,34.6 60.899,34.2 C60.615,33.8 60.499,33.3 60.499,32.7 L60.455,13.7 L64.379,13.7 C65.209,13.7 65.599,13.3 65.599,12.4 C65.623,11.5 65.199,11.1 64.399,11.1 L60.455,11.1 L60.455,4.4 C60.455,4 60.299,3.6 59.999,3.3 C59.689,3.1 59.299,3 58.899,3 C58.509,3 58.199,3.1 57.899,3.3 C57.584,3.6 57.399,4 57.399,4.4 L57.44,4.4 Z M71.94,2.3 L71.94,24.5 C71.94,28.1 72.999,31.1 74.999,33.4 C77.299,36.2 80.599,37.6 84.799,37.6 C89.022,37.6 92.299,36.2 94.599,33.4 C96.615,31.1 97.599,28.1 97.599,24.5 L97.636,2.1 C97.636,1.7 97.499,1.3 97.199,1.1 C96.87,0.8 96.499,0.7 96.199,0.7 C95.738,0.7 95.399,0.8 95.099,1 C94.812,1.3 94.699,1.6 94.699,2 L94.669,24.5 C94.669,27.4 93.899,29.8 92.399,31.6 C90.617,33.8 88.099,34.9 84.799,34.9 C81.526,34.9 78.999,33.8 77.199,31.6 C75.672,29.7 74.899,27.4 74.899,24.5 L74.906,2.3 C74.906,1.8 74.699,1.4 74.399,1.1 C74.141,0.9 73.799,0.8 73.399,0.8 C73.009,0.8 72.699,0.9 72.399,1.1 C72.083,1.4 71.899,1.8 71.899,2.3 L71.94,2.3 Z M107.35,2.3 L107.35,36 C107.35,36.5 107.499,36.9 107.799,37.2 C108.067,37.4 108.399,37.6 108.799,37.6 C109.216,37.6 109.599,37.4 109.799,37.2 C110.157,36.9 110.299,36.5 110.299,36 L110.316,2.3 C110.316,1.8 110.199,1.4 109.799,1.1 C109.551,0.8 109.199,0.7 108.799,0.7 C108.419,0.7 108.099,0.8 107.799,1.1 C107.493,1.4 107.399,1.8 107.399,2.3 L107.35,2.3 Z M125.199,36 C125.486,37 126.1,37.6 127,37.6 C127.91,37.6 128.5,37 128.9,36 L137.784,12.1 C137.912,11.7 137.8,11.3 137.6,11 C137.401,10.7 137.1,10.5 136.7,10.4 C136.269,10.3 135.9,10.3 135.5,10.4 C135.152,10.5 134.9,10.8 134.8,11.2 L127.065,32.9 L119.361,11.2 C119.201,10.8 118.9,10.5 118.5,10.4 C118.197,10.3 117.8,10.3 117.4,10.4 C117.017,10.5 116.7,10.7 116.5,11 C116.267,11.3 116.2,11.7 116.3,12.1 L125.2,36 L125.199,36 Z M161.088,29.5 C160.322,31.1 159.4,32.4 158.5,33.2 C157.18,34.3 155.6,34.9 153.7,34.9 C151.246,34.9 149.3,33.8 147.9,31.6 C146.637,29.7 146,27.4 145.8,24.7 L164.629,24.7 L164.629,24 C164.629,20.2 163.7,17.1 161.9,14.5 C159.812,11.7 157.1,10.3 153.7,10.3 C150.257,10.3 147.5,11.7 145.5,14.5 C143.718,17.1 142.8,20.2 142.8,24 C142.809,27.7 143.7,30.8 145.5,33.3 C147.546,36.2 150.3,37.6 153.7,37.6 C156.095,37.6 158.2,36.9 160,35.7 C161.742,34.5 163.1,32.8 164,30.6 C164.198,30.1 164.2,29.6 164,29.2 C163.847,28.9 163.6,28.6 163.2,28.5 C162.779,28.4 162.4,28.3 162,28.5 C161.582,28.7 161.3,29 161.1,29.5 L161.088,29.5 Z M145.918,22.1 C146.11,19.7 146.8,17.7 148,16 C149.412,14 151.3,12.9 153.7,12.9 C156.032,12.9 157.9,14 159.4,16.1 C160.593,17.8 161.3,19.8 161.5,22.1 L145.919,22.1 L145.918,22.1 Z" id="Shape"></path>
        </g>
    </g>
</svg>