<svg xmlns="http://www.w3.org/2000/svg" xmlns:xlink="http://www.w3.org/1999/xlink" xmlns:sketch="http://www.bohemiancoding.com/sketch/ns" width="166px" height="39px" viewBox="0 0 166 39" version="1.1"><!-- Generator: Sketch 3.0.4 (8054) - http://www.bohemiancoding.com/sketch --><title>natUIve</title><desc>Created with Sketch.</desc><defs/><g id="Page-1" stroke="none" stroke-width="1" fill="none" fill-rule="evenodd" sketch:type="MSPage"><g id="natuive" sketch:type="MSLayerGroup" transform="translate(-4.000000, -5.000000)" fill="#000000"><g id="Page-1" sketch:type="MSShapeGroup"><path d="M4.16308594 17.2 L4.16308594 41 C4.16308594 41.5 4.3 41.9 4.6 42.2 C4.88086081 42.5 5.2 42.6 5.6 42.6 C6.02929879 42.6 6.4 42.4 6.7 42.2 C6.9703792 41.9 7.1 41.4 7.1 40.9 L7.12988281 23.9 C8.24642485 21.9 9.6 20.3 11.1 19.4 C12.489265 18.4 14.1 17.9 15.9 17.9 C17.5934328 17.9 18.9 18.4 19.9 19.4 C20.7994836 20.3 21.2 21.5 21.2 22.8 L21.2460938 41 C21.2460938 41.5 21.4 41.9 21.7 42.2 C21.9638686 42.4 22.3 42.6 22.7 42.6 C23.1123066 42.6 23.4 42.4 23.7 42.2 C24.053387 41.9 24.2 41.5 24.2 41 L24.2128906 22.8 C24.2128906 20.8 23.5 19 22.1 17.6 C20.5761642 16.1 18.5 15.3 15.9 15.3 C13.9247946 15.3 12.2 15.7 10.7 16.6 C9.23534438 17.4 8.1 18.6 7.1 20.2 L7.12988281 17.2 C7.12988281 16.7 7 16.3 6.7 16.1 C6.36425638 15.8 6 15.7 5.6 15.7 C5.23176876 15.7 4.9 15.8 4.6 16.1 C4.30663919 16.3 4.2 16.7 4.2 17.2 Z M42.2529297 15.3 C39.5732288 15.3 37.4 15.9 35.8 17.1 C34.1341063 18.3 33.1 20.2 32.7 22.6 C32.6347651 23.1 32.7 23.5 33 23.8 C33.2727877 24 33.6 24.2 34 24.2 C34.389325 24.3 34.7 24.2 35 23.9 C35.378257 23.7 35.6 23.4 35.6 23 C35.8089201 21.4 36.4 20.2 37.3 19.4 C38.4088596 18.4 40 17.9 42.2 17.9 C44.4381622 17.9 46.1 18.3 47.2 19.2 C48.2822318 20 48.8 21.1 48.8 22.7 C48.8085938 24.1 48.3 25 47.4 25.5 C46.3841096 26.1 44.2 26.6 40.8 27.1 C36.9094859 27.5 34.2 28.6 32.8 30.3 C31.7893831 31.4 31.3 33 31.3 35.1 C31.2949219 37.5 32 39.3 33.4 40.6 C34.9156974 41.9 37.1 42.6 40 42.6 C42.061534 42.6 43.9 42.2 45.6 41.5 C46.8147847 40.9 47.9 40.2 48.9 39.3 C48.8564453 40.2 49.1 40.9 49.7 41.4 C50.4195999 41.8 51.7 42 53.5 42 C53.9446637 42 54.3 41.9 54.6 41.6 C54.7740897 41.3 54.9 41 54.9 40.7 C54.853841 40.3 54.7 40 54.5 39.7 C54.2477201 39.5 53.9 39.4 53.5 39.4 C52.9716768 39.4 52.5 39.2 52.2 38.9 C51.9189439 38.6 51.8 38.2 51.8 37.6 L51.7753906 22.5 C51.7753906 19.9 50.9 18.1 49 16.9 C47.3730387 15.8 45.1 15.3 42.3 15.3 Z M48.8085938 35.6 C48.0748661 36.9 47 37.9 45.6 38.6 C44.0393802 39.5 42.2 39.9 40 39.9 C38.0100814 39.9 36.6 39.5 35.6 38.6 C34.7561804 37.9 34.3 36.7 34.3 35.1 C34.3095703 33.5 34.8 32.3 35.7 31.5 C36.7340544 30.6 38.4 30 40.8 29.6 C43.2099729 29.3 45.1 29 46.5 28.5 C47.5804092 28.2 48.4 27.8 48.8 27.4 L48.8085938 35.6 Z M61.4414062 9.4 L61.4414062 16.1 L58.8574219 16.1 C58.1236942 16.1 57.8 16.5 57.8 17.4 C57.7568359 18.3 58.1 18.7 58.9 18.7 L61.4414062 18.7 L61.4414062 37.9 C61.4414062 39.2 61.8 40.2 62.6 41.1 C63.419275 42.1 64.6 42.6 66 42.6 L68.2841797 42.6 C68.7307965 42.6 69.1 42.4 69.4 42.1 C69.6399752 41.9 69.8 41.6 69.8 41.2 C69.7675781 40.8 69.6 40.5 69.4 40.3 C69.0976548 40 68.7 39.9 68.3 39.9 L66.5615234 39.9 C65.859697 39.9 65.3 39.6 64.9 39.2 C64.6155583 38.8 64.5 38.3 64.5 37.7 L64.4560547 18.7 L68.3798828 18.7 C69.209314 18.7 69.6 18.3 69.6 17.4 C69.6240234 16.5 69.2 16.1 68.4 16.1 L64.4560547 16.1 L64.4560547 9.4 C64.4560547 9 64.3 8.6 64 8.3 C63.6904283 8.1 63.3 8 62.9 8 C62.5100891 8 62.2 8.1 61.9 8.3 C61.5849595 8.6 61.4 9 61.4 9.4 Z M75.9404297 7.3 L75.9404297 29.5 C75.9404297 33.1 77 36.1 79 38.4 C81.2998162 41.2 84.6 42.6 88.8 42.6 C93.0234586 42.6 96.3 41.2 98.6 38.4 C100.615896 36.1 101.6 33.1 101.6 29.5 L101.636719 7.1 C101.636719 6.7 101.5 6.3 101.2 6.1 C100.871092 5.8 100.5 5.7 100.2 5.7 C99.7386047 5.7 99.4 5.8 99.1 6 C98.8134751 6.3 98.7 6.6 98.7 7 L98.6699219 29.5 C98.6699219 32.4 97.9 34.8 96.4 36.6 C94.6184808 38.8 92.1 39.9 88.8 39.9 C85.5266763 39.9 83 38.8 81.2 36.6 C79.6728439 34.7 78.9 32.4 78.9 29.5 L78.9072266 7.3 C78.9072266 6.8 78.7 6.4 78.4 6.1 C78.1416001 5.9 77.8 5.8 77.4 5.8 C77.0091125 5.8 76.7 5.9 76.4 6.1 C76.0839829 6.4 75.9 6.8 75.9 7.3 Z M111.350586 7.3 L111.350586 41 C111.350586 41.5 111.5 41.9 111.8 42.2 C112.068361 42.4 112.4 42.6 112.8 42.6 C113.216799 42.6 113.6 42.4 113.8 42.2 C114.157879 41.9 114.3 41.5 114.3 41 L114.317383 7.3 C114.317383 6.8 114.2 6.4 113.8 6.1 C113.551756 5.8 113.2 5.7 112.8 5.7 C112.419269 5.7 112.1 5.8 111.8 6.1 C111.494139 6.4 111.4 6.8 111.4 7.3 Z M129.199219 41 C129.48633 42 130.1 42.6 131 42.6 C131.910812 42.6 132.5 42 132.9 41 L141.78418 17.1 C141.911784 16.7 141.8 16.3 141.6 16 C141.401366 15.7 141.1 15.5 140.7 15.4 C140.268878 15.3 139.9 15.3 139.5 15.4 C139.152342 15.5 138.9 15.8 138.8 16.2 L131.06543 37.9 L123.361328 16.2 C123.201822 15.8 122.9 15.5 122.5 15.4 C122.196938 15.3 121.8 15.3 121.4 15.4 C121.0166 15.5 120.7 15.7 120.5 16 C120.266926 16.3 120.2 16.7 120.3 17.1 L129.199219 41 Z M165.087891 34.5 C164.322262 36.1 163.4 37.4 162.5 38.2 C161.180007 39.3 159.6 39.9 157.7 39.9 C155.246407 39.9 153.3 38.8 151.9 36.6 C150.636713 34.7 150 32.4 149.8 29.7 L168.628906 29.7 L168.628906 29 C168.628906 25.2 167.7 22.1 165.9 19.5 C163.811839 16.7 161.1 15.3 157.7 15.3 C154.25747 15.3 151.5 16.7 149.5 19.5 C147.717764 22.1 146.8 25.2 146.8 29 C146.808594 32.7 147.7 35.8 149.5 38.3 C151.545908 41.2 154.3 42.6 157.7 42.6 C160.09539 42.6 162.2 41.9 164 40.7 C165.741871 39.5 167.1 37.8 168 35.6 C168.198243 35.1 168.2 34.6 168 34.2 C167.84733 33.9 167.6 33.6 167.2 33.5 C166.778644 33.4 166.4 33.3 166 33.5 C165.582355 33.7 165.3 34 165.1 34.5 Z M149.918945 27.1 C150.110353 24.7 150.8 22.7 152 21 C153.412117 19 155.3 17.9 157.7 17.9 C160.031587 17.9 161.9 19 163.4 21.1 C164.59343 22.8 165.3 24.8 165.5 27.1 L149.918945 27.1 Z" id="natUIve"/></g></g></g></svg>