<?xml version="1.0" encoding="UTF-8" standalone="no"?>
<svg width="166px" height="39px" viewBox="0 0 166 39" version="1.1" xmlns="http://www.w3.org/2000/svg" xmlns:xlink="http://www.w3.org/1999/xlink" xmlns:sketch="http://www.bohemiancoding.com/sketch/ns">
    <!-- Generator: Sketch 3.0.4 (8054) - http://www.bohemiancoding.com/sketch -->
    <title>natUIve</title>
    <desc>Created with Sketch.</desc>
    <defs></defs>
    <g id="Page-1" stroke="none" stroke-width="1" fill="none" fill-rule="evenodd" sketch:type="MSPage">
        <g id="natuive" sketch:type="MSLayerGroup" transform="translate(-4.000000, -5.000000)" fill="#000000">
            <g id="Page-1" sketch:type="MSShapeGroup">
                <path d="M4.16308594,17.1992188 L4.16308594,40.9814454 C4.16308594,41.4918646 4.30663919,41.8906236 4.59375,42.1777344 C4.88086081,42.4648452 5.23176876,42.6083985 5.64648438,42.6083985 C6.02929879,42.5764973 6.36425638,42.432944 6.65136719,42.1777344 C6.9703792,41.8587224 7.12988281,41.444013 7.12988281,40.9335938 L7.12988281,23.8984375 C8.24642485,21.8567607 9.55435448,20.3414763 11.0537109,19.3525391 C12.489265,18.3955031 14.1162018,17.9169922 15.9345703,17.9169922 C17.5934328,17.9169922 18.9173128,18.4274038 19.90625,19.4482422 C20.7994836,20.3414759 21.2460938,21.4739515 21.2460938,22.8457032 L21.2460938,40.9814454 C21.2460938,41.4599634 21.389647,41.8587224 21.6767578,42.1777344 C21.9638686,42.432944 22.3147766,42.5605469 22.7294922,42.5605469 C23.1123066,42.5605469 23.4472642,42.432944 23.734375,42.1777344 C24.053387,41.8587224 24.2128906,41.4599634 24.2128906,40.9814454 L24.2128906,22.8457032 C24.2128906,20.7721251 23.5110747,19.0335357 22.1074219,17.6298829 C20.5761642,16.066724 18.5185676,15.2851563 15.9345703,15.2851563 C13.9247946,15.2851563 12.1702549,15.7158161 10.6708984,16.5771485 C9.23534438,17.4065797 8.05501765,18.6028568 7.12988281,20.1660157 L7.12988281,17.1992188 C7.12988281,16.7207008 6.9703792,16.3378921 6.65136719,16.0507813 C6.36425638,15.7955717 6.02929879,15.6679688 5.64648438,15.6679688 C5.23176876,15.6679688 4.88086081,15.7955717 4.59375,16.0507813 C4.30663919,16.3378921 4.16308594,16.7207008 4.16308594,17.1992188 Z M42.2529297,15.2851563 C39.5732288,15.2851563 37.41993,15.8753197 35.7929688,17.0556641 C34.1341063,18.299811 33.1132832,20.1500529 32.7304688,22.6064454 C32.6347651,23.0849634 32.7304673,23.4677721 33.0175781,23.7548829 C33.2727877,24.0419937 33.591795,24.2014973 33.9746094,24.2333985 C34.389325,24.2652997 34.7402329,24.1695975 35.0273438,23.9462891 C35.378257,23.7229807 35.5856117,23.4039735 35.6494141,22.9892579 C35.8089201,21.3941978 36.3671827,20.1819703 37.3242188,19.3525391 C38.4088596,18.3955031 40.0357964,17.9169922 42.2050781,17.9169922 C44.4381622,17.9169922 46.1129501,18.3317016 47.2294922,19.1611329 C48.2822318,19.9586629 48.8085938,21.1389896 48.8085938,22.7021485 C48.8085938,24.0739001 48.3300829,25.0149715 47.3730469,25.5253907 C46.3841096,26.0677111 44.1829598,26.5781227 40.7695312,27.0566407 C36.9094859,27.5351587 34.2457756,28.6038329 32.7783203,30.2626954 C31.7893831,31.4111386 31.2949219,33.0380755 31.2949219,35.1435547 C31.2949219,37.4723424 32.0126881,39.2747333 33.4482422,40.5507813 C34.9156974,41.8906317 37.0849466,42.5605469 39.9560547,42.5605469 C42.061534,42.5605469 43.9436766,42.1936886 45.6025391,41.459961 C46.8147847,40.9176406 47.8994093,40.1839239 48.8564453,39.2587891 C48.8564453,40.2477263 49.1435518,40.9495422 49.7177734,41.3642579 C50.4195999,41.8108747 51.6796784,42.0341797 53.4980469,42.0341797 C53.9446637,42.0341797 54.2955716,41.8906265 54.5507812,41.6035157 C54.7740897,41.3483061 54.8857422,41.0452492 54.8857422,40.694336 C54.853841,40.3115216 54.7262381,39.9925143 54.5029297,39.7373047 C54.2477201,39.4820951 53.9287129,39.3544922 53.5458984,39.3544922 C52.9716768,39.3544922 52.5250667,39.1949886 52.2060547,38.8759766 C51.9189439,38.5888658 51.7753906,38.1741564 51.7753906,37.631836 L51.7753906,22.4628907 C51.7753906,19.9426958 50.8502697,18.0765035 49,16.8642579 C47.3730387,15.8115182 45.1240378,15.2851563 42.2529297,15.2851563 Z M48.8085938,35.5742188 C48.0748661,36.882168 47.0061919,37.9029912 45.6025391,38.6367188 C44.0393802,39.46615 42.1572376,39.8808594 39.9560547,39.8808594 C38.0100814,39.8808594 36.5745489,39.46615 35.6494141,38.6367188 C34.7561804,37.87109 34.3095703,36.7067136 34.3095703,35.1435547 C34.3095703,33.5165935 34.7880812,32.2884157 35.7451172,31.4589844 C36.7340544,30.5657508 38.4247927,29.9596371 40.8173828,29.640625 C43.2099729,29.321613 45.0921155,28.9547547 46.4638672,28.5400391 C47.5804092,28.1891259 48.3619769,27.8222676 48.8085938,27.4394532 L48.8085938,35.5742188 Z M61.4414062,9.44726567 L61.4414062,16.0986329 L58.8574219,16.0986329 C58.1236942,16.0986329 57.7568359,16.5292926 57.7568359,17.390625 C57.7568359,18.2838587 58.1236942,18.7304688 58.8574219,18.7304688 L61.4414062,18.7304688 L61.4414062,37.9189454 C61.4414062,39.1630922 61.8242149,40.2158161 62.5898438,41.0771485 C63.419275,42.0660857 64.567701,42.5605469 66.0351562,42.5605469 L68.2841797,42.5605469 C68.7307965,42.5605469 69.0976548,42.4169937 69.3847656,42.1298829 C69.6399752,41.8746733 69.7675781,41.5716164 69.7675781,41.2207032 C69.7675781,40.8378888 69.6399752,40.5188815 69.3847656,40.2636719 C69.0976548,40.0084623 68.7307965,39.8808594 68.2841797,39.8808594 L66.5615234,39.8808594 C65.859697,39.8808594 65.3173847,39.641604 64.9345703,39.163086 C64.6155583,38.7802716 64.4560547,38.3017607 64.4560547,37.7275391 L64.4560547,18.7304688 L68.3798828,18.7304688 C69.209314,18.7304688 69.6240234,18.2838587 69.6240234,17.390625 C69.6240234,16.5292926 69.209314,16.0986329 68.3798828,16.0986329 L64.4560547,16.0986329 L64.4560547,9.44726567 C64.4560547,8.96874766 64.2965511,8.60188935 63.9775391,8.34667974 C63.6904283,8.12337133 63.3395203,8.0117188 62.9248047,8.0117188 C62.5100891,8.0117188 62.1591811,8.12337133 61.8720703,8.34667974 C61.5849595,8.60188935 61.4414062,8.96874766 61.4414062,9.44726567 Z M75.9404297,7.29394536 L75.9404297,29.4970704 C75.9404297,33.0700049 76.9612528,36.0527225 79.0029297,38.4453125 C81.2998162,41.1888159 84.5696402,42.5605469 88.8125,42.5605469 C93.0234586,42.5605469 96.2773323,41.1888159 98.5742188,38.4453125 C100.615896,36.0527225 101.636719,33.0700049 101.636719,29.4970704 L101.636719,7.10253911 C101.636719,6.6559223 101.477215,6.32096471 101.158203,6.0976563 C100.871092,5.84244669 100.536135,5.7148438 100.15332,5.7148438 C99.7386047,5.7148438 99.3876967,5.81054597 99.1005859,6.00195317 C98.8134751,6.25716278 98.6699219,6.59212037 98.6699219,7.00683599 L98.6699219,29.5449219 C98.6699219,32.41603 97.9043045,34.7766835 96.3730469,36.6269532 C94.6184808,38.7962349 92.0983237,39.8808594 88.8125,39.8808594 C85.5266763,39.8808594 82.9905688,38.7962349 81.2041016,36.6269532 C79.6728439,34.7447823 78.9072266,32.3841288 78.9072266,29.5449219 L78.9072266,7.29394536 C78.9072266,6.78352614 78.7477229,6.38476711 78.4287109,6.0976563 C78.1416001,5.87434789 77.8066425,5.76269536 77.4238281,5.76269536 C77.0091125,5.76269536 76.6582046,5.89029825 76.3710938,6.14550786 C76.0839829,6.43261867 75.9404297,6.81542734 75.9404297,7.29394536 Z M111.350586,7.29394536 L111.350586,41.0292969 C111.350586,41.5078149 111.494139,41.8906236 111.78125,42.1777344 C112.068361,42.432944 112.419269,42.5605469 112.833984,42.5605469 C113.216799,42.5605469 113.551756,42.432944 113.838867,42.1777344 C114.157879,41.8906236 114.317383,41.5078149 114.317383,41.0292969 L114.317383,7.29394536 C114.317383,6.78352614 114.157879,6.38476711 113.838867,6.0976563 C113.551756,5.84244669 113.216799,5.7148438 112.833984,5.7148438 C112.419269,5.7148438 112.068361,5.84244669 111.78125,6.0976563 C111.494139,6.38476711 111.350586,6.78352614 111.350586,7.29394536 Z M129.199219,40.9814454 C129.48633,42.034185 130.092443,42.5605469 131.017578,42.5605469 C131.910812,42.5605469 132.532876,42.034185 132.883789,40.9814454 L141.78418,17.0556641 C141.911784,16.6728497 141.847983,16.3219417 141.592773,16.0029297 C141.401366,15.7158189 141.098309,15.5084642 140.683594,15.3808594 C140.268878,15.2532546 139.886069,15.2532546 139.535156,15.3808594 C139.152342,15.5084642 138.897136,15.7796204 138.769531,16.194336 L131.06543,37.9189454 L123.361328,16.194336 C123.201822,15.7796204 122.930666,15.5084642 122.547852,15.3808594 C122.196938,15.2532546 121.81413,15.2532546 121.399414,15.3808594 C121.0166,15.5084642 120.713543,15.7158189 120.490234,16.0029297 C120.266926,16.3219417 120.219075,16.6728497 120.34668,17.0556641 L129.199219,40.9814454 Z M165.087891,34.4736329 C164.322262,36.1324953 163.444992,37.3766235 162.456055,38.2060547 C161.180007,39.3225968 159.584971,39.8808594 157.670898,39.8808594 C155.246407,39.8808594 153.316413,38.7802845 151.880859,36.5791016 C150.636713,34.7288319 149.950847,32.4479303 149.823242,29.7363282 L168.628906,29.7363282 L168.628906,28.9707032 C168.628906,25.2382626 167.703785,22.0800911 165.853516,19.4960938 C163.811839,16.6887881 161.084327,15.2851563 157.670898,15.2851563 C154.25747,15.2851563 151.545908,16.6887881 149.536133,19.4960938 C147.717764,22.0800911 146.808594,25.2382626 146.808594,28.9707032 C146.808594,32.6712425 147.717764,35.7975133 149.536133,38.3496094 C151.545908,41.1569151 154.25747,42.5605469 157.670898,42.5605469 C160.09539,42.5605469 162.200837,41.9384828 163.987305,40.694336 C165.741871,39.5139915 167.081701,37.8073029 168.006836,35.5742188 C168.198243,35.0957008 168.198243,34.6490907 168.006836,34.234375 C167.84733,33.8834618 167.576174,33.6442064 167.193359,33.5166016 C166.778644,33.3570956 166.379885,33.3411452 165.99707,33.46875 C165.582355,33.6601573 165.279298,33.9951148 165.087891,34.4736329 Z M149.918945,27.0566407 C150.110353,24.727853 150.796218,22.7181075 151.976562,21.0273438 C153.412117,18.9537657 155.31021,17.9169922 157.670898,17.9169922 C160.031587,17.9169922 161.945631,18.9697161 163.413086,21.0751954 C164.59343,22.7978602 165.279296,24.7916554 165.470703,27.0566407 L149.918945,27.0566407 Z" id="natUIve"></path>
            </g>
        </g>
    </g>
</svg>