<?xml version="1.0" encoding="utf-8"?>
<!-- Generator: Adobe Illustrator 24.0.3, SVG Export Plug-In . SVG Version: 6.00 Build 0)  -->
<svg version="1.1" id="Layer_1" xmlns="http://www.w3.org/2000/svg" xmlns:xlink="http://www.w3.org/1999/xlink" x="0px" y="0px"
	 viewBox="0 0 288 94.35" style="enable-background:new 0 0 288 94.35;" xml:space="preserve">
<style type="text/css">
	.st0{fill:teal;}
</style>
<g>
	<path class="st0" d="M114.76,0h18.86v93.95h-18.86V0z"/>
	<path class="st0" d="M172.79,0l0.23,32.52c0,16.7,0,28.02,7.81,35.84c4.58,4.58,11.59,7.81,20.48,7.81c8.89,0,15.9-3.23,20.48-7.81
		c7.81-7.82,7.81-19.13,7.81-35.84L229.56,0h18.9v32.52c0,18.86,0,34.49-12.66,47.69c-6.47,6.73-18.05,13.74-34.49,13.74
		c-16.44,0-28.02-7.01-34.49-13.74c-12.66-13.2-12.66-28.83-12.66-47.69V0H172.79z"/>
	<path class="st0" d="M268.99,0h18.86v93.95h-18.86V0z"/>
	<path class="st0" d="M75.5,93.95l-0.13-31.92c0-16.7,0-28.02-7.81-35.84c-4.58-4.58-11.59-7.81-20.48-7.81
		c-8.89,0-15.9,3.23-20.48,7.81c-7.81,7.82-7.81,19.13-7.81,35.84v31.92H-0.07V62.04c0-18.86,0-34.49,12.66-47.69
		C19.06,7.61,30.64,0.6,47.08,0.6c16.44,0,28.02,7.01,34.49,13.74c12.66,13.2,12.66,28.83,12.66,47.69v31.92H75.5z"/>
</g>
</svg>
