<svg version="1.1" id="Layer_2" xmlns="http://www.w3.org/2000/svg" x="0" y="0" viewBox="0 0 91.1 20.3" xml:space="preserve"><style type="text/css">.st0{fill:#C3002F;} .st1{fill:#1C1D1D;}</style><g id="XMLID_2_"><path id="XMLID_59_" class="st0" d="M11.5 13.3l3.9-6.7L11.6 0 7.7 6.6z"/><path id="XMLID_58_" class="st0" d="M11.5 13.3l3.8 6.6H23l-3.8-6.6z"/><path id="XMLID_57_" class="st0" d="M11.5 13.3l-7.6-.1L0 19.8l7.6.1z"/><path id="XMLID_56_" class="st1" d="M38.9 13.4l.1-6.6-2.7-.1v6.7z"/><path id="XMLID_55_" class="st1" d="M72.3 13.5V6.9h-2.6l-.1 6.6z"/><path id="XMLID_54_" class="st1" d="M91.1 13.6V7h-2.6v6.6z"/><path id="XMLID_53_" class="st1" d="M34.8 6.7h-2.9l-1 2-1-2H27l-.7 6.6h2.6l.3-3.3 1.7 3.3 1.7-3.3.2 3.4h2.6z"/><path id="XMLID_52_" class="st1" d="M39.9 6.8v1.5h1.7l-.1 5.1h2.7V8.3h1.7V6.8z"/><path id="XMLID_51_" class="st1" d="M52.5 8.8V7.3c-1-.4-1.6-.6-2.9-.6-2.4 0-3.1 1.2-3.1 2 0 1.1.8 1.7 1.6 2 1 .4 2.1.3 2 .8 0 .3-.4.5-.9.5-.8 0-2-.4-2.6-.8V13c.8.4 1.8.7 2.7.7 2.3 0 3.3-1 3.3-2.2 0-1.3-.9-2-2-2.4-.8-.3-1.7-.2-1.7-.6.2-.3.5-.5 1.1-.5.7 0 1.8.4 2.5.8"/><path id="XMLID_50_" class="st1" d="M79.1 8.9V7.4c-1-.4-1.6-.6-2.9-.6-2.4 0-3.1 1.2-3.1 2 0 1.1.8 1.7 1.6 2 1 .4 2.1.3 2 .8 0 .3-.4.5-.9.5-.8 0-2-.4-2.6-.8v1.8c.8.4 1.8.7 2.7.7 2.3 0 3.3-.9 3.3-2.2 0-1.2-.9-2-2-2.4-.8-.3-1.7-.2-1.7-.6 0-.3.3-.4.8-.4 1-.1 2.1.3 2.8.7"/><path id="XMLID_49_" class="st1" d="M57.2 13.6c2.9 0 3.5-1.5 3.5-3.1V6.8h-2.6v4.4c0 .5-.3.9-.9.9-.6 0-.9-.5-.9-.9V6.8h-2.7v3.7c.1 1.6.7 3.1 3.6 3.1"/><path id="XMLID_45_" class="st1" d="M65.2 13.5c2.2 0 3.5-.5 3.5-1.8 0-.8-.6-1.4-1.4-1.7.6-.2 1-.7 1-1.4 0-1.2-1.1-1.8-2.9-1.8h-3.5v6.6l3.3.1zm-.1-5.4c.4 0 .7.3.7.7 0 .3-.3.6-.7.6h-.7V8.1h.7m0 4.1h-.6v-1.4h.7c.3 0 .7.3.7.7 0 .4-.3.7-.8.7"/><path id="XMLID_44_" class="st1" d="M84.8 7v2.4h-1.7V7l-2.7-.1v6.7H83v-2.5h1.8v2.5h2.6V7z"/><path id="XMLID_41_" class="st1" d="M65.7 18h.4c.2 0 .5-.1.7-.1.5-.2.8-.6.8-1.5 0-1.2-.5-1.6-1.5-1.6h-1.6v5.3h1.2V18zm.5-1h-.5v-1.2h.5c.2 0 .3.3.3.6s-.1.6-.3.6"/><path id="XMLID_40_" class="st1" d="M83 20.2v-5.3h-1.1l-.1 5.3z"/><path id="XMLID_39_" class="st1" d="M78.9 14.9v1.2h.7v4.1h1.2v-4.1h.7v-1.2z"/><path id="XMLID_36_" class="st1" d="M76.6 14.9l-1.1 5.3h1.2l.1-.7h.9l.1.7H79l-1-5.3h-1.4zm.4 3.5l.3-2 .3 2H77z"/><path id="XMLID_35_" class="st1" d="M91.1 20.3v-5.4h-1.2v2.5l-.9-2.5h-1.4v5.3h1.2v-2.5l.9 2.6z"/><path id="XMLID_32_" class="st1" d="M72 14.9v5.3h1.2v-1.6l.7 1.6h1.4l-1-2c.5-.2.8-.8.8-1.6 0-1.1-.5-1.7-1.5-1.7H72zm1.5 2.3h-.4V16h.4c.2 0 .3.3.3.6.1.3-.1.6-.3.6"/><path id="XMLID_29_" class="st1" d="M60.8 14.8v5.3H62v-1.6l.7 1.6h1.4l-1-2c.5-.2.8-.8.8-1.6 0-1.2-.5-1.7-1.5-1.7h-1.6zm1.6 2.3H62v-1.2h.4c.2 0 .3.3.3.6.1.4-.1.6-.3.6"/><path id="XMLID_28_" class="st1" d="M56.3 19.7c-.4.5-.8.6-1.2.6-1.2 0-1.8-1.2-1.8-2.8 0-1.7.8-2.8 1.8-2.9.4 0 .9.1 1.2.5v1.1c-.4-.2-.8-.4-1.2-.2-.3.2-.7.7-.6 1.6 0 .9.3 1.3.7 1.4.4.1.6-.1 1.2-.5l-.1 1.2z"/><path id="XMLID_25_" class="st1" d="M85.3 14.7c-1 0-2 .8-2 2.8 0 1.9.9 2.8 1.9 2.9 1.1 0 1.9-.9 1.9-2.8.2-2.1-.8-2.9-1.8-2.9m0 4.2c-.5 0-.6-.8-.6-1.6 0-.6.2-1.4.6-1.4.5 0 .6.9.6 1.4.1.8-.1 1.6-.6 1.6"/><path id="XMLID_22_" class="st1" d="M69.7 14.6c-1 0-1.9.8-2 2.8 0 1.9.9 2.8 1.9 2.8 1.1 0 1.9-.9 2-2.8.1-2-.9-2.8-1.9-2.8m0 4.3c-.5 0-.6-.8-.6-1.6 0-.6.2-1.4.6-1.4.5 0 .6.9.6 1.4.1.7-.1 1.6-.6 1.6"/><path id="XMLID_19_" class="st1" d="M58.6 14.6c-1 0-1.9.8-2 2.8 0 1.9.9 2.8 1.9 2.9 1.1 0 1.9-.9 2-2.8 0-2.1-.9-2.9-1.9-2.9m0 4.2c-.5 0-.6-.8-.6-1.6 0-.6.2-1.4.6-1.4.5 0 .6.9.6 1.4 0 .8-.2 1.6-.6 1.6"/><path id="XMLID_18_" class="st1" d="M31.2 20v-5.3H30V20z"/><path id="XMLID_15_" class="st1" d="M27.4 14.7L26.3 20h1.2l.1-.7h.9l.1.7h1.2l-1-5.3h-1.4zm.3 3.4l.3-2 .3 2h-.6z"/><path id="XMLID_12_" class="st1" d="M38.6 14.7V20h1.2v-1.6l.7 1.6h1.4l-1-2c.5-.2.8-.8.8-1.6 0-1.2-.5-1.7-1.5-1.7h-1.6zm1.6 2.3h-.4v-1.2h.4c.2 0 .3.2.3.6 0 .4-.2.6-.3.6"/><path id="XMLID_9_" class="st1" d="M31.7 14.7V20h1.2v-1.6l.7 1.6H35l-1-2c.5-.2.8-.8.8-1.6 0-1.2-.5-1.7-1.5-1.7h-1.6zm1.6 2.3h-.4v-1.2h.4c.2 0 .3.3.3.6 0 .4-.1.6-.3.6"/><path id="XMLID_6_" class="st1" d="M43.1 14.7l-1 5.3h1.2l.1-.7h.9l.1.7h1.2l-1-5.3h-1.5zm.4 3.5l.3-2 .3 2h-.6z"/><path id="XMLID_5_" class="st1" d="M48.7 14.7V16h.7v4.1h1.2V16h.8v-1.2z"/><path id="XMLID_4_" class="st1" d="M47 20.1v-2.2h1.3v-1H47v-1.1h1.4v-1l-2.6-.1V20z"/><path id="XMLID_3_" class="st1" d="M38.1 19.6c-.4.5-.7.6-1.2.6-1.2 0-1.8-1.2-1.8-2.8 0-1.7.8-2.8 1.8-2.9.4 0 .9.1 1.2.5v1.1c-.4-.2-.8-.4-1.2-.2-.3.2-.7.7-.6 1.6.1.9.3 1.3.7 1.4.4.1.6-.1 1.2-.5l-.1 1.2z"/></g></svg>