<?xml version="1.0" encoding="UTF-8" standalone="no"?>
<!-- Generator: Adobe Illustrator 23.0.1, SVG Export Plug-In . SVG Version: 6.00 Build 0)  -->

<svg
   fill="#2a2859"
   xmlns:dc="http://purl.org/dc/elements/1.1/"
   xmlns:cc="http://creativecommons.org/ns#"
   xmlns:rdf="http://www.w3.org/1999/02/22-rdf-syntax-ns#"
   xmlns:svg="http://www.w3.org/2000/svg"
   xmlns="http://www.w3.org/2000/svg"
   xmlns:sodipodi="http://sodipodi.sourceforge.net/DTD/sodipodi-0.dtd"
   xmlns:inkscape="http://www.inkscape.org/namespaces/inkscape"
   version="1.1"
   id="RGB_Logo_Sort"
   x="0px"
   y="0px"
   viewBox="0 0 299.99999 153.99999"
   xml:space="preserve"
   sodipodi:docname="logo.svg"
   width="300"
   height="154"
   inkscape:version="0.92.4 (unknown)"><metadata
   id="metadata29"><rdf:RDF><cc:Work
       rdf:about=""><dc:format>image/svg+xml</dc:format><dc:type
         rdf:resource="http://purl.org/dc/dcmitype/StillImage" /><dc:title>RGB Logo Svart</dc:title></cc:Work></rdf:RDF></metadata><defs
   id="defs27" /><sodipodi:namedview
   pagecolor="#ffffff"
   bordercolor="#666666"
   borderopacity="1"
   objecttolerance="10"
   gridtolerance="10"
   guidetolerance="10"
   inkscape:pageopacity="0"
   inkscape:pageshadow="2"
   inkscape:window-width="894"
   inkscape:window-height="480"
   id="namedview25"
   showgrid="false"
   fit-margin-top="0"
   fit-margin-left="0"
   fit-margin-right="0"
   fit-margin-bottom="0"
   inkscape:zoom="0.75835473"
   inkscape:cx="150.00001"
   inkscape:cy="76.999994"
   inkscape:window-x="134"
   inkscape:window-y="55"
   inkscape:window-maximized="0"
   inkscape:current-layer="RGB_Logo_Sort" />
<title
   id="title2">RGB Logo Svart</title>
<path
   d="m 102.3,34.2 -2.1,-1.3 C 97,30.8 93.6,29 90,27.5 v 0 C 88.5,26.9 87,26.3 85.5,25.8 81.9,24.6 78.1,23.6 74.4,23 c -1.6,-0.2 -3.2,-0.4 -4.9,-0.6 -3.8,-0.3 -7.7,-0.3 -11.5,0 -1.6,0.1 -3.3,0.3 -4.9,0.6 -3.8,0.6 -7.5,1.5 -11.2,2.8 -1.5,0.5 -3,1.1 -4.5,1.7 v 0 c -3.5,1.5 -6.9,3.3 -10.2,5.4 l -2.1,1.3 -10.3,-19.7 1.8,-1.1 c 3.5,-2.2 7.1,-4.1 10.8,-5.7 l 1.9,-0.9 3.7,7.1 c 1.1,-0.4 2.1,-0.8 3.2,-1.2 l -1.9,-7.8 2,-0.7 C 40.2,3 44.1,2 48.1,1.3 l 2.1,-0.4 1.9,7.8 0.6,-0.1 c 0.9,-0.1 1.9,-0.2 2.8,-0.3 v -8 l 2.1,-0.1 c 2,-0.1 4.1,-0.2 6.1,-0.2 2,0 4.1,0.1 6.1,0.2 l 2.1,0.1 v 8 c 1.1,0.1 2.2,0.2 3.4,0.4 l 1.9,-7.8 2.1,0.4 c 4,0.7 8,1.7 11.8,2.9 l 2,0.7 -1.9,7.8 c 1.1,0.4 2.1,0.8 3.2,1.2 l 3.7,-7.1 1.9,0.9 c 3.7,1.7 7.3,3.6 10.8,5.7 l 1.8,1.1 z m -81.5,-18 6.1,11.6 c 2.8,-1.7 5.7,-3.1 8.7,-4.4 h 0.1 c 1.6,-0.7 3.2,-1.3 4.8,-1.8 3.9,-1.3 7.9,-2.4 11.9,-3 1.7,-0.3 3.4,-0.5 5.2,-0.6 4.1,-0.3 8.2,-0.3 12.3,0 1.7,0.2 3.5,0.4 5.2,0.6 4,0.6 8,1.6 11.9,2.9 1.6,0.6 3.2,1.2 4.8,1.8 v 0 c 3,1.3 5.9,2.8 8.8,4.4 l 6.1,-11.6 c -2.1,-1.2 -4.3,-2.4 -6.5,-3.4 l -3.7,7 -1.9,-0.8 -0.8,-0.3 C 91.9,17.8 89.9,17 87.9,16.4 L 85.9,15.7 87.8,8 C 85.4,7.3 83.1,6.7 80.7,6.2 l -1.9,7.7 -2.1,-0.3 C 74.3,13.2 71.9,12.9 69.6,12.7 L 67.5,12.5 V 4.6 c -2.4,-0.1 -4.9,-0.1 -7.3,0 v 7.9 l -2.1,0.2 C 56.5,12.8 55,13 53.5,13.2 52.7,13.3 51.8,13.4 51,13.6 L 48.9,13.9 47,6.2 C 44.6,6.7 42.2,7.3 39.9,8 l 1.9,7.7 -2,0.7 c -2,0.7 -4,1.4 -5.9,2.2 l -0.8,0.3 -1.9,0.8 -3.7,-7 c -2.4,1 -4.6,2.2 -6.7,3.5 z"
   id="path4"
   inkscape:connector-curvature="0" />
<path
   d="M 63.7,154 C 28.5,154 0,125.5 0,90.4 0,55.3 28.5,26.7 63.6,26.7 c 35.1,0 63.7,28.5 63.7,63.6 0,16.9 -6.7,33.1 -18.6,45.1 -11.9,11.9 -28.2,18.6 -45,18.6 z m 0,-122.6 c -32.6,0 -59,26.4 -59,58.9 0,32.5 26.4,59 58.9,59 32.6,0 59,-26.4 59,-58.9 0,-15.6 -6.2,-30.6 -17.3,-41.7 -11,-11.1 -26,-17.4 -41.6,-17.3 z"
   id="path6"
   inkscape:connector-curvature="0" />
<path
   d="m 51.4,72.2 c -5,-6.7 -3.6,-16.3 3.1,-21.3 6.7,-5 16.3,-3.6 21.3,3.1 4,5.4 4,12.8 0,18.2 l 3.4,2.5 c 2.5,-3.3 3.9,-7.4 3.9,-11.6 0,-10.7 -8.7,-19.4 -19.4,-19.4 -10.7,0 -19.4,8.7 -19.4,19.4 0,4.2 1.4,8.3 3.9,11.6 z"
   id="path8"
   inkscape:connector-curvature="0" />
<path
   d="m 63.6,76.8 c 4.2,0 7.6,-3.4 7.6,-7.6 v -0.8 h 2.5 V 63.6 C 73.7,58 69.2,53.5 63.6,53.5 58,53.5 53.5,58 53.5,63.6 v 4.8 H 56 v 0.8 c 0,4.2 3.4,7.6 7.6,7.6 z M 57.7,63.7 c 0,-3.3 2.6,-5.9 5.9,-5.9 3.3,0 5.9,2.6 5.9,5.9 0,0 0,0 0,0 v 4.8 h -1.8 v 0.8 c 0.1,2.3 -1.6,4.2 -3.9,4.3 -2.3,0.1 -4.2,-1.6 -4.3,-3.9 0,-0.1 0,-0.3 0,-0.4 v -0.8 h -1.8 z"
   id="path10"
   inkscape:connector-curvature="0" />
<rect
   x="20.200003"
   y="93.200005"
   width="5.8000002"
   height="5.9000001"
   id="rect12" />
<path
   d="m 110.7,88.7 v 3.1 h 3 l -8.1,8.1 V 85.7 l 2.1,2.1 2.2,-2.2 -5.9,-5.9 -5.9,5.9 2.2,2.2 2.1,-2.1 v 14.1 l -8.1,-8.1 h 2.9 V 88.6 H 88.9 V 97 H 92 v -3 l 6.3,6.4 H 85.5 L 84.2,99.2 83.1,88.8 C 83,88.2 82.4,82.9 78,80.6 H 77.9 L 73.4,78.8 72.7,78.5 72,78.7 c -2.8,0.7 -5.6,1 -8.4,0.9 -2.8,0.1 -5.7,-0.2 -8.4,-0.9 l -0.7,-0.2 -5.2,2 h -0.1 c -4.4,2.3 -5.1,7.6 -5.1,8.2 l -1.2,10.8 -1,0.8 h -4.4 c 0.4,-1.4 0.6,-2.8 0.6,-4.2 0,-8.3 -6.8,-15 -15.1,-14.9 -8.3,0 -15,6.8 -14.9,15.1 0,7.4 5.4,13.6 12.7,14.8 H 21 c 0.4,0.1 0.8,0.1 1.2,0.1 l 19.5,2 c -0.7,6.6 -2,13.1 -3.9,19.5 l 2,0.7 2,0.6 c 2,-6.7 3.4,-13.6 4.1,-20.5 l 4.4,-3.7 -0.7,27.2 1.8,0.3 c 8.2,1.4 16.6,1.4 24.9,0 l 1.8,-0.3 -0.7,-27.1 4.4,3.7 c 0.7,6.9 2.1,13.8 4.1,20.5 l 4,-1.3 C 88,126.4 86.7,119.9 86,113.3 l 19.6,-1.8 v -6.8 L 116,94.3 v 3 h 3.1 V 89 Z M 63.6,83.9 c 3,0.1 6,-0.3 9,-0.9 l 3.6,1.4 c 2.4,1.3 2.8,4.8 2.8,4.8 l 0.9,8.2 h -5.1 c -2,0 -4.1,-0.5 -5.8,-1.6 -1.3,-1 -2.5,-2.1 -3.5,-3.4 l -7.2,-8.8 c 1.8,0.2 3.6,0.3 5.3,0.3 z M 23.1,107 h -0.5 l -1.1,-0.1 c -5.9,-0.9 -10,-6.5 -9,-12.4 0.9,-5.9 6.5,-10 12.4,-9 5.9,0.9 10,6.5 9,12.4 -0.9,5.2 -5.5,9.1 -10.8,9.1 z m 27.3,-2.9 -6,5.1 -12,-1.2 c 1.2,-1 2.3,-2.1 3.2,-3.4 h 7.9 l 7,-5.9 z m 0.3,-11 v 0 0 l -3.1,2.6 0.7,-6.4 v -0.1 c 0,0 0.3,-3.5 2.8,-4.8 l 2,-0.8 3.6,4.4 z m 13,41 c -3.3,0 -6.6,-0.2 -9.8,-0.7 l 0.2,-8.9 v 0 l 0.7,-29.4 4.5,-3.8 3,3.7 c 1.3,1.7 2.9,3.2 4.6,4.4 1.8,1.1 3.9,1.8 6,2.1 l 0.8,31.9 c -3.3,0.4 -6.7,0.6 -10,0.7 z m 37.7,-26.6 -18.1,1.7 -9,-7.6 h 0.7 5.9 l 3.4,3 h 17.2 z"
   id="path14"
   inkscape:connector-curvature="0" />
<path
   d="m 162.9,87.5 c 0,-15.5 9.8,-25 21.8,-25 12,0 21.8,9.5 21.8,25 0,16.1 -9.8,25.7 -21.8,25.7 -12,0 -21.8,-9.6 -21.8,-25.7 z m 37.4,0 c 0,-13.4 -6.9,-19.4 -15.6,-19.4 -8.7,0 -15.6,6 -15.6,19.4 0,13.4 7.2,20.1 15.6,20.1 8.4,0 15.6,-6.7 15.6,-20.1 z"
   id="path16"
   inkscape:connector-curvature="0" />
<path
   d="m 227.2,76.5 c 6.6,0 11.4,2.9 13.2,7.6 l -4.4,2.2 c -1.5,-3.1 -4.7,-4.9 -9,-4.9 -4.5,0 -7.6,1.8 -7.6,4.8 0,2.6 1.7,4.1 5.5,5 l 5.1,1 c 7.7,1.5 11.4,5 11.4,10.3 0,6.4 -5.6,10.7 -13.9,10.7 -7.2,0 -12.4,-2.8 -14.9,-8 l 4.4,-2.3 c 1.8,3.5 5.3,5.5 10.3,5.5 5,0 8.5,-2.2 8.5,-5.6 0,-2.9 -1.7,-4.6 -5.8,-5.4 l -6.1,-1.2 c -6.6,-1.3 -10.1,-4.7 -10.1,-9.6 0.1,-5.8 5.6,-10.1 13.4,-10.1 z"
   id="path18"
   inkscape:connector-curvature="0" />
<path
   d="m 259.1,113 c -6,0 -8.9,-3.7 -8.9,-9.4 V 63.2 h 5.8 v 40.2 c 0,3.1 1.7,4.6 4.5,4.6 0.7,0 1.4,-0.1 2.1,-0.3 v 5 c -1.1,0.1 -2.3,0.3 -3.5,0.3 z"
   id="path20"
   inkscape:connector-curvature="0" />
<path
   d="m 267.5,94.8 c 0,-11.1 7.2,-18.3 16.3,-18.3 9.1,0 16.2,7.2 16.2,18.3 0,11.2 -7.3,18.5 -16.2,18.5 -8.9,0 -16.3,-7.3 -16.3,-18.5 z m 26.5,0 c 0,-9 -4.7,-13.3 -10.2,-13.3 -5.5,0 -10.3,4.2 -10.3,13.3 0,9.1 4.6,13.5 10.3,13.5 5.7,0 10.2,-4.5 10.2,-13.5 z"
   id="path22"
   inkscape:connector-curvature="0" />
</svg>
