<?xml version="1.0" standalone="no"?>
<!DOCTYPE svg PUBLIC "-//W3C//DTD SVG 1.1//EN" "http://www.w3.org/Graphics/SVG/1.1/DTD/svg11.dtd" >
<svg xmlns="http://www.w3.org/2000/svg">
<metadata>Generated by IcoMoon</metadata>
<defs>
<font id="osloicons" horiz-adv-x="1024">
<font-face units-per-em="1024" ascent="960" descent="-64" />
<missing-glyph horiz-adv-x="1024" />
<glyph unicode="&#x20;" horiz-adv-x="512" d="" />
<glyph unicode="&#xe900;" glyph-name="h24" d="M282.784 287.616l111.456 109.376c21.856 21.28 30.624 44.576 23.392 62.336-5.024 12.416-17.344 19.808-32.992 19.808-30.496 0-36.96-30.464-38.208-39.808l-1.312-9.696-65.28 10.080 1.024 9.152c5.76 51.712 49.728 89.248 104.544 89.248 60.896 0 103.424-37.792 103.424-91.904 0-42.272-25.856-71.488-48.384-92.16l-63.712-60.864h112.48v-62.944h-206.432v57.376zM642.912 530.944h71.968v-182.112h39.328v-60.128h-39.328v-58.464h-66.112v58.464h-129.984v54.592l124.128 187.648zM648.768 348.832v84.608l-53.664-84.608h53.664zM830.336 699.232c83.616-84.448 129.664-196.384 129.664-315.232 0-247.040-200.96-448-448-448s-448 200.96-448 448c0 239.904 189.664 435.776 426.88 446.944v129.056l213.12-123.040v-73.92l-213.12-123.040v126.944c-201.888-11.072-362.88-178.336-362.88-382.944 0-211.744 172.256-384 384-384s384 172.256 384 384c0 101.856-39.456 197.824-111.168 270.208l45.504 45.024z" />
<glyph unicode="&#xe901;" glyph-name="backpack" d="M960.704 378.784l-0.8-332.096-96.032 0.288v-62.976h-704v65.024l-96.576 0.288 0.832 332.032 95.712 67.968v14.688l64 320h128v128h320v-128h128l64-320v-16.288l96.864-68.928zM415.84 848v-64h192v64h-192zM747.392 720h-471.072l-27.872-139.36 68.64-68.64h375.168l82.912 69.088-27.776 138.912zM127.456 113.12l32.416-0.096v257.792l-31.808-22.592-0.608-235.104zM799.84 48v409.632l-10.4 52.032-74.016-61.664h-424.832l-57.248 57.248-9.504-47.584v-409.664h576zM896.064 110.88l0.608 234.976-32.8 23.328v-258.208l32.192-0.096zM351.84 336h320v-64h-320v64z" />
<glyph unicode="&#xe902;" glyph-name="bike" d="M816 544c114.88 0 208-93.12 208-208s-93.12-208-208-208c-114.88 0-208 93.12-208 208 0 75.872 40.768 142.080 101.44 178.4l-38.048 108.224-6.336-0.928-97.408-317.536h-154.336c-15.36-99.712-101.28-176.16-205.312-176.16-114.88 0-208 93.12-208 208s93.12 208 208 208c103.904 0 189.76-76.288 205.248-175.84h51.264l-160.064 264.96 345.344 51.008-33.472 95.232 162.080 40.512 15.488-62.080-93.92-23.488 68.864-195.872c15.168 3.52 30.912 5.568 47.168 5.568zM208 192c79.392 0 144 64.608 144 144s-64.608 144-144 144c-79.392 0-144-64.608-144-144s64.608-144 144-144zM526.72 388.96l68.224 222.368-185.952-27.456 117.728-194.912zM816 192c79.392 0 144 64.608 144 144s-64.608 144-144 144c-79.392 0-144-64.608-144-144s64.608-144 144-144zM192 768h192v-64h-192v64zM208 288c-26.51 0-48 21.49-48 48s21.49 48 48 48c26.51 0 48-21.49 48-48s-21.49-48-48-48zM816 288c-26.51 0-48 21.49-48 48s21.49 48 48 48c26.51 0 48-21.49 48-48s-21.49-48-48-48z" />
<glyph unicode="&#xe903;" glyph-name="bus" d="M858.72 736h101.28v-224h-64v160h-32v-704h-152.992l-31.968 128h-334.048l-32-128h-152.992l0.416 704h-32.416v-160h-64v224h100.896l32 192h630.208l31.616-192zM224 320v-160h576v160h-576zM224 384h576v288h-576v-288zM772.896 864h-521.76l-21.344-128h564.416l-21.312 128zM263.008 32l16 64h-55.008v-64h39.008zM760.992 32h39.008v64h-55.040l16.032-64zM304 192c-26.51 0-48 21.49-48 48s21.49 48 48 48c26.51 0 48-21.49 48-48s-21.49-48-48-48zM720 192c-26.51 0-48 21.49-48 48s21.49 48 48 48c26.51 0 48-21.49 48-48s-21.49-48-48-48z" />
<glyph unicode="&#xe904;" glyph-name="cafe" d="M562.752 576.448l-43.872 86.24 41.856 128.672-31.168 61.312 57.024 29.024 43.232-84.928-41.888-128.672 31.872-62.624-57.056-29.024zM409.056 576.448l-43.872 86.24 41.856 128.672-31.168 61.312 57.024 29.024 43.2-84.928-41.856-128.672 31.84-62.624-57.024-29.024zM96 96h832v-64h-832v64zM160 512h768v-160l-64 1.728v96l-60.8-1.728c-16.128-162.848-153.824-290.432-320.8-290.432-177.76 0-322.4 144.64-322.4 322.432v32zM482.4 221.568c131.648 0 240.608 98.976 256.448 226.432h-512.864c15.808-127.456 124.768-226.432 256.416-226.432z" />
<glyph unicode="&#xe905;" glyph-name="calendar" d="M800 800h128v-800h-832v800h128v96h64v-96h448v96h64v-96zM864 736h-704v-128h704v128zM160 64h704v480h-704v-480zM672 256c-53.019 0-96 42.981-96 96s42.981 96 96 96c53.019 0 96-42.981 96-96s-42.981-96-96-96z" />
<glyph unicode="&#xe906;" glyph-name="chevron-down" d="M511.909 219.429l320 320-137.143 137.143-182.857-182.857-182.857 182.857-137.143-137.143 320-320zM329.051 768l182.857-182.857 182.857 182.857 228.571-228.571-411.429-411.429-411.429 411.429 228.571 228.571z" />
<glyph unicode="&#xe907;" glyph-name="chevron-left" d="M219.429 452.571l320-320 137.143 137.143-182.857 182.857 182.857 182.857-137.143 137.143-320-320zM768 635.429l-182.857-182.857 182.857-182.857-228.571-228.571-411.429 411.429 411.429 411.429 228.571-228.571z" />
<glyph unicode="&#xe908;" glyph-name="chevron-right" d="M804.571 452.571l-320 320-137.143-137.143 182.857-182.857-182.857-182.857 137.143-137.143 320 320zM256 635.429l228.571 228.571 411.429-411.429-411.429-411.429-228.571 228.571 182.857 182.857-182.857 182.857z" />
<glyph unicode="&#xe909;" glyph-name="chevron-up" d="M511.909 676.571l-320-320 137.143-137.143 182.857 182.857 182.857-182.857 137.143 137.143-320 320zM329.051 128l-228.571 228.571 411.429 411.429 411.429-411.429-228.571-228.571-182.857 182.857-182.857-182.857z" />
<glyph unicode="&#xe90a;" glyph-name="coin-stacks" d="M240 560c134.592 0 240-63.264 240-144 0-5.408 0-336 0-336 0-80.736-105.408-144-240-144s-240 63.264-240 144c0 0 0 330.592 0 336 0 80.736 105.408 144 240 144zM416 80v13.376c-43.52-28-105.696-45.376-176-45.376s-132.48 17.376-176 45.376v-13.376c0-37.76 75.264-80 176-80s176 42.24 176 80zM416 192v13.376c-43.52-28-105.696-45.376-176-45.376s-132.48 17.376-176 45.376v-13.376c0-37.76 75.264-80 176-80s176 42.24 176 80zM416 304v13.376c-43.52-28-105.696-45.376-176-45.376s-132.48 17.376-176 45.376v-13.376c0-37.76 75.264-80 176-80s176 42.24 176 80zM240 336c100.736 0 176 42.24 176 80s-75.264 80-176 80c-100.736 0-176-42.24-176-80s75.264-80 176-80zM784 960c134.592 0 240-63.264 240-144 0-5.408 0-560 0-560 0-80.736-105.408-144-240-144s-240 63.264-240 144c0 0 0 554.592 0 560 0 80.736 105.408 144 240 144zM960 256v13.376c-43.52-28-105.664-45.376-176-45.376s-132.48 17.376-176 45.376v-13.376c0-37.76 75.296-80 176-80s176 42.24 176 80zM960 368v13.376c-43.52-28-105.664-45.376-176-45.376s-132.48 17.376-176 45.376v-13.376c0-37.76 75.296-80 176-80s176 42.24 176 80zM960 480v13.376c-43.52-28-105.664-45.376-176-45.376s-132.48 17.376-176 45.376v-13.376c0-37.76 75.296-80 176-80s176 42.24 176 80zM960 592v13.376c-43.52-28-105.664-45.376-176-45.376s-132.48 17.376-176 45.376v-13.376c0-37.76 75.296-80 176-80s176 42.24 176 80zM960 704v13.376c-43.52-28-105.664-45.376-176-45.376s-132.48 17.376-176 45.376v-13.376c0-37.76 75.296-80 176-80s176 42.24 176 80zM784 736c100.704 0 176 42.24 176 80s-75.296 80-176 80c-100.704 0-176-42.24-176-80s75.296-80 176-80z" />
<glyph unicode="&#xe90b;" glyph-name="crane" d="M992 544v192h-480v224h-256v-224h-224v-192h224v-608h256v608h224v-160h-96v-192h256v192h-96v160h192zM832 320v-64h-128v64h128zM320 896h128v-160h-128v160zM320 448h128v-160h-128v160zM320 512v160h128v-160h-128zM96 608v64h160v-64h-160zM320 0v224h128v-224h-128zM512 672h416v-64h-416v64z" />
<glyph unicode="&#xe90c;" glyph-name="dog" d="M810.592 666.784l213.408-30.496v-46.432c0-60.224-40.8-112.512-99.232-127.136l-74.944-11.776-30.432-40.544 35.232-35.232-45.248-45.248-28.768 28.768-12.608-16.8v-341.344h-64v134.976l-403.968 87.84-108.032-144.672v-78.688h-64v439.968l-112.768 113.664 34.048 31.776 125.984-105.408 424.992 0.512 29.088 29.44-43.968 43.968 45.248 45.248 37.632-37.632 70.272 93.088 54.176 104.736 42.016-18.4-24.128-74.176zM704 363.2l30.912 41.216-59.872 59.872-44.32-47.744-438.72-0.544v-239.872l85.504 118.784 426.496-93.376v161.664zM912.032 525.408c24.416 6.208 43.776 28.544 47.36 55.456l-177.216 25.312-68.224-90.368 59.712-59.712 40.544 54.048 97.824 15.264zM264.985 874.278l45.254 45.254 272.002-272.002-45.254-45.254-272.002 272.002z" />
<glyph unicode="&#xe90d;" glyph-name="drone" d="M512 352c-17.673 0-32 14.327-32 32s14.327 32 32 32c17.673 0 32-14.327 32-32s-14.327-32-32-32zM1024 672l-128-25.6v-70.4h64v-160l-157.344-36.704 60.128-210.496-61.568-17.568-60.8 212.8-36.416-8.928-32-131.104h-320l-32 130.56-36.576 8.96-60.672-212.288-61.536 17.568 60 209.952-157.216 37.248v160h64v70.4l-128 25.6v32h320v-32l-128-25.6v-70.4h640v70.4l-128 25.6v32h320v-32zM897.44 512h-770.432l-0.672-44.16 246.56-60.352 29.312-119.488h219.52l20.096 82.272 9.216 37.76 245.728 60.192 0.672 43.776z" />
<glyph unicode="&#xe90e;" glyph-name="exclamation-mark-circle-1" d="M512 928c265.088 0 480-214.912 480-480s-214.912-480-480-480c-265.088 0-480 214.912-480 480s214.912 480 480 480zM512 32c229.75 0 416 186.25 416 416s-186.25 416-416 416c-229.75 0-416-186.25-416-416s186.25-416 416-416zM474.839 352l-10.839 384h96l-11.613-384h-73.548zM512 160c-36.571 0-64 28.19-64 64s27.429 64 64 64c36.571 0 64-28.19 64-64s-27.429-64-64-64z" />
<glyph unicode="&#xe90f;" glyph-name="exclamation-mark-circle-2" d="M512 928c265.088 0 480-214.912 480-480s-214.912-480-480-480c-265.088 0-480 214.912-480 480s214.912 480 480 480zM512 32c229.75 0 416 186.25 416 416s-186.25 416-416 416c-229.75 0-416-186.25-416-416s186.25-416 416-416zM475.613 352l-11.613 384h96l-11.613-384h-72.774zM456 280h112.128v-112h-112.128v112z" />
<glyph unicode="&#xe910;" glyph-name="filter" d="M96 864v-256l288-288v-288h256v280.032l288 295.968v256h-832zM864 800v-128h-704v128h704zM576 338.016v-242.016h-128v250.496l-261.504 261.504h652.192l-262.688-269.984z" />
<glyph unicode="&#xe911;" glyph-name="fire-emblem" d="M96 925.28v-338.4c0-244.992 149.824-472.256 400.768-607.904l15.232-8.256 15.232 8.224c250.944 135.68 400.768 362.912 400.768 607.904v338.432h-832zM512 43.68c-68.32 38.688-128 84.8-177.952 136.384-0.16 0.224-0.16 0.512-0.352 0.704-62.592 75.296-61.92 127.36-49.888 191.328 14.656 77.92 73.184 117.92 129.152 158.24 44.064 31.776 85.728 61.76 101.088 107.040 5.792 17.088 8.768 33.984 9.76 50.272 13.184-25.984 21.536-55.2 18.976-85.76-5.152-61.376-33.92-99.424-59.264-132.992-15.424-20.416-30.016-39.68-37.984-62.080-16.128-45.888-9.12-90.784 19.232-123.232 29.472-33.696 78.528-49.184 124.896-39.52 50.016 10.4 88.512 47.104 105.568 100.64 7.872 24.672 10.368 47.872 9.792 68.672 19.392-26.208 30.016-54.944 31.552-85.824 0.352-6.016 0.096-11.776 0.064-17.28-0.608-85.184-35.040-117.504-35.040-117.504-52.224-56.704-115.776-107.264-189.6-149.088zM864 586.848c0-88.64-22.4-174.752-63.648-254.304-3.52 59.456-31.296 114.432-80.544 159.136l-9.12 8.32h-93.984l15.584-42.912c11.168-30.752 11.808-62.048 1.952-92.992-9.984-31.36-30.432-51.744-57.6-57.408-24-4.928-49.408 2.72-63.68 19.040-13.12 14.976-15.52 35.648-7.072 59.712 4.64 13.024 15.776 27.776 28.672 44.864 27.52 36.448 65.248 86.368 71.968 166.208 7.072 83.872-40.96 155.2-82.496 200.288l-9.472 10.304h-82.592l16-43.136c9.888-26.624 18.816-66.624 5.472-106.048-8.768-25.856-40.8-48.928-77.92-75.648-59.776-43.072-132.288-93.28-154.464-197.568-2.72-12.768-3.2-26.816-2.976-41.344-37.696 76.512-58.080 158.88-58.080 243.488v274.432h704v-274.432z" />
<glyph unicode="&#xe912;" glyph-name="handicap" d="M560 736c-44.183 0-80 35.817-80 80s35.817 80 80 80c44.183 0 80-35.817 80-80s-35.817-80-80-80zM636.416 384.192l163.584-38.88v-281.312h-64v230.688l-47.68 11.264c10.016-25.408 15.68-52.992 15.68-81.952 0-123.712-100.288-224-224-224s-224 100.288-224 224c0 84.576 46.88 158.112 116.064 196.256l-22.592 52.672 76.544 199.072h181.984v-264.32c10.112-7.072 19.616-14.912 28.416-23.488zM418.528 474.24l13.504-31.52c15.488 3.392 31.488 5.28 47.968 5.28 22.24 0 43.712-3.36 64-9.408v169.408h-74.016l-51.456-133.76zM480 64c88.224 0 160 71.776 160 160s-71.776 160-160 160c-7.488 0-14.624-1.216-21.856-2.208l51.264-119.616-58.816-25.184-52.928 123.488c-46.336-28.064-77.664-78.464-77.664-136.48 0-88.224 71.776-160 160-160z" />
<glyph unicode="&#xe913;" glyph-name="house-heart" d="M508.8 506.112l3.168-3.232 3.2 3.2c50.432 50.432 132.512 50.432 182.944 0 50.4-50.4 50.4-132.48 0-182.912l-186.112-186.112-186.112 186.144c-50.432 50.432-50.432 132.48 0 182.912 50.4 50.464 132.448 50.432 182.912 0zM560.448 460.864l-48.448-48.448-48.448 48.416c-12.736 12.736-29.472 19.104-46.208 19.104s-33.472-6.368-46.208-19.104c-25.472-25.472-25.472-66.912 0-92.416l140.864-140.864 140.896 140.896c25.472 25.472 25.472 66.944 0 92.416-25.504 25.472-66.944 25.472-92.448 0zM512 928l384-320v-672h-768v960h184.992l27.68-110.752 171.328 142.752zM192 832v-170.656l94.080 78.4-23.072 92.256h-71.008zM832 0v578.016l-320 266.656-320-266.656v-578.016h640z" />
<glyph unicode="&#xe914;" glyph-name="location-pin" d="M811.936 835.776c165.632-165.664 165.632-434.208 0-599.84l-299.936-299.936-299.936 299.936c-165.632 165.632-165.632 434.208 0 599.84 82.848 82.816 191.392 124.224 299.936 124.224s217.088-41.408 299.936-124.224zM766.656 281.184c140.448 140.416 140.448 368.896 0 509.344-68 68-158.464 105.472-254.656 105.472s-186.656-37.472-254.656-105.504c-140.416-140.416-140.416-368.928 0-509.344l254.656-254.656 254.656 254.688zM512 444.8c-53.019 0-96 42.981-96 96s42.981 96 96 96c53.019 0 96-42.981 96-96s-42.981-96-96-96z" />
<glyph unicode="&#xe915;" glyph-name="magnifying-glass-big" d="M982.624 54.624l-236.96 236.96c53.92 66.112 86.336 150.464 86.336 242.464 0 212.064-171.936 384-384 384s-384-171.936-384-384c0-212.064 171.936-384 384-384 97.056 0 185.44 36.288 253.056 95.68l236.32-236.32 45.248 45.216zM448 214.048c-176.448 0-320 143.552-320 320s143.552 320 320 320c176.448 0 320-143.552 320-320 0-176.48-143.552-320-320-320z" />
<glyph unicode="&#xe916;" glyph-name="magnifying-glass-small" d="M696.744 310.672l199.256-199.249-47.415-47.423-199.26 199.253c-54.986-44.558-125.038-71.253-201.325-71.253-176.731 0-320 143.269-320 320s143.269 320 320 320c176.731 0 320-143.269 320-320 0-76.289-26.696-146.342-71.256-201.328zM448 768.79c-141.755-0.16-256.63-115.035-256.79-256.79 0-141.821 114.969-256.79 256.79-256.79s256.79 114.969 256.79 256.79c0 141.821-114.969 256.79-256.79 256.79z" />
<glyph unicode="&#xe917;" glyph-name="menu" d="M64 768h896v-64h-896v64zM64 480h896v-64h-896v64zM64 192h896v-64h-896v64z" />
<glyph unicode="&#xe918;" glyph-name="minus-sign" d="M256 480h512v-64h-512z" />
<glyph unicode="&#xe919;" glyph-name="museum" d="M992 512h-96v-352h96v-192h-960v192h96v352h-96v176l480 240 480-240v-176zM928 96h-832v-64h832v64zM192 160h64v352h-64v-352zM320 160h96v352h-96v-352zM480 160h64v352h-64v-352zM608 160h96v352h-96v-352zM768 160h64v352h-64v-352zM96 576h832v72.448l-416 208-416-208v-72.448zM512.832 668.224l36.544 107.616h58.624v-167.84h-39.808l0.928 118.752h-0.704l-43.616-118.752h-28.448l-42.432 118.752h-0.704l0.96-118.752h-38.176v167.84h57.664l38.208-107.616h0.96z" />
<glyph unicode="&#xe91a;" glyph-name="park" d="M0 128h704v-64h-704v64zM0 352h704v-64h-96v-32h96v-64h-96v-32h-64v32h-384v-32h-64v32h-96v64h96v32h-96v64zM544 256v32h-384v-32h384zM96 32h64v-96h-64v96zM544 32h64v-96h-64v96zM1024 736c0-112.832-83.488-205.888-192-221.44v-101.312l57.376 57.376 45.248-45.248-102.624-102.624v-386.752h-64v578.56c-108.512 15.552-192 108.608-192 221.44 0 123.712 100.288 224 224 224s224-100.288 224-224zM640 736c0-88.224 71.776-160 160-160s160 71.776 160 160c0 88.224-71.776 160-160 160s-160-71.776-160-160zM230.368 716.736c-24.448 32.512-61.76 51.136-102.368 51.168v64c48.096-0.032 93.152-17.472 128-48.8 34.848 31.36 79.872 48.8 127.968 48.8l0.032-64c-40.608-0.032-77.92-18.656-102.368-51.136l-9.6-12.768h-31.936l-9.728 12.736z" />
<glyph unicode="&#xe91b;" glyph-name="plus-sign" d="M480 480v224h64v-224h224v-64h-224v-224h-64v224h-224v64h224z" />
<glyph unicode="&#xe91c;" glyph-name="recycling" d="M422.72 530.592l-231.552 127.328 131.424 236.928h370.912l123.552-194.88-68.384-164.128-156.544 34.528-76.288 124.192-93.12-163.968zM632.096 626.528l78.464-17.312 35.328 84.736-87.2 137.536h-152.544l125.952-204.96zM277.504 682.816l120.992-66.528 79.456 139.936-46.24 75.232h-71.744l-82.464-148.64zM838.848 1.152h-223.68l-128.896 128.512 121.888 138.656 146.080 4.032-95.456 162.624 226.016 136.864 139.2-231.904-185.152-338.784zM641.376 64.544h159.904l80.768 147.872-244.544-6.72-64.32-73.184 68.192-67.968zM745.088 413.12l81.472-138.784 90.688 2.496 33.696 61.632-87.776 146.144-118.080-71.488zM456.544 1.152h-271.136l-185.408 322.912 118.336 215.136 176.384 27.84 36.288-170.56-68.544-126.624 188.576 1.344 5.504-270.048zM222.144 64.544h169.696l-2.912 142.816-160.896-1.152-42.336-78.208 36.448-63.456zM72.736 324.736l75.872-132.096 115.552 213.536-18.944 88.864-86.272-13.632-86.208-156.672z" />
<glyph unicode="&#xe91d;" glyph-name="resturant" d="M400 672v248h48v-272c0-41.728-26.784-76.896-64-90.112v-589.888h-64v589.888c-37.216 13.216-64 48.384-64 90.112v272h48v-248h24v248h48v-248h24zM576 736c0 106.048 85.952 192 192 192v-960h-64v416h-128v352zM704 448v398.816c-38.24-22.144-64-63.52-64-110.816v-288h64z" />
<glyph unicode="&#xe91e;" glyph-name="swingset" d="M864 896v-64h64v-64h-832v64h64v64h-128v-896h64v704h96v-576h256v576h208v-323.84c-64.064-14.592-112-71.68-112-140.16 0-79.52 64.48-144 144-144s144 64.48 144 144c0 68.48-47.936 125.568-112 140.16v323.84h208v-704h64v896h-128zM768 240c0-44.096-35.904-80-80-80s-80 35.904-80 80c0 44.128 35.904 80 80 80s80-35.872 80-80zM256 192v64h128v-64h-128zM384 320h-128v384h128v-384z" />
<glyph unicode="&#xe91f;" glyph-name="toilet" d="M223.936 792c-44.183 0-80 35.817-80 80s35.817 80 80 80c44.183 0 80-35.817 80-80s-35.817-80-80-80zM98.496 736h250.88l34.464-413.344-63.776-5.312-0.064 0.672v-382.016h-64v416h-64v-416h-64v383.328l-0.16-1.984-63.776 5.312 34.432 413.344zM136.064 416h175.808l-21.344 256h-133.12l-21.344-256zM799.904 784c-44.183 0-80 35.817-80 80s35.817 80 80 80c44.183 0 80-35.817 80-80s-35.817-80-80-80zM991.36 357.728l-62.912-11.424-0.416 2.304v-124.608h-32v-288h-64v288h-64v-288h-64v288h-32v125.824l-0.64-3.52-62.944 11.424 68.736 378.272h245.44l68.736-378.272zM736 672v-384h128v384h-128zM941.76 758.208c-30.72 0-55.648 24.928-55.68 55.68v18.112h18.112c30.752 0 55.68-24.928 55.68-55.68v-18.112h-18.112zM480 960h64v-1024h-64v1024z" />
<glyph unicode="&#xe920;" glyph-name="tram" d="M790.784 800h105.216v-224h-64v160h-37.856l21.984-417.824-37.024-222.176h-534.208l-37.024 222.176 21.984 417.824h-37.856v-160h-64v224h105.216l8.416 160h540.736l8.416-160zM750.272 352l-20.192 384h-436.128l-20.224-384h476.544zM721.632 896h-419.264l-5.056-96h429.376l-5.056 96zM299.104 160h425.792l5.952 35.616-106.848 18.24v42.144h116.896l5.344 32h-468.48l5.344-32h116.896v-42.144l-106.816-18.24 5.92-35.616zM250.336-64l38.4 128h68.928l-38.4-128h-68.928zM656 64h68.928l38.4-128h-68.928l-38.4 128z" />
<glyph unicode="&#xe921;" glyph-name="user" d="M512 448c-65.391 0-118.4 53.009-118.4 118.4s53.009 118.4 118.4 118.4c65.391 0 118.4-53.009 118.4-118.4s-53.009-118.4-118.4-118.4zM512 928c265.088 0 480-214.912 480-480s-214.912-480-480-480c-265.088 0-480 214.912-480 480s214.912 480 480 480zM290.4 96.544c64.256-40.64 140.096-64.544 221.6-64.544s157.344 23.904 221.6 64.544l-83.776 223.456h-275.648l-83.776-223.456zM786.944 136.64c86.272 76.288 141.056 187.424 141.056 311.36 0 229.376-186.624 416-416 416s-416-186.624-416-416c0-123.936 54.784-235.072 141.056-311.36l92.768 247.36h364.352l92.768-247.36z" />
<glyph unicode="&#xe922;" glyph-name="water-faucet" d="M688 416v160c0 105.888-86.112 192-192 192s-192-86.112-192-192v-640h-192v640c0 211.744 172.256 384 384 384s384-172.256 384-384v-160h-192zM752 480h64v64h-64v-64zM496 832c130.304 0 237.952-97.92 253.76-224h64.608c-16.096 161.472-152.736 288-318.368 288-176.448 0-320-143.552-320-320v-576h64v576c0 141.152 114.848 256 256 256zM874.496 282.496c24.192-24.16 37.504-56.32 37.504-90.496s-13.312-66.336-37.504-90.496c-24.16-24.192-56.32-37.504-90.496-37.504s-66.336 13.312-90.496 37.504c-24.192 24.16-37.504 56.32-37.504 90.496s13.312 66.336 37.504 90.496l90.496 90.496 90.496-90.496zM829.248 146.752c12.096 12.096 18.752 28.16 18.752 45.248s-6.656 33.152-18.752 45.248l-45.248 45.248-45.248-45.248c-12.096-12.096-18.752-28.16-18.752-45.248s6.656-33.152 18.752-45.248c24.192-24.192 66.304-24.192 90.496 0z" />
<glyph unicode="&#xe923;" glyph-name="x" d="M465.056 448l-305.056 305.056 46.944 46.944 305.056-305.056 305.056 305.056 46.944-46.944-305.056-305.056 305.056-305.056-46.944-46.944-305.056 305.056-305.056-305.056-46.944 46.944z" />
<glyph unicode="&#xe924;" glyph-name="facebook" d="M512 864c-229.751 0-416-187.388-416-418.542 0-208.907 152.125-382.059 351-413.458v292.473h-105.625v120.985h105.625v92.21c0 104.897 62.106 162.839 157.129 162.839 45.514 0 93.121-8.175 93.121-8.175v-103.001h-52.457c-51.677 0-67.793-32.263-67.793-65.362v-78.512h115.375l-18.444-120.985h-96.931v-292.473c198.875 31.399 351 204.551 351 413.458 0 231.155-186.249 418.542-416 418.542z" />
<glyph unicode="&#xe925;" glyph-name="instagram" d="M511.045 789.217c-110.822 0-123.948-0.423-167.714-2.419-26.318-0.312-52.387-5.146-77.068-14.291-18.028-6.653-34.335-17.263-47.723-31.048-13.785-13.388-24.394-29.695-31.047-47.722-9.145-24.681-13.979-50.75-14.291-77.068-1.997-43.765-2.419-56.892-2.419-167.714s0.423-123.949 2.419-167.714c0.312-26.318 5.147-52.387 14.291-77.068 6.654-18.028 17.263-34.335 31.048-47.723 13.388-13.785 29.695-24.394 47.722-31.047 24.681-9.145 50.75-13.979 77.068-14.291 43.759-1.997 56.884-2.419 167.714-2.419s123.955 0.423 167.714 2.419c26.319 0.312 52.388 5.146 77.068 14.291 36.197 13.963 64.807 42.573 78.77 78.77 9.145 24.681 13.979 50.75 14.291 77.068 1.997 43.765 2.419 56.892 2.419 167.714s-0.423 123.948-2.419 167.714c-0.312 26.318-5.146 52.387-14.291 77.068-6.653 18.028-17.263 34.335-31.048 47.723-13.388 13.785-29.695 24.393-47.722 31.047-24.681 9.145-50.75 13.979-77.068 14.291-43.765 1.997-56.892 2.419-167.714 2.419zM511.045 864c112.72 0 126.854-0.478 171.122-2.497 34.432-0.69 68.498-7.213 100.749-19.292 27.694-10.421 52.782-26.758 73.513-47.872 21.113-20.731 37.45-45.819 47.872-73.513 12.079-32.251 18.603-66.317 19.293-100.748 2.019-44.269 2.497-58.403 2.497-171.122s-0.477-126.853-2.497-171.122c-0.69-34.432-7.213-68.498-19.293-100.749-21.562-55.75-65.634-99.823-121.385-121.385-32.251-12.079-66.317-18.603-100.749-19.293-44.269-2.020-58.403-2.497-171.122-2.497s-126.853 0.477-171.122 2.497c-34.432 0.69-68.498 7.213-100.748 19.293-27.694 10.421-52.782 26.758-73.513 47.872-21.113 20.732-37.45 45.819-47.872 73.513-12.079 32.251-18.603 66.317-19.293 100.749-2.019 44.269-2.497 58.402-2.497 171.122s0.478 126.854 2.497 171.122c0.69 34.432 7.213 68.498 19.293 100.748 10.421 27.694 26.758 52.782 47.872 73.513 20.732 21.113 45.819 37.45 73.513 47.872 32.251 12.079 66.317 18.603 100.748 19.293 44.269 2.019 58.403 2.497 171.122 2.497zM511.045 662.086c117.709 0 213.131-95.422 213.131-213.131 0-86.204-51.928-163.919-131.57-196.908s-171.313-14.754-232.268 46.201c-60.955 60.955-79.19 152.627-46.201 232.268s110.704 131.569 196.908 131.569zM511.045 310.606c36.692 0 71.882 14.576 97.827 40.521s40.521 61.135 40.521 97.827c0 76.408-61.941 138.348-138.348 138.349s-138.348-61.941-138.349-138.348c0-76.408 61.941-138.348 138.348-138.349zM732.598 620.702c-27.507 0-49.805 22.299-49.805 49.805s22.299 49.805 49.805 49.805c27.507 0 49.805-22.299 49.805-49.805s-22.299-49.805-49.805-49.805z" />
<glyph unicode="&#xe926;" glyph-name="linked-in" d="M866.524 863.996h-709.049c-16.121 0.185-31.655-6.042-43.184-17.311s-18.109-26.657-18.292-42.778v-711.822c0.183-16.121 6.763-31.509 18.292-42.778s27.063-17.496 43.184-17.311h709.049c16.121-0.185 31.655 6.042 43.184 17.311s18.109 26.657 18.292 42.778v711.822c-0.183 16.121-6.763 31.509-18.292 42.778s-27.063 17.496-43.184 17.311zM342.827 154.947h-123.644v397.049h123.644v-397.049zM280.889 606.307c-28.998-0.094-55.193 17.303-66.355 44.067s-5.090 57.618 15.382 78.156c20.472 20.538 51.305 26.71 78.106 15.635s44.281-37.214 44.281-66.213c0-39.478-31.935-71.517-71.413-71.644v0zM805.049 154.947h-123.413v193.209c0 46.222 0 105.156-64.249 105.156s-73.956-50.151-73.956-101.92v-196.444h-123.876v397.049h118.329v-54.080h1.618c24.107 41.244 68.974 65.854 116.711 64.018 125.031 0 148.142-82.276 148.142-189.049l0.693-217.938z" />
<glyph unicode="&#xe927;" glyph-name="twitter" d="M928 716.659c-30.571-14.136-63.485-23.695-98.012-27.967 35.259 21.967 62.313 56.798 75.059 98.291-33.012-20.339-69.492-35.136-108.462-43.069-31.059 34.526-75.45 56.086-124.578 56.086-94.203 0-170.629-79.578-170.629-177.716 0-13.933 1.465-27.458 4.395-40.476-141.865 7.424-267.615 78.104-351.855 185.75-14.699-26.34-23.099-56.9-23.099-89.443 0-61.629 30.131-116.037 75.938-147.919-27.934 0.864-54.304 8.949-77.354 22.17v-2.186c0-86.138 58.846-157.987 136.982-174.258-14.309-4.17-29.399-6.254-44.977-6.254-10.988 0-21.732 1.068-32.133 3.153 21.732-70.578 84.729-121.986 159.446-123.359-58.407-47.696-132.050-76.12-211.992-76.12-13.771 0-27.396 0.814-40.728 2.441 75.548-50.34 165.306-79.782 261.657-79.782 314.008 0 485.663 270.769 485.663 505.639 0 7.729-0.146 15.458-0.44 23.034 33.354 25.068 62.313 56.34 85.119 91.985z" />
<glyph unicode="&#xe928;" glyph-name="heart-plus" d="M862.112 429.92c94.784-37.536 161.888-129.792 161.888-237.92 0-141.376-114.624-256-256-256-108.128 0-200.384 67.104-237.952 161.888l-34.080-34.080-413.088 413.088c-53.44 53.44-82.88 124.48-82.88 200.096s29.44 146.656 82.88 200.128c53.472 53.44 124.512 82.88 200.128 82.88 75.584 0 146.656-29.44 200.096-82.88l12.896-12.896 12.896 12.896c53.44 53.44 124.512 82.88 200.096 82.88 75.616 0 146.688-29.44 200.128-82.88s82.88-124.512 82.88-200.096c0-75.584-29.44-146.656-82.88-200.096l-47.008-47.008zM496 154.176l17.056 17.056c-0.544 6.848-1.056 13.76-1.056 20.768 0 141.376 114.624 256 256 256 7.008 0 13.92-0.512 20.768-1.056l75.136 75.136c85.568 85.568 85.568 224.256 0 309.824-42.784 42.784-98.848 64.16-154.912 64.16s-112.128-21.376-154.912-64.16l-58.080-58.080-58.080 58.080c-42.784 42.784-98.848 64.16-154.912 64.16s-112.128-21.376-154.912-64.16c-85.568-85.568-85.568-224.256 0-309.824l367.904-367.904zM768 0c105.856 0 192 86.144 192 192s-86.144 192-192 192c-105.856 0-192-86.144-192-192s86.144-192 192-192zM800 320v-96h96v-64h-96v-96h-64v96h-96v64h96v96h64z" />
</font>
</defs>
</svg>
