<?xml version="1.0" encoding="UTF-8" standalone="no"?>
<svg width="974px" height="974px" viewBox="0 0 974 974" version="1.1" xmlns="http://www.w3.org/2000/svg" xmlns:xlink="http://www.w3.org/1999/xlink" xmlns:sketch="http://www.bohemiancoding.com/sketch/ns">
    <!-- Generator: Sketch 3.5.2 (25235) - http://www.bohemiancoding.com/sketch -->
    <title>Untitled 2</title>
    <desc>Created with Sketch.</desc>
    <defs></defs>
    <g id="Page-1" stroke="none" stroke-width="1" fill="none" fill-rule="evenodd" sketch:type="MSPage">
        <path d="M960,832 L710.875,582.875 C746.438,524.812 768,457.156 768,384 C768,171.969 596,0 384,0 C171.969,0 0,171.969 0,384 C0,596 171.969,768 384,768 C457.156,768 524.812,746.438 582.875,711 L832,960 C849.5,977.5 878.5,977.375 896,960 L960,896 C977.5,878.5 977.5,849.5 960,832 Z M384,640 C242.625,640 128,525.375 128,384 C128,242.625 242.625,128 384,128 C525.375,128 640,242.625 640,384 C640,525.375 525.375,640 384,640 Z" id="Shape" fill="#FFFFFF" sketch:type="MSShapeGroup"></path>
    </g>
</svg>