<?xml version="1.0" encoding="UTF-8" standalone="no"?>
<svg width="853px" height="346px" viewBox="0 0 853 346" version="1.1" xmlns="http://www.w3.org/2000/svg" xmlns:xlink="http://www.w3.org/1999/xlink" xmlns:sketch="http://www.bohemiancoding.com/sketch/ns">
    <!-- Generator: Sketch 3.5.2 (25235) - http://www.bohemiancoding.com/sketch -->
    <title>Untitled</title>
    <desc>Created with Sketch.</desc>
    <defs></defs>
    <g id="Page-1" stroke="none" stroke-width="1" fill="none" fill-rule="evenodd" sketch:type="MSPage">
        <g id="ogl-symbol-black-rgb.eps" sketch:type="MSLayerGroup" fill="#0F100E">
            <path d="M743.303,252.705 L743.303,1.115 L653.899,58.106 L653.899,342.108 L852.156,342.108 L852.156,252.705 L743.303,252.705" id="Fill-1" sketch:type="MSShapeGroup"></path>
            <path d="M172.543,256.597 C126.7,256.597 89.403,219.302 89.403,173.457 C89.403,127.612 126.7,90.315 172.543,90.315 C218.385,90.315 255.682,127.612 255.682,173.457 C255.682,219.302 218.385,256.597 172.543,256.597 L172.543,256.597 Z M527.672,235.877 C513.025,248.754 493.85,256.597 472.859,256.597 C427.018,256.597 389.72,219.302 389.72,173.457 C389.72,127.612 427.018,90.315 472.859,90.315 C502.271,90.315 528.149,105.685 542.932,128.798 L618.293,80.79 C587.614,32.814 533.908,0.911 472.859,0.911 C408.543,0.911 352.372,36.311 322.701,88.624 C293.03,36.311 236.859,0.911 172.543,0.911 C77.401,0.911 0,78.315 0,173.457 C0,268.599 77.401,346 172.543,346 C236.859,346 293.03,310.602 322.701,258.29 C352.372,310.602 408.543,346 472.859,346 C516.399,346 556.209,329.773 586.598,303.069 L620.854,342.135 L626.182,342.135 L626.182,187.316 L485.085,187.316 L527.672,235.877 L527.672,235.877 Z" id="Fill-2" sketch:type="MSShapeGroup"></path>
        </g>
    </g>
</svg>