<?xml version="1.0" encoding="UTF-8" standalone="no"?>
<svg
   xmlns:svg="http://www.w3.org/2000/svg"
   xmlns="http://www.w3.org/2000/svg"
   id="svg3079"
   height="82.14"
   width="310.71"
   version="1.1">
  <defs
     id="defs3081" />
  <path
     style="fill:#cc0000;fill-opacity:1"
     id="path3059"
     d="M 224.357,63.727 H 212.832 V 19.348 h 11.525 v 44.379 z m -27.282,-44.379 -7.417,29.743 -8.682,-29.743 h -11.141 l -8.674,29.743 -7.437,-29.743 h -11.262 l 12.253,44.379 h 11.896 l 8.786,-30.438 8.787,30.438 h 11.892 L 208.367,19.348 H 197.075 z M 141.5,51.18 c 0,-8.507 -4.512,-11.358 -14.385,-14.578 -4.652,-1.518 -8.996,-2.683 -8.996,-6.299 0,-3.175 3.227,-4.228 5.638,-4.228 2.046,0 5.888,0.434 6.199,5.141 h 10.896 c -0.19,-8.986 -7.498,-12.899 -16.902,-12.899 -5.831,0 -10.647,1.651 -13.682,4.638 -2.118,2.088 -3.408,5.147 -3.408,8.33 0,8.261 5.521,11.573 11.756,13.47 7.007,2.14 11.642,3.415 11.642,7.273 0,2.577 -2.04,5.144 -6.073,5.144 -5.124,0 -6.985,-3.059 -7.108,-6.063 h -11.025 c 0,10.227 8.62,13.965 18.133,13.965 12.149,0 17.315,-6.915 17.315,-13.894 m 123.62,0 c 0,-9.789 -7.123,-12.373 -15.729,-14.943 -4.149,-1.224 -7.875,-2.317 -7.875,-5.934 0,-3.175 3.227,-4.228 5.64,-4.228 2.051,0 5.879,0.434 6.187,5.141 h 10.906 c -0.188,-8.986 -7.488,-12.899 -16.912,-12.899 -5.82,0 -10.656,1.651 -13.675,4.638 -2.105,2.088 -3.404,5.147 -3.404,8.33 0,8.261 5.507,11.573 11.765,13.47 7,2.14 11.642,3.415 11.642,7.273 0,2.577 -2.037,5.144 -6.067,5.144 -5.144,0 -7.006,-3.059 -7.119,-6.063 H 229.45 c 0,10.227 8.613,13.965 18.146,13.965 12.13,0 17.524,-6.915 17.524,-13.894 m 39.648,0 c 0,-9.789 -7.153,-12.373 -15.753,-14.943 -4.16,-1.224 -7.861,-2.317 -7.861,-5.934 0,-3.175 3.209,-4.228 5.622,-4.228 2.037,0 5.882,0.434 6.196,5.141 H 303.9 c -0.191,-8.986 -7.526,-12.899 -16.922,-12.899 -5.824,0 -10.658,1.651 -13.699,4.638 -2.103,2.088 -3.395,5.147 -3.395,8.33 0,8.261 5.51,11.573 11.751,13.47 7.007,2.14 11.646,3.415 11.646,7.273 0,2.577 -2.037,5.144 -6.067,5.144 -5.134,0 -6.993,-3.059 -7.116,-6.063 h -11.033 c 0,10.227 8.609,13.965 18.149,13.965 12.161,0 17.554,-6.915 17.554,-13.894" />
  <polygon
     style="fill:#cc0000;fill-opacity:1"
     id="polygon3061"
     transform="translate(0,-0.004001)"
     points="61.135,6.941 98.492,6.941 81.404,76.292 5.511,76.292 " />
  <polygon
     style="fill:#ffffff;"
     id="polygon3063"
     transform="translate(0,-0.004001)"
     points="69.792,48.012 84.723,48.012 84.723,35.218 69.792,35.218 69.792,20.285 56.991,20.285 56.991,35.218 42.06,35.218 42.06,48.012 56.984,48.012 56.984,62.948 69.781,62.948 69.781,48.012 " />
</svg>
