<?xml version="1.0" encoding="UTF-8" standalone="no"?>
<svg width="300px" height="71px" viewBox="0 0 300 71" version="1.1" xmlns="http://www.w3.org/2000/svg" xmlns:xlink="http://www.w3.org/1999/xlink" xmlns:sketch="http://www.bohemiancoding.com/sketch/ns">
    <!-- Generator: Sketch 3.4.1 (15681) - http://www.bohemiancoding.com/sketch -->
    <title>Untitled</title>
    <desc>Created with Sketch.</desc>
    <defs></defs>
    <g id="Page-1" stroke="none" stroke-width="1" fill="none" fill-rule="evenodd" sketch:type="MSPage">
        <g id="logo" sketch:type="MSLayerGroup">
            <path d="M219.357,57.727 L207.832,57.727 L207.832,13.348 L219.357,13.348 L219.357,57.727 L219.357,57.727 Z M192.075,13.348 L184.658,43.091 L175.976,13.348 L164.835,13.348 L156.161,43.091 L148.724,13.348 L137.462,13.348 L149.715,57.727 L161.611,57.727 L170.397,27.289 L179.184,57.727 L191.076,57.727 L203.367,13.348 L192.075,13.348 L192.075,13.348 Z M136.5,45.18 C136.5,36.673 131.988,33.822 122.115,30.602 C117.463,29.084 113.119,27.919 113.119,24.303 C113.119,21.128 116.346,20.075 118.757,20.075 C120.803,20.075 124.645,20.509 124.956,25.216 L135.852,25.216 C135.662,16.23 128.354,12.317 118.95,12.317 C113.119,12.317 108.303,13.968 105.268,16.955 C103.15,19.043 101.86,22.102 101.86,25.285 C101.86,33.546 107.381,36.858 113.616,38.755 C120.623,40.895 125.258,42.17 125.258,46.028 C125.258,48.605 123.218,51.172 119.185,51.172 C114.061,51.172 112.2,48.113 112.077,45.109 L101.052,45.109 C101.052,55.336 109.672,59.074 119.185,59.074 C131.334,59.074 136.5,52.159 136.5,45.18 L136.5,45.18 Z M260.12,45.18 C260.12,35.391 252.997,32.807 244.391,30.237 C240.242,29.013 236.516,27.92 236.516,24.303 C236.516,21.128 239.743,20.075 242.156,20.075 C244.207,20.075 248.035,20.509 248.343,25.216 L259.249,25.216 C259.061,16.23 251.761,12.317 242.337,12.317 C236.517,12.317 231.681,13.968 228.662,16.955 C226.557,19.043 225.258,22.102 225.258,25.285 C225.258,33.546 230.765,36.858 237.023,38.755 C244.023,40.895 248.665,42.17 248.665,46.028 C248.665,48.605 246.628,51.172 242.598,51.172 C237.454,51.172 235.592,48.113 235.479,45.109 L224.45,45.109 C224.45,55.336 233.063,59.074 242.596,59.074 C254.726,59.074 260.12,52.159 260.12,45.18 L260.12,45.18 Z M299.768,45.18 C299.768,35.391 292.615,32.807 284.015,30.237 C279.855,29.013 276.154,27.92 276.154,24.303 C276.154,21.128 279.363,20.075 281.776,20.075 C283.813,20.075 287.658,20.509 287.972,25.216 L298.9,25.216 C298.709,16.23 291.374,12.317 281.978,12.317 C276.154,12.317 271.32,13.968 268.279,16.955 C266.176,19.043 264.884,22.102 264.884,25.285 C264.884,33.546 270.394,36.858 276.635,38.755 C283.642,40.895 288.281,42.17 288.281,46.028 C288.281,48.605 286.244,51.172 282.214,51.172 C277.08,51.172 275.221,48.113 275.098,45.109 L264.065,45.109 C264.065,55.336 272.674,59.074 282.214,59.074 C294.375,59.074 299.768,52.159 299.768,45.18 L299.768,45.18 Z" id="path3059" fill="#6F6660" sketch:type="MSShapeGroup"></path>
            <path d="M56.135,0.936999 L93.492,0.936999 L76.404,70.287999 L0.511,70.287999 L56.135,0.936999 Z" id="polygon3061" fill="#6F6660" sketch:type="MSShapeGroup"></path>
            <path d="M64.792,42.007999 L79.723,42.007999 L79.723,29.213999 L64.792,29.213999 L64.792,14.280999 L51.991,14.280999 L51.991,29.213999 L37.06,29.213999 L37.06,42.007999 L51.984,42.007999 L51.984,56.943999 L64.781,56.943999 L64.781,42.007999 L64.792,42.007999 Z" id="polygon3063" fill="#FFFFFF" sketch:type="MSShapeGroup"></path>
        </g>
    </g>
</svg>