<svg version="1" xmlns="http://www.w3.org/2000/svg" xmlns:xlink="http://www.w3.org/1999/xlink" viewBox="0 0 1200 1200"><path fill="#78909C" d="M1120 514.5h80v285.4h-80zm-1120 0h80v285.4H0z"/><path fill="#90A4AE" d="M80 514.5h346.7v285.4H80zm693.3 0H1120v285.4H773.3z"/><path fill="#78909C" d="M426.7 514.5h346.7v285.4H426.7z"/><ellipse fill="#FFF" cx="979.2" cy="495.3" rx="69.9" ry="51.6"/><path fill="#FFF" d="M995 537.4l33.7 23.9-17.8-37.3m-47.5 13.4l-33.7 23.9 17.7-37.3"/><circle fill="#F4B400" cx="978.9" cy="495.3" r="13.7"/><path fill="#FF5722" d="M1004.7 482.9h24.9v24.9h-24.9z"/><path d="M957.5 507.7h-28.7l14.4-24.9 14.3 24.9z"/><path fill="#FFF" d="M965.4 633.3h-6.5c-1.6 0-3-1.3-3-3v-12.7h12.4v12.7c.1 1.7-1.3 3-2.9 3z"/><path fill="#FFF" d="M955.9 630.3c-2.7 0-4.9-2.2-4.9-4.9s2.2-4.9 4.9-4.9 4.9 2.2 4.9 4.9-2.2 4.9-4.9 4.9zm0-7.8c-1.6 0-3 1.3-3 3 0 1.6 1.3 3 3 3 1.6 0 3-1.3 3-3s-1.3-3-3-3z"/><path fill="#FF5722" d="M909.4 604c4.6 10.9 13.7 23.2 18.5 25.1 3.1 1.3 17.2-3 17.2-3l2.9 6.8s-17.6 6.1-23.1 7c-5.5.9-9.5-5.6-13.2-9.9s-10.6-13.3-10.6-13.3l8.3-12.7z"/><path fill="#F4B400" d="M911.3 661.6s3.5 25 2.1 47.7c-.9 14.4-5 39.4-2.9 42.6s8.3 3.1 8.3 7.1h-18.5s-1-15.8-.9-37.8c0-6.4-1.1-24.1-2.3-30.7-.5-2.6-4.1-2.6-4.6 0-1.3 6.9-2.6 24.5-2.7 27.2-.2 5.2-7.1 30-4.2 34.2 3.1 4.5 7.5 3.3 7.5 7h-17.4s.1-23.7 1-37.6c1.1-19.4-2.9-31-2-59.8l36.6.1z"/><path fill="#FF5722" d="M892.6 596c8.4.4 15 .8 17.2 8.9 6.3 23 1.6 56.8 1.6 56.8h-36.6s-2.8-15.3-1-34c1.8-18.7-.5-32.7 18.8-31.7z"/><path fill="#FFF" d="M886.8 596.3l9.2 47.1 2.2-47.3"/><path fill="#FF5722" d="M886.8 596.3s-14.4 0-30.3 18.3c-6.2 7.1-32.2-8.2-32.2-8.2l-2.4 8.6s27.2 16.2 34.2 12 18.9-15.8 18.7-3.1 12-27.6 12-27.6z"/><path fill="#F4B400" d="M824.2 606.4s-9.5-.8-11.5 1.6c-2 2.5 4 5 9.1 6.9l2.4-8.5zm127.6 23.8c.3 2.5-1.7 3.9-3.7 3.6-2.8-.4-4-.9-4.6-2.6-1.9-5.6 2.3-6.9 6.5-8.1 1.7-.5 4.1-.8 4.1 1.7-.1 2.5-2.6 2.9-2.3 5.4zm-68.1-53.9c-.4-6.7.7-14.7 10.5-14.5 13.2.2 9.2 20.6 5.8 26-3.7 6-1.9 8.3-1.9 8.3s-1.1 2.6-5.4 3c-3.1.3-6-2.8-6-2.8s1.4-1.7.7-7.1c-.7-6.2-3.1-3.2-3.7-12.9z"/><path fill="#FF5722" d="M886.8 586.4l1.5-5s-2.2-2-1.3-5.3c.9-3.4 3.6.2 3.6.2l1-7.4c4.1.6 7.9-.4 10.5-1.5s10.8-4.9 11.2-15c0 0-4.4 3.2-11.4 0-4.1-1.9-7.1-2.4-12.4-1.2-8.6 1.9-10.5 11.3-10.1 17.5.5 6.2 5.8 15.2 7.4 17.7z"/><path d="M875.8 759h17.4c0-3.7-4.4-2.5-7.5-7h-9.8c-.1 4.2-.1 7-.1 7zm34.9-7H900c.2 4.5.4 7 .4 7h18.5c0-3.9-5.9-4-8.2-7z"/><path fill="#FFF" d="M972.1 589.8c-3.6.8-7.4 1.9-10.2 4.4-.3.3-.6.6-.8 1-.4.9.1 1.9.8 2.6.7.7 1.6 1 2.4 1.5.7.4 1.4 1 2.1 1.6.9.9 1.7 2.1 1.5 3.4-.2.9-.8 1.5-1.6 2-.9.6-1.8.9-2.8 1.3s-1.9.9-2.6 1.6c-.7.7-1.2 1.8-1.1 2.8.1.8.6 1.5 1.3 2s1.4.8 2.1 1.2c-.7-.3-1.4-.9-1.7-1.7-.3-.8-.3-1.6.1-2.4.5-.8 1.4-1.3 2.2-1.7.8-.4 1.7-.7 2.5-1.1 1.5-.7 2.9-1.5 4.2-2.5.9-.6 1.7-1.4 2.2-2.3.7-1.4.5-3.1-.4-4.3-1.3-1.8-3.8-2.2-5.8-3.2-.5-.3-1.1-.6-1.2-1.2-.1-.4.1-.9.3-1.2.6-.9 1.5-1.4 2.4-1.9 1.9-1 2.2-1.3 4.1-1.9" opacity=".25"/><path fill="#F4B400" d="M1010.9 621.8s11.6 13 16 15.2c4.4 2.1 15.4-10.7 15.4-10.7l-6.5-10.7s-4.8 9.4-7.4 10.4c-2.5 1-14.6-10.1-14.6-10.1l-2.9 5.9z"/><path fill="#F4B400" d="M1056.7 600.3c-5.2-.1-7.1-.1-10.7 2.8-2.5 2.1-5 4.6-7 7.2-1.3 1.7-2.4 3.5-3.2 5.2-1 2.1-1.5 4.2-1.3 5.9.7 5.3 6.8 12.3 4.4 37.1h28.5c-11-18.4 4.6-52.9-10.7-58.2z"/><path d="M1070.6 717.4c-2.6-11.8 7.6-37.4-3.2-58.9h-28.5c-.8 8.6.2 2-4.5 17.6-4.8 15.9-7.7 23.9-6.5 33.7 1.2 9.8 4 19.7 5.6 27.7 1.6 8.1 2.3 13.4-3.6 15.7-5.9 2.2-6.9 5.7-6.9 5.7h22.3s-1.5-17-2.3-30.2-3.5-13.7.8-24.6c4.4-10.8 7.4-17.6 7.4-17.6s2 21.4 6 31.1c4 9.6 14 33.7 6.3 35.5-7.7 1.8-7.9 5.8-7.9 5.8h21.4s-1.7-7.5-1.9-20.8c-.2-13.3-3.4-15.4-4.5-20.7z"/><path fill="#FF7043" d="M1058.4 580.9c.5-5-5.2-14.2-15.1-8.4-5.4 3.1-6.8 18.3.3 22 3.9 2 2.4 8.7 2.4 8.7s1.2 1.6 5.5 1.1c3.2-.4 5.2-3.9 5.2-3.9s-1.4.1-1.7-3.4c-.7-8.8 2.9-10.3 3.4-16.1z"/><path d="M1044.4 570.4c2.9-2 6.7-2.2 10.6.5 4.3 3 5.6 7.9 4.4 12.7-1.2 4.8-3.9 5.3-4.2 7.7 0 0-1.3-1.2-2.4-2.8-.8-1.2-.9-2.8-.1-4 .4-.6.7-1.5.6-2.6-.1-1.3-1.2-1.7-2.2-1.8-1.1-.1-2.1-.7-2.7-1.6-1.1-1.9-6.9-4.5-6.9-4.5s-.5-1.3 2.9-3.6z"/><path fill="#F4B400" d="M1048.9 611.2c2.5 7.4 14.5 25.1 12.3 29.5-1.4 2.9-17.6 6.4-17.6 6.4l-.4 7.1s23.9-2.6 28.5-5.5c4.6-2.9-.2-19.8-2.2-24.9-2-5.1-7.2-18.4-7.2-18.4l-13.4 5.8z"/><path fill="#FF7043" d="M1043.3 647.7s-9.8 1.3-9.8 4.8c-.1 3.5 10.5 2.3 10.5 2.3l-.7-7.1z"/><circle cx="1059.2" cy="567.6" r="6.9"/><path fill="#FFF" d="M1007.6 622.9h6.5c1.6 0 3-1.3 3-3v-12.7h-12.4v12.7c-.1 1.7 1.3 3 2.9 3z"/><path fill="#FFF" d="M1017.1 619.9c-2.7 0-4.9-2.2-4.9-4.9s2.2-4.9 4.9-4.9 4.9 2.2 4.9 4.9-2.2 4.9-4.9 4.9zm0-7.8c-1.6 0-3 1.3-3 3 0 1.6 1.3 3 3 3 1.6 0 3-1.3 3-3-.1-1.7-1.4-3-3-3z"/><path fill="#FF7043" d="M1011.1 616.7c-.4 3.6-3 4.3-4.9 3.7-2.7-.9-3.7-1.7-3.9-5.1-.3-5.9 2-4.5 6.3-4.9 1.8-.1 2.8 2.7 2.5 6.3z"/><path fill="#FFF" d="M1007.4 580.1c2.8.4 5.4 1.5 7.8 3 .9.6 1.8 1.3 2.2 2.4.5 1.3-.1 2.8-1 3.8s-2.1 1.7-3.3 2.4c-1.5.8-3 1.7-4.5 2.5-.6.3-1.2.7-1.7 1.2-.9 1-.8 2.6-.2 3.8.6 1.2 1.7 2.1 2.7 2.9 1.4 1 2.9 1.9 4.5 2.6-2.4-.5-5.4-1.5-7.5-2.8-2.1-1.3-3.1-3.2-2.9-5.7.3-3.1 3.2-5.2 6-6.8 1.3-.7 2.8-1.7 2.9-3.2.1-.7-.2-1.4-.5-2-1-1.6-2.6-3.1-4.5-4.1z" opacity=".25"/><circle fill="#FFF" cx="236.3" cy="539.9" r="5.6"/><path d="M278.9 563.6l-2.4-.8 16.9-53.3-48.9 17.8-.8-2.4 53.7-19.5"/><path d="M237.867 509.457l12.17 3.26-6.314 23.568-12.17-3.26z"/><path d="M250 543.5c2-7.6-2.5-15.4-10.1-17.4-7.6-2-15.4 2.5-17.4 10.1l27.5 7.3z"/><circle cx="295.4" cy="507.5" r="4.4"/><path fill="#F4B400" d="M111.8 563.2h183.6v93.4H111.8z"/><path fill="#F4B400" d="M296.7 657.9H110.5V562h186.2v95.9zM113 655.4h181.1v-90.9H113v90.9z"/><path fill="#F4B400" d="M110.5 656.6h2.5v100.3h-2.5zm183.7 0h2.5v100.3h-2.5z"/><path fill="#FFF" d="M138.6 577h130.1v65.8H138.6z"/><path d="M174.8 622h-24.2v-24.2h24.2V622zm-22.3-1.9h20.4v-20.4h-20.4v20.4zm92 1.9c-6.7 0-12.1-5.4-12.1-12.1 0-6.7 5.4-12.1 12.1-12.1s12.1 5.4 12.1 12.1c0 6.7-5.4 12.1-12.1 12.1zm0-22.3c-5.6 0-10.2 4.6-10.2 10.2s4.6 10.2 10.2 10.2 10.2-4.6 10.2-10.2-4.6-10.2-10.2-10.2zm-18.1 53.9s15.7 35 15.6 47.1c0 12.1-16.1 42.3-17.7 46.5-1.6 4.2 3.6 5.3 3.3 9.6h-15.1s14.3-35 13.6-49.6-9.8-23.3-18.6-26.8-25.6 0-26.9 8c-1.1 7.1 9.6 40.2 14.3 51.5h-20s8.2-6.3 7.2-9.9-14.6-29.7-16.5-38.2 1.3-21.6 14.8-38.2h46zm-32-66.9c0 5.9 1.3 10.7 7.3 10.7s7.3-4.8 7.3-10.7-3.3-10.7-7.3-10.7c-4.1-.1-7.3 4.7-7.3 10.7z"/><path fill="#FFF" d="M184 672.5h34.6v10H184z"/><path fill="#FFF" d="M190.615 679.566l2.48.308-9.58 77.11-2.48-.31zm21.56.034l9.565 77.11-2.48.307-9.565-77.11z"/><path fill="#FFF" d="M185.3 738.6h32.1v2.5h-32.1z"/><path fill="#FF5722" d="M180.5 653.6s-.7-12.2-.4-19.4-2.1-40.5 8.1-45.3c9.4-4.5 22.5-4.1 30.5 1.2s6.4 29.9 7.2 41c.5 7.1.5 22.5.5 22.5h-45.9z"/><path fill="#FF5722" d="M186.9 589.7c-4.8 3.4-16 8.2-20.7 30.4-1.1 5.3 8.9 1.2 14.3.8 5.4-.4 13.4-3 13.4-3l-7.5-11.5s5.3-20.1.5-16.7zm31.8.3c4.8 3.4 16.9 9.1 21.6 31.3 1.1 5.3-8.9 1.2-14.3.8-5.4-.4-13.4-3-13.4-3l7.5-11.5c-.1-.1-6.3-21-1.4-17.6z"/><path fill="#FFF" d="M368.2 735.5l5.2-4.1 10.3 8.2-1.8 10.4-10 4.8-5.3-6.2-4-2.7m-27.2-4.7l.7-6.6 13.1-1.4 6.1 8.6-3.7 10.5-8.1-.7-4.8.9"/><path fill="#FFF" d="M362.3 722.8l1-6L375 715l5.1 7.3-3.8 9.6-7.2-.2-4.3 1"/><path fill="#FFF" d="M378.6 715.5l-6.1-.1-3.5-11.3 6.5-6.1 10 2.3.8 7.2 1.7 4.1m-51.7 7.3l4.9-3.4 9.6 7.1-1.8 8.7-9.5 3.9-4.8-5.2-3.8-2.4"/><path fill="#FFF" d="M345.8 704.8l4.6-6.5 14.9 4.7 1.7 11.6-10.1 9.1-8.3-4.5-5.7-1.3m9.9 16.8l.6-4.8 9.5-1 4.4 6.2-2.7 7.6-5.9-.5-3.4.7"/><path fill="#FFF" d="M359.4 692.5l.7-6.1 11.9-1.2 5.5 7.8-3.4 9.5-7.3-.6-4.4.8"/><path fill="#FFF" d="M373.5 677.2l2.9-5.9 12.5 2.9 3 9.8-6.8 8.6-7.3-3.1-4.7-.7m-39.1 26l-4.7-1.3.4-9.5 6.8-3.4 7.1 3.8-1.3 5.7.1 3.5m13.2-42.8l-4.7-1.2.5-9.6 6.8-3.4 7.1 3.8-1.4 5.7.1 3.5m-92.7 88.1l-4.6-1.2.4-9.6 6.8-3.4 7.1 3.8-1.3 5.7.1 3.5M402 759l-3.5-1 .3-7.1 5.2-2.6 5.3 2.9-1 4.3.1 2.6m-93.4-.9l3.2.9 5-4.4-1.8-5.6-6-1.8-2.4 3.9-1.9 1.8m52.5-64.1l-4.3 2.1-6-7.4 2.8-7.1 7.8-1.8 2.8 5.1 2.4 2.6m-31.8 5.6l-5 2.5-6.9-8.5 3.2-8.2 9.1-2.2 3.2 6 2.8 2.9"/><path fill="#FFF" d="M355 669.4l4.4 3.5-4.9 9.9-8.8.5-5.7-7.3 4.1-5.5 1.4-3.7m28.8-5.9l6.2.5 1.7 12.1-7.7 5.9-9.8-3.1.3-7.5-1-4.4m-21.4 39.1l-6.6.2-3.2-12.5 7.4-7.2 10.8 2.1.5 8 1.5 4.5m1.3 50.5l-.4-3.4 6.1-2.2 4 3.4-.5 5.5-4 .7-2.2 1"/><defs><path id="a" d="M392.1 680.2h-68l9.6 72.5h48.8z"/></defs><clipPath id="b"><use xlink:href="#a" overflow="visible"/></clipPath><g clip-path="url(#b)"><defs><path id="c" d="M375.886 675.163l7.708-7.707 7.707 7.707-7.7 7.708z"/></defs><clipPath id="d"><use xlink:href="#c" overflow="visible"/></clipPath><g clip-path="url(#d)"><path d="M376.315 667.247l15.06 15.062-.565.56-15.06-15.06z"/></g><g clip-path="url(#d)"><path d="M390.914 667.253l.566.565-15.05 15.072-.567-.565z"/></g><g clip-path="url(#d)"><path fill="none" d="M375.886 675.163l7.708-7.707 7.707 7.707-7.7 7.708z"/></g></g><g clip-path="url(#b)"><defs><path id="e" d="M383.586 682.865l7.707-7.708 7.707 7.708-7.707 7.707z"/></defs><clipPath id="f"><use xlink:href="#e" overflow="visible"/></clipPath><g clip-path="url(#f)"><path d="M384.016 674.946l15.06 15.062-.565.565-15.06-15.06z"/></g><g clip-path="url(#f)"><path d="M398.615 674.952l.567.565-15.05 15.072-.567-.57z"/></g><g clip-path="url(#f)"><path fill="none" d="M383.586 682.865l7.707-7.708 7.707 7.708-7.707 7.707z"/></g></g><g clip-path="url(#b)"><defs><path id="g" d="M391.355 690.496l7.708-7.708 7.707 7.708-7.707 7.707z"/></defs><clipPath id="h"><use xlink:href="#g" overflow="visible"/></clipPath><g clip-path="url(#h)"><path d="M391.718 682.646l15.06 15.06-.565.567-15.06-15.06z"/></g><g clip-path="url(#h)"><path d="M406.318 682.65l.566.567-15.05 15.072-.567-.57z"/></g><g clip-path="url(#h)"><path fill="none" d="M391.355 690.496l7.708-7.708 7.707 7.708-7.707 7.707z"/></g></g><g clip-path="url(#b)"><defs><path id="i" d="M360.485 675.16l7.708-7.706 7.707 7.707-7.707 7.71z"/></defs><clipPath id="j"><use xlink:href="#i" overflow="visible"/></clipPath><g clip-path="url(#j)"><path d="M360.914 667.25l15.06 15.06-.565.566-15.07-15.06z"/></g><g clip-path="url(#j)"><path d="M375.512 667.256l.567.565-15.06 15.08-.57-.56z"/></g><g clip-path="url(#j)"><path fill="none" d="M360.485 675.16l7.708-7.706 7.707 7.707-7.707 7.71z"/></g></g><g clip-path="url(#b)"><defs><path id="k" d="M368.185 682.863l7.707-7.708 7.708 7.708-7.708 7.707z"/></defs><clipPath id="l"><use xlink:href="#k" overflow="visible"/></clipPath><g clip-path="url(#l)"><path d="M368.615 674.95l15.06 15.06-.564.566-15.06-15.062z"/></g><g clip-path="url(#l)"><path d="M383.214 674.955l.566.565-15.05 15.072-.566-.565z"/></g><g clip-path="url(#l)"><path fill="none" d="M368.185 682.863l7.707-7.708 7.708 7.708-7.708 7.707z"/></g></g><g clip-path="url(#b)"><defs><path id="m" d="M375.884 690.564l7.707-7.707 7.71 7.707-7.71 7.707z"/></defs><clipPath id="n"><use xlink:href="#m" overflow="visible"/></clipPath><g clip-path="url(#n)"><path d="M376.317 682.648l15.06 15.06-.565.567-15.06-15.06z"/></g><g clip-path="url(#n)"><path d="M390.916 682.654l.567.565-15.05 15.07-.567-.57z"/></g><g clip-path="url(#n)"><path fill="none" d="M375.884 690.564l7.707-7.707 7.71 7.707-7.71 7.707z"/></g></g><g clip-path="url(#b)"><defs><path id="o" d="M383.583 698.266l7.708-7.708 7.71 7.708-7.7 7.707z"/></defs><clipPath id="p"><use xlink:href="#o" overflow="visible"/></clipPath><g clip-path="url(#p)"><path d="M384.018 690.347l15.06 15.06-.564.567-15.062-15.06z"/></g><g clip-path="url(#p)"><path d="M398.618 690.353l.566.566-15.05 15.07-.566-.57z"/></g><g clip-path="url(#p)"><path fill="none" d="M383.583 698.266l7.708-7.708 7.71 7.708-7.7 7.707z"/></g></g><g clip-path="url(#b)"><defs><path id="q" d="M391.353 705.896l7.708-7.707 7.71 7.7-7.7 7.71z"/></defs><clipPath id="r"><use xlink:href="#q" overflow="visible"/></clipPath><g clip-path="url(#r)"><path d="M391.72 698.047l15.06 15.06-.565.567-15.06-15.062z"/></g><g clip-path="url(#r)"><path d="M406.32 698.053l.567.565-15.05 15.072-.567-.565z"/></g><g clip-path="url(#r)"><path fill="none" d="M391.353 705.896l7.708-7.707 7.71 7.7-7.7 7.71z"/></g></g><g clip-path="url(#b)"><defs><path id="s" d="M345.085 675.16l7.707-7.708 7.707 7.707-7.71 7.7z"/></defs><clipPath id="t"><use xlink:href="#s" overflow="visible"/></clipPath><g clip-path="url(#t)"><path d="M345.513 667.252l15.06 15.06-.564.567-15.07-15.07z"/></g><g clip-path="url(#t)"><path d="M360.11 667.258l.567.566-15.05 15.072-.566-.566z"/></g><g clip-path="url(#t)"><path fill="none" d="M345.085 675.16l7.707-7.708 7.707 7.707-7.71 7.7z"/></g></g><g clip-path="url(#b)"><defs><path id="u" d="M352.784 682.86l7.707-7.707 7.71 7.708-7.71 7.71z"/></defs><clipPath id="v"><use xlink:href="#u" overflow="visible"/></clipPath><g clip-path="url(#v)"><path d="M353.214 674.95l15.062 15.062-.566.566-15.06-15.06z"/></g><g clip-path="url(#v)"><path d="M367.813 674.958l.566.565-15.06 15.072-.57-.566z"/></g><g clip-path="url(#v)"><path fill="none" d="M352.784 682.86l7.707-7.707 7.71 7.708-7.71 7.71z"/></g></g><g clip-path="url(#b)"><defs><path id="w" d="M360.483 690.562l7.708-7.707 7.71 7.707-7.7 7.707z"/></defs><clipPath id="x"><use xlink:href="#w" overflow="visible"/></clipPath><g clip-path="url(#x)"><path d="M360.916 682.65l15.06 15.06-.564.567-15.062-15.06z"/></g><g clip-path="url(#x)"><path d="M375.515 682.657l.566.565-15.05 15.072-.56-.565z"/></g><g clip-path="url(#x)"><path fill="none" d="M360.483 690.562l7.708-7.707 7.71 7.707-7.7 7.707z"/></g></g><g clip-path="url(#b)"><defs><path id="y" d="M368.183 698.263l7.707-7.707 7.707 7.707-7.707 7.708z"/></defs><clipPath id="z"><use xlink:href="#y" overflow="visible"/></clipPath><g clip-path="url(#z)"><path d="M368.617 690.35l15.06 15.06-.564.566-15.06-15.06z"/></g><g clip-path="url(#z)"><path d="M383.217 690.356l.566.565-15.05 15.08-.567-.56z"/></g><g clip-path="url(#z)"><path fill="none" d="M368.183 698.263l7.707-7.707 7.707 7.707-7.707 7.708z"/></g></g><g clip-path="url(#b)"><defs><path id="A" d="M375.882 705.965l7.707-7.708 7.7 7.708-7.71 7.707z"/></defs><clipPath id="B"><use xlink:href="#A" overflow="visible"/></clipPath><g clip-path="url(#B)"><path d="M376.32 698.05l15.06 15.06-.566.566-15.06-15.06z"/></g><g clip-path="url(#B)"><path d="M390.92 698.056l.565.565-15.05 15.08-.566-.56z"/></g><g clip-path="url(#B)"><path fill="none" d="M375.882 705.965l7.707-7.708 7.7 7.708-7.71 7.707z"/></g></g><g clip-path="url(#b)"><defs><path id="C" d="M383.58 713.666l7.71-7.707 7.706 7.7-7.707 7.71z"/></defs><clipPath id="D"><use xlink:href="#C" overflow="visible"/></clipPath><g clip-path="url(#D)"><path d="M384.02 705.748l15.06 15.06-.564.567-15.06-15.06z"/></g><g clip-path="url(#D)"><path d="M398.62 705.755l.567.565-15.05 15.072-.567-.565z"/></g><g clip-path="url(#D)"><path fill="none" d="M383.58 713.666l7.71-7.707 7.706 7.7-7.707 7.71z"/></g></g><g clip-path="url(#b)"><defs><path id="E" d="M391.35 721.297l7.71-7.707 7.706 7.707-7.707 7.707z"/></defs><clipPath id="F"><use xlink:href="#E" overflow="visible"/></clipPath><g clip-path="url(#F)"><path d="M391.722 713.447l15.06 15.062-.565.56-15.06-15.06z"/></g><g clip-path="url(#F)"><path d="M406.323 713.454l.566.565-15.05 15.07-.57-.57z"/></g><g clip-path="url(#F)"><path fill="none" d="M391.35 721.297l7.71-7.707 7.706 7.707-7.707 7.707z"/></g></g><g clip-path="url(#b)"><defs><path id="G" d="M329.684 675.157l7.707-7.707 7.71 7.707-7.71 7.707z"/></defs><clipPath id="H"><use xlink:href="#G" overflow="visible"/></clipPath><g clip-path="url(#H)"><path d="M330.12 667.257l15.062 15.06-.566.566-15.06-15.06z"/></g><g clip-path="url(#H)"><path d="M344.71 667.26l.566.566-15.05 15.072-.567-.565z"/></g><g clip-path="url(#H)"><path fill="none" d="M329.684 675.157l7.707-7.707 7.71 7.707-7.71 7.707z"/></g></g><g clip-path="url(#b)"><defs><path id="I" d="M337.383 682.858l7.708-7.707 7.71 7.71-7.7 7.71z"/></defs><clipPath id="J"><use xlink:href="#I" overflow="visible"/></clipPath><g clip-path="url(#J)"><path d="M337.822 674.956l15.06 15.06-.564.567-15.062-15.062z"/></g><g clip-path="url(#J)"><path d="M352.412 674.96l.566.566-15.05 15.07-.567-.564z"/></g><g clip-path="url(#J)"><path fill="none" d="M337.383 682.858l7.708-7.707 7.71 7.71-7.7 7.71z"/></g></g><g clip-path="url(#b)"><defs><path id="K" d="M345.083 690.56l7.707-7.708 7.707 7.708-7.707 7.707z"/></defs><clipPath id="L"><use xlink:href="#K" overflow="visible"/></clipPath><g clip-path="url(#L)"><path d="M345.515 682.652l15.062 15.062-.566.565-15.06-15.07z"/></g><g clip-path="url(#L)"><path d="M360.114 682.66l.566.565-15.05 15.072-.567-.565z"/></g><g clip-path="url(#L)"><path fill="none" d="M345.083 690.56l7.707-7.708 7.707 7.708-7.707 7.707z"/></g></g><g clip-path="url(#b)"><defs><path id="M" d="M352.782 698.26l7.707-7.706 7.7 7.707-7.71 7.71z"/></defs><clipPath id="N"><use xlink:href="#M" overflow="visible"/></clipPath><g clip-path="url(#N)"><path d="M353.216 690.352l15.062 15.06-.566.567-15.06-15.07z"/></g><g clip-path="url(#N)"><path d="M367.816 690.36l.566.564-15.05 15.072-.567-.565z"/></g><g clip-path="url(#N)"><path fill="none" d="M352.782 698.26l7.707-7.706 7.7 7.707-7.71 7.71z"/></g></g><g clip-path="url(#b)"><defs><path id="O" d="M360.48 705.963l7.71-7.708 7.706 7.708-7.707 7.707z"/></defs><clipPath id="P"><use xlink:href="#O" overflow="visible"/></clipPath><g clip-path="url(#P)"><path d="M360.918 698.05l15.06 15.062-.564.566-15.06-15.06z"/></g><g clip-path="url(#P)"><path d="M375.518 698.058l.566.566-15.05 15.07-.567-.564z"/></g><g clip-path="url(#P)"><path fill="none" d="M360.48 705.963l7.71-7.708 7.706 7.708-7.707 7.707z"/></g></g><g clip-path="url(#b)"><defs><path id="Q" d="M368.18 713.664l7.708-7.707 7.707 7.707-7.707 7.708z"/></defs><clipPath id="R"><use xlink:href="#Q" overflow="visible"/></clipPath><g clip-path="url(#R)"><path d="M368.62 705.75l15.06 15.06-.565.567-15.06-15.06z"/></g><g clip-path="url(#R)"><path d="M383.22 705.757l.566.566-15.05 15.072-.567-.566z"/></g><g clip-path="url(#R)"><path fill="none" d="M368.18 713.664l7.708-7.707 7.707 7.707-7.707 7.708z"/></g></g><g clip-path="url(#b)"><defs><path id="S" d="M375.88 721.366l7.707-7.708 7.707 7.708-7.707 7.707z"/></defs><clipPath id="T"><use xlink:href="#S" overflow="visible"/></clipPath><g clip-path="url(#T)"><path d="M376.32 713.45l15.062 15.06-.565.566-15.06-15.06z"/></g><g clip-path="url(#T)"><path d="M390.922 713.457l.566.565-15.05 15.072-.567-.565z"/></g><g clip-path="url(#T)"><path fill="none" d="M375.88 721.366l7.707-7.708 7.707 7.708-7.707 7.707z"/></g></g><g clip-path="url(#b)"><defs><path id="U" d="M383.58 729.067l7.706-7.707 7.708 7.707-7.708 7.707z"/></defs><clipPath id="V"><use xlink:href="#U" overflow="visible"/></clipPath><g clip-path="url(#V)"><path d="M384.022 721.15l15.062 15.06-.566.566-15.06-15.062z"/></g><g clip-path="url(#V)"><path d="M398.624 721.156l.566.565-15.05 15.08-.567-.56z"/></g><g clip-path="url(#V)"><path fill="none" d="M383.58 729.067l7.706-7.707 7.708 7.707-7.708 7.707z"/></g></g><g clip-path="url(#b)"><defs><path id="W" d="M391.35 736.698l7.706-7.708 7.708 7.708-7.708 7.707z"/></defs><clipPath id="X"><use xlink:href="#W" overflow="visible"/></clipPath><g clip-path="url(#X)"><path d="M391.724 728.848l15.06 15.06-.564.567-15.062-15.06z"/></g><g clip-path="url(#X)"><path d="M406.326 728.855l.566.566-15.05 15.08-.567-.56z"/></g><g clip-path="url(#X)"><path fill="none" d="M391.35 736.698l7.706-7.708 7.708 7.708-7.708 7.707z"/></g></g><g clip-path="url(#b)"><defs><path id="Y" d="M314.283 675.155l7.708-7.708 7.71 7.708-7.7 7.707z"/></defs><clipPath id="Z"><use xlink:href="#Y" overflow="visible"/></clipPath><g clip-path="url(#Z)"><path d="M314.712 667.256l15.06 15.06-.565.567-15.06-15.062z"/></g><g clip-path="url(#Z)"><path d="M329.31 667.264l.565.565-15.05 15.07-.567-.57z"/></g><g clip-path="url(#Z)"><path fill="none" d="M314.283 675.155l7.708-7.708 7.71 7.708-7.7 7.707z"/></g></g><g clip-path="url(#b)"><defs><path id="aa" d="M321.983 682.856l7.707-7.707 7.707 7.7-7.707 7.71z"/></defs><clipPath id="ab"><use xlink:href="#aa" overflow="visible"/></clipPath><g clip-path="url(#ab)"><path d="M322.413 674.955l15.06 15.06-.565.567-15.06-15.06z"/></g><g clip-path="url(#ab)"><path d="M337.01 674.963l.566.565-15.05 15.072-.566-.565z"/></g><g clip-path="url(#ab)"><path fill="none" d="M321.983 682.856l7.707-7.707 7.707 7.7-7.707 7.71z"/></g></g><g clip-path="url(#b)"><defs><path id="ac" d="M329.682 690.558l7.707-7.708 7.7 7.708-7.71 7.707z"/></defs><clipPath id="ad"><use xlink:href="#ac" overflow="visible"/></clipPath><g clip-path="url(#ad)"><path d="M330.123 682.657l15.06 15.062-.564.56-15.07-15.06z"/></g><g clip-path="url(#ad)"><path d="M344.713 682.662l.566.566-15.06 15.072-.57-.566z"/></g><g clip-path="url(#ad)"><path fill="none" d="M329.682 690.558l7.707-7.708 7.7 7.708-7.71 7.707z"/></g></g><g clip-path="url(#b)"><defs><path id="ae" d="M337.38 698.26l7.71-7.708 7.706 7.707-7.707 7.7z"/></defs><clipPath id="af"><use xlink:href="#ae" overflow="visible"/></clipPath><g clip-path="url(#af)"><path d="M337.824 690.357l15.062 15.06-.566.567-15.06-15.062z"/></g><g clip-path="url(#af)"><path d="M352.414 690.362l.566.565L337.93 706l-.566-.566z"/></g><g clip-path="url(#af)"><path fill="none" d="M337.38 698.26l7.71-7.708 7.706 7.707-7.707 7.7z"/></g></g><g clip-path="url(#b)"><defs><path id="ag" d="M345.08 705.96l7.708-7.707 7.707 7.708-7.707 7.71z"/></defs><clipPath id="ah"><use xlink:href="#ag" overflow="visible"/></clipPath><g clip-path="url(#ah)"><path d="M345.517 698.053l15.062 15.06-.57.567-15.06-15.06z"/></g><g clip-path="url(#ah)"><path d="M360.117 698.06l.566.566-15.05 15.072-.567-.565z"/></g><g clip-path="url(#ah)"><path fill="none" d="M345.08 705.96l7.708-7.707 7.707 7.708-7.707 7.71z"/></g></g><g clip-path="url(#b)"><defs><path id="ai" d="M352.78 713.662l7.707-7.707 7.707 7.707-7.707 7.707z"/></defs><clipPath id="aj"><use xlink:href="#ai" overflow="visible"/></clipPath><g clip-path="url(#aj)"><path d="M353.22 705.752l15.06 15.062-.566.565-15.06-15.07z"/></g><g clip-path="url(#aj)"><path d="M367.818 705.76l.566.565-15.05 15.072-.566-.565z"/></g><g clip-path="url(#aj)"><path fill="none" d="M352.78 713.662l7.707-7.707 7.707 7.707-7.707 7.707z"/></g></g><g clip-path="url(#b)"><defs><path id="ak" d="M360.48 721.364l7.706-7.708 7.708 7.708-7.708 7.707z"/></defs><clipPath id="al"><use xlink:href="#ak" overflow="visible"/></clipPath><g clip-path="url(#al)"><path d="M360.92 713.452l15.062 15.06-.566.567-15.06-15.07z"/></g><g clip-path="url(#al)"><path d="M375.52 713.46l.567.565-15.05 15.072-.567-.565z"/></g><g clip-path="url(#al)"><path fill="none" d="M360.48 721.364l7.706-7.708 7.708 7.708-7.708 7.707z"/></g></g><g clip-path="url(#b)"><defs><path id="am" d="M368.178 729.065l7.708-7.707 7.707 7.707-7.707 7.707z"/></defs><clipPath id="an"><use xlink:href="#am" overflow="visible"/></clipPath><g clip-path="url(#an)"><path d="M368.622 721.15l15.06 15.062-.565.566-15.06-15.06z"/></g><g clip-path="url(#an)"><path d="M383.222 721.16l.567.564-15.06 15.072-.57-.565z"/></g><g clip-path="url(#an)"><path fill="none" d="M368.178 729.065l7.708-7.707 7.707 7.707-7.707 7.707z"/></g></g><g clip-path="url(#b)"><defs><path id="ao" d="M375.878 736.766l7.707-7.707 7.707 7.7-7.707 7.71z"/></defs><clipPath id="ap"><use xlink:href="#ao" overflow="visible"/></clipPath><g clip-path="url(#ap)"><path d="M376.323 728.85l15.062 15.062-.566.565-15.07-15.06z"/></g><g clip-path="url(#ap)"><path d="M390.925 728.858l.566.566-15.05 15.07-.56-.564z"/></g><g clip-path="url(#ap)"><path fill="none" d="M375.878 736.766l7.707-7.707 7.707 7.7-7.707 7.71z"/></g></g><g clip-path="url(#b)"><defs><path id="aq" d="M383.577 744.468l7.707-7.708 7.708 7.708-7.708 7.707z"/></defs><clipPath id="ar"><use xlink:href="#aq" overflow="visible"/></clipPath><g clip-path="url(#ar)"><path d="M384.025 736.55l15.06 15.06-.565.566-15.06-15.06z"/></g><g clip-path="url(#ar)"><path d="M398.626 736.557l.566.566-15.05 15.072-.566-.566z"/></g><g clip-path="url(#ar)"><path fill="none" d="M383.577 744.468l7.707-7.708 7.708 7.708-7.708 7.707z"/></g></g><g clip-path="url(#b)"><defs><path id="as" d="M391.347 752.1l7.707-7.71 7.708 7.71-7.708 7.706z"/></defs><clipPath id="at"><use xlink:href="#as" overflow="visible"/></clipPath><g clip-path="url(#at)"><path d="M391.726 744.25l15.06 15.06-.565.566-15.06-15.062z"/></g><g clip-path="url(#at)"><path d="M406.328 744.257l.567.565-15.05 15.072-.567-.565z"/></g><g clip-path="url(#at)"><path fill="none" d="M391.347 752.1l7.707-7.71 7.708 7.71-7.708 7.706z"/></g></g><g clip-path="url(#b)"><defs><path id="au" d="M314.28 690.556l7.708-7.708 7.708 7.708-7.708 7.707z"/></defs><clipPath id="av"><use xlink:href="#au" overflow="visible"/></clipPath><g clip-path="url(#av)"><path d="M314.714 682.657l15.06 15.06-.565.566-15.07-15.06z"/></g><g clip-path="url(#av)"><path d="M329.31 682.665l.567.565-15.05 15.072-.566-.565z"/></g><g clip-path="url(#av)"><path fill="none" d="M314.28 690.556l7.708-7.708 7.708 7.708-7.708 7.707z"/></g></g><g clip-path="url(#b)"><defs><path id="aw" d="M321.98 698.257l7.708-7.707 7.707 7.707-7.707 7.707z"/></defs><clipPath id="ax"><use xlink:href="#aw" overflow="visible"/></clipPath><g clip-path="url(#ax)"><path d="M322.415 690.356l15.06 15.06-.564.567-15.06-15.062z"/></g><g clip-path="url(#ax)"><path d="M337.013 690.364l.566.565L322.53 706l-.567-.564z"/></g><g clip-path="url(#ax)"><path fill="none" d="M321.98 698.257l7.708-7.707 7.707 7.707-7.707 7.707z"/></g></g><g clip-path="url(#b)"><defs><path id="ay" d="M329.68 705.958l7.707-7.707 7.707 7.71-7.707 7.71z"/></defs><clipPath id="az"><use xlink:href="#ay" overflow="visible"/></clipPath><g clip-path="url(#az)"><path d="M330.125 698.058l15.062 15.062-.566.565-15.06-15.06z"/></g><g clip-path="url(#az)"><path d="M344.715 698.064l.566.565-15.05 15.07-.56-.57z"/></g><g clip-path="url(#az)"><path fill="none" d="M329.68 705.958l7.707-7.707 7.707 7.71-7.707 7.71z"/></g></g><g clip-path="url(#b)"><defs><path id="aA" d="M337.38 713.66l7.706-7.708 7.708 7.708-7.708 7.707z"/></defs><clipPath id="aB"><use xlink:href="#aA" overflow="visible"/></clipPath><g clip-path="url(#aB)"><path d="M337.827 705.757l15.06 15.062-.565.56-15.06-15.06z"/></g><g clip-path="url(#aB)"><path d="M352.417 705.763l.566.565-15.05 15.072-.566-.565z"/></g><g clip-path="url(#aB)"><path fill="none" d="M337.38 713.66l7.706-7.708 7.708 7.708-7.708 7.707z"/></g></g><g clip-path="url(#b)"><defs><path id="aC" d="M345.078 721.36l7.708-7.706 7.707 7.707-7.707 7.71z"/></defs><clipPath id="aD"><use xlink:href="#aC" overflow="visible"/></clipPath><g clip-path="url(#aD)"><path d="M345.52 713.454l15.06 15.06-.565.567-15.06-15.06z"/></g><g clip-path="url(#aD)"><path d="M360.12 713.462l.565.566-15.05 15.072-.566-.566z"/></g><g clip-path="url(#aD)"><path fill="none" d="M345.078 721.36l7.708-7.706 7.707 7.707-7.707 7.71z"/></g></g><g clip-path="url(#b)"><defs><path id="aE" d="M352.778 729.063l7.707-7.708 7.707 7.708-7.707 7.707z"/></defs><clipPath id="aF"><use xlink:href="#aE" overflow="visible"/></clipPath><g clip-path="url(#aF)"><path d="M353.22 721.153l15.062 15.06-.566.567-15.06-15.06z"/></g><g clip-path="url(#aF)"><path d="M367.82 721.162l.567.565-15.05 15.072-.566-.57z"/></g><g clip-path="url(#aF)"><path fill="none" d="M352.778 729.063l7.707-7.708 7.707 7.708-7.707 7.707z"/></g></g><g clip-path="url(#b)"><defs><path id="aG" d="M360.477 736.764l7.707-7.707 7.708 7.707-7.708 7.708z"/></defs><clipPath id="aH"><use xlink:href="#aG" overflow="visible"/></clipPath><g clip-path="url(#aH)"><path d="M360.923 728.853l15.06 15.06-.565.566-15.06-15.07z"/></g><g clip-path="url(#aH)"><path d="M375.523 728.86l.566.566-15.05 15.072-.57-.565z"/></g><g clip-path="url(#aH)"><path fill="none" d="M360.477 736.764l7.707-7.707 7.708 7.707-7.708 7.708z"/></g></g><g clip-path="url(#b)"><defs><path id="aI" d="M368.176 744.466l7.708-7.708 7.707 7.708-7.7 7.707z"/></defs><clipPath id="aJ"><use xlink:href="#aI" overflow="visible"/></clipPath><g clip-path="url(#aJ)"><path d="M368.624 736.552l15.06 15.06-.565.567-15.07-15.07z"/></g><g clip-path="url(#aJ)"><path d="M383.225 736.56l.566.565-15.05 15.072-.56-.565z"/></g><g clip-path="url(#aJ)"><path fill="none" d="M368.176 744.466l7.708-7.708 7.707 7.708-7.7 7.707z"/></g></g><g clip-path="url(#b)"><defs><path id="aK" d="M375.875 752.167l7.708-7.707 7.707 7.707-7.707 7.708z"/></defs><clipPath id="aL"><use xlink:href="#aK" overflow="visible"/></clipPath><g clip-path="url(#aL)"><path d="M376.325 744.25l15.06 15.062-.564.566-15.06-15.06z"/></g><g clip-path="url(#aL)"><path d="M390.927 744.26l.566.565-15.05 15.072-.566-.566z"/></g><g clip-path="url(#aL)"><path fill="none" d="M375.875 752.167l7.708-7.707 7.707 7.707-7.707 7.708z"/></g></g><g clip-path="url(#b)"><defs><path id="aM" d="M383.575 759.87l7.707-7.71 7.707 7.71-7.71 7.706z"/></defs><clipPath id="aN"><use xlink:href="#aM" overflow="visible"/></clipPath><g clip-path="url(#aN)"><path d="M384.027 751.95l15.06 15.062-.565.565-15.06-15.06z"/></g><g clip-path="url(#aN)"><path d="M398.63 751.96l.565.564-15.05 15.072-.566-.565z"/></g><g clip-path="url(#aN)"><path fill="none" d="M383.575 759.87l7.707-7.71 7.707 7.71-7.71 7.706z"/></g></g><g clip-path="url(#b)"><defs><path id="aO" d="M314.28 705.956l7.706-7.707 7.708 7.7-7.708 7.71z"/></defs><clipPath id="aP"><use xlink:href="#aO" overflow="visible"/></clipPath><g clip-path="url(#aP)"><path d="M314.716 698.057l15.06 15.062-.564.56-15.062-15.06z"/></g><g clip-path="url(#aP)"><path d="M329.314 698.066l.566.566-15.05 15.07-.567-.564z"/></g><g clip-path="url(#aP)"><path fill="none" d="M314.28 705.956l7.706-7.707 7.708 7.7-7.708 7.71z"/></g></g><g clip-path="url(#b)"><defs><path id="aQ" d="M321.978 713.658l7.708-7.708 7.707 7.708-7.707 7.707z"/></defs><clipPath id="aR"><use xlink:href="#aQ" overflow="visible"/></clipPath><g clip-path="url(#aR)"><path d="M322.417 705.757l15.062 15.06-.57.566-15.06-15.06z"/></g><g clip-path="url(#aR)"><path d="M337.016 705.765l.566.566-15.05 15.08-.567-.56z"/></g><g clip-path="url(#aR)"><path fill="none" d="M321.978 713.658l7.708-7.708 7.707 7.708-7.707 7.707z"/></g></g><g clip-path="url(#b)"><defs><path id="aS" d="M329.677 721.36l7.708-7.708 7.707 7.707-7.707 7.7z"/></defs><clipPath id="aT"><use xlink:href="#aS" overflow="visible"/></clipPath><g clip-path="url(#aT)"><path d="M330.128 713.46l15.06 15.06-.565.566-15.06-15.06z"/></g><g clip-path="url(#aT)"><path d="M344.718 713.465l.566.565-15.05 15.072-.567-.565z"/></g><g clip-path="url(#aT)"><path fill="none" d="M329.677 721.36l7.708-7.708 7.707 7.707-7.707 7.7z"/></g></g><g clip-path="url(#b)"><defs><path id="aU" d="M337.377 729.06l7.707-7.707 7.708 7.708-7.708 7.71z"/></defs><clipPath id="aV"><use xlink:href="#aU" overflow="visible"/></clipPath><g clip-path="url(#aV)"><path d="M337.83 721.158l15.06 15.062-.565.565-15.062-15.06z"/></g><g clip-path="url(#aV)"><path d="M352.42 721.164l.566.566-15.05 15.07-.567-.564z"/></g><g clip-path="url(#aV)"><path fill="none" d="M337.377 729.06l7.707-7.707 7.708 7.708-7.708 7.71z"/></g></g><g clip-path="url(#b)"><defs><path id="aW" d="M345.076 736.762l7.707-7.707 7.708 7.707-7.7 7.707z"/></defs><clipPath id="aX"><use xlink:href="#aW" overflow="visible"/></clipPath><g clip-path="url(#aX)"><path d="M345.522 728.855l15.06 15.06-.565.567-15.06-15.062z"/></g><g clip-path="url(#aX)"><path d="M360.122 728.864l.566.565-15.05 15.07-.567-.57z"/></g><g clip-path="url(#aX)"><path fill="none" d="M345.076 736.762l7.707-7.707 7.708 7.707-7.7 7.707z"/></g></g><g clip-path="url(#b)"><defs><path id="aY" d="M352.775 744.463l7.708-7.707 7.707 7.707-7.707 7.708z"/></defs><clipPath id="aZ"><use xlink:href="#aY" overflow="visible"/></clipPath><g clip-path="url(#aZ)"><path d="M353.223 736.554l15.06 15.06-.564.567-15.07-15.06z"/></g><g clip-path="url(#aZ)"><path d="M367.824 736.563l.566.565-15.05 15.072-.567-.565z"/></g><g clip-path="url(#aZ)"><path fill="none" d="M352.775 744.463l7.708-7.707 7.707 7.707-7.707 7.708z"/></g></g><g clip-path="url(#b)"><defs><path id="ba" d="M360.475 752.165l7.707-7.707 7.707 7.707-7.71 7.707z"/></defs><clipPath id="bb"><use xlink:href="#ba" overflow="visible"/></clipPath><g clip-path="url(#bb)"><path d="M360.924 744.253l15.062 15.06-.566.567-15.06-15.06z"/></g><g clip-path="url(#bb)"><path d="M375.526 744.262l.566.565-15.05 15.072-.567-.57z"/></g><g clip-path="url(#bb)"><path fill="none" d="M360.475 752.165l7.707-7.707 7.707 7.707-7.71 7.707z"/></g></g><g clip-path="url(#b)"><defs><path id="bc" d="M368.174 759.866l7.707-7.707 7.71 7.7-7.71 7.71z"/></defs><clipPath id="bd"><use xlink:href="#bc" overflow="visible"/></clipPath><g clip-path="url(#bd)"><path d="M368.626 751.952l15.06 15.062-.564.565-15.062-15.07z"/></g><g clip-path="url(#bd)"><path d="M383.228 751.96l.566.567-15.05 15.072-.567-.57z"/></g><g clip-path="url(#bd)"><path fill="none" d="M368.174 759.866l7.707-7.707 7.71 7.7-7.71 7.71z"/></g></g><g clip-path="url(#b)"><defs><path id="be" d="M314.277 721.357l7.707-7.707 7.708 7.707-7.708 7.707z"/></defs><clipPath id="bf"><use xlink:href="#be" overflow="visible"/></clipPath><g clip-path="url(#bf)"><path d="M314.718 713.458l15.06 15.06-.564.567-15.06-15.06z"/></g><g clip-path="url(#bf)"><path d="M329.317 713.468l.566.565-15.05 15.072-.567-.566z"/></g><g clip-path="url(#bf)"><path fill="none" d="M314.277 721.357l7.707-7.707 7.708 7.707-7.708 7.707z"/></g></g><g clip-path="url(#b)"><defs><path id="bg" d="M321.976 729.058l7.707-7.707 7.708 7.71-7.7 7.71z"/></defs><clipPath id="bh"><use xlink:href="#bg" overflow="visible"/></clipPath><g clip-path="url(#bh)"><path d="M322.42 721.157l15.06 15.06-.565.567-15.06-15.06z"/></g><g clip-path="url(#bh)"><path d="M337.02 721.167l.565.565-15.05 15.072-.567-.565z"/></g><g clip-path="url(#bh)"><path fill="none" d="M321.976 729.058l7.707-7.707 7.708 7.71-7.7 7.71z"/></g></g><g clip-path="url(#b)"><defs><path id="bi" d="M329.675 736.76l7.708-7.707 7.707 7.707-7.707 7.707z"/></defs><clipPath id="bj"><use xlink:href="#bi" overflow="visible"/></clipPath><g clip-path="url(#bj)"><path d="M330.13 728.86l15.06 15.06-.564.567-15.062-15.06z"/></g><g clip-path="url(#bj)"><path d="M344.72 728.866l.567.566-15.05 15.07-.567-.564z"/></g><g clip-path="url(#bj)"><path fill="none" d="M329.675 736.76l7.708-7.707 7.707 7.707-7.707 7.707z"/></g></g><g clip-path="url(#b)"><defs><path id="bk" d="M337.375 744.46l7.707-7.706 7.707 7.707-7.71 7.71z"/></defs><clipPath id="bl"><use xlink:href="#bk" overflow="visible"/></clipPath><g clip-path="url(#bl)"><path d="M337.83 736.56l15.063 15.06-.566.566-15.06-15.06z"/></g><g clip-path="url(#bl)"><path d="M352.422 736.566l.567.565-15.06 15.08-.57-.56z"/></g><g clip-path="url(#bl)"><path fill="none" d="M337.375 744.46l7.707-7.706 7.707 7.707-7.71 7.71z"/></g></g><g clip-path="url(#b)"><defs><path id="bm" d="M345.074 752.163l7.707-7.708 7.71 7.708-7.71 7.707z"/></defs><clipPath id="bn"><use xlink:href="#bm" overflow="visible"/></clipPath><g clip-path="url(#bn)"><path d="M345.524 744.255l15.06 15.062-.565.565-15.07-15.06z"/></g><g clip-path="url(#bn)"><path d="M360.125 744.265l.566.565-15.05 15.072-.56-.565z"/></g><g clip-path="url(#bn)"><path fill="none" d="M345.074 752.163l7.707-7.708 7.71 7.708-7.71 7.707z"/></g></g><g clip-path="url(#b)"><defs><path id="bo" d="M352.773 759.864l7.708-7.707 7.71 7.707-7.7 7.708z"/></defs><clipPath id="bp"><use xlink:href="#bo" overflow="visible"/></clipPath><g clip-path="url(#bp)"><path d="M353.225 751.955l15.06 15.06-.564.567-15.06-15.062z"/></g><g clip-path="url(#bp)"><path d="M367.827 751.964l.566.565-15.05 15.07-.567-.57z"/></g><g clip-path="url(#bp)"><path fill="none" d="M352.773 759.864l7.708-7.707 7.71 7.707-7.7 7.708z"/></g></g><g clip-path="url(#b)"><defs><path id="bq" d="M314.275 736.758l7.707-7.708 7.707 7.708-7.71 7.707z"/></defs><clipPath id="br"><use xlink:href="#bq" overflow="visible"/></clipPath><g clip-path="url(#br)"><path d="M314.72 728.86l15.062 15.06-.566.566-15.06-15.06z"/></g><g clip-path="url(#br)"><path d="M329.32 728.87l.566.564-15.05 15.072-.567-.565z"/></g><g clip-path="url(#br)"><path fill="none" d="M314.275 736.758l7.707-7.708 7.707 7.708-7.71 7.707z"/></g></g><g clip-path="url(#b)"><defs><path id="bs" d="M321.974 744.46l7.707-7.708 7.71 7.707-7.71 7.7z"/></defs><clipPath id="bt"><use xlink:href="#bs" overflow="visible"/></clipPath><g clip-path="url(#bt)"><path d="M322.422 736.558l15.06 15.06-.565.567-15.06-15.06z"/></g><g clip-path="url(#bt)"><path d="M337.02 736.568l.567.565-15.05 15.072-.566-.565z"/></g><g clip-path="url(#bt)"><path fill="none" d="M321.974 744.46l7.707-7.708 7.71 7.707-7.71 7.7z"/></g></g><g clip-path="url(#b)"><defs><path id="bu" d="M329.673 752.16l7.708-7.707 7.71 7.708-7.7 7.71z"/></defs><clipPath id="bv"><use xlink:href="#bu" overflow="visible"/></clipPath><g clip-path="url(#bv)"><path d="M330.132 744.26l15.06 15.062-.565.566-15.06-15.062z"/></g><g clip-path="url(#bv)"><path d="M344.723 744.268l.566.565-15.05 15.072-.57-.566z"/></g><g clip-path="url(#bv)"><path fill="none" d="M329.673 752.16l7.708-7.707 7.71 7.708-7.7 7.71z"/></g></g><g clip-path="url(#b)"><defs><path id="bw" d="M337.373 759.862l7.707-7.707 7.707 7.707-7.707 7.707z"/></defs><clipPath id="bx"><use xlink:href="#bw" overflow="visible"/></clipPath><g clip-path="url(#bx)"><path d="M337.834 751.96l15.06 15.06-.565.567-15.07-15.06z"/></g><g clip-path="url(#bx)"><path d="M352.425 751.967l.566.565-15.05 15.072-.56-.565z"/></g><g clip-path="url(#bx)"><path fill="none" d="M337.373 759.862l7.707-7.707 7.707 7.707-7.707 7.707z"/></g></g><g clip-path="url(#b)"><defs><path id="by" d="M314.272 752.16l7.708-7.71 7.707 7.71-7.707 7.706z"/></defs><clipPath id="bz"><use xlink:href="#by" overflow="visible"/></clipPath><g clip-path="url(#bz)"><path d="M314.722 744.26l15.06 15.06-.564.566-15.062-15.06z"/></g><g clip-path="url(#bz)"><path d="M329.322 744.27l.566.565-15.05 15.072-.567-.565z"/></g><g clip-path="url(#bz)"><path fill="none" d="M314.272 752.16l7.708-7.71 7.707 7.71-7.707 7.706z"/></g></g><g clip-path="url(#b)"><defs><path id="bA" d="M321.972 759.86l7.707-7.707 7.7 7.707-7.71 7.707z"/></defs><clipPath id="bB"><use xlink:href="#bA" overflow="visible"/></clipPath><g clip-path="url(#bB)"><path d="M322.424 751.96l15.06 15.06-.565.566-15.07-15.062z"/></g><g clip-path="url(#bB)"><path d="M337.024 751.97l.566.565-15.05 15.072-.567-.566z"/></g><g clip-path="url(#bB)"><path fill="none" d="M321.972 759.86l7.707-7.707 7.7 7.707-7.71 7.707z"/></g></g><path d="M324.1 676h68v4.2h-68zm9.6 76.7h48.8v4.2h-48.8z"/></svg>