<?xml version="1.0" encoding="utf-8"?>
<!-- Generator: Adobe Illustrator 18.0.0, SVG Export Plug-In . SVG Version: 6.00 Build 0)  -->
<!DOCTYPE svg PUBLIC "-//W3C//DTD SVG 1.1//EN" "http://www.w3.org/Graphics/SVG/1.1/DTD/svg11.dtd">
<svg version="1.1" xmlns="http://www.w3.org/2000/svg" xmlns:xlink="http://www.w3.org/1999/xlink" x="0px" y="0px" width="1440px"
	 height="1440px" viewBox="0 0 1440 1440" enable-background="new 0 0 1440 1440" xml:space="preserve">
<g id="Background" display="none">
	<rect y="0" display="inline" fill="#424242" width="1440" height="1440"/>
</g>
<g id="Layer_1">
</g>
<g id="Layout">
</g>
<g id="Artwork">
	<g opacity="0.73">
		<g opacity="0.73">
			<g>
				<path fill="none" d="M952,894h116v116H952V894z"/>
				<path fill="#FFFFFF" d="M1045.5,942.5c-3.3-16.6-18-29.2-35.5-29.2c-14,0-26.1,7.9-32.1,19.5c-14.5,1.6-25.9,13.9-25.9,28.8
					c0,16,13,29,29,29h62.8c13.3,0,24.2-10.8,24.2-24.2C1068,953.7,1058.1,943.4,1045.5,942.5z M1043.8,981H981
					c-10.7,0-19.3-8.7-19.3-19.3c0-10.7,8.7-19.3,19.3-19.3h3.4c3.2-11.1,13.4-19.3,25.6-19.3c14.7,0,26.6,11.9,26.6,26.6v2.4h7.2
					c8,0,14.5,6.5,14.5,14.5S1051.8,981,1043.8,981z"/>
			</g>
			<g>
				<path fill="none" d="M604,430h116v116H604V430z"/>
				<path fill="#FFFFFF" d="M718.5,510.6c-14.7-14-34.7-22.6-56.6-22.6c-21.9,0-41.9,8.6-56.6,22.6c-0.9,0.9-1.4,2.1-1.4,3.4
					s0.5,2.5,1.4,3.4l12,12c0.9,0.9,2.1,1.4,3.4,1.4c1.3,0,2.5-0.5,3.4-1.4c3.8-3.6,8.2-6.6,12.9-8.9c1.6-0.8,2.7-2.4,2.7-4.3v-15
					c7-2.2,14.5-3.5,22.2-3.5s15.2,1.2,22.2,3.5v15c0,1.9,1.1,3.6,2.7,4.3c4.7,2.4,9.1,5.4,12.9,8.9c0.9,0.8,2.1,1.4,3.4,1.4
					c1.3,0,2.5-0.5,3.4-1.4l12-12c0.9-0.9,1.4-2.1,1.4-3.4C720,512.7,719.4,511.4,718.5,510.6z M706.2,460.2l-6.8-6.8l-17.2,17.2
					l6.8,6.8C689,477.4,705.7,460.4,706.2,460.2z M666.8,439.7h-9.7v24.2h9.7V439.7z M634.9,477.4l6.8-6.8l-17.2-17.2l-6.8,6.8
					C618.2,460.4,634.9,477.4,634.9,477.4z"/>
			</g>
			<g>
				<path fill="none" d="M604,894h116v116H604V894z"/>
				<path fill="#FFFFFF" d="M696.2,917.8l-6.8,6.8c7,7,11.3,16.7,11.3,27.3c0,21.4-17.3,38.7-38.7,38.7s-38.7-17.3-38.7-38.7
					c0-19.7,14.8-36,33.8-38.3v9.8c-13.7,2.3-24.2,14.2-24.2,28.6c0,16,13,29,29,29c16,0,29-13,29-29c0-8-3.2-15.2-8.5-20.5
					l-6.8,6.8c3.5,3.5,5.7,8.3,5.7,13.7c0,10.7-8.7,19.3-19.3,19.3c-10.7,0-19.3-8.7-19.3-19.3c0-9,6.2-16.5,14.5-18.7v10.3
					c-2.9,1.7-4.8,4.8-4.8,8.3c0,5.3,4.3,9.7,9.7,9.7s9.7-4.3,9.7-9.7c0-3.6-2-6.6-4.8-8.3v-40H662c-26.7,0-48.3,21.6-48.3,48.3
					c0,26.7,21.6,48.3,48.3,48.3c26.7,0,48.3-21.7,48.3-48.3C710.3,938.7,704.9,926.6,696.2,917.8z"/>
			</g>
			<g>
				<path fill="#FFFFFF" d="M778,497.7c8,0,14.5-6.5,14.5-14.5l0-29c0-8-6.5-14.5-14.5-14.5c-8,0-14.5,6.5-14.5,14.5v29
					C763.5,491.2,770,497.7,778,497.7z M772.2,453.7c0-3.2,2.6-5.8,5.8-5.8s5.8,2.6,5.8,5.8l0,30c0,3.2-2.6,5.8-5.8,5.8
					c-3.2,0-5.8-2.6-5.8-5.8V453.7z M803.6,483.2c0,14.5-12.3,24.6-25.6,24.6c-13.3,0-25.6-10.1-25.6-24.6h-8.2
					c0,16.5,13.1,30.1,29,32.5v15.9h9.7v-15.9c15.9-2.3,29-16,29-32.5H803.6z"/>
				<path fill="none" d="M720,430h116v116H720V430z"/>
			</g>
			<g>
				<path fill="none" d="M720,894h116v116H720V894z"/>
				<path fill="#FFFFFF" d="M773.2,976.2c0,2.7,2.2,4.8,4.8,4.8s4.8-2.2,4.8-4.8c0-2.7-2.2-4.8-4.8-4.8S773.2,973.5,773.2,976.2z
					 M773.2,908.5v19.3h9.7v-9.3c16.4,2.3,29,16.4,29,33.4c0,18.7-15.2,33.8-33.8,33.8s-33.8-15.2-33.8-33.8
					c0-8.1,2.9-15.5,7.6-21.4l26.2,26.2l6.8-6.8L752,917.1l0,0.1c-10.6,7.9-17.4,20.5-17.4,34.8c0,24,19.4,43.5,43.5,43.5
					s43.5-19.5,43.5-43.5S802,908.5,778,908.5H773.2z M807,952c0-2.7-2.2-4.8-4.8-4.8s-4.8,2.2-4.8,4.8s2.2,4.8,4.8,4.8
					S807,954.7,807,952z M749,952c0,2.7,2.2,4.8,4.8,4.8c2.7,0,4.8-2.2,4.8-4.8s-2.2-4.8-4.8-4.8C751.2,947.2,749,949.3,749,952z"/>
			</g>
			<g>
				<path fill="none" d="M604,546h116v116H604V546z"/>
				<path fill="#FFFFFF" d="M662,599.2c-5.3,0-9.7,4.3-9.7,9.7s4.3,9.7,9.7,9.7s9.7-4.3,9.7-9.7S667.3,599.2,662,599.2z M691,608.8
					c0-16-13-29-29-29s-29,13-29,29c0,10.7,5.8,20.1,14.5,25.1l4.9-8.4c-5.8-3.4-9.7-9.5-9.7-16.7c0-10.7,8.7-19.3,19.3-19.3
					c10.7,0,19.3,8.7,19.3,19.3c0,7.2-3.9,13.3-9.7,16.7l4.9,8.4C685.2,628.9,691,619.6,691,608.8z M662,560.5
					c-26.7,0-48.3,21.6-48.3,48.3c0,17.9,9.7,33.4,24.1,41.8l4.8-8.4c-11.5-6.7-19.3-19.1-19.3-33.4c0-21.4,17.3-38.7,38.7-38.7
					s38.7,17.3,38.7,38.7c0,14.3-7.8,26.8-19.3,33.4l4.8,8.4c14.4-8.4,24.1-23.9,24.1-41.8C710.3,582.1,688.7,560.5,662,560.5z"/>
			</g>
			<g>
				<path fill="#FFFFFF" d="M478.3,700.7c0-3.5-1.8-6.5-4.5-8.2L430,666.8l-43.7,25.6c-2.7,1.7-4.6,4.7-4.6,8.2V749
					c0,5.3,4.3,9.7,9.7,9.7h77.3c5.3,0,9.7-4.3,9.7-9.7L478.3,700.7z M430,724.8l-39.9-25l39.9-23.4l39.9,23.4L430,724.8z"/>
				<path fill="none" d="M372,662h116v116H372V662z"/>
			</g>
			<g>
				<path fill="none" d="M604,778h116v116H604V778z"/>
				<path fill="#FFFFFF" d="M623.3,807h87v-9.7h-87c-5.3,0-9.7,4.3-9.7,9.7v53.2H604v14.5h67.7v-14.5h-48.3V807z M715.2,816.7h-29
					c-2.7,0-4.8,2.2-4.8,4.8v48.3c0,2.7,2.2,4.8,4.8,4.8h29c2.7,0,4.8-2.2,4.8-4.8v-48.3C720,818.8,717.8,816.7,715.2,816.7z
					 M710.3,860.2H691v-33.8h19.3V860.2z"/>
			</g>
			<g>
				<path fill="#FFFFFF" d="M541.2,705.5h9.7v9.7h-9.7V705.5z M531.5,715.2h9.7v9.7h-9.7V715.2z M550.8,715.2h9.7v9.7h-9.7V715.2z
					 M560.5,705.5h9.7v9.7h-9.7V705.5z M521.8,705.5h9.7v9.7h-9.7V705.5z M579.8,676.5h-67.7c-5.3,0-9.7,4.3-9.7,9.7v67.7
					c0,5.3,4.4,9.7,9.7,9.7h67.7c5.3,0,9.7-4.4,9.7-9.7v-67.7C589.5,680.9,585.2,676.5,579.8,676.5z M531.5,749h-9.7v-9.7h9.7V749z
					 M550.8,749h-9.7v-9.7h9.7V749z M570.2,749h-9.7v-9.7h9.7V749z M579.8,715.2h-9.7v9.7h9.7v9.7h-9.7v-9.7h-9.7v9.7h-9.7v-9.7
					h-9.7v9.7h-9.7v-9.7h-9.7v9.7h-9.7v-9.7h9.7v-9.7h-9.7v-29h67.7V715.2z"/>
				<path fill="none" d="M488,662h116v116H488V662z"/>
			</g>
			<g>
				<path fill="#FFFFFF" d="M468.7,797.3h-77.3c-5.3,0-9.6,4.3-9.6,9.7l0,58c0,5.3,4.3,9.7,9.7,9.7h77.3c5.3,0,9.7-4.3,9.7-9.7v-58
					C478.3,801.7,474,797.3,468.7,797.3z M468.7,816.7L430,840.8l-38.7-24.2V807l38.7,24.2l38.7-24.2V816.7z"/>
				<path fill="none" d="M372,778h116v116H372V778z"/>
			</g>
			<g>
				<path fill="#FFFFFF" d="M579.4,575c-1-2.9-3.7-4.9-6.9-4.9h-53.2c-3.2,0-5.9,2-6.9,4.9l-10.1,29v38.7c0,2.7,2.2,4.8,4.8,4.8h4.8
					c2.7,0,4.8-2.2,4.8-4.8v-4.8h58v4.8c0,2.7,2.2,4.8,4.8,4.8h4.8c2.7,0,4.8-2.2,4.8-4.8V604L579.4,575z M519.4,623.3
					c-4,0-7.2-3.2-7.2-7.2s3.2-7.2,7.2-7.2c4,0,7.2,3.2,7.2,7.2S523.4,623.3,519.4,623.3z M572.6,623.3c-4,0-7.2-3.2-7.2-7.2
					s3.2-7.2,7.2-7.2s7.2,3.2,7.2,7.2S576.6,623.3,572.6,623.3z M512.2,599.2l7.2-21.8h53.2l7.2,21.8H512.2z"/>
				<path fill="none" d="M488,546h116v116H488V546z"/>
			</g>
			<g>
				<circle fill="#FFFFFF" cx="430" cy="604" r="15.5"/>
				<path fill="#FFFFFF" d="M415.5,555.7l-8.8,9.7h-15.3c-5.3,0-9.7,4.3-9.7,9.7v58c0,5.3,4.3,9.7,9.7,9.7h77.3
					c5.3,0,9.7-4.3,9.7-9.7v-58c0-5.3-4.3-9.7-9.7-9.7h-15.3l-8.8-9.7H415.5z M430,628.2c-13.3,0-24.2-10.8-24.2-24.2
					c0-13.3,10.8-24.2,24.2-24.2s24.2,10.8,24.2,24.2C454.2,617.3,443.3,628.2,430,628.2z"/>
				<path fill="none" d="M372,546h116v116H372V546z"/>
			</g>
			<g>
				<path fill="none" d="M952,546h116v116H952V546z"/>
				<path fill="#FFFFFF" d="M1031.8,560.5c-8.4,0-16.5,3.9-21.8,10.1c-5.3-6.2-13.3-10.1-21.8-10.1c-14.9,0-26.6,11.7-26.6,26.6
					c0,18.2,16.4,33.2,41.3,55.8l7,6.4l7-6.4c24.9-22.6,41.3-37.5,41.3-55.8C1058.3,572.2,1046.7,560.5,1031.8,560.5z M1010.5,635.7
					l-0.5,0.5l-0.5-0.5c-23-20.9-38.2-34.6-38.2-48.6c0-9.6,7.3-16.9,16.9-16.9c7.4,0,14.7,4.8,17.2,11.4h9
					c2.6-6.6,9.8-11.4,17.3-11.4c9.6,0,16.9,7.3,16.9,16.9C1048.7,601.1,1033.5,614.8,1010.5,635.7z"/>
			</g>
			<g>
				<path fill="#FFFFFF" d="M921.3,576.7c-7-7-16.6-11.4-27.3-11.4c-21.4,0-38.6,17.3-38.6,38.7s17.3,38.7,38.6,38.7
					c18,0,33.1-12.3,37.4-29h-10.1c-4,11.3-14.7,19.3-27.3,19.3c-16,0-29-13-29-29s13-29,29-29c8,0,15.2,3.3,20.4,8.6l-15.6,15.6
					h33.8v-33.8L921.3,576.7z"/>
				<path fill="none" d="M836,546h116v116H836V546z"/>
			</g>
			<g>
				<path fill="none" d="M952,662h116v116H952V662z"/>
				<path fill="#FFFFFF" d="M1005.2,744.2h9.7v-29h-9.7V744.2z M1010,671.7c-26.7,0-48.3,21.6-48.3,48.3s21.6,48.3,48.3,48.3
					s48.3-21.6,48.3-48.3S1036.7,671.7,1010,671.7z M1010,758.7c-21.3,0-38.7-17.4-38.7-38.7s17.4-38.7,38.7-38.7
					s38.7,17.4,38.7,38.7S1031.3,758.7,1010,758.7z M1005.2,705.5h9.7v-9.7h-9.7V705.5z"/>
			</g>
			<g>
				<path fill="#FFFFFF" d="M778,574.5c5.6,0,10.2,4.5,10.2,10.2c0,5.6-4.5,10.1-10.2,10.1c-5.6,0-10.1-4.5-10.1-10.1
					C767.8,579.1,772.4,574.5,778,574.5 M778,618c14.4,0,29.5,7,29.5,10.2v5.3h-59v-5.3C748.5,625,763.6,618,778,618 M778,565.3
					c-10.7,0-19.3,8.7-19.3,19.3c0,10.7,8.7,19.3,19.3,19.3c10.7,0,19.3-8.7,19.3-19.3C797.3,574,788.7,565.3,778,565.3z M778,608.8
					c-12.9,0-38.7,6.5-38.7,19.3v14.5h77.3v-14.5C816.7,615.3,790.9,608.8,778,608.8z"/>
				<path fill="none" d="M720,546h116v116H720V546z"/>
			</g>
			<g>
				<path fill="none" d="M836,778h116v116H836V778z"/>
				<path fill="#FFFFFF" d="M927.8,869.8h-67.7v-67.7H894v-9.7h-33.8c-5.3,0-9.7,4.3-9.7,9.7v67.7c0,5.3,4.3,9.7,9.7,9.7h67.7
					c5.3,0,9.7-4.3,9.7-9.7V836h-9.7V869.8z M903.7,792.5v9.7H921l-47.5,47.5l6.8,6.8l47.5-47.5v17.3h9.7v-33.8H903.7z"/>
			</g>
			<g>
				<path fill="none" d="M720,778h116v116H720V778z"/>
				<path fill="#FFFFFF" d="M753.8,797.3h-9.7v24.2h9.7V797.3z M811.8,797.3h-9.7v43.5h9.7V797.3z M734.5,840.8h9.7v33.8h9.7v-33.8
					h9.7v-9.7h-29V840.8z M792.5,811.8h-9.7v-14.5h-9.7v14.5h-9.7v9.7h29V811.8z M773.2,874.7h9.7v-43.5h-9.7V874.7z M792.5,850.5
					v9.7h9.7v14.5h9.7v-14.5h9.7v-9.7H792.5z"/>
			</g>
			<g>
				<path fill="none" d="M604,662h116v116H604V662z"/>
				<path fill="#FFFFFF" d="M700.7,681.3h-77.3c-5.3,0-9.6,4.3-9.6,9.7l0,58c0,5.3,4.3,9.7,9.7,9.7h77.3c5.3,0,9.7-4.3,9.7-9.7v-58
					C710.3,685.7,706,681.3,700.7,681.3z M700.7,749h-77.3v-29h77.3V749z M700.7,700.7h-77.3V691h77.3V700.7z"/>
			</g>
			<g>
				<path fill="#FFFFFF" d="M584.7,802.2h-77.3c-5.3,0-9.6,4.3-9.6,9.7l0,48.3c0,5.3,4.3,9.7,9.7,9.7h77.3c5.3,0,9.7-4.3,9.7-9.7
					v-48.3C594.3,806.5,590,802.2,584.7,802.2z M541.2,816.7h9.7v9.7h-9.7V816.7z M541.2,831.2h9.7v9.7h-9.7V831.2z M526.7,816.7
					h9.7v9.7h-9.7V816.7z M526.7,831.2h9.7v9.7h-9.7V831.2z M521.8,840.8h-9.7v-9.7h9.7V840.8z M521.8,826.3h-9.7v-9.7h9.7V826.3z
					 M565.3,860.2h-38.7v-9.7h38.7V860.2z M565.3,840.8h-9.7v-9.7h9.7V840.8z M565.3,826.3h-9.7v-9.7h9.7V826.3z M579.8,840.8h-9.7
					v-9.7h9.7V840.8z M579.8,826.3h-9.7v-9.7h9.7V826.3z"/>
				<path fill="none" d="M488,778h116v116H488V778z M488,778h116v116H488V778z"/>
			</g>
			<g>
				<path fill="none" d="M836,662h116v116H836V662z"/>
				<path fill="#FFFFFF" d="M898.8,695.8h-9.7v19.3h-19.3v9.7h19.3v19.3h9.7v-19.3h19.3v-9.7h-19.3V695.8z M894,671.7
					c-26.7,0-48.3,21.6-48.3,48.3s21.6,48.3,48.3,48.3s48.3-21.6,48.3-48.3S920.7,671.7,894,671.7z M894,758.7
					c-21.3,0-38.7-17.4-38.7-38.7s17.4-38.7,38.7-38.7s38.7,17.4,38.7,38.7S915.3,758.7,894,758.7z"/>
			</g>
			<g>
				<path fill="#FFFFFF" d="M1034.2,792.5h-48.3c-5.3,0-9.6,4.3-9.6,9.7l0,77.3L1010,865l33.8,14.5v-77.3
					C1043.8,796.8,1039.5,792.5,1034.2,792.5z M1034.2,865l-24.2-10.5L985.8,865v-62.8h48.3V865z"/>
				<path fill="none" d="M952,778h116v116H952V778z"/>
			</g>
			<g>
				<path fill="#FFFFFF" d="M1026.9,497.7h-3.8l-1.3-1.3c4.7-5.5,7.6-12.6,7.6-20.4c0-17.4-14.1-31.4-31.4-31.4
					c-17.4,0-31.4,14.1-31.4,31.4c0,17.4,14.1,31.4,31.4,31.4c7.8,0,14.9-2.9,20.4-7.6l1.3,1.3v3.8l24.2,24.1l7.2-7.2L1026.9,497.7z
					 M997.9,497.7c-12,0-21.8-9.7-21.8-21.8s9.7-21.8,21.8-21.8c12,0,21.8,9.7,21.8,21.8S1009.9,497.7,997.9,497.7z"/>
				<path fill="none" d="M952,430h116v116H952V430z"/>
			</g>
			<g>
				<path fill="#FFFFFF" d="M775.6,768.3c5.3,0,9.7-4.3,9.7-9.7h-19.3C765.9,764,770.2,768.3,775.6,768.3z M807,739.3v-26.6
					c0-14.9-10.3-27.3-24.2-30.5v-3.3c0-4-3.2-7.2-7.2-7.2s-7.2,3.2-7.2,7.2v3.3c-13.8,3.3-24.2,15.7-24.2,30.5v26.6l-9.7,9.7v4.8
					h82.2V749L807,739.3z M797.3,744.2h-43.5v-31.4c0-12,9.7-21.8,21.8-21.8c12,0,21.8,9.7,21.8,21.8V744.2z"/>
				<path fill="none" d="M720,662h116v116H720V662z"/>
			</g>
			<g>
				<path fill="#FFFFFF" d="M430,903.7c-26.7,0-48.3,21.6-48.3,48.3s21.6,48.3,48.3,48.3s48.3-21.6,48.3-48.3S456.7,903.7,430,903.7
					z M454.2,969.3l-6.8,6.8L430,958.8l-17.3,17.3l-6.8-6.8l17.3-17.3l-17.3-17.3l6.8-6.8l17.3,17.3l17.3-17.3l6.8,6.8L436.8,952
					L454.2,969.3z"/>
				<path fill="none" d="M372,894h116v116H372V894z"/>
			</g>
			<g>
				<path fill="none" d="M836,894h116v116H836V894z"/>
				<path fill="#FFFFFF" d="M908.5,898.8h-29v9.7h29V898.8z M889.2,961.7h9.7v-29h-9.7V961.7z M928,929.7l6.9-6.9
					c-2.1-2.5-4.3-4.8-6.8-6.8l-6.9,6.9c-7.4-5.9-16.9-9.5-27.1-9.5c-24,0-43.5,19.5-43.5,43.5s19.4,43.5,43.5,43.5
					s43.5-19.5,43.5-43.5C937.5,946.6,933.9,937.1,928,929.7z M894,990.7c-18.7,0-33.8-15.2-33.8-33.8S875.3,923,894,923
					s33.8,15.2,33.8,33.8S912.7,990.7,894,990.7z"/>
			</g>
			<g>
				<path fill="none" d="M836,430h116v116H836V430z"/>
				<path fill="#FFFFFF" d="M911.2,456.8l-22-22v14.8c-19.1,2.4-33.8,18.6-33.8,38.3s14.8,36,33.8,38.3v-9.8
					c-13.7-2.3-24.2-14.2-24.2-28.6c0-14.4,10.5-26.3,24.2-28.6v18.9L911.2,456.8z M932.3,483.2c-0.8-6.7-3.5-13.2-7.9-18.8
					l-6.8,6.8c2.6,3.6,4.2,7.7,4.9,12H932.3z M898.8,516.5v9.8c6.7-0.8,13.2-3.4,18.9-7.8l-6.9-6.9
					C907.1,514.2,903.1,515.8,898.8,516.5z M917.6,504.8l6.8,6.8c4.3-5.6,7-12.1,7.9-18.8h-9.8C921.9,497.1,920.2,501.1,917.6,504.8
					z"/>
			</g>
			<g>
				<path fill="none" d="M372,430h116v116H372V430z"/>
				<path fill="#FFFFFF" d="M396.2,493.7V513l33.8,18.5l33.8-18.5v-19.3L430,512.2L396.2,493.7z M430,444.5l-53.2,29l53.2,29
					l43.5-23.7v33.4h9.7v-38.7L430,444.5z"/>
			</g>
			<g>
				<path fill="none" d="M488,430h116v116H488V430z"/>
				<path fill="#FFFFFF" d="M546,439.7c-26.7,0-48.3,21.6-48.3,48.3c0,26.7,21.6,48.3,48.3,48.3s48.3-21.6,48.3-48.3
					S572.7,439.7,546,439.7z M541.2,526.3c-19.1-2.4-33.8-18.6-33.8-38.3c0-3,0.4-5.9,1-8.7l23.2,23.2v4.8c0,5.3,4.3,9.7,9.7,9.7
					V526.3z M574.5,514.1c-1.2-3.9-4.9-6.7-9.2-6.7h-4.8v-14.5c0-2.7-2.2-4.8-4.8-4.8h-29v-9.7h9.7c2.7,0,4.8-2.2,4.8-4.8v-9.7h9.7
					c5.3,0,9.7-4.3,9.7-9.7v-2c14.2,5.7,24.2,19.6,24.2,35.8C584.7,498.1,580.8,507.2,574.5,514.1z"/>
			</g>
			<g>
				<rect x="488" y="894" fill="none" width="116" height="116"/>
				<rect x="488" y="894" fill="none" width="116" height="116"/>
				<path fill="#FFFFFF" d="M579.8,908.5h-67.7c-5.3,0-9.7,4.3-9.7,9.7v67.7c0,5.3,4.4,9.7,9.7,9.7h67.7c5.3,0,9.7-4.4,9.7-9.7
					v-67.7C589.5,912.9,585.2,908.5,579.8,908.5z M514.6,930.3h9.7v-9.7h7.2v9.7h9.7v7.2h-9.7v9.7h-7.2v-9.7h-9.7V930.3z
					 M579.8,985.8h-67.7l67.7-67.7V985.8z M570.2,976.2v-7.2H546v7.2H570.2z"/>
			</g>
		</g>
	</g>
</g>
</svg>
