<svg id="Layer_1" xmlns="http://www.w3.org/2000/svg" xmlns:xlink="http://www.w3.org/1999/xlink" viewBox="0 0 2245.7 1083"><style>.st0{fill:none;} .st1{clip-path:url(#SVGID_2_);} .st2{fill:#00579B;} .st3{fill:#FFFFFF;fill-opacity:0.2;} .st4{fill:#EEEEEE;} .st5{clip-path:url(#SVGID_4_);} .st6{fill:#44A9DF;} .st7{clip-path:url(#SVGID_2_);fill:#E0E0E0;} .st8{fill:#398BCB;} .st9{clip-path:url(#SVGID_2_);fill:#BE3A26;fill-opacity:5.000000e-02;} .st10{clip-path:url(#SVGID_2_);fill:#FFFFFF;fill-opacity:0.1;} .st11{clip-path:url(#SVGID_6_);} .st12{fill:#FFFFFF;fill-opacity:5.000000e-02;} .st13{fill:#262626;fill-opacity:2.000000e-02;} .st14{clip-path:url(#SVGID_2_);fill:#BE3A26;fill-opacity:0.15;}</style><path class="st0" d="M721.6 140.3H1524v802.4H721.6z"/><defs><path id="SVGID_1_" d="M1470.3 442.6l-29.8-21.9V299.1c0-27.6-22.6-50.2-50.2-50.2h-182.9l-54.8-40.4c-8.3-6.1-18.6-9.8-29.8-9.8s-21.4 3.7-29.7 9.8l-54.8 40.4h-183c-27.6 0-50.2 22.6-50.2 50.2v121.6l-29.7 21.9C763 451.7 755 466.4 755 483v351.1c0 27.6 22.6 50.2 50.2 50.2h635.2c27.6 0 50.2-22.6 50.2-50.2V483c0-16.6-8-31.2-20.3-40.4z"/></defs><clipPath id="SVGID_2_"><use xlink:href="#SVGID_1_" overflow="visible"/></clipPath><g class="st1"><path class="st2" d="M755.1 483l367.7 351.1L1490.6 483zM1470.3 442.6l-317.6-234c-8.3-6.1-18.6-9.8-29.8-9.8-11.1 0-21.4 3.7-29.7 9.8l-317.6 234c-12.4 9.1-20.4 23.8-20.4 40.4h735.6c-.1-16.6-8.2-31.2-20.5-40.4z"/><path class="st3" d="M775.5 446.8l317.6-234c8.3-6.1 18.6-9.8 29.7-9.8 11.1 0 21.4 3.7 29.8 9.8l317.6 234c11.3 8.4 18.9 21.4 20.2 36.2h.3c0-16.6-8-31.2-20.4-40.4l-317.6-234c-8.3-6.1-18.6-9.8-29.8-9.8-11.1 0-21.4 3.7-29.7 9.8l-317.6 234c-12.4 9.1-20.4 23.8-20.4 40.4h.3c1.1-14.8 8.7-27.8 20-36.2z"/></g><g class="st1"><image width="2752" height="2543" xlink:href="F530F5E950CD77C4.png" transform="matrix(.24 0 0 .24 796.89 240.63)" overflow="visible" opacity=".2"/><path class="st4" d="M1428.5 834.1H817.2c-6.6 0-12-5.4-12-12V261c0-6.6 5.4-12 12-12h611.2c6.6 0 12 5.4 12 12v561.1c.1 6.6-5.3 12-11.9 12z"/></g><g class="st1"><defs><path id="SVGID_3_" d="M805.2 483h635.2v351.1H805.2z"/></defs><clipPath id="SVGID_4_"><use xlink:href="#SVGID_3_" overflow="visible"/></clipPath><g class="st5"><path class="st6" d="M1132.8 465.9h-88v36.3h50.6c-1.3 8.5-6.8 20.4-18.7 28.5-7.7 5.2-18.1 8.9-31.8 8.9-24.4-.1-45.1-16.5-52.5-38.7-1.9-5.7-2.9-11.7-2.9-17.9s1-12.2 2.9-17.9c7.4-22.2 28.1-38.7 52.5-38.7 17.9 0 29.4 8 35.5 13.7l27.3-26.6c-16.2-15.1-37.4-24.4-62.7-24.5h-.1-.1c-36.6.1-68.3 21.1-83.8 51.8-6.4 12.7-10 27-10 42.2s3.6 29.5 10 42.2c15.4 30.6 47.1 51.7 83.8 51.8h.2c25.3-.1 46.5-8.4 62.1-22.7 17.8-16.4 28-40.6 28-69.2.1-7.7-.9-13.3-2.3-19.2zM1294 440.8c-15.5-30.7-47.3-51.8-84-51.8h-56.1v188h56.1c36.7 0 68.6-21.1 84-51.8 6.4-12.7 10-27 10-42.2 0-15.2-3.6-29.5-10-42.2zm-31.4 60.1c-7.4 22.2-28.2 38.8-52.6 38.8h-18.7V426.4h18.7c24.5 0 45.2 16.5 52.6 38.8 1.9 5.7 2.9 11.7 2.9 17.9 0 6.1-1 12.1-2.9 17.8z"/></g></g><path class="st7" d="M805.2 299.1c0-27.6 22.6-50.2 50.2-50.2h534.9c27.6 0 50.2 22.6 50.2 50.2V483H805.2V299.1z"/><g class="st1"><image width="2960" height="1776" xlink:href="F530F5E950CD77C3.png" transform="matrix(.24 0 0 .24 746.74 474.67)" overflow="visible" opacity=".2"/><path class="st8" d="M1440.5 884.2H755.1V483z"/></g><path class="st9" d="M1440.5 884.2L755.1 483v4.2l678.2 397z"/><g class="st1"><image width="2960" height="1776" xlink:href="F530F5E950CD77D8.png" transform="matrix(.24 0 0 .24 796.89 474.67)" overflow="visible" opacity=".2"/><path class="st6" d="M805.2 884.2h685.4V483z"/></g><path class="st10" d="M805.2 884.2h7.2l678.2-397V483z"/><g class="st1"><defs><path id="SVGID_5_" d="M805.2 299.1c0-27.6 22.6-50.2 50.2-50.2h534.9c27.6 0 50.2 22.6 50.2 50.2V483H805.2V299.1z"/></defs><clipPath id="SVGID_6_"><use xlink:href="#SVGID_5_" overflow="visible"/></clipPath><g class="st11"><path class="st8" d="M1132.8 465.9h-88v36.3h50.6c-1.3 8.5-6.8 20.4-18.7 28.5-7.7 5.2-18.1 8.9-31.8 8.9-24.4-.1-45.1-16.5-52.5-38.7-1.9-5.7-2.9-11.7-2.9-17.9s1-12.2 2.9-17.9c7.4-22.2 28.1-38.7 52.5-38.7 17.9 0 29.4 8 35.5 13.7l27.3-26.6c-16.2-15.1-37.4-24.4-62.7-24.5h-.1-.1c-36.6.1-68.3 21.1-83.8 51.8-6.4 12.7-10 27-10 42.2s3.6 29.5 10 42.2c15.4 30.6 47.1 51.7 83.8 51.8h.2c25.3-.1 46.5-8.4 62.1-22.7 17.8-16.4 28-40.6 28-69.2.1-7.7-.9-13.3-2.3-19.2zM1294 440.8c-15.5-30.7-47.3-51.8-84-51.8h-56.1v188h56.1c36.7 0 68.6-21.1 84-51.8 6.4-12.7 10-27 10-42.2 0-15.2-3.6-29.5-10-42.2zm-31.4 60.1c-7.4 22.2-28.2 38.8-52.6 38.8h-18.7V426.4h18.7c24.5 0 45.2 16.5 52.6 38.8 1.9 5.7 2.9 11.7 2.9 17.9 0 6.1-1 12.1-2.9 17.8z"/></g></g><g class="st1"><path class="st12" d="M805.2 483h635.2v4.2H805.2z"/><path class="st13" d="M805.2 478.8h635.2v4.2H805.2z"/></g><path class="st14" d="M1440.5 880H805.2c-27.6 0-50.2-22.6-50.2-50.2v4.2c0 27.6 22.6 50.2 50.2 50.2h635.2c27.6 0 50.2-22.6 50.2-50.2v-4.2c0 27.7-22.6 50.2-50.1 50.2z"/></svg>