<?xml version="1.0" encoding="UTF-8" standalone="no"?>
<svg width="736px" height="687px" viewBox="0 0 736 687" version="1.1" xmlns="http://www.w3.org/2000/svg" xmlns:xlink="http://www.w3.org/1999/xlink">
    <!-- Generator: Sketch 3.7.2 (28276) - http://www.bohemiancoding.com/sketch -->
    <title>Slice 1</title>
    <desc>Created with Sketch.</desc>
    <defs></defs>
    <g id="Page-1" stroke="none" stroke-width="1" fill="none" fill-rule="evenodd">
        <g id="Unknown" transform="translate(-34.000000, -58.000000)">
            <g id="Page-1">
                <g id="Unknown">
                    <polygon id="Shape" points="0.6 0.3 803 0.3 803 802.7 0.6 802.7"></polygon>
                    <g id="Group" transform="translate(34.000000, 58.000000)">
                        <path d="M0.1,285 L367.8,636.1 L735.6,285 L0.1,285 L0.1,285 Z M715.3,244.6 L397.7,10.6 C389.4,4.5 379.1,0.8 367.9,0.8 C356.8,0.8 346.5,4.5 338.2,10.6 L20.6,244.6 C8.2,253.7 0.2,268.4 0.2,285 L735.8,285 C735.7,268.4 727.6,253.8 715.3,244.6 L715.3,244.6 L715.3,244.6 Z" id="Shape" fill="#00579B"></path>
                        <path d="M20.5,248.8 L338.1,14.8 C346.4,8.7 356.7,5 367.8,5 C378.9,5 389.2,8.7 397.6,14.8 L715.2,248.8 C726.5,257.2 734.1,270.2 735.4,285 L735.7,285 C735.7,268.4 727.7,253.8 715.3,244.6 L397.7,10.6 C389.4,4.5 379.1,0.8 367.9,0.8 C356.8,0.8 346.5,4.5 338.2,10.6 L20.6,244.6 C8.2,253.7 0.2,268.4 0.2,285 L0.5,285 C1.6,270.2 9.2,257.2 20.5,248.8 L20.5,248.8 L20.5,248.8 Z" id="Shape" fill-opacity="0.2" fill="#FFFFFF"></path>
                    </g>
                    <g id="Group" transform="translate(84.000000, 109.000000)" fill="#EEEEEE">
                        <path d="M623.5,585.1 L12.2,585.1 C5.6,585.1 0.2,579.7 0.2,573.1 L0.2,12 C0.2,5.4 5.6,-5.68434189e-14 12.2,-5.68434189e-14 L623.4,-5.68434189e-14 C630,-5.68434189e-14 635.4,5.4 635.4,12 L635.4,573.1 C635.5,579.7 630.1,585.1 623.5,585.1 L623.5,585.1 L623.5,585.1 Z" id="Shape"></path>
                    </g>
                    <path d="M411.8,325.9 L323.8,325.9 L323.8,362.2 L374.4,362.2 C373.1,370.7 367.6,382.6 355.7,390.7 C348,395.9 337.6,399.6 323.9,399.6 C299.5,399.5 278.8,383.1 271.4,360.9 C269.5,355.2 268.5,349.2 268.5,343 C268.5,336.8 269.5,330.8 271.4,325.1 C278.8,302.9 299.5,286.4 323.9,286.4 C341.8,286.4 353.3,294.4 359.4,300.1 L386.7,273.5 C370.5,258.4 349.3,249.1 324,249 L323.9,249 L323.8,249 C287.2,249.1 255.5,270.1 240,300.8 C233.6,313.5 230,327.8 230,343 C230,358.2 233.6,372.5 240,385.2 C255.4,415.8 287.1,436.9 323.8,437 L324,437 C349.3,436.9 370.5,428.6 386.1,414.3 C403.9,397.9 414.1,373.7 414.1,345.1 C414.2,337.4 413.2,331.8 411.8,325.9 L411.8,325.9 L411.8,325.9 Z M573,300.8 C557.5,270.1 525.7,249 489,249 L432.9,249 L432.9,437 L489,437 C525.7,437 557.6,415.9 573,385.2 C579.4,372.5 583,358.2 583,343 C583,327.8 579.4,313.5 573,300.8 L573,300.8 L573,300.8 Z M541.6,360.9 C534.2,383.1 513.4,399.7 489,399.7 L470.3,399.7 L470.3,286.4 L489,286.4 C513.5,286.4 534.2,302.9 541.6,325.2 C543.5,330.9 544.5,336.9 544.5,343.1 C544.5,349.2 543.5,355.2 541.6,360.9 L541.6,360.9 L541.6,360.9 Z" id="Shape" fill="#44A9DF"></path>
                    <path d="M84.2,159.1 C84.2,131.5 106.8,108.9 134.4,108.9 L669.3,108.9 C696.9,108.9 719.5,131.5 719.5,159.1 L719.5,343 L84.2,343 L84.2,159.1 L84.2,159.1 L84.2,159.1 Z" id="Shape" fill="#E0E0E0"></path>
                    <g id="Group" transform="translate(34.000000, 343.000000)" fill="#398BCB">
                        <path d="M685.5,401.2 C685.5,401.2 78.5351566,401.199988 51.4003906,401.2 C24.2656246,401.200012 0.1,377.198242 0.1,356.154297 L0.1,0 L685.5,401.2 Z" id="Shape"></path>
                    </g>
                    <polygon id="Shape" fill-opacity="0.05" fill="#BE3A26" points="719.5 744.2 34.1 343 34.1 347.2 712.3 744.2"></polygon>
                    <g id="Group" transform="translate(84.000000, 343.000000)" fill="#44A9DF">
                        <path d="M0.2,401.2 C0.2,401.2 616.9922,401.199988 639.483398,401.2 C661.974597,401.200012 685.600024,377.256836 685.6,351.037109 C685.599976,324.817383 685.6,0 685.6,0 L0.2,401.2 Z" id="Shape"></path>
                    </g>
                    <polygon id="Shape" fill-opacity="0.1" fill="#FFFFFF" points="84.2 744.2 91.4 744.2 769.6 347.2 769.6 343"></polygon>
                    <path d="M411.8,325.9 L323.8,325.9 L323.8,362.2 L374.4,362.2 C373.1,370.7 367.6,382.6 355.7,390.7 C348,395.9 337.6,399.6 323.9,399.6 C299.5,399.5 278.8,383.1 271.4,360.9 C269.5,355.2 268.5,349.2 268.5,343 C268.5,336.8 269.5,330.8 271.4,325.1 C278.8,302.9 299.5,286.4 323.9,286.4 C341.8,286.4 353.3,294.4 359.4,300.1 L386.7,273.5 C370.5,258.4 349.3,249.1 324,249 L323.9,249 L323.8,249 C287.2,249.1 255.5,270.1 240,300.8 C233.6,313.5 230,327.8 230,343 C230,358.2 233.6,372.5 240,385.2 C255.4,415.8 287.1,436.9 323.8,437 L324,437 C349.3,436.9 370.5,428.6 386.1,414.3 C403.9,397.9 414.1,373.7 414.1,345.1 C414.2,337.4 413.2,331.8 411.8,325.9 L411.8,325.9 L411.8,325.9 Z M573,300.8 C557.5,270.1 525.7,249 489,249 L432.9,249 L432.9,437 L489,437 C525.7,437 557.6,415.9 573,385.2 C579.4,372.5 583,358.2 583,343 C583,327.8 579.4,313.5 573,300.8 L573,300.8 L573,300.8 Z M541.6,360.9 C534.2,383.1 513.4,399.7 489,399.7 L470.3,399.7 L470.3,286.4 L489,286.4 C513.5,286.4 534.2,302.9 541.6,325.2 C543.5,330.9 544.5,336.9 544.5,343.1 C544.5,349.2 543.5,355.2 541.6,360.9 L541.6,360.9 L541.6,360.9 Z" id="Shape" fill="#398BCB"></path>
                    <g id="Group" transform="translate(84.000000, 338.000000)">
                        <polygon id="Shape" fill-opacity="0.05" fill="#FFFFFF" points="0.2 5 635.4 5 635.4 9.2 0.2 9.2"></polygon>
                        <polygon id="Shape" fill-opacity="0.02" fill="#262626" points="0.2 0.8 635.4 0.8 635.4 5 0.2 5"></polygon>
                    </g>
                    <path d="M719.5,740 L84.2,740 C56.6,740 34,717.4 34,689.8 L34,694 C34,721.6 56.6,744.2 84.2,744.2 L719.4,744.2 C747,744.2 769.6,721.6 769.6,694 L769.6,689.8 C769.6,717.5 747,740 719.5,740 L719.5,740 L719.5,740 Z" id="Shape" fill-opacity="0.15" fill="#BE3A26"></path>
                </g>
            </g>
        </g>
    </g>
</svg>