<svg xmlns="http://www.w3.org/2000/svg" xmlns:xlink="http://www.w3.org/1999/xlink" width="720" height="720" viewBox="0 0 720 720"><symbol id="e" viewBox="0 -24 24 24"><path fill="none" d="M24-24H0V0h24z"/><path fill="#FFF" d="M3-18h18v2H3v-2zm0 5h18v2H3v-2zm0 7v-2h18v2H3z"/></symbol><defs><path id="a" d="M0 144h720v487H0z"/></defs><clipPath id="b"><use xlink:href="#a" overflow="visible"/></clipPath><g clip-path="url(#b)"><path fill="none" stroke="#FFF" stroke-miterlimit="10" stroke-dasharray="3,3" d="M286.5 328v-61"/><path fill="#FFF" d="M291.92 269l-4.99-8.64-4.99 8.64z"/></g><g clip-path="url(#b)"><path fill="none" stroke="#FFF" stroke-miterlimit="10" stroke-dasharray="4,4" d="M265.03 311.24c-11.45-3.49-25.21-3.03-38.55 2.2-10.72 4.2-19.54 10.85-25.72 18.67"/><path fill="#FFF" d="M197.61 328.09l-.9 9.94 9.05-4.19z"/></g><path clip-path="url(#b)" fill="none" stroke="#FFF" stroke-miterlimit="10" d="M409.5 219.5h20v18h-20zm34 0h20v18h-20z"/><circle clip-path="url(#b)" fill="none" stroke="#FFF" stroke-miterlimit="10" cx="419.46" cy="228.56" r="6.32"/><path clip-path="url(#b)" fill="none" stroke="#FFF" stroke-miterlimit="10" d="M447.63 233.5l6.17-10.7 6.18 10.7z"/><circle clip-path="url(#b)" fill="none" stroke="#FFF" stroke-miterlimit="10" stroke-dasharray="4" cx="454.15" cy="626.08" r="16.82"/><path clip-path="url(#b)" fill="none" stroke="#FFF" stroke-miterlimit="10" d="M449.16 630.5l4.99-8.63 4.99 8.63z"/><circle clip-path="url(#b)" fill="none" stroke="#FFF" stroke-miterlimit="10" cx="531.89" cy="508.1" r="10.79"/><g clip-path="url(#b)"><path fill="none" stroke="#FFF" stroke-miterlimit="10" d="M558.3 505.26c5.3 0 5.3 5.69 10.6 5.69s5.3-5.69 10.61-5.69c5.3 0 5.3 5.69 10.6 5.69s5.3-5.69 10.6-5.69 5.3 5.69 10.61 5.69c5.3 0 5.3-5.69 10.61-5.69 5.3 0 5.3 5.69 10.61 5.69s5.31-5.69 10.61-5.69 5.31 5.69 10.61 5.69"/></g><circle clip-path="url(#b)" fill="none" stroke="#FFF" stroke-miterlimit="10" cx="531.89" cy="542.33" r="10.79"/><g clip-path="url(#b)"><path fill="none" stroke="#FFF" stroke-miterlimit="10" d="M558.3 539.48c5.3 0 5.3 5.69 10.6 5.69s5.3-5.69 10.61-5.69c5.3 0 5.3 5.69 10.6 5.69s5.3-5.69 10.6-5.69 5.3 5.69 10.61 5.69c5.3 0 5.3-5.69 10.61-5.69 5.3 0 5.3 5.69 10.61 5.69s5.31-5.69 10.61-5.69 5.31 5.69 10.61 5.69"/></g><circle clip-path="url(#b)" fill="none" stroke="#FFF" stroke-miterlimit="10" cx="531.89" cy="576.55" r="10.79"/><g clip-path="url(#b)"><path fill="none" stroke="#FFF" stroke-miterlimit="10" d="M558.3 573.7c5.3 0 5.3 5.69 10.6 5.69s5.3-5.69 10.61-5.69c5.3 0 5.3 5.69 10.6 5.69s5.3-5.69 10.6-5.69 5.3 5.69 10.61 5.69c5.3 0 5.3-5.69 10.61-5.69 5.3 0 5.3 5.69 10.61 5.69s5.31-5.69 10.61-5.69 5.31 5.69 10.61 5.69"/></g><path clip-path="url(#b)" fill="none" stroke="#FFF" stroke-miterlimit="10" d="M456.5 300v-41m-6.5-.5h13m-13 42h13M699.5 643V211m-6.5-.5h13M22.5 643V211m-6.5-.5h13m654 447h13"/><g clip-path="url(#b)" fill="#FFF"><path d="M244.9 347.5h-.47v-5.1l-1.57.68v-.44l1.98-.82h.07v5.68zm5.37-1.83h.89v.39h-.89v1.44h-.46v-1.44h-2.68v-.27l2.63-3.98h.51v3.86zm-2.58 0h2.11v-3.27l-.22.39-1.89 2.88zm7.38 0h.89v.39h-.89v1.44h-.46v-1.44h-2.68v-.27l2.63-3.98h.51v3.86zm-2.58 0h2.11v-3.27l-.22.39-1.89 2.88zm8.11-.42c0 .32-.04.62-.11.9s-.18.53-.32.74-.33.38-.55.5c-.22.12-.49.19-.8.19-.31 0-.57-.06-.8-.19-.22-.12-.41-.29-.56-.5s-.26-.46-.33-.74c-.07-.28-.11-.58-.11-.9v-1.18c0-.32.04-.62.11-.9s.18-.53.33-.74c.15-.21.33-.38.56-.51.22-.12.49-.19.8-.19.31 0 .58.06.8.19.22.12.41.29.56.5.15.21.25.46.33.74.07.28.11.58.11.9v1.19zm-3.11.07c0 .11 0 .21.01.3l2.57-2.32c-.04-.17-.09-.32-.15-.46s-.15-.27-.25-.37c-.1-.1-.22-.19-.37-.25-.14-.06-.3-.09-.49-.09-.24 0-.45.05-.62.15s-.3.24-.41.41-.18.37-.23.59c-.05.22-.07.46-.07.7v1.34zm2.64-1.33c0-.09 0-.17-.01-.25l-2.55 2.32c.04.16.09.31.16.45s.15.26.25.36c.1.1.22.18.36.24.14.06.3.09.48.09.24 0 .45-.05.62-.15.17-.1.3-.24.41-.41s.18-.37.22-.59c.05-.22.07-.46.07-.7v-1.36zm10.04.34h-3.48v-.41h3.48v.41zm0 1.6h-3.48v-.41h3.48v.41zm7.01-1.53h.47c.18 0 .35-.03.52-.08.16-.05.3-.12.42-.21s.22-.21.29-.34a.99.99 0 0 0 .11-.47c0-.18-.03-.35-.09-.49s-.14-.27-.24-.37c-.1-.1-.23-.17-.38-.23a1.588 1.588 0 0 0-.99 0c-.15.06-.28.13-.39.24s-.2.22-.26.37-.1.31-.1.48h-.47c.01-.22.05-.43.14-.62s.21-.36.36-.5.33-.25.54-.33c.21-.08.44-.12.68-.12.24 0 .46.04.67.11.2.07.38.17.53.31.15.13.26.3.34.49s.12.42.12.67c0 .14-.02.28-.07.4s-.11.25-.2.36c-.09.11-.19.21-.31.3s-.26.16-.41.21c.35.1.62.27.81.51.19.24.28.53.28.86 0 .26-.04.48-.13.68-.09.2-.21.37-.37.51s-.34.24-.55.32-.44.11-.69.11c-.25 0-.48-.04-.7-.11a1.592 1.592 0 0 1-.96-.83c-.1-.2-.15-.43-.15-.68h.46c.01.19.04.36.11.51a1.218 1.218 0 0 0 .72.64c.16.06.34.09.53.09s.36-.03.51-.08c.16-.05.29-.13.41-.23s.2-.23.27-.38c.06-.15.1-.33.1-.52 0-.21-.04-.39-.12-.53-.08-.15-.18-.27-.31-.36s-.28-.16-.46-.21c-.17-.04-.36-.07-.55-.07h-.47v-.41zm10.5 2.78c.16 0 .3-.02.45-.07a1.14 1.14 0 0 0 .65-.51c.07-.12.11-.26.12-.41h.45c-.01.2-.06.39-.16.55-.09.17-.22.32-.37.44a1.75 1.75 0 0 1-1.14.39c-.31 0-.58-.06-.81-.18s-.42-.27-.57-.47-.27-.42-.34-.67-.12-.52-.12-.79v-.16c0-.27.04-.54.12-.79s.19-.48.34-.67.34-.35.57-.47.5-.18.8-.18c.23 0 .45.04.65.11s.37.18.52.31c.15.13.26.29.35.48s.13.38.14.6h-.45a1.06 1.06 0 0 0-.11-.44c-.06-.13-.15-.25-.26-.35-.11-.1-.23-.18-.38-.23s-.3-.08-.47-.08c-.24 0-.45.05-.63.15-.17.1-.31.23-.42.39-.11.16-.19.34-.24.55-.05.21-.08.41-.08.62v.16c0 .21.03.42.08.63.05.21.13.39.24.55s.25.29.42.39c.19.1.4.15.65.15zm2.84-1.86c0-.29.05-.56.13-.82s.21-.48.37-.68c.16-.19.36-.35.59-.46.23-.11.5-.17.79-.17.3 0 .56.06.79.17.23.12.43.27.59.46.16.19.29.42.37.68s.13.53.13.82v.13c0 .29-.05.56-.13.82s-.21.48-.37.68c-.16.19-.36.35-.59.46s-.5.17-.79.17-.56-.06-.79-.17-.43-.27-.59-.46c-.16-.19-.29-.42-.37-.68s-.13-.53-.13-.82v-.13zm.47.13c0 .22.03.44.09.65.06.21.15.39.27.55s.27.29.44.38c.18.1.38.14.61.14.23 0 .43-.05.61-.14.18-.1.32-.22.44-.38s.21-.34.27-.55c.06-.21.09-.42.09-.65v-.13c0-.22-.03-.44-.09-.64-.06-.21-.15-.39-.27-.55s-.27-.29-.45-.39-.38-.15-.61-.15-.43.05-.61.15-.32.23-.44.39-.21.34-.27.55a2.3 2.3 0 0 0-.09.64v.13zm4.68-3.95h1.97v5.59h1.43v.41h-3.4v-.41h1.5v-5.17h-1.5v-.42z"/></g><g clip-path="url(#b)" fill="#FFF"><path d="M133.88 337.13h1.73v.46h-1.73v1.86h-.47v-1.86h-1.7v-.46h1.7v-1.82h.47v1.82zm6.4-2.52l-2.43 5.42h-.49l2.41-5.27h-3.23v-.42h3.74v.27zm4.65 5.42h-3.57v-.36l1.86-2.11c.14-.16.26-.31.38-.45s.22-.28.3-.42.15-.28.2-.42.07-.29.07-.43a1.193 1.193 0 0 0-.33-.84c-.1-.1-.23-.18-.38-.24s-.31-.09-.49-.09c-.2 0-.38.03-.54.1s-.29.16-.4.28-.19.26-.25.42-.09.34-.09.53h-.47c0-.23.05-.46.13-.66s.2-.39.35-.55.33-.28.54-.37.45-.14.72-.14c.25 0 .48.04.68.11s.38.18.53.32.26.3.34.49.12.4.12.63c0 .19-.03.37-.1.55s-.15.35-.26.52-.23.33-.36.49-.27.31-.4.46l-1.59 1.79h2.99v.39zm4.92-2.25c0 .32-.04.62-.11.9s-.18.53-.32.74-.33.38-.55.5-.49.19-.8.19c-.31 0-.57-.06-.8-.19s-.41-.29-.56-.5-.26-.46-.33-.74-.11-.58-.11-.9v-1.18c0-.32.04-.62.11-.9s.18-.53.33-.74.33-.38.56-.51.49-.19.8-.19c.31 0 .58.06.8.19s.41.29.56.5.25.46.33.74.11.58.11.9v1.19zm-3.11.07c0 .11 0 .21.01.3l2.57-2.32c-.04-.17-.09-.32-.15-.46s-.15-.27-.25-.37-.22-.19-.37-.25-.3-.09-.49-.09c-.24 0-.45.05-.62.15s-.3.24-.41.41-.18.37-.23.59-.07.46-.07.7v1.34zm2.65-1.34c0-.09 0-.17-.01-.25l-2.55 2.32c.04.16.09.31.16.45s.15.26.25.36.22.18.36.24.3.09.48.09c.24 0 .45-.05.62-.15s.3-.24.41-.41.18-.37.22-.59.07-.46.07-.7v-1.36zm10.03.34h-3.48v-.41h3.48v.41zm0 1.61h-3.48v-.41h3.48v.41zm7.75-3.74v1.08h1.57v.38h-1.57v2.66c0 .16.03.3.08.41s.11.2.2.26.18.11.29.14.23.04.36.04.26-.01.4-.03.25-.04.35-.05l.07.36c-.11.04-.25.08-.41.1s-.33.03-.49.03c-.19 0-.36-.02-.52-.07s-.3-.12-.41-.22-.21-.23-.28-.39-.1-.36-.11-.59v-2.66h-1.18v-.38h1.18v-1.08h.47zm6.15 5.31c-.03-.09-.05-.18-.07-.29s-.03-.21-.03-.32c-.08.1-.17.19-.28.27s-.22.16-.35.22-.26.11-.41.14-.3.05-.46.05a1.627 1.627 0 0 1-1-.33c-.13-.1-.23-.23-.3-.38s-.11-.31-.11-.49c0-.24.05-.45.16-.62s.25-.31.43-.41.39-.18.63-.23.49-.07.75-.07h.91v-.48a.886.886 0 0 0-.33-.72c-.1-.08-.23-.14-.37-.19s-.3-.06-.46-.06c-.15 0-.29.02-.43.06s-.26.1-.36.17-.19.16-.26.27-.1.22-.11.36h-.47c.01-.18.06-.35.14-.5s.21-.28.35-.39.32-.2.52-.26.41-.09.63-.09.43.03.63.09.37.14.51.26.26.26.34.43.13.37.13.6v2.05c0 .14.01.28.04.43s.06.28.09.41v.05h-.46zm-1.54-.34c.16 0 .32-.02.47-.06s.29-.1.41-.17.24-.16.33-.27.17-.22.23-.34v-.93h-.85c-.21 0-.4.02-.59.05s-.36.08-.5.15-.26.17-.35.29-.13.27-.13.45c0 .13.03.24.08.34s.12.19.21.26.19.13.31.16.24.07.38.07zm6.87-1.73c0 .27-.03.54-.1.8s-.17.49-.3.69-.31.36-.52.48-.46.18-.74.18c-.27 0-.52-.06-.74-.17s-.4-.27-.55-.48l-.02.57h-.44v-6h.47v2.36c.14-.21.32-.38.54-.49s.46-.18.73-.18c.29 0 .54.06.75.18s.38.28.52.48.24.43.3.69.1.53.1.81v.08zm-.48-.09c0-.21-.02-.42-.07-.63s-.12-.4-.21-.56-.23-.3-.4-.4-.37-.15-.61-.15c-.14 0-.27.02-.39.06s-.23.1-.33.17-.19.16-.26.26-.14.21-.19.33v1.97c.05.11.12.22.2.31s.17.18.27.24.21.12.34.15.25.05.38.05c.24 0 .44-.05.6-.15s.29-.23.39-.4.17-.35.22-.56.07-.42.07-.63v-.06zm4.79 1.08c0-.13-.03-.24-.1-.34s-.15-.18-.27-.25-.24-.13-.39-.17-.31-.09-.47-.12c-.2-.04-.4-.09-.59-.15s-.36-.13-.51-.22-.27-.2-.36-.33-.13-.29-.13-.49c0-.18.05-.35.14-.49s.21-.26.36-.36.32-.17.51-.22.39-.08.59-.08c.23 0 .44.03.64.08s.37.14.52.25.27.24.36.4.14.33.14.54h-.47c0-.14-.04-.26-.11-.37s-.16-.2-.27-.27-.24-.13-.38-.17-.29-.06-.44-.06c-.14 0-.28.02-.41.04s-.25.08-.36.14-.19.14-.25.23-.1.2-.1.33.03.24.09.33.15.17.26.23.24.11.38.15.3.08.47.11c.21.04.42.1.61.16s.37.14.51.24.27.21.35.35.13.3.13.5-.05.37-.14.52-.22.27-.38.37-.33.17-.53.22-.4.07-.62.07c-.24 0-.46-.03-.67-.09s-.39-.14-.55-.25-.29-.24-.38-.4-.15-.33-.16-.53h.47c.02.17.07.31.15.42s.19.2.31.27.26.11.4.14.29.04.43.04.29-.02.43-.04.27-.08.38-.14.21-.14.28-.23.13-.23.13-.36z"/></g><g clip-path="url(#b)" fill="#FFF"><path d="M334.19 455.77l.01.47c.09-.16.2-.3.35-.4.15-.1.34-.15.57-.15.12 0 .23.01.32.04s.17.07.24.12c.07.05.12.11.17.18.05.07.08.14.11.22.09-.16.21-.29.37-.4s.35-.16.58-.16c.18 0 .33.03.46.09s.22.15.3.25c.08.11.13.23.16.37s.05.29.05.45v3.14h-.44v-3.14c0-.09-.01-.18-.03-.27a.77.77 0 0 0-.1-.25.656.656 0 0 0-.19-.18.714.714 0 0 0-.31-.06.712.712 0 0 0-.55.21.77.77 0 0 0-.14.21c-.03.08-.06.15-.07.23v3.24h-.44v-3.18c0-.09-.01-.18-.03-.26s-.05-.16-.1-.23a.494.494 0 0 0-.19-.16.684.684 0 0 0-.31-.06.712.712 0 0 0-.54.21c-.06.06-.11.13-.14.21-.04.08-.06.16-.08.25v3.23h-.44v-4.23h.41zm6.59 4.31c-.29 0-.56-.05-.8-.16s-.45-.26-.62-.45-.31-.41-.4-.66a2.64 2.64 0 0 1-.15-.8v-.17c0-.3.05-.58.15-.84.1-.26.23-.49.4-.68.17-.19.37-.34.6-.46.23-.11.48-.17.74-.17.28 0 .53.05.75.15s.4.24.54.42.26.38.34.62.12.49.12.75v.29h-3.16v.09c0 .22.04.43.11.63s.18.38.31.53a1.444 1.444 0 0 0 1.1.51c.26 0 .5-.04.71-.14.21-.1.39-.24.54-.43l.3.22c-.08.11-.17.21-.28.3-.11.09-.23.17-.36.24-.13.07-.28.12-.43.15-.17.04-.34.06-.51.06zm-.09-3.99a1.274 1.274 0 0 0-.94.41c-.12.13-.22.28-.3.45-.08.17-.13.36-.16.57h2.68v-.05c0-.17-.04-.34-.1-.51-.06-.17-.14-.31-.25-.44-.11-.13-.24-.23-.4-.31s-.33-.12-.53-.12zm3.51-.32l.04.79c.15-.26.35-.47.59-.63.25-.16.53-.24.84-.24.46 0 .82.14 1.06.42s.37.67.37 1.18V460h-.47v-2.7c0-.39-.09-.69-.27-.89s-.45-.31-.81-.31c-.15 0-.29.03-.43.07-.14.05-.26.12-.38.2s-.21.19-.3.3-.16.25-.21.38V460h-.47v-4.23h.44zm7.21 3.57c-.14.23-.33.41-.56.54-.23.13-.5.2-.82.2-.23 0-.44-.04-.62-.11-.18-.08-.33-.19-.45-.33-.12-.15-.21-.32-.28-.54s-.1-.45-.1-.72v-2.6h.46v2.61c0 .42.09.75.26.96s.42.33.77.33c.35 0 .64-.08.86-.24.22-.16.37-.38.46-.66v-3h.47V460h-.44l-.01-.66zm10.18-2.51h-3.48v-.41h3.48v.41zm0 1.6h-3.48v-.41h3.48v.41zm9.62-.5c0 .27-.03.54-.1.8s-.17.49-.3.69-.31.36-.52.48-.46.18-.74.18a1.523 1.523 0 0 1-1.29-.65l-.02.57h-.44v-6h.47v2.36c.14-.21.32-.38.54-.49s.46-.18.73-.18c.29 0 .54.06.75.18.21.12.38.28.52.48s.24.43.3.69c.07.26.1.53.1.81v.08zm-.47-.08c0-.21-.02-.42-.07-.63a1.97 1.97 0 0 0-.21-.56c-.1-.17-.23-.3-.4-.4-.17-.1-.37-.15-.61-.15-.14 0-.27.02-.39.06-.12.04-.23.1-.33.17s-.19.16-.26.26c-.08.1-.14.21-.19.33v1.97c.05.12.12.22.2.31.08.1.17.18.27.24s.21.12.34.15c.12.04.25.05.38.05.24 0 .44-.05.6-.15s.29-.23.39-.4c.1-.17.17-.35.22-.56.05-.21.07-.42.07-.63v-.06zm4.79 1.08c0-.13-.03-.24-.1-.34a.816.816 0 0 0-.27-.25c-.11-.07-.24-.13-.39-.17s-.31-.09-.47-.12c-.2-.04-.4-.09-.59-.15s-.36-.13-.51-.22c-.15-.09-.27-.2-.36-.33-.09-.13-.13-.29-.13-.49 0-.18.05-.34.14-.49.09-.14.21-.26.36-.36.15-.1.32-.17.51-.22s.39-.08.59-.08c.23 0 .44.03.64.08.2.06.37.14.52.25.15.11.27.24.36.4s.14.33.14.54h-.47c0-.13-.04-.26-.11-.37a.87.87 0 0 0-.27-.27c-.11-.07-.24-.13-.38-.17s-.29-.06-.44-.06c-.14 0-.28.02-.41.04-.13.03-.25.08-.36.14-.11.06-.19.14-.25.23s-.1.2-.1.33.03.24.09.33.15.17.26.23c.11.06.24.11.38.15.15.04.3.08.47.11.21.04.42.1.61.16s.37.14.51.24c.15.1.27.21.35.35.09.14.13.3.13.5s-.05.37-.14.52c-.09.15-.22.27-.38.37s-.33.17-.53.22c-.2.05-.4.07-.62.07-.24 0-.46-.03-.67-.09-.21-.06-.39-.14-.55-.25a1.207 1.207 0 0 1-.54-.93h.47c.02.17.07.31.15.42.08.11.19.2.31.27s.26.11.4.14.29.04.43.04.29-.01.43-.04.27-.08.38-.14a.91.91 0 0 0 .28-.23.57.57 0 0 0 .13-.36zm2.32-2.34c.15-.27.35-.49.59-.65.25-.16.53-.24.85-.25.23 0 .44.04.62.11s.33.18.45.31.21.3.28.5.1.43.1.68v2.7h-.47v-2.7c0-.19-.02-.36-.07-.5s-.11-.27-.2-.38c-.09-.1-.2-.18-.34-.24s-.29-.08-.48-.08c-.15 0-.29.02-.43.07s-.26.11-.38.2c-.11.08-.22.18-.31.29s-.16.24-.22.37V460h-.47v-6h.47v2.59zm6.14 3.49c-.29 0-.56-.05-.8-.16s-.45-.26-.62-.45-.31-.41-.4-.66a2.64 2.64 0 0 1-.15-.8v-.17c0-.3.05-.58.15-.84.1-.26.23-.49.4-.68.17-.19.37-.34.6-.46.23-.11.48-.17.74-.17.28 0 .53.05.75.15s.4.24.54.42.26.38.34.62.12.49.12.75v.29h-3.16v.09c0 .22.04.43.11.63s.18.38.31.53a1.444 1.444 0 0 0 1.1.51c.26 0 .5-.04.71-.14.21-.1.39-.24.54-.43l.3.22c-.08.11-.17.21-.28.3-.11.09-.23.17-.36.24-.13.07-.28.12-.43.15-.17.04-.34.06-.51.06zm-.09-3.99a1.274 1.274 0 0 0-.94.41c-.12.13-.22.28-.3.45-.08.17-.13.36-.16.57h2.68v-.05c0-.17-.04-.34-.1-.51-.06-.17-.14-.31-.25-.44-.11-.13-.24-.23-.4-.31s-.33-.12-.53-.12zm4.89 3.99c-.29 0-.56-.05-.8-.16s-.45-.26-.62-.45-.31-.41-.4-.66a2.64 2.64 0 0 1-.15-.8v-.17c0-.3.05-.58.15-.84.1-.26.23-.49.4-.68.17-.19.37-.34.6-.46.23-.11.48-.17.74-.17.28 0 .53.05.75.15s.4.24.54.42.26.38.34.62.12.49.12.75v.29h-3.16v.09c0 .22.04.43.11.63s.18.38.31.53a1.444 1.444 0 0 0 1.1.51c.26 0 .5-.04.71-.14.21-.1.39-.24.54-.43l.3.22c-.08.11-.17.21-.28.3-.11.09-.23.17-.36.24-.13.07-.28.12-.43.15-.17.04-.34.06-.51.06zm-.09-3.99a1.274 1.274 0 0 0-.94.41c-.12.13-.22.28-.3.45-.08.17-.13.36-.16.57h2.68v-.05c0-.17-.04-.34-.1-.51-.06-.17-.14-.31-.25-.44-.11-.13-.24-.23-.4-.31s-.33-.12-.53-.12zm4.64-1.4v1.08h1.57v.38h-1.57v2.66c0 .16.03.3.08.41.05.11.11.2.2.26s.18.11.29.14c.11.03.23.04.36.04s.26-.01.4-.03c.14-.02.25-.04.35-.05l.07.36c-.11.04-.25.08-.41.1-.16.02-.33.03-.49.03-.19 0-.36-.02-.52-.07a.957.957 0 0 1-.41-.22c-.12-.1-.21-.23-.28-.39s-.1-.36-.11-.59v-2.66h-1.18v-.38h1.18v-1.08h.47z"/></g><g clip-path="url(#b)" fill="#FFF"><path d="M538.37 373.14c0-.28.04-.55.11-.81s.18-.49.31-.69c.14-.2.31-.36.52-.48.21-.12.46-.18.74-.18.27 0 .51.06.72.17.21.11.39.27.53.48v-2.35h.46v6h-.44l-.02-.55c-.15.2-.33.36-.55.47-.21.11-.46.16-.72.16-.28 0-.52-.06-.73-.18a1.59 1.59 0 0 1-.52-.48c-.14-.2-.24-.43-.31-.69s-.11-.53-.11-.8v-.07zm.47.08c0 .21.02.42.07.63.05.21.12.4.22.56s.23.3.4.4.37.15.6.15c.13 0 .26-.02.38-.05.12-.03.23-.08.33-.15.1-.06.19-.14.27-.23.08-.09.15-.19.2-.3v-2.05a1.69 1.69 0 0 0-.19-.32c-.08-.1-.16-.18-.26-.25a1.262 1.262 0 0 0-.71-.22c-.24 0-.44.05-.61.15s-.3.24-.4.4c-.1.17-.18.35-.22.56-.04.21-.07.42-.07.63v.09zm7.27-2.23c.12 0 .23.01.35.02s.21.03.29.06l-.06.45a3.758 3.758 0 0 0-.67-.07c-.39 0-.73.09-1.01.28-.28.19-.47.48-.58.86v2.7h-.48v-4.23h.45l.03.73v.09c.17-.28.4-.5.68-.66.3-.15.63-.23 1-.23zm4.91 4.3c-.03-.09-.05-.18-.07-.29s-.03-.21-.03-.32c-.08.1-.17.19-.28.27-.11.08-.22.16-.35.22-.12.06-.26.11-.41.14-.14.04-.3.05-.46.05a1.627 1.627 0 0 1-1-.33c-.12-.1-.22-.23-.3-.38-.07-.15-.11-.31-.11-.49 0-.24.05-.45.16-.62.11-.17.25-.31.43-.41.18-.11.39-.18.63-.23.24-.05.49-.07.75-.07h.91v-.48a.886.886 0 0 0-.33-.72c-.1-.08-.22-.14-.37-.19a1.653 1.653 0 0 0-.89 0c-.14.04-.26.09-.36.17s-.19.16-.26.27c-.06.11-.1.22-.11.36h-.47c.01-.18.06-.34.14-.5.09-.15.21-.28.35-.39s.32-.2.52-.26.41-.09.63-.09c.22 0 .44.03.63.09.2.06.37.14.51.26s.26.26.34.43c.09.17.13.37.13.6v2.05c0 .14.01.28.04.43.03.14.06.28.09.41v.05h-.46zm-1.54-.33c.16 0 .32-.02.47-.06.15-.04.29-.1.41-.17s.24-.16.33-.27c.1-.1.17-.22.23-.34v-.93h-.85c-.21 0-.4.02-.59.05-.19.03-.36.08-.5.15a.99.99 0 0 0-.35.29c-.09.12-.13.27-.13.45 0 .13.03.24.08.34a.832.832 0 0 0 .52.42c.11.05.24.07.38.07zm3.95-1.04l.12.75.16-.75.71-2.86h.33l.71 2.86.16.77.14-.77.58-2.86h.43l-.94 4.23h-.38l-.75-2.89-.12-.68-.12.68-.74 2.89h-.38l-.94-4.23h.43l.6 2.86zm6.09 1.45c-.29 0-.56-.05-.8-.16s-.45-.26-.62-.45c-.17-.19-.31-.41-.4-.66a2.64 2.64 0 0 1-.15-.8v-.17c0-.3.05-.58.15-.84s.23-.49.4-.68c.17-.19.37-.34.6-.46.23-.11.48-.17.74-.17.28 0 .53.05.75.15.22.1.4.24.54.42.15.18.26.38.34.62.08.23.12.49.12.75v.29h-3.16v.09c0 .22.04.43.11.63s.18.38.31.53.29.28.48.37.4.14.62.14c.26 0 .5-.05.71-.14s.39-.24.54-.43l.3.22c-.08.11-.17.21-.28.3-.11.09-.22.17-.36.24-.13.07-.28.12-.43.15s-.33.06-.51.06zm-.09-3.98a1.274 1.274 0 0 0-.94.41c-.12.13-.22.28-.3.45s-.13.36-.16.57h2.68v-.05c0-.17-.04-.34-.1-.51s-.14-.31-.25-.44c-.11-.13-.24-.23-.4-.31s-.33-.12-.53-.12zm5.88-.4c.12 0 .23.01.35.02s.21.03.29.06l-.06.45a3.758 3.758 0 0 0-.67-.07c-.39 0-.73.09-1.01.28-.28.19-.47.48-.58.86v2.7h-.48v-4.23h.45l.03.73v.09c.17-.28.4-.5.68-.66.3-.15.63-.23 1-.23zm10.22 1.13h-3.48v-.41h3.48v.41zm0 1.61h-3.48v-.41h3.48v.41zm7.75-3.74v1.08h1.57v.38h-1.57v2.66c0 .16.03.3.08.41.05.11.11.2.2.26s.18.11.29.14c.11.03.23.04.36.04.13 0 .26-.01.4-.03s.25-.04.35-.05l.07.36c-.11.04-.25.08-.41.1-.16.02-.32.03-.49.03-.19 0-.36-.02-.52-.07-.16-.05-.3-.12-.41-.22s-.21-.23-.28-.39c-.07-.16-.1-.36-.11-.59v-2.66h-1.18v-.38h1.18v-1.08h.47zm5.04 5.38c-.29 0-.56-.05-.8-.16s-.45-.26-.62-.45c-.17-.19-.31-.41-.4-.66a2.64 2.64 0 0 1-.15-.8v-.17c0-.3.05-.58.15-.84s.23-.49.4-.68c.17-.19.37-.34.6-.46.23-.11.48-.17.74-.17.28 0 .53.05.75.15.22.1.4.24.54.42.15.18.26.38.34.62.08.23.12.49.12.75v.29h-3.16v.09c0 .22.04.43.11.63s.18.38.31.53.29.28.48.37.4.14.62.14c.26 0 .5-.05.71-.14s.39-.24.54-.43l.3.22c-.08.11-.17.21-.28.3-.11.09-.22.17-.36.24-.13.07-.28.12-.43.15s-.33.06-.51.06zm-.09-3.98a1.274 1.274 0 0 0-.94.41c-.12.13-.22.28-.3.45s-.13.36-.16.57h2.68v-.05c0-.17-.04-.34-.1-.51s-.14-.31-.25-.44c-.11-.13-.24-.23-.4-.31s-.32-.12-.53-.12zm3.11-.32l.01.47c.09-.16.21-.3.35-.4.15-.1.34-.15.57-.15.12 0 .23.01.32.04a.728.728 0 0 1 .41.3c.05.07.09.14.11.22.09-.16.21-.29.37-.4a.99.99 0 0 1 .58-.16c.18 0 .34.03.46.09s.22.15.3.25c.08.11.13.23.16.37.03.14.05.29.05.45v3.14h-.44v-3.14c0-.09-.01-.18-.03-.27a.77.77 0 0 0-.1-.25.51.51 0 0 0-.5-.24c-.12.01-.24.02-.33.06s-.16.09-.22.15-.1.13-.14.21c-.03.08-.06.15-.07.23v3.24h-.44v-3.18c0-.09-.01-.18-.03-.26a.597.597 0 0 0-.1-.23.43.43 0 0 0-.19-.16c-.08-.04-.18-.06-.31-.06s-.23.02-.32.06c-.09.04-.16.08-.22.15s-.11.13-.14.21-.06.16-.08.25v3.23h-.44v-4.23h.41zm8.2 2.15c0 .27-.03.54-.1.8s-.17.49-.3.69-.31.36-.52.48c-.21.12-.46.18-.74.18-.26 0-.5-.05-.72-.15s-.4-.25-.55-.44v2.14h-.47v-5.85h.44l.02.58c.15-.21.33-.37.55-.48.22-.11.46-.17.73-.17.29 0 .54.06.75.18s.38.28.52.48c.14.2.24.43.3.69s.1.53.1.81v.06zm-.47-.08c0-.21-.02-.42-.07-.63s-.12-.4-.23-.56c-.1-.17-.24-.3-.4-.4-.16-.1-.37-.15-.61-.15-.13 0-.26.02-.38.06-.12.04-.23.09-.32.16s-.18.15-.26.25c-.08.09-.14.2-.19.31v2.09a1.268 1.268 0 0 0 1.17.71c.24 0 .44-.05.6-.16.17-.1.3-.24.4-.4.1-.17.18-.35.22-.56s.07-.42.07-.63v-.09zm1.61-.02c0-.29.05-.56.13-.82s.21-.48.37-.68.36-.35.59-.46c.23-.11.5-.17.79-.17.3 0 .56.06.79.17.23.11.43.27.59.46.16.19.29.42.37.68s.13.53.13.82v.13c0 .29-.04.56-.13.82-.08.26-.21.48-.37.68-.16.19-.36.35-.59.46-.23.11-.5.17-.79.17s-.56-.06-.79-.17c-.23-.11-.43-.27-.59-.46-.16-.19-.29-.42-.37-.68s-.13-.53-.13-.82v-.13zm.47.13c0 .22.03.44.09.65s.15.39.27.55c.12.16.27.29.44.38s.38.14.61.14.43-.05.61-.14.32-.22.44-.38.21-.34.27-.55.09-.42.09-.65v-.13c0-.22-.03-.44-.09-.64s-.15-.39-.27-.55c-.12-.16-.27-.29-.45-.39-.18-.1-.38-.15-.61-.15-.23 0-.43.05-.61.15s-.32.23-.44.39-.21.34-.27.55-.09.42-.09.64v.13zm7.37-2.26c.12 0 .23.01.35.02s.21.03.29.06l-.06.45a3.758 3.758 0 0 0-.67-.07c-.39 0-.73.09-1.01.28-.28.19-.47.48-.58.86v2.7h-.48v-4.23h.45l.03.73v.09c.17-.28.4-.5.68-.66.3-.15.63-.23 1-.23zm4.91 4.3c-.03-.09-.05-.18-.07-.29s-.03-.21-.03-.32c-.08.1-.17.19-.28.27-.11.08-.22.16-.35.22-.12.06-.26.11-.41.14-.14.04-.3.05-.46.05a1.627 1.627 0 0 1-1-.33c-.12-.1-.22-.23-.3-.38-.07-.15-.11-.31-.11-.49 0-.24.05-.45.16-.62.11-.17.25-.31.43-.41.18-.11.39-.18.63-.23.24-.05.49-.07.75-.07h.91v-.48a.886.886 0 0 0-.33-.72c-.1-.08-.22-.14-.37-.19a1.653 1.653 0 0 0-.89 0c-.14.04-.26.09-.36.17s-.19.16-.26.27c-.06.11-.1.22-.11.36h-.47c.01-.18.06-.34.14-.5.09-.15.21-.28.35-.39s.32-.2.52-.26.41-.09.63-.09c.22 0 .44.03.63.09.2.06.37.14.51.26s.26.26.34.43c.09.17.13.37.13.6v2.05c0 .14.01.28.04.43.03.14.06.28.09.41v.05h-.46zm-1.54-.33c.16 0 .32-.02.47-.06.15-.04.29-.1.41-.17s.24-.16.33-.27c.1-.1.17-.22.23-.34v-.93h-.85c-.21 0-.4.02-.59.05-.19.03-.36.08-.5.15a.99.99 0 0 0-.35.29c-.09.12-.13.27-.13.45 0 .13.03.24.08.34a.832.832 0 0 0 .52.42c.11.05.24.07.38.07zm6.23-3.97c.12 0 .23.01.35.02s.21.03.29.06l-.06.45a3.758 3.758 0 0 0-.67-.07c-.39 0-.73.09-1.01.28-.28.19-.47.48-.58.86v2.7h-.48v-4.23h.45l.03.73v.09c.17-.28.4-.5.68-.66.3-.15.63-.23 1-.23zm3.59 3.44l.09.23 1.53-3.6h.53l-2.18 4.9c-.06.13-.12.25-.2.38s-.17.23-.28.33a1.21 1.21 0 0 1-.85.33c-.06 0-.13-.01-.21-.02-.07-.01-.14-.02-.19-.04l.05-.39c.04 0 .1.01.17.02s.12.01.17.01c.12 0 .23-.02.33-.07a1 1 0 0 0 .26-.18c.08-.07.14-.16.2-.25s.11-.18.15-.27l.29-.62-1.9-4.12h.53l1.51 3.36z"/></g><g clip-path="url(#b)" fill="#FFF"><path d="M286.95 553.7c.12 0 .23.01.35.02s.21.03.29.06l-.06.45a3.758 3.758 0 0 0-.67-.07c-.4 0-.73.09-1.01.28s-.47.48-.58.86v2.7h-.48v-4.23h.45l.03.73v.09c.17-.28.4-.5.68-.66s.62-.23 1-.23zm1.86 2.15c0-.28.04-.55.11-.81s.17-.49.31-.69.31-.36.52-.48.46-.18.74-.18c.27 0 .51.06.72.17s.39.27.53.48V552h.46v6h-.44l-.02-.55c-.15.2-.33.36-.55.47s-.46.16-.72.16c-.28 0-.52-.06-.73-.18s-.38-.28-.52-.48-.24-.43-.31-.69-.11-.53-.11-.8v-.08zm.47.08c0 .21.02.42.07.63s.12.4.22.56.23.3.4.4.36.15.6.15c.13 0 .26-.02.38-.05s.23-.08.33-.15.19-.14.27-.23.15-.19.2-.3v-2.05c-.05-.12-.12-.22-.19-.32s-.17-.18-.26-.25-.21-.12-.33-.16-.25-.06-.38-.06c-.24 0-.44.05-.61.15s-.3.24-.4.4-.18.35-.22.56-.07.42-.07.63v.09zm7.27-2.23c.12 0 .23.01.35.02s.21.03.29.06l-.06.45a3.758 3.758 0 0 0-.67-.07c-.4 0-.73.09-1.01.28s-.47.48-.58.86v2.7h-.48v-4.23h.45l.03.73v.09c.17-.28.4-.5.68-.66s.62-.23 1-.23zm4.91 4.3c-.03-.09-.05-.18-.07-.29s-.03-.21-.03-.32c-.08.1-.17.19-.28.27s-.22.16-.35.22-.26.11-.41.14-.3.05-.46.05a1.627 1.627 0 0 1-1-.33c-.13-.1-.23-.23-.3-.38s-.11-.31-.11-.49c0-.24.05-.45.16-.62s.25-.31.43-.41.39-.18.63-.23.49-.07.75-.07h.91v-.48a.886.886 0 0 0-.33-.72c-.1-.08-.23-.14-.37-.19s-.3-.06-.46-.06c-.15 0-.29.02-.43.06s-.26.09-.36.17-.19.16-.26.27-.1.22-.11.36h-.47c.01-.18.06-.34.14-.5s.21-.28.35-.39.32-.2.52-.26.41-.09.63-.09.43.03.63.09.37.14.51.26.26.26.34.43.13.37.13.6v2.05c0 .14.01.28.04.43s.06.28.09.41v.05h-.46zm-1.55-.34c.16 0 .32-.02.47-.06s.29-.1.41-.17.24-.16.33-.27.17-.22.23-.34v-.93h-.85c-.21 0-.4.02-.59.05s-.36.08-.5.15-.26.17-.35.29-.13.27-.13.45c0 .13.03.24.08.34s.12.19.21.26.19.13.31.16.25.07.38.07zm3.95-1.03l.12.75.16-.75.71-2.86h.33l.71 2.86.16.77.14-.77.58-2.86h.43l-.94 4.23h-.38l-.75-2.89-.12-.68-.12.68-.74 2.89h-.38l-.94-4.23h.43l.6 2.86zm6.1 1.45c-.29 0-.56-.05-.8-.16s-.45-.26-.62-.45-.31-.41-.4-.66-.14-.52-.15-.8v-.17c0-.3.05-.58.15-.84s.23-.49.4-.68.37-.34.6-.46.48-.17.74-.17c.28 0 .53.05.75.15s.4.24.54.42.26.38.34.62.12.49.12.75v.29h-3.16v.09c0 .22.04.43.11.63s.18.38.31.53.29.28.48.37.4.14.62.14c.26 0 .5-.05.71-.14s.39-.24.54-.43l.3.22c-.08.11-.17.21-.28.3s-.23.17-.36.24-.28.12-.43.15-.34.06-.51.06zm-.09-3.99a1.274 1.274 0 0 0-.94.41c-.12.13-.22.28-.3.45s-.13.36-.16.57h2.68v-.05c0-.17-.04-.34-.1-.51s-.14-.31-.25-.44-.24-.23-.4-.31-.33-.12-.53-.12zm5.88-.39c.12 0 .23.01.35.02s.21.03.29.06l-.06.45a3.758 3.758 0 0 0-.67-.07c-.4 0-.73.09-1.01.28s-.47.48-.58.86v2.7h-.48v-4.23h.45l.03.73v.09c.17-.28.4-.5.68-.66s.63-.23 1-.23zm10.21 1.13h-3.48v-.41h3.48v.41zm0 1.6h-3.48v-.41h3.48v.41zm5.95-.61c0-.29.05-.56.13-.82s.21-.48.37-.68.36-.35.59-.46.5-.17.79-.17c.3 0 .56.06.79.17s.43.27.59.46.29.42.37.68.13.53.13.82v.13c0 .29-.05.56-.13.82s-.21.48-.37.68-.36.35-.59.46-.5.17-.79.17-.56-.06-.79-.17-.43-.27-.59-.46-.29-.42-.37-.68-.13-.53-.13-.82v-.13zm.47.13c0 .22.03.44.09.65s.15.39.27.55.27.29.44.38.38.14.61.14c.23 0 .43-.05.61-.14s.32-.22.44-.38.21-.34.27-.55.09-.42.09-.65v-.13c0-.22-.03-.44-.09-.64s-.15-.39-.27-.55-.27-.29-.45-.39-.38-.15-.61-.15-.43.05-.61.15-.32.23-.44.39-.21.34-.27.55-.09.42-.09.64v.13zm6.2 1.42l.02.08.02-.08 1.45-3.59h.49l-1.78 4.23h-.38l-1.78-4.23h.49l1.47 3.59zm4.98.71c-.29 0-.56-.05-.8-.16s-.45-.26-.62-.45-.31-.41-.4-.66-.14-.52-.15-.8v-.17c0-.3.05-.58.15-.84s.23-.49.4-.68.37-.34.6-.46.48-.17.74-.17c.28 0 .53.05.75.15s.4.24.54.42.26.38.34.62.12.49.12.75v.29h-3.16v.09c0 .22.04.43.11.63s.18.38.31.53.29.28.48.37.4.14.62.14c.26 0 .5-.05.71-.14s.39-.24.54-.43l.3.22c-.08.11-.17.21-.28.3s-.23.17-.36.24-.28.12-.43.15-.33.06-.51.06zm-.09-3.99a1.274 1.274 0 0 0-.94.41c-.12.13-.22.28-.3.45s-.13.36-.16.57h2.68v-.05c0-.17-.04-.34-.1-.51s-.14-.31-.25-.44-.24-.23-.4-.31-.33-.12-.53-.12zm5.89-.39c.12 0 .23.01.35.02s.21.03.29.06l-.06.45a3.758 3.758 0 0 0-.67-.07c-.4 0-.73.09-1.01.28s-.47.48-.58.86v2.7h-.48v-4.23h.45l.03.73v.09c.17-.28.4-.5.68-.66s.62-.23 1-.23zm2.11-1.7h1.97v5.59h1.43v.41h-3.4v-.41h1.5v-5.17h-1.5V552zm7.6 6c-.03-.09-.05-.18-.07-.29s-.03-.21-.03-.32c-.08.1-.17.19-.28.27s-.22.16-.35.22-.26.11-.41.14-.3.05-.46.05a1.627 1.627 0 0 1-1-.33c-.13-.1-.23-.23-.3-.38s-.11-.31-.11-.49c0-.24.05-.45.16-.62s.25-.31.43-.41.39-.18.63-.23.49-.07.75-.07h.91v-.48a.886.886 0 0 0-.33-.72c-.1-.08-.23-.14-.37-.19s-.3-.06-.46-.06c-.15 0-.29.02-.43.06s-.26.09-.36.17-.19.16-.26.27-.1.22-.11.36h-.47c.01-.18.06-.34.14-.5s.21-.28.35-.39.32-.2.52-.26.41-.09.63-.09.43.03.63.09.37.14.51.26.26.26.34.43.13.37.13.6v2.05c0 .14.01.28.04.43s.06.28.09.41v.05h-.46zm-1.55-.34c.16 0 .32-.02.47-.06s.29-.1.41-.17.24-.16.33-.27.17-.22.23-.34v-.93h-.85c-.21 0-.4.02-.59.05s-.36.08-.5.15-.26.17-.35.29-.13.27-.13.45c0 .13.03.24.08.34s.12.19.21.26.19.13.31.16.25.07.38.07zm5.03-.52l.09.23 1.53-3.6h.53l-2.18 4.9c-.06.13-.12.25-.2.38s-.17.23-.28.33-.23.18-.37.24-.3.09-.48.09c-.06 0-.13-.01-.21-.02s-.14-.02-.19-.04l.05-.39c.04 0 .1.01.17.02s.12.01.17.01c.12 0 .23-.02.33-.07s.19-.11.26-.18.14-.16.2-.25.11-.18.15-.27l.29-.62-1.9-4.12h.53l1.51 3.36z"/></g><path clip-path="url(#b)" fill="none" stroke="#FFF" stroke-miterlimit="10" d="M520 609.5h134m-134 16h134"/><g clip-path="url(#b)"><path fill="#FFF" stroke="#FFF" stroke-miterlimit="10" d="M133.26 450.04h1.77v.47h-1.77v1.91h-.48v-1.91h-1.73v-.47h1.73v-1.86h.48v1.86z"/></g><g clip-path="url(#b)"><path fill="#FFF" stroke="#FFF" stroke-miterlimit="10" d="M143.12 450.04h1.77v.47h-1.77v1.91h-.48v-1.91h-1.73v-.47h1.73v-1.86h.48v1.86z"/></g><path clip-path="url(#b)" fill="none" stroke="#FFF" stroke-miterlimit="10" d="M519.5 461.5h135v19h-135z"/><path clip-path="url(#b)" fill="none" stroke="#FFF" stroke-miterlimit="10" stroke-dasharray="4" d="M520 471.5h134"/><path clip-path="url(#b)" fill="none" stroke="#FFF" stroke-miterlimit="10" d="M638.89 436.25c0-1.81.64-3.46 1.72-4.75h-10.08c-2.23 0-4.03 1.8-4.03 4.03v.94c0 2.23 1.8 4.03 4.03 4.03h9.7a7.424 7.424 0 0 1-1.34-4.25z"/><circle clip-path="url(#b)" fill="none" stroke="#FFF" stroke-miterlimit="10" cx="646.33" cy="436.25" r="7.44"/><g clip-path="url(#b)"><path fill="#FFF" d="M488 210v464H234V210h254m-.47-16H234.18c-8.84 0-16.18 7.17-16.18 16.01v464.17c0 8.84 7.34 15.82 16.18 15.82h253.36c8.84 0 16.47-6.98 16.47-15.82V210.01c-.01-8.84-7.64-16.01-16.48-16.01z"/></g><path clip-path="url(#b)" fill="none" stroke="#FFF" stroke-miterlimit="10" stroke-dasharray="4" d="M222 252.5h278"/><circle clip-path="url(#b)" fill="none" stroke="#FFF" stroke-miterlimit="10" stroke-dasharray="4" cx="456.76" cy="326.29" r="16.82"/><path clip-path="url(#b)" fill="none" stroke="#FFF" stroke-miterlimit="10" d="M453.34 331.5l-3.42-5.5 3.42-5.5h6.85l3.42 5.5-3.42 5.5zm-231.34-4h216m-190 261h227m-227 24h196m20 0h11m-8 24h14m-238 0h198m33-309h16"/><g clip-path="url(#b)" fill="none" stroke="#FFF" stroke-miterlimit="10"><circle cx="475.49" cy="222.12" r="1.61"/><circle cx="475.49" cy="228.58" r="1.61"/><circle cx="475.49" cy="235.03" r="1.61"/></g><g clip-path="url(#b)"><defs><path id="c" d="M282.5 219.5h94v17h-94z"/></defs><clipPath id="d"><use xlink:href="#c" overflow="visible"/></clipPath><path clip-path="url(#d)" fill="none" stroke="#FFF" stroke-miterlimit="10" d="M264.75 236.61l18.32-18.32m-13.51 18.32l18.31-18.32m-13.51 18.32l18.32-18.32m-13.52 18.32l18.32-18.32m-13.51 18.32l18.32-18.32m-13.52 18.32l18.32-18.32m-13.51 18.32l18.31-18.32m-13.51 18.32l18.32-18.32m-13.51 18.32l18.31-18.32m-13.51 18.32l18.32-18.32m-13.51 18.32l18.31-18.32m-13.51 18.32l18.32-18.32m-13.52 18.32l18.32-18.32m-13.51 18.32l18.32-18.32m-13.52 18.32l18.32-18.32m-13.51 18.32l18.31-18.32m-13.51 18.32l18.32-18.32m-13.51 18.32l18.31-18.32m-13.51 18.32l18.32-18.32m-13.51 18.32l18.31-18.32m-13.51 18.32l18.32-18.32m-13.52 18.32l18.32-18.32m-13.51 18.32l18.32-18.32m-13.52 18.32l18.32-18.32m-13.51 18.32l18.31-18.32m-13.51 18.32l18.32-18.32m-13.51 18.32l18.31-18.32"/><use xlink:href="#c" overflow="visible" fill="none" stroke="#FFF" stroke-miterlimit="10"/></g><g clip-path="url(#b)"><use xlink:href="#e" width="24" height="24" y="-24" transform="matrix(.8032 0 0 -.8032 244.84 218.504)" overflow="visible"/></g><path clip-path="url(#b)" fill="none" stroke="#FFF" stroke-miterlimit="10" stroke-dasharray="4" d="M315.5 264.5h88v48h-88z"/><circle clip-path="url(#b)" fill="none" stroke="#FFF" stroke-miterlimit="10" stroke-dasharray="4" cx="360" cy="287.99" r="18.32"/><path clip-path="url(#b)" fill="none" stroke="#FFF" stroke-miterlimit="10" stroke-dasharray="2.845" d="M351.5 280.5h16v14h-16z"/><path clip-path="url(#b)" fill="none" stroke="#FFF" stroke-miterlimit="10" d="M247.5 358.5h227v187h-227zm0 206h228v93h-228zm-4 108h238v23h-238zm3.5-205h228M249.55 358.22L473.6 467.93m.33-109.71L249.22 467.93"/><path clip-path="url(#b)" fill="none" stroke="#FFF" stroke-miterlimit="10" d="M255.5 483.5h129v18h-129zm264-86h136v18h-136zm-121 86h15v18h-15zm23 0h45v54h-45z"/><g clip-path="url(#b)"><path fill="none" stroke="#FFF" stroke-miterlimit="10" d="M256.26 512.15c4.97 0 4.97 5.69 9.94 5.69s4.97-5.69 9.94-5.69 4.97 5.69 9.94 5.69 4.97-5.69 9.94-5.69 4.97 5.69 9.94 5.69 4.97-5.69 9.95-5.69c4.97 0 4.97 5.69 9.94 5.69 4.98 0 4.98-5.69 9.95-5.69s4.98 5.69 9.95 5.69"/></g><g clip-path="url(#b)"><path fill="none" stroke="#FFF" stroke-miterlimit="10" d="M256.26 526.48c4.97 0 4.97 5.69 9.94 5.69s4.97-5.69 9.94-5.69 4.97 5.69 9.94 5.69 4.97-5.69 9.94-5.69 4.97 5.69 9.94 5.69 4.97-5.69 9.95-5.69c4.97 0 4.97 5.69 9.94 5.69 4.98 0 4.98-5.69 9.95-5.69s4.98 5.69 9.95 5.69"/></g><g clip-path="url(#b)"><g fill="none" stroke="#FFF" stroke-miterlimit="10"><path d="M231.5 576v-2"/><path stroke-dasharray="4,4" d="M231.5 570V214"/><path d="M231.51 211.96v-2h-2"/><path stroke-dasharray="4,4" d="M226 209.5H55"/><path d="M52.79 209.96h-2v2"/><path stroke-dasharray="4,4" d="M50.5 216v462"/><path d="M50.79 679.98v2h2"/><path stroke-dasharray="4,4" d="M57 681.5h171"/><path d="M229.51 681.98h2v-2"/><path stroke-dasharray="4,4" d="M231.5 676V550"/><path d="M231.5 548v-2"/></g><g fill="none" stroke="#FFF" stroke-miterlimit="10"><path d="M670.5 576v-2"/><path stroke-dasharray="4,4" d="M670.5 570V214"/><path d="M670.51 211.96v-2h-2"/><path stroke-dasharray="4,4" d="M665 209.5H494"/><path d="M491.79 209.96h-2v2"/><path stroke-dasharray="4,4" d="M489.5 216v462"/><path d="M489.79 679.98v2h2"/><path stroke-dasharray="4,4" d="M496 681.5h171"/><path d="M668.51 681.98h2v-2"/><path stroke-dasharray="4,4" d="M670.5 676V550"/><path d="M670.5 548v-2"/></g><path fill="none" stroke="#FFF" stroke-miterlimit="10" d="M67.5 345.5h20v19h-20zm31 2h106v15h-106zm422 81h91v15h-91zm-453-46h20v19h-20zm31 1h106v17h-106zm-31 34h20v21h-20zm31 1h106v18h-106zm-33 201h24v23h-24z"/><circle fill="none" stroke="#FFF" stroke-miterlimit="10" cx="77.36" cy="630.86" r="7.85"/><path fill="none" stroke="#FFF" stroke-miterlimit="10" d="M105.38 626.26c4.16 0 4.16 5.69 8.31 5.69 4.16 0 4.16-5.69 8.31-5.69s4.16 5.69 8.31 5.69c4.16 0 4.16-5.69 8.31-5.69 4.16 0 4.16 5.69 8.32 5.69s4.16-5.69 8.32-5.69 4.16 5.69 8.32 5.69 4.16-5.69 8.32-5.69 4.16 5.69 8.32 5.69"/><path d="M108.97 534.92l-2.87-1.18v-.48l3.41 1.48v.38l-3.41 1.48v-.48l2.87-1.2zm7.5 2.2c.4 0 .73-.06 1.01-.19s.49-.28.66-.49.29-.45.37-.72.12-.57.13-.88a1.612 1.612 0 0 1-.56.56 1.682 1.682 0 0 1-.85.22c-.27 0-.51-.06-.71-.17s-.37-.26-.51-.44-.24-.38-.31-.61-.1-.46-.1-.69c0-.25.04-.5.11-.74s.18-.45.33-.64.32-.33.54-.45.46-.17.74-.17c.33 0 .61.06.83.19s.41.3.56.51.25.46.32.73.1.55.1.83v.45c0 .26-.02.52-.05.77s-.09.49-.17.72-.19.44-.32.63-.29.36-.49.5-.43.25-.69.33-.57.12-.91.12h-.11v-.42h.08zm.81-1.89c.16 0 .31-.03.45-.08s.28-.12.4-.21.23-.2.32-.33.16-.26.21-.42v-.24c0-.25-.03-.49-.09-.71s-.14-.42-.25-.58-.25-.3-.42-.39-.36-.14-.58-.14c-.2 0-.38.04-.54.13s-.29.21-.4.35-.19.31-.25.5-.08.38-.08.58c0 .19.03.37.08.55s.13.34.23.49.23.26.39.35.33.15.53.15zm5.87-3.46v.43h-.07c-.38 0-.71.07-.98.19s-.5.29-.68.5-.32.45-.41.73-.15.56-.17.86c.07-.1.16-.2.26-.29s.21-.16.33-.23.25-.11.39-.15.28-.05.43-.05c.27 0 .51.05.72.16s.38.25.51.42.24.37.31.6.1.46.1.7c0 .25-.04.49-.11.72s-.18.44-.32.62-.32.32-.53.43-.45.16-.73.16c-.3 0-.56-.06-.79-.18s-.42-.27-.58-.47-.27-.42-.36-.67-.12-.51-.12-.77v-.5c0-.27.02-.54.06-.8s.11-.51.2-.75.2-.46.34-.66.31-.38.51-.53.43-.26.7-.35.57-.13.91-.13h.08zm-.97 2.4c-.15 0-.29.02-.44.07s-.27.11-.39.2-.22.18-.31.3-.16.25-.2.39v.37c0 .25.03.47.1.68s.16.38.28.53.27.26.43.35.35.12.55.12c.2 0 .37-.04.53-.13s.28-.2.38-.34.18-.3.23-.49.08-.37.08-.57-.03-.38-.08-.56-.13-.34-.24-.47-.24-.25-.39-.33-.32-.12-.53-.12zm6.6 1.08c0 .32-.04.62-.11.9s-.18.53-.32.74-.33.38-.55.5-.49.19-.8.19c-.31 0-.57-.06-.8-.19s-.41-.29-.56-.5-.26-.46-.33-.74-.11-.58-.11-.9v-1.18c0-.32.04-.62.11-.9s.18-.53.33-.74.33-.38.56-.51.49-.19.8-.19c.31 0 .58.06.8.19s.41.29.56.5.25.46.33.74.11.58.11.9v1.19zm-3.11.07c0 .11 0 .21.01.3l2.57-2.32c-.04-.17-.09-.32-.15-.46s-.15-.27-.25-.37-.22-.19-.37-.25-.3-.09-.49-.09c-.24 0-.45.05-.62.15s-.3.24-.41.41-.18.37-.23.59-.07.46-.07.7v1.34zm2.64-1.33c0-.09 0-.17-.01-.25l-2.55 2.32c.04.16.09.31.16.45s.15.26.25.36.22.18.36.24.3.09.48.09c.24 0 .45-.05.62-.15s.3-.24.41-.41.18-.37.22-.59.07-.46.07-.7v-1.36zm10.04.34h-3.48v-.41h3.48v.41zm0 1.6h-3.48v-.41h3.48v.41zm9.64-.68c0 .32-.04.62-.11.9s-.18.53-.32.74-.33.38-.55.5-.49.19-.8.19c-.31 0-.57-.06-.8-.19s-.41-.29-.56-.5-.26-.46-.33-.74-.11-.58-.11-.9v-1.18c0-.32.04-.62.11-.9s.18-.53.33-.74.33-.38.56-.51.49-.19.8-.19c.31 0 .58.06.8.19s.41.29.56.5.25.46.33.74.11.58.11.9v1.19zm-3.12.07c0 .11 0 .21.01.3l2.57-2.32c-.04-.17-.09-.32-.15-.46s-.15-.27-.25-.37-.22-.19-.37-.25-.3-.09-.49-.09c-.24 0-.45.05-.62.15s-.3.24-.41.41-.18.37-.23.59-.07.46-.07.7v1.34zm2.65-1.33c0-.09 0-.17-.01-.25l-2.55 2.32c.04.16.09.31.16.45s.15.26.25.36.22.18.36.24.3.09.48.09c.24 0 .45-.05.62-.15s.3-.24.41-.41.18-.37.22-.59.07-.46.07-.7v-1.36z" fill="#FFF"/><path fill="none" stroke="#FFF" stroke-miterlimit="10" d="M63 606.5h147m-147-8h147m-147-12h147m-147-10h147m-157-24h178m-181-226h183m256 57h183M50.79 209.96l180.72 116.89m0-116.89L49.91 326.85"/><circle fill="none" stroke="#FFF" stroke-miterlimit="10" cx="141.01" cy="268.12" r="23.96"/></g><g clip-path="url(#b)"><path d="M330.57 165.18c0 .27-.03.54-.1.8s-.17.49-.3.69-.31.36-.52.48-.46.18-.74.18c-.26 0-.5-.05-.72-.15s-.4-.25-.55-.44v2.14h-.47v-5.85h.44l.02.58c.15-.21.33-.37.55-.48s.46-.17.73-.17c.29 0 .54.06.75.18s.38.28.52.48.24.43.3.69.1.53.1.81v.06zm-.47-.08c0-.21-.02-.42-.07-.63s-.12-.4-.23-.56-.24-.3-.4-.4-.37-.15-.61-.15c-.14 0-.26.02-.38.06s-.23.09-.32.16-.18.15-.26.25-.14.2-.19.31v2.09a1.268 1.268 0 0 0 1.17.71c.24 0 .44-.05.6-.16s.3-.24.4-.4.18-.35.22-.56.07-.42.07-.63v-.09zm2.32-1.26c.15-.27.35-.49.59-.65s.53-.24.85-.25c.23 0 .44.04.62.11s.33.18.45.31.21.3.28.5.1.43.1.68v2.7h-.47v-2.7c0-.19-.02-.36-.07-.5s-.11-.27-.2-.38-.2-.18-.34-.24-.29-.08-.48-.08c-.15 0-.29.02-.43.07s-.26.11-.38.2-.22.18-.31.29-.16.24-.22.37v2.96h-.47v-6h.47v2.61zm4.09 1.24c0-.29.05-.56.13-.82s.21-.48.37-.68.36-.35.59-.46.5-.17.79-.17c.3 0 .56.06.79.17s.43.27.59.46.29.42.37.68.13.53.13.82v.13c0 .29-.05.56-.13.82s-.21.48-.37.68-.36.35-.59.46-.5.17-.79.17-.56-.06-.79-.17-.43-.27-.59-.46-.29-.42-.37-.68-.13-.53-.13-.82v-.13zm.47.13c0 .22.03.44.09.65s.15.39.27.55.27.29.44.38.38.14.61.14c.23 0 .43-.05.61-.14s.32-.22.44-.38.21-.34.27-.55.09-.42.09-.65v-.13c0-.22-.03-.44-.09-.64s-.15-.39-.27-.55-.27-.29-.45-.39-.38-.15-.61-.15-.43.05-.61.15-.32.23-.44.39-.21.34-.27.55-.09.42-.09.64v.13zm5-2.18l.04.79c.15-.26.35-.47.59-.63s.53-.24.84-.24c.46 0 .82.14 1.06.42s.37.67.37 1.18v2.71h-.47v-2.7c0-.39-.09-.69-.27-.89s-.45-.31-.81-.31c-.15 0-.29.02-.43.07s-.26.12-.38.2-.21.19-.3.3-.16.24-.21.38v2.93h-.47v-4.23h.44zm6.18 4.3c-.29 0-.56-.05-.8-.16s-.45-.26-.62-.45-.31-.41-.4-.66-.14-.52-.15-.8v-.17c0-.3.05-.58.15-.84s.23-.49.4-.68.37-.34.6-.46.48-.17.74-.17c.28 0 .53.05.75.15s.4.24.54.42.26.38.34.62.12.49.12.75v.29h-3.16v.09c0 .22.04.43.11.63s.18.38.31.53.29.28.48.37.4.14.62.14c.26 0 .5-.05.71-.14s.39-.24.54-.43l.3.22c-.08.11-.17.21-.28.3s-.23.17-.36.24-.28.12-.43.15-.34.06-.51.06zm-.09-3.98a1.274 1.274 0 0 0-.94.41c-.12.13-.22.28-.3.45s-.13.36-.16.57h2.68v-.05c0-.17-.04-.34-.1-.51s-.14-.31-.25-.44-.24-.23-.4-.31-.33-.12-.53-.12zm11.3 1.83c0 .27-.03.54-.1.8s-.17.49-.3.69-.31.36-.52.48-.46.18-.74.18c-.26 0-.5-.05-.72-.15s-.4-.25-.55-.44v2.14h-.47v-5.85h.44l.02.58c.15-.21.33-.37.55-.48s.46-.17.73-.17c.29 0 .54.06.75.18s.38.28.52.48.24.43.3.69.1.53.1.81v.06zm-.47-.08c0-.21-.02-.42-.07-.63s-.12-.4-.23-.56-.24-.3-.4-.4-.37-.15-.61-.15c-.14 0-.26.02-.38.06s-.23.09-.32.16-.18.15-.26.25-.14.2-.19.31v2.09a1.268 1.268 0 0 0 1.17.71c.24 0 .44-.05.6-.16s.3-.24.4-.4.18-.35.22-.56.07-.42.07-.63v-.09zm1.61-.02c0-.29.05-.56.13-.82s.21-.48.37-.68.36-.35.59-.46.5-.17.79-.17c.3 0 .56.06.79.17s.43.27.59.46.29.42.37.68.13.53.13.82v.13c0 .29-.05.56-.13.82s-.21.48-.37.68-.36.35-.59.46-.5.17-.79.17-.56-.06-.79-.17-.43-.27-.59-.46-.29-.42-.37-.68-.13-.53-.13-.82v-.13zm.47.13c0 .22.03.44.09.65s.15.39.27.55.27.29.44.38.38.14.61.14c.23 0 .43-.05.61-.14s.32-.22.44-.38.21-.34.27-.55.09-.42.09-.65v-.13c0-.22-.03-.44-.09-.64s-.15-.39-.27-.55-.27-.29-.45-.39-.38-.15-.61-.15-.43.05-.61.15-.32.23-.44.39-.21.34-.27.55-.09.42-.09.64v.13zm7.37-2.26c.12 0 .23.01.35.02s.21.03.29.06l-.06.45a3.758 3.758 0 0 0-.67-.07c-.4 0-.73.09-1.01.28s-.47.48-.58.86v2.7h-.48v-4.23h.45l.03.73v.09c.17-.28.4-.5.68-.66s.63-.23 1-.23zm3.56-1v1.08h1.57v.38h-1.57v2.66c0 .16.03.3.08.41s.11.2.2.26.18.11.29.14.23.04.36.04.26-.01.4-.03.25-.04.35-.05l.07.36c-.11.04-.25.08-.41.1s-.33.03-.49.03c-.19 0-.36-.02-.52-.07s-.3-.12-.41-.22-.21-.23-.28-.39-.1-.36-.11-.59v-2.66h-1.18v-.38h1.18v-1.08h.47zm6.04 1c.12 0 .23.01.35.02s.21.03.29.06l-.06.45a3.758 3.758 0 0 0-.67-.07c-.4 0-.73.09-1.01.28s-.47.48-.58.86v2.7h-.48v-4.23h.45l.03.73v.09c.17-.28.4-.5.68-.66s.63-.23 1-.23zm4.91 4.3c-.03-.09-.05-.18-.07-.29s-.03-.21-.03-.32c-.08.1-.17.19-.28.27s-.22.16-.35.22-.26.11-.41.14-.3.05-.46.05a1.627 1.627 0 0 1-1-.33c-.13-.1-.23-.23-.3-.38s-.11-.31-.11-.49c0-.24.05-.45.16-.62s.25-.31.43-.41.39-.18.63-.23.49-.07.75-.07h.91v-.48a.886.886 0 0 0-.33-.72c-.1-.08-.23-.14-.37-.19s-.3-.06-.46-.06c-.15 0-.29.02-.43.06s-.26.1-.36.17-.19.16-.26.27-.1.22-.11.36h-.47c.01-.18.06-.35.14-.5s.21-.28.35-.39.32-.2.52-.26.41-.09.63-.09.43.03.63.09.37.14.51.26.26.26.34.43.13.37.13.6v2.05c0 .14.01.28.04.43s.06.28.09.41v.05h-.46zm-1.54-.33c.16 0 .32-.02.47-.06s.29-.1.41-.17.24-.16.33-.27.17-.22.23-.34v-.93h-.85c-.21 0-.4.02-.59.05s-.36.08-.5.15-.26.17-.35.29-.13.27-.13.45c0 .13.03.24.08.34s.12.19.21.26.19.13.31.16.24.07.38.07zm3.55-3.89h1.96v3.81h1.44v.41h-3.4v-.41h1.49v-3.39h-1.49v-.42zm1.35-1.16c0-.1.03-.18.08-.25s.15-.11.27-.11c.12 0 .22.04.27.11a.415.415 0 0 1 0 .49c-.05.07-.15.1-.27.1-.13 0-.22-.03-.27-.1s-.08-.15-.08-.24zm4.9.08v1.08h1.57v.38h-1.57v2.66c0 .16.03.3.08.41s.11.2.2.26.18.11.29.14.23.04.36.04.26-.01.4-.03.25-.04.35-.05l.07.36c-.11.04-.25.08-.41.1s-.33.03-.49.03c-.19 0-.36-.02-.52-.07s-.3-.12-.41-.22-.21-.23-.28-.39-.1-.36-.11-.59v-2.66h-1.18v-.38h1.18v-1.08h.47zm303.54 2.62l1.7-2.86h.65l-2.02 3.31 2.09 3.4h-.64l-1.76-2.96-1.76 2.96h-.65l2.09-3.4-2.02-3.31h.65l1.67 2.86zm-669.01 0l1.18-2.86h.45l-1.41 3.31 1.46 3.4h-.45l-1.23-2.96-1.23 2.96h-.45l1.46-3.4-1.41-3.31h.45l1.18 2.86zm102.5 0l1.7-2.86h.65l-2.02 3.31 2.09 3.4h-.64l-1.76-2.96-1.76 2.96h-.65l2.09-3.4-2.02-3.31h.65l1.67 2.86zm466.29 0l1.7-2.86h.65l-2.02 3.31 2.09 3.4h-.64l-1.76-2.96-1.76 2.96h-.65l2.09-3.4-2.02-3.31h.65l1.67 2.86zm-113.44 0l1.7-2.86h.65l-2.02 3.31 2.09 3.4h-.64l-1.76-2.96-1.76 2.96h-.65l2.09-3.4-2.02-3.31h.65l1.67 2.86zm-232.88 0l1.7-2.86h.65l-2.02 3.31 2.09 3.4h-.64l-1.76-2.96-1.76 2.96h-.65l2.09-3.4-2.02-3.31h.65l1.67 2.86z" fill="#FFF"/><path fill="none" stroke="#FFF" stroke-miterlimit="10" d="M-30.5 156.5h781v16h-781zm146 16.5v-16m-101 16v-16m221 16v-16m470 16v-16m-101 16v-16m-116 16v-16"/></g><g clip-path="url(#b)"><path fill="none" stroke="#FFF" stroke-miterlimit="10" stroke-dasharray="4" d="M-11.5 630.5h736v187h-736z"/></g><g clip-path="url(#b)"><path fill="none" stroke="#FFF" stroke-miterlimit="10" stroke-dasharray="4,4" d="M456.5 345v250"/><path fill="#FFF" d="M451.48 593l4.98 8.64 4.99-8.64z"/></g><g fill="none" stroke="#FFF" stroke-miterlimit="10" clip-path="url(#b)"><path d="M237 448.5h2"/><path stroke-dasharray="4,4" d="M243 448.5h243"/><path d="M488 448.5h2"/></g><path clip-path="url(#b)" fill="none" stroke="#FFF" stroke-miterlimit="10" d="M489 383.5l181.51-173.54M672 383.5L489.79 209.96"/></svg>