<svg id="Layer_1" xmlns="http://www.w3.org/2000/svg" viewBox="0 0 160 160"><style>.st0{fill:#567fc0}.st1{fill:#2bbaa2}.st2{fill:#65c3a6}.st3{fill:#5cc2ef}</style><path class="st0" d="M55.3 59.8h12.2v39.5H55.3V59.8z"/><path class="st1" d="M91.6 59.8h12.2v39.5H91.6V59.8z"/><path class="st2" d="M91.7 99.2h12.2L85.7 65.7H73.5l18.2 33.5z"/><path class="st3" d="M67.5 99.2H55.3l18.2-33.5h12.1L67.5 99.2z"/><path class="st0" d="M48.1 105.3V53.9h13.3v-7.8h-18c-1.7 0-3 1.4-3 3.1v60.3c0 1.7 1.4 3.4 3.1 3.4h18.1v-7.7l-13.5.1z"/><path class="st1" d="M111.1 105.3V53.9H97.8v-7.8h18.1c1.7 0 3.1 1.4 3.1 3.1v60.3c0 1.7-1.4 3.4-3.1 3.4H97.8v-7.7l13.3.1z"/></svg>