<?xml version="1.0" encoding="utf-8"?>
<!-- Generator: Adobe Illustrator 16.0.4, SVG Export Plug-In . SVG Version: 6.00 Build 0)  -->
<!DOCTYPE svg PUBLIC "-//W3C//DTD SVG 1.1//EN" "http://www.w3.org/Graphics/SVG/1.1/DTD/svg11.dtd">
<svg version="1.1" id="Global_Nav_Large" xmlns="http://www.w3.org/2000/svg" xmlns:xlink="http://www.w3.org/1999/xlink" x="0px"
	 y="0px" width="30px" height="44px" viewBox="0 0 30 44" enable-background="new 0 0 30 44" xml:space="preserve">
<path id="iPad" fill="#FFFFFF" d="M3.224,16.635C3.078,16.479,2.885,16.4,2.646,16.4c-0.229,0-0.419,0.078-0.57,0.234
	c-0.151,0.156-0.227,0.349-0.227,0.578c0,0.271,0.088,0.479,0.266,0.624c0.146,0.126,0.317,0.188,0.516,0.188
	c0.198,0,0.375-0.057,0.531-0.172c0.188-0.156,0.281-0.369,0.281-0.641C3.442,16.983,3.369,16.791,3.224,16.635z M3.239,19.462
	H2.052v7.548h1.188V19.462z M11.142,17.275C10.506,16.691,9.553,16.4,8.282,16.4c-0.896,0-1.719,0.067-2.469,0.202V27.01H7v-4.312
	c0.25,0.073,0.62,0.109,1.109,0.109c1.375,0,2.422-0.391,3.141-1.172c0.521-0.562,0.781-1.297,0.781-2.203
	C12.032,18.535,11.735,17.817,11.142,17.275L11.142,17.275z M10.126,21.243c-0.479,0.406-1.141,0.61-1.984,0.61
	c-0.479,0-0.86-0.042-1.141-0.125v-4.266c0.344-0.073,0.776-0.11,1.297-0.11c0.782,0,1.401,0.184,1.86,0.548
	c0.458,0.364,0.688,0.9,0.688,1.609C10.845,20.26,10.604,20.837,10.126,21.243z M18.953,25.213v-2.891
	c0-2.011-0.917-3.017-2.75-3.017c-0.917,0-1.703,0.214-2.359,0.641l0.282,0.812c0.541-0.354,1.177-0.53,1.906-0.53
	c1.156-0.011,1.734,0.607,1.734,1.854v0.172c-1.438-0.01-2.54,0.227-3.305,0.709c-0.766,0.483-1.148,1.178-1.148,2.082
	c0,0.582,0.187,1.07,0.562,1.465c0.417,0.447,0.974,0.671,1.672,0.671c1.01,0,1.771-0.38,2.281-1.141h0.047l0.109,0.969h1.078
	C18.99,26.54,18.953,25.941,18.953,25.213L18.953,25.213z M17.704,24.938c-0.125,0.372-0.339,0.679-0.641,0.917
	c-0.354,0.269-0.771,0.404-1.25,0.404c-0.375,0-0.688-0.117-0.938-0.35c-0.25-0.234-0.375-0.578-0.375-1.034
	c0-1.224,1.089-1.814,3.266-1.772v1.398C17.766,24.658,17.745,24.803,17.704,24.938L17.704,24.938z M27.762,25.135v-9.203h-1.188
	v4.547c-0.418-0.782-1.173-1.173-2.263-1.173c-0.942,0-1.729,0.354-2.357,1.063c-0.66,0.76-0.99,1.756-0.99,2.984
	c0,1.125,0.302,2.044,0.906,2.758c0.604,0.713,1.36,1.07,2.266,1.07c1.208,0,2.052-0.494,2.531-1.484h0.032l0.062,1.312h1.062l0,0
	C27.783,26.415,27.762,25.791,27.762,25.135L27.762,25.135z M25.978,25.523c-0.397,0.459-0.91,0.688-1.537,0.688
	c-0.722,0-1.292-0.292-1.709-0.876c-0.387-0.533-0.581-1.223-0.581-2.068c0-0.888,0.209-1.616,0.628-2.187
	c0.417-0.568,0.988-0.853,1.709-0.853c0.502,0,0.946,0.161,1.333,0.484c0.355,0.314,0.59,0.706,0.706,1.176
	c0.031,0.167,0.047,0.371,0.047,0.611v1.394C26.574,24.521,26.375,25.064,25.978,25.523z"/>
</svg>
