<?xml version="1.0" encoding="utf-8"?>
<!-- Generator: Adobe Illustrator 16.0.4, SVG Export Plug-In . SVG Version: 6.00 Build 0)  -->
<!DOCTYPE svg PUBLIC "-//W3C//DTD SVG 1.1//EN" "http://www.w3.org/Graphics/SVG/1.1/DTD/svg11.dtd">
<svg version="1.1" xmlns="http://www.w3.org/2000/svg" xmlns:xlink="http://www.w3.org/1999/xlink" x="0px" y="0px" width="40px"
	 height="44px" viewBox="0 0 40 44" enable-background="new 0 0 40 44" xml:space="preserve">
<g id="Global_Nav_Large">
	<path id="Music_1_" fill="#FFFFFF" d="M11.259,16.162H9.738l-2,5.472c-0.48,1.301-0.864,2.501-1.152,3.6H6.554
		c-0.149-0.587-0.314-1.179-0.496-1.776c-0.182-0.597-0.384-1.21-0.607-1.84l-1.921-5.456H2.01L1.273,26.946h1.152l0.288-4.72
		c0.053-0.832,0.098-1.645,0.136-2.44c0.037-0.794,0.062-1.576,0.072-2.344H2.97c0.139,0.597,0.312,1.243,0.52,1.936
		s0.451,1.44,0.729,2.24l1.824,5.28h0.896l1.969-5.392c0.267-0.714,0.509-1.411,0.728-2.088s0.425-1.336,0.616-1.976h0.048v0.272
		c0,0.448,0.017,1.035,0.049,1.76c0.031,0.726,0.074,1.605,0.128,2.64l0.271,4.832h1.185L11.259,16.162z M20.557,26.946
		c-0.021-0.341-0.038-0.683-0.048-1.024c-0.011-0.341-0.017-0.682-0.017-1.023v-5.68h-1.216v4.784c0,0.288-0.056,0.561-0.168,0.816
		s-0.262,0.479-0.448,0.672s-0.405,0.342-0.655,0.448c-0.251,0.106-0.51,0.16-0.776,0.16c-1.174,0-1.761-0.854-1.761-2.561v-4.32
		h-1.216v4.544c0,1.088,0.227,1.92,0.681,2.495c0.453,0.576,1.09,0.864,1.912,0.864c1.141,0,1.979-0.479,2.512-1.439h0.112v1.264
		H20.557z M25.313,22.498c-0.288-0.106-0.525-0.213-0.712-0.32c-0.187-0.106-0.336-0.213-0.448-0.32
		c-0.111-0.106-0.191-0.221-0.24-0.344c-0.048-0.123-0.071-0.258-0.071-0.408c0-0.32,0.117-0.586,0.352-0.8
		c0.234-0.213,0.561-0.32,0.977-0.32c0.565,0,1.077,0.149,1.536,0.448l0.336-0.912c-0.502-0.31-1.109-0.464-1.824-0.464
		c-0.384,0-0.733,0.056-1.048,0.168c-0.315,0.112-0.582,0.267-0.801,0.464s-0.39,0.429-0.512,0.696
		c-0.123,0.267-0.185,0.56-0.185,0.88c0,0.917,0.662,1.637,1.984,2.161c0.533,0.213,0.91,0.432,1.129,0.655
		c0.218,0.225,0.328,0.513,0.328,0.864c0,0.373-0.14,0.672-0.417,0.896c-0.277,0.224-0.655,0.336-1.136,0.336
		c-0.63,0-1.227-0.182-1.792-0.544l-0.32,0.943c0.587,0.353,1.28,0.528,2.08,0.528c0.864,0,1.542-0.205,2.032-0.616
		c0.49-0.41,0.736-0.968,0.736-1.672C27.298,23.793,26.636,23.02,25.313,22.498L25.313,22.498z M30.508,16.306
		c-0.155-0.16-0.354-0.24-0.601-0.24c-0.234,0-0.43,0.08-0.584,0.24c-0.154,0.16-0.231,0.357-0.231,0.592
		c0,0.245,0.077,0.445,0.231,0.6c0.154,0.155,0.345,0.232,0.568,0.232c0.245,0,0.445-0.078,0.6-0.232
		c0.155-0.154,0.232-0.354,0.232-0.6C30.734,16.663,30.662,16.466,30.508,16.306z M30.516,19.218H29.3v7.728h1.216V19.218z
		 M38.526,19.474c-0.502-0.277-1.142-0.416-1.921-0.416c-0.597,0-1.144,0.102-1.64,0.304s-0.92,0.485-1.272,0.848
		c-0.352,0.362-0.627,0.794-0.824,1.296s-0.296,1.056-0.296,1.664c0,0.598,0.088,1.137,0.265,1.616
		c0.176,0.48,0.429,0.894,0.76,1.24c0.33,0.347,0.726,0.613,1.185,0.8c0.458,0.187,0.97,0.28,1.535,0.28
		c0.854,0,1.579-0.149,2.177-0.448l-0.24-0.928c-0.565,0.256-1.136,0.384-1.712,0.384c-0.406,0-0.773-0.072-1.104-0.216
		c-0.331-0.145-0.616-0.347-0.855-0.608c-0.24-0.261-0.427-0.578-0.561-0.952c-0.134-0.373-0.2-0.783-0.2-1.231
		c0-0.438,0.064-0.843,0.192-1.216c0.128-0.373,0.31-0.696,0.544-0.968s0.522-0.485,0.864-0.64c0.341-0.154,0.73-0.232,1.168-0.232
		c0.618,0,1.163,0.128,1.632,0.384L38.526,19.474z"/>
</g>
</svg>
