<?xml version="1.0" encoding="utf-8"?>
<!-- Generator: Adobe Illustrator 16.0.4, SVG Export Plug-In . SVG Version: 6.00 Build 0)  -->
<!DOCTYPE svg PUBLIC "-//W3C//DTD SVG 1.1//EN" "http://www.w3.org/Graphics/SVG/1.1/DTD/svg11.dtd">
<svg version="1.1" id="Global_Nav_Large" xmlns="http://www.w3.org/2000/svg" xmlns:xlink="http://www.w3.org/1999/xlink" x="0px"
	 y="0px" width="31px" height="44px" viewBox="0 0 31 44" enable-background="new 0 0 31 44" xml:space="preserve">
<path id="Mac" fill="#FFFFFF" d="M12.268,15.942h-1.565l-2.05,5.616c-0.491,1.325-0.884,2.558-1.18,3.696H7.44
	c-0.306-1.194-0.683-2.432-1.131-3.713l-1.969-5.6H2.777L2.02,27.012h1.183l0.295-4.846c0.109-1.707,0.18-3.344,0.213-4.909h0.05
	c0.284,1.214,0.711,2.644,1.28,4.286l1.873,5.42h0.92l2.02-5.534c0.525-1.468,0.985-2.859,1.379-4.172h0.05
	c-0.012,0.865,0.049,2.464,0.181,4.795l0.279,4.96h1.215L12.268,15.942z M20.7,25.124v-3.038c0-2.114-0.964-3.171-2.891-3.171
	c-0.963,0-1.79,0.224-2.48,0.673l0.296,0.854c0.569-0.372,1.237-0.557,2.004-0.557c1.215-0.012,1.823,0.638,1.823,1.948v0.181
	c-1.511-0.011-2.668,0.238-3.474,0.746c-0.805,0.508-1.208,1.238-1.208,2.188c0,0.611,0.197,1.124,0.591,1.54
	c0.438,0.47,1.024,0.705,1.757,0.705c1.062,0,1.862-0.399,2.398-1.199h0.049l0.116,1.019h1.133
	C20.738,26.519,20.7,25.889,20.7,25.124L20.7,25.124z M19.386,24.835c-0.131,0.392-0.356,0.713-0.673,0.964
	c-0.373,0.283-0.811,0.425-1.314,0.425c-0.395,0-0.723-0.124-0.986-0.368c-0.263-0.246-0.394-0.607-0.394-1.086
	c0-1.286,1.144-1.908,3.433-1.863v1.47C19.451,24.541,19.429,24.692,19.386,24.835L19.386,24.835z M26.857,18.915
	c-1.237,0-2.236,0.395-2.998,1.183c-0.761,0.789-1.141,1.801-1.141,3.038c0,1.216,0.353,2.193,1.06,2.932
	c0.706,0.739,1.634,1.109,2.784,1.109c0.864,0,1.609-0.153,2.233-0.46l-0.246-0.952c-0.581,0.263-1.166,0.394-1.757,0.394
	c-0.821,0-1.492-0.282-2.012-0.846s-0.78-1.311-0.78-2.241c0-0.899,0.25-1.645,0.748-2.242c0.498-0.598,1.196-0.896,2.094-0.896
	c0.635,0,1.194,0.132,1.675,0.395l0.312-0.986C28.325,19.057,27.667,18.915,26.857,18.915L26.857,18.915z"/>
</svg>
