<?xml version="1.0" encoding="utf-8"?>
<!-- Generator: Adobe Illustrator 16.0.4, SVG Export Plug-In . SVG Version: 6.00 Build 0)  -->
<!DOCTYPE svg PUBLIC "-//W3C//DTD SVG 1.1//EN" "http://www.w3.org/Graphics/SVG/1.1/DTD/svg11.dtd">
<svg version="1.1" id="Global_Nav_Large" xmlns="http://www.w3.org/2000/svg" xmlns:xlink="http://www.w3.org/1999/xlink" x="0px"
	 y="0px" width="48px" height="44px" viewBox="0 0 48 44" enable-background="new 0 0 48 44" xml:space="preserve">
<path id="iPhone" fill="#FFFFFF" d="M3.202,16.64c-0.146-0.156-0.338-0.234-0.578-0.234c-0.229,0-0.42,0.078-0.57,0.234
	c-0.151,0.157-0.227,0.349-0.227,0.578c0,0.271,0.089,0.479,0.266,0.625c0.146,0.124,0.317,0.187,0.516,0.187
	c0.198,0,0.375-0.057,0.531-0.171c0.188-0.157,0.282-0.37,0.282-0.641C3.421,16.989,3.348,16.796,3.202,16.64z M3.218,19.468H2.03
	v7.546h1.188V19.468z M11.12,17.281c-0.636-0.583-1.589-0.875-2.859-0.875c-0.896,0-1.719,0.068-2.469,0.203v10.406h1.188v-4.312
	c0.25,0.074,0.619,0.11,1.109,0.11c1.375,0,2.422-0.391,3.141-1.172c0.521-0.563,0.781-1.297,0.781-2.203
	C12.011,18.542,11.714,17.822,11.12,17.281L11.12,17.281z M10.104,21.25c-0.479,0.406-1.141,0.608-1.984,0.608
	c-0.479,0-0.859-0.041-1.141-0.125v-4.266c0.344-0.073,0.776-0.109,1.297-0.109c0.782,0,1.401,0.183,1.86,0.547
	c0.458,0.365,0.688,0.901,0.688,1.609C10.824,20.265,10.584,20.844,10.104,21.25z M20.026,22.469c0-1.157-0.312-2.01-0.938-2.563
	c-0.458-0.395-1.005-0.593-1.641-0.593c-0.479,0-0.935,0.122-1.367,0.366c-0.432,0.246-0.768,0.576-1.008,0.993h-0.031v-4.734
	h-1.188v11.078h1.188v-4.594c0-0.271,0.031-0.494,0.094-0.671c0.146-0.417,0.393-0.763,0.738-1.04
	c0.345-0.275,0.737-0.414,1.177-0.414c1.192,0,1.789,0.771,1.789,2.312v4.407h1.188V22.469z M28.208,20.438
	c-0.646-0.75-1.51-1.125-2.594-1.125c-1.115,0-2.006,0.391-2.672,1.171c-0.635,0.74-0.953,1.677-0.953,2.813
	c0,1.104,0.308,2.015,0.922,2.734c0.646,0.771,1.505,1.156,2.578,1.156c1.125,0,2.021-0.396,2.688-1.188
	c0.635-0.739,0.953-1.682,0.953-2.828C29.13,22.067,28.822,21.155,28.208,20.438L28.208,20.438z M27.315,25.268
	c-0.449,0.665-1.045,0.998-1.787,0.998c-0.742,0-1.333-0.327-1.771-0.982c-0.387-0.571-0.58-1.242-0.58-2.011
	c0-0.81,0.188-1.496,0.564-2.057c0.428-0.654,1.034-0.982,1.818-0.982c0.752,0,1.343,0.322,1.771,0.967
	c0.376,0.561,0.565,1.236,0.565,2.026C27.896,24.005,27.702,24.686,27.315,25.268L27.315,25.268z M37.299,22.469
	c0-1.157-0.317-2.01-0.953-2.563c-0.458-0.395-1.005-0.593-1.641-0.593c-0.573,0-1.089,0.14-1.547,0.421
	c-0.417,0.261-0.725,0.588-0.922,0.984h-0.046l-0.062-1.25h-1.063c0.042,0.708,0.063,1.364,0.063,1.969v5.578h1.187v-4.594
	c0-0.229,0.032-0.442,0.095-0.641c0.136-0.427,0.376-0.781,0.721-1.062c0.345-0.28,0.743-0.421,1.193-0.421
	c1.192,0,1.789,0.771,1.789,2.312v4.407h1.187V22.469z M45.106,20.546c-0.531-0.833-1.333-1.249-2.406-1.249
	c-1.031,0-1.863,0.379-2.493,1.141c-0.63,0.759-0.945,1.734-0.945,2.921c0,1.146,0.323,2.066,0.969,2.758
	c0.646,0.692,1.521,1.039,2.625,1.039c0.958,0,1.766-0.156,2.422-0.468l-0.219-0.859c-0.594,0.271-1.271,0.406-2.031,0.406
	c-0.761,0-1.365-0.22-1.813-0.66c-0.521-0.492-0.786-1.22-0.797-2.184h5.235c0.031-0.157,0.046-0.36,0.046-0.609
	C45.7,21.916,45.501,21.172,45.106,20.546L45.106,20.546z M40.418,22.515c0.062-0.614,0.256-1.129,0.58-1.547
	c0.397-0.53,0.92-0.796,1.569-0.796c0.701,0,1.224,0.271,1.569,0.812c0.261,0.417,0.387,0.927,0.376,1.531H40.418z"/>
</svg>
