<?xml version="1.0" encoding="utf-8"?>
<!-- Generator: Adobe Illustrator 16.0.4, SVG Export Plug-In . SVG Version: 6.00 Build 0)  -->
<!DOCTYPE svg PUBLIC "-//W3C//DTD SVG 1.1//EN" "http://www.w3.org/Graphics/SVG/1.1/DTD/svg11.dtd">
<svg version="1.1" id="Global_Nav_Large" xmlns="http://www.w3.org/2000/svg" xmlns:xlink="http://www.w3.org/1999/xlink" x="0px"
	 y="0px" width="57px" height="44px" viewBox="0 0 57 44" enable-background="new 0 0 57 44" xml:space="preserve">
<path id="Support" fill="#FFFFFF" d="M7.513,22.239c-0.414-0.467-1.081-0.885-2.003-1.255c-0.762-0.318-1.298-0.621-1.605-0.906
	c-0.339-0.329-0.508-0.747-0.508-1.256c0-0.444,0.153-0.82,0.461-1.128c0.381-0.371,0.916-0.556,1.605-0.556
	c0.762,0,1.409,0.165,1.938,0.493l0.365-0.985c-0.572-0.339-1.324-0.508-2.257-0.508c-0.985,0-1.785,0.268-2.399,0.802
	c-0.615,0.535-0.923,1.216-0.923,2.042c0,1.314,0.921,2.32,2.76,3.02c0.722,0.265,1.24,0.569,1.554,0.914
	c0.314,0.344,0.471,0.782,0.471,1.312c0,0.583-0.205,1.048-0.614,1.398c-0.408,0.349-0.975,0.524-1.697,0.524
	c-0.872,0-1.663-0.222-2.375-0.667L1.95,26.481c0.656,0.456,1.53,0.684,2.622,0.684c1.155,0,2.061-0.302,2.718-0.906
	c0.593-0.551,0.89-1.261,0.89-2.13C8.18,23.378,7.957,22.747,7.513,22.239L7.513,22.239z M16.307,24.972v-5.641H15.1v4.751
	c0,0.276-0.043,0.524-0.127,0.747c-0.138,0.361-0.366,0.663-0.684,0.906c-0.36,0.286-0.769,0.43-1.224,0.43
	c-1.166,0-1.749-0.848-1.749-2.543v-4.29h-1.207v4.513c0,1.218,0.286,2.108,0.858,2.669c0.435,0.445,1.006,0.667,1.716,0.667
	c1.134,0,1.965-0.476,2.495-1.43h0.048l0.064,1.255h1.08C16.328,26.317,16.307,25.64,16.307,24.972L16.307,24.972z M24.959,20.252
	c-0.607-0.721-1.374-1.081-2.301-1.081c-1.225,0-2.125,0.498-2.7,1.494l-0.064-1.335h-1.096c0.042,0.825,0.063,1.65,0.063,2.476
	v8.33h1.208v-4.195c0.49,0.826,1.278,1.239,2.365,1.239c0.958,0,1.752-0.344,2.381-1.033c0.703-0.752,1.055-1.78,1.055-3.083l0,0
	l0,0C25.87,21.911,25.566,20.972,24.959,20.252z M24.04,25.338c-0.437,0.582-1.025,0.874-1.77,0.874
	c-0.639,0-1.165-0.223-1.579-0.667c-0.415-0.445-0.622-0.985-0.622-1.621v-1.399c0-0.147,0.026-0.344,0.08-0.588
	c0.138-0.54,0.412-0.974,0.82-1.303c0.409-0.329,0.858-0.493,1.349-0.493c0.732,0,1.312,0.297,1.737,0.889
	c0.405,0.551,0.606,1.246,0.606,2.083C24.662,24.045,24.455,24.787,24.04,25.338L24.04,25.338z M34.027,20.252
	c-0.606-0.721-1.374-1.081-2.301-1.081c-1.226,0-2.125,0.498-2.701,1.494l-0.062-1.335h-1.097c0.042,0.825,0.063,1.65,0.063,2.476
	v8.33h1.208v-4.195c0.489,0.826,1.278,1.239,2.364,1.239c0.959,0,1.753-0.344,2.383-1.033c0.702-0.752,1.054-1.78,1.054-3.083l0,0
	l0,0C34.938,21.911,34.635,20.972,34.027,20.252z M33.108,25.338c-0.437,0.582-1.026,0.874-1.771,0.874
	c-0.638,0-1.164-0.223-1.579-0.667c-0.414-0.445-0.621-0.985-0.621-1.621v-1.399c0-0.147,0.026-0.344,0.079-0.588
	c0.139-0.54,0.412-0.974,0.821-1.303s0.858-0.493,1.348-0.493c0.734,0,1.313,0.297,1.739,0.889c0.403,0.551,0.605,1.246,0.605,2.083
	C33.73,24.045,33.523,24.787,33.108,25.338L33.108,25.338z M42.854,20.316c-0.658-0.763-1.537-1.145-2.639-1.145
	c-1.134,0-2.039,0.398-2.718,1.191c-0.646,0.752-0.97,1.706-0.97,2.861c0,1.122,0.312,2.049,0.938,2.781
	c0.657,0.784,1.531,1.175,2.623,1.175c1.144,0,2.056-0.402,2.733-1.208c0.646-0.751,0.97-1.711,0.97-2.875
	C43.791,21.974,43.478,21.047,42.854,20.316L42.854,20.316z M41.945,25.229c-0.458,0.676-1.062,1.015-1.817,1.015
	c-0.756,0-1.356-0.333-1.803-1c-0.394-0.581-0.589-1.263-0.589-2.044c0-0.823,0.19-1.522,0.572-2.092
	c0.438-0.665,1.053-0.999,1.851-0.999c0.765,0,1.366,0.328,1.802,0.984c0.383,0.57,0.574,1.257,0.574,2.06
	C42.535,23.945,42.338,24.638,41.945,25.229L41.945,25.229z M49.42,19.203c-0.107-0.021-0.23-0.031-0.367-0.031
	c-0.466,0-0.891,0.151-1.271,0.452c-0.382,0.303-0.662,0.708-0.843,1.216h-0.048l-0.046-1.509h-1.05
	c0.031,0.773,0.048,1.552,0.048,2.336v5.339h1.207v-4.147c0-0.668,0.147-1.235,0.442-1.7c0.358-0.562,0.853-0.842,1.484-0.842
	c0.168,0,0.316,0,0.443,0V19.203z M55.09,19.331h-2.004v-1.796l-1.207,0.397v1.399H50.67v0.937h1.209v4.386
	c0,0.901,0.168,1.544,0.508,1.931c0.34,0.387,0.82,0.58,1.447,0.58c0.467,0,0.852-0.059,1.16-0.175l-0.064-0.938
	c-0.219,0.074-0.488,0.112-0.803,0.112c-0.693,0-1.041-0.503-1.041-1.51v-4.386h2.004V19.331z"/>
</svg>
