<?xml version="1.0" encoding="utf-8"?>
<!-- Generator: Adobe Illustrator 16.0.4, SVG Export Plug-In . SVG Version: 6.00 Build 0)  -->
<!DOCTYPE svg PUBLIC "-//W3C//DTD SVG 1.1//EN" "http://www.w3.org/Graphics/SVG/1.1/DTD/svg11.dtd">
<svg version="1.1" id="Global_Nav_Large" xmlns="http://www.w3.org/2000/svg" xmlns:xlink="http://www.w3.org/1999/xlink" x="0px"
	 y="0px" width="44px" height="44px" viewBox="0 0 44 44" enable-background="new 0 0 44 44" xml:space="preserve">
<path id="Watch_2_" fill="#FFFFFF" d="M14.016,16.225l-1.456,5.454c-0.385,1.458-0.667,2.677-0.843,3.656h-0.031
	c-0.136-0.885-0.391-2.104-0.765-3.656l-1.344-5.454H8.372l-1.453,5.47c-0.47,1.729-0.762,2.948-0.877,3.655H5.995
	c-0.178-1.01-0.438-2.223-0.783-3.64l-1.287-5.485H2.668l2.657,10.532h1.219l1.558-5.622c0.426-1.564,0.7-2.721,0.825-3.472h0.031
	c0.114,0.833,0.353,1.989,0.716,3.468l1.371,5.626h1.204l2.969-10.532H14.016z M21.429,24.96v-2.891c0-2.01-0.917-3.017-2.75-3.017
	c-0.917,0-1.704,0.214-2.36,0.641l0.282,0.812c0.541-0.354,1.177-0.53,1.906-0.53c1.156-0.011,1.734,0.607,1.734,1.854v0.172
	c-1.438-0.01-2.54,0.227-3.305,0.709c-0.766,0.483-1.149,1.178-1.149,2.082c0,0.582,0.188,1.07,0.563,1.465
	c0.416,0.447,0.974,0.67,1.672,0.67c1.01,0,1.771-0.379,2.281-1.141h0.047l0.109,0.969h1.078
	C21.465,26.287,21.429,25.688,21.429,24.96L21.429,24.96z M20.179,24.685c-0.125,0.373-0.339,0.679-0.641,0.917
	c-0.354,0.269-0.771,0.404-1.25,0.404c-0.375,0-0.688-0.117-0.938-0.35c-0.25-0.233-0.375-0.578-0.375-1.034
	c0-1.224,1.088-1.815,3.266-1.773v1.399C20.241,24.405,20.22,24.55,20.179,24.685L20.179,24.685z M27.25,19.209h-1.969v-1.766
	l-1.188,0.39v1.375h-1.188v0.922h1.188v4.312c0,0.886,0.167,1.518,0.5,1.899c0.333,0.38,0.807,0.57,1.422,0.57
	c0.458,0,0.838-0.057,1.141-0.172l-0.062-0.922c-0.217,0.073-0.48,0.11-0.791,0.11c-0.682,0-1.022-0.495-1.022-1.485v-4.312h1.969
	V19.209z M32.2,19.052c-1.177,0-2.128,0.376-2.852,1.125c-0.725,0.75-1.086,1.714-1.086,2.891c0,1.157,0.336,2.087,1.008,2.79
	c0.672,0.703,1.555,1.055,2.648,1.055c0.823,0,1.532-0.146,2.126-0.438l-0.235-0.906c-0.552,0.25-1.11,0.375-1.672,0.375
	c-0.781,0-1.419-0.268-1.914-0.805c-0.495-0.536-0.742-1.248-0.742-2.133c0-0.854,0.237-1.565,0.711-2.132
	c0.474-0.568,1.138-0.853,1.993-0.853c0.604,0,1.135,0.126,1.593,0.375l0.297-0.938C33.597,19.188,32.971,19.052,32.2,19.052
	L32.2,19.052z M42,22.209c0-1.156-0.312-2.011-0.938-2.562c-0.458-0.396-1.006-0.595-1.641-0.595c-0.479,0-0.936,0.123-1.368,0.368
	c-0.432,0.244-0.768,0.576-1.008,0.992h-0.031v-4.734h-1.188v11.078h1.188v-4.594c0-0.271,0.031-0.495,0.094-0.672
	c0.146-0.416,0.392-0.763,0.737-1.039c0.345-0.276,0.738-0.414,1.177-0.414c1.193,0,1.789,0.771,1.789,2.313v4.406H42V22.209z"/>
</svg>
