<?xml version="1.0" encoding="utf-8"?>
<svg id="master-artboard" viewBox="0 0 1305.04150390625 162.15614318847656" version="1.1" xmlns="http://www.w3.org/2000/svg" x="0px" y="0px" style="enable-background:new 0 0 1400 980;" width="1305.04150390625px" height="162.15614318847656px"><rect id="ee-background" x="0" y="0" width="1305.04150390625" height="162.15614318847656" style="fill: white; fill-opacity: 0; pointer-events: none;"/><g transform="matrix(0.9219984412193298, -3.093229281603271e-7, 3.093229281603271e-7, 0.9219984412193298, 0.14723855257034302, 0.2890510840859122)"><g>
	<path fill="#ED2026" d="M108.703,87.625c0-27.855,13.013-52.654,33.272-68.704C127.038,7.088,108.164,0,87.624,0   C39.231,0,0,39.232,0,87.625c0,48.394,39.231,87.626,87.624,87.626c20.54,0,39.414-7.087,54.351-18.922   C121.716,140.28,108.703,115.479,108.703,87.625"/>
	<path fill="#F26A21" d="M108.703,87.625c0,27.854,13.013,52.655,33.272,68.705c20.261-16.05,33.274-40.851,33.274-68.705   c0-27.855-13.013-52.654-33.274-68.704C121.716,34.971,108.703,59.77,108.703,87.625"/>
	<path d="M427.98,64.085c-2.036-2.04-4.45-3.627-7.246-4.76c-2.798-1.13-5.859-1.696-9.184-1.696c-1.759,0-3.589,0.151-5.485,0.456   c-1.896,0.304-3.754,0.838-5.572,1.605c-1.818,0.768-3.55,1.831-5.194,3.182c-1.643,1.355-3.072,3.062-4.282,5.123   c-1.958-3.23-4.607-5.768-7.952-7.608c-3.342-1.839-7.167-2.758-11.469-2.758c-1.449,0-2.944,0.132-4.49,0.394   c-1.545,0.265-3.08,0.719-4.604,1.364c-1.527,0.647-2.984,1.526-4.373,2.638c-1.39,1.111-2.65,2.516-3.785,4.214v-7.095h-12.202   v58.077h12.321V85.032c0-2.467,0.391-4.659,1.173-6.579c0.782-1.92,1.827-3.526,3.14-4.82c1.309-1.293,2.845-2.273,4.604-2.942   c1.762-0.666,3.64-0.998,5.634-0.998c4.146,0,7.363,1.314,9.65,3.94c2.29,2.626,3.432,6.385,3.432,11.275v32.312h12.323V85.032   c0-2.467,0.389-4.659,1.173-6.579c0.782-1.92,1.827-3.526,3.137-4.82c1.313-1.293,2.848-2.273,4.607-2.942   c1.759-0.666,3.636-0.998,5.632-0.998c4.145,0,7.363,1.314,9.652,3.94c2.287,2.626,3.432,6.385,3.432,11.275v32.312h12.321V80.726   c0-3.394-0.556-6.506-1.672-9.336C431.588,68.563,430.012,66.126,427.98,64.085"/>
	<path d="M492.956,66.176c-2.021-2.586-4.526-4.657-7.518-6.214c-2.992-1.554-6.567-2.333-10.729-2.333   c-4.085,0-7.881,0.758-11.398,2.272c-3.516,1.517-6.587,3.627-9.213,6.336c-2.629,2.708-4.69,5.931-6.186,9.669   c-1.494,3.738-2.242,7.832-2.242,12.276c0,4.448,0.749,8.537,2.242,12.277c1.495,3.738,3.556,6.961,6.186,9.67   c2.625,2.708,5.697,4.816,9.213,6.335c3.517,1.514,7.313,2.272,11.398,2.272c4.161,0,7.737-0.769,10.729-2.305   c2.991-1.534,5.497-3.595,7.518-6.183v6.97h12.671V59.143h-12.671V66.176z M492.472,95.578c-0.849,2.264-2.042,4.224-3.578,5.882   c-1.537,1.656-3.374,2.96-5.517,3.91c-2.141,0.95-4.527,1.424-7.152,1.424c-2.749,0-5.205-0.492-7.367-1.486   c-2.162-0.988-3.992-2.323-5.484-4.002c-1.497-1.675-2.647-3.644-3.456-5.909c-0.81-2.264-1.213-4.667-1.213-7.214   c0-2.545,0.404-4.95,1.213-7.214c0.809-2.264,1.959-4.232,3.456-5.909c1.493-1.677,3.322-3.01,5.484-4.002   c2.162-0.989,4.618-1.486,7.367-1.486c2.625,0,5.012,0.476,7.152,1.425c2.144,0.953,3.98,2.254,5.517,3.911   c1.535,1.658,2.729,3.618,3.578,5.881c0.848,2.263,1.271,4.729,1.271,7.395C493.743,90.849,493.32,93.314,492.472,95.578"/>
	<path d="M563.867,88.091c-3.557-2.767-8.506-4.617-14.854-5.547l-5.999-0.909c-1.334-0.202-2.585-0.434-3.759-0.698   c-1.173-0.261-2.181-0.616-3.031-1.059c-0.851-0.445-1.527-1.011-2.033-1.699c-0.506-0.688-0.759-1.535-0.759-2.546   c0-2.061,0.961-3.729,2.884-5.003c1.919-1.271,4.614-1.908,8.093-1.908c1.816,0,3.606,0.161,5.363,0.485   c1.758,0.323,3.428,0.726,5.001,1.211c1.577,0.485,3.013,1.022,4.306,1.609c1.293,0.584,2.383,1.142,3.271,1.665l5.461-9.881   c-3.031-1.94-6.569-3.446-10.613-4.515c-4.039-1.071-8.345-1.608-12.913-1.608c-3.717,0-7.052,0.435-10.001,1.304   c-2.948,0.869-5.465,2.101-7.549,3.698c-2.079,1.597-3.676,3.547-4.789,5.849c-1.108,2.306-1.665,4.891-1.665,7.761   c0,4.688,1.665,8.477,5,11.367c3.336,2.892,8.234,4.777,14.703,5.67l6.063,0.787c3.474,0.482,6.022,1.265,7.637,2.332   c1.615,1.072,2.43,2.436,2.43,4.092c0,2.183-1.118,3.91-3.336,5.185c-2.227,1.272-5.521,1.911-9.881,1.911   c-2.388,0-4.518-0.165-6.399-0.487c-1.877-0.324-3.598-0.759-5.152-1.304c-1.555-0.546-2.949-1.171-4.182-1.88   c-1.233-0.708-2.374-1.463-3.428-2.272l-5.879,9.519c2.103,1.575,4.306,2.85,6.606,3.818c2.305,0.971,4.568,1.729,6.79,2.274   s4.324,0.908,6.307,1.091c1.979,0.182,3.718,0.273,5.212,0.273c4.164,0,7.89-0.465,11.188-1.394   c3.289-0.932,6.059-2.234,8.304-3.911c2.24-1.679,3.961-3.675,5.152-6.003c1.191-2.323,1.789-4.879,1.789-7.669   C569.203,94.731,567.423,90.858,563.867,88.091"/>
	<path d="M682.501,66.085c-2.406-2.688-5.295-4.767-8.672-6.244c-3.372-1.475-7.085-2.212-11.124-2.212   c-4.282,0-8.193,0.737-11.73,2.212c-3.538,1.477-6.578,3.556-9.123,6.244c-2.548,2.688-4.526,5.909-5.943,9.669   c-1.412,3.76-2.121,7.902-2.121,12.427c0,4.61,0.728,8.792,2.182,12.552c1.458,3.756,3.496,6.969,6.127,9.635   c2.627,2.669,5.76,4.734,9.395,6.186c3.639,1.456,7.636,2.183,12.002,2.183c4.407,0,8.598-0.607,12.582-1.819   c3.979-1.212,7.747-3.333,11.303-6.364l-6.303-9.033c-2.424,1.941-5.102,3.445-8.032,4.516c-2.93,1.071-5.852,1.605-8.759,1.605   c-2.065,0-4.044-0.281-5.943-0.847c-1.9-0.565-3.616-1.444-5.152-2.636c-1.537-1.191-2.848-2.722-3.938-4.577   c-1.09-1.859-1.84-4.104-2.245-6.73h42.922c0.078-0.728,0.143-1.495,0.18-2.301c0.041-0.812,0.064-1.62,0.064-2.428   c0-4.526-0.677-8.658-2.034-12.399C686.783,71.987,684.902,68.773,682.501,66.085 M647.064,83.211   c0.322-2.101,0.888-4.032,1.697-5.79s1.85-3.274,3.124-4.546c1.274-1.274,2.787-2.254,4.545-2.942   c1.757-0.686,3.768-1.029,6.031-1.029c4.043,0,7.337,1.254,9.881,3.76c2.549,2.506,4.163,6.021,4.849,10.547H647.064z"/>
	<path d="M850.832,66.176c-2.024-2.586-4.527-4.657-7.518-6.214c-2.994-1.554-6.569-2.333-10.728-2.333   c-4.085,0-7.886,0.758-11.399,2.272c-3.516,1.517-6.588,3.627-9.215,6.336s-4.688,5.931-6.183,9.669   c-1.5,3.738-2.245,7.832-2.245,12.276c0,4.448,0.745,8.537,2.245,12.277c1.495,3.738,3.556,6.961,6.183,9.67   c2.627,2.708,5.699,4.816,9.215,6.335c3.514,1.514,7.314,2.272,11.399,2.272c4.158,0,7.733-0.769,10.728-2.305   c2.99-1.534,5.493-3.595,7.518-6.183v6.97h12.669V59.143h-12.669V66.176z M850.349,95.578c-0.852,2.264-2.043,4.224-3.579,5.882   c-1.537,1.656-3.377,2.96-5.516,3.91c-2.145,0.95-4.527,1.424-7.154,1.424c-2.75,0-5.202-0.492-7.364-1.486   c-2.162-0.988-3.993-2.323-5.488-4.002c-1.495-1.675-2.646-3.644-3.455-5.909c-0.81-2.264-1.21-4.667-1.21-7.214   c0-2.545,0.4-4.95,1.21-7.214c0.81-2.264,1.96-4.232,3.455-5.909s3.326-3.01,5.488-4.002c2.162-0.989,4.614-1.486,7.364-1.486   c2.627,0,5.01,0.476,7.154,1.425c2.139,0.953,3.979,2.254,5.516,3.911c1.536,1.658,2.728,3.618,3.579,5.881   c0.847,2.263,1.27,4.729,1.27,7.395C851.618,90.849,851.195,93.314,850.349,95.578"/>
	<path d="M618.197,105.641c-2.043,0.769-4.053,1.152-6.031,1.152c-1.297,0-2.498-0.202-3.611-0.607   c-1.108-0.4-2.079-1.039-2.907-1.909c-0.828-0.869-1.486-1.989-1.974-3.362c-0.483-1.376-0.727-3.032-0.727-4.974v-25.28h20.352   V59.145h-20.352V41.563h-12.729v17.582h-11.579v11.517h11.579v25.524c0,7.72,1.831,13.41,5.488,17.063   c3.657,3.66,8.777,5.488,15.37,5.488c3.676,0,6.979-0.565,9.908-1.697c1.938-0.75,3.736-1.604,5.415-2.544l-4.333-10.608   C620.842,104.54,619.555,105.13,618.197,105.641"/>
	<path d="M732.584,57.628c-3.556,0-6.767,0.647-9.637,1.94c-2.871,1.294-5.272,4.407-7.214,7.196v-7.619h-11.505v58.077h11.625   V85.273c0-2.466,0.345-4.668,1.03-6.609c0.686-1.94,1.638-3.574,2.852-4.911c1.21-1.333,2.664-2.342,4.366-3.028   c1.693-0.688,3.552-1.032,5.575-1.032c1.537,0,3.193,0.181,4.969,0.544c0.906,0.185,1.757,0.414,2.549,0.686l3.744-12.123   c-1.017-0.321-2.047-0.596-3.104-0.777C736.273,57.76,734.525,57.628,732.584,57.628"/>
	<path d="M908.718,57.628c-3.561,0-6.771,0.647-9.643,1.94c-2.87,1.294-5.271,4.407-7.213,7.196v-7.619h-11.501v58.077h11.62V85.273   c0-2.466,0.345-4.668,1.035-6.609c0.686-1.94,1.633-3.574,2.848-4.911c1.21-1.333,2.668-2.342,4.366-3.028   c1.692-0.688,3.551-1.032,5.575-1.032c1.536,0,3.192,0.181,4.973,0.544c0.906,0.185,1.753,0.414,2.544,0.686l3.745-12.123   c-1.017-0.321-2.047-0.596-3.105-0.777C912.402,57.76,910.654,57.628,908.718,57.628"/>
	<path d="M967.896,35.538v30.638c-2.024-2.586-4.527-4.657-7.518-6.214c-2.994-1.554-6.568-2.333-10.732-2.333   c-4.08,0-7.88,0.758-11.395,2.272c-3.52,1.517-6.588,3.627-9.215,6.336c-2.631,2.708-4.692,5.931-6.183,9.669   c-1.5,3.738-2.245,7.832-2.245,12.276c0,4.448,0.745,8.537,2.245,12.277c1.49,3.738,3.552,6.961,6.183,9.67   c2.627,2.708,5.695,4.816,9.215,6.335c3.515,1.514,7.314,2.272,11.395,2.272c4.164,0,7.738-0.769,10.732-2.305   c2.99-1.534,5.493-3.595,7.518-6.183v6.97h12.669V35.538H967.896z M967.408,95.578c-0.846,2.264-2.042,4.224-3.578,5.882   c-1.532,1.656-3.372,2.96-5.517,3.91c-2.139,0.95-4.526,1.424-7.153,1.424c-2.746,0-5.203-0.492-7.365-1.486   c-2.162-0.988-3.988-2.323-5.488-4.002c-1.49-1.675-2.645-3.644-3.45-5.909c-0.81-2.264-1.214-4.667-1.214-7.214   c0-2.545,0.404-4.95,1.214-7.214c0.806-2.264,1.96-4.232,3.45-5.909c1.5-1.677,3.326-3.01,5.488-4.002   c2.162-0.989,4.619-1.486,7.365-1.486c2.627,0,5.015,0.476,7.153,1.425c2.145,0.953,3.984,2.254,5.517,3.911   c1.536,1.658,2.732,3.618,3.578,5.881c0.852,2.263,1.274,4.729,1.274,7.395C968.683,90.849,968.26,93.314,967.408,95.578"/>
	<path d="M762.91,74.754c1.614-1.637,3.533-2.911,5.76-3.82c2.222-0.909,4.628-1.364,7.213-1.364c2.843,0,5.488,0.456,7.936,1.364   c2.364,0.878,4.412,2.105,6.15,3.665l6.096-10.145c-2.281-1.827-4.862-3.324-7.724-4.491c-3.823-1.555-7.973-2.335-12.458-2.335   c-4.49,0-8.64,0.78-12.462,2.335c-3.818,1.556-7.108,3.697-9.877,6.425c-2.77,2.727-4.941,5.952-6.519,9.669   c-1.578,3.718-2.365,7.761-2.365,12.125c0,4.364,0.787,8.408,2.365,12.125c1.577,3.717,3.749,6.941,6.519,9.667   c2.769,2.73,6.059,4.87,9.877,6.43c3.822,1.553,7.972,2.332,12.462,2.332c4.485,0,8.635-0.779,12.458-2.332   c2.861-1.169,5.442-2.664,7.724-4.495l-6.096-10.144c-1.738,1.558-3.786,2.783-6.15,3.662c-2.447,0.911-5.093,1.366-7.936,1.366   c-2.585,0-4.991-0.455-7.213-1.366c-2.227-0.906-4.146-2.181-5.76-3.818c-1.615-1.636-2.89-3.595-3.823-5.879   c-0.929-2.282-1.394-4.799-1.394-7.547s0.465-5.265,1.394-7.547C760.021,78.351,761.295,76.391,762.91,74.754"/>
	<path fill="#F99F1D" d="M276.973,135.564v-2.99h-1.211v-0.823h3.313v0.823h-1.209v2.99H276.973z M283.375,135.564v-2.646   l-0.858,2.282h-0.947l-0.858-2.277v2.641h-0.895v-3.813h1.281l0.948,2.442l0.942-2.442h1.279v3.813H283.375z"/>
	<path d="M996.4,111.644c0.635,0,1.228,0.118,1.784,0.353s1.045,0.554,1.459,0.957c0.409,0.404,0.735,0.876,0.975,1.412   c0.239,0.54,0.359,1.12,0.359,1.734c0,0.607-0.12,1.187-0.359,1.728c-0.239,0.545-0.565,1.017-0.975,1.424   c-0.414,0.409-0.902,0.727-1.459,0.964c-0.557,0.231-1.149,0.352-1.784,0.352c-0.648,0-1.256-0.12-1.817-0.352   c-0.562-0.237-1.049-0.555-1.463-0.964c-0.414-0.407-0.736-0.879-0.976-1.424c-0.234-0.541-0.35-1.12-0.35-1.728   c0-0.614,0.115-1.194,0.35-1.734c0.239-0.536,0.562-1.008,0.976-1.412c0.414-0.403,0.901-0.723,1.463-0.957   S995.752,111.644,996.4,111.644 M996.4,119.325c0.441,0,0.86-0.083,1.251-0.253c0.391-0.168,0.731-0.396,1.017-0.69   c0.29-0.289,0.516-0.63,0.681-1.021c0.166-0.392,0.249-0.811,0.249-1.261c0-0.441-0.083-0.86-0.249-1.256   c-0.165-0.392-0.391-0.734-0.681-1.021c-0.285-0.29-0.626-0.516-1.017-0.686s-0.81-0.253-1.251-0.253   c-0.456,0-0.884,0.083-1.274,0.253c-0.396,0.17-0.736,0.396-1.03,0.686c-0.29,0.287-0.516,0.63-0.686,1.021   c-0.161,0.396-0.244,0.814-0.244,1.256c0,0.45,0.083,0.869,0.244,1.261c0.17,0.391,0.396,0.731,0.686,1.021   c0.294,0.295,0.635,0.522,1.03,0.69C995.517,119.242,995.944,119.325,996.4,119.325 M996.658,114.125   c0.542,0,0.956,0.121,1.237,0.363c0.28,0.241,0.418,0.563,0.418,0.968c0,0.317-0.101,0.58-0.299,0.787   c-0.202,0.209-0.497,0.348-0.879,0.414l1.229,1.417h-1.329l-1.1-1.376h-0.129v1.376h-1.113v-3.949H996.658z M995.807,115.087v0.728   h0.833c0.17,0,0.304-0.03,0.396-0.083s0.143-0.145,0.143-0.276c0-0.124-0.051-0.221-0.143-0.278c-0.092-0.06-0.226-0.09-0.396-0.09   H995.807z"/>
	<path fill="#F99F1D" d="M196.327,0.001c-20.538,0-39.413,7.084-54.35,18.92c20.259,16.05,33.272,40.85,33.272,68.704   s-13.013,52.655-33.272,68.705c14.937,11.832,33.812,18.917,54.35,18.917c48.393,0,87.625-39.228,87.625-87.622   C283.952,39.232,244.72,0.001,196.327,0.001"/>
</g></g><g transform="matrix(1.9542245864868164, 0, 0, 1.9542245864868164, 951.2066040039062, 20.451446533203125)"><g id="Grid" class="st0" style="display: none;">
</g><g id="Layer_1">
</g><g id="Desktop">
</g><g id="Guides">
</g><g id="Page_1">
	<g id="Layer_1_1_">
		<path d="M 63.900001525878906 54.400001525878906 L 73 0.9000000357627869 L 87.5999984741211 0.9000000357627869 L 78.5 54.400001525878906 L 63.900001525878906 54.400001525878906 Z" class="st1" style="fill-rule: evenodd; clip-rule: evenodd; fill: rgb(0, 80, 152);"/>
		<path class="st1" d="M131.4,2.2c-2.9-1-7.5-2.2-13.1-2.2c-14.5,0-24.6,7.2-24.6,17.6c-0.1,7.7,7.2,12,12.8,14.5    c5.7,2.7,7.6,4.3,7.5,6.6c0,3.6-4.5,5.2-8.7,5.2c-5.8,0-8.9-0.8-13.7-2.8l-1.9-0.9l-2,12c3.4,1.5,9.7,2.8,16.2,2.9    c15.3,0,25.2-7.2,25.4-18.3c0.1-6-3.8-10.7-12.2-14.5c-5.1-2.4-8.2-4.1-8.2-6.6c0-2.3,2.7-4.6,8.3-4.6c4.8-0.1,8.3,1,10.9,2.1    l1.3,0.6L131.4,2.2L131.4,2.2z" style="fill-rule: evenodd; clip-rule: evenodd; fill: rgb(0, 80, 152);"/>
		<path class="st1" d="M168.8,1h-11.3c-3.5,0-6.1,1-7.7,4.4l-21.6,49.1h15.3c0,0,2.5-6.6,3.1-8c1.7,0,16.5,0,18.7,0    c0.4,1.8,1.8,8,1.8,8h13.5L168.8,1L168.8,1z M150.8,35.4c1.2-3,5.8-14.9,5.8-14.9c-0.1,0.1,1.2-3.1,1.9-5.1l1,4.6    c0,0,2.8,12.8,3.4,15.4H150.8L150.8,35.4z" style="fill-rule: evenodd; clip-rule: evenodd; fill: rgb(0, 80, 152);"/>
		<path class="st1" d="M51.7,1L37.4,37.4L35.9,30c-2.7-8.6-11-17.8-20.2-22.4l13.1,46.8h15.4L67.1,1H51.7L51.7,1z" style="fill-rule: evenodd; clip-rule: evenodd; fill: rgb(0, 80, 152);"/>
		<path class="st2" d="M24.2,0.9H0.7L0.5,2.1c18.2,4.4,30.4,15.1,35.4,28L30.8,5.5C29.9,2.1,27.4,1,24.2,0.9L24.2,0.9z" style="fill-rule: evenodd; clip-rule: evenodd; fill: rgb(247, 166, 0);"/>
	</g>
</g></g></svg>