<?xml version="1.0" encoding="utf-8"?>
<!-- Generator: Adobe Illustrator 16.0.0, SVG Export Plug-In . SVG Version: 6.00 Build 0)  -->
<!DOCTYPE svg PUBLIC "-//W3C//DTD SVG 1.1//EN" "http://www.w3.org/Graphics/SVG/1.1/DTD/svg11.dtd">
<svg version="1.1" id="Layer_1" xmlns="http://www.w3.org/2000/svg" xmlns:xlink="http://www.w3.org/1999/xlink" x="0px" y="0px"
	 width="700px" height="600px" viewBox="0 0 700 600" enable-background="new 0 0 700 600" xml:space="preserve">
<path fill="#FFFFFF" enable-background="new    " d="M692.779,305.468c1.51-3.634,1.51-7.748,0-11.38
	c-0.718-1.818-1.815-3.464-3.188-4.833L563.269,162.932c-5.824-5.827-15.151-5.896-20.978-0.068
	c-5.829,5.828-5.759,15.151,0.068,20.98l100.92,100.919l-624.135,0.035c-8.228,0-14.911,6.684-14.911,14.912
	c0,4.114,1.679,7.85,4.353,10.525c2.673,2.673,6.478,4.421,10.592,4.421l621.977,0.137L530.772,425.174
	c-5.827,5.828-5.897,15.151-0.068,20.979c5.828,5.827,15.188,5.791,21.012-0.035l126.94-126.32
	C678.656,319.798,691.373,308.862,692.779,305.468z"/>
</svg>
