<svg id="Outline" xmlns="http://www.w3.org/2000/svg" viewBox="0 0 64 64"><defs><style>.cls-1{fill:#3d9dc3;}</style></defs><title>Icons</title><path class="cls-1" d="M62.8,22.64,48.69,9.15A4.18,4.18,0,0,0,45.84,8H23.21L19.77,1.12a2,2,0,0,0-3.65,0l-4,8a2,2,0,0,1-1.53,1.1L1.69,11.47A2,2,0,0,0,.56,14.9L7,21.1a2,2,0,0,1,.59,1.78L6.07,31.65a2,2,0,0,0,2,2.35A2,2,0,0,0,9,33.76l8-4.14a2.06,2.06,0,0,1,.95-.23H18V60a4,4,0,0,0,4,4H60a4,4,0,0,0,4-4V25.34A3.76,3.76,0,0,0,62.8,22.64ZM16.08,27.85,8.08,32H8l1.52-8.76A4,4,0,0,0,8.4,19.66L2,13.45l8.91-1.28a4,4,0,0,0,3-2.19l4-8H18l4,8a4,4,0,0,0,3,2.19l8.94,1.29-6.45,6.21a4,4,0,0,0-1.17,3.56L27.85,32a.06.06,0,0,1,0,0h0l-8-4.14a4.06,4.06,0,0,0-3.74,0ZM36,36H27V33.82a2,2,0,0,0,.81.18,2,2,0,0,0,2-2.35L29.18,28H45V56H37V37.06A1.08,1.08,0,0,0,36,36ZM27,48h8v8H27Zm0-2V38h8v8ZM62,60a2,2,0,0,1-2,2H22a2,2,0,0,1-2-2V30.2l5,2.6V57a1,1,0,0,0,1,1H56a1,1,0,0,0,1-1V27a1,1,0,0,0-1-1H28.84l-.54-3.12a2,2,0,0,1,.59-1.78l6.45-6.21a2,2,0,0,0-1.13-3.43l-8.91-1.28A2,2,0,0,1,24.7,10H45.84a2.16,2.16,0,0,1,1.46.6L61.42,24.07A1.79,1.79,0,0,1,62,25.34ZM55,38v8H47V38Zm-8-2V28h8v8Zm8,12v8H47V48Z"/></svg>