<svg id="Outline" xmlns="http://www.w3.org/2000/svg" viewBox="0 0 64 64"><defs><style>.cls-1{fill:#3d9dc3;}</style></defs><title>Icons</title><path class="cls-1" d="M58,32.08V7.86a4,4,0,1,0-2,0V32.08a7,7,0,0,0-1.64.44.94.94,0,0,0-.05-.13l-6-8.88s-.05,0-.08-.08a4,4,0,1,0-6.2-5,.93.93,0,0,0-.11-.07L20,10.31c0-.11,0-.22,0-.33a4,4,0,1,0-4,4h0L18,22.54A11,11,0,0,0,14.07,42.6L5.33,56.25A4,4,0,1,0,8,60a4,4,0,0,0-1-2.63l8.86-13.84a10.95,10.95,0,0,0,10-.91l5.7,7.32a4,4,0,1,0,7.18.8l.08,0,12.87-6.84a1,1,0,0,0,.15-.12A7,7,0,1,0,58,32.08ZM4,62a2,2,0,1,1,2-2A2,2,0,0,1,4,62ZM55,4a2,2,0,1,1,2,2A2,2,0,0,1,55,4ZM52.65,33.51h0a7,7,0,0,0-2.38,3.57L31,34c0-.23,0-.46,0-.69a11,11,0,0,0-.59-3.52l0,0,11.8-6.68a3.88,3.88,0,0,0,4.37,1.29,1,1,0,0,0,.06.15Zm-7.31-14.8a2,2,0,1,1-2,2A2,2,0,0,1,45.33,18.71ZM14,10a2,2,0,1,1,2,2A2,2,0,0,1,14,10Zm4,3.56-.32.07a4,4,0,0,0,1.67-1.41l21.93,8.05.14,0a3.92,3.92,0,0,0,0,.43,4,4,0,0,0,.07.65L29.62,28A11,11,0,0,0,20,22.34h0ZM11,33.34a9,9,0,1,1,9,9A9,9,0,0,1,11,33.34ZM35,54a2,2,0,1,1,2-2A2,2,0,0,1,35,54Zm2.92-5.07a1,1,0,0,0-.19.16A3.92,3.92,0,0,0,33,48.54L27.47,41.4A11,11,0,0,0,30.65,36L50,39.08a7,7,0,0,0,.74,3ZM57,44a5,5,0,1,1,5-5A5,5,0,0,1,57,44Z"/></svg>