<svg id="Outline" xmlns="http://www.w3.org/2000/svg" viewBox="0 0 64 64"><defs><style>.cls-1{fill:#3d9dc3;}</style></defs><title>Icons</title><path class="cls-1" d="M60.88,24H40V3.24A3.24,3.24,0,0,0,36.88,0H3.13A3.24,3.24,0,0,0,0,3.24V25.87A3.14,3.14,0,0,0,3.13,29H7v9.9a1.23,1.23,0,0,0,1.24,1.24A1.19,1.19,0,0,0,9,39.85L19.82,29H24V49.88A3.12,3.12,0,0,0,27.13,53h17L54.95,63.7a1.2,1.2,0,0,0,.81.31A1.24,1.24,0,0,0,57,62.76V53h3.88A3.12,3.12,0,0,0,64,49.88V27.14A3.14,3.14,0,0,0,60.88,24ZM19,27l-.57.58L9,37.07V27H3.13A1.14,1.14,0,0,1,2,25.87V3.24A1.24,1.24,0,0,1,3.13,2H36.88A1.24,1.24,0,0,1,38,3.24V24H27.13A3.13,3.13,0,0,0,24,27H19ZM62,49.88A1.12,1.12,0,0,1,60.88,51H55V61l-9.44-9.38L45,51H27.13A1.12,1.12,0,0,1,26,49.88V27.14A1.14,1.14,0,0,1,27.13,26H60.88A1.14,1.14,0,0,1,62,27.14Z"/></svg>