<svg xmlns="http://www.w3.org/2000/svg" width="537" height="123" viewBox="33.5 326.5 537 123"><path fill="none" d="M0 308.686h612v174.627H0z"/><g fill="#1F9EC4"><path d="M521.356 371.827c-7.222 0-15.497 1.003-20.513 4.062-6.22 3.86-9.78 10.63-9.98 18.956 0 0-.15 3.46 0 4.614 3.16 21.516 29.79 23.02 43.532 18.958 3.86-1.154 3.962-1.354 7.02-2.658l-5.616-9.73c-10.133 3.41-19.66 2.258-23.773-.4-2.86-1.855-4.062-5.166-4.062-5.166h38.115c.05-.05 7.273-28.637-24.724-28.637zm10.03 19.56l-23.47-.102v-.853c0-2.608.852-7.824 11.585-7.824 11.486 0 11.888 3.862 11.888 7.974v.804zm-467.212-19.56H82.43v14.594H64.173zm391.684 0h-5.467c-16.65 0-24.772 7.874-24.772 24.123v24.273h14.944V395.95c0-9.48 5.418-9.48 9.83-9.48h5.618c4.112 0 9.228 0 9.63 8.376v25.376h14.994v-25.376c-.4-15.496-8.525-23.02-24.774-23.02zm-196.795 0h-5.467c-16.65 0-24.775 7.874-24.775 24.123v39.068h14.947V419.02c2.86.752 6.12 1.153 9.78 1.153h5.466c16.65 0 24.775-7.874 24.775-24.123v-1.254c-.35-15.446-8.424-22.97-24.724-22.97zm9.83 24.273c0 9.48-5.417 9.48-9.83 9.48h-5.617c-4.112 0-9.228 0-9.63-8.377v-2.106c.302-8.626 5.567-8.626 9.78-8.626h5.617c4.112 0 9.228 0 9.63 8.377v1.253h.05zm121.817-24.273h-5.465c-16.65 0-24.775 7.874-24.775 24.123v1.253c.3 11.937 5.216 19.158 14.945 21.816h.05c2.86.75 6.12 1.15 9.78 1.15h5.466c16.65 0 24.777-7.873 24.777-24.122v-1.255c-.35-15.445-8.475-22.968-24.775-22.968zm9.83 24.273c0 9.48-5.415 9.48-9.83 9.48h-5.615c-4.113 0-9.23 0-9.63-8.377v-2.156c.352-8.626 5.567-8.626 9.78-8.626h5.616c4.115 0 9.23 0 9.63 8.377v1.304h.05zm-75.628-24.273h-5.466c-3.712 0-6.972.4-9.83 1.153v-15.948H294.67v63.19h14.946V395.95c0-9.48 5.416-9.48 9.83-9.48h5.616c4.112 0 9.23 0 9.63 8.376v25.376h14.944v-25.376c-.35-15.496-8.424-23.02-24.724-23.02z"/><path d="M59.86 395.95v-38.917H44.917v39.018c0 16.25 8.074 24.125 24.725 24.125h17.354V405.53H69.64c-4.312.05-9.78.05-9.78-9.58zm68.207-24.123H122.6c-16.65 0-24.725 7.874-24.725 24.123v24.273h14.945V395.95c0-9.48 5.417-9.48 9.78-9.48h5.616c4.112 0 9.228 0 9.63 8.376h14.944c-.35-15.496-8.474-23.02-24.723-23.02zm75.63 24.273c0 9.48-5.417 9.48-9.78 9.48H188.3c-4.112 0-9.228 0-9.63-8.377v-25.376h-14.944v25.376c.35 15.447 8.476 22.97 24.725 22.97h5.47c16.65 0 24.724-7.874 24.724-24.123v-24.273H203.7V396.1h-.003z"/></g></svg>