<?xml version="1.0" encoding="utf-8"?>
<!-- Generator: Adobe Illustrator 16.0.0, SVG Export Plug-In . SVG Version: 6.00 Build 0)  -->
<!DOCTYPE svg PUBLIC "-//W3C//DTD SVG 1.0//EN" "http://www.w3.org/TR/2001/REC-SVG-20010904/DTD/svg10.dtd">
<svg version="1.0" id="Layer_1" xmlns="http://www.w3.org/2000/svg" xmlns:xlink="http://www.w3.org/1999/xlink" x="0px" y="0px"
	 width="537px" height="123px" viewBox="0 0 537 123" enable-background="new 0 0 537 123" xml:space="preserve">
<path fill="none" d="M0,308.686h612v174.627H0V308.686z"/>
<g>
	<path fill="#FFFFFF" d="M497.665,45.827c-7.223,0-15.497,1.003-20.514,4.062c-6.22,3.86-9.779,10.63-9.979,18.956
		c0,0-0.15,3.46,0,4.614c3.16,21.516,29.79,23.02,43.531,18.958c3.86-1.154,3.963-1.354,7.021-2.658l-5.616-9.729
		c-10.133,3.41-19.66,2.258-23.772-0.4c-2.86-1.854-4.062-5.166-4.062-5.166h38.115C522.438,74.413,529.66,45.826,497.665,45.827
		L497.665,45.827z M507.694,65.387l-23.47-0.102v-0.854c0-2.607,0.852-7.823,11.585-7.823c11.486,0,11.888,3.861,11.888,7.974v0.804
		L507.694,65.387z M40.482,45.827h18.256v14.594H40.481L40.482,45.827z M432.167,45.827h-5.468
		c-16.649,0-24.771,7.874-24.771,24.123v24.272h14.944V69.95c0-9.48,5.418-9.48,9.829-9.48h5.618c4.112,0,9.229,0,9.63,8.376v25.376
		h14.994V68.846c-0.399-15.496-8.524-23.02-24.773-23.02L432.167,45.827z M235.372,45.827h-5.467
		c-16.65,0-24.775,7.874-24.775,24.123v39.067h14.947V93.02c2.86,0.753,6.12,1.153,9.78,1.153h5.466
		c16.65,0,24.775-7.874,24.775-24.123v-1.254c-0.35-15.446-8.424-22.97-24.724-22.97L235.372,45.827z M245.202,70.1
		c0,9.48-5.417,9.48-9.83,9.48h-5.617c-4.112,0-9.228,0-9.63-8.377v-2.106c0.302-8.626,5.567-8.626,9.78-8.626h5.617
		c4.112,0,9.228,0,9.63,8.377v1.253L245.202,70.1L245.202,70.1z M367.019,45.827h-5.465c-16.649,0-24.774,7.874-24.774,24.123v1.253
		c0.299,11.937,5.215,19.158,14.944,21.815h0.05c2.86,0.75,6.12,1.15,9.78,1.15h5.466c16.65,0,24.777-7.873,24.777-24.122v-1.255
		c-0.35-15.445-8.475-22.968-24.775-22.968L367.019,45.827z M376.849,70.1c0,9.48-5.415,9.48-9.83,9.48h-5.614
		c-4.113,0-9.23,0-9.631-8.377v-2.156c0.352-8.626,5.567-8.626,9.78-8.626h5.616c4.115,0,9.229,0,9.63,8.377v1.304h0.05
		L376.849,70.1z M301.221,45.827h-5.467c-3.711,0-6.971,0.399-9.829,1.153V31.032h-14.946v63.189h14.946V69.95
		c0-9.48,5.416-9.48,9.829-9.48h5.617c4.111,0,9.229,0,9.629,8.376v25.376h14.945V68.846
		C325.595,53.35,317.521,45.826,301.221,45.827L301.221,45.827z"/>
	<path fill="#FFFFFF" d="M36.168,69.95V31.033H21.226v39.018c0,16.25,8.074,24.125,24.725,24.125h17.354V79.53H45.949
		C41.637,79.58,36.168,79.58,36.168,69.95z M104.375,45.827h-5.467c-16.65,0-24.725,7.874-24.725,24.123v24.272h14.945V69.95
		c0-9.48,5.417-9.48,9.78-9.48h5.616c4.112,0,9.228,0,9.63,8.376h14.944C128.749,53.35,120.625,45.826,104.375,45.827
		L104.375,45.827z M180.005,70.1c0,9.48-5.417,9.48-9.78,9.48h-5.617c-4.112,0-9.228,0-9.63-8.377V45.827h-14.944v25.376
		c0.35,15.447,8.476,22.97,24.725,22.97h5.47c16.65,0,24.724-7.874,24.724-24.123V45.777h-14.945V70.1H180.005L180.005,70.1z"/>
</g>
</svg>
