<svg xmlns="http://www.w3.org/2000/svg" viewBox="0 0 25 25"><defs><style>.cls-1{fill:#fff;}</style></defs><title>Asset 3</title><g id="Layer_2" data-name="Layer 2"><g id="Lager_1" data-name="Lager 1"><path class="cls-1" d="M23.15,0H1.84A1.82,1.82,0,0,0,0,1.8V23.2A1.82,1.82,0,0,0,1.84,25H23.15A1.83,1.83,0,0,0,25,23.2V1.8A1.83,1.83,0,0,0,23.15,0ZM7.42,21.3H3.7V9.37H7.42ZM7.12,7.19A2.23,2.23,0,0,1,4,4,2.23,2.23,0,0,1,7.12,7.19ZM21.3,21.3H17.6V15.5c0-1.38,0-3.16-1.93-3.16s-2.22,1.51-2.22,3.06v5.9H9.74V9.37h3.55V11h.05a3.89,3.89,0,0,1,3.51-1.93c3.76,0,4.45,2.47,4.45,5.68Z"/></g></g></svg>