<svg xmlns="http://www.w3.org/2000/svg" viewBox="0 0 30.75 25"><defs><style>.cls-1{fill:#fff;}</style></defs><title>Asset 2</title><g id="Layer_2" data-name="Layer 2"><g id="Lager_1" data-name="Lager 1"><path class="cls-1" d="M9.66,25c11.6,0,18-9.62,18-18,0-.27,0-.54,0-.81A12.85,12.85,0,0,0,30.75,3a12.79,12.79,0,0,1-3.63,1A6.35,6.35,0,0,0,29.9.47a12.55,12.55,0,0,1-4,1.53A6.31,6.31,0,0,0,15,6.31a7,7,0,0,0,.16,1.44,17.91,17.91,0,0,1-13-6.59,6.33,6.33,0,0,0,2,8.43A6.38,6.38,0,0,1,1.23,8.8v.09a6.32,6.32,0,0,0,5.06,6.19,6.35,6.35,0,0,1-2.84.11,6.31,6.31,0,0,0,5.89,4.38A12.65,12.65,0,0,1,1.5,22.27,12.14,12.14,0,0,1,0,22.18,18,18,0,0,0,9.66,25"/></g></g></svg>