<svg xmlns="http://www.w3.org/2000/svg" viewBox="0 0 35.54 25"><defs><style>.cls-1{fill-rule:evenodd;opacity:0.12;}.cls-2{fill:#fff;}</style></defs><title>Asset 4</title><g id="Layer_2" data-name="Layer 2"><g id="Lager_1" data-name="Lager 1"><path id="The_Sharpness" data-name="The Sharpness" class="cls-1" d="M14.1,7.12l8.42,5.62,1.18-.61Z"/><g id="Lozenge"><path class="cls-2" d="M35.19,5.39a7.69,7.69,0,0,0-1.41-3.53A5.08,5.08,0,0,0,30.22.36C25.24,0,17.78,0,17.78,0h0S10.3,0,5.33.36A5.08,5.08,0,0,0,1.77,1.87,7.69,7.69,0,0,0,.36,5.39,53.74,53.74,0,0,0,0,11.15v2.7A53.74,53.74,0,0,0,.36,19.6a7.69,7.69,0,0,0,1.41,3.53,6,6,0,0,0,3.92,1.52c2.84.27,12.09.36,12.09.36s7.47,0,12.44-.37a5.08,5.08,0,0,0,3.56-1.51,7.69,7.69,0,0,0,1.41-3.53,53.83,53.83,0,0,0,.35-5.75v-2.7A53.83,53.83,0,0,0,35.19,5.39ZM14.1,17.11v-10l9.6,5Z"/></g></g></g></svg>