<?xml version="1.0" encoding="UTF-8" standalone="no"?>
<svg width="177px" height="17px" viewBox="0 0 177 17" version="1.1" xmlns="http://www.w3.org/2000/svg" xmlns:xlink="http://www.w3.org/1999/xlink" xmlns:sketch="http://www.bohemiancoding.com/sketch/ns">
    <!-- Generator: Sketch 3.4.3 (16618) - http://www.bohemiancoding.com/sketch -->
    <title>Untitled</title>
    <desc>Created with Sketch.</desc>
    <defs></defs>
    <g id="Page-1" stroke="none" stroke-width="1" fill="none" fill-rule="evenodd" sketch:type="MSPage">
        <g id="A_Star_Alliance_Member" sketch:type="MSLayerGroup" transform="translate(-8.000000, -89.000000)">
            <path d="M98.639,95.615 L103.095,95.615 L103.095,94.912 L98.053,94.912 L98.053,101.36 L103.212,101.36 L103.212,100.774 L98.639,100.774 L98.639,98.311 L102.977,98.311 L102.977,97.726 L98.639,97.726 L98.639,95.615" id="Fill-2" fill="#6F6660" sketch:type="MSShapeGroup"></path>
            <path d="M115.991,94.912 L114.935,94.912 L112.121,100.539 L109.309,94.912 L108.253,94.912 L108.253,101.36 L108.957,101.36 L108.957,95.85 L111.771,101.36 L112.474,101.36 L115.288,95.85 L115.288,101.36 L115.991,101.36 L115.991,94.912" id="Fill-3" fill="#6F6660" sketch:type="MSShapeGroup"></path>
            <path d="M123.143,95.615 L123.143,94.912 L118.102,94.912 L118.102,101.36 L123.26,101.36 L123.26,100.774 L118.806,100.774 L118.806,98.311 L123.025,98.311 L123.025,97.726 L118.806,97.726 L118.806,95.615 L123.143,95.615" id="Fill-4" fill="#6F6660" sketch:type="MSShapeGroup"></path>
            <path d="M132.639,94.912 L131.702,94.912 L128.888,100.539 L125.957,94.912 L125.019,94.912 L125.019,101.36 L125.723,101.36 L125.723,95.85 L128.535,101.36 L129.122,101.36 L131.935,95.85 L131.935,101.36 L132.639,101.36 L132.639,94.912" id="Fill-5" fill="#6F6660" sketch:type="MSShapeGroup"></path>
            <path d="M138.385,94.912 L134.75,94.912 L134.75,101.36 L138.268,101.36 C139.674,101.36 140.378,100.774 140.378,99.602 C140.378,98.664 139.909,98.078 139.087,97.96 C139.791,97.726 140.143,97.256 140.143,96.553 C140.143,95.498 139.557,94.912 138.385,94.912 L138.385,94.912 Z M138.268,95.615 C139.087,95.498 139.44,95.85 139.557,96.553 C139.44,97.374 138.971,97.726 138.033,97.726 L135.337,97.726 L135.337,95.615 L138.268,95.615 L138.268,95.615 Z M138.385,98.311 C139.205,98.311 139.674,98.78 139.674,99.602 C139.674,100.422 139.205,100.774 138.15,100.774 L135.337,100.774 L135.337,98.311 L138.385,98.311 L138.385,98.311 Z" id="Fill-6" fill="#6F6660" sketch:type="MSShapeGroup"></path>
            <path d="M154.915,96.67 C154.915,95.498 154.212,94.912 152.923,94.912 L149.405,94.912 L149.405,101.36 L149.992,101.36 L149.992,98.546 L152.689,98.546 C153.626,98.546 154.212,99.015 154.212,100.07 C154.212,100.539 154.212,101.009 154.329,101.36 L155.033,101.36 L154.799,100.07 C154.799,98.898 154.447,98.311 153.743,98.311 C154.565,98.078 154.915,97.491 154.915,96.67 L154.915,96.67 Z M152.923,95.615 C153.86,95.498 154.212,95.85 154.212,96.67 C154.212,97.491 153.743,97.96 152.923,97.96 L149.992,97.96 L149.992,95.615 L152.923,95.615 L152.923,95.615 Z" id="Fill-7" fill="#6F6660" sketch:type="MSShapeGroup"></path>
            <path d="M147.412,95.615 L147.412,94.912 L142.371,94.912 L142.371,101.36 L147.53,101.36 L147.53,100.774 L142.957,100.774 L142.957,98.311 L147.294,98.311 L147.294,97.726 L142.957,97.726 L142.957,95.615 L147.412,95.615" id="Fill-8" fill="#6F6660" sketch:type="MSShapeGroup"></path>
            <path d="M164.999,95.263 L161.716,95.38 L164.881,97.256 L168.165,95.615 L164.999,95.263" id="Fill-9" fill="#E1E1E1" sketch:type="MSShapeGroup"></path>
            <path d="M164.881,97.256 L164.764,101.009 L166.64,98.429 L168.165,95.615 L164.881,97.256" id="Fill-10" fill="#323232" sketch:type="MSShapeGroup"></path>
            <path d="M164.764,101.009 L164.881,97.256 L161.716,95.38 L163.122,98.311 L164.764,101.009" id="Fill-11" fill="#AEAEAE" sketch:type="MSShapeGroup"></path>
            <path d="M173.44,92.567 L173.44,95.732 L173.91,98.898 L175.551,95.615 L173.44,92.567" id="Fill-12" fill="#E1E1E1" sketch:type="MSShapeGroup"></path>
            <path d="M179.185,95.38 L175.551,95.615 L173.91,98.898 L176.605,97.256 L179.185,95.38" id="Fill-13" fill="#323232" sketch:type="MSShapeGroup"></path>
            <path d="M175.551,95.615 L179.185,95.38 L176.372,93.739 L173.44,92.567 L175.551,95.615" id="Fill-14" fill="#AEAEAE" sketch:type="MSShapeGroup"></path>
            <path d="M172.269,95.147 L171.565,91.98 L170.51,89.049 L169.57,92.567 L172.269,95.147" id="Fill-15" fill="#AEAEAE" sketch:type="MSShapeGroup"></path>
            <path d="M169.103,94.56 L172.269,95.147 L169.57,92.567 L166.054,93.622 L169.103,94.56" id="Fill-16" fill="#323232" sketch:type="MSShapeGroup"></path>
            <path d="M170.51,89.049 L168.048,91.16 L166.054,93.622 L169.57,92.567 L170.51,89.049" id="Fill-17" fill="#E1E1E1" sketch:type="MSShapeGroup"></path>
            <path d="M176.605,102.415 L176.724,99.25 L174.496,102.181 L175.785,105.581 L176.605,102.415" id="Fill-18" fill="#AEAEAE" sketch:type="MSShapeGroup"></path>
            <path d="M174.496,102.181 L176.724,99.25 L173.674,100.188 L170.861,101.595 L174.496,102.181" id="Fill-19" fill="#E1E1E1" sketch:type="MSShapeGroup"></path>
            <path d="M170.861,101.595 L173.206,103.822 L175.785,105.581 L174.496,102.181 L170.861,101.595" id="Fill-20" fill="#323232" sketch:type="MSShapeGroup"></path>
            <path d="M171.447,104.409 L171.329,104.409 L167.93,103.236 L165.117,105.581 L168.281,105.229 L171.329,104.526 L171.447,104.409" id="Fill-21" fill="#323232" sketch:type="MSShapeGroup"></path>
            <path d="M171.329,104.409 L169.57,101.829 L167.226,99.602 L167.93,103.236 L171.329,104.409" id="Fill-22" fill="#AEAEAE" sketch:type="MSShapeGroup"></path>
            <path d="M171.329,104.526 L171.447,104.526 L171.447,104.409 L171.329,104.526" id="Fill-23" fill="#AEAEAE" sketch:type="MSShapeGroup"></path>
            <path d="M165.117,105.581 L167.93,103.236 L167.226,99.602 L165.117,105.581" id="Fill-24" fill="#E1E1E1" sketch:type="MSShapeGroup"></path>
            <path d="M12.7,94.912 L11.878,94.912 L8.948,101.36 L9.651,101.36 L10.589,99.484 L13.989,99.484 L14.81,101.36 L15.513,101.36 L12.7,94.912 L12.7,94.912 Z M13.637,98.898 L10.824,98.898 L12.231,95.615 L13.637,98.898 L13.637,98.898 Z" id="Fill-25" fill="#6F6660" sketch:type="MSShapeGroup"></path>
            <path d="M24.775,96.788 L25.362,96.788 C25.245,95.498 24.424,94.794 22.665,94.794 C20.907,94.794 20.085,95.38 20.085,96.67 C20.085,97.491 20.907,98.078 22.431,98.429 C24.072,98.546 24.775,99.015 24.893,99.602 C24.775,100.539 24.189,100.891 22.9,100.891 C21.493,100.891 20.672,100.422 20.672,99.25 L19.969,99.25 C20.085,100.774 21.024,101.595 22.9,101.595 C24.659,101.595 25.596,100.891 25.596,99.602 C25.596,98.664 24.775,98.078 23.251,97.843 C21.61,97.608 20.907,97.139 20.907,96.553 C20.907,95.732 21.493,95.38 22.665,95.38 C23.955,95.38 24.659,95.85 24.775,96.788" id="Fill-26" fill="#6F6660" sketch:type="MSShapeGroup"></path>
            <path d="M29.817,95.615 L32.279,95.615 L32.279,94.912 L26.651,94.912 L26.651,95.615 L29.114,95.615 L29.114,101.36 L29.817,101.36 L29.817,95.615" id="Fill-27" fill="#6F6660" sketch:type="MSShapeGroup"></path>
            <path d="M36.5,94.912 L35.679,94.912 L32.749,101.36 L33.452,101.36 L34.39,99.484 L37.79,99.484 L38.61,101.36 L39.314,101.36 L36.5,94.912 L36.5,94.912 Z M37.438,98.898 L34.625,98.898 L36.031,95.615 L37.438,98.898 L37.438,98.898 Z" id="Fill-28" fill="#6F6660" sketch:type="MSShapeGroup"></path>
            <path d="M44.355,94.912 L40.956,94.912 L40.956,101.36 L41.542,101.36 L41.542,98.546 L44.121,98.546 C45.176,98.546 45.645,99.015 45.645,100.07 L45.879,101.36 L46.583,101.36 C46.465,101.243 46.349,100.774 46.349,100.07 C46.349,98.898 45.879,98.311 45.293,98.311 C46.114,98.078 46.465,97.491 46.465,96.67 C46.465,95.498 45.763,94.912 44.355,94.912 L44.355,94.912 Z M44.473,95.615 C45.293,95.498 45.763,95.85 45.763,96.67 C45.763,97.491 45.293,97.96 44.355,97.96 L41.542,97.96 L41.542,95.615 L44.473,95.615 L44.473,95.615 Z" id="Fill-29" fill="#6F6660" sketch:type="MSShapeGroup"></path>
            <path d="M54.79,94.912 L53.97,94.912 L51.039,101.36 L51.741,101.36 L52.563,99.484 L55.962,99.484 L56.9,101.36 L57.603,101.36 L54.79,94.912 L54.79,94.912 Z M55.728,98.898 L52.914,98.898 L54.321,95.615 L55.728,98.898 L55.728,98.898 Z" id="Fill-30" fill="#6F6660" sketch:type="MSShapeGroup"></path>
            <path d="M59.714,94.912 L59.011,94.912 L59.011,101.36 L63.818,101.36 L63.818,100.774 L59.714,100.774 L59.714,94.912" id="Fill-31" fill="#6F6660" sketch:type="MSShapeGroup"></path>
            <path d="M65.928,94.912 L65.225,94.912 L65.225,101.36 L70.032,101.36 L70.032,100.774 L65.928,100.774 L65.928,94.912" id="Fill-32" fill="#6F6660" sketch:type="MSShapeGroup"></path>
            <path d="M71.556,94.912 L72.142,94.912 L72.142,101.36 L71.556,101.36 L71.556,94.912 Z" id="Fill-33" fill="#6F6660" sketch:type="MSShapeGroup"></path>
            <path d="M95.942,97.139 C95.825,95.615 94.77,94.794 92.894,94.794 C91.722,94.794 90.901,95.263 90.198,95.967 C89.729,96.553 89.377,97.256 89.377,98.194 C89.377,100.422 90.549,101.478 92.894,101.595 C94.77,101.595 95.825,100.656 96.06,99.015 L95.356,99.015 C95.122,100.305 94.301,100.891 92.894,100.891 C91.018,100.891 90.198,99.953 90.198,98.194 C90.198,96.319 91.018,95.38 92.894,95.38 C94.301,95.38 95.122,95.967 95.356,97.139 L95.942,97.139" id="Fill-34" fill="#6F6660" sketch:type="MSShapeGroup"></path>
            <path d="M82.46,94.912 L81.639,94.912 L81.639,101.36 L82.342,101.36 L82.342,95.967 L86.798,101.36 L87.618,101.36 L87.618,94.912 L86.915,94.912 L86.915,100.422 L82.46,94.912" id="Fill-35" fill="#6F6660" sketch:type="MSShapeGroup"></path>
            <path d="M77.301,94.912 L76.597,94.912 L73.666,101.36 L74.37,101.36 L75.19,99.484 L78.591,99.484 L79.411,101.36 L80.232,101.36 L77.301,94.912 L77.301,94.912 Z M78.356,98.898 L75.542,98.898 L76.949,95.615 L78.356,98.898 L78.356,98.898 Z" id="Fill-36" fill="#6F6660" sketch:type="MSShapeGroup"></path>
            <path d="M181.647,93.388 L181.647,94.912 L181.765,94.912 L181.765,93.388 L182.468,93.388 L182.468,93.271 L180.944,93.271 L180.944,93.388 L181.647,93.388" id="Fill-37" fill="#FFFFFF" sketch:type="MSShapeGroup"></path>
            <path d="M184.462,93.271 L183.758,94.677 L183.054,93.271 L182.82,93.271 L182.82,94.912 L183.054,94.912 L183.054,93.504 L183.64,94.912 L183.876,94.912 L184.579,93.504 L184.579,94.912 L184.695,94.912 L184.695,93.271 L184.462,93.271" id="Fill-38" fill="#FFFFFF" sketch:type="MSShapeGroup"></path>
            <path d="M36.5,94.912 L39.314,101.36 L38.61,101.36 L37.79,99.484 L34.39,99.484 L33.452,101.36 L32.749,101.36 L35.679,94.912 L36.5,94.912 M114.935,94.912 L112.121,100.539 L109.309,94.912 L108.253,94.912 L108.253,101.36 L108.957,101.36 L108.957,95.85 L111.771,101.36 L112.474,101.36 L115.288,95.85 L115.288,101.36 L115.991,101.36 L115.991,94.912 L114.935,94.912 M138.385,94.912 C139.557,94.912 140.143,95.498 140.143,96.553 C140.143,97.256 139.791,97.726 139.087,97.96 C139.909,98.078 140.378,98.664 140.378,99.602 C140.378,100.774 139.674,101.36 138.268,101.36 L134.75,101.36 L134.75,94.912 L138.385,94.912 M135.337,95.615 L135.337,97.726 L138.033,97.726 C138.971,97.726 139.44,97.374 139.557,96.553 C139.44,95.85 139.087,95.498 138.268,95.615 L135.337,95.615 M125.019,94.912 L125.019,101.36 L125.723,101.36 L125.723,95.85 L128.535,101.36 L129.122,101.36 L131.935,95.85 L131.935,101.36 L132.639,101.36 L132.639,94.912 L131.702,94.912 L128.888,100.539 L125.957,94.912 L125.019,94.912 M123.143,94.912 L118.102,94.912 L118.102,101.36 L123.26,101.36 L123.26,100.774 L118.806,100.774 L118.806,98.311 L123.025,98.311 L123.025,97.726 L118.806,97.726 L118.806,95.615 L123.143,95.615 L123.143,94.912 M147.412,94.912 L142.371,94.912 L142.371,101.36 L147.53,101.36 L147.53,100.774 L142.957,100.774 L142.957,98.311 L147.294,98.311 L147.294,97.726 L142.957,97.726 L142.957,95.615 L147.412,95.615 L147.412,94.912 M149.992,95.615 L149.992,97.96 L152.923,97.96 C153.743,97.96 154.212,97.491 154.212,96.67 C154.212,95.85 153.86,95.498 152.923,95.615 L149.992,95.615 M152.923,94.912 C154.212,94.912 154.915,95.498 154.915,96.67 C154.915,97.491 154.565,98.078 153.743,98.311 C154.447,98.311 154.799,98.898 154.799,100.07 L155.033,101.36 L154.329,101.36 C154.212,101.009 154.212,100.539 154.212,100.07 C154.212,99.015 153.626,98.546 152.689,98.546 L149.992,98.546 L149.992,101.36 L149.405,101.36 L149.405,94.912 L152.923,94.912 M138.385,98.311 L135.337,98.311 L135.337,100.774 L138.15,100.774 C139.205,100.774 139.674,100.422 139.674,99.602 C139.674,98.78 139.205,98.311 138.385,98.311 M12.7,94.912 L15.513,101.36 L14.81,101.36 L13.989,99.484 L10.589,99.484 L9.651,101.36 L8.948,101.36 L11.878,94.912 L12.7,94.912 M25.362,96.788 C25.245,95.498 24.424,94.794 22.665,94.794 C20.907,94.794 20.085,95.38 20.085,96.67 C20.085,97.491 20.907,98.078 22.431,98.429 C24.072,98.546 24.775,99.015 24.893,99.602 C24.775,100.539 24.189,100.891 22.9,100.891 C21.493,100.891 20.672,100.422 20.672,99.25 L19.969,99.25 C20.085,100.774 21.024,101.595 22.9,101.595 C24.659,101.595 25.596,100.891 25.596,99.602 C25.596,98.664 24.775,98.078 23.251,97.843 C21.61,97.608 20.907,97.139 20.907,96.553 C20.907,95.732 21.493,95.38 22.665,95.38 C23.955,95.38 24.659,95.85 24.775,96.788 L25.362,96.788 M26.651,95.615 L29.114,95.615 L29.114,101.36 L29.817,101.36 L29.817,95.615 L32.279,95.615 L32.279,94.912 L26.651,94.912 L26.651,95.615" id="Stroke-39" stroke="#6F6660" stroke-width="0.117" stroke-linecap="round" stroke-linejoin="round" sketch:type="MSShapeGroup"></path>
            <path d="M103.095,95.615 L103.095,94.912 L98.053,94.912 L98.053,101.36 L103.212,101.36 L103.212,100.774 L98.639,100.774 L98.639,98.311 L102.977,98.311 L102.977,97.726 L98.639,97.726 L98.639,95.615 L103.095,95.615 L103.095,95.615 Z M44.473,95.615 L41.542,95.615 L41.542,97.96 L44.355,97.96 C45.293,97.96 45.763,97.491 45.763,96.67 C45.763,95.85 45.293,95.498 44.473,95.615 L44.473,95.615 Z M46.465,96.67 C46.465,97.491 46.114,98.078 45.293,98.311 C45.879,98.311 46.349,98.898 46.349,100.07 C46.349,100.774 46.465,101.243 46.583,101.36 L45.879,101.36 L45.645,100.07 C45.645,99.015 45.176,98.546 44.121,98.546 L41.542,98.546 L41.542,101.36 L40.956,101.36 L40.956,94.912 L44.355,94.912 C45.763,94.912 46.465,95.498 46.465,96.67 L46.465,96.67 Z M54.79,94.912 L57.603,101.36 L56.9,101.36 L55.962,99.484 L52.563,99.484 L51.741,101.36 L51.039,101.36 L53.97,94.912 L54.79,94.912 L54.79,94.912 Z M59.011,94.912 L59.011,101.36 L63.818,101.36 L63.818,100.774 L59.714,100.774 L59.714,94.912 L59.011,94.912 L59.011,94.912 Z M65.225,94.912 L65.225,101.36 L70.032,101.36 L70.032,100.774 L65.928,100.774 L65.928,94.912 L65.225,94.912 L65.225,94.912 Z M71.556,94.912 L72.142,94.912 L72.142,101.36 L71.556,101.36 L71.556,94.912 Z M77.301,94.912 L80.232,101.36 L79.411,101.36 L78.591,99.484 L75.19,99.484 L74.37,101.36 L73.666,101.36 L76.597,94.912 L77.301,94.912 L77.301,94.912 Z M95.942,97.139 C95.825,95.615 94.77,94.794 92.894,94.794 C91.722,94.794 90.901,95.263 90.198,95.967 C89.729,96.553 89.377,97.256 89.377,98.194 C89.377,100.422 90.549,101.478 92.894,101.595 C94.77,101.595 95.825,100.656 96.06,99.015 L95.356,99.015 C95.122,100.305 94.301,100.891 92.894,100.891 C91.018,100.891 90.198,99.953 90.198,98.194 C90.198,96.319 91.018,95.38 92.894,95.38 C94.301,95.38 95.122,95.967 95.356,97.139 L95.942,97.139 L95.942,97.139 Z M86.915,94.912 L86.915,100.422 L82.46,94.912 L81.639,94.912 L81.639,101.36 L82.342,101.36 L82.342,95.967 L86.798,101.36 L87.618,101.36 L87.618,94.912 L86.915,94.912 L86.915,94.912 Z M78.356,98.898 L76.949,95.615 L75.542,98.898 L78.356,98.898 L78.356,98.898 Z M55.728,98.898 L54.321,95.615 L52.914,98.898 L55.728,98.898 L55.728,98.898 Z M37.438,98.898 L36.031,95.615 L34.625,98.898 L37.438,98.898 L37.438,98.898 Z M13.637,98.898 L12.231,95.615 L10.824,98.898 L13.637,98.898 L13.637,98.898 Z" id="Stroke-40" stroke="#6F6660" stroke-width="0.117" stroke-linecap="round" stroke-linejoin="round" sketch:type="MSShapeGroup"></path>
        </g>
    </g>
</svg>