<svg xmlns="http://www.w3.org/2000/svg"><defs><symbol id="icon-card--red" viewBox="0 0 18 24"><title>Rode kaart</title><path d="M2.182 3.274v17.452c0 .602.49 1.092 1.1 1.092h10.89c.615 0 1.1-.485 1.1-1.092V3.274c0-.602-.49-1.092-1.1-1.092H3.28c-.615 0-1.1.485-1.1 1.092zM0 3.274A3.271 3.271 0 0 1 3.283 0H14.17a3.279 3.279 0 0 1 3.285 3.274v17.452A3.273 3.273 0 0 1 14.171 24H3.284A3.278 3.278 0 0 1 0 20.726V3.274z" fill="#1F1F1F"/><path fill="#E30613" d="M3.273 3.273h10.91v17.455H3.272z"/></symbol><symbol id="icon-card--yellow" viewBox="0 0 18 24"><title>Gele kaart</title><path d="M2.182 3.274v17.452c0 .602.49 1.092 1.1 1.092h10.89c.615 0 1.1-.485 1.1-1.092V3.274c0-.602-.49-1.092-1.1-1.092H3.28c-.615 0-1.1.485-1.1 1.092zM0 3.274A3.271 3.271 0 0 1 3.283 0H14.17a3.279 3.279 0 0 1 3.285 3.274v17.452A3.273 3.273 0 0 1 14.171 24H3.284A3.278 3.278 0 0 1 0 20.726V3.274z" fill="#1F1F1F"/><path fill="#FFE900" d="M3.273 3.273h10.91v17.455H3.272z"/></symbol><symbol id="icon-card--yellow-red" viewBox="0 0 18 24"><title>Tweede gele kaart</title><path d="M2.182 3.274v17.452c0 .602.49 1.092 1.1 1.092h10.89c.615 0 1.1-.485 1.1-1.092V3.274c0-.602-.49-1.092-1.1-1.092H3.28c-.615 0-1.1.485-1.1 1.092zM0 3.274A3.271 3.271 0 0 1 3.283 0H14.17a3.279 3.279 0 0 1 3.285 3.274v17.452A3.273 3.273 0 0 1 14.171 24H3.284A3.278 3.278 0 0 1 0 20.726V3.274z" fill="#1F1F1F"/><path fill="#FFE900" d="M3.273 3.273h10.91L3.272 20.727"/><path fill="#E30613" d="M14.182 20.727H3.272l10.91-17.454"/></symbol><symbol id="icon-goal" viewBox="0 0 24 24"><title>Doelpunt</title><path d="M12 21.818c5.422 0 9.818-4.396 9.818-9.818S17.422 2.182 12 2.182 2.182 6.578 2.182 12 6.578 21.818 12 21.818zM12 24C5.373 24 0 18.627 0 12S5.373 0 12 0s12 5.373 12 12-5.373 12-12 12zm3.835-13.01l-3.818-2.92L8.2 10.99l1.458 4.72h4.72l1.457-4.72zm-.545-6.11l-.54-1.17s-1.165-.437-2.733-.437c-1.567 0-2.73.44-2.73.44l-.543 1.166 3.273 1.665L15.29 4.88zm4.207 2.625l-1.507-.262-.762 3.593 2.457 2.73 1.03-.86c.26-3.045-1.218-5.2-1.218-5.2m-3.71 9.098l-1.723 3.243.734.426c3.278-1.107 4.698-3.782 4.698-3.782l-.07-.397-3.638.51zm-10.95-.51l-.122.685s1.512 2.555 4.67 3.54l.814-.473-1.726-3.242-3.637-.512zm1.116-8.85l-1.404.243s-1.546 2.332-1.236 5.29l.945.79 2.455-2.732-.762-3.592z" fill="#1F1F1F"/></symbol><symbol id="icon-goal--own" viewBox="0 0 24 24"><title>Eigen doelpunt</title><path d="M12 21.818c5.422 0 9.818-4.396 9.818-9.818S17.422 2.182 12 2.182 2.182 6.578 2.182 12 6.578 21.818 12 21.818zM12 24C5.373 24 0 18.627 0 12S5.373 0 12 0s12 5.373 12 12-5.373 12-12 12zm3.835-13.01l-3.818-2.92L8.2 10.99l1.458 4.72h4.72l1.457-4.72zm-.545-6.11l-.54-1.17s-1.165-.437-2.733-.437c-1.567 0-2.73.44-2.73.44l-.543 1.166 3.273 1.665L15.29 4.88zm4.207 2.625l-1.507-.262-.762 3.593 2.457 2.73 1.03-.86c.26-3.045-1.218-5.2-1.218-5.2m-3.71 9.098l-1.723 3.243.734.426c3.278-1.107 4.698-3.782 4.698-3.782l-.07-.397-3.638.51zm-10.95-.51l-.122.685s1.512 2.555 4.67 3.54l.814-.473-1.726-3.242-3.637-.512zm1.116-8.85l-1.404.243s-1.546 2.332-1.236 5.29l.945.79 2.455-2.732-.762-3.592z" fill="#979797"/></symbol><symbol id="icon-goal--denied" viewBox="0 0 25 25.2"><title>Afgekeurd doelpunt</title><path d="M15.6 23.7c-.5 0-1-.2-1.4-.6l-.9-.9c-.4-.4-.6-.8-.6-1.4 0-.5.2-1 .6-1.4l1.8-1.8-1.7-1.6c-.4-.4-.6-.8-.6-1.4 0-.5.2-1 .6-1.4l.9-.9c.7-.7 2-.7 2.7 0l1.2 1.2c.2.2.2.5 0 .7-.2.2-.5.2-.7 0L16.3 13c-.3-.3-1-.3-1.3 0l-.9 1c-.2.2-.3.4-.3.7 0 .2.1.5.3.6l2.1 2.1c.2.2.2.5 0 .7l-2.1 2.1c-.2.2-.3.4-.3.6 0 .2.1.5.3.7l.9.9c.4.4.9.4 1.3 0l2.1-2.1c.1-.1.2-.1.4-.1.1 0 .3.1.4.1l2.1 2.1c.4.4.9.4 1.3 0l.9-.9c.4-.4.4-.9 0-1.3l-2.1-2.1c-.1-.1-.1-.2-.1-.4 0-.1.1-.3.1-.4l2.1-2.1c.4-.4.4-.9 0-1.3l-.9-.9c-.3-.3-1-.3-1.3 0l-2.1 2.1c-.2.2-.5.2-.7 0-.2-.2-.2-.5 0-.7l2.1-2.1c.7-.7 2-.7 2.7 0l.9.9c.7.7.7 2 0 2.7l-1.8 1.8 1.8 1.8c.7.7.7 2 0 2.7l-.9.9c-.7.7-2 .7-2.7 0l-1.8-1.8-1.8 1.9c-.4.3-.9.5-1.4.5" fill="#e2001a"/><path d="M6 10l.2.2c.1.1.2.2.4.3l.2.2.5.5.2.2.6.6.1.1c.2.2.5.5.7.8 0 0 .1 0 .1.1.2.2.3.4.5.5l-.4 4.1s-.1 0-.1.1c-.4.2-.7.4-1.1.6h-.1c-.4.2-.7.3-1 .4h-.1l-.9.3h-.1c-.3.1-.5.1-.8.2-.1-.1-.3-.2-.4-.3-.1-.1-.2-.1-.2-.2-.2-.2-.3-.3-.4-.5l-.1-.1c-.2-.2-.3-.4-.4-.5l-.1-.1c-.1-.1-.1-.2-.2-.3 0-.1 0-.2-.1-.3 0-.1 0-.2-.1-.3 0-.2-.1-.3-.1-.5v-.3c0-.2 0-.4-.1-.6v-2.3c0-.2 0-.4.1-.6 0-.1 0-.3.1-.4 0-.2.1-.4.1-.6 0-.1.1-.3.1-.4 0-.2.1-.3.1-.5.1-.1.2-.1.3-.2h.1c.1-.1.2-.2.4-.3h.1c.1-.1.2-.2.4-.2 0 0 .1 0 .1-.1.1-.1.3-.2.4-.2 0 0 .1 0 .1.1.1 0 .1.1.2.1.1.1.2.1.3.2l.2.2c0-.1.1-.1.2 0m19 .3c0-.2 0-.3-.1-.5-.1-.3-.1-.6-.2-.9v-.1c-.9-2.9-2.8-5.4-5.4-7h-.1c-2-1.2-4.3-1.9-6.6-1.9C6.2 0 .9 4.8.1 11c.1.1.3.2.4.2.3 0 .6-.2.6-.5.2-1 .5-1.9.8-2.7v.1c.1.3.1.6.1.9v.1c0 .3.1.6.2.9v.1c-.1.2-.1.4-.2.6v.1c-.1.3-.1.6-.2.9v.3c0 .2-.1.5-.1.7V15c0 .2 0 .4.1.7v.3h-.4c-.3-1-.5-1.9-.5-2.9-.1-.1-.3-.2-.5-.2s-.4.1-.5.3c.1 1.2.3 2.4.7 3.5v.1c0 .1 0 .1.1.2v.1l.3.6c.1.1.1.3.2.5l.3.6c.1.1.1.2.2.3l.1.1c.1.2.2.4.3.5.1.1.1.2.2.3l.1.2c.1.2.3.3.4.5l.1.1c1.7 2 4 3.3 6.5 4h.2c.3.1.6.1.9.2h.4c.3 0 .7.1 1 .1h-.1.1c.5 0 .9-.4.9-.9s-.4-.9-.9-.9c-.2 0-.5.1-.6.3H11c-.2 0-.4 0-.5.1h-.8c-1.4-.4-2.8-1-4-1.8 0-.2 0-.4-.1-.8l-.3-1.2h.1c.4.1.6.1.9 0h.1c.3-.1.5-.2.8-.3.1 0 .1-.1.2-.1.3-.1.6-.2.9-.4h.1c.3-.1.6-.3.9-.5.1 0 .1-.1.2-.1.1.1.2.1.3.2h.1c.2.1.5.3.8.5h.1c.2.1.3.2.5.3.2.1.3.2.5.3 0 0 .1 0 .1.1h.1c.1-.4.4-.8.7-1.1l1.1-1.1-1.1-1.1c-.6-.5-.9-1.3-.9-2.1s.3-1.5.9-2.1l.7-.7h-.1l-1.5.3h-.2c-.2 0-.3.1-.5.1-.1 0-.2 0-.3.1-.1 0-.2.1-.4.1-.1 0-.1 0-.2.1h-.1c-.1-.1-.1-.1-.1-.2-.7-.8-1.4-1.6-2.1-2.2l-.2-.2c-.4 0-.7-.2-1-.5 0 0-.1 0-.1-.1-.2-.2-.5-.4-.7-.5 0 0-.1 0-.1-.1v-.1c0-.1 0-.2.1-.3V8C6 8 6 8 6 7.9v-.2c0-.1 0-.2.1-.3 0-.1 0-.1.1-.2 0-.1.1-.2.1-.3 0-.1 0-.1.1-.2 0-.1.1-.2.1-.3 0-.1.1-.1.1-.2s.1-.2.1-.2c0-.1.1-.1.1-.2s.1-.1.1-.2.1-.1.1-.2c0 .1 0 .1.1 0 .2-.1.3-.2.5-.3.1 0 .2-.1.3-.2l.6-.3c.1 0 .2-.1.3-.2.1 0 .2-.1.2-.1.2-.1.2-.4.2-.6 0-.1-.2-.2-.4-.3 0 0-.1 0-.1.1-.5.2-1 .4-1.4.7h-.1l-1.5-.9C7.6 1.8 10 1 12.6 1c1 0 1.9.1 2.8.4-.2.1-.4.3-.7.4 0 0-.1 0-.1.1-.2.1-.4.3-.6.4h-.1c-.5 0-.9.1-1.4.1h-.2l-1 .2c-.3.1-.5.4-.4.7 0 .1.1.2.2.3.5-.1 1-.2 1.6-.3h.5c.3 0 .6-.1 1-.1.5.4.9.9 1.4 1.3l.1.1.4.4.1.1c.1.1.2.2.4.3 0 0 .1 0 .1.1.3.2.5.4.7.6-.1.3-.2.6-.3.8-.1.2-.1.4-.2.6-.1.4-.3.8-.5 1.2 0 .1-.1.2-.1.3-.2.5-.4.9-.6 1.4-.1.1-.1.3-.2.4h.4c.2 0 .5 0 .7.1.2-.4.4-.8.5-1.1 0-.1.1-.2.1-.3.2-.5.4-1 .6-1.6.1-.2.1-.3.2-.5.1-.3.2-.7.3-1 .4-.1 1.5-.4 2.9-.4l.1.1c.3.3.6.6.8.9v.1c.3.3.5.6.7.9.2.3.4.5.5.8 0 0 0 .1.1.1l.3.6v.9c0 .1 0 .2-.1.4v.3c.1.3.4.6.8.6s.8-.3.8-.8c-.2-.2-.2-.4-.2-.6" fill="#1a171b"/></symbol><symbol id="icon-penalty--scored" viewBox="0 0 25.3 27.4"><title>Penalty gescoord</title><path d="M0 3c0-1.657 1.342-3 2.99-3h18.02C22.66 0 24 1.342 24 3v12.273H0V3zm2.182.187v12.086h19.636V3.187c0-.555-.448-1.005-1-1.005H3.182c-.554 0-1 .45-1 1.005z" fill="#1F1F1F"/><path d="M18.173 15.273h2.554v-12H3.273v12h2.554a6.548 6.548 0 0 1 12.346 0z" fill="#59BA3A"/><path d="M15.51 20.047c.455-.614.75-1.35.832-2.152l-1.003-1.158.03-2.054a4.364 4.364 0 0 0-1.55-1.196l-1.82.695-1.82-.695a4.387 4.387 0 0 0-1.55 1.196l.03 2.054-1.002 1.158c.082.812.386 1.558.85 2.177l1.076.27.786 1.162a4.382 4.382 0 0 0 3.147.044l.816-1.206 1.178-.295zM12 24a6.545 6.545 0 1 1 0-13.091A6.545 6.545 0 0 1 12 24zm0-8.727l2.182 1.666-.834 2.696h-2.696l-.834-2.697L12 15.272z" fill="#1F1F1F"/></symbol><symbol id="icon-penalty--missed" viewBox="0 0 24 24"><title>Penalty gemist</title><path d="M0 3c0-1.657 1.342-3 2.99-3h18.02C22.66 0 24 1.342 24 3v12.273H0V3zm2.182.187v12.086h19.636V3.187c0-.555-.448-1.005-1-1.005H3.182c-.554 0-1 .45-1 1.005z" fill="#1F1F1F"/><path d="M18.173 15.273h2.554v-12H3.273v12h2.554a6.548 6.548 0 0 1 12.346 0z" fill="#E30613"/><path d="M15.51 20.047c.455-.614.75-1.35.832-2.152l-1.003-1.158.03-2.054a4.364 4.364 0 0 0-1.55-1.196l-1.82.695-1.82-.695a4.387 4.387 0 0 0-1.55 1.196l.03 2.054-1.002 1.158c.082.812.386 1.558.85 2.177l1.076.27.786 1.162a4.382 4.382 0 0 0 3.147.044l.816-1.206 1.178-.295zM12 24a6.545 6.545 0 1 1 0-13.091A6.545 6.545 0 0 1 12 24zm0-8.727l2.182 1.666-.834 2.696h-2.696l-.834-2.697L12 15.272z" fill="#1F1F1F"/></symbol><symbol id="icon-substitution" viewBox="0 0 23 15"><title>Wissel</title><path d="M7.16-.04l7.2 6.3H-.04l7.2-6.3zm2.58 6.3c0 1.72-.394 7.93 3.347 7.93 2.53 0-8.627 2.024-8.627-7.93h5.28z" fill="#59BA3A"/><path d="M18.2 12.44l-4.8-4.2H23l-4.8 4.2zm-1.72-4.2c0-1.148.263-5.287-2.23-5.287-1.688 0 5.75-1.35 5.75 5.287h-3.52z" fill="#979797"/></symbol><symbol id="icon-injury" viewBox="0 0 25.1 25.1"><title>Blessure</title><path d="M16.3 6.4V3.1c0-1.5-1.2-2.6-2.6-2.6h-2.3C9.9.5 8.8 1.7 8.8 3.1v5.6H3.1C1.6 8.7.5 9.9.5 11.3v2.3c0 1.5 1.2 2.6 2.6 2.6h5.6v5.6c0 1.5 1.2 2.6 2.6 2.6h2.3c1.5 0 2.6-1.2 2.6-2.6v-5.6h5.6c1.5 0 2.6-1.2 2.6-2.6v-2.3c0-1.5-1.2-2.6-2.6-2.6h-5.6" fill="none" stroke="#e2001a" stroke-linecap="round" stroke-linejoin="round"/></symbol><symbol id="icon-referee" viewBox="0 0 28.7 14.7"><title>Scheidsrechter</title><path d="M24.4 2L14 .9l-.1 1-3-.3.1-1h-.1c-3.8-.5-7.1 2.3-7.5 6-.4 3.8 2.3 7.2 6.1 7.6 3.8.4 7.1-2.3 7.5-6.1.1-.9 0-1.8-.2-2.6l11.1.3.4-3.4" fill="none" stroke="#1a171b" stroke-linecap="round" stroke-linejoin="round"/><path d="M3.4 6.6c.1-.8-.5-1.5-1.3-1.6-.8 0-1.5.5-1.6 1.3-.1.8.5 1.5 1.3 1.6" fill="none" stroke="#1a171b" stroke-linecap="round" stroke-linejoin="round"/></symbol><symbol id="icon-pitch" viewBox="0 0 18 24"><title>Veld</title><path d="M15.273 20.735c0 .6-.498 1.083-1.093 1.083H3.275a1.089 1.089 0 0 1-1.093-1.083V3.265c0-.598.497-1.083 1.093-1.083H14.18c.603 0 1.093.485 1.093 1.083v17.47zM14.173 0H3.282A3.27 3.27 0 0 0 0 3.275v17.45A3.278 3.278 0 0 0 3.283 24h10.89a3.27 3.27 0 0 0 3.282-3.274V3.276A3.28 3.28 0 0 0 14.172 0z" fill="#1F1F1F"/><path d="M6.543 20.747v-1.1h4.355v1.1H6.543zm2.184-6.563c1.02 0 1.867-.7 2.108-1.645h3.33v8.208H12v-1.66c0-.305-.24-.54-.536-.54H5.99a.543.543 0 0 0-.535.54v1.66H3.273v-8.21H6.62a2.176 2.176 0 0 0 2.107 1.646zM6.54 4.374v-1.1h4.354v1.1H6.54zm5.443-1.1h2.182v8.207h-3.347A2.177 2.177 0 0 0 8.71 9.838c-1.02 0-1.866.7-2.107 1.644h-3.33V3.274h2.165v1.66c0 .304.24.54.535.54h5.474a.544.544 0 0 0 .536-.54v-1.66zM9.737 12.01a1.014 1.014 0 0 1-2.026.001 1.014 1.014 0 0 1 2.027.001z" fill="#59BA3A"/></symbol><symbol id="icon-team" viewBox="0 0 18 24"><title>Team</title><path d="M9 0s1.188 2.996 9 2.996v12.292C18 20.145 9 24 9 24s-9-3.855-9-8.712V2.996C7.782 2.996 9 0 9 0zm0 3.273S8.087 5.52 2.25 5.52v9.22c0 3.64 6.75 6.532 6.75 6.532s6.75-2.89 6.75-6.534V5.52C9.89 5.52 9 3.273 9 3.273z" fill="#1F1F1F" fill-rule="evenodd"/></symbol><symbol id="icon-time" viewBox="0 0 24 24"><title>Tijd</title><path d="M12 21.333c5.155 0 9.333-4.178 9.333-9.333S17.155 2.667 12 2.667 2.667 6.845 2.667 12 6.845 21.333 12 21.333M12 24C5.372 24 0 18.628 0 12S5.372 0 12 0s12 5.372 12 12-5.372 12-12 12m3.77-10.115l-2.437-2.437V6.655c0-.72-.596-1.322-1.333-1.322-.74 0-1.333.59-1.333 1.322v5.357c0 .03.016.057.018.087.01.14.03.28.084.41.065.16.162.303.282.425 0 .002.003.005.005.008l2.828 2.828a1.328 1.328 0 0 0 1.886 0 1.327 1.327 0 0 0 0-1.885" fill="#1F1F1F" fill-rule="evenodd"/></symbol><symbol id="icon-trophy" viewBox="0 0 24 24"><title>Beker</title><path d="M21.6 10.646l-1.185.725L20.4 4.79h1.2v5.858zm-3.623 1.36a4.796 4.796 0 0 1-4.81 4.794h-2.375a4.801 4.801 0 0 1-4.796-4.684v-8.52c0-.02-.01-.037-.01-.056V2.4h11.99v9.605zM3.587 10.86c0 .312-.002.51-.002.51l-1.187-.724V4.788h1.19v6.072zM22.8 2.4h-2.425V1.2c0-.666-.54-1.2-1.208-1.2H4.793c-.667 0-1.206.54-1.206 1.2v1.2H1.2C.53 2.4 0 2.936 0 3.596v7.208c0 .652.462 1.473 1.03 1.815l2.975 1.785a7.186 7.186 0 0 0 5.588 4.694v2.5H7.19c-.647 0-1.194.538-1.194 1.2V24h11.99v-1.2c0-.667-.532-1.2-1.192-1.2H14.39v-2.506a7.196 7.196 0 0 0 5.553-4.658l3.027-1.817c.568-.343 1.03-1.164 1.03-1.816V3.596c0-.66-.532-1.196-1.2-1.196z" fill="#1F1F1F" fill-rule="evenodd"/></symbol><symbol id="icon-ht" viewBox="0 0 19 11"><title>Rust</title><path d="M7.533 7.923H6.33v2.07H4.266v-2.07H0v-1.47L4.382 0H6.33v6.282h1.203v1.64zm-3.267-1.64V4.586c0-.283.01-.693.034-1.23.023-.538.04-.85.054-.937H4.3c-.17.374-.372.738-.61 1.094L1.86 6.282h2.406zm7.683-2.674c.965 0 1.734.27 2.306.813.572.542.858 1.285.858 2.228 0 1.118-.344 1.977-1.032 2.58-.688.6-1.672.9-2.953.9-1.113 0-2.01-.18-2.694-.54V7.767c.36.19.78.347 1.257.468.48.12.932.18 1.36.18 1.29 0 1.935-.528 1.935-1.585 0-1.008-.667-1.512-2.003-1.512-.24 0-.508.024-.8.072-.29.048-.528.1-.71.154l-.84-.45L9.01 0h5.42v1.79h-3.568l-.184 1.963.24-.048c.277-.064.62-.096 1.03-.096zM18.52 0l.094.15c-.228.898-.63 1.99-1.203 3.275h-1.496c.315-1.35.542-2.49.684-3.425h1.92z" fill="#1F1F1F" fill-rule="evenodd"/></symbol><symbol id="icon-ft" viewBox="0 0 19 11"><title>Einde wedstrijd</title><path d="M7.055 4.423c0 1.97-.415 3.438-1.244 4.41-.83.97-2.084 1.455-3.766 1.455-.593 0-1.04-.032-1.347-.096V8.497a4.93 4.93 0 0 0 1.203.144c.707 0 1.288-.103 1.744-.31a2.203 2.203 0 0 0 1.045-.978c.24-.444.38-1.056.416-1.835h-.082c-.264.428-.57.73-.916.902-.346.172-.78.26-1.298.26-.87 0-1.557-.28-2.058-.84C.252 5.284 0 4.508 0 3.515c0-1.07.304-1.918.913-2.54C1.52.352 2.35.04 3.397.04c.74 0 1.385.174 1.938.52.554.347.98.85 1.275 1.508.297.658.445 1.443.445 2.355zM3.438 1.736c-.437 0-.78.15-1.025.452-.246.3-.37.733-.37 1.298 0 .483.113.866.336 1.15.222.28.562.423 1.017.423.43 0 .796-.142 1.1-.422.306-.28.46-.603.46-.967 0-.54-.143-1-.428-1.373-.286-.374-.65-.56-1.092-.56zm11.594 3.418c0 1.746-.286 3.038-.858 3.876-.572.84-1.452 1.258-2.642 1.258-1.153 0-2.022-.433-2.608-1.3-.585-.865-.878-2.143-.878-3.834 0-1.763.285-3.063.854-3.9C9.47.418 10.347 0 11.532 0c1.153 0 2.025.437 2.615 1.313.59.875.885 2.155.885 3.84zm-4.887 0c0 1.226.105 2.105.317 2.636.212.53.57.796 1.07.796.492 0 .848-.27 1.067-.807.217-.538.327-1.413.327-2.626 0-1.226-.11-2.106-.332-2.642-.22-.535-.575-.803-1.063-.803-.497 0-.852.267-1.066.802-.214.536-.32 1.416-.32 2.642zM18.307.157l.095.15c-.228.898-.63 1.99-1.203 3.275H15.7c.315-1.35.542-2.49.684-3.425h1.92z" fill-rule="evenodd"/></symbol><symbol id="icon-et" viewBox="0 0 26 11"><title>Extra tijd</title><path d="M4.956 10.15H2.844V4.37l.02-.95.034-1.04c-.35.352-.594.582-.73.69l-1.15.924L0 2.722 3.22.156h1.736v9.994zm9.755 0H7.726V8.683l2.508-2.536c.743-.762 1.23-1.29 1.456-1.583.227-.294.39-.566.492-.817.1-.25.15-.51.15-.78 0-.4-.11-.7-.332-.895-.22-.195-.516-.293-.885-.293-.387 0-.763.09-1.128.267-.364.178-.745.43-1.14.76L7.696 1.44c.492-.42.9-.715 1.224-.888a4.505 4.505 0 0 1 1.06-.4c.383-.094.812-.14 1.286-.14.624 0 1.175.114 1.654.34.478.23.85.548 1.114.96.265.41.397.878.397 1.407 0 .46-.08.893-.242 1.296a4.954 4.954 0 0 1-.752 1.24c-.34.425-.938 1.03-1.794 1.812l-1.286 1.21v.096h4.355v1.777zm7.937-4.996c0 1.746-.286 3.038-.857 3.876-.572.84-1.453 1.258-2.643 1.258-1.153 0-2.022-.433-2.607-1.3-.586-.865-.88-2.143-.88-3.834 0-1.763.286-3.063.856-3.9C17.086.418 17.963 0 19.146 0c1.154 0 2.026.437 2.616 1.313.59.875.885 2.155.885 3.84zm-4.887 0c0 1.226.106 2.105.318 2.636.212.53.568.796 1.07.796.492 0 .847-.27 1.066-.807.22-.538.328-1.413.328-2.626 0-1.226-.11-2.106-.332-2.642-.22-.535-.575-.803-1.063-.803-.496 0-.852.267-1.066.802-.213.536-.32 1.416-.32 2.642zM25.922.157l.096.15c-.228.898-.63 1.99-1.204 3.275h-1.497c.315-1.35.543-2.49.684-3.425h1.922z" fill="#1F1F1F" fill-rule="evenodd"/></symbol><symbol id="icon-pen"><title>Penalties</title><path d="M2.12 4.703h.696c.652 0 1.14-.13 1.463-.386.323-.258.485-.632.485-1.125 0-.496-.136-.863-.407-1.1-.27-.237-.696-.356-1.275-.356H2.12v2.967zm4.784-1.586c0 1.076-.336 1.898-1.008 2.468-.672.57-1.628.854-2.868.854h-.91v3.554H0V0h3.192c1.213 0 2.134.26 2.766.783.63.522.946 1.3.946 2.334zm7.643 6.877H8.79V0h5.757v1.736H10.91V3.93h3.384v1.737H10.91v2.577h3.637v1.75zm10.95 0h-2.692l-4.348-7.56h-.06c.085 1.335.128 2.287.128 2.857v4.704h-1.893V0h2.673l4.34 7.485h.048c-.068-1.298-.102-2.217-.102-2.755V0H25.5v9.994z" fill="#1F1F1F" fill-rule="evenodd"/></symbol><symbol id="icon-fav--active" viewBox="0 0 27.5 26.2"><title>Favoriet (actief)</title><path d="M17.2 9.7l9.8.4-7.7 6.1 2.6 9.5-8.1-5.5-8.2 5.5 2.6-9.5-7.7-6.1 9.8-.4L13.8.5l2.2 6" fill="none" stroke="#239bd3" stroke-linecap="round" stroke-linejoin="round"/><path d="M4.6 11.5l5.8-.2c.6 0 1.1-.4 1.3-1l2-5.4 2 5.4c.2.6.7 1 1.3 1l5.8.2-4.5 3.6c-.5.4-.7 1-.5 1.6l1.6 5.6-4.8-3.3c-.3-.2-.5-.3-.8-.3-.3 0-.6.1-.8.3l-4.8 3.2 1.6-5.6c.2-.6 0-1.2-.5-1.6l-4.7-3.5z" fill="#239bd3"/></symbol><symbol id="icon-fav" viewBox="0 0 27.5 26.2"><title>Favoriet</title><path d="M.5 10.1l9.8-.4L13.8.5l1.9 5.2m1.5 4l9.8.4-7.7 6.1 2.6 9.5-8.1-5.5-8.2 5.5 2.6-9.5-7.7-6.1" fill="none" stroke="#1a171b" stroke-linecap="round" stroke-linejoin="round"/></symbol><symbol id="icon-twitter" viewBox="0 0 39 32"><title>Twitter</title><path d="M39 3.8a15.9 15.9 0 0 1-4.6 1.3A8.1 8.1 0 0 0 37.9.6a15.9 15.9 0 0 1-5.1 2A8 8 0 0 0 27 0a8 8 0 0 0-8 8.1 8.2 8.2 0 0 0 .2 1.8A22.6 22.6 0 0 1 2.7 1.5a8.1 8.1 0 0 0 2.5 10.8 7.9 7.9 0 0 1-3.6-1 8.1 8.1 0 0 0 6.4 8l-2.1.3H4.4a8 8 0 0 0 7.4 5.4 16 16 0 0 1-9.9 3.5H0A22.5 22.5 0 0 0 12.3 32C27 32 35 19.7 35 9V8a16.3 16.3 0 0 0 4-4.2z"/></symbol><symbol id="icon-facebook" viewBox="0 0 16 32"><title>Facebook</title><path d="M10.6 10.5V7.7a5.7 5.7 0 0 1 .1-1A1.8 1.8 0 0 1 11 6a1.2 1.2 0 0 1 .7-.5H16V0h-4.8Q7.1 0 5.3 1.8a7.3 7.3 0 0 0-1.8 5.4v3.3H0V16h3.5v16h7.1V16h4.7l.6-5.5z"/></symbol><symbol id="icon-instagram" viewBox="0 0 300 300"><title>Instagram</title><path d="M38.52.012h222.978C282.682.012 300 17.336 300 38.52v222.978c0 21.178-17.318 38.49-38.502 38.49H38.52c-21.184 0-38.52-17.313-38.52-38.49V38.52C0 17.336 17.336.012 38.52.012zm180.026 33.317c-7.438 0-13.505 6.091-13.505 13.525v32.314c0 7.437 6.067 13.514 13.505 13.514h33.903c7.426 0 13.506-6.077 13.506-13.514V46.854c0-7.434-6.08-13.525-13.506-13.525h-33.903zm47.538 93.539h-26.396a87.715 87.715 0 0 1 3.86 25.759c0 49.882-41.766 90.34-93.266 90.34-51.487 0-93.254-40.458-93.254-90.34 0-8.963 1.37-17.584 3.861-25.759H33.35V253.6c0 6.563 5.359 11.902 11.916 11.902h208.907c6.563 0 11.911-5.339 11.911-11.902V126.868zm-115.801-35.89c-33.26 0-60.24 26.128-60.24 58.388 0 32.227 26.98 58.375 60.24 58.375 33.278 0 60.259-26.148 60.259-58.375 0-32.261-26.981-58.388-60.259-58.388z"/></symbol><symbol id="icon-mail" viewBox="0 0 49 32"><title>E-mail</title><path d="M24.5 22.4l-6.1-4.9L1.1 31.1a3.7 3.7 0 0 0 2.4.9h42a3.7 3.7 0 0 0 2.4-.9L30.6 17.5z"/><path d="M47.9.9a3.7 3.7 0 0 0-2.4-.9h-42a3.7 3.7 0 0 0-2.4.9l23.4 18.3zM0 2.8v26.6l16.9-13.1L0 2.8m32.1 13.5L49 29.4V2.8L32.1 16.3"/></symbol><symbol id="icon-comment" viewBox="0 0 41 32"><title>Commentaar</title><path d="M20.5 0C9.2 0 0 6.5 0 14.5c0 3.8 2.1 7.3 5.4 9.8-.1 2.5-.7 5.9-2.8 7.7 3.9 0 7.9-2.3 10.3-4a27.9 27.9 0 0 0 7.5 1C31.8 29 41 22.5 41 14.5S31.8 0 20.5 0z"/></symbol><symbol id="icon-whatsapp" viewBox="0 0 20 20"><title>WhatsApp</title><path d="M10.167 0C4.744 0 .333 4.41.333 9.833c0 1.716.45 3.4 1.3 4.884L.016 19.56a.334.334 0 0 0 .401.43l5.29-1.393a9.854 9.854 0 0 0 4.46 1.07c5.42 0 9.832-4.41 9.832-9.834C20 4.41 15.59 0 10.167 0zm6.136 14.298l-.586.587c-.74.74-1.566 1.115-2.454 1.115-1.196 0-2.487-.683-3.834-2.03l-3.4-3.4C4.97 9.51 4.316 8.477 4.09 7.504c-.273-1.183.072-2.266 1.026-3.22l.586-.586c.377-.377.987-.47 1.46-.22.886.47 1.806 2.01 1.908 2.183.184.322.24.656.16.94a.872.872 0 0 1-.395.52c-.27.224-.585.505-.64.576-.34.5-.3.883.135 1.32l2.654 2.654c.44.44.817.477 1.325.133.066-.053.346-.368.572-.638a.876.876 0 0 1 .78-.43c.22 0 .452.066.675.193.177.104 1.716 1.024 2.185 1.91.257.486.17 1.072-.22 1.46z" fill-rule="evenodd"/></symbol><symbol id="icon-facebook-logo-button" viewBox="0 0 18 18"><title>Facebook Button</title><path d="M8.937 0C4.01 0 0 4.01 0 8.937c0 4.928 4.01 8.938 8.937 8.938 4.928 0 8.938-4.01 8.938-8.938C17.875 4.01 13.865 0 8.937 0zm2.223 9.252H9.706v5.183H7.551V9.252H6.527V7.42h1.024V6.236c0-.849.404-2.175 2.175-2.175l1.596.006v1.778h-1.158c-.19 0-.457.095-.457.5V7.42h1.641l-.188 1.831z"/></symbol><symbol id="icon-twitter-logo-button" viewBox="0 0 18 18"><title>Twitter Button</title><path d="M8.937 0C4.01 0 0 4.01 0 8.937c0 4.928 4.01 8.938 8.937 8.938 4.928 0 8.938-4.01 8.938-8.938C17.875 4.01 13.865 0 8.937 0zm3.987 6.892c.004.088.006.178.006.267 0 2.718-2.068 5.852-5.853 5.852a5.819 5.819 0 0 1-3.153-.924 4.129 4.129 0 0 0 3.046-.852 2.06 2.06 0 0 1-1.922-1.428 2.074 2.074 0 0 0 .929-.035 2.057 2.057 0 0 1-1.65-2.017V7.73c.277.154.595.247.932.257a2.056 2.056 0 0 1-.637-2.746 5.84 5.84 0 0 0 4.24 2.15 2.057 2.057 0 0 1 3.505-1.877 4.09 4.09 0 0 0 1.307-.5c-.155.481-.48.884-.906 1.139a4.09 4.09 0 0 0 1.182-.324 4.138 4.138 0 0 1-1.026 1.064z"/></symbol><symbol id="icon-instagram-logo-button" viewBox="0 0 18 18"><title>Instagram Button</title><path d="M8.937 10.727c.986 0 1.79-.803 1.79-1.79 0-.39-.128-.749-.338-1.043a1.787 1.787 0 0 0-1.45-.746c-.598 0-1.126.295-1.452.746a1.78 1.78 0 0 0-.338 1.043 1.79 1.79 0 0 0 1.788 1.79zm3.907-3.978V5.026h-.224l-1.5.005.007 1.723z"/><path d="M8.937 0C4.01 0 0 4.01 0 8.937c0 4.928 4.01 8.938 8.937 8.938 4.928 0 8.938-4.01 8.938-8.938C17.875 4.01 13.865 0 8.937 0zm5.083 7.894v4.162a1.967 1.967 0 0 1-1.964 1.965H5.819a1.966 1.966 0 0 1-1.964-1.965V5.819c0-1.083.88-1.964 1.964-1.964h6.236c1.084 0 1.965.88 1.965 1.964v2.075z"/><path d="M11.718 8.937a2.784 2.784 0 0 1-2.78 2.78 2.783 2.783 0 0 1-2.78-2.78c0-.368.073-.72.204-1.043H4.845v4.162c0 .538.436.973.974.973h6.236a.974.974 0 0 0 .974-.973V7.894h-1.518c.132.322.207.675.207 1.043z"/></symbol><symbol id="icon-account" viewBox="0 0 24 28"><title>Account</title><path d="M13.895 6.316a3.79 3.79 0 1 0-7.58 0 3.79 3.79 0 0 0 7.58 0zm-10.106 0a6.316 6.316 0 1 1 12.632 0 6.316 6.316 0 0 1-12.632 0zM20.21 24H0v-2.526c0-4.463 4.156-7.58 10.105-7.58 5.95 0 10.106 3.117 10.106 7.58V24zM2.527 21.474h15.158c0-2.975-3.116-5.053-7.58-5.053-4.46 0-7.578 2.08-7.578 5.054z" fill="#1F1F1F"/></symbol><symbol id="icon-error" viewBox="0 0 10 10"><title>Error</title><g fill="#e30613" fill-rule="evenodd"><path d="M7.828.828l1.415 1.415-7.07 7.07L.756 7.9z"/><path d="M9.243 7.9L7.828 9.313l-7.07-7.07L2.17.827z"/></g></symbol><symbol id="icon-ideal" viewBox="0 0 21 18"><title>iDEAL</title><path fill="#0A0A08" d="M2.295 15.625h3.308v-5.493H2.295m3.557-2.746a1.873 1.873 0 1 1-3.745-.007 1.873 1.873 0 0 1 3.745-.006"/><path fill="#0A0A08" d="M11.644 1.196c2.3 0 4.217.623 5.544 1.803 1.5 1.33 2.26 3.35 2.26 6 0 5.25-2.553 7.8-7.804 7.8H1.194V1.19h10.45zM11.87 0H0v18h11.87v-.003c2.59-.036 4.645-.68 6.102-1.92 1.773-1.508 2.672-3.89 2.672-7.077 0-1.523-.237-2.89-.703-4.062a7.37 7.37 0 0 0-1.95-2.833c-1.51-1.337-3.62-2.06-6.12-2.1V0z"/><path fill="#B9215E" d="M11.317 15.63H7.12V2.653h4.197-.17c3.5 0 7.225 1.38 7.225 6.506 0 5.42-3.725 6.47-7.224 6.47h.17"/><path fill="#FFF" d="M7.028 6.532v2.064H7.5c.176 0 .304-.01.382-.03.102-.025.187-.07.255-.13s.123-.16.165-.3c.043-.14.064-.33.064-.57 0-.242-.02-.427-.064-.556a.688.688 0 0 0-.18-.302.61.61 0 0 0-.29-.147c-.09-.02-.263-.02-.52-.02h-.284zm-.63-.53H7.55c.26 0 .458.02.594.06.184.054.34.15.47.287.132.13.23.3.3.5.067.2.1.44.1.74 0 .26-.03.48-.094.66-.08.22-.19.41-.335.55-.11.1-.257.19-.443.25-.14.04-.325.06-.558.06H6.398V6z"/><path fill="#FFF" d="M7.55 6.088c.25 0 .443.018.57.056.168.05.314.138.433.264.122.128.215.288.28.475.064.19.097.43.097.71 0 .247-.03.46-.09.637-.075.214-.18.388-.314.52-.1.096-.237.173-.41.228-.13.04-.31.062-.532.062h-1.1V6.088H7.55zm-1.237-.17V9.21h1.27c.242 0 .438-.023.585-.07a1.19 1.19 0 0 0 .477-.27c.154-.148.273-.345.355-.584.067-.194.1-.427.1-.693 0-.3-.035-.558-.106-.765-.072-.21-.18-.39-.317-.537a1.23 1.23 0 0 0-.508-.31c-.15-.04-.35-.06-.62-.06H6.31z"/><path fill="#FFF" d="M7.312 6.617c.31 0 .444.015.5.028a.521.521 0 0 1 .253.125.632.632 0 0 1 .156.267c.04.12.06.297.06.528 0 .23-.02.415-.06.546-.03.13-.08.22-.14.27-.05.05-.13.09-.22.11-.07.02-.19.03-.36.03h-.38v-1.9h.2zm-.37-.17V8.68H7.5c.185 0 .317-.01.403-.03a.68.68 0 0 0 .29-.15.724.724 0 0 0 .19-.34c.047-.15.07-.343.07-.595 0-.253-.024-.443-.07-.582a.807.807 0 0 0-.2-.337.689.689 0 0 0-.334-.168 3.16 3.16 0 0 0-.54-.032h-.37zm2.786 2.678V6.002h2.312v.53h-1.682v.69h1.564v.53h-1.564v.844H12.1v.53H9.728"/><path fill="#FFF" d="M11.954 6.088v.358h-1.682v.863h1.565v.35h-1.565v1.02h1.742v.36h-2.2V6.08h2.14zm-2.31-.17V9.21h2.54v-.7h-1.74v-.672h1.564v-.7h-1.565v-.52h1.682v-.7H9.643zm4.82 1.97l-.43-1.158-.42 1.157h.85zm1.16 1.237h-.684l-.272-.71H13.42l-.26.71h-.668l1.214-3.123h.67l1.25 3.123z"/><path fill="#FFF" d="M14.32 6.088L15.5 9.04H15c-.037-.093-.274-.71-.274-.71H13.36l-.258.71h-.485l1.148-2.952h.554zm-.672-.17l-1.28 3.293h.853l.26-.7h1.13l.28.71h.87l-1.32-3.29h-.78z"/><path fill="#FFF" d="M14.036 6.977c.093.252.25.677.306.825h-.607c.054-.148.21-.573.3-.825zm-.545.995h1.1l-.55-1.49-.54 1.49zm2.67 1.153V6.028h.63v2.568h1.57v.53h-2.2"/><path fill="#FFF" d="M16.697 6.113V8.68h1.57v.36h-2.03V6.113h.46zm-.63-.17V9.21h2.37v-.7h-1.57V5.942h-.8z"/></symbol><symbol id="icon-visa" viewBox="0 0 26.4 17.7"><title>VISA</title><path fill="#005187" d="M25.9 17.7H0V0h26.4v17.7H26"/><path fill="#fff" d="M.4 17.3h25.5V.4H.4"/><path fill="#005187" d="M11.3 6.2h1.5l-1.7 5.5H9.7M9 6.2L7.7 8.5A5.4 5.4 0 0 0 7 9.8V6.2H4.3a1 1 0 0 1 1.1 1l.5 4.3h1.5L10.5 6H9m11.5 5.4v-.8h-1.9l-.4.8h-1.6L19.5 6h2l.5 5.4h-1.5zm-.2-3.2a12.4 12.4 0 0 1 0-1.3l-.6 1.5-.5 1.2h1.3V8.4zm-6 3.4a4.2 4.2 0 0 1-2.2-.6l.7-1.1a2.7 2.7 0 0 0 1.6.5.7.7 0 0 0 .6-.3c.2-.4-.1-.5-.6-.9l-.3-.2c-.9-.6-1.2-1.1-.8-2.1a2 2 0 0 1 2.1-1.1 3.3 3.3 0 0 1 1.9.7l-.8.9a1.8 1.8 0 0 0-1.1-.5.7.7 0 0 0-.6.3c-.2.3.1.5.5.8l.3.2c1 .7 1.3 1.3 1 2a2.1 2.1 0 0 1-2.2 1.4m8.1-4.9h-.1v-.2h.2v.2h-.1v.1h-.1V7zm.1-.2zm0 .4a.4.4 0 1 1 .3-.3.3.3 0 0 1-.3.3zm0-.6a.3.3 0 0 0 0 .6.3.3 0 0 0 0-.6z"/><path fill="#efa338" d="M1.1 16.5h24.2v-3.2H1.1"/><path fill="#005187" d="M1.1 4.5h24.1V1.3H1.1m23.6 15h-.1v-.4h.2v.2h-.1v-.2h-.1v.2zm.1-.2zm0 .4a.4.4 0 1 1 .3-.4.3.3 0 0 1-.4.4zm0-.6a.3.3 0 0 0-.3.3.3.3 0 1 0 .5 0 .3.3 0 0 0-.2-.4z"/></symbol><symbol id="icon-mastercard" viewBox="0 0 29.8 17.8"><title>MasterCard</title><path fill="#f90" d="M29.8 8.9a8.9 8.9 0 0 1-17.8 0 8.9 8.9 0 1 1 17.8 0z"/><path fill="#c00" d="M8.9 0A8.9 8.9 0 1 0 15 15.5l.9-1H14l-.7-.9h3.1l.5-1h-4.1l-.4-.9h4.9a9.1 9.1 0 0 0 .5-2.8 8.6 8.6 0 0 0-.2-1.9h-5.5l.3-.9h4.9l-.4-1h-4.1l.5-.9h3.1l-.7-1H14l.9-.9a8.9 8.9 0 0 0-6-2.3z"/><path fill="#fcb340" d="M28.8 14.1v-.3m0-.2"/><path fill="#006" d="M11.9 11.5v-.8h-.2c-.3 0-.4-.2-.3-.3l.3-1.6h.5v-1h-.5v-.5H11s-.6 3.1-.6 3.5a.7.7 0 0 0 .8.8h.7zm.3-1.5a1.5 1.5 0 0 0 1.6 1.7 2.9 2.9 0 0 0 1.1-.2l.2-.9a3.4 3.4 0 0 1-1.1.2c-1 0-.8-.8-.8-.8h2a6.5 6.5 0 0 0 .1-.9 1.3 1.3 0 0 0-1.4-1.4c-.9 0-1.7 1-1.7 2.2zm1.7-1.3c.5 0 .4.6.4.6h-1.1c0-.1.1-.7.6-.7zm6 2.9l.2-1-.8.2a.9.9 0 0 1-.9-1.1c0-1.1.6-1.7 1.2-1.7a1.7 1.7 0 0 1 .9.3l.2-1a2 2 0 0 0-1-.3c-1.5 0-2.3 1-2.3 2.8a1.7 1.7 0 0 0 1.8 2h.8zM6.6 7.8a3.3 3.3 0 0 0-1.1.2v.8a3 3 0 0 1 1-.2c.3 0 .6 0 .6.3a.7.7 0 0 1 0 .2h-.5c-.9 0-1.7.4-1.7 1.4a.9.9 0 0 0 .9 1 1.2 1.2 0 0 0 .9-.4v.4h.8l.4-2.6a1.1 1.1 0 0 0-1.3-1.1zm.1 2.1c0 .2 0 .9-.6.9a.4.4 0 0 1-.4-.4c0-.3.1-.6.8-.6h.1zm2.1 1.7c.2 0 1.4.1 1.4-1.2s-1-1-1-1.5.2-.3.5-.3h.6v-.8h-.7c-.7 0-1.4.2-1.4 1.2s1.2 1 1.2 1.4-.3.3-.6.3h-.9v.8h1zM27.7 7l-.2 1.3a1.2 1.2 0 0 0-.9-.5c-1 0-1.6 1.1-1.6 2.2s.4 1.5 1.2 1.5a1.2 1.2 0 0 0 .9-.4v.3h.9l.7-4.4h-1zm-.4 2.5c0 .5-.2 1.2-.8 1.2s-.5-.3-.5-.7.3-1.2.8-1.2.5.2.5.8zm-25.8 2l.6-3.4v3.4h.7l1.3-3.4-.5 3.4h1L5.2 7H3.7l-.9 2.8V7H1.3l-.7 4.5h.9"/><path fill="#006" d="M16.1 11.5c.3-1.6.4-2.8 1.2-2.6a5.5 5.5 0 0 1 .5-1.4h-.3c-.4 0-1 .9-1 .9v-.6h-.9l-.6 3.7h1zm5.7-3.8a3.3 3.3 0 0 0-1.1.2v.8a3 3 0 0 1 1-.2c.4 0 .6 0 .6.3a.7.7 0 0 1 0 .2h-.4c-.9 0-1.7.4-1.7 1.4a.9.9 0 0 0 .9 1 1.2 1.2 0 0 0 1-.4v.4h.8l.4-2.6A1.1 1.1 0 0 0 22 7.7zm.2 2.2c0 .2 0 .9-.6.9a.3.3 0 0 1-.4-.4c0-.3.1-.6.8-.6h.2zm2.1 1.6c.1-1.2.4-2.8 1.2-2.6s0-.6-.2-.6h-.5v-.5h-.9l-.6 3.7h1z"/><path fill="#fff" d="M12.1 11.2v-.8H12c-.3 0-.4-.2-.3-.3l.3-1.6h.5v-.9H12V7h-.9s-.6 3.1-.6 3.5a.7.7 0 0 0 .8.8h.7zm.3-1.5a1.5 1.5 0 0 0 1.6 1.7 2.4 2.4 0 0 0 1-.2l.2-.9a3 3 0 0 1-1 .2c-1 0-.8-.8-.8-.8h1.9a6.8 6.8 0 0 0 .1-.9A1.3 1.3 0 0 0 14 7.4c-1 0-1.7 1-1.7 2.2zm1.7-1.3c.5 0 .4.6.4.6h-1c0-.1.1-.7.6-.7zm6 2.9l.2-1-.8.2a.9.9 0 0 1-.9-1.1c0-1.1.6-1.7 1.2-1.7a1.7 1.7 0 0 1 .9.3l.2-1a3.3 3.3 0 0 0-1.1-.2c-1.1 0-2.2.9-2.2 2.7s.6 2 1.7 2h.8zM6.9 7.5a3.3 3.3 0 0 0-1.2.2v.8a3 3 0 0 1 1-.2c.4 0 .6 0 .6.3a.6.6 0 0 1 0 .2h-.5c-.8 0-1.7.4-1.7 1.4a.9.9 0 0 0 .9 1 1.2 1.2 0 0 0 1-.4v.4h.8l.4-2.6a1.1 1.1 0 0 0-1.3-1.1zm.2 2.1c0 .2-.1.9-.7.9a.3.3 0 0 1-.4-.4c0-.3.1-.6.8-.6H7zm2 1.7c.2 0 1.4.1 1.4-1.2s-1.1-1-1.1-1.4.2-.3.5-.3h.6v-.8h-.7c-.7 0-1.4.3-1.4 1.2s1.2 1 1.2 1.4-.3.3-.6.3h-.9v.8h1zm18.8-4.6L27.7 8a1.3 1.3 0 0 0-.9-.5c-.9 0-1.6 1-1.6 2.3s.4 1.5 1.2 1.5a1.2 1.2 0 0 0 .9-.4v.3h.9l.7-4.5h-1zm-.4 2.5c0 .5-.2 1.2-.8 1.2s-.5-.3-.5-.7.3-1.2.7-1.2.6.1.6.7zm-25.7 2l.6-3.4v3.4h.7l1.2-3.4-.5 3.4h1l.8-4.5H4L3 9.5V6.7H1.6l-.8 4.5m15.5 0c.3-1.6.3-2.9 1-2.6a3.5 3.5 0 0 1 .4-1.1h-.2c-.4 0-.7.6-.7.6v-.5H16l-.6 3.7h1zm5.9-3.8a3.3 3.3 0 0 0-1.1.2v.8a3 3 0 0 1 1-.2c.4 0 .6 0 .6.3a.7.7 0 0 1 0 .2h-.4c-.8 0-1.7.4-1.7 1.4a.9.9 0 0 0 .9 1 1.2 1.2 0 0 0 1-.4v.4h.8l.4-2.6a1.1 1.1 0 0 0-1.3-1.1zm.2 2.1c0 .2-.1.9-.7.9a.3.3 0 0 1-.4-.4c0-.3.1-.6.8-.6h.2zm1.9 1.6c.3-1.6.3-2.8 1-2.6a3.6 3.6 0 0 1 .4-1.1h-.2c-.4 0-.7.6-.7.6v-.4h-.9l-.6 3.7h1zm4.4-.1v-.3m0-.2"/></symbol><symbol id="icon-arrow--left" viewBox="0 0 16 16"><title>Pijl links</title><path fill="#009EE0" fill-rule="evenodd" d="M4.646 8l-.2.2 4.614 4.617 1.495-1.495L7.233 8l3.322-3.322L9.06 3.183 4.445 7.8l.2.2z"/></symbol><svg id="icon-back" xmlns="http://www.w3.org/2000/svg" viewBox="0 0 14 22" preserveAspectRatio="xMinYMid"><title>Terug</title><path fill="#009EE0" fill-rule="evenodd" d="M4.93 11l8.127-8.128c.593-.593.59-1.54.004-2.125a1.496 1.496 0 0 0-2.123.004l-9.19 9.19L.687 11l10.25 10.25c.592.592 1.54.59 2.125.003.59-.59.585-1.537-.003-2.125L4.93 11z"/></svg><symbol id="icon-arrow--right" viewBox="0 0 16 16"><title>Pijl rechts</title><path fill="#009EE0" fill-rule="evenodd" d="M11.354 8l.2-.2L6.94 3.182 5.445 4.678 8.767 8l-3.322 3.322 1.495 1.495L11.555 8.2l-.2-.2z"/></symbol><symbol id="icon-calendar" viewBox="0 0 22 24"><title>Kalender</title><path d="M8 3h6v2.002C14 6.112 14.895 7 16 7c1.112 0 2-.895 2-1.998V3h1c1.656 0 3 1.346 3 3.01v14.98A3.005 3.005 0 0 1 19 24H3c-1.656 0-3-1.346-3-3.01V6.01A3.004 3.004 0 0 1 3 3h1v2.002C4 6.112 4.895 7 6 7c1.112 0 2-.895 2-1.998V3zm-4 7v4h4v-4H4zm5 0v4h4v-4H9zm0 5v4h4v-4H9zm-5 0v4h4v-4H4zm10-5v4h4v-4h-4zM5 .99C5 .445 5.444 0 6 0a1 1 0 0 1 1 .99v4.02C7 5.555 6.556 6 6 6a1 1 0 0 1-1-.99V.99zm10 0c0-.546.444-.99 1-.99a1 1 0 0 1 1 .99v4.02c0 .546-.444.99-1 .99a1 1 0 0 1-1-.99V.99z" fill="#1F1F1F" fill-rule="evenodd"/></symbol><symbol id="icon-assist" viewBox="0 0 23 23"><title>Assist</title><g fill="none" fill-rule="evenodd"><path d="M20.1 8.74a4.164 4.164 0 0 0 .794-2.058l-.96-1.108.03-1.964a4.157 4.157 0 0 0-1.483-1.144l-1.74.664L15 2.466a4.21 4.21 0 0 0-1.484 1.144l.03 1.964-.958 1.108c.078.777.368 1.49.813 2.083l1.03.258.752 1.11a4.14 4.14 0 0 0 1.56.302c.51 0 .998-.092 1.45-.26l.78-1.152L20.1 8.74zm-3.36 3.782a6.26 6.26 0 0 1-6.26-6.26A6.259 6.259 0 0 1 16.74 0a6.26 6.26 0 0 1 6.262 6.26 6.26 6.26 0 0 1-6.26 6.262zm0-8.348l2.088 1.594-.797 2.58h-2.58l-.796-2.58 2.087-1.594z" fill="#1F1F1F"/><path d="M5.523 18.412C-1.345 18.102.126 7.76.143 8.374c.095 3.164 2 4.24 5.38 4.303v-4.59l7.305 7.304-7.305 7.306v-4.284z" fill="#009EE0"/></g></symbol><symbol id="icon-pro" viewBox="0 0 45.2 17.7"><title>VI Pro</title><defs><mask id="a" x="0" y="0" width="45.19" height="17.67" maskUnits="userSpaceOnUse"><path d="M45.2 17.7V0H0v17.7z" fill="#fff"/></mask></defs><path d="M.9.9h43.4v16H8.8a8 8 0 0 1-8-8v-8" fill="#1d1c1b"/><path d="M15.3 8.3V6.1q0-.3-.5-.3h-1.5v2.8h1.5c.4 0 .5-.1.5-.3zM9.5 3.7h6.4q3.2 0 3.2 2v2.9q0 2-3.2 2h-2.6v3.3H9.5zm15.6 2h-1.5v2.7h1.5q.5 0 .5-.4V6q0-.3-.5-.3zm-1.5 4.6v3.6h-3.8V3.7h6.4q3.2 0 3.2 2v2.6q0 1.5-1.9 1.9l3.9 3.7h-4l-3.5-3.6h-.2z" fill="#fefefe"/><path d="M35.9 11.6q0 .3-.5.3h-.9q-.5 0-.5-.3V6.1q0-.3.5-.3h.9q.5 0 .5.3zm.6-7.8h-3.2q-3.2 0-3.2 2V12l1.9 1.8h4.5q3.2 0 3.2-2V5.7q0-2-3.2-2z" fill="#fefefe"/><path d="M45.2 0H0v8.8a8.8 8.8 0 0 0 8.8 8.8h36.4zM.9.9h43.4v16H8.8a8 8 0 0 1-8-8v-8z" fill="#fefefe" mask="url(#a)"/></symbol><symbol id="icon-video" viewBox="0 0 8 10"><title>Video</title><path d="M7.9 4.8a.2.2 0 0 1 0 .3L.3 10c-.2.1-.3 0-.3-.1V.1C0 0 .3 0 .3 0z" fill="#fff"/></symbol><symbol id="icon-audio" viewBox="0 0 10 9.4"><title>Audio</title><path d="M5.7 8.9c0 .5-.3.7-.8.3L1.7 6.5h-1a.7.7 0 0 1-.7-.7V3.7A.7.7 0 0 1 .7 3h1L4.9.2c.4-.4.8-.2.8.3zm.9-2.5a2.2 2.2 0 0 0 0-3.3l.7-.6A3.1 3.1 0 0 1 7.2 7zm1.8 1.8l-.7-.6a4 4 0 0 0 .1-5.8c-.1 0 .7-.6.7-.6a4.9 4.9 0 0 1-.1 7z" fill="#fff"/></symbol></defs></svg>