<?xml version="1.0" encoding="UTF-8" standalone="no"?>
<svg width="598px" height="98px" viewBox="0 0 598 98" version="1.1" xmlns="http://www.w3.org/2000/svg" xmlns:xlink="http://www.w3.org/1999/xlink" xmlns:sketch="http://www.bohemiancoding.com/sketch/ns">
    <!-- Generator: Sketch 3.5.2 (25235) - http://www.bohemiancoding.com/sketch -->
    <title>Untitled</title>
    <desc>Created with Sketch.</desc>
    <defs>
        <rect id="path-1" x="0" y="0" width="793.889" height="239.999"></rect>
        <rect id="path-3" x="0" y="0" width="793.889" height="239.999"></rect>
        <rect id="path-5" x="0" y="0" width="793.889" height="239.999"></rect>
        <rect id="path-7" x="0" y="0" width="793.889" height="239.999"></rect>
        <rect id="path-9" x="0" y="0" width="793.889" height="239.999"></rect>
        <rect id="path-11" x="0" y="0" width="793.889" height="239.999"></rect>
        <rect id="path-13" x="0" y="0" width="793.889" height="239.999"></rect>
        <rect id="path-15" x="0" y="0" width="793.889" height="239.999"></rect>
        <rect id="path-17" x="0" y="0" width="793.889" height="239.999"></rect>
        <rect id="path-19" x="0" y="0" width="793.889" height="239.999"></rect>
        <rect id="path-21" x="0" y="0" width="793.889" height="239.999"></rect>
        <rect id="path-23" x="0" y="0" width="793.889" height="239.999"></rect>
        <rect id="path-25" x="0" y="0" width="793.889" height="239.999"></rect>
        <rect id="path-27" x="0" y="0" width="793.889" height="239.999"></rect>
    </defs>
    <g id="Page-1" stroke="none" stroke-width="1" fill="none" fill-rule="evenodd" sketch:type="MSPage">
        <g id="Gov.uk_logo" sketch:type="MSLayerGroup" transform="translate(-66.000000, -65.000000)">
            <path d="M596.375,160.255 L612.656,160.255 L612.656,135.774 L623.045,124.151 L644.326,160.255 L663.247,160.255 L633.489,111.742 L661.451,79.737 L641.406,79.737 L612.656,114.606 L612.656,79.737 L596.375,79.737 L596.375,160.255 Z" id="Shape" fill="#FFFFFF" sketch:type="MSShapeGroup"></path>
            <g id="Group">
                <g id="Clipped">
                    <mask id="mask-2" sketch:name="SVGID_1_" fill="white">
                        <use xlink:href="#path-1"></use>
                    </mask>
                    <g id="SVGID_1_"></g>
                    <path d="M541.097,145.628 C539.057,144.937 537.296,143.888 535.82,142.483 C534.34,141.081 533.172,139.301 532.31,137.149 C531.448,134.997 531.017,132.46 531.017,129.542 L531.017,79.625 L514.905,79.625 L514.905,131.956 C514.905,136.446 515.717,140.509 517.343,144.14 C518.97,147.771 521.242,150.859 524.159,153.404 C527.078,155.951 530.535,157.916 534.539,159.3 C538.54,160.685 542.916,161.378 547.666,161.378 C552.416,161.378 556.791,160.685 560.794,159.3 C564.796,157.915 568.247,155.95 571.145,153.404 C574.043,150.859 576.306,147.771 577.933,144.14 C579.559,140.509 580.373,136.447 580.373,131.956 L580.373,79.625 L564.371,79.625 L564.371,129.542 C564.371,132.46 563.938,134.997 563.079,137.149 C562.218,139.301 561.047,141.081 559.57,142.483 C558.091,143.887 556.331,144.936 554.291,145.628 C552.252,146.321 550.053,146.667 547.694,146.667 C545.335,146.667 543.136,146.321 541.097,145.628" id="Shape" fill="#FFFFFF" sketch:type="MSShapeGroup" mask="url(#mask-2)"></path>
                </g>
                <g id="Clipped">
                    <mask id="mask-4" sketch:name="SVGID_1_" fill="white">
                        <use xlink:href="#path-3"></use>
                    </mask>
                    <g id="SVGID_1_"></g>
                    <path d="M482.253,155.146 C482.795,156.38 483.536,157.466 484.471,158.402 C485.408,159.338 486.501,160.068 487.758,160.591 C489.01,161.116 490.329,161.378 491.715,161.378 C493.098,161.378 494.41,161.116 495.645,160.591 C496.879,160.068 497.966,159.337 498.902,158.402 C499.838,157.467 500.577,156.381 501.12,155.146 C501.661,153.91 501.933,152.582 501.933,151.158 C501.933,149.775 501.661,148.474 501.12,147.258 C500.577,146.041 499.838,144.975 498.902,144.057 C497.966,143.141 496.88,142.411 495.645,141.868 C494.41,141.325 493.098,141.054 491.715,141.054 C490.329,141.054 489.01,141.325 487.758,141.868 C486.501,142.411 485.407,143.141 484.471,144.057 C483.536,144.975 482.795,146.041 482.253,147.258 C481.711,148.475 481.441,149.776 481.441,151.158 C481.44,152.581 481.711,153.909 482.253,155.146" id="Shape" fill="#FFFFFF" sketch:type="MSShapeGroup" mask="url(#mask-4)"></path>
                </g>
            </g>
            <path d="M456.397,160.255 L479.138,79.737 L461.112,79.737 L445.897,140.265 L445.336,140.265 L429.782,79.737 L411.534,79.737 L434.273,160.255 L456.397,160.255 Z" id="Shape" fill="#FFFFFF" sketch:type="MSShapeGroup"></path>
            <g id="Group">
                <g id="Clipped">
                    <mask id="mask-6" sketch:name="SVGID_3_" fill="white">
                        <use xlink:href="#path-5"></use>
                    </mask>
                    <g id="SVGID_3_"></g>
                    <path d="M357.575,144.673 C354.88,143.345 352.625,141.501 350.81,139.142 C348.993,136.785 347.618,133.997 346.683,130.777 C345.747,127.558 345.279,124.039 345.279,120.221 L345.279,119.772 C345.279,115.992 345.747,112.483 346.683,109.245 C347.618,106.008 348.993,103.209 350.81,100.851 C352.625,98.492 354.88,96.649 357.575,95.32 C360.27,93.993 363.377,93.327 366.895,93.327 C370.414,93.327 373.512,93.993 376.188,95.32 C378.864,96.649 381.121,98.492 382.955,100.851 C384.788,103.209 386.174,106.008 387.109,109.245 C388.046,112.484 388.513,115.992 388.513,119.772 L388.513,120.221 C388.513,124.039 388.046,127.558 387.109,130.777 C386.174,133.998 384.788,136.785 382.955,139.142 C381.121,141.501 378.864,143.345 376.188,144.673 C373.512,146.003 370.414,146.667 366.895,146.667 C363.377,146.667 360.27,146.003 357.575,144.673 M350.753,81.842 C346.018,83.996 341.994,86.933 338.682,90.658 C335.368,94.383 332.841,98.762 331.101,103.797 C329.361,108.831 328.49,114.233 328.49,119.995 C328.49,125.797 329.361,131.207 331.101,136.221 C332.841,141.239 335.368,145.619 338.682,149.362 C341.994,153.106 346.018,156.044 350.753,158.176 C355.488,160.309 360.868,161.377 366.895,161.377 C372.885,161.377 378.256,160.309 383.011,158.176 C387.764,156.043 391.797,153.106 395.11,149.362 C398.422,145.62 400.95,141.239 402.692,136.221 C404.432,131.207 405.3,125.797 405.3,119.995 C405.3,114.232 404.432,108.831 402.692,103.797 C400.95,98.762 398.421,94.383 395.11,90.658 C391.797,86.933 387.764,83.996 383.011,81.842 C378.256,79.689 372.885,78.615 366.895,78.615 C360.868,78.616 355.488,79.689 350.753,81.842" id="Shape" fill="#FFFFFF" sketch:type="MSShapeGroup" mask="url(#mask-6)"></path>
                </g>
                <g id="Clipped">
                    <mask id="mask-8" sketch:name="SVGID_3_" fill="white">
                        <use xlink:href="#path-7"></use>
                    </mask>
                    <g id="SVGID_3_"></g>
                    <path d="M261.899,119.659 C261.899,116.254 262.329,112.951 263.191,109.749 C264.05,106.548 265.361,103.732 267.12,101.299 C268.88,98.865 271.126,96.91 273.858,95.431 C276.591,93.953 279.847,93.213 283.629,93.213 C286.023,93.213 288.195,93.521 290.142,94.14 C292.088,94.757 293.82,95.6 295.336,96.667 C296.851,97.733 298.189,99.006 299.349,100.484 C300.51,101.963 301.52,103.564 302.383,105.285 L316.643,97.256 C315.295,94.448 313.535,91.893 311.366,89.591 C309.194,87.289 306.696,85.324 303.869,83.696 C301.043,82.068 297.918,80.813 294.493,79.934 C291.068,79.054 287.447,78.615 283.629,78.615 C277.751,78.615 272.445,79.69 267.71,81.842 C262.974,83.996 258.932,86.934 255.582,90.659 C252.231,94.383 249.649,98.763 247.834,103.797 C246.017,108.832 245.11,114.232 245.11,119.996 C245.11,125.8 245.924,131.208 247.553,136.222 C249.181,141.24 251.558,145.618 254.684,149.363 C257.808,153.105 261.655,156.045 266.222,158.177 C270.789,160.309 276.012,161.378 281.888,161.378 C284.395,161.378 286.762,161.114 288.99,160.591 C291.218,160.068 293.266,159.347 295.138,158.429 C297.009,157.513 298.695,156.408 300.192,155.117 C301.689,153.826 302.943,152.394 303.955,150.822 L303.955,160.256 L318.216,160.256 L318.216,116.124 L281.774,116.124 L281.774,128.532 L302.383,128.532 L302.383,129.319 C302.383,131.042 302.092,132.911 301.511,134.932 C300.931,136.953 299.921,138.836 298.479,140.577 C297.038,142.317 295.111,143.768 292.697,144.929 C290.282,146.089 287.258,146.669 283.629,146.669 C279.847,146.669 276.591,145.929 273.858,144.45 C271.126,142.971 268.88,141.016 267.12,138.583 C265.361,136.149 264.05,133.343 263.191,130.161 C262.329,126.979 261.899,123.667 261.899,120.222 L261.899,119.659 L261.899,119.659 Z" id="Shape" fill="#FFFFFF" sketch:type="MSShapeGroup" mask="url(#mask-8)"></path>
                </g>
                <g id="Clipped">
                    <mask id="mask-10" sketch:name="SVGID_3_" fill="white">
                        <use xlink:href="#path-9"></use>
                    </mask>
                    <g id="SVGID_3_"></g>
                    <path d="M91.671,96.107 C95.307,97.606 99.435,95.891 100.916,92.296 C102.404,88.709 100.701,84.541 97.065,83.051 C93.5,81.585 89.355,83.334 87.872,86.934 C86.389,90.516 88.104,94.644 91.671,96.107" id="Shape" fill="#FFFFFF" sketch:type="MSShapeGroup" mask="url(#mask-10)"></path>
                </g>
                <g id="Clipped">
                    <mask id="mask-12" sketch:name="SVGID_3_" fill="white">
                        <use xlink:href="#path-11"></use>
                    </mask>
                    <g id="SVGID_3_"></g>
                    <path d="M75.664,105.488 C79.302,106.989 83.426,105.274 84.907,101.678 C86.397,98.092 84.693,93.924 81.055,92.431 C77.491,90.968 73.348,92.717 71.863,96.317 C70.38,99.897 72.096,104.025 75.664,105.488" id="Shape" fill="#FFFFFF" sketch:type="MSShapeGroup" mask="url(#mask-12)"></path>
                </g>
                <g id="Clipped">
                    <mask id="mask-14" sketch:name="SVGID_3_" fill="white">
                        <use xlink:href="#path-13"></use>
                    </mask>
                    <g id="SVGID_3_"></g>
                    <path d="M70.977,123.286 C74.615,124.786 78.742,123.071 80.224,119.477 C81.713,115.892 80.01,111.723 76.373,110.23 C72.808,108.766 68.663,110.514 67.178,114.114 C65.695,117.696 67.41,121.827 70.977,123.286" id="Shape" fill="#FFFFFF" sketch:type="MSShapeGroup" mask="url(#mask-14)"></path>
                </g>
                <g id="Clipped">
                    <mask id="mask-16" sketch:name="SVGID_3_" fill="white">
                        <use xlink:href="#path-15"></use>
                    </mask>
                    <g id="SVGID_3_"></g>
                    <path d="M109.536,101.747 C113.173,103.246 117.301,101.531 118.781,97.936 C120.27,94.352 118.566,90.183 114.93,88.69 C111.364,87.225 107.22,88.974 105.737,92.575 C104.254,96.156 105.969,100.285 109.536,101.747" id="Shape" fill="#FFFFFF" sketch:type="MSShapeGroup" mask="url(#mask-16)"></path>
                </g>
                <g id="Clipped">
                    <mask id="mask-18" sketch:name="SVGID_3_" fill="white">
                        <use xlink:href="#path-17"></use>
                    </mask>
                    <g id="SVGID_3_"></g>
                    <path d="M174.268,96.107 C170.63,97.606 166.503,95.891 165.021,92.296 C163.533,88.709 165.237,84.541 168.871,83.051 C172.439,81.585 176.583,83.334 178.066,86.934 C179.549,90.516 177.833,94.644 174.268,96.107" id="Shape" fill="#FFFFFF" sketch:type="MSShapeGroup" mask="url(#mask-18)"></path>
                </g>
                <g id="Clipped">
                    <mask id="mask-20" sketch:name="SVGID_3_" fill="white">
                        <use xlink:href="#path-19"></use>
                    </mask>
                    <g id="SVGID_3_"></g>
                    <path d="M190.274,105.488 C186.637,106.989 182.511,105.274 181.03,101.678 C179.54,98.092 181.245,93.924 184.879,92.431 C188.446,90.968 192.59,92.717 194.075,96.317 C195.557,99.897 193.841,104.025 190.274,105.488" id="Shape" fill="#FFFFFF" sketch:type="MSShapeGroup" mask="url(#mask-20)"></path>
                </g>
                <g id="Clipped">
                    <mask id="mask-22" sketch:name="SVGID_3_" fill="white">
                        <use xlink:href="#path-21"></use>
                    </mask>
                    <g id="SVGID_3_"></g>
                    <path d="M194.96,123.286 C191.323,124.786 187.195,123.071 185.715,119.477 C184.225,115.892 185.93,111.723 189.566,110.23 C193.13,108.766 197.277,110.514 198.758,114.114 C200.243,117.696 198.527,121.827 194.96,123.286" id="Shape" fill="#FFFFFF" sketch:type="MSShapeGroup" mask="url(#mask-22)"></path>
                </g>
                <g id="Clipped">
                    <mask id="mask-24" sketch:name="SVGID_3_" fill="white">
                        <use xlink:href="#path-23"></use>
                    </mask>
                    <g id="SVGID_3_"></g>
                    <path d="M156.402,101.747 C152.763,103.246 148.639,101.531 147.155,97.936 C145.667,94.352 147.372,90.183 151.007,88.69 C154.573,87.225 158.719,88.974 160.2,92.575 C161.683,96.156 159.968,100.285 156.402,101.747" id="Shape" fill="#FFFFFF" sketch:type="MSShapeGroup" mask="url(#mask-24)"></path>
                </g>
                <g id="Clipped">
                    <mask id="mask-26" sketch:name="SVGID_3_" fill="white">
                        <use xlink:href="#path-25"></use>
                    </mask>
                    <g id="SVGID_3_"></g>
                    <path d="M136.698,83.499 L136.719,83.48 L145.656,88.172 L145.656,75 L136.729,77.827 L136.704,77.801 C136.454,77.472 136.165,77.179 135.836,76.926 L135.812,76.9 L139.404,65.596 L132.955,65.597 L126.504,65.596 L130.096,76.9 L130.07,76.926 C129.745,77.179 129.454,77.472 129.205,77.801 L129.178,77.827 L120.253,75 L120.253,88.172 L129.191,83.48 L129.211,83.499 C129.476,83.847 129.787,84.154 130.135,84.415 L125.002,99.898 C124.996,99.917 124.99,99.936 124.985,99.956 L124.979,99.972 L124.981,99.973 C124.742,100.746 124.612,101.567 124.612,102.417 C124.612,106.606 127.704,110.064 131.728,110.658 C131.787,110.667 131.847,110.677 131.908,110.685 C132.251,110.73 132.597,110.759 132.955,110.759 C133.309,110.759 133.657,110.73 134.001,110.685 C134.06,110.677 134.12,110.667 134.179,110.658 C138.203,110.064 141.296,106.606 141.296,102.417 C141.296,101.567 141.166,100.746 140.93,99.973 L140.93,99.972 L140.924,99.956 C140.921,99.936 140.912,99.917 140.905,99.898 L135.774,84.415 C136.122,84.154 136.432,83.847 136.698,83.499" id="Shape" fill="#FFFFFF" sketch:type="MSShapeGroup" mask="url(#mask-26)"></path>
                </g>
                <g id="Clipped">
                    <mask id="mask-28" sketch:name="SVGID_3_" fill="white">
                        <use xlink:href="#path-27"></use>
                    </mask>
                    <g id="SVGID_3_"></g>
                    <path d="M132.955,159.269 C149.921,159.269 165.982,160.417 180.292,162.466 C184.353,145.386 189.297,135.603 194.403,128.636 L184.79,125.212 C185.747,130.095 185.899,132.364 184.829,135.503 C183.243,133.954 181.741,131.103 180.568,126.747 L175.913,142.257 C178.745,140.306 180.931,139.046 183.431,138.987 C178.997,148.536 173.459,150.995 169.87,150.331 C165.49,149.528 163.475,145.62 164.154,142.306 C165.164,137.611 169.982,136.386 172.232,141.849 C176.538,133.07 169.235,130.333 164.534,132.931 C171.752,125.73 172.578,119.33 166.752,111.586 C158.633,117.791 158.539,123.937 162.191,132.584 C157.45,127.158 150.075,130.072 152.74,138.838 C156.158,133.545 160.684,136.873 159.974,141.902 C159.373,146.283 153.589,149.82 146.386,149.195 C136.065,148.257 135.452,141.134 135.193,135.24 C137.729,134.769 142.3,137.123 146.195,142.592 L147.63,126.141 C143.392,130.559 139.541,131.397 135.263,131.534 C136.686,127.091 143.232,119.81 143.232,119.81 L133.723,119.81 L133.717,119.81 L133.712,119.81 L122.699,119.81 C122.699,119.81 129.242,127.091 130.667,131.534 C126.39,131.397 122.538,130.559 118.299,126.141 L119.733,142.592 C123.632,137.123 128.199,134.77 130.737,135.24 C130.481,141.135 129.867,148.258 119.543,149.195 C112.34,149.82 106.557,146.283 105.957,141.902 C105.246,136.873 109.772,133.545 113.192,138.838 C115.857,130.072 108.477,127.158 103.739,132.584 C107.392,123.938 107.296,117.792 99.178,111.586 C93.352,119.33 94.177,125.73 101.395,132.931 C96.694,130.333 89.393,133.07 93.698,141.849 C95.948,136.386 100.77,137.611 101.776,142.306 C102.454,145.62 100.438,149.529 96.059,150.331 C92.471,150.995 86.934,148.536 82.5,138.987 C84.999,139.046 87.183,140.305 90.019,142.257 L85.361,126.747 C84.187,131.102 82.687,133.954 81.1,135.503 C80.03,132.364 80.183,130.095 81.137,125.212 L71.528,128.636 C76.632,135.603 81.575,145.386 85.637,162.462 C99.94,160.417 115.992,159.269 132.955,159.269" id="Shape" fill="#FFFFFF" sketch:type="MSShapeGroup" mask="url(#mask-28)"></path>
                </g>
            </g>
        </g>
    </g>
</svg>