<?xml version="1.0" encoding="utf-8"?>
<!-- Generator: Adobe Illustrator 16.0.4, SVG Export Plug-In . SVG Version: 6.00 Build 0)  -->
<!DOCTYPE svg PUBLIC "-//W3C//DTD SVG 1.1//EN" "http://www.w3.org/Graphics/SVG/1.1/DTD/svg11.dtd">
<svg version="1.1" id="Layer_1" xmlns="http://www.w3.org/2000/svg" xmlns:xlink="http://www.w3.org/1999/xlink" x="0px" y="0px"
	 width="793.889px" height="239.999px" viewBox="0 0 793.889 239.999" enable-background="new 0 0 793.889 239.999"
	 xml:space="preserve">
<rect fill="#010202" width="793.889" height="239.999"/>
<polygon fill="#FFFFFF" points="596.375,160.255 612.656,160.255 612.656,135.774 623.045,124.151 644.326,160.255 663.247,160.255 
	633.489,111.742 661.451,79.737 641.406,79.737 612.656,114.606 612.656,79.737 596.375,79.737 "/>
<g>
	<defs>
		<rect id="SVGID_1_" width="793.889" height="239.999"/>
	</defs>
	<clipPath id="SVGID_2_">
		<use xlink:href="#SVGID_1_"  overflow="visible"/>
	</clipPath>
	<path clip-path="url(#SVGID_2_)" fill="#FFFFFF" d="M541.097,145.628c-2.04-0.691-3.801-1.74-5.277-3.145
		c-1.48-1.402-2.648-3.182-3.51-5.334s-1.293-4.689-1.293-7.607V79.625h-16.112v52.331c0,4.49,0.812,8.553,2.438,12.184
		c1.627,3.631,3.899,6.719,6.816,9.264c2.919,2.547,6.376,4.512,10.38,5.896c4.001,1.385,8.377,2.078,13.127,2.078
		s9.125-0.693,13.128-2.078c4.002-1.385,7.453-3.35,10.351-5.896c2.898-2.545,5.161-5.633,6.788-9.264
		c1.626-3.631,2.44-7.693,2.44-12.184V79.625h-16.002v49.917c0,2.918-0.433,5.455-1.292,7.607c-0.861,2.152-2.032,3.932-3.509,5.334
		c-1.479,1.404-3.239,2.453-5.279,3.145c-2.039,0.693-4.238,1.039-6.597,1.039S543.136,146.321,541.097,145.628"/>
	<path clip-path="url(#SVGID_2_)" fill="#FFFFFF" d="M482.253,155.146c0.542,1.234,1.283,2.32,2.218,3.256
		c0.937,0.936,2.03,1.666,3.287,2.189c1.252,0.525,2.571,0.787,3.957,0.787c1.383,0,2.695-0.262,3.93-0.787
		c1.234-0.523,2.321-1.254,3.257-2.189s1.675-2.021,2.218-3.256c0.541-1.236,0.813-2.564,0.813-3.988c0-1.383-0.272-2.684-0.813-3.9
		c-0.543-1.217-1.282-2.283-2.218-3.201c-0.936-0.916-2.022-1.646-3.257-2.189s-2.547-0.814-3.93-0.814
		c-1.386,0-2.705,0.271-3.957,0.814c-1.257,0.543-2.351,1.273-3.287,2.189c-0.935,0.918-1.676,1.984-2.218,3.201
		s-0.812,2.518-0.812,3.9C481.44,152.581,481.711,153.909,482.253,155.146"/>
</g>
<polygon fill="#FFFFFF" points="456.397,160.255 479.138,79.737 461.112,79.737 445.897,140.265 445.336,140.265 429.782,79.737 
	411.534,79.737 434.273,160.255 "/>
<g>
	<defs>
		<rect id="SVGID_3_" width="793.889" height="239.999"/>
	</defs>
	<clipPath id="SVGID_4_">
		<use xlink:href="#SVGID_3_"  overflow="visible"/>
	</clipPath>
	<path clip-path="url(#SVGID_4_)" fill="#FFFFFF" d="M357.575,144.673c-2.695-1.328-4.95-3.172-6.765-5.531
		c-1.817-2.357-3.192-5.145-4.127-8.365c-0.936-3.219-1.404-6.738-1.404-10.556v-0.449c0-3.78,0.468-7.289,1.404-10.527
		c0.935-3.237,2.31-6.036,4.127-8.394c1.815-2.359,4.07-4.202,6.765-5.531c2.695-1.327,5.802-1.993,9.32-1.993
		c3.519,0,6.617,0.666,9.293,1.993c2.676,1.329,4.933,3.172,6.767,5.531c1.833,2.358,3.219,5.157,4.154,8.394
		c0.937,3.239,1.404,6.747,1.404,10.527v0.449c0,3.818-0.467,7.337-1.404,10.556c-0.935,3.221-2.321,6.008-4.154,8.365
		c-1.834,2.359-4.091,4.203-6.767,5.531c-2.676,1.33-5.774,1.994-9.293,1.994C363.377,146.667,360.27,146.003,357.575,144.673
		 M350.753,81.842c-4.735,2.154-8.759,5.091-12.071,8.816c-3.314,3.725-5.841,8.104-7.581,13.139
		c-1.74,5.034-2.611,10.436-2.611,16.198c0,5.802,0.871,11.212,2.611,16.226c1.74,5.018,4.267,9.398,7.581,13.141
		c3.312,3.744,7.336,6.682,12.071,8.814c4.735,2.133,10.115,3.201,16.142,3.201c5.99,0,11.361-1.068,16.116-3.201
		c4.753-2.133,8.786-5.07,12.099-8.814c3.312-3.742,5.84-8.123,7.582-13.141c1.74-5.014,2.608-10.424,2.608-16.226
		c0-5.763-0.868-11.164-2.608-16.198c-1.742-5.035-4.271-9.414-7.582-13.139c-3.313-3.725-7.346-6.662-12.099-8.816
		c-4.755-2.153-10.126-3.227-16.116-3.227C360.868,78.616,355.488,79.689,350.753,81.842"/>
	<path clip-path="url(#SVGID_4_)" fill="#FFFFFF" d="M261.899,119.659c0-3.405,0.43-6.708,1.292-9.91
		c0.859-3.201,2.17-6.017,3.929-8.45c1.76-2.434,4.006-4.389,6.738-5.868c2.733-1.478,5.989-2.218,9.771-2.218
		c2.394,0,4.566,0.308,6.513,0.927c1.946,0.617,3.678,1.46,5.194,2.527c1.515,1.066,2.853,2.339,4.013,3.817
		c1.161,1.479,2.171,3.08,3.034,4.801l14.26-8.029c-1.348-2.808-3.108-5.363-5.277-7.665c-2.172-2.302-4.67-4.267-7.497-5.895
		c-2.826-1.628-5.951-2.883-9.376-3.762c-3.425-0.88-7.046-1.319-10.864-1.319c-5.878,0-11.184,1.075-15.919,3.227
		c-4.736,2.154-8.778,5.092-12.128,8.817c-3.351,3.724-5.933,8.104-7.748,13.138c-1.817,5.035-2.724,10.435-2.724,16.199
		c0,5.804,0.814,11.212,2.443,16.226c1.628,5.018,4.005,9.396,7.131,13.141c3.124,3.742,6.971,6.682,11.538,8.814
		s9.79,3.201,15.666,3.201c2.507,0,4.874-0.264,7.102-0.787s4.276-1.244,6.148-2.162c1.871-0.916,3.557-2.021,5.054-3.312
		c1.497-1.291,2.751-2.723,3.763-4.295v9.434h14.261v-44.132h-36.442v12.408h20.609v0.787c0,1.723-0.291,3.592-0.872,5.613
		c-0.58,2.021-1.59,3.904-3.032,5.645c-1.441,1.74-3.368,3.191-5.782,4.352c-2.415,1.16-5.439,1.74-9.068,1.74
		c-3.782,0-7.038-0.74-9.771-2.219c-2.732-1.479-4.978-3.434-6.738-5.867c-1.759-2.434-3.07-5.24-3.929-8.422
		c-0.862-3.182-1.292-6.494-1.292-9.939V119.659z"/>
	<path clip-path="url(#SVGID_4_)" fill="#FFFFFF" d="M91.671,96.107c3.636,1.499,7.764-0.216,9.245-3.811
		c1.488-3.587-0.215-7.755-3.851-9.245c-3.565-1.466-7.71,0.283-9.193,3.883C86.389,90.516,88.104,94.644,91.671,96.107"/>
	<path clip-path="url(#SVGID_4_)" fill="#FFFFFF" d="M75.664,105.488c3.638,1.501,7.762-0.214,9.243-3.81
		c1.49-3.586-0.214-7.754-3.852-9.247c-3.564-1.463-7.707,0.286-9.192,3.886C70.38,99.897,72.096,104.025,75.664,105.488"/>
	<path clip-path="url(#SVGID_4_)" fill="#FFFFFF" d="M70.977,123.286c3.638,1.5,7.765-0.215,9.247-3.809
		c1.489-3.585-0.214-7.754-3.851-9.247c-3.565-1.464-7.71,0.284-9.195,3.884C65.695,117.696,67.41,121.827,70.977,123.286"/>
	<path clip-path="url(#SVGID_4_)" fill="#FFFFFF" d="M109.536,101.747c3.637,1.499,7.765-0.216,9.245-3.811
		c1.489-3.584-0.215-7.753-3.851-9.246c-3.566-1.465-7.71,0.284-9.193,3.885C104.254,96.156,105.969,100.285,109.536,101.747"/>
	<path clip-path="url(#SVGID_4_)" fill="#FFFFFF" d="M174.268,96.107c-3.638,1.499-7.765-0.216-9.247-3.811
		c-1.488-3.587,0.216-7.755,3.85-9.245c3.568-1.466,7.712,0.283,9.195,3.883C179.549,90.516,177.833,94.644,174.268,96.107"/>
	<path clip-path="url(#SVGID_4_)" fill="#FFFFFF" d="M190.274,105.488c-3.637,1.501-7.763-0.214-9.244-3.81
		c-1.49-3.586,0.215-7.754,3.849-9.247c3.567-1.463,7.711,0.286,9.196,3.886C195.557,99.897,193.841,104.025,190.274,105.488"/>
	<path clip-path="url(#SVGID_4_)" fill="#FFFFFF" d="M194.96,123.286c-3.637,1.5-7.765-0.215-9.245-3.809
		c-1.49-3.585,0.215-7.754,3.851-9.247c3.564-1.464,7.711,0.284,9.192,3.884C200.243,117.696,198.527,121.827,194.96,123.286"/>
	<path clip-path="url(#SVGID_4_)" fill="#FFFFFF" d="M156.402,101.747c-3.639,1.499-7.763-0.216-9.247-3.811
		c-1.488-3.584,0.217-7.753,3.852-9.246c3.566-1.465,7.712,0.284,9.193,3.885C161.683,96.156,159.968,100.285,156.402,101.747"/>
	<path clip-path="url(#SVGID_4_)" fill="#FFFFFF" d="M136.698,83.499l0.021-0.019l8.937,4.692V75l-8.927,2.827l-0.025-0.026
		c-0.25-0.329-0.539-0.622-0.868-0.875l-0.024-0.026l3.592-11.304l-6.449,0.001l-6.451-0.001l3.592,11.304l-0.026,0.026
		c-0.325,0.253-0.616,0.546-0.865,0.875l-0.027,0.026L120.253,75v13.172l8.938-4.692l0.02,0.019
		c0.265,0.348,0.576,0.655,0.924,0.916l-5.133,15.483c-0.006,0.019-0.012,0.038-0.017,0.058l-0.006,0.016l0.002,0.001
		c-0.239,0.773-0.369,1.594-0.369,2.444c0,4.189,3.092,7.647,7.116,8.241c0.059,0.009,0.119,0.019,0.18,0.027
		c0.343,0.045,0.689,0.074,1.047,0.074c0.354,0,0.702-0.029,1.046-0.074c0.059-0.008,0.119-0.018,0.178-0.027
		c4.024-0.594,7.117-4.052,7.117-8.241c0-0.85-0.13-1.671-0.366-2.444v-0.001l-0.006-0.016c-0.003-0.02-0.012-0.039-0.019-0.058
		l-5.131-15.483C136.122,84.154,136.432,83.847,136.698,83.499"/>
	<path clip-path="url(#SVGID_4_)" fill="#FFFFFF" d="M132.955,159.269c16.966,0,33.027,1.148,47.337,3.197
		c4.061-17.08,9.005-26.863,14.111-33.83l-9.613-3.424c0.957,4.883,1.109,7.152,0.039,10.291c-1.586-1.549-3.088-4.4-4.261-8.756
		l-4.655,15.51c2.832-1.951,5.018-3.211,7.518-3.27c-4.434,9.549-9.972,12.008-13.561,11.344c-4.38-0.803-6.395-4.711-5.716-8.025
		c1.01-4.695,5.828-5.92,8.078-0.457c4.306-8.779-2.997-11.516-7.698-8.918c7.218-7.201,8.044-13.601,2.218-21.345
		c-8.119,6.205-8.213,12.351-4.561,20.998c-4.741-5.426-12.116-2.512-9.451,6.254c3.418-5.293,7.944-1.965,7.234,3.064
		c-0.601,4.381-6.385,7.918-13.588,7.293c-10.321-0.938-10.934-8.061-11.193-13.955c2.536-0.471,7.107,1.883,11.002,7.352
		l1.435-16.451c-4.238,4.418-8.089,5.256-12.367,5.393c1.423-4.443,7.969-11.724,7.969-11.724h-9.509h-0.006h-0.005h-11.013
		c0,0,6.543,7.281,7.968,11.724c-4.277-0.137-8.129-0.975-12.368-5.393l1.434,16.451c3.899-5.469,8.466-7.822,11.004-7.352
		c-0.256,5.895-0.87,13.018-11.194,13.955c-7.203,0.625-12.986-2.912-13.586-7.293c-0.711-5.029,3.815-8.357,7.235-3.064
		c2.665-8.766-4.715-11.68-9.453-6.254c3.653-8.646,3.557-14.792-4.561-20.998c-5.826,7.744-5.001,14.144,2.217,21.345
		c-4.701-2.598-12.002,0.139-7.697,8.918c2.25-5.463,7.072-4.238,8.078,0.457c0.678,3.314-1.338,7.223-5.717,8.025
		c-3.588,0.664-9.125-1.795-13.559-11.344c2.499,0.059,4.683,1.318,7.519,3.27l-4.658-15.51c-1.174,4.355-2.674,7.207-4.261,8.756
		c-1.07-3.139-0.917-5.408,0.037-10.291l-9.609,3.424c5.104,6.967,10.047,16.75,14.109,33.826
		C99.94,160.417,115.992,159.269,132.955,159.269"/>
</g>
</svg>
