<?xml version="1.0" encoding="utf-8"?>
<!-- Generator: Adobe Illustrator 15.1.0, SVG Export Plug-In . SVG Version: 6.00 Build 0)  -->
<!DOCTYPE svg PUBLIC "-//W3C//DTD SVG 1.1//EN" "http://www.w3.org/Graphics/SVG/1.1/DTD/svg11.dtd">
<svg version="1.1" xmlns="http://www.w3.org/2000/svg" xmlns:xlink="http://www.w3.org/1999/xlink" x="0px" y="0px" width="595px"
	 height="842px" viewBox="0 0 595 842" enable-background="new 0 0 595 842" xml:space="preserve">
<g id="Layer_1">
	<rect x="135.146" y="258.563" fill-rule="evenodd" clip-rule="evenodd" fill="#FFFFFF" width="325.984" height="325.983"/>
</g>
<g id="_x23_Layer_1">
	<path fill-rule="evenodd" clip-rule="evenodd" d="M251.339,527.09c-1.771-6.535,14.764-8.383,14.764-14.425
		c0-4.191-6.201-6.411-11.221-7.151c-1.771,3.206-11.219,6.658-11.81,12.452C242.776,521.419,246.023,524.501,251.339,527.09
		L251.339,527.09z M171.027,520.555L171.027,520.555c19.782,4.685,39.566-18.985,59.348-28.355c2.658,1.355,5.02,0.616,6.792,0.74
		l-1.771,0.862l2.952,5.671c0.887,1.85,0.295,3.329-1.18,4.069c-1.478,0.738-2.954,0.245-4.134-1.479l-2.658-6.041l-2.658,1.355
		l3.249,6.041c1.476,2.589,3.838,3.698,7.085,2.096c3.249-1.479,4.134-4.315,2.954-7.027l-2.658-5.425
		c1.771,0.124,2.067-0.369,3.542-0.369c1.478,0.123,2.067,2.219,1.183,4.191c5.018,0.864,8.858-5.425,8.267-7.521
		c7.381,2.467,7.972,9.863,12.99,17.384c1.182,1.479,2.658,3.698,2.658,7.521c0,7.028-13.286,8.507-14.173,13.809
		c10.039,4.314,26.574,6.781,42.518,6.781c15.944,0,32.479-2.712,42.518-7.027c-1.181-5.056-14.173-6.658-14.173-13.562
		c0-3.822,1.773-6.041,2.658-7.521c4.134-5.794,5.021-11.466,8.858-15.041c0.589,0.124,4.43,0.124,4.723,0.493
		c0.887,1.479,5.611,0.862,9.449-0.124l-3.838,10.356l4.43,1.604c3.247,1.109,6.494-0.74,7.676-3.453
		c0.885-3.205-0.295-6.411-4.133-7.643l-3.249-1.233c2.066-0.617,3.84-1.356,4.134-1.727c10.038,3.206,20.668,11.467,31.298,18.863
		c11.81,8.138,27.165,15.904,32.479,13.069c-12.401,6.533-14.173,11.712-20.964,11.712c-16.829,0.124-37.201-28.11-57.87-28.355
		c3.838,2.465,9.743,5.547,9.743,12.205c0,5.178-4.725,7.89-7.381,19.108c-0.296,1.851-1.773,8.631-5.021,10.727
		c-8.858,6.165-33.069,7.275-41.337,7.275c-8.267,0-32.479-0.864-41.042-7.275c-3.542-2.465-5.314-10.603-5.905-12.451
		c-2.363-11.097-7.381-12.083-7.381-17.261c0-6.658,6.2-9.863,10.334-12.328c-20.668,0.245-41.042,28.108-57.872,28.108
		C186.086,533.377,183.428,526.966,171.027,520.555L171.027,520.555z M339.327,527.09L339.327,527.09
		c5.609-2.589,8.562-5.671,8.268-9.124c-0.592-5.794-10.039-9.246-11.517-12.452c-5.314,0.74-11.219,2.96-11.219,7.151
		C324.563,518.707,341.394,520.555,339.327,527.09L339.327,527.09z M227.717,508.35L227.717,508.35l-3.838,2.713l-1.771-2.467
		l3.542-2.589l-1.18-1.603l-3.543,2.589l-1.477-2.218l3.84-2.713l-0.887-1.603l-6.201,4.191l6.496,9.616l6.497-4.069L227.717,508.35
		L227.717,508.35z M217.089,518.09L217.089,518.09l-6.201-9.616l-2.362,1.603l6.496,9.616L217.089,518.09L217.089,518.09z
		 M207.344,517.843L207.344,517.843c-1.771-2.836-5.314-3.698-8.562-1.727l-3.544,2.344l6.201,9.863l4.134-2.22
		C209.116,523.885,208.821,520.186,207.344,517.843L207.344,517.843z M396.608,522.034L396.608,522.034
		c1.18,0.74,2.655,1.233,3.838,1.727l1.181-1.849c-2.952-1.233-6.497-3.083-9.744-5.18l-1.476,1.975
		c1.476,0.738,2.656,1.479,3.838,2.096l-5.02,7.273c0.886,0.616,1.478,0.864,2.362,1.109L396.608,522.034L396.608,522.034z
		 M383.32,524.625L383.32,524.625l6.201-9.371l-2.363-1.355l-6.2,9.246C380.958,523.145,382.14,524.13,383.32,524.625
		L383.32,524.625z M370.624,509.46L370.624,509.46c-1.771,2.712-0.885,6.534,2.066,8.383c2.954,1.85,6.791,1.11,8.562-1.603
		c1.771-2.836,0.887-6.535-2.066-8.507C376.234,505.883,372.396,506.624,370.624,509.46L370.624,509.46z M366.196,512.789
		L366.196,512.789c0,0,0-1.974,0.294-3.205c0.295-2.344-0.294-3.453-0.294-3.453s2.066,0.493,3.247-1.355
		c0.887-1.851,0-3.7-1.181-4.439l-4.429-2.712l-5.905,9.985l2.067,1.357l2.655-4.191l0.296,0.245
		c0.887,0.493,1.182,1.604,0.887,3.329c0,1.234-0.296,2.589-0.296,2.836L366.196,512.789L366.196,512.789z M331.65,546.077
		L331.65,546.077l0.885-12.7l-2.657,0.864l-0.59,7.89l-4.725-6.658l-3.247,0.616l-0.295,12.7l2.655-0.494v-10.109
		c0,0,4.725,6.903,5.907,8.63C330.469,546.569,331.65,546.077,331.65,546.077L331.65,546.077z M304.486,544.597L304.486,544.597
		c0,3.576,3.247,6.289,6.79,5.917c3.84-0.369,6.791-3.574,6.791-7.149c0-3.576-2.951-6.288-6.791-5.918
		C307.438,537.815,304.486,541.021,304.486,544.597L304.486,544.597z M288.247,538.186L288.247,538.186v12.821l2.656,0.124v-8.383
		l3.84,5.178c0,0.123,3.838-5.549,3.838-5.549v8.754h2.656l-0.294-12.698h-2.658l-3.542,5.301l-3.544-5.424L288.247,538.186
		L288.247,538.186z M275.254,539.419L275.254,539.419c1.476,0.123,2.954,0.369,4.43,0.492v-2.343
		c-3.838-0.369-7.087-0.738-10.334-1.479v2.344c1.18,0.246,2.362,0.369,3.247,0.616l0.296,10.479l2.657,0.369L275.254,539.419
		L275.254,539.419z M267.578,546.199L267.578,546.199c-2.067-0.369-3.838-0.863-5.02-1.355l-0.295-2.836
		c1.477,0.369,2.953,0.74,4.725,1.109v-2.343c-2.067-0.37-3.838-0.739-5.019-1.232v-2.836c0.294,0.124,2.067,0.493,5.019,1.357
		v-2.467c-2.658-0.369-5.314-1.233-7.972-1.973l0.886,12.945c3.247,0.986,4.427,1.232,7.676,1.973V546.199L267.578,546.199z
		 M203.506,524.625L203.506,524.625c2.067-1.233,2.658-3.453,1.476-5.303c-1.18-1.849-3.247-2.466-5.609-1.108l-0.885,0.615
		l4.134,6.41L203.506,524.625L203.506,524.625z M372.986,510.938L372.986,510.938c-1.181,1.604-0.885,3.822,0.887,5.056
		c2.066,1.232,3.838,0.37,5.019-1.233c1.182-1.727,1.182-3.822-0.886-5.177C376.234,508.35,374.168,509.212,372.986,510.938
		L372.986,510.938z M364.423,503.787L364.423,503.787c0.887,0.493,2.067,0.741,2.658-0.245s0.295-1.727-0.885-2.467l-0.887-0.493
		l-1.771,2.713L364.423,503.787L364.423,503.787z M307.438,544.351L307.438,544.351c0,2.219,1.183,3.944,3.839,3.698
		c2.362-0.247,3.84-2.219,3.84-4.438s-1.478-4.068-3.84-3.699C308.62,540.035,307.438,542.131,307.438,544.351L307.438,544.351z
		 M314.82,466.925L314.82,466.925c-0.296,0.247-0.296,0.74-0.296,1.109c0.296,0.617,0,0.617-0.295,1.603
		c-0.296,1.233-1.181,1.603-1.181,1.357c0-0.124,0-0.371-0.296,0.245c-0.295,0.248-0.591,0.493-0.886,0.37
		c-0.296,0-0.591,0.493-1.771,0.617c-0.591,0-0.887,0-1.476-0.246c0.295-1.233,0.589-0.371,0.885-1.233
		c0-0.247,0.886-0.247,1.182-0.124c0,0.124,0.59,0.124,1.181-0.369c1.182-0.74,0.886-0.493,0.886-1.357
		c-0.295-0.738,0.296-1.355,0.296-1.603c0.294-0.246,0.59-0.615,0.885-0.862c0.296-0.247,0.591-0.124,0.887-0.124
		C314.82,466.556,314.82,466.801,314.82,466.925L314.82,466.925z M306.553,465.076L306.553,465.076
		c0.59-0.124,1.771-1.48,1.476-1.48c0-0.122-0.591-0.246-0.295-0.617c0-0.369,0.591-0.121,0.591,0
		c0.296-0.369-0.296-0.493-0.591-0.738c-0.296-0.124-0.885-0.247-0.885,0.124c0,0,0.589,0.121,0.589,0.493
		c-0.295,0.492-0.589,0.245-0.885,0.121C306.258,462.733,306.258,464.582,306.553,465.076L306.553,465.076z M308.324,461.623
		L308.324,461.623c0,0,0,0,0.296,0c0,0,0.589,0.248,0.885,0.248c-0.296,0.122-0.296,0.614-0.885,0.369
		C308.324,462.116,308.324,461.871,308.324,461.623L308.324,461.623z M307.733,461.376L307.733,461.376v-0.122
		c-0.296-0.123-0.885-0.247-0.885-0.493c0,0.37-0.296,0.739,0.294,0.862C307.438,461.747,307.438,461.623,307.733,461.376
		L307.733,461.376z M306.258,469.885L306.258,469.885c0.295-0.124,0.591,0.245,0.885,0.121c0.295-0.121,0.295-0.121,0.295-0.492
		c0,0,0,0,0.296-0.617c0.295-0.492,0.591-0.492,0.591-0.862c0.296-0.493,0.296-1.355,0.885-1.603h0.296
		c-0.296,0.247,0,0.616-0.296,0.74c0,0.493-0.294,0.738-0.294,0.862c0.59,0.124,1.181,0,2.066-0.247
		c0.886-0.493,0.886-0.615,2.067-1.355c0.294-0.369,0.885-0.369,1.771-0.493c0,0.369,0.589,1.479,0.885,1.479
		c0.887,0,1.183-0.246,2.067-0.617c0.591-0.369,0.591,0.864-0.59,1.727c-0.591,0.74-0.591,0-1.182,0.493
		c-0.592,0.247-0.592,0.493-0.592,0.74c0,0.493-0.589,0.493,0,1.233c0.296-0.124,0.887-0.247,1.773-0.988
		c0-0.121,0.294-0.121,0.294-0.245c0.591-0.74,0.887,0.369,1.182-0.986c0-0.37,0-0.37,0.296-0.616
		c0.296-0.248,0.296,0.862,0.885-0.248c0.296-0.616-0.296-0.738,0-1.479c0.296-0.616-0.589-0.247-0.589-0.493
		c-0.296-0.616-0.887-0.369-0.887-0.986c0,0,1.476,0.124,2.362,0.124c1.476,0,2.657-0.494,2.657-1.727
		c0-1.727-2.361-1.479-4.725-1.109c-2.066,0.245-5.315,0.862-5.315,0c0-0.74,2.066-1.357,2.953-1.357
		c1.771,0,2.362,0.248,3.543,0.248c2.066,0,3.249-0.494,3.838-0.494c0.887,0,1.478,0.124,1.478,0c0-0.37-2.657-0.863-4.133-0.863
		c-2.067,0-0.592,0.493-2.658,0.493c-0.887,0,0-0.493,0-0.493c0-0.122-0.887-0.122-1.181-0.122c-1.478,0-1.773,0.615-2.658,0.862
		c-0.295,0.123-1.771,0.617-1.771,1.603c0,1.479,1.771,1.357,4.135,1.11c2.362-0.369,5.609-0.986,5.609,0.123
		c0,0.617-0.887,1.11-1.771,1.11c-1.771,0-2.067-0.248-2.953-0.248c-1.477,0-4.134,0.493-6.496,0.493
		c-0.295,0-0.886-0.245-1.181-0.245c-0.296,0-0.296,0.245-0.296,0.245c-0.295,0-0.295,0-0.295,0c0-0.738,0-1.355,0-1.355
		s0.295-0.123,0.591-0.492c0-0.372,0-0.617,0-0.864c0.591,0.371,1.181-0.246,1.181-0.617c0-0.369-1.181-0.615-1.477-0.369
		c0-0.246,0.296-0.37,0.296-0.493c0,0-0.591-0.74-1.181-0.986c-0.591-0.247-1.478,0-1.478,0c-0.295,0,0,0.246-0.295,0.617
		c0-0.493-0.885-1.109-1.181-0.864c-0.296,0.371-0.296,1.109,0.296,1.233c-0.296,0.247-0.296,0.369-0.592,0.617
		c0,0.492,0.296,0.862,0.296,0.862s-1.771,1.233-1.476,2.589c0,0.37,0.295,1.109,0,1.109c-0.296-0.122-0.296-0.986-0.592-0.986
		c-0.591-0.245-0.884-0.738-0.884-0.862c-0.296-0.247-1.183-0.985-1.183-1.85c0-0.37,0.591-0.493,0.591-1.11
		c0-1.109-0.887-1.231-1.476-0.862c0,0,0.589,0,0.294,0.369c0,0.124,0.295,0.493-0.294,0.617c-0.296,0,0-0.74-0.887-0.74
		c-0.591,0-0.886,0.494-0.886,0.864c0,0.123,0.295-0.37,0.59-0.124c0,0.247,0.296,0.247,0.296,0.493
		c0,0.247-0.296,0.371-0.296,0.247c-0.59,0-1.18,0.986-0.295,1.603c0,0.124-0.295-0.74,0-0.616c0.591,0.369,1.478-0.369,1.182,0.493
		c0,0.123-0.295,0.492,0.59,0.985c0.591,0.248-0.294,0.124-0.294,0.37c0,0.247,0.294,0.74,1.181,0.987
		c0.591,0.122,0.295,0.246,0,0.246c-0.592,0,0.591,0.863,1.18,0.985c0.887,0.124-0.293,0.247,0.887,0.617
		c0.591,0.123,0.591-0.493,0.591-0.493c0.296-0.124,0.296,0.123,0.296,0.369c0.294,0.247,0.294,0.493,0.294,0.616
		c0,0.371,0,0.494-1.181,0.864c-0.296,0.122-1.771,0.369-2.658,0.493c-0.295,0.122-1.18,0.369-1.476-0.124
		c0-0.123-0.591-0.985-1.476-0.739c-0.296,0.123-0.591,0.37-0.296,0.985c0,0.495,0-0.369,0.296,0c0.296,0.124,0.59-0.122,0.59,0.495
		c0.295,0.121-0.59-0.124-0.886,0c-0.591,0.245-0.591,1.109-0.295,1.479c0.591,0.369,0-0.493,0.591-0.369
		c0.296,0.122,0.59-0.247,1.18,0c0.296,0.245-0.295,0.245-0.295,0.615c0.591,0.74,1.478,0.493,1.771,0.371
		c0.295-0.248-0.885-0.124-0.294-0.493c0-0.124-0.296-0.617,0-0.74c1.181-0.369,0.294,0.369,0.885,0.369s0.887-0.493,1.183-0.493
		c0.589-0.123-0.296,0.493,0,0.371c0.884-0.124,1.18-0.247,1.476-0.74c0.295-0.248,0.295,0.369,0.885,0.246
		C305.666,470.5,305.962,470.13,306.258,469.885L306.258,469.885z M323.088,442.637L323.088,442.637c0,0.371-0.296,0-0.296,0.74
		c-0.295,0.616,0.591,0.492,0.591,0.862c0,0.247,0,0.371-0.591,0.371c-0.295-0.124,0,0,0,0.493
		c-0.591,0.862-1.476,1.109-1.182,0.985c0-0.123,0-0.862-0.294-0.616c-0.295,0.247-0.295,0.493-0.591,0.74
		c-0.296,0-0.591,0.122-1.183,0.122c-0.293,0.124-0.885,0.247-1.18,0c-0.296-0.122,0,0.247-1.181,0.124
		c-0.295,0-0.887-0.124-1.182-0.124c0.295-1.231,0.591-0.369,1.182-1.231c0-0.371,1.181-0.248,1.181,0
		c0.295,0.123,0.591,0.369,1.476,0c1.183-0.864,0.887-0.741,0.591-1.479c-0.295-0.495,0.592-1.233,1.181-1.48
		c0.591-0.369,0.295-0.246,0.887,0C322.792,442.391,323.383,442.391,323.088,442.637L323.088,442.637z M314.524,443.5L314.524,443.5
		c2.363-1.233,2.658-1.85,7.677-1.85c0.591,0,1.182,0.493,1.771,0.986c0.591,0.492,1.182,1.109,2.066,1.109
		c2.067,0,1.478-0.617,2.658-0.617c0.591,0.124,0,2.098-1.181,2.22c-0.887,0.124-0.591-0.493-1.478-0.493
		c-0.589,0-0.589,0-0.885,0.371c-0.295,0.369-0.886,0.122-0.886,0.986c0.295,0,1.182,0.246,2.066,0c0.295,0,0.295,0.122,0.591,0.122
		c0.591,0.124,1.476,0.247,2.066-0.122c0.296-0.247,0.296-0.617,0.886-0.617c0.295,0-0.294,0.617,0.295,0.246
		c0.591-0.122,0.591-0.738,0.591-1.231c-0.295-0.248-0.591-0.493-0.295-0.617c0.295-0.493,0.591,0.369,0.591-0.247
		c0.296-1.603-0.591-1.479-0.887-1.849c0-0.247,0-0.74-0.295-0.74c-0.294,0-1.181,0.617-2.361,0.74c-0.887,0-1.182-0.985-2.657-1.48
		c0.591,0,0.591,0.247,2.951,0.247c1.182,0,2.658-0.493,2.658-1.603c0-2.465-5.609-1.233-8.563-1.233
		c-2.655,0.124-3.838,0.247-5.609,0.247c-1.18,0-1.771-0.369-1.771-0.985c0-1.233,3.839-1.11,4.726-0.986
		c2.36,0.122,2.951,0.738,6.2,0.738c2.36,0,3.542-0.862,4.134-0.862c1.18,0,1.18,0.37,1.18,0.246
		c0.296-0.369-1.476-0.986-3.247-0.986c-2.362,0-2.066,0.74-4.134,0.74c-0.886,0,0.886-0.616,0.886-0.74s-0.296-0.124-0.886-0.124
		c-1.478,0-3.248,0.248-3.544,0.248c-1.476-0.124-6.2-0.37-6.2,1.727c0,0.862,0.591,1.725,2.657,1.725
		c1.181,0,5.314-0.122,5.905-0.246c2.953-0.123,7.087-0.862,7.087,0.369c0,0.617-0.591,0.986-1.478,0.986
		c-2.066,0-2.656-0.122-5.019-0.122c-3.542,0.122-5.609,0.369-7.087,0.369c-0.296,0-2.362-0.247-4.134-0.369
		c-0.295,0-0.295,0.493-0.59,0.493s-0.295,0-0.295-0.124c0-0.616-0.296-1.233-0.296-1.233s0.591-0.123,0.886-0.616
		c0-0.369,0-0.615,0-0.986c0.591,0.371,1.182-0.245,1.477-0.616c-0.295-0.369-1.477-0.739-1.771-0.246
		c0-0.493,0.295-0.616,0.295-0.616s-0.59-0.741-1.181-0.986c-0.887-0.37-1.771-0.124-1.771-0.124s0,0.247,0,0.617
		c0-0.493-1.182-1.109-1.476-0.863c-0.296,0.37-0.296,1.108,0.294,1.232c0,0.247-0.294,0.493-0.294,0.864
		c-0.296,0.369,0,0.862,0,0.862s-1.771,1.233-1.478,2.712c0,0.369,0.295,1.233,0,1.11c-0.294,0-0.294-0.986-0.59-0.986
		c-0.591-0.371-0.887-0.864-0.887-0.986c-0.591-0.123-1.476-0.987-1.476-1.85c0-0.369,0.592-0.493,0.592-1.233
		c0-1.11-0.887-1.232-1.183-0.986c-0.296,0.124,0.591,0,0.296,0.369c-0.296,0.248,0,0.617-0.296,0.741
		c-0.296,0-0.296-0.741-1.181-0.741c-0.295,0-0.887,0.371-0.887,0.864c0.296,0.124,0.296-0.493,0.592-0.123
		c0,0.247,0.295,0.247,0.295,0.616c0,0.124-0.295,0.245-0.295,0.245c-0.592,0-1.182,0.988-0.296,1.604c0,0.123-0.296-0.739,0-0.615
		c0.591,0.369,1.476-0.493,1.476,0.615c0,0-0.589,0.371,0.592,0.987c0.591,0.246-0.592,0.122-0.592,0.369
		c0,0.124,0.592,0.741,1.183,0.986c0.589,0.124,0.589,0.37,0,0.37c-0.296,0,0.885,0.863,1.476,0.863
		c0.887,0.246-0.296,0.369,0.887,0.738c0.589,0.124,0.589-0.492,0.589-0.614c0.296,0,0.296,0.245,0.296,0.614
		c0.296,0.371,0.296,0.617,0,0.864c-0.296,0.124-0.296,0.369-1.181,0.369c-0.591,0-2.066-0.369-2.953-0.493
		c-0.591,0-1.476-0.123-1.476-0.616c0-0.245-0.296-1.355-1.182-1.355c-0.294,0-0.59,0.246-0.886,0.862
		c0,0.369,0.296-0.369,0.592,0.124c0,0.245,0.589,0.124,0.589,0.74c0,0.122-0.589-0.371-1.181-0.371
		c-0.886,0-0.886,0.864-0.886,1.357c0.295,0.616,0.295-0.493,0.886-0.248c0.296,0.37,0.592,0.124,0.886,0.493
		c0.295,0.248-0.294,0.248-0.294,0.617c0,0.862,1.18,0.862,1.476,0.862c0.295-0.122-0.592-0.246,0-0.493
		c0.295-0.122,0-0.738,0.295-0.738c1.181,0,0,0.492,0.59,0.738c0.887,0.247,1.182-0.246,1.478-0.246
		c0.589,0.246-0.591,0.493,0,0.617c0.885,0.122,1.18,0.122,1.476-0.247c0.296-0.246,0.296,0.493,0.887,0.493
		c0.589,0.123,1.181-0.246,2.065-0.617c0.295-0.122,0.591,0.247,0.886,0.247c0.296-0.123,0.296-0.247,0.296-0.493
		c0-0.123,0-0.123,0.591-0.863c0.294-0.493,0.294-0.493,0.59-0.863c0.295-0.616,0.295-1.479,0.886-1.726h0.296
		c-0.296,0.247,0,0.493-0.296,0.864c0,0.492-0.295,0.616-0.295,0.738C310.391,443.869,313.343,444.239,314.524,443.5L314.524,443.5z
		 M307.733,440.664L307.733,440.664c-0.296-0.493-0.296-2.465,0-2.219c0,0.123,0.591,0.369,0.591-0.124
		c0.296-0.369-0.296-0.493-0.296-0.493c0-0.369,0.296-0.246,0.887-0.122c0.294,0.122,0.59,0.369,0.59,0.739
		c0-0.124-0.59-0.37-0.885,0c-0.296,0.369,0.589,0.616,0.589,0.616C309.505,439.062,308.324,440.54,307.733,440.664L307.733,440.664
		z M309.505,437.09L309.505,437.09c0-0.124,0-0.124,0.295-0.124c0,0.124,0.591,0.245,0.887,0.245
		c-0.296,0.248-0.296,0.617-0.887,0.495C309.505,437.459,309.505,437.335,309.505,437.09L309.505,437.09z M308.62,436.719
		L308.62,436.719c0,0.247-0.296,0.371-0.592,0.247c-0.295-0.247,0-0.493-0.295-0.862c0.295,0.246,0.887,0.369,0.887,0.493
		C308.915,436.597,308.915,436.719,308.62,436.719L308.62,436.719z M319.543,454.965L319.543,454.965
		c0,0.371-0.293-0.122-0.293,0.74c-0.296,0.617,0.589,0.37,0.589,0.741c0,0.245,0,0.369-0.589,0.245c-0.296,0,0,0.124,0,0.493
		c-0.296,0.864-1.183,1.109-1.183,0.986c0-0.122,0-0.862,0-0.615c-0.591,0.246-0.295,0.493-0.885,0.738
		c-0.295,0-0.591,0.124-0.887,0.124c-0.295,0.124-0.887,0.245-1.18,0.124c-0.296-0.248,0,0-1.183,0
		c-0.295,0-0.591-0.124-1.181-0.248c0.296-1.109,0.59-0.245,1.181-1.109c0-0.246,1.183-0.124,1.183,0.124
		c0,0.123,0.589,0.369,1.18,0c1.477-0.862,1.181-0.74,0.887-1.479c-0.295-0.493,0.294-1.233,0.885-1.356
		c0.591-0.37,0.591-0.246,0.887,0C319.25,454.596,319.839,454.72,319.543,454.965L319.543,454.965z M307.143,452.993
		L307.143,452.993c0.591,0,1.772-1.355,1.478-1.479c-0.296,0-0.887-0.123-0.592-0.616c0.296-0.247,0.592-0.124,0.592,0.124
		c0.295-0.371,0-0.617-0.592-0.74c-0.295-0.124-0.591-0.246-0.591,0.123c0,0,0.591,0.124,0.296,0.369
		c0,0.493-0.591,0.37-0.885,0.124C306.849,450.773,306.849,452.624,307.143,452.993L307.143,452.993z M308.915,449.664
		L308.915,449.664v-0.124c0.294,0.124,0.885,0.371,0.885,0.371c-0.295,0.124-0.295,0.493-0.591,0.37
		C308.915,450.157,308.915,449.911,308.915,449.664L308.915,449.664z M308.028,449.294L308.028,449.294L308.028,449.294
		c0-0.123-0.591-0.369-0.886-0.492c0.295,0.369-0.294,0.616,0.295,0.862C307.733,449.787,308.028,449.54,308.028,449.294
		L308.028,449.294z M309.8,452.624L309.8,452.624c0-0.617,0-1.233,0-1.233s0.296-0.124,0.591-0.617c0-0.245,0-0.492,0-0.738
		c0.591,0.246,1.181-0.248,1.181-0.741c0-0.369-1.181-0.616-1.476-0.246c0-0.37,0.295-0.493,0.295-0.493s-0.591-0.739-1.182-0.986
		c-0.589-0.246-1.476,0-1.476,0s0,0.247,0,0.616c0-0.493-1.181-1.233-1.476-0.862c-0.296,0.246-0.296,0.986,0.295,1.11
		c0,0.245-0.295,0.492-0.295,0.738c-0.296,0.493,0,0.864,0,0.864s-1.771,1.108-1.477,2.589c0,0.369,0.296,1.109,0,0.986
		c-0.295,0-0.295-0.863-0.295-0.986c-0.592-0.247-0.887-0.617-1.183-0.741c-0.293-0.245-1.18-1.109-1.18-1.848
		c0-0.371,0.591-0.495,0.591-1.11c0-1.109-0.887-1.233-1.183-0.864c-0.295,0,0.592-0.123,0.296,0.248
		c-0.296,0.246,0,0.616-0.296,0.616c-0.295,0.123-0.295-0.616-0.885-0.616c-0.591,0-1.182,0.369-0.887,0.862
		c0,0.123,0.296-0.369,0.296-0.123c0.296,0.123,0.591,0.246,0.591,0.492c0,0.124-0.295,0.247-0.591,0.247
		c-0.591,0-0.886,0.986-0.296,1.604c0.296,0.123-0.295-0.74,0.296-0.617c0.591,0.248,1.181-0.492,1.181,0.493
		c0,0.124-0.59,0.371,0.591,0.986c0.591,0.247-0.591,0.124-0.591,0.371c0,0.123,0.591,0.738,1.182,0.986
		c0.592,0.123,0.296,0.245,0,0.245c-0.295,0,0.592,0.74,1.181,0.864c0.887,0.123,0,0.369,0.887,0.616
		c0.591,0.246,0.591-0.493,0.885-0.493c0,0,0,0.246,0.295,0.493c0,0.493,0.296,0.617-0.295,0.862c-0.294,0.124,0,0.37-1.181,0.37
		c-0.296,0-1.771-0.37-2.658-0.493c-0.295,0-1.476-0.122-1.476-0.617c0-0.245,0-1.231-0.886-1.231c-0.294,0-0.886,0.246-0.886,0.862
		c0,0.369,0.296-0.493,0.592,0.124c0,0.123,0.294,0.123,0.294,0.616c0,0.246-0.59-0.247-0.886-0.247
		c-0.886,0-0.886,0.74-0.886,1.233c0.295,0.493,0.295-0.493,0.591-0.247c0.591,0.247,0.887,0,1.181,0.492
		c0,0.248-0.294,0.124-0.294,0.495c0,0.862,1.18,0.862,1.476,0.862c0.295-0.124-0.887-0.247-0.296-0.493
		c0.296-0.123,0-0.616,0.591-0.616c0.885-0.124-0.295,0.369,0.296,0.616c0.885,0.246,1.181-0.123,1.476-0.123
		c0.296,0.123-0.591,0.369,0,0.492c0.885,0.124,1.181,0.124,1.476-0.123c0.296-0.369,0.296,0.371,0.592,0.371
		c0.591,0.121,1.476-0.248,2.066-0.617c0.296-0.123,0.59,0.246,0.885,0.246c0.296-0.122,0.296-0.246,0.296-0.493
		c0-0.122,0-0.122,0.591-0.739c0.296-0.492,0.296-0.492,0.591-0.863c0.294-0.617,0.294-1.355,0.59-1.603c0.295,0,0.591,0,0.295,0
		c0,0.247,0,0.492,0,0.74c-0.295,0.492-0.295,0.616-0.295,0.74c0,0.122,2.362,0.369,3.248-0.124
		c1.181-0.493,1.181-0.616,2.067-1.356c0.885-0.493,1.476-0.246,3.838-0.493c0.296-0.124,1.181,0.493,1.771,0.985
		c0.592,0.371,1.181,0.988,2.067,0.988c1.771,0,1.18-0.617,2.066-0.495c0.887,0,0.296,1.851-0.887,1.974
		c-0.885,0.124-0.294-0.371-1.18-0.371c-0.592,0-0.887,0-0.887,0.248c-0.294,0.369-0.885,0.123-0.885,0.985
		c0.296,0,0.885,0.248,2.066,0c0,0,0,0.124,0.296,0.248c0.589,0,1.476,0,2.066-0.248c0.296-0.245,0.296-0.492,0.59-0.492
		c0.591,0-0.294,0.492,0.591,0.123c0.591-0.123,0.591-0.616,0.295-1.109c0-0.247-0.295-0.369-0.295-0.617
		c0.295-0.369,0.591,0.37,0.887-0.245c0.295-1.48-0.887-1.48-0.887-1.727c0-0.247,0-0.616-0.296-0.616
		c-0.295,0-1.476,0.616-2.066,0.616h-0.296c-0.885,0-1.18-0.986-2.36-1.357c0.589,0,0.589,0.124,2.656,0.124
		c1.182,0,2.657-0.369,2.657-1.479c0-2.343-3.542-1.727-5.608-1.479c-2.067,0.122-4.134,0.493-5.612,0.493
		c-1.18,0-1.476-0.124-1.476-0.741c0-0.616,1.183-1.109,2.067-0.985c2.362,0,3.249,0.123,4.725,0.123c2.362,0,4.134-0.37,4.725-0.37
		c1.18,0,1.771,0.616,1.771,0.493c0-0.493-2.362-1.604-3.839-1.604c-2.361,0-2.361,0.74-4.429,0.74
		c-0.887,0,0.885-0.493,0.885-0.616c0,0-0.296-0.124-0.885-0.124c-1.478,0-2.066,0.616-2.658,0.616c-1.18,0-3.247,0.494-3.247,1.727
		c0,0.863,0.294,1.479,2.36,1.479c1.183,0,2.658-0.123,3.249-0.245c2.363-0.371,6.792-1.11,6.792,0.492
		c0,0.493-0.591,0.863-1.478,0.863c-2.067,0-2.362-0.124-4.723-0.124c-3.545,0.124-4.726,0.371-5.907,0.371
		c-0.294,0-1.181-0.371-2.656-0.371c-0.296,0-0.296,0.494-0.591,0.494C309.8,452.747,309.8,452.747,309.8,452.624L309.8,452.624z
		 M308.915,476.417L308.915,476.417c0.885-0.492,0.59-0.122,1.181-0.614c-0.887-0.371-0.887-0.248-2.362-0.124
		c-4.134,0.246-3.839-0.124-10.334-0.864c-0.295,0-0.589,0-0.884,0v-41.548h38.384c-0.296,15.658-5.906,28.727-19.193,39.699
		c-4.724,3.822-9.447,3.329-8.856,9.862c6.494,1.11,10.334,1.603,15.648,1.727c1.771,0.124,3.542-0.493,4.725-1.231
		c-0.887,2.465-3.249,3.327-6.2,3.205c-9.45-0.123-24.507-2.713-37.5-9.247v-0.74c0.296-3.822-1.476-6.163-4.134-7.645
		c-1.771-1.109-4.725-1.972-8.563,0.247c-5.905-5.055-11.219-15.288-13.581-26.26c0,0.369-0.591,0.74-0.887,1.109
		c-1.476,1.727-4.427,3.082-6.201,2.713c-0.294-0.74-0.294-2.096-0.294-2.589c-0.886,1.109-4.725,4.808-8.563,3.205
		c2.952,13.561,9.744,26.999,19.782,35.137c-1.18,4.191,0.295,7.275,2.067,9c2.658,2.343,7.381,3.452,10.925,0.371l0.589-0.371
		c10.63,5.301,22.44,8.014,29.527,8.261c7.677,0.123,10.926-3.205,15.06-6.411c4.723-3.453,7.972-6.658,7.972-7.89
		c0.295-0.74,0-1.109,0-1.109c12.99-8.878,23.915-31.562,23.62-51.659c0-2.343,0-4.685-0.296-6.904
		c-0.885-0.74-1.476-1.603-2.066-2.588c-0.59-0.741-0.885-1.727-1.181-2.836h-0.296l-5.904-2.22l-5.021,1.11l-0.296-2.343
		l4.134-1.11l3.249-3.698c-0.887-1.479-1.771-3.082-2.953-4.685c-0.296-0.617-0.296-0.986-0.589-1.479l-5.021,2.22l1.771,4.315
		l-1.771,0.739c0,0-1.181-3.451-2.952-6.411l6.79-2.958c0-0.617-0.295-1.233,0-1.974c0-0.739,0.296-1.479,0.887-1.972
		c0.296-0.369,0.589-0.862,0.885-1.603c0.295-0.493,0.591-0.986,0.887-1.355c-4.43-8.014-10.63-14.796-18.011-19.728
		c2.656-0.617,5.609-2.465,5.609-7.027c0-2.712-1.181-4.438-2.953-5.671l1.182-2.958c-5.904-2.343-16.83-4.193-31.594-4.193
		c-14.763,0-25.391,1.357-31.296,3.698l0.885,3.453c-1.476,1.233-2.952,2.958-2.952,5.671c0,3.945,2.656,6.165,5.314,7.151
		c-11.221,7.397-19.486,18.864-23.916,32.178l0.295,0.124c0.589,0.862,1.476,1.972,2.36,3.082c0-0.739,0-1.479,0.296-2.22
		c0.591-0.986,1.478-1.972,1.478-1.972l2.066,0.741c-0.295,0-0.295,0.122-0.591,0.369c-0.295,0.246-0.886,0.74-0.886,1.233
		c-0.296,0.738-0.296,1.479,0.591,1.725c0.295,0.124,0.591,0,0.886-0.246c0.294-0.124,0.589-0.247,0.589-0.369
		c0.296-0.248,0.296-0.372,0.591-0.617c0.887-0.617,1.771-1.234,3.247-0.741c1.771,0.617,2.362,2.589,1.771,4.192
		c-0.294,0.74-0.589,1.357-0.885,1.727c-0.295,0.369-0.591,0.493-0.886,0.616l-2.067-0.862c0,0,0,0,0.296-0.124
		c0,0,0.295-0.124,0.295-0.371c0.591-0.246,0.887-0.739,1.182-1.355c0.294-0.74,0.294-1.479-0.591-1.726
		c-0.295-0.124-0.591,0-1.182,0.247c0,0.122-0.293,0.246-0.293,0.369c-0.296,0.248-0.591,0.37-0.591,0.617
		c-0.887,0.617-2.067,1.233-3.249,0.739c-0.293,0-0.293-0.122-0.293-0.122c0.589,0.862,1.476,1.727,1.771,2.22
		c2.952,2.958,2.952,6.163,2.952,8.999c0,2.713,4.133,6.288,3.249,10.357c0,0.122,0.294,0.369,0.589,0.986
		c0-1.233-0.295-2.59-0.295-3.823h38.09v41.548c-3.543,0.247-5.316,1.851-5.61,2.713c4.428,1.85,9.743,3.453,15.944,4.808
		c0-2.588,0.591-4.684,2.656-5.547C307.733,476.541,308.324,476.295,308.915,476.417L308.915,476.417z M295.332,362.129
		L295.332,362.129c12.105,0,20.964,1.48,26.573,3.205c1.183,0.371,3.249,1.851,3.249,4.686c0,2.22-0.886,3.699-2.362,4.438
		c0-1.232-1.771-2.589-2.657-2.834c-4.43-1.357-12.401-2.836-24.803-2.836c-12.105,0-20.668,1.603-25.391,2.958
		c-0.591,0.248-1.771,1.357-1.771,2.59c-1.773-0.864-3.249-2.219-3.249-4.315c0-2.959,2.362-4.438,3.542-4.808
		C274.074,363.486,283.522,362.129,295.332,362.129L295.332,362.129z M334.898,431.172L334.898,431.172h-38.384v-46.234
		C319.839,385.677,334.603,409.719,334.898,431.172L334.898,431.172z M294.152,384.938L294.152,384.938v46.234h-38.09
		C256.653,404.54,273.779,385.555,294.152,384.938L294.152,384.938z M252.814,407.376L252.814,407.376
		c-2.658-1.479-3.542-4.684-2.066-7.397c1.476-2.589,4.725-3.575,7.381-2.219c2.658,1.479,3.544,4.685,2.067,7.397
		C258.72,407.746,255.473,408.733,252.814,407.376L252.814,407.376z M265.807,396.157L265.807,396.157l-1.478,1.727l-7.676-6.289
		l1.476-1.849L265.807,396.157L265.807,396.157z M266.987,381.24L266.987,381.24l1.476,1.479l-2.656,2.095l5.314,5.918l-1.771,1.479
		l-5.314-5.917l-2.658,2.467c0,0-1.182-1.234-1.182-1.357C263.74,383.828,266.987,381.24,266.987,381.24L266.987,381.24z
		 M286.18,382.226L286.18,382.226c1.476,0.124,2.362,0,3.247-0.369c0,0,0.296,0.122,0,0.245l-1.18,2.096
		c-3.544,0.124-5.905-0.246-7.678-0.986c-1.476-0.493-2.657-1.603-3.248-3.082c-0.885-2.589,0.591-5.548,3.542-6.534
		c2.658-0.986,5.611,0.493,6.792,3.082C288.247,378.772,287.656,380.868,286.18,382.226L286.18,382.226z M298.581,371.869
		L298.581,371.869h2.066v5.918c0,2.467-1.771,4.191-5.02,4.07c-2.952,0-4.43-1.727-4.43-4.316v-5.795h2.362l-0.295,5.672
		c0,1.603,1.182,2.589,2.658,2.589c1.476,0,2.362-0.863,2.362-2.589L298.581,371.869L298.581,371.869z M305.666,383.335
		L305.666,383.335l-2.362-0.741l2.658-9.616l2.362,0.493L305.666,383.335L305.666,383.335z M321.61,379.637L321.61,379.637
		l2.066,1.355l-0.294,5.301l5.019-1.479l1.771,1.727l-6.79,7.645l-2.066-1.727l4.428-4.685l-4.723,1.11v-0.124v-4.808l-3.839,4.932
		l-2.066-1.357L321.61,379.637L321.61,379.637z M328.106,397.267L328.106,397.267c-0.296,0.124-2.067,0.493-2.067,0.493
		l-1.476-1.972l10.63-2.343l1.476,2.22l-6.2,9.247l-1.181-2.343c0,0,1.181-1.479,1.181-1.603
		C329.584,399.363,328.992,398.5,328.106,397.267L328.106,397.267z M344.641,437.211L344.641,437.211
		c-1.771,0-2.951-1.354-2.951-3.327v-1.603l-3.84,0.122v-2.342l10.04-0.123v4.191C347.89,435.486,347.003,437.211,344.641,437.211
		L344.641,437.211z M338.146,446.089L338.146,446.089l-2.067-0.369c0,0,0.887-3.453,1.182-6.411
		c1.181,0.122,10.335,1.604,10.335,1.604s-0.887,3.82-1.478,6.656l-1.477-0.246l0.592-4.314l-2.067-0.371l-0.887,3.945l-1.771-0.369
		l0.887-3.822l-2.657-0.493L338.146,446.089L338.146,446.089z M331.944,457.802L331.944,457.802l0.887-2.22l8.268-2.22l-6.496-2.341
		l0.591-2.097l9.743,3.206l-1.181,2.834l-7.974,1.974l6.201,2.589l-0.885,1.973L331.944,457.802L331.944,457.802z M335.489,470.87
		L335.489,470.87l-1.773-1.233c0,0,0.296-0.123,0.591-0.247c0.296-0.122,0.887-0.493,1.183-0.985
		c0.589-0.617,0.589-1.356-0.296-1.849c-0.295-0.124-0.591-0.124-0.887,0c-0.295,0.123-0.591,0.245-0.885,0.369
		c0,0.123-0.295,0.247-0.591,0.369c-0.887,0.493-2.067,0.864-3.247,0c-1.478-0.862-1.478-2.834-0.592-4.315
		c0.592-0.614,0.886-1.107,1.477-1.479c0.295-0.246,0.591-0.369,0.591-0.493l1.771,1.233c0,0,0,0-0.296,0.124l-0.295,0.121
		c-0.59,0.248-1.181,0.617-1.477,1.233c-0.295,0.617-0.591,1.357,0,1.727c0.592,0.246,0.887,0.246,1.181,0
		c0.296,0,0.591-0.123,0.591-0.247c0.296-0.122,0.592-0.246,0.887-0.369c0.885-0.493,1.771-0.862,3.247-0.124
		c1.477,1.11,1.477,3.082,0.591,4.438C336.669,470.006,335.489,470.87,335.489,470.87L335.489,470.87z M321.61,474.692
		L321.61,474.692l-1.181-1.109c0,0,2.067-1.851,4.43-4.687c0.591,0.493,7.085,6.782,7.381,6.906
		c-2.362,2.465-4.724,4.561-4.724,4.561l-1.182-1.109l2.953-2.959l-1.771-1.603l-2.657,2.835l-1.183-1.232l2.658-2.712l-1.771-1.851
		L321.61,474.692L321.61,474.692z M253.997,459.773L253.997,459.773c-2.658,0.987-5.611-0.493-6.496-3.205
		c-1.182-2.835,0.296-5.795,2.952-6.781c2.658-0.862,5.61,0.494,6.792,3.206C258.129,455.829,256.653,458.787,253.997,459.773
		L253.997,459.773z M259.606,459.527L259.606,459.527l1.476,2.096l-3.542,2.22l2.362,3.944l3.542-2.342l1.181,1.973l-8.268,5.548
		l-1.476-2.096l3.247-2.096l-2.361-3.945l-3.544,2.096l-1.18-2.22L259.606,459.527L259.606,459.527z M282.046,487.267
		L282.046,487.267c0,1.479,1.18,2.837,2.952,2.837c1.477,0,2.953-1.357,2.953-2.837c0-1.603-1.476-2.957-2.953-2.957
		C283.227,484.31,282.046,485.664,282.046,487.267L282.046,487.267z M298.285,491.952L298.285,491.952
		c0,1.603,1.181,2.835,2.952,2.835c1.478,0,2.953-1.232,2.953-2.835s-1.476-2.835-2.953-2.835
		C299.466,489.117,298.285,490.35,298.285,491.952L298.285,491.952z M272.893,490.597L272.893,490.597
		c-2.363-1.355-3.838-2.096-5.905-3.575c0-0.987,0.591-2.22,1.182-3.576c-0.887-0.617-1.478-1.231-2.067-1.973
		c-0.887-0.616-1.478-1.355-1.773-2.096c-3.247,5.671-1.476,9.247,0,10.727C266.692,492.075,270.236,492.815,272.893,490.597
		L272.893,490.597z M273.483,475.803L273.483,475.803c-0.591-0.495-1.181-0.864-1.771-1.11c-1.182-0.493-2.067-0.987-3.249-1.232
		c5.316-5.426,8.268-4.07,10.334-2.96c2.066,1.109,3.249,2.836,2.953,5.917c-2.066-1.231-2.066-1.355-4.725-2.957
		C276.141,473.336,274.959,474.321,273.483,475.803L273.483,475.803z M273.483,481.473L273.483,481.473
		c-3.248,4.933-9.744-5.425-10.334-7.521C266.987,474.569,276.437,476.91,273.483,481.473L273.483,481.473z M306.849,366.322
		L306.849,366.322c0,0,2.951-0.124,6.2-0.248c3.247-0.123,6.201,0.248,5.905,1.727c-0.296,1.973-3.249,0.863-6.201,0
		C309.8,367.061,306.849,366.322,306.849,366.322L306.849,366.322z M269.645,368.664L269.645,368.664c0,0,2.658-0.986,5.609-2.096
		c2.954-1.109,6.201-1.726,6.496-0.246c0,1.972-2.953,1.972-6.201,2.096C272.597,368.54,269.645,368.664,269.645,368.664
		L269.645,368.664z M288.247,365.705L288.247,365.705c0,0,2.952-0.493,5.905-1.11c3.247-0.74,6.496-0.864,6.496,0.617
		c0,1.973-3.249,1.479-6.496,1.11C291.198,366.074,288.247,365.705,288.247,365.705L288.247,365.705z M299.761,424.637
		L299.761,424.637v-15.289c-0.59-0.246-1.476-0.739-1.771-0.986c0.295,0,1.181-0.739,1.771-0.862v-15.658
		c-1.771,0.369-2.066-1.603-0.295-2.22c-0.589-0.123-1.181-1.479-1.181-2.712c1.181,0.372,2.362,1.11,2.362,1.603
		c0.59-1.355,2.656-0.739,2.363,0.493v0.124c7.085,1.357,14.466,7.028,19.781,14.672c0.591-0.371,1.771-0.247,2.362-0.371
		c-0.591,0.247-0.886,1.48-1.478,1.974c3.545,5.794,6.201,12.574,6.792,19.479c1.771-0.37,2.362,1.603,0.591,2.22
		c0.296,0.123,1.181,1.48,1.476,2.712c-1.771-0.246-2.657-0.986-2.951-1.479c-0.296,1.355-2.362,0.863-2.067-0.369h-12.4
		c0,0.739-0.592,1.479-0.592,1.849c-0.295-0.369-0.886-1.109-1.182-1.849h-10.332c0,1.11-1.479,1.725-2.363,0.369
		c0,0.617-1.477,1.355-2.657,1.355c0.295-1.479,0.887-2.465,1.476-2.588C297.99,426.609,298.877,424.637,299.761,424.637
		L299.761,424.637z M329.584,426.609L329.584,426.609v0.616h-1.478h-27.459v-37.479c13.286,0.617,27.459,17.754,28.937,35.384v0.369
		C329.584,425.87,329.584,426.239,329.584,426.609L329.584,426.609z M328.992,426.363L328.992,426.363h-27.755v-35.877
		C314.229,391.842,328.106,408.979,328.992,426.363L328.992,426.363z M303.304,425.499L303.304,425.499
		c0.591-0.493,0.296-1.231,0.591-1.603c-0.295,0.247-1.18,0-1.771,0.493v-13.561c0.887,0,1.18-0.741,0.591-1.603
		c0.885,0.739,1.771-0.988,2.066-0.988c-0.295,0-0.887-1.107-2.066-0.738c0.589-1.11,0.296-1.727-0.591-1.85v-13.068
		c0.591,0.493,1.476,0.246,1.771,0.493c-0.295-0.371,0-0.864-0.295-1.357c5.905,1.479,11.517,6.042,16.239,12.206
		c-0.589,0.495-0.296,1.356,0.296,1.48c-0.296,0.122-0.885,1.355-0.885,1.727c0.293-0.248,1.476,0.369,1.771-0.124
		c0,0.986,0.589,1.355,1.476,1.11c2.953,4.93,4.725,10.479,5.313,16.273c-0.294-0.493-0.885-0.246-1.476-0.493
		c0.295,0.493,0,1.109,0.591,1.603h-10.038c0-0.738-0.887-1.109-1.771-0.738c0.293-0.371,0-1.357-0.887-2.591
		c-0.887,0.988-0.887,1.851-0.887,2.467c-1.181-0.247-1.771,0-1.771,0.862H303.304L303.304,425.499z M320.726,412.678
		L320.726,412.678c-1.771-0.986-3.249-1.603-3.249-3.575c0.296-0.617,0.887-1.85,0.591-2.836c0-0.617,0-1.11,0.296-0.617
		c0.295,0.986,0.591,2.219,0.591,3.453c0,0.986,0.589,1.849,0.885,1.972c0.591,0.617-0.589-1.355,0.296-0.986
		c0.591,0.248,0.887,1.479,1.182,2.22c0.589,0.246,2.066,1.233,2.066,2.712c0,0.739-0.591,1.355-1.478,1.355
		c-1.18,0-3.247-1.232-4.133-2.219c0.591,0.864,1.771,1.726,2.362,2.59c0.591,0.739,0.887,1.231,1.476,1.231
		c0.295,0,0.591-0.246,0.591-0.493c0-0.124,0-0.37,0.296-0.493c0,0,0.295,0.124,0.295,0.247c0,0.37,0,0.122,0.591,0.246
		c0.886,0.371,1.181,0.74,0.886,1.233c0-0.248-0.296,0.124,0,0.493c0.295,0.617,0.591,0.986,0.295,1.479
		c-0.295,0.617,0-0.369-0.591,0c-0.296,0.248,0.887,0.864-0.296,2.096c-0.294,0.247,0-0.122,0-0.37
		c-0.294-0.369-0.885-0.247-0.589,0.248c0,0.615-0.296,0.738-0.296,0.985c0,0.617,0.885-0.123,0.591,0.37
		c-0.591,0.369-0.886,0.492-1.182,0.247c-0.885-0.495-0.591-1.233-0.591-1.603c-0.294,0.245-0.589,1.107-1.181,1.107
		c-0.591,0-0.591-0.245-1.18-0.122c-0.296,0.246,0.589,0.739,0,0.493c-0.887-0.493-0.592-1.727,0.293-1.727
		c0.887,0,0.592,0.124,0.887,0.124c0.296,0,0-0.247,0-0.247c-0.591,0-0.295-0.739-1.18-0.739c-0.296,0-0.296,0.615-0.296,0.123
		c0-0.739,0.296-1.232,1.181-1.232c1.182,0,0.295,1.232,1.182,1.479c0.294,0.124,0.885-1.357,0.885-1.726
		c0-0.617,0-0.863-0.296-0.863c-0.295-0.124-0.589,0.37-1.18,0.37s-3.249-0.986-3.543-1.727c-0.591-1.231-0.591-1.231-0.887-2.465
		c0-0.247,0-0.74-0.295-0.864c-0.296-0.37-1.477-1.355-2.067-1.479c-0.591,0-0.591,0.248-1.181,0
		c-1.477-0.739-1.771-1.603-2.066-2.096c-0.591,0.37-0.591,0.617-0.887,0.986c0,0.123-0.591,0.371-0.591,0.247
		c0-0.247-0.589-0.247-0.589,0c0,0.246,0,0.617-0.296,0.862c-0.296,0.248-0.296,0.371-0.296,0.248
		c-0.295-0.248-0.295-0.372-0.591-0.248c-0.589,0.248,0.296,0.493-0.295,1.233c-0.294,0.493,0.295,0.74,0.591,0.74
		c-0.296,0.369-1.181,0-1.476-0.371c-0.296-0.494-0.296-1.232-0.592-1.11c0,0.124,0.296,1.11-0.295,1.357
		c-0.885,0.246-0.885,0.617-0.59,0.739c-0.295,0.371-1.182-0.246-1.182-1.11c0-0.986,1.771-1.355,1.478-1.603
		c-0.591,0-0.296-0.246-0.591-0.369c-0.592-0.124-0.592,0.123-0.592,0.369c-0.884,0-0.591-1.848,0.592-1.848
		c0.885,0,0.295,0.985,1.18,1.109c0.296,0.124,0.296-0.247,1.183-0.741c0.589-0.493,1.476-1.479,2.656-2.465
		c0.591-0.74,2.066-1.727,2.362-2.467c-0.296,0.248-1.181,0.617-1.477,1.481c-0.295,0.369-0.886-0.741-0.295-1.603
		c1.181-3.083,3.247-2.467,2.657-3.576c0,0.493-0.886,0.124-1.182,0c-0.295-0.122-0.885-0.246-1.181,0
		c-0.295,0.247-0.591,0.247-0.886,0.124c0-0.369,0-0.493,0-0.74c0-0.246,0.886-0.246,1.182-0.246c0.295,0,0.59,0.124,0.885,0.246
		c0,0,0.296-0.246,0.296-0.37c-0.296-0.493-0.296-0.986-0.591-1.233c-0.295-0.369-0.295,0.124-1.181,0.124
		c0,0-0.591,0.124-0.591-0.617c0-0.37,0-0.493,0-0.739c0.295-0.248,0-0.617,0.295-0.371c0.296,0.124,1.182,0,1.182,0
		c0.295-0.493,0.886-0.369,1.771,0c1.181,0.617,1.477,0.988,2.067,0.988c0.296,0.122,0.296-0.371,0.296-0.124
		c0.589,1.233-0.592,1.11,0,1.479c0.589,0.493,1.476,2.219,1.476,3.082c0,2.836-1.183,3.083-1.183,4.562c0,0.369,0,0.617,0,1.355
		c0,1.357,0.887,1.233,1.183,1.85c0.296,0.738,0.885,0.617,1.771,1.355c0.887,0.616,2.066,1.974,3.542,1.974
		c0.592,0,0.887-0.371,0.887-0.74C322.792,414.28,321.905,413.294,320.726,412.678L320.726,412.678z M305.371,403.678
		L305.371,403.678c-0.59,0.246-0.59,0-0.885,0.124c-0.887,0.123,0.295,0.617-0.296,0.493c-1.18-0.493-0.887-1.974,0.296-1.974
		c0.295,0,0.295,0,0.295,0.124v-0.124c0-0.122,0-0.122,0-0.246c-0.591,0-0.591-0.741-0.887-0.741c-0.295,0-0.295,0.617-0.295,0.248
		c-0.296-0.74,0-1.479,0.887-1.479c0.885,0,0.591,1.355,1.18,1.355c0.296,0-0.295-0.37,0.296-1.11c0-0.124,0-0.37-0.296-0.37
		c0,0-0.295,0.246-0.295,0c0.295-0.493,0.591-0.616,0.887-0.616c0.591,0,0.885,0.493,0.885,1.109s-0.885,0.862-0.59,1.234
		c0.296,0.738,0,0.493,0,0.986c0.59,0.986,1.181,1.972,2.067,2.712c0.295,0.246,0.885,0.862,1.18,0.739
		c-0.591,1.357,0,1.726,0,2.219c-1.18,0-2.362-0.493-2.951-1.355c0-0.248,0.589,0,0.589-0.371c-0.295-0.246-1.18-0.122-1.771-0.986
		c-0.295-0.246,0.592-0.124,0.296-0.493c0-0.124-0.296-0.124-0.885-0.738c-0.296-0.124,0.294-0.124,0.294-0.495
		C305.371,403.801,305.371,403.924,305.371,403.678L305.371,403.678z M315.705,414.897L315.705,414.897c0.296,0,0,0.616,0,0.616
		c0,0.494-1.181,0-1.476,1.356c0,0.247,0.591,0.617,1.476,0.617c0.591,0,0,0.493,0,1.11c0,0.864-0.589,1.479-0.885,1.479
		c0,0.124,0.296-0.246-0.296-0.122c-0.886,0.122-0.295,0.862-2.066,1.109c-0.296-0.248,0.295-0.248,0-0.371
		c-0.591-0.124-0.591,0.371-1.477,0.864c-0.591,0.246-1.477,0.123-1.182,0c0.591-0.123,0-0.987,0-0.493
		c-0.295,0.246-0.295,0.986-1.476,0.986c-0.591,0-0.591-0.493-0.887-0.371c-0.885,0-0.295,0.74-0.589,0.493
		c-0.887-0.862,0.294-1.848,0.885-1.848c0.887,0,0.887,0.246,1.476,0c-0.294,0,0-0.124-0.589-0.124
		c-0.592,0-0.592-0.617-0.887-0.617c-0.591,0-0.296,0.74-0.296,0.371c-0.589-0.741,0-1.481,0.591-1.481
		c1.181,0,0.592,1.11,2.067,1.11c1.181,0,1.181-0.122,1.771-0.493c1.182-0.369,2.066-0.863,1.476-1.232
		c-0.885-0.247-2.361-0.371-2.361-2.097c-0.295-0.862,0.59-1.479,1.771-1.603c0.59,0,1.771,0,2.656,0.247
		C315.409,414.404,315.705,414.649,315.705,414.897L315.705,414.897z M329.584,427.226L329.584,427.226v-0.616V427.226h-1.478
		H329.584L329.584,427.226z M279.093,394.554L279.093,394.554c0,0.124-0.295,0.37-0.589,0.246c-0.295-0.246,0-0.493-0.295-0.863
		c0.295,0.248,0.885,0.37,0.885,0.493C279.388,394.431,279.093,394.554,279.093,394.554L279.093,394.554z M279.979,394.8
		L279.979,394.8L279.979,394.8c0.295,0,0.884,0.247,0.884,0.247c-0.295,0.248-0.295,0.617-0.589,0.37
		C279.979,395.295,279.979,395.047,279.979,394.8L279.979,394.8z M278.208,398.253L278.208,398.253c-0.296-0.493-0.296-2.22,0-2.096
		c0,0.124,0.589,0.247,0.589-0.124c0.295-0.369-0.294-0.493-0.589-0.493c0.295-0.37,0.589-0.246,0.885-0.124
		c0.591,0.124,0.887,0.371,0.591,0.74c0-0.124-0.296-0.37-0.591,0c-0.295,0.369,0.295,0.617,0.591,0.617
		C279.979,396.774,278.797,398.129,278.208,398.253L278.208,398.253z M275.254,401.828L275.254,401.828
		c0.887,0,0.887-0.369,1.182-0.493c0.294-0.122,0.294-0.493,0-0.738c-0.887,0-1.773-0.617-1.182-0.617
		c0.591,0,0.295-0.247-0.295-0.493c-1.476-0.493-0.885-0.617-0.885-0.864c0-0.986-0.591,0.124-1.182-0.122
		c-0.59-0.247,0,0.493-0.296,0.493c-0.589-0.493-0.589-1.48,0-1.603c0,0,0.296-0.247,0.296-0.371c0-0.246-0.296-0.246-0.59-0.369
		c-0.295-0.246-0.295,0.247-0.295,0.247c-0.295-0.493,0-0.988,0.589-1.11c0.591-0.247,0.887,0.493,1.182,0.37
		c0.295-0.124,0-0.493,0-0.617c0-0.493-0.295-0.246-0.295-0.246c0.295-0.495,1.18-0.617,1.476,0.493
		c0.295,0.617-0.589,0.863-0.295,1.232c0,0.617,0.591,0.864,0.886,0.988c0,0.246,0.296,0.862,0.296,0.862c0.295,0,0-0.74,0-1.11
		c-0.296-1.479,1.476-2.589,1.476-2.589s-0.295-0.371,0-0.74c0-0.369,0.295-0.617,0.295-0.739c-0.591-0.248-0.295-0.864-0.295-1.233
		c0.295-0.248,1.476,0.37,1.476,0.863c0-0.37,0-0.617,0-0.617s0.887-0.246,1.478,0c0.589,0.371,1.18,0.987,1.18,0.987
		c0,0.122-0.295,0.246-0.295,0.493c0.295-0.248,1.476,0,1.476,0.369c0,0.37-0.589,0.863-1.18,0.617c0,0.246,0,0.493,0,0.862
		c-0.295,0.371-0.591,0.617-0.591,0.617s0,0.493,0,1.109c0,0.124,0,0.124,0.296,0.124c0.295,0,0.591-0.248,0.887-0.248
		c1.476,0,3.247,0,4.133,0c3.247,0,2.656,0.124,4.429,0.124c0.885,0,1.476-0.74,1.476-1.233c0-1.972-3.249-1.109-6.201-1.109
		c-0.591,0-2.658-0.122-2.658-1.725c0-1.233,1.476-2.467,2.362-2.712c0.591-0.124,0.886-0.988,2.362-0.988
		c0.295,0-0.886,0.988-0.295,0.864c0.295,0,0.591,0,0.886-0.617c1.181-1.355,2.656-1.479,3.543-1.479
		c0.591,0,0.885,0.493,0.885,0.493c-0.885-0.124-1.771,0.493-2.656,1.356c-0.295,0.616-1.771,0.986-4.429,1.356
		c-0.886,0.124-1.771,0.617-1.771,1.603c0,0.862,1.181,1.232,3.248,0.986c2.066-0.124,5.609-0.74,5.609,1.972
		c0,0.986-0.885,1.974-2.067,1.974c-1.18,0-2.067-0.247-2.361-0.247c0.294,0,1.771,1.233,2.067,1.233
		c0.885,0,0.589-0.371,0.885-0.371c0.295,0,0.591,0.495,0.591,0.617c0.885,0.986,0.591,0.864,0.591,1.48
		c0,0.863-0.295-0.247-0.591,0.37c0,0.246,0,0.369,0.295,0.617c0,0.493,0,0.739,0,0.862c-0.591,0.248-0.591-0.493-0.886-0.124
		c0,0.124,0,0.247,0,0.371c-0.591,0.369-1.181,0.246-1.771,0.246c-0.296,0-0.296,0-0.591,0c-0.885,0.247-0.885,0.124-1.181,0.124
		c0-0.247,0-0.617,0.295-1.11c0.295-0.247,0.295-0.369,0.589-0.369c0.887,0,0.296,0.246,1.182,0.122
		c0.885-0.122,0.885-0.986,1.18-1.725c-0.885-0.124-0.589,0.493-2.362,0.493c-0.589,0-0.885-0.247-1.18-0.493
		c-0.295,0.246-0.591,0.493-0.591,0.738c-0.295,0.864,0,0.741,0,1.11c-0.59,0.986-0.59,0-0.885,0.248
		c-0.295,0.246-0.295,0.369-0.591,0.617c-0.295,0.246-0.591,0.369-0.887,0.246c-0.293-0.124-0.293,0.124-1.18,0.124
		c-0.591,0-0.591,0-0.887,0c0-0.493,0-0.74,0.296-1.11c0.295-0.493,0.887-0.369,1.182-0.124c0.296,0.124,0.589,0.124,1.181-0.369
		c0.591-0.741,0-0.493,0-1.479c0-0.617,0.591-0.986,1.182-1.357h-0.295c-1.182,0-1.478,0.864-2.658,1.479
		c-1.771,1.233-2.953,0.617-2.953,0.495c0-0.124,0-0.371,0.295-0.74c0-0.369,0-0.617,0-0.74c0.296-0.122,0-0.122-0.295-0.122
		c-0.294,0.246-0.294,1.108-0.589,1.725c-0.295,0.248-0.295,0.248-0.591,0.741c-0.591,0.617-0.591,0.74-0.591,0.74
		c0,0.369,0,0.369-0.294,0.493c-0.295,0.122-0.591-0.371-0.887-0.248c-0.591,0.493-1.18,0.74-1.476,0.617
		c-0.591,0-0.591-0.617-0.887-0.369c-0.295,0.246-0.591,0.246-1.476,0.122c-0.295,0,0.591-0.37,0-0.493
		c-0.295,0-0.591,0.371-1.476,0.124c-0.295-0.246,0.59-0.617-0.295-0.617c-0.591,0-0.295,0.493-0.591,0.617
		c-0.591,0.248,0.591,0.493,0.295,0.493c-0.295,0.124-1.476,0-1.476-0.739c0-0.495,0.589-0.371,0.294-0.617
		c-0.294-0.371-0.589-0.124-1.18-0.371c-0.295-0.369-0.295,0.617-0.591,0.124c0-0.493,0.295-1.233,0.886-1.233
		s0.885,0.495,0.885,0.371c0.295-0.617-0.294-0.617-0.294-0.74c-0.295-0.493-0.591,0.248-0.591-0.124
		c0-0.615,0.591-0.739,0.885-0.739c0.887,0,0.887,0.862,1.182,1.231c0,0.495,0.885,0.495,1.181,0.617
		C273.483,401.334,274.664,401.706,275.254,401.828L275.254,401.828z M284.702,425.87L284.702,425.87
		c-0.293,0.369-0.293,0-0.589,0.739c0,0.616,0.589,0.493,0.589,0.863c0,0.246,0,0.493-0.293,0.37c-0.296-0.124,0,0.123-0.296,0.492
		c-0.295,0.863-1.182,1.11-1.182,0.986c0-0.245,0.295-0.862,0-0.616c-0.296,0.247-0.296,0.493-0.589,0.74
		c-0.591,0.123-0.887,0.123-1.182,0.123c-0.296,0.122-0.885,0.246-1.476,0.122c0-0.122,0,0-0.887,0
		c-0.589,0-0.885-0.122-1.476-0.122c0.591-1.356,0.591-0.492,1.476-1.356c0-0.246,0.887-0.124,1.182,0.123
		c0,0.124,0.589,0.493,1.18,0c1.476-0.862,1.182-0.862,0.591-1.479c0-0.617,0.885-1.357,1.181-1.479
		c0.591-0.371,0.591-0.247,1.182,0C284.409,425.499,284.702,425.623,284.702,425.87L284.702,425.87z M276.141,426.732
		L276.141,426.732c-1.478,0.74-4.134,0.493-4.429,0.248c0-0.124,0-0.248,0.295-0.741c0-0.247,0-0.616,0.295-0.862
		c0,0-0.295,0-0.591,0c-0.295,0.246-0.295,1.108-0.591,1.726c-0.296,0.37-0.296,0.37-0.591,0.863
		c-0.589,0.739-0.589,0.739-0.589,0.862c-0.296,0.248,0,0.248-0.591,0.37c-0.295,0.123-0.295-0.246-0.591-0.122
		c-0.885,0.492-1.771,0.614-2.067,0.614c-0.589,0-0.589-0.738-0.885-0.492c-0.296,0.37-0.591,0.37-1.478,0.247
		c-0.589-0.124,0.296-0.493,0-0.617c-0.589,0-0.885,0.493-1.476,0.124c-0.591-0.124,0.295-0.617-0.591-0.617
		c-0.589,0-0.294,0.617-0.589,0.741c-0.296,0.122,0.589,0.369,0.295,0.492c-0.295,0-1.478,0-1.478-0.863
		c0-0.493,0.591-0.37,0.295-0.617c-0.591-0.493-0.885-0.122-1.18-0.493c-0.296-0.245-0.296,0.74-0.591,0.248
		c0-0.493,0-1.357,0.886-1.357c0.294,0,0.885,0.495,0.885,0.371c0.295-0.617-0.591-0.617-0.591-0.74
		c0-0.493-0.294,0.369-0.294-0.124c0-0.615,0.589-0.862,0.885-0.862c0.887,0,0.887,0.986,0.887,1.355
		c0,0.495,1.18,0.617,1.771,0.617c0.885,0.123,2.363,0.492,2.658,0.492c1.18,0,0.885-0.245,1.18-0.369
		c0.591-0.245,0.295-0.493,0.295-0.986c-0.295-0.247-0.295-0.493-0.295-0.493c-0.295,0.124-0.295,0.863-0.886,0.617
		c-1.181-0.371,0.295-0.493-0.885-0.74c-0.591-0.124-1.771-0.862-1.182-0.862c0.296,0,0.591-0.248,0-0.371
		c-0.885-0.246-1.18-0.739-1.18-1.109c0-0.122,0.887,0,0.295-0.246c-1.182-0.617-0.591-0.986-0.591-0.986
		c0.295-1.109-0.591-0.371-1.18-0.616c-0.591-0.124,0,0.738-0.296,0.616c-0.591-0.616-0.295-1.726,0.296-1.603
		c0.295,0,0.589-0.124,0.589-0.371c0-0.246-0.294-0.246-0.589-0.493c0-0.246-0.296,0.247-0.296,0.247
		c0-0.493,0.296-0.986,0.885-0.986c0.886,0,0.591,0.739,0.886,0.739c0.591-0.122,0.295-0.493,0.295-0.739
		c0.295-0.371-0.295-0.247-0.295-0.371c0.591-0.246,1.476-0.122,1.476,0.988c0,0.615-0.885,0.739-0.885,1.231
		c0,0.864,1.181,1.603,1.476,1.85c0.295,0.246,0.295,0.617,1.181,0.986c0.295,0,0.295,0.985,0.591,0.985c0,0-0.295-0.74-0.295-1.109
		c-0.295-1.603,1.771-2.712,1.771-2.712s-0.293-0.493-0.293-0.862c0.293-0.369,0.293-0.617,0.589-0.74
		c-0.589-0.246-0.589-0.986-0.296-1.355c0.296-0.247,1.478,0.369,1.478,0.863c0-0.246,0-0.617,0-0.617s0.884-0.246,1.476,0.124
		c0.886,0.248,1.18,0.986,1.18,0.986c0.296,0.124,0,0.247-0.294,0.493c0.294-0.37,1.771,0,1.771,0.371
		c0,0.369-0.591,0.986-1.182,0.738c0,0.248,0,0.493-0.296,0.864c0,0.493-0.589,0.615-0.589,0.615s0.295,0.617,0,1.233
		c0,0.124,0.295,0.124,0.295,0.124c0.294,0,0.294-0.493,0.59-0.493c1.771,0,3.838,0.369,4.429,0.369
		c1.476,0,3.248-0.245,7.087-0.369c2.066,0,2.656,0.124,5.018,0.124c0.887,0,1.476-0.371,1.476-0.988
		c0-1.231-4.133-0.493-7.381-0.369c-0.591,0-4.429,0.247-5.905,0.247c-1.771,0-2.362-0.864-2.362-1.726
		c0-2.096,4.725-1.85,5.905-1.726c0.295,0,2.067-0.246,3.838-0.246c0.295,0,0.886,0.122,0.886,0.122c0,0.124-1.771,0.74-0.886,0.74
		c2.067,0,1.771-0.74,4.134-0.74c1.477,0,3.249,0.617,3.249,0.988c0,0-0.295-0.248-1.182-0.248c-0.885,0-1.771,0.862-4.429,0.862
		c-2.952,0-3.543-0.739-5.906-0.739c-1.18,0-4.723-0.124-4.723,0.986c0,0.617,0.295,0.986,1.476,0.986
		c1.771,0,3.247-0.124,5.905-0.246c2.953,0,8.563-1.233,8.563,1.232c0,1.109-1.476,1.603-2.953,1.603
		c-2.362,0-2.067-0.246-2.657-0.124c1.476,0.248,1.771,1.357,2.361,1.357h0.296c0.886,0,2.066-0.74,2.362-0.74
		c0.295,0,0.295,0.493,0.295,0.74s1.181,0.247,0.887,1.851c-0.295,0.614-0.591-0.248-0.887,0.245c0,0.124,0.296,0.369,0.296,0.74
		c0,0.369,0.295,0.986-0.296,1.11c-0.886,0.369,0-0.124-0.591-0.124c-0.589,0-0.589,0.246-0.885,0.493
		c-0.591,0.245-1.478,0.245-2.067,0.123c-0.295,0,0-0.123-0.295,0c-1.182,0.122-1.771,0-2.067,0c0-0.985,0.591-0.74,0.885-1.233
		c0-0.123,0.295-0.247,0.886-0.247c0.886,0,0.591,0.617,1.18,0.495c1.478-0.124,2.067-2.098,1.182-2.098
		c-0.886-0.122-0.295,0.495-2.362,0.495c-0.886,0-1.476-0.617-2.067-1.11s-1.476-1.109-1.771-1.109
		C278.503,424.761,278.208,425.499,276.141,426.732L276.141,426.732z M269.054,423.896L269.054,423.896
		c-0.295-0.616-0.295-2.465,0-2.219c0.295,0.124,0.887,0.371,0.887-0.123c0.295-0.371-0.296-0.493-0.591-0.493
		c0-0.371,0.591-0.248,0.886-0.124c0.589,0.124,0.885,0.37,0.589,0.739c0-0.123-0.589-0.369-0.589-0.123
		c-0.295,0.493,0.294,0.739,0.589,0.739C271.121,422.294,269.941,423.772,269.054,423.896L269.054,423.896z M271.121,420.322
		L271.121,420.322c0-0.124,0-0.124,0-0.124c0.295,0,0.886,0.247,1.182,0.369c-0.591,0.124-0.295,0.495-0.886,0.371
		C271.121,420.814,271.121,420.567,271.121,420.322L271.121,420.322z M270.236,419.953L270.236,419.953
		c0,0.246-0.295,0.369-0.591,0.246c-0.591-0.124-0.295-0.37-0.295-0.863c0.295,0.246,0.591,0.37,0.886,0.493
		C270.236,419.953,270.236,419.953,270.236,419.953L270.236,419.953z M285.293,412.678L285.293,412.678
		c-0.295,0.369-0.295,0-0.591,0.74c0,0.617,0.591,0.493,0.591,0.739c0,0.371,0,0.493-0.295,0.371c-0.296-0.124,0,0.122-0.296,0.493
		c-0.293,0.739-1.18,1.11-1.18,0.986c0.296-0.248,0.296-0.863,0-0.617c-0.295,0.248-0.295,0.493-0.591,0.617
		c-0.296,0.124-0.589,0.124-1.181,0.247c-0.295,0-0.591,0.122-0.887,0c-0.295-0.124-0.295,0.122-1.18,0
		c-0.591,0-0.887,0-1.181-0.124c0.294-1.233,0.589-0.371,0.885-1.233c0.296-0.248,1.181-0.124,1.476,0.124
		c0,0.124,0.296,0.369,0.887,0c1.476-0.864,1.181-0.741,0.885-1.479c-0.293-0.371,0.591-1.11,0.887-1.357
		c0.591-0.245,0.591-0.245,1.18,0.124C284.998,412.432,285.293,412.432,285.293,412.678L285.293,412.678z M272.597,410.829
		L272.597,410.829c-0.294-0.493-0.294-2.22,0-2.096c0.296,0.122,0.591,0.369,0.887-0.124c0-0.371-0.591-0.493-0.591-0.493
		c0-0.248,0.591-0.248,0.886,0c0.295,0.122,0.591,0.246,0.591,0.617c0-0.124-0.591-0.371-0.591,0
		c-0.295,0.369,0.295,0.615,0.295,0.615C274.37,409.348,273.188,410.705,272.597,410.829L272.597,410.829z M274.37,407.376
		L274.37,407.376c0,0,0,0,0.294,0c0,0,0.591,0.248,0.886,0.248c-0.295,0.246-0.295,0.615-0.886,0.369
		C274.37,407.869,274.37,407.624,274.37,407.376L274.37,407.376z M273.779,407.131L273.779,407.131
		c-0.295,0.245-0.295,0.369-0.591,0.245c-0.591-0.124-0.295-0.493-0.295-0.862c0,0.246,0.591,0.37,0.886,0.493
		C273.779,407.131,273.779,407.131,273.779,407.131L273.779,407.131z M275.55,410.458L275.55,410.458c0,0,0,0,0.296,0
		c0,0,0-0.493,0.295-0.37c1.771,0,2.362,0.37,2.656,0.37c1.182,0,2.658-0.246,6.201-0.37c2.067-0.123,2.658,0,4.725,0
		c0.591,0,1.476-0.247,1.476-0.862c0-1.48-4.429-0.741-6.79-0.493c-0.887,0.122-2.362,0.246-3.545,0.246
		c-1.771,0-2.066-0.617-2.066-1.479c0-1.233,2.066-1.727,2.953-1.727c0.591,0,1.476-0.493,2.952-0.493c0.296,0,0.591,0,0.591,0.124
		c0,0-1.476,0.616-0.591,0.616c1.773,0,2.067-0.74,4.134-0.74c1.773,0,4.134,1.11,4.134,1.479c0,0.124-0.885-0.369-1.771-0.369
		c-0.589,0-2.656,0.369-4.723,0.369c-1.773,0-2.657-0.124-5.02-0.246c-0.886,0-2.067,0.37-2.067,0.986s0.296,0.862,1.476,0.862
		c1.771,0,3.838-0.37,5.611-0.493c2.067-0.246,5.61-0.862,5.61,1.479c0,1.11-1.476,1.481-2.658,1.481
		c-2.066,0-1.771-0.248-2.657-0.124c1.477,0.246,1.772,1.234,2.657,1.234c0.887,0,1.771-0.617,2.067-0.617
		c0.295,0,0.295,0.493,0.295,0.617c0,0.369,1.181,0.245,0.887,1.848c0,0.617-0.591-0.246-0.591,0.248c-0.296,0.122,0,0.245,0,0.615
		c0.295,0.371,0.295,0.864-0.296,1.11c-0.591,0.248,0-0.246-0.295-0.246c-0.591,0-0.591,0.37-0.885,0.617
		c-0.591,0.246-1.182,0.124-2.067,0.124c0,0,0-0.124-0.295-0.124c-1.182,0.124-1.771,0-1.771,0c0-0.864,0.294-0.617,0.59-1.11
		c0-0.124,0.591-0.247,0.886-0.247c0.885,0,0.591,0.616,1.476,0.493c0.887-0.246,1.771-1.972,0.887-2.096
		c-0.887,0-0.295,0.617-2.362,0.617c-0.886,0-1.476-0.617-1.771-1.109c-0.886-0.37-1.478-0.986-1.771-0.986
		c-2.362,0.248-3.249,0-3.84,0.493c-1.181,0.741-1.181,0.862-2.065,1.357c-0.887,0.493-3.249,0.369-3.544,0.246
		c0.295-0.246,0.295-0.369,0.295-0.741c0.295-0.246,0-0.615,0.295-0.738c0-0.124-0.295-0.124-0.295,0
		c-0.591,0.124-0.591,0.986-0.885,1.603c-0.295,0.246-0.295,0.246-0.591,0.739c-0.295,0.74-0.591,0.74-0.591,0.864
		c0,0.246,0.295,0.246-0.295,0.37c-0.296,0.124-0.296-0.37-0.59-0.124c-0.886,0.371-1.773,0.617-2.067,0.495
		c-0.295,0-0.295-0.617-0.886-0.371c-0.295,0.371-0.591,0.248-1.476,0.124c-0.295,0,0.589-0.37,0-0.494
		c-0.295,0-0.591,0.37-1.182,0.124c-0.589-0.124,0.295-0.617-0.589-0.617c-0.591,0,0,0.617-0.591,0.739
		c-0.295,0.124,0.591,0.371,0.296,0.371c-0.296,0.124-1.478,0.124-1.182-0.741c0-0.493,0.295-0.369,0-0.616
		c-0.296-0.37-0.589-0.124-0.885-0.37c-0.591-0.369-0.591,0.617-0.591,0.124c-0.295-0.371,0-1.233,0.591-1.233
		c0.589,0,1.181,0.493,1.181,0.248c0-0.495-0.591-0.371-0.591-0.617c0-0.493-0.589,0.246-0.589-0.124
		c0.296-0.617,0.589-0.74,0.885-0.74c0.886,0,1.182,0.985,1.182,1.233c0,0.493,0.885,0.493,1.476,0.617
		c0.591,0.124,2.067,0.369,2.658,0.369c0.884,0,0.589-0.245,1.18-0.369c0.295-0.124,0-0.369,0-0.74
		c-0.296-0.37-0.296-0.617-0.296-0.493c0,0,0,0.616-0.589,0.493c-1.182-0.37,0-0.493-0.886-0.617
		c-0.591-0.122-1.771-0.862-1.18-0.862c0.293,0,0.293-0.247,0-0.369c-0.887-0.248-1.182-0.741-1.182-0.986
		c0-0.248,0.886-0.124,0.295-0.371c-1.18-0.494-0.591-0.863-0.591-0.986c0.295-0.862-0.589-0.124-1.181-0.37
		c-0.295-0.247,0,0.617-0.295,0.493c-0.591-0.617,0-1.603,0.591-1.603c0,0.124,0.295,0,0.295-0.248c0-0.246-0.295-0.246-0.295-0.493
		c-0.296-0.246-0.591,0.248-0.591,0.124c0-0.37,0.295-0.863,0.887-0.863c0.885,0,0.589,0.739,0.885,0.739
		c0.591-0.124,0.295-0.493,0.295-0.616c0.295-0.37-0.295-0.37-0.295-0.37c0.295-0.369,1.476-0.124,1.476,0.862
		c0,0.617-0.885,0.74-0.885,1.233c0,0.74,1.181,1.479,1.476,1.727c0,0.124,0.295,0.617,0.887,0.862c0.295,0,0.295,0.864,0.589,0.986
		c0.295,0,0-0.739,0-1.108c-0.294-1.357,1.478-2.467,1.478-2.467s-0.295-0.493-0.295-0.986c0.295-0.248,0.295-0.37,0.591-0.617
		c-0.591-0.124-0.591-0.862-0.295-1.233c0.295-0.246,1.181,0.371,1.181,0.864c0.295-0.371,0-0.617,0.295-0.617
		c0,0,0.591-0.247,1.476,0c0.591,0.37,1.182,0.986,1.182,0.986c0,0.124-0.295,0.247-0.295,0.493c0.295-0.246,1.476,0,1.476,0.372
		c0,0.369-0.591,0.986-1.18,0.615c0,0.247,0,0.492,0,0.863c-0.295,0.37-0.887,0.493-0.887,0.493S275.55,409.719,275.55,410.458
		L275.55,410.458z M253.997,405.28L253.997,405.28c-1.477-0.862-2.362-2.588-1.477-4.315c1.182-1.727,2.953-1.972,4.429-1.11
		c1.476,0.862,2.362,2.589,1.476,4.315C257.54,405.897,255.473,406.143,253.997,405.28L253.997,405.28z M279.684,379.389
		L279.684,379.389c-0.591-1.603,0-3.329,1.771-4.068c1.771-0.616,3.247,0.493,3.838,2.096c0.591,1.603,0.295,3.698-1.771,4.315
		C281.75,382.349,279.979,380.992,279.684,379.389L279.684,379.389z M331.65,399.363L331.65,399.363c0,0-0.591-1.11-1.772-2.465
		l4.429-1.233L331.65,399.363L331.65,399.363z M343.756,433.513L343.756,433.513v-1.231h2.361v1.231c0,0.617-0.294,1.48-1.181,1.48
		C343.756,434.993,343.756,434.377,343.756,433.513L343.756,433.513z M253.11,457.556L253.11,457.556
		c-1.476,0.615-3.248,0.122-3.838-1.727c-0.591-1.727,0.295-3.329,1.771-3.822c1.771-0.616,3.542-0.124,4.429,1.604
		C256.062,455.458,254.882,457.061,253.11,457.556L253.11,457.556z M303.895,309.855L303.895,309.855h-6.496c0,0,0-1.974,0-6.904
		C299.171,303.073,303.6,305.664,303.895,309.855L303.895,309.855z M316.001,326.623L316.001,326.623
		c0.295,1.603,3.542,6.287,2.953,9.862c-0.591,2.96-3.249,4.809-4.725,8.137c0,0.248-0.296,0.124-0.296-0.124
		c-0.295-3.329-3.247-5.917-2.952-9S314.82,328.471,316.001,326.623L316.001,326.623z M300.943,319.102L300.943,319.102
		c0-1.48,1.181-2.59,2.656-2.59c1.182,0,2.658,1.11,2.658,2.59c0,1.479-1.477,2.589-2.658,2.589
		C302.124,321.691,300.943,320.581,300.943,319.102L300.943,319.102z M306.849,316.143L306.849,316.143
		c0-1.355,1.476-2.589,2.951-2.589c1.477,0,2.658,1.233,2.658,2.589c0,1.479-1.182,2.712-2.658,2.712
		C308.324,318.855,306.849,317.622,306.849,316.143L306.849,316.143z M313.639,314.17L313.639,314.17
		c0-1.481,1.182-2.712,2.657-2.712c1.477,0,2.658,1.231,2.658,2.712c0,1.479-1.182,2.712-2.658,2.712
		C314.82,316.883,313.639,315.649,313.639,314.17L313.639,314.17z M320.43,313.677L320.43,313.677c0-1.481,1.181-2.59,2.658-2.59
		c1.476,0,2.656,1.109,2.656,2.59c0,1.479-1.181,2.712-2.656,2.712C321.61,316.39,320.43,315.156,320.43,313.677L320.43,313.677z
		 M327.222,315.897L327.222,315.897c0-1.481,0.885-2.712,2.656-2.712c1.478,0,2.657,1.231,2.657,2.712
		c0,1.355-1.18,2.588-2.657,2.588C328.106,318.485,327.222,317.252,327.222,315.897L327.222,315.897z M332.24,320.581
		L332.24,320.581c0,1.479,1.182,2.712,2.658,2.712c1.476,0,2.657-1.233,2.657-2.712c0-1.356-1.182-2.588-2.657-2.588
		C333.422,317.993,332.24,319.225,332.24,320.581L332.24,320.581z M335.193,326.745L335.193,326.745
		c0-1.479,1.181-2.712,2.656-2.712c1.478,0,2.657,1.233,2.657,2.712c0,1.48-1.18,2.588-2.657,2.588
		C336.374,329.333,335.193,328.226,335.193,326.745L335.193,326.745z M335.782,333.526L335.782,333.526
		c0-1.48,1.183-2.712,2.658-2.712s2.658,1.232,2.658,2.712c0,1.479-1.183,2.589-2.658,2.589S335.782,335.006,335.782,333.526
		L335.782,333.526z M290.609,302.58L290.609,302.58c2.067-1.725,3.248-3.575,3.543-5.547c-2.658,0.617-5.61,2.958-5.905,3.944
		v-9.493c0.295,1.726,3.248,3.329,5.905,3.822c0-2.219-1.182-4.438-3.543-6.78h9.448c-2.066,2.342-3.247,4.561-3.542,6.78
		c2.656-0.493,5.609-2.096,5.904-3.822v9.493c-0.295-0.986-3.248-3.328-5.904-3.944c0.295,1.972,1.476,3.822,3.542,5.547H290.609
		L290.609,302.58z M334.307,339.938L334.307,339.938c0-1.356,1.476-2.588,2.658-2.588c1.476,0,2.951,1.232,2.951,2.588
		c0,1.479-1.476,2.713-2.951,2.713C335.782,342.65,334.307,341.417,334.307,339.938L334.307,339.938z M284.702,319.102
		L284.702,319.102c0-1.48,1.182-2.59,2.658-2.59c1.476,0,2.658,1.11,2.658,2.59c0,1.479-1.182,2.589-2.658,2.589
		C285.884,321.691,284.702,320.581,284.702,319.102L284.702,319.102z M278.503,316.143L278.503,316.143
		c0-1.355,1.181-2.589,2.656-2.589s2.658,1.233,2.658,2.589c0,1.479-1.183,2.712-2.658,2.712S278.503,317.622,278.503,316.143
		L278.503,316.143z M272.007,314.17L272.007,314.17c0-1.481,1.181-2.712,2.656-2.712c1.478,0,2.658,1.231,2.658,2.712
		c0,1.479-1.18,2.712-2.658,2.712C273.188,316.883,272.007,315.649,272.007,314.17L272.007,314.17z M264.92,313.677L264.92,313.677
		c0-1.481,1.182-2.59,2.658-2.59c1.476,0,2.658,1.109,2.658,2.59c0,1.479-1.182,2.712-2.658,2.712
		C266.103,316.39,264.92,315.156,264.92,313.677L264.92,313.677z M258.424,315.897L258.424,315.897c0-1.481,1.182-2.712,2.658-2.712
		c1.476,0,2.658,1.231,2.658,2.712c0,1.355-1.182,2.588-2.658,2.588C259.606,318.485,258.424,317.252,258.424,315.897
		L258.424,315.897z M253.11,320.581L253.11,320.581c0,1.479,1.18,2.712,2.658,2.712c1.476,0,2.656-1.233,2.656-2.712
		c0-1.356-1.18-2.588-2.656-2.588C254.291,317.993,253.11,319.225,253.11,320.581L253.11,320.581z M250.452,326.745L250.452,326.745
		c0-1.479,0.887-2.712,2.362-2.712c1.771,0,2.954,1.233,2.954,2.712c0,1.48-1.182,2.588-2.954,2.588
		C251.339,329.333,250.452,328.226,250.452,326.745L250.452,326.745z M249.567,333.526L249.567,333.526
		c0-1.48,1.181-2.712,2.656-2.712c1.478,0,2.658,1.232,2.658,2.712c0,1.479-1.181,2.589-2.658,2.589
		C250.748,336.116,249.567,335.006,249.567,333.526L249.567,333.526z M251.043,339.938L251.043,339.938
		c0-1.356,1.18-2.588,2.658-2.588c1.476,0,2.656,1.232,2.656,2.588c0,1.479-1.181,2.713-2.656,2.713
		C252.224,342.65,251.043,341.417,251.043,339.938L251.043,339.938z M274.959,325.759L274.959,325.759
		c0.591,1.603,4.725,5.672,4.725,9.124c0,3.082-2.067,5.425-2.658,8.877c-0.295,0.246-0.589,0.246-0.589,0
		c-0.887-3.205-4.134-5.179-4.429-8.261C271.712,332.293,274.37,327.854,274.959,325.759L274.959,325.759z M303.6,313.43
		L303.6,313.43H287.36c0.886,3.329,4.134,5.794,7.972,5.794C299.171,319.225,302.419,316.759,303.6,313.43L303.6,313.43z
		 M287.065,309.855L287.065,309.855c0.295-4.192,4.724-6.782,6.496-6.904c0,4.93,0,6.904,0,6.904H287.065L287.065,309.855z
		 M295.332,519.816L295.332,519.816c1.183,0,1.478,0.615,1.478,1.355c0,1.479-0.887,1.233-0.887,2.713
		c0,1.233,0.887,2.219,2.067,2.219c5.904,0,2.657-8.754,6.496-8.754c2.066,0,1.771,1.233,2.656,1.973
		c-0.294-0.615,0.886-1.604,0.886-4.068c0-2.22-1.476-3.698-3.838-3.698c-5.02,0-2.953,6.041-5.609,6.041
		c-1.182,0-1.478-0.616-1.478-1.85c0-1.972,2.953-2.836,2.953-5.425c0-4.068-4.725-6.042-4.725-8.138
		c0,2.096-4.723,4.069-4.723,8.138c0,2.589,3.248,3.945,3.248,5.425c0,1.233-0.591,1.85-1.771,1.85c-2.658,0-0.591-6.041-5.61-6.041
		c-2.066,0-3.84,1.479-3.84,3.698c0,2.465,1.183,3.453,0.887,4.068c0.887-0.739,0.591-1.973,2.362-1.973
		c3.838,0,1.181,8.754,6.792,8.754c1.181-0.123,2.067-0.985,2.067-2.219c0-1.479-0.886-1.233-0.886-2.713
		C293.856,520.432,294.152,519.816,295.332,519.816L295.332,519.816z M291.494,529.555L291.494,529.555
		c0,2.22,1.771,3.577,3.838,3.577s3.839-1.481,3.839-3.577c0-0.369,0-0.738,0-0.862c0-0.247,0.295-0.369,0.59-0.369
		c5.021-0.986,2.954-8.507,5.316-8.507c1.181,0,0.589,2.096,4.132,2.096c-1.476-1.727,0.887-2.22,0.887-6.289
		c0-3.081-1.771-6.78-5.905-6.163v-7.891H303.6c-4.429,0-10.924-1.109-17.125-3.083v11.098c-4.133-0.617-5.906,2.958-5.906,6.039
		c0,4.069,2.362,4.562,0.886,6.289c3.543,0,2.954-2.096,4.134-2.096c2.362,0,0.295,7.767,5.609,8.507c0,0,0.296,0.246,0.296,0.617
		C291.494,529.186,291.494,529.186,291.494,529.555L291.494,529.555z M295.332,526.966L295.332,526.966
		c-1.18,0-2.067,1.11-2.067,2.22c0,1.233,0.887,2.096,2.067,2.096c1.183,0,2.067-0.986,2.067-2.096
		C297.399,527.83,296.81,526.966,295.332,526.966L295.332,526.966z M279.979,440.295L279.979,440.295l5.314,7.273l-0.295,1.726
		l-6.201-8.506C279.093,440.664,279.388,440.417,279.979,440.295L279.979,440.295z M276.73,441.404L276.73,441.404l7.972,10.603
		l-0.293,1.604l-8.859-11.836C276.141,441.65,276.437,441.527,276.73,441.404L276.73,441.404z M273.483,442.267L273.483,442.267
		l10.629,14.056l-0.295,1.603l-11.515-15.534C272.597,442.391,273.188,442.391,273.483,442.267L273.483,442.267z M269.941,442.515
		L269.941,442.515l13.286,18.122l-0.295,1.728l-14.468-19.604v-0.245C269.054,442.515,269.35,442.515,269.941,442.515
		L269.941,442.515z M268.169,442.391L268.169,442.391c-1.182,9.986,3.838,18.616,14.466,23.301l0.296-0.986
		c1.771,0.247,4.134,0.617,7.382,0.986l-0.295,1.356c0,0-1.476-0.247-1.476,1.233c0,2.097-1.477,3.699-3.84,3.699
		c-1.476,0-2.952-1.11-2.952-2.837c0-0.247,0-0.616,0-0.862c-11.81-4.438-18.897-15.165-17.715-26.507
		C265.216,442.02,266.692,442.267,268.169,442.391L268.169,442.391z M282.635,466.679L282.635,466.679
		c0.296-0.371,0.591-0.494,1.773-0.494c1.18,0,2.361,1.109,2.066,2.467c0,0.985-0.886,1.849-2.066,1.603
		c-0.591-0.124-0.887-0.617-0.887-0.986c0-0.74,0.591-0.863,0.887-0.74c0.293,0.124,0.885,0,0.885-0.493
		c0-0.369-0.591-1.109-1.771-1.109c-0.591,0-0.887,0.123-1.18,0.493C282.342,467.172,282.635,466.925,282.635,466.679
		L282.635,466.679z M285.293,440.664L285.293,440.664c0-0.862,0.886-1.479,1.771-1.479l3.544,0.245
		c0.885,0.124,1.771,0.864,1.476,1.727v0.124c0,0.985-0.591,1.479-1.771,1.479l-3.544-0.245c-0.885-0.124-1.771-0.74-1.476-1.727
		V440.664L285.293,440.664z M261.082,437.211L261.082,437.211c0-0.861,0.591-1.479,1.476-1.479c0.886,0,1.478,0.493,1.478,1.357
		c0.293-0.493,0.589-0.986,0.589-1.481c0,0,3.838,2.344,7.678,2.344c8.561,0,9.448-3.082,13.877-3.082
		c2.656,0,3.838,1.727,4.134,4.067l-2.658-0.245c0-1.481-0.591-1.851-1.476-1.851c-1.771,0-8.858,4.933-15.65,4.933
		c-5.019,0-7.972-1.357-7.972-1.357c0.295-0.615,0.591-1.231,0.886-1.972c-0.295,0.247-0.591,0.247-0.886,0.247
		C261.673,438.692,261.082,438.075,261.082,437.211L261.082,437.211z M290.018,443.253L290.018,443.253l-0.591,21.452l-5.905-0.738
		l3.248-20.838L290.018,443.253L290.018,443.253z M366.785,391.225L366.785,391.225c-1.476,0.37-2.656,0.37-6.2,1.11
		c-2.067,0.247-2.952,0.617-4.134,0.74c0,0.862-0.294,1.603-0.885,2.22c4.43-1.11,9.743-2.22,20.668-2.713
		c0.296,0,0-0.617-0.295-0.617c-3.543-0.123,0.591-5.179,5.313-7.891c-4.723,0.124-7.676,3.452-9.151,5.548
		c-1.183,1.851-0.591,0.987-4.134,1.603C367.672,391.225,367.376,391.225,366.785,391.225c0-3.205,1.771-8.383,7.088-14.548
		c0-0.493-0.887-0.124-0.592-1.355c0-0.371,0.296-0.74,0.296-1.109c-0.296,0.246-0.887,0.369-1.181,0.493
		c-1.478,0.493-3.544,0.369-5.021-0.863l-0.295,0.122c1.182,1.974-0.296,4.193-1.477,5.179c-1.476,1.11-3.837,1.849-5.608,0.617
		l-0.296,0.122c1.181,1.48,0.885,3.453,0.296,4.808C362.651,386.91,365.014,389.129,366.785,391.225L366.785,391.225z
		 M349.365,388.389L349.365,388.389c-0.591,0.988-0.886,2.098-0.886,3.084c-0.296,1.849,0.591,4.068,2.657,4.932
		c-1.18,0.246-2.066,0.37-3.247,0.615c-3.249,0.617-3.544-1.972-6.2,2.096c-1.773,3.206-2.658,2.712,0.294,7.275
		c2.066,3.451,3.544,6.656,5.02,9c3.248,5.794,2.954,9.123,7.677,10.603c2.066,0.617,7.088,3.453,10.039,5.18
		c0.295-1.727,0-2.837-0.296-3.577c-1.476-0.738-3.838-1.231-5.019-2.096c-0.591-0.493,0.592-0.616,1.181-0.493
		c2.953,0.617,4.725,1.233,6.791,2.22c-1.771-4.191-2.362-4.932-4.725-7.273c-1.476-1.481-5.313-1.233-5.905-0.493
		c0,0.862,0,1.725-1.18,1.355c-0.887-0.124-2.066-1.603,0.591-3.205c0-0.124,0-2.836-4.134-3.453c-2.953-3.082-5.021-9-5.315-9.617
		c-0.591-0.616,0.887-0.616,0.887-1.603c-0.296-0.739,2.951-0.122,3.838,0l2.658,0.371c0.294,0.493,0.589,1.11,0.885,1.725
		c-2.067,1.85-1.181,4.686,0.295,6.166c1.181,1.479,3.839,2.588,5.905,1.233c0.296,0.246,0.592,0.369,0.887,0.615
		c-1.182,2.591,0.885,4.932,2.951,5.673c2.067,0.74,5.021,0.493,6.201-1.972c0.296-0.247,0.296-0.371,0.296-0.617h0.295
		c2.362,3.082,5.314,4.808,9.743,5.547c4.134,0.74,8.562,4.932,10.63,6.658c1.476,1.233,1.771,2.466,0.591,2.959
		c-1.772,0.74,1.181,4.192,2.656,7.274c0.591,0.74,0.591-0.123,0.591-0.616c0-5.302-0.295-13.439-2.362-16.644
		c-0.295-0.494-0.295-1.11,0.296-0.617c2.362,3.33,4.134,8.63,4.429,12.206c0.885,10.973-3.249,16.644-1.182,24.164
		c0.295,2.22,1.773,4.315,3.249,6.289c-1.183,0.493-2.362,1.479-2.954,2.466c-1.18,1.972-1.476,5.301,1.183,6.903
		c0,0.124,0,0.124,0.296,0.247c0,0.246-0.296,0.494-0.296,0.739c-2.362,0.123-3.838,2.712-3.838,4.687
		c-0.296,2.341,0.885,5.424,3.838,5.794h0.296c0,0.493,0,0.74,0,1.233v0.122c-2.362,1.974-1.479,5.179,0,6.905
		c1.476,1.603,4.133,2.835,6.494,1.479c0.295,0.245,0.591,0.492,1.182,0.616c-0.295,2.958,2.362,4.685,4.724,4.931
		c2.066,0.247,4.725-0.615,5.61-2.835c0.296,0,0.59,0,0.885,0c0.887,1.849,2.658,2.589,4.726,2.589
		c-1.477,8.876-5.905,7.027-8.268,11.836c-2.658,4.685-4.134,6.78-5.314,8.63c3.839,0.617,3.248,0.986,6.201-6.903
		c0.294-0.493,0.885-0.617,0.589-0.124c-0.295,3.082-0.589,4.191-1.476,8.26c5.609,0.74,10.925-4.685,10.63-6.164
		c-0.296-2.096-0.591-3.205-0.887-3.329c-2.362-0.493-1.476-2.836-0.59-3.451c1.181-0.74,2.657-0.493,4.134,1.355
		c1.771-0.493,2.952-2.465,2.952-4.685c0-3.205,0-7.151-0.295-11.343c1.771,1.849,4.429,1.355,6.2,0.369
		c2.066-1.355,3.838-4.067,2.362-6.656l-0.296-0.124c0.591-0.369,0.887-0.74,1.182-1.109c1.181,0.74,2.656,1.109,4.134,1.109
		c3.839,0,6.79-3.205,6.79-7.027s-3.247-6.78-7.085-6.78c-3.839,0.122-7.087,3.205-6.792,7.027c0,1.725,0.591,3.328,1.771,4.562
		c-0.296,0.247-0.885,0.616-1.181,0.985c-1.476-1.109-4.133-0.616-5.609,0.248c-0.591,0.493-1.182,1.109-1.772,1.725
		c-0.294-7.397-0.59-14.177,0-16.273c0.296-1.974-1.181-3.205-2.656-1.727c-0.296,0.248-0.591,0.493-1.182,0.617
		c-2.657,1.109-7.086-3.329-7.382-8.138c-0.295-5.178,4.725-12.945,4.134-19.232c0.591-0.493,0.885-0.986,1.181-1.356
		c1.771,2.835,3.249,5.917,5.315,8.384c-0.295,6.657,2.656,10.85,7.381,11.96c2.658,0.614,6.201-0.124,7.973-2.098
		c-4.134,1.974-6.497-2.958-7.973-5.547c0.296,0,0.591,0.123,1.181,0.123c0.295-0.123,0.591-0.123,0.887-0.123
		c2.066,0.123,1.771,1.849,5.314,1.849c5.02,0,8.267-4.685,7.973-7.521c-0.886,2.343-4.134,3.083-6.2,2.712
		c2.952-2.219,4.428-5.547,4.428-9.247c-0.294-23.67-27.163-26.875-27.459-46.603c-0.295-4.315,3.839-11.219,9.448-11.958
		c2.658-0.371,3.838,1.725,3.838,1.725c-3.838,4.315-2.066,13.316,5.611,18.247c7.677,4.808,16.828,3.083,17.715,9.123
		c0,0.124,0.296,0.124,0.296,0c-0.592-11.095-14.468-6.78-16.535-19.972c0-0.371,0.296-1.233,1.181,0.862
		c0.591,1.851,4.725,6.535,9.154,6.411c2.066,0,2.362-0.862,1.476-0.74c-1.181,0.124-1.771-0.122-2.362-0.369
		c-1.181-0.862-2.656-3.451-2.952-7.273c-0.295-8.385-5.61-9.616-7.383-9.371c-1.18,0.124-2.066,0.124-2.951,0.741
		c0,0-2.362-3.822-6.792-3.699c-7.381,0.122-13.581,9-13.581,16.151c0.296,22.438,27.458,25.644,27.754,46.355
		c0,5.179-2.952,9.247-8.858,9.247c-5.314,0.124-7.676-6.658-12.105-13.191l-0.294-0.616c-0.296-1.11-0.591-1.975-1.478-2.713
		c-0.296,0-0.296-0.123-0.296-0.123c0-0.248,0.296-0.617,0.296-0.863c1.771,0,3.544-1.48,4.134-2.836
		c1.182-2.096,0.887-5.178-1.476-6.534c-0.591-0.248-0.887-0.37-1.181-0.37c-0.296-0.492-0.296-0.985-0.591-1.48
		c2.362-2.096,0.591-5.054-0.591-6.411c-1.477-1.355-4.43-2.713-6.497-0.739c-0.589-0.124-0.885-0.247-1.18-0.371
		c0.295-2.218-1.476-3.944-3.249-4.561c-1.771-0.617-4.428-0.369-5.609,1.727h-0.296c-2.066-3.206-3.247-5.918-3.247-8.261
		c0.296-2.465,2.067-5.918,4.43-9.617c0.885,0.37,1.476,0.248,2.362-1.355c2.36-2.96,4.134-4.808,7.085-7.151
		c2.066-1.972-0.296-2.836-1.771-3.946c0.887-1.603,1.476-3.082,1.476-3.945c0-0.864,0.887-0.864,0.887-0.616
		c0.296,3.082,2.067,5.301,4.134,4.932c-1.476-1.727,0.296-3.822,0.296-9.371c0-3.946-0.887-7.645-1.183-9.493
		c0-1.233,0.592-1.603,0.887-0.371c1.181,2.96,4.43,6.289,6.496,5.425c-5.611-3.205,2.067-13.931-5.905-22.069
		c-0.886-0.615-0.591-1.108,0-0.739c0,0,2.657,1.356,4.428-0.369c-4.428-0.617-5.609-10.604-13.285-12.083
		c-1.771-0.246-1.771-0.617-1.477-0.617c0,0,3.543,0.247,4.428-3.575c-4.723,2.342-5.905-3.698-13.877-3.329
		c0.295,2.712-1.181,3.946-2.066,4.191c-0.296,0.124-0.296-0.124-0.296-0.246c2.362-7.275-6.201-13.069-7.972-13.562
		c0-0.124,0,0,0,0c0.591,2.836,0.591,5.548,0,8.631c0,0.492,0,2.096-0.296,1.602c-0.294-0.247-1.476,0-1.771,0
		c1.771-4.562-1.477-4.562-3.839-7.89c1.182,4.561-2.362,7.521-0.296,9.369c-1.18,0.617-2.656,1.479-5.019,2.22
		c-2.066,0.74-3.542,1.603-3.248,3.453c0,1.231-2.067,1.355-4.428,3.082c-5.021,2.958-5.611,4.808-8.268,6.535
		c-2.362,1.725-0.296,5.67-0.592,6.411c-0.295,1.727,0.592,1.849,1.181,1.603c2.362-0.74,5.905-4.438,8.563-4.562
		c2.362,0,3.249,1.357,2.066,1.974c-1.771,0.862-3.838,1.725-5.904,3.206c-2.954,1.848-2.363,2.834-0.887,2.589
		c0.591,0,0.887,0.369,0.887,0.986c0.591,1.233,2.066,1.11,2.953,0c0.589-0.493,1.476-0.37,1.476,0.74
		c0,1.232-1.476,2.465-0.591,4.809c0.886-2.098,3.543-0.988,4.429-4.809c0.296-1.48-0.591-2.467,0.591-4.069
		c0.885-0.986,1.771,1.233,0.885,3.206c1.771-0.124,3.545-1.972,3.249-4.932c-0.295-0.986,0.885-3.205,3.248-2.341
		c2.066,0.739,2.361,3.205,7.38,1.972c4.726-1.233,6.497-4.685,6.497-6.411c0-2.465-0.59-2.465-0.886-4.068
		c-0.591-1.974,2.362,1.231,2.656,4.685c0.296,10.603-11.81,7.273-20.962,20.342c-0.591,0.617-6.201-1.479-7.087-1.109
		c-0.591,0.493-0.296,1.479-0.591,2.465c0,0.74,0,1.481-0.294,2.219c-1.183-1.109-2.953-1.231-4.43-0.738
		c-2.066,0.738-4.134,2.712-3.544,5.425l-0.294,0.246c-1.773-1.479-4.429-0.741-5.907,0.369c-1.18,1.109-2.36,3.453-1.476,5.548
		l-0.296,0.369c-1.771-1.109-4.133-0.122-5.313,1.11c-1.771-1.355-3.543-2.589-4.725-3.329c-1.771-1.355-1.181-2.589-5.019-2.465
		c-4.43,0-2.362,0.37-5.611,2.96c-1.476,0.986-3.838,3.205-5.905,4.684c1.478,1.355,2.658,2.342,4.134,3.944
		c1.771-2.096,5.021-3.944,5.611-4.314c0.589-0.247,2.656-0.123,2.951,0.494c0.592,0.615,0.887,1.725,2.067,3.082
		C347.595,386.171,348.774,387.281,349.365,388.389L349.365,388.389z M418.752,441.65L418.752,441.65
		c-0.887-0.862-0.887-2.713,0.296-4.191c0.885-1.603,2.656-2.22,3.543-1.479c1.18,0.739,1.18,2.713,0,4.191
		C421.41,441.65,419.933,442.391,418.752,441.65L418.752,441.65z M411.961,450.773L411.961,450.773
		c-0.885-0.738-0.885-2.589,0-4.067c1.182-1.603,2.953-2.22,3.838-1.479c1.182,0.739,0.887,2.589,0,4.191
		C414.619,450.897,413.143,451.638,411.961,450.773L411.961,450.773z M405.76,459.773L405.76,459.773
		c-0.885-0.862-0.885-2.589,0-4.068c0.887-1.355,2.658-1.972,3.545-1.232c1.181,0.863,1.181,2.588,0.294,4.069
		C408.418,460.021,406.942,460.514,405.76,459.773L405.76,459.773z M423.182,431.048L423.182,431.048
		c-1.183-0.616-1.478-2.22-0.591-3.698c0.591-1.357,2.066-2.096,3.247-1.479c0.887,0.615,1.182,2.218,0.591,3.698
		C425.544,431.048,424.066,431.665,423.182,431.048L423.182,431.048z M414.619,414.897L414.619,414.897
		c-0.296,1.11-2.067,1.479-3.249,0.986c-1.477-0.493-2.361-1.726-2.065-2.836c0.589-1.107,2.065-1.479,3.543-0.985
		C414.323,412.554,414.914,413.787,414.619,414.897L414.619,414.897z M360.289,410.582L360.289,410.582
		c-0.885,0.741-2.36,0.37-3.543-0.74c-0.884-1.108-1.18-2.589-0.295-3.328c1.182-0.74,2.658-0.371,3.545,0.739
		C361.176,408.362,361.176,409.841,360.289,410.582L360.289,410.582z M398.971,482.09L398.971,482.09
		c-1.479-0.124-2.362-1.727-2.067-3.453c0-1.849,1.181-3.082,2.36-2.958c1.478,0.246,2.363,1.727,2.363,3.575
		C401.331,480.98,400.15,482.335,398.971,482.09L398.971,482.09z M415.21,495.404L415.21,495.404
		c0.294-1.233-1.183-2.465-2.953-2.712c-1.771-0.246-3.248,0.616-3.543,1.972c-0.296,1.357,1.18,2.591,2.951,2.836
		C413.437,497.624,414.914,496.76,415.21,495.404L415.21,495.404z M437.059,487.884L437.059,487.884
		c0.591,1.233,0,2.836-1.771,3.822c-1.476,0.986-3.249,0.74-3.838-0.369c-0.592-1.11,0-2.836,1.476-3.822
		S436.172,486.774,437.059,487.884L437.059,487.884z M438.83,480.117L438.83,480.117c-0.296-2.712,2.066-4.932,4.725-4.932
		c2.656,0,5.019,2.096,5.019,4.685c0,2.713-2.067,4.932-5.019,4.932c-0.591,0-1.771-0.123-2.362-0.616
		c0.295-0.493,0.885-0.986,1.18-1.479l-1.476-0.985c0,0-0.295,0.493-1.181,1.355C439.125,482.214,438.83,481.226,438.83,480.117
		L438.83,480.117z M370.624,368.787L370.624,368.787c0,0,0,0,0.295-0.123c1.183-0.246,2.658,0.123,2.954,1.11
		c0,0.369,0,0.74,0,1.109c-0.296,0.616-0.592,1.233-1.477,1.603c0,0-0.295,0.123-0.591,0.247c-1.182,0.493-2.953,0.123-3.249-0.987
		c0-0.246,0-0.493,0-0.862C368.557,370.02,369.443,369.156,370.624,368.787L370.624,368.787z M404.58,491.952L404.58,491.952
		c1.18-0.863,0.885-2.589-0.296-3.944c-1.181-1.357-2.953-1.727-4.134-0.864c-0.887,0.864-0.887,2.712,0.296,3.945
		C401.922,492.446,403.693,492.815,404.58,491.952L404.58,491.952z M360.881,377.663L360.881,377.663
		c-0.592-0.862-0.296-2.218,0.887-3.206c1.18-0.862,2.655-0.986,3.246-0.122c0.591,0.862,0.296,2.341-0.885,3.205
		C362.947,378.527,361.472,378.527,360.881,377.663L360.881,377.663z M369.147,415.883L369.147,415.883
		c-0.295,1.11-1.771,1.479-3.543,0.864c-1.182-0.493-2.066-1.85-1.771-2.96c0.589-0.986,2.362-1.355,3.542-0.862
		C369.147,413.542,369.739,414.773,369.147,415.883L369.147,415.883z M423.477,420.691L423.477,420.691
		c-0.886,0.741-2.362,0.493-3.544-0.617c-1.181-1.231-1.476-2.834-0.885-3.574c0.885-0.741,2.656-0.37,3.838,0.74
		C424.066,418.35,424.362,419.953,423.477,420.691L423.477,420.691z M380.368,374.828L380.368,374.828
		c2.067,0.739,3.839,0,4.134-1.109c0.59-1.85-1.771-2.589-3.544-1.233c0.295-0.37,0.295-1.234,0.591-2.22
		c0.887-2.958,2.953-1.727,3.543-0.246c0.591,1.479,0.887,0.987,0.887,0.739c-0.296-0.863-0.887-2.342-0.592-3.082
		c0.887-1.479,2.954-3.082,4.43-3.946c0,1.603,0.591,3.822,0,5.548c-0.295,0.74-1.476,1.727-2.362,2.219
		c-0.296,0.124-0.296,0.37,0,0.37s0.887-0.246,2.067-0.862c0.59-0.37,2.657-0.124,2.361,1.972c0,0.986-1.476,2.096-1.771,3.082
		c0.592-2.218-2.361-3.205-3.248-1.479c-0.59,1.357,0.591,2.836,2.066,3.453c2.953,1.231,5.021,0.246,6.2-1.974
		c-0.885-0.615-2.655,0.741-3.542,0.741l2.657-5.302c0.296,2.343,0.885,2.589,1.477,3.082c0.295-0.986,0.295-1.849-0.296-4.808
		c1.771,0.74,3.838,1.972,5.611,2.959c-1.478,0.37-2.658,1.232-3.545,2.589l0.592,0.246c1.18,0.247,1.771-0.493,2.953-0.862
		l-2.953,5.424c-0.296-0.74,0.295-3.205-1.476-3.329c-1.183,2.096-0.592,4.439,2.066,5.67c1.771,0.864,3.247,0.864,4.134-0.122
		c1.18-1.481-0.887-3.577-2.953-1.974c0.591-0.986,0.591-2.835,1.476-3.327c2.953-1.357,2.953,1.972,3.249,3.451
		c0.295-0.617,0-2.836,0.885-4.191c0.591-0.986,2.953-1.972,4.429-2.712c0.296,1.726,0.296,4.068-0.295,5.301
		c-0.59,0.617-2.656,1.727-3.247,2.219c-0.592,0.247,0,0.247,0,0.124c2.953-0.864,4.725,0,3.542,2.096
		c-0.295,0.986-1.476,1.848-1.771,2.219c0.295-2.343-2.363-3.083-3.248-1.974c-0.887,1.233,0.296,3.083,1.771,3.945
		c2.067,1.234,4.134,1.11,5.905-0.617c-0.887-0.493-2.362-0.862-3.247-0.369l2.656-3.822c0,1.109,0.296,2.465,0.887,3.082
		c0.589-1.11,0.885-2.589,0.589-4.438l3.544,2.711c-2.657,2.59-5.315,5.303-7.676,8.137c-7.678-4.93-19.488-11.095-34.252-16.644
		c0.296-1.725,0.887-3.451,1.182-5.178c0-0.616,0-1.233,0-1.85c0.296-1.355,0.59-2.712,0.296-3.944l4.723,1.11
		c-1.476,0.617-2.655,1.479-3.247,2.712c1.181,0.369,2.362-0.124,2.952-0.864l-1.181,4.563c-0.591-0.986-0.886-2.096-2.066-2.343
		c0,0.123,0,0.247,0,0.369C377.711,372.24,378.598,374.088,380.368,374.828L380.368,374.828z M395.426,319.102L395.426,319.102
		c0.591,0.615,3.249,2.342,3.545,6.657c0.293,1.85-0.592,3.082-2.067,3.946c-0.295,0.37-2.362,1.603-2.362,2.22
		C393.654,328.226,396.312,323.91,395.426,319.102L395.426,319.102z M383.024,333.526L383.024,333.526
		c5.021-0.986,4.726,1.479,6.792,1.603c0.591-0.124,0.295,0.37,0,0.37c-6.201,0.493-6.792,1.85-8.563,3.082
		c-0.295,0.247-0.589,0.123-0.295-0.246c0.295-0.493,1.182-1.233,1.478-1.974C381.845,335.747,381.549,333.896,383.024,333.526
		L383.024,333.526z M366.196,344.622L366.196,344.622c0.589-0.74,1.476-0.986,2.066-0.986c4.428,0.246,1.771,3.699,0,2.713
		c0.294-0.494,0-1.11-0.295-1.357C367.376,344.499,365.604,345.484,366.196,344.622L366.196,344.622z M411.961,418.102
		L411.961,418.102c1.476,0.124,3.249-0.369,4.429-1.848c0,0.122,0.296,0.122,0.296,0.246c-0.591,1.85,0.591,3.945,1.771,5.055
		c1.18,0.986,3.247,1.973,5.02,1.604c0,0.122,0,0.369,0,0.614c-1.182,0.495-2.362,1.604-2.953,2.713
		c-0.296,0.617-0.591,1.48-0.591,2.22c-0.589-0.986-1.476-2.096-2.067-2.959C415.799,423.034,413.732,420.445,411.961,418.102
		L411.961,418.102z M369.147,411.444L369.147,411.444c-0.295-0.122-0.591-0.37-0.885-0.37c-1.478-0.617-3.544-0.617-5.02,0.493
		c-0.296-0.123-0.592-0.245-0.592-0.493c0.887-1.727,0-3.944-1.18-5.178c-0.887-1.233-2.954-2.219-4.726-1.726
		c-0.295-0.247-0.295-0.37-0.589-0.617c7.086,0.864,11.811,1.109,20.373,0.864c1.181,0,2.067,0,2.656-0.124
		c1.182-0.371,0.591,1.11,2.362,0.739c1.771-0.37,2.658-1.109,2.658-1.725c0.295-1.233,3.838-1.727,6.496-7.645
		c-0.296,0.74,0,0.862,0,1.11c-0.887,2.465-2.953,6.287-4.134,7.027c-1.183,0.617-1.478,2.096-2.362,2.589
		c-2.362,0.741-4.726,0.741-5.315,0.369c-0.886-0.739-9.744,1.11-11.22-0.124C368.263,408.362,368.557,410.088,369.147,411.444
		L369.147,411.444z M403.988,466.556L403.988,466.556c0,0.985,0,1.972-0.591,2.958c-0.885,1.48-2.656,2.219-3.838,1.48
		c-0.885-0.74-1.181-2.59-0.296-4.069c0.887-1.233,2.067-1.973,2.953-1.727C402.809,465.691,403.397,466.185,403.988,466.556
		L403.988,466.556z M422.886,490.104L422.886,490.104c-0.295-6.042,0-12.083-1.771-14.796c-1.478-2.096-2.953,1.851-9.449-2.835
		c-1.771-1.109-3.542-2.467-5.609-4.068c-0.296,0.863-0.591,1.602-0.885,2.219c-0.887,1.479-2.658,2.837-4.43,2.837l-0.295,0.368
		c2.362,0.741,3.542,3.453,3.247,5.549c0,1.727-1.181,3.822-2.952,4.562c0,0.247,0,0.492,0,0.74c1.771-0.369,3.839,0.74,5.019,1.972
		c1.478,1.48,2.363,4.069,0.887,6.042c0.296,0,0.296,0.123,0.591,0.247c0.886-1.851,3.543-2.59,5.314-2.343
		c2.067,0.247,4.429,1.726,4.725,4.19h0.294c0.295-2.341,2.362-3.943,4.429-4.561C422.295,490.227,422.591,490.104,422.886,490.104
		L422.886,490.104z M422.886,492.199L422.886,492.199c1.477-0.124,2.952,0.493,3.248,1.603c0.295,1.355-0.886,2.713-2.657,3.206
		c-0.295,0-0.591,0.123-0.886,0.123c-1.477,0.124-2.658-0.493-2.954-1.727c-0.293-1.233,0.887-2.712,2.658-3.082
		C422.591,492.199,422.591,492.199,422.886,492.199L422.886,492.199z M352.317,394.554L352.317,394.554
		c-1.181-0.124-2.066-1.479-1.771-2.959c0-1.603,0.887-2.711,2.067-2.589c1.182,0.124,2.066,1.357,2.066,2.959
		C354.68,393.444,353.5,394.678,352.317,394.554L352.317,394.554z M354.385,385.062L354.385,385.062
		c-0.885-0.864-0.59-2.343,0.295-3.576c0.887-1.11,2.362-1.479,3.249-0.739c0.885,0.862,0.589,2.465-0.296,3.575
		C356.746,385.431,355.271,385.8,354.385,385.062L354.385,385.062z M155.379,451.514L155.379,451.514
		c-2.658,2.589-9.45,1.11-10.63-5.672c0.887,2.219,4.134,2.96,5.609,1.603c-1.476-2.096-2.362-4.93-2.362-8.383
		c0-18.987,28.345-31.931,28.345-48.699c0-7.397-7.381-9.74-11.811-4.932c4.134,3.822,2.067,10.85-3.542,15.781
		c-9.743,8.876-23.031,8.383-24.211,16.397c0,0.616-0.296,0.369-0.296-0.124c0.591-13.439,16.535-12.946,17.715-23.301
		c0-0.371-0.295-0.493-0.295-0.248c-0.589,1.85-6.495,8.63-13.286,8.138c5.314-1.233,6.792-6.166,8.268-10.974
		c1.771-6.657,7.381-11.219,11.81-8.259c6.792-7.151,19.782-4.192,19.782,7.521c0,18.371-28.345,31.438-28.345,48.946
		c0,7.273,3.544,8.876,7.678,8.876c10.039,0,15.353-15.657,22.734-23.917c4.429-5.179,6.496-8.508,8.858-13.316
		c1.182-2.834,0.591-5.054,3.542-7.273c3.84-3.453,5.907-4.439,7.678-5.548c1.771,0.247,4.723-0.122,5.609-0.246
		c3.543-1.11,3.838-2.467,4.725-2.589c5.019-1.233,6.2-4.563,6.495-6.411c0-0.248,0-0.74,0.886-0.248
		c0.591,0.37,0.591,0.248,1.771,0.617c1.182,0.246,2.067,0.739,2.954,1.233c-0.591-4.193-5.316-2.219-7.678-11.343
		c0-0.74-1.181-1.85-1.476-0.74c-0.591,3.082,2.953,9.493-1.771,15.289c-0.296,0.37-2.362,1.479-4.43,1.972
		c-2.066,0.493-3.542,0.369-5.019,0.74c2.361-1.974,5.019-6.413,5.61-11.714c0.295-3.328-0.295-4.437-1.476-3.698
		c-2.658,0.986,2.067,8.754-6.792,14.179c-1.476,0.862-7.676,4.315-8.858,6.411c-0.296-8.138,3.544-11.59,6.791-18.616
		c2.952-6.042,3.838-9.864,2.362-9.864c-3.249,0.124-5.02,17.014-11.81,16.644c3.542-2.836,1.476-8.014,1.476-12.945
		c0.295-7.273,3.838-13.685,1.181-13.685c-2.656,0.986-1.771,16.766-7.677,18.493c3.247-5.301-3.247-7.767,0.591-18.864
		c0.885-2.834,4.43-9.369,2.656-9.862c-2.067-0.493-1.771,4.437-4.133,8.507c-0.885,1.972-2.952,3.698-5.019,2.834
		c4.429-2.958,0.885-12.451,5.019-16.89c0-0.248,0-0.617-0.294-0.74c-3.839-1.973-4.429-5.301-5.611-7.15
		c2.067-1.11,4.725-3.206,7.972-2.96c0.591-0.246,0-1.603-0.589-1.972c0.296-0.864,2.067-2.589,2.656-2.96
		c0.591,0.987,0.887,1.357,1.773,1.603c7.38-5.547,15.943-9.123,24.8-10.848c-0.589-1.481-0.294-1.603,0.886-1.603l2.363-0.124
		c1.18-0.123,0,2.589,0,2.958c2.952-3.822,7.085-3.698,8.563-4.314c0.589,2.835,2.656,5.424,0.885,10.109
		c0,0.248,0,0.248,0.591,0.371c4.134,0.986,5.019,3.822,8.268,2.465c-1.182,3.577-7.383,1.85-8.268,1.603
		c-0.591-0.124-0.591,0.493,0,0.741c0,0.123,2.658,1.726,4.134,2.836c5.905,4.561,8.562,11.588,11.81,10.355
		c-2.658,2.836-5.905,1.479-7.972,0.617c-1.771-0.862-3.542-3.451-4.133-3.082c-2.658,1.11,6.2,5.301,7.972,7.397
		c3.543,3.822,3.249,6.78,5.609,7.151c-1.476,1.727-4.427,2.465-8.856-1.48c-1.478-1.355-2.067,0.371-0.295,1.604
		c2.066,1.355,3.247,2.341,5.018,4.437c2.362,2.467,3.544,6.165,2.954,10.357c1.18,2.219,3.247,5.424,2.657,8.63
		c0,0.246,0,0.862,0.296,0.493c0.884-0.493,3.838-1.972,4.723-2.712c2.066-1.85,5.905-0.986,7.087-1.727
		c-4.43,4.07-10.334,10.85-12.401,15.042c-2.362,4.315-5.905,9-5.905,10.974c0,0.246-0.295,0.369-0.591,0.246
		c-2.362-1.11-4.134-3.699-4.429-5.794c-1.771,0.248-6.496-6.78-7.085-4.932c0.885,1.48,0.885,2.712,1.476,3.083
		c0,0.246,7.972,9,12.105,13.932c1.476,1.725,4.725,5.177,6.792,8.628c1.181,1.603,0.295,3.945,1.181,7.151
		c0.295,1.972,4.725,5.301,2.953,9c3.247,2.836,2.361,7.274-3.249,8.385c2.362-1.727,1.478-5.549-0.295-5.918
		c-2.36-0.371-1.771,1.479-1.771,2.219c-0.589,3.699-3.248,5.302-6.79,4.191c2.067-0.492,3.542-3.821,1.771-5.425
		c-0.591-0.492-1.182,0.246-1.478,0.617c-2.36,2.836-7.381,2.096-8.267-1.357c1.182,1.974,5.02,0.986,4.429-1.603
		c0-0.862-0.589-0.493-1.18-0.617c-0.591-0.245-1.476-0.985-1.182-3.45c0.886-5.673,4.134-1.727,4.725-6.658
		c0.295-2.097-0.885-2.713-1.771-2.835c-1.18,0-3.247,1.355-2.658,3.451c-3.542-1.727,0.591-7.645-2.066-8.754
		c-0.296-0.122-0.296,0-0.296,0.247c0.591,3.205-2.952,2.589-3.838,5.056c-1.476-2.467,0-8.385-2.361-9.124
		c0.885,3.452-2.362,4.438-2.067,6.411c-3.544-2.466-1.773-8.137-6.792-9.987c-0.591-0.369-2.658-2.712-5.021-3.821
		c-1.476-0.863-1.771,1.109-2.952-0.863c-0.591-0.986-0.887-0.986,0.295-2.343c0.885-0.986-0.591-2.958,0-5.67
		c0-0.862-0.295-0.493-0.591-0.493c-1.182,1.479-1.182,2.341-1.771,3.206c-0.591,1.233,0,2.219-0.591,2.836
		c-0.591,0.986-2.067,1.231-1.771,2.712c0.591,4.684,2.067,4.93,2.658,3.698c0.589-1.11,3.247-1.481,5.019,0.615
		c0.591,0.864,2.067,2.097,4.134,3.576c1.476,1.972,1.771,5.054,2.953,6.288c-1.771-0.246-4.429,1.109-6.496,1.109
		c-5.021-0.123-7.383,1.973-7.677,2.344c-1.477,2.589,3.543,2.465,2.361,4.438c-1.771,2.219-4.428,6.041-5.019,7.521
		c-1.771-3.206-1.182-7.15,0.296-10.727c-3.838,3.206-4.134,8.138-3.543,11.467c1.771,13.685,3.247,17.014-2.658,25.026
		c-2.362,3.206-7.971,10.357-14.763,12.946c-8.267,3.329-12.105,5.672-11.515,11.712c0.589,8.014,3.838,18.863,10.628,18.37
		c3.84-0.369,0.886-3.698,6.496-4.067c2.658-0.248,4.725,0.369,5.316,2.341c5.905-0.985,7.381,5.797,2.362,8.014
		c1.771-2.834,0-3.943-1.478-4.067c-1.476,0-2.362,0.493-2.656,0.986c-0.295,1.109,0.885,1.233,1.181,2.836
		c0.295,1.603-0.887,4.809-4.429,5.671c2.658-2.342-1.771-3.699-2.067-2.466c-1.18,2.589-2.952,3.946-7.085,2.836
		c-2.362-0.74-2.953-0.864-4.429-1.356c-1.476-0.369-2.067,0.864-3.543,0.74c-1.478-0.124-2.067,2.712,0,2.465
		c-5.907,0.986-5.907-4.438-4.725-6.656c0.885-1.357,2.952-1.604,1.476-3.453c-0.885-0.862-4.134-3.082-5.61,2.713
		c-2.067-2.958-1.771-6.166-1.476-8.507c0.293-2.344,1.476-4.191,1.771-5.672c0-1.604-0.296-3.206-0.591-4.068
		s-0.591-0.369-0.591-0.124c-1.476,4.439-2.952,6.042-4.723,7.892c1.476-3.083-5.611-9.001,2.361-20.097
		c0.591-0.74,0.886-1.85,0-3.821c-0.589-1.356,0.591-4.315,2.066-3.33c4.43,3.206,8.858-2.589,10.334-4.561
		c5.611-9-0.885-16.027,12.697-42.288c0-0.492-0.296-0.74-0.591-0.37c-4.428,4.932-8.268,15.288-15.354,21.082
		c0.887,6.78-4.429,9.371-9.743,9.864c-4.725,0.493-5.905-0.74-8.859-0.247c2.067-2.22,6.497-1.727,8.268-5.671h-0.295
		C157.445,452.131,156.264,451.883,155.379,451.514L155.379,451.514z M227.128,391.842L227.128,391.842
		c0.885-4.192,4.133-6.166,4.427-11.589c0-6.166-3.838-11.836-6.199-14.426c-0.887-0.739-2.067-0.615-2.067,0.371
		c-0.591,5.177,5.609,7.149,5.314,15.042c0,2.588-1.18,6.042-3.247,9.247C225.946,390.979,226.537,391.473,227.128,391.842
		L227.128,391.842z M191.104,344.499L191.104,344.499c0.591,0,1.182-0.124,1.182-0.124c0-0.246-2.066-5.547-6.201-5.671
		c-1.477,0-2.658,1.11-4.429,1.603c0.885,1.357,2.362,4.315,4.725,4.562c2.656,0.122,2.952-1.233,3.542-1.233
		C190.516,343.636,190.809,344.375,191.104,344.499L191.104,344.499z M217.383,328.226L217.383,328.226
		c-0.589,0.615-3.247,2.341-6.79,3.82c-0.887,0.371-2.658,0.617-2.362,0.617c2.067,2.096,2.952,3.699,6.201,2.589
		c2.658-1.108,0.591-4.315,3.247-6.411C218.27,328.348,217.974,327.731,217.383,328.226L217.383,328.226z M191.991,338.952
		L191.991,338.952c-0.591,0-0.295,0.739,0.295,0.739c2.656-0.617,4.134,2.96,7.085,1.85c2.953-1.357,2.658-2.836,2.658-6.042
		c0,0-0.887,0.74-1.476,0.862C197.305,337.718,192.876,338.952,191.991,338.952L191.991,338.952z M220.336,347.951L220.336,347.951
		c0.591,0,4.134,1.11,5.021-3.453c0.293-0.862-0.887-1.355-0.591-2.341c0.296-0.493,0.591-1.11,0.591-1.481
		c0.293-4.067-2.658-4.93-3.249-5.67c0.887,3.329,0,5.301-1.476,7.151c1.476,2.341,0.591,4.808-0.295,5.301
		C220.041,347.458,220.041,347.828,220.336,347.951L220.336,347.951z M215.611,349.924L215.611,349.924
		c-0.295-0.246-2.656,1.603-4.134-2.096c-0.885-2.589,4.134-3.575,2.362-4.068c-0.885-0.371-1.476-1.357-0.885-1.974
		c0.885-0.862,2.067,0,2.952,0.248c0.295,0.124,1.476-0.493,0.886-0.986c-2.067-1.233-2.362-2.59-3.249-2.096l-10.923,4.685
		c-0.591,0.369-0.296,1.233-0.591,2.589c0,0.616,0,1.603,0.295,1.603c1.771-0.493,0.885-2.344,2.067-2.465
		c1.771-0.371,1.476,1.479,1.18,2.096c0.295,1.355,3.543-1.85,4.725,1.11c0.591,0.862,0.591,1.109,0.591,1.603
		c0,1.725-1.478,1.972-2.362,2.341c0,0.248,0,0.371,0.295,1.11c1.181,3.082,1.181,3.698,2.361,5.179
		c0.886,0.986,1.477,1.11,2.953,0.986c0.591,0,1.476-0.247,2.066-0.247c0.296-0.37,0.591-0.739,0.887-0.986
		c1.476-1.109,2.066-2.836,0.589-5.425C217.089,352.02,216.202,350.171,215.611,349.924L215.611,349.924z M221.223,331.924
		L221.223,331.924c0,0.246,0.885-0.248,0.885-0.371c0.295-0.493-0.295-1.725,0.887-1.725c0.589-0.124,1.18-0.124,1.771-0.495
		c2.067-1.108,2.363-4.437,0.885-7.273C220.927,323.539,218.565,325.39,221.223,331.924L221.223,331.924z M243.663,380.006
		L243.663,380.006c0-0.37,0.589,0,0.885,0.74c0.591,1.848-0.591,5.67-2.067,8.259c-2.362,3.453-3.838,3.946-3.838,3.453
		c-0.295-4.191-0.295-2.467-0.591-7.027c-0.296-4.439-2.067-7.891-2.067-8.754c0.591-2.712,4.725,3.946,4.429,9.495
		c0,0.246,0.295,0.369,0.591,0.122C241.889,385.555,243.367,383.088,243.663,380.006L243.663,380.006z M217.089,362.5L217.089,362.5
		c-5.021,1.603-9.449,0.863-10.041-1.357c0-0.369-0.294-2.958-0.294-3.329c-0.295,0.248-0.886,3.329-0.886,3.7
		c-0.295,0.739-0.295,1.603,0,2.834c0.591,1.974,6.792,4.438,10.039,1.974c0.591-0.617,0.295-2.097,1.771-2.467
		c1.182-0.739,2.067,0.617,2.953,0.493c4.134-0.493,6.792-6.411,5.61-8.259c-0.295-1.11-1.18-1.603-1.771-1.974
		c-0.295-0.246-2.953-2.096-3.247-2.096c0.294,0.247,2.067,2.343,2.067,2.712C224.47,356.582,222.107,360.157,217.089,362.5
		L217.089,362.5z M204.981,354.486L204.981,354.486c0-0.371-0.294-0.616-0.294-0.493c-1.182,0.37-3.544-0.74-4.133-3.453
		c-2.658-0.124-4.429-0.986-6.201-3.822c0,0.863-1.182,3.575,1.771,6.166c0.295,0.246,0.885,0.493,1.476,0.739
		c0.887,0.493,0.591,1.479,1.182,1.974C202.621,358.307,204.688,354.732,204.981,354.486L204.981,354.486z M211.183,351.281
		L211.183,351.281c2.066,3.082,1.772,2.712,3.249,5.547c0.295,0.493,0.591,0.247,0.295-0.246c-1.478-2.836-1.478-4.687-1.771-5.918
		C212.66,350.54,211.773,351.157,211.183,351.281L211.183,351.281z M212.364,315.033L212.364,315.033
		c-0.296,1.603-0.887,2.96-1.771,3.082c-0.887,0.247-2.067,0-2.362-1.232c-0.295-0.74,0-1.11,0.591-1.233
		c0.294,0,1.181,0,1.181,0.493c0.886-2.22-0.886-3.946-2.658-1.972c-0.885-0.74,1.771-2.467-2.657-5.301
		c-2.066,5.301,1.476,4.808,1.181,5.67c-1.771-0.862-2.954,1.479-1.181,3.206c0-0.617,0.294-1.109,0.885-1.109
		c0.591,0,1.182,0.247,1.182,0.616c0.59,1.11-0.886,2.096-2.362,2.589c-1.182,0.37-3.838,1.357-5.316-1.479
		c1.773-0.369,3.544,0.493,3.838,0.986l-2.065-4.684c0.293,1.109-0.591,2.219-2.067,2.958c-0.295-1.479,0-2.958,0.885-3.944
		l-2.362,1.232l-3.248,1.109c1.181,0.248,2.952,0.741,3.838,1.974c-1.476,0.615-3.247,0.369-3.838-0.371l2.067,4.562
		c0-0.617,0.591-2.589,2.066-3.453c1.181,2.959-0.295,4.438-1.476,4.932c-0.887,0.493-2.658,1.357-4.134,0.124
		c-0.591-0.74-0.295-1.727,0.294-2.096c0.296-0.124,0.887-0.371,1.182,0.122c0.591-2.341-1.771-3.698-2.953-1.355
		c-0.884-0.494,1.182-2.589-3.542-4.439c-1.18,5.549,2.362,4.315,2.362,5.302c-2.067-0.37-2.954,2.097-0.591,3.329
		c0-0.616,0.295-1.11,0.887-1.231c0.589-0.248,1.18,0.493,1.476,0.863c0.295,0.862,0,1.602-0.887,2.219
		c-0.885,0.493-2.067,0.617-3.838-0.864c0.295-0.493,0.887-0.615,1.478-0.493l-2.658-2.834c0,0.493-0.295,1.231-0.591,1.725
		c-0.296-0.494-0.591-1.11-0.591-2.589l-2.657,2.466c2.362,0.862,5.019,2.958,6.79,4.315c0,0.739,0,1.479,0.887,2.465
		c6.496-3.699,17.125-8.383,24.507-10.233c0-1.233-0.296-2.096-1.476-2.343c0.589-2.218,1.18-6.411,2.656-8.014l-3.838,0.741
		c0.296,0.493,0.591,0.986,0.887,1.727c-0.591-0.124-1.182-0.372-1.182-0.617v3.822
		C211.478,315.402,211.773,315.156,212.364,315.033L212.364,315.033z M345.823,417.486L345.823,417.486l-3.545-1.11l1.771-1.972
		c0.296,0.74,0.887,1.355,1.183,1.972C345.527,416.747,345.527,417.116,345.823,417.486L345.823,417.486z M180.181,320.951
		L180.181,320.951c0,0.74,0.59,1.479,1.476,1.479c0.885,0,1.476-0.617,1.476-1.479s-0.59-1.479-1.476-1.479
		C180.771,319.472,180.181,320.088,180.181,320.951L180.181,320.951z M233.622,490.473L233.622,490.473
		c4.429,0.371,3.544-0.246,5.907,0.371c2.36,0.245,2.36-1.603,3.838-1.603c2.066,0.122,2.952,3.82,0.295,4.808
		c5.314-0.74,5.905-4.932,5.018-6.905c-0.591-0.862,0.296-0.862,0.887-1.109c0.589-0.122,0.589-0.615,1.771-0.37
		c1.771,0.37,3.543,1.603,2.952,3.329c2.658-3.081,2.067-7.027-2.656-8.261c-1.182-0.369,1.476-3.081-5.611-3.205
		c-5.905,0-2.656,2.712-6.79,2.59c-3.544-0.494-7.972-3.083-11.81-5.918c-6.792-5.056-8.563-8.508-8.858-10.356
		c-0.295-1.233,0.59-2.712,1.771-3.945c2.658-2.342,6.201-4.933,7.381-6.287c4.134-5.426,3.249-13.07-8.562-19.11
		c-4.429-2.343-6.496-3.452-8.562-3.945c-0.887,1.479-6.2,10.109-7.087,11.836c2.067,1.727,4.725,3.822,6.792,8.26
		c1.476,2.96,1.18,6.41,0,9.001c-0.887,1.849-1.771,3.206-3.838,3.944c-1.478,0.247-2.066,0.371-1.771,2.343
		c0.59,2.466,2.952,1.849,2.952,5.178c0.295,2.836,2.658,7.645,5.905,10.604c0.887,0.862,0.887,0.985,1.182,1.603
		c0-1.974,1.476-2.591,0.295-7.521c1.18,0.492,2.361,2.096,2.361,3.081c1.182,5.795,2.953,9.986,8.563,9.862
		c-3.248-1.972-0.885-6.163,2.067-3.082C230.08,487.884,230.375,490.227,233.622,490.473L233.622,490.473z M300.353,323.91
		L300.353,323.91v-4.438c0,0-1.476,0.862-2.954,0.862c0,0.864,0,14.179,0,14.179h2.954v-7.397
		c7.085-1.603,12.105-6.411,18.897-6.411c7.085,0,12.105,5.671,12.105,11.835c0,5.794-1.478,7.643-1.478,7.643l2.657,0.987
		c0,0,2.658-3.206,2.658-9.124c0-8.013-5.905-15.041-13.583-15.041C312.458,317.005,306.849,322.06,300.353,323.91L300.353,323.91z
		 M290.609,327.116L290.609,327.116v7.397h2.952c0,0,0-13.315,0-14.179c-1.771,0-2.952-0.862-2.952-0.862v4.438
		c-6.496-1.85-12.105-6.905-21.259-6.905c-7.972,0-13.582,7.028-13.582,15.041c0,5.918,2.361,8.754,2.361,8.754l2.658-1.233
		c0,0-1.476-1.232-1.476-7.026c0-6.165,5.314-11.835,12.106-11.835C278.503,320.705,283.227,325.513,290.609,327.116
		L290.609,327.116z M296.81,343.267L296.81,343.267c3.543-0.372,6.201-3.453,6.201-4.193v10.604c0-0.74-2.363-3.946-6.496-4.315
		c0.295,5.301,3.838,7.273,9.151,7.643c3.543,0.371,6.201-0.615,6.496-3.698c0.296-2.22-0.591-3.823-2.066-3.944
		c-1.181,0-2.362,1.725-2.658,2.958c0,0.74-0.589,1.11-1.18,1.479c0.885-1.972-1.477-4.561-0.592-7.643
		c0.296-1.727,1.477-3.329,3.249-3.083c3.838,0.493,4.428,6.782,4.428,7.892c0.296,0.37,0.591,0.493,0.887,0.122
		c0.887-2.589,2.953-6.78,6.2-6.411c2.362,0.248,2.953,1.974,2.658,4.07c-0.296,3.944-3.249,4.808-2.362,7.149
		c-0.887-0.615-1.183-1.479-0.887-2.588c0-1.11-0.589-2.342-1.771-2.466c-2.066-0.369-2.658,1.11-2.951,2.836
		c-0.592,3.451,3.838,5.301,7.381,5.301c2.657,0,4.725-0.493,6.495-3.206c-0.295-0.247-0.295-0.493-0.295-0.864v-0.122
		c-2.067-0.248-5.314,0.615-6.2,2.218l3.838-9.617c-0.591,1.974,1.476,4.315,3.543,5.425c0.591-3.575-1.181-8.014-2.067-8.507
		l8.563,3.822c-1.476,1.234-2.952,2.958-4.43,5.054c0.591,0.248,1.183,0.988,1.183,1.727c0,1.233-0.887,2.096-2.363,2.096
		c0,0-0.295,0-0.591-0.122c-0.885,1.849-1.476,3.944-2.362,6.04c-6.2-2.465-17.42-4.315-32.479-4.315
		c-14.763,0-25.982,1.603-32.183,4.193c-0.886-2.098-1.476-4.069-2.362-5.918c-0.295,0.122-0.591,0.122-0.885,0.122
		c-1.182,0-2.067-0.862-2.067-2.096c0-0.739,0.294-1.355,0.885-1.727c-1.18-2.342-2.658-4.191-3.838-5.547l8.267-3.329
		c-1.18,0.493-3.247,4.562-2.362,8.63c2.067-0.986,4.429-4.068,3.838-6.042l3.544,9.864c-0.887-1.972-3.84-2.467-6.201-1.972v0.122
		c0,0.371,0,0.617,0,0.864c1.476,2.589,3.838,2.958,6.201,2.958c3.838,0,7.972-2.096,7.676-5.425
		c-0.296-2.096-1.476-3.452-2.953-3.206c-1.181,0.124-2.067,2.096-1.771,3.329c0,0.74-0.296,1.233-0.885,1.727
		c0.294-2.096-2.658-4.192-2.658-7.152c0-1.972,0.885-3.698,2.658-3.822c3.838-0.493,5.905,5.549,6.201,6.658
		c0.294,0.37,0.885,0.37,0.885,0c0.295-2.836,1.476-7.274,4.725-7.644c2.066-0.246,2.952,1.233,3.247,3.329
		c0.886,3.946-2.067,5.425-0.591,7.397c-0.884-0.246-1.476-1.11-1.476-2.22c0-1.232-0.885-2.22-2.067-2.096
		c-2.067,0.247-2.656,1.85-2.362,3.575c0.295,3.083,2.953,4.193,6.496,3.822c5.02-0.369,8.858-2.342,8.858-7.521
		c-3.543,0.248-6.496,3.453-6.496,4.193v-10.604c0,0.864,2.362,3.946,6.496,4.193c-1.182-4.439-6.201-7.151-6.496-7.151h15.648
		C303.011,336.116,297.694,338.335,296.81,343.267L296.81,343.267z M365.604,301.225L365.604,301.225
		c-0.886-1.11-5.02-6.658-6.495-8.385c-0.592-0.986-0.885-1.231-0.592-1.603c0.592-0.369,0.887,0,1.479,0.617l4.723,3.822
		c0.886,0.864,0.886,1.233,0.591,2.219C365.31,299.499,365.014,299.746,365.604,301.225L365.604,301.225z M370.034,306.526
		L370.034,306.526c-1.182-1.109-3.249-3.453-3.249-4.808c-0.295-1.479,0.591-2.589,0-3.698c2.362,2.465,3.545,2.836,3.249,5.054
		C369.739,304.676,370.034,305.54,370.034,306.526L370.034,306.526z M374.464,311.827L374.464,311.827
		c-0.887-1.109-2.953-2.958-2.953-4.561c0-1.85,0.295-3.206,0-4.687c2.066,2.096,3.542,2.836,3.542,4.808
		C375.053,309.608,374.464,310.472,374.464,311.827L374.464,311.827z M380.073,318.607L380.073,318.607
		c-0.887-1.108-3.839-3.575-3.839-6.164c-0.295-2.096,0.296-3.453,0-5.301c1.477,1.479,4.134,3.329,4.43,5.917
		C380.664,315.156,379.481,316.883,380.073,318.607L380.073,318.607z M384.798,324.403L384.798,324.403
		c-1.478-1.48-3.545-3.329-3.545-5.056c0-2.219,0.887-4.684,0.592-6.658c2.362,2.098,4.725,3.946,4.725,6.658
		C386.569,321.32,384.502,322.923,384.798,324.403L384.798,324.403z M395.426,442.144L395.426,442.144c0,0-3.838-5.425-4.429-6.411
		c-7.086,1.603-16.829,0.493-20.373,9.123c-1.771,4.192-3.543,10.603,0.887,14.549c2.362,2.219,7.087,7.027,3.838,10.974
		c-0.885,1.479-3.543,2.219-5.314,2.834c-7.972,2.96-14.468,3.946-18.897,4.562c-2.362,0.369-4.429,1.727-7.087,4.439
		c-2.066,2.217-5.313,5.67-7.381,7.396c4.134,0.616,3.543,0.245,5.609-2.467c1.478-2.342,1.478-2.096,2.658-3.451
		c0.296-0.124,0.296,0.369,0.296,0.617c-1.183,2.341-3.543,5.794-3.839,6.656c2.656,0.123,7.086,0.371,10.335-2.096
		c0.295-0.124,0.885-1.479,0.885-2.713c0-0.369,0.295-1.355-0.296-1.479c-0.885-0.124-1.181-1.11-0.885-1.973
		c0.296-0.864,0.885-1.356,2.067-1.233c2.362,0.369,2.951,3.206,3.246,3.453c2.363,0.862,9.154-3.329,28.641-12.207
		c1.477-0.616,2.954-2.958,0.592-3.329c-1.181-0.246-2.954-3.451-2.363-7.519c0.887-6.289,4.135-8.138,10.039-8.016
		C393.359,449.664,394.837,444.239,395.426,442.144L395.426,442.144z M188.742,308.869L188.742,308.869
		c0-0.864,0.887-1.481,1.773-1.481c0.589,0,0.885,0.248,1.18,0.617c0-0.37,0.295-0.739,0.295-1.11c0.295-1.11,0-2.22-0.295-3.329
		c-1.476,0.864-2.362,2.467-2.362,2.959l-1.771-4.068c0.591,0.739,2.362,0.863,3.838,0.493c-0.591-1.11-1.476-2.096-2.952-2.712
		l3.838-1.603c-0.295,1.355-0.295,2.712,0,3.822c1.476-0.617,2.362-1.727,2.067-2.59l1.476,4.069
		c-0.295-0.371-1.771-0.986-3.247-0.74c0.59,1.109,1.476,1.973,2.361,2.588c0.591,0.124,0.886,0.248,1.182,0.371
		c-0.296-0.371,0-0.863,0.295-1.233c0.589-0.616,1.476-0.616,2.067,0c0.589,0.617,0.589,1.479,0,2.096
		c-0.296,0.493-0.887,0.617-1.478,0.369c0,0.248,0.295,0.741,0.295,1.11c-0.295,1.48-1.476,2.712-2.952,2.712
		c-1.182-0.124-2.067-0.739-2.658-1.848c0,0.616-0.591,0.986-1.476,0.986C189.629,310.348,188.742,309.608,188.742,308.869
		L188.742,308.869z M178.999,317.376L178.999,317.376c0-0.74,0.591-1.479,1.476-1.479c0.886,0.122,1.773,0.739,1.773,1.603
		c-0.296,0.862-0.887,1.479-1.773,1.479C179.59,318.855,178.999,318.238,178.999,317.376L178.999,317.376z M179.886,313.923
		L179.886,313.923c0-0.862,0.589-1.479,1.476-1.479c0.887,0,1.476,0.741,1.476,1.479c0,0.864-0.589,1.479-1.476,1.479
		C180.475,315.402,179.886,314.664,179.886,313.923L179.886,313.923z M182.248,311.21L182.248,311.21
		c0-0.862,0.884-1.479,1.771-1.479c0.59,0,1.181,0.74,1.181,1.479c0,0.864-0.591,1.479-1.476,1.479
		C182.837,312.689,182.248,312.075,182.248,311.21L182.248,311.21z M185.495,309.731L185.495,309.731
		c0-0.862,0.887-1.479,1.476-1.479c0.887,0,1.478,0.617,1.478,1.479s-0.591,1.479-1.478,1.479
		C186.382,311.21,185.495,310.472,185.495,309.731L185.495,309.731z M212.955,307.267L212.955,307.267
		c0.589,0.615,0.589,1.603,0,2.096c-0.295,0.616-1.478,0.616-2.067,0.122c-0.591-0.615-0.591-1.603,0-2.217
		C211.478,306.773,212.364,306.773,212.955,307.267L212.955,307.267z M211.773,304.307L211.773,304.307
		c-0.591-0.617-1.771-0.617-2.363,0c-0.295,0.616-0.295,1.479,0,2.096c0.591,0.493,1.772,0.493,2.363,0
		C212.068,305.786,212.068,304.923,211.773,304.307L211.773,304.307z M208.526,302.211L208.526,302.211
		c0.59,0.616,0.59,1.603,0,2.096c-0.591,0.616-1.478,0.616-2.067,0.124c-0.591-0.617-0.591-1.604,0-2.22
		C207.048,301.718,207.935,301.594,208.526,302.211L208.526,302.211z M204.981,302.087L204.981,302.087
		c0.591,0.616,0.591,1.479,0,2.096c-0.589,0.617-1.476,0.617-2.067,0c-0.589-0.493-0.589-1.479,0-2.096
		C203.21,301.471,204.393,301.471,204.981,302.087L204.981,302.087z M201.439,303.197L201.439,303.197
		c-0.589-0.494-1.476-0.494-2.067,0c-0.589,0.616-0.589,1.603,0,2.219c0.591,0.493,1.478,0.493,2.067-0.124
		C202.03,304.8,202.03,303.813,201.439,303.197L201.439,303.197z M349.661,501.815L349.661,501.815
		c2.362,0.74,4.43-0.124,5.019-2.22c0.887-2.096,0.296-4.067-2.362-4.932l-0.885-0.369l-2.658,7.151L349.661,501.815
		L349.661,501.815z M197.01,310.594L197.01,310.594l0.886,2.836l-2.362,0.986l-1.477-2.712l0.296,0.124
		C195.238,311.827,196.125,311.334,197.01,310.594z"/>
</g>
</svg>
