<?xml version="1.0" encoding="UTF-8"?>
<svg width="20px" height="21px" viewBox="0 0 20 21" version="1.1" xmlns="http://www.w3.org/2000/svg" xmlns:xlink="http://www.w3.org/1999/xlink">
    <!-- Generator: Sketch 39.1 (31720) - http://www.bohemiancoding.com/sketch -->
    <title>Slice 1</title>
    <desc>Created with Sketch.</desc>
    <defs></defs>
    <g id="Page-1" stroke="none" stroke-width="1" fill="none" fill-rule="evenodd">
        <g id="Group" fill="#FFFFFF">
            <path d="M17.1,0 C17.9,0 18.6,0.3 19.2,0.9 C19.7,1.4 20,2.1 20,2.9 L20,17.1 C20,17.9 19.7,18.6 19.1,19.2 C18.5,19.8 17.8,20.1 17,20.1 L2.9,20.1 C2.1,20.1 1.4,19.8 0.8,19.2 C0.2,18.6 0,17.9 0,17.1 L0,2.9 C0,2.1 0.3,1.4 0.9,0.8 C1.5,0.2 2.1,0 2.9,0 L17.1,0 L17.1,0 Z M10,6.2 C9,6.2 8.1,6.6 7.3,7.3 C6.5,8 6.3,9 6.3,10 C6.3,11 6.7,11.9 7.4,12.7 C8.1,13.4 9,13.8 10.1,13.8 C11.1,13.8 12,13.4 12.8,12.7 C13.5,12 13.9,11.1 13.9,10 C13.9,8.9 13.5,8.1 12.8,7.3 C11.9,6.6 11,6.2 10,6.2 L10,6.2 Z M17.9,17.5 L17.9,8.7 L15.7,8.7 C15.8,9.1 15.8,9.5 15.8,9.9 C15.8,11 15.5,11.9 15,12.8 C14.5,13.7 13.8,14.4 12.9,14.9 C12,15.4 11,15.7 10,15.7 C9,15.7 8,15.6 7.1,15 C6.2,14.5 5.5,13.8 5,12.9 C4.4,12 4.2,11.1 4.2,10 C4.2,9.6 4.2,9.1 4.3,8.8 L2.1,8.8 L2.1,17.5 C2.1,17.6 2.1,17.7 2.2,17.8 C2.3,17.9 2.4,17.9 2.5,17.9 L17.5,17.9 C17.6,17.9 17.7,17.9 17.8,17.8 C17.9,17.7 17.9,17.6 17.9,17.5 L17.9,17.5 L17.9,17.5 Z M17.9,5 L17.9,2.5 C17.9,2.4 17.9,2.3 17.8,2.2 C17.7,2.1 17.6,2.1 17.5,2.1 L15,2.1 C14.9,2.1 14.8,2.1 14.7,2.2 C14.6,2.3 14.6,2.4 14.6,2.5 L14.6,5 C14.6,5.1 14.6,5.2 14.7,5.3 C14.8,5.4 14.9,5.4 15,5.4 L17.5,5.4 C17.6,5.4 17.7,5.4 17.8,5.3 C17.9,5.2 17.9,5.1 17.9,5 L17.9,5 Z" id="Shape"></path>
        </g>
    </g>
</svg>