<?xml version="1.0" encoding="UTF-8"?>
<svg width="154px" height="49px" viewBox="0 0 154 49" version="1.1" xmlns="http://www.w3.org/2000/svg" xmlns:xlink="http://www.w3.org/1999/xlink">
    <!-- Generator: Sketch 39.1 (31720) - http://www.bohemiancoding.com/sketch -->
    <title>Slice 1</title>
    <desc>Created with Sketch.</desc>
    <defs></defs>
    <g id="Page-1" stroke="none" stroke-width="1" fill="none" fill-rule="evenodd">
        <g id="Group" transform="translate(46.000000, 9.000000)" fill="#231F20">
            <rect id="Rectangle-path" x="16.885" y="0.398" width="2.978" height="2.958"></rect>
            <path d="M16.836,16.256 L33.836,16.256 L33.836,16.25 C37.322,16.145 38.595,14.067 38.595,11.521 L38.595,0.371 L35.617,0.371 L35.617,11.521 C35.617,11.816 35.544,12.113 35.393,12.385 C35.096,12.926 34.724,13.298 33.557,13.298 L27.325,13.298 C26.977,12.978 26.729,12.532 26.556,11.965 C26.132,10.658 26.481,9.621 27.598,8.782 C27.995,8.51 28.491,8.364 29.11,8.364 C30.354,8.364 31.321,8.905 32.015,9.966 L34.074,7.698 C33.181,6.538 32.015,5.797 30.6,5.477 C29.11,5.133 27.746,5.305 26.456,5.948 C25.239,6.687 24.347,7.648 23.851,8.834 C23.527,9.598 23.354,10.387 23.354,11.226 C23.354,11.917 23.503,12.607 23.777,13.299 L21.527,13.299 L21.527,5.233 L16.838,5.233 C14.182,5.233 12.073,7.353 12.073,9.967 L12.049,9.967 L12.049,11.522 L12.073,11.522 C12.073,12.163 12.173,12.753 12.395,13.298 L10.033,13.298 L10.033,7.476 L9.982,7.476 L9.982,5.233 L5.291,5.233 C2.659,5.233 0.526,7.329 0.5,9.944 L0.5,16.257 L6.928,16.257 C6.431,18.281 4.595,19.786 2.41,19.786 L0.699,19.786 L0.699,22.746 L2.411,22.746 C6.233,22.746 9.41,19.909 9.956,16.257 L16.663,16.257 L16.836,16.256 Z M7.003,13.297 L3.478,13.297 L3.478,9.966 L3.503,9.966 C3.503,9.647 3.576,9.35 3.702,9.104 C4.024,8.561 4.595,8.19 5.29,8.19 L7.002,8.19 L7.002,13.297 L7.003,13.297 Z M15.049,11.521 L15.024,11.521 L15.024,9.966 L15.049,9.966 C15.049,9.671 15.124,9.374 15.248,9.129 C15.57,8.561 16.141,8.19 16.836,8.19 L18.548,8.19 L18.548,13.297 L16.736,13.297 C16.464,13.297 16.19,13.197 15.969,13.073 C15.422,12.779 15.049,12.211 15.049,11.521 L15.049,11.521 Z" id="Shape"></path>
            <rect id="Rectangle-path" x="40.68" y="0.372" width="2.977" height="15.885"></rect>
            <rect id="Rectangle-path" x="53.007" y="0.398" width="2.978" height="2.958"></rect>
            <rect id="Rectangle-path" x="57.026" y="0.398" width="2.978" height="2.958"></rect>
            <rect id="Rectangle-path" x="81.467" y="0.443" width="2.977" height="2.96"></rect>
            <rect id="Rectangle-path" x="92.333" y="0.398" width="2.978" height="2.958"></rect>
            <path d="M107.475,14.802 L107.475,7.475 L102.784,7.475 C100.154,7.475 98.02,9.597 98.02,12.211 L98.02,13.297 L97.098,13.297 C96.428,13.297 95.832,12.902 95.533,12.334 C95.385,12.086 95.311,11.793 95.311,11.494 L95.311,5.822 L92.333,5.822 L92.333,11.494 C92.333,11.816 92.26,12.113 92.111,12.359 C91.812,12.902 91.218,13.297 90.546,13.297 L89.952,13.297 L89.952,10.656 C89.952,8.091 87.941,6.019 85.385,5.922 L81.042,5.922 C79.776,5.922 78.634,6.415 77.767,7.204 L77.767,0.395 L74.787,0.395 L74.787,13.296 L72.481,13.296 L72.481,13.298 L72.07,13.298 L72.07,7.476 L67.38,7.476 C64.751,7.476 62.616,9.598 62.616,12.212 L62.616,13.298 L59.93,13.298 L59.93,5.23 L55.239,5.23 C52.61,5.23 50.475,7.326 50.475,9.943 L50.45,9.943 L50.45,11.522 L50.475,11.522 C50.475,14.136 52.61,16.256 55.239,16.256 L62.815,16.256 C63.434,18.155 65.221,19.537 67.333,19.537 L67.357,19.537 C69.466,19.537 71.253,18.156 71.875,16.256 L74.382,16.256 L74.382,16.254 L74.789,16.254 L74.789,16.281 L77.769,16.281 L77.769,16.254 L89.73,16.254 L89.73,16.256 L90.548,16.256 C91.814,16.256 92.98,15.764 93.825,14.949 C94.618,15.693 95.641,16.168 96.778,16.244 L96.778,16.256 L98.219,16.256 C98.84,18.155 100.627,19.537 102.737,19.537 L102.762,19.537 C105.392,19.537 107.502,17.415 107.502,14.803 L107.475,14.802 Z M56.953,13.297 L55.19,13.297 C54.891,13.272 54.62,13.197 54.372,13.073 C53.826,12.778 53.454,12.186 53.454,11.521 L53.427,11.521 L53.427,9.966 L53.454,9.966 C53.454,9.646 53.527,9.349 53.651,9.104 C53.975,8.561 54.545,8.19 55.239,8.19 L56.953,8.19 L56.953,13.297 L56.953,13.297 Z M69.094,15.023 C69.069,15.269 69.019,15.467 68.895,15.664 C68.596,16.205 68.026,16.577 67.356,16.577 C66.686,16.577 66.09,16.206 65.793,15.664 C65.644,15.393 65.569,15.121 65.569,14.802 L65.569,12.211 L65.594,12.211 C65.594,11.891 65.669,11.619 65.816,11.347 C66.115,10.804 66.685,10.434 67.379,10.434 L69.093,10.434 L69.093,15.023 L69.094,15.023 Z M86.974,13.295 L77.767,13.295 L77.767,10.286 C77.94,9.471 78.661,8.879 79.529,8.879 L85.187,8.879 C86.18,8.879 86.974,9.668 86.974,10.655 L86.974,13.295 L86.974,13.295 Z M104.496,15.023 C104.472,15.269 104.398,15.467 104.297,15.664 C104,16.205 103.404,16.577 102.759,16.577 C102.063,16.577 101.493,16.206 101.196,15.664 C101.047,15.393 100.97,15.121 100.97,14.802 L100.97,12.211 L100.995,12.211 C100.995,11.891 101.07,11.619 101.195,11.347 C101.517,10.804 102.088,10.434 102.782,10.434 L104.494,10.434 L104.494,15.023 L104.496,15.023 Z" id="Shape"></path>
            <rect id="Rectangle-path" x="17.671" y="21.973" width="2.381" height="2.366"></rect>
            <rect id="Rectangle-path" x="14.458" y="21.973" width="2.381" height="2.366"></rect>
            <rect id="Rectangle-path" x="38.871" y="36.939" width="2.381" height="2.365"></rect>
            <rect id="Rectangle-path" x="42.083" y="36.939" width="2.381" height="2.365"></rect>
            <path d="M57.345,30.865 C57.345,31.101 57.287,31.337 57.167,31.555 C56.929,31.99 56.631,32.285 55.699,32.285 L44.464,32.285 L44.464,32.265 C43.928,32.265 43.453,31.968 43.213,31.516 C43.094,31.319 43.035,31.083 43.035,30.846 L43.035,26.311 L40.656,26.311 L40.656,30.846 C40.656,31.101 40.597,31.337 40.476,31.534 C40.238,31.967 39.763,32.284 39.227,32.284 L19.993,32.284 L19.993,25.836 L16.242,25.836 C14.139,25.836 12.434,27.513 12.434,29.601 L12.414,29.601 L12.414,30.864 L12.434,30.864 C12.434,32.954 14.14,34.649 16.242,34.649 L39.227,34.649 C40.238,34.649 41.17,34.236 41.846,33.605 C42.54,34.236 43.453,34.629 44.465,34.629 L44.465,34.649 L55.739,34.649 C58.665,34.634 59.727,32.944 59.727,30.864 L59.727,21.952 L57.346,21.952 L57.345,30.865 Z M17.612,32.285 L16.203,32.285 C15.965,32.265 15.746,32.206 15.55,32.108 C15.112,31.87 14.815,31.398 14.815,30.865 L14.795,30.865 L14.795,29.624 L14.815,29.624 C14.815,29.368 14.874,29.13 14.975,28.934 C15.231,28.501 15.689,28.202 16.243,28.202 L17.613,28.202 L17.613,32.285 L17.612,32.285 Z" id="Shape"></path>
            <path d="M70.696,25.837 L66.927,25.837 C64.824,25.837 63.12,27.514 63.12,29.602 L63.1,29.602 L63.1,34.65 L68.237,34.65 C67.86,36.267 66.372,37.47 64.627,37.47 L63.257,37.47 L63.257,39.836 L64.627,39.836 C67.997,39.836 70.716,37.114 70.716,33.783 L70.716,27.632 L70.696,27.632 L70.696,25.837 Z M68.315,32.285 L65.479,32.285 L65.479,29.624 L65.498,29.624 C65.498,29.368 65.559,29.13 65.678,28.934 C65.916,28.501 66.392,28.202 66.927,28.202 L68.315,28.202 L68.315,32.285 L68.315,32.285 Z" id="Shape"></path>
            <path d="M87.597,30.865 C87.597,31.101 87.538,31.337 87.417,31.555 C87.178,31.99 86.881,32.285 85.949,32.285 L82.511,32.285 C81.359,32.285 81.004,31.851 80.844,31.241 C80.824,31.121 80.803,31.003 80.785,30.883 L80.785,30.864 C80.288,28.005 77.788,25.836 74.774,25.836 L74.774,28.201 C76.539,28.201 78.007,29.405 78.404,31.021 C78.385,31.22 78.324,31.397 78.224,31.554 C77.988,31.989 77.511,32.284 76.977,32.284 L73.384,32.284 L73.384,34.649 L76.977,34.649 C77.988,34.649 78.92,34.254 79.594,33.625 C80.183,34.173 80.575,34.544 81.875,34.63 L81.875,34.649 L86.275,34.649 L86.275,34.642 C88.984,34.521 89.976,32.874 89.976,30.864 L89.976,21.952 L87.597,21.952" id="Shape"></path>
            <rect id="Rectangle-path" x="92.868" y="21.955" width="2.381" height="12.697"></rect>
        </g>
        <g id="Group" fill="#231F20">
            <path d="M24.526,30.123 C24.299,30.024 24.27,29.313 24.14,29.313 C23.943,29.313 23.842,29.96 23.46,30.056 C23.066,30.123 22.484,29.636 22.319,29.762 C22.155,29.896 22.686,30.817 21.81,30.817 C21.548,30.817 21.414,30.519 21.414,30.293 L21.414,23.218 C21.414,23.218 21.444,23.208 21.836,23.305 C22.094,23.372 22.354,23.5 22.354,23.859 C22.354,24.05 22.285,24.441 22.417,24.508 C22.553,24.575 22.644,24.441 22.711,24.409 C23.91,23.534 24.203,25.089 24.462,25.089 C24.691,25.089 24.659,24.021 24.982,24.021 C25.244,23.92 27.742,25.123 27.742,25.904 C27.742,26.066 27.415,26.095 27.387,26.261 C27.355,26.49 27.971,26.584 27.872,27.008 C27.837,27.27 27.255,27.593 27.415,27.753 C27.583,27.917 28.361,27.593 28.426,27.593 C28.588,27.593 28.617,27.849 28.617,27.948 C28.617,29.378 25.276,30.45 24.526,30.123 L24.526,30.123 Z M15.632,31.255 C15.437,30.936 15.533,30.382 15.34,30.382 C15.243,30.382 14.725,31.163 14.429,31.163 C14.139,31.163 13.652,30.609 13.457,30.609 C13.327,30.609 13.587,31.39 13.327,31.711 C13.163,31.94 11.606,32.107 11.606,31.91 L11.606,20.87 C11.606,20.352 11.998,20.156 12.351,20.156 L18.162,20.154 C18.874,20.154 19.167,20.379 19.167,21.126 L19.173,31.034 C19.174,31.357 15.76,31.487 15.632,31.255 L15.632,31.255 Z M19.172,45.249 C19.172,45.933 18.941,46.093 18.36,45.965 L12.16,44.731 C11.801,44.668 11.606,44.439 11.606,44.051 L11.606,32.818 C11.606,32.526 12.613,32.493 12.775,32.623 C13.069,32.883 12.97,33.824 13.163,33.824 C13.425,33.824 14.105,32.687 14.399,32.687 C15.016,32.687 15.436,33.044 15.566,32.981 C15.698,32.914 15.698,32.396 15.858,32.265 C16.085,32.107 16.767,32.107 17.124,32.068 C17.711,32.036 18.782,31.94 18.782,31.94 C19.204,31.94 19.172,32.236 19.172,32.853 L19.172,45.249 L19.172,45.249 Z M12.484,12.657 C12.484,8.176 19.108,5.612 19.561,3.339 C20.048,3.794 20.113,4.54 20.113,5.19 C20.113,7.916 15.374,12.494 15.374,15.805 C15.374,16.164 15.406,16.258 15.406,16.487 C15.406,16.81 15.276,16.877 15.213,16.877 C14.429,16.878 12.484,15.35 12.484,12.657 L12.484,12.657 Z M8.815,40.674 C8.297,40.674 7.971,39.633 7.841,39.669 C7.679,39.703 7.876,40.544 7.679,40.674 C7.517,40.834 4.075,39.245 3.815,38.989 C3.586,38.76 3.914,38.437 3.815,38.208 C3.75,38.013 3.228,38.076 3.07,37.977 C2.938,37.849 3.228,37.261 3.038,37.135 C2.87,37.036 2.518,37.72 2.289,37.391 C2.188,37.261 2.161,37.036 2.161,36.744 C2.161,34.763 4.268,33.953 5.699,33.466 C6.281,33.269 6.083,34.016 6.281,34.05 C6.508,34.115 6.541,33.693 6.801,33.693 C6.998,33.693 7.745,34.05 7.905,33.92 C8.035,33.823 7.517,33.336 7.678,33.141 C7.875,32.979 9.381,32.695 9.367,33.082 L9.371,40.019 C9.373,40.747 8.815,40.674 8.815,40.674 L8.815,40.674 Z M29.204,28.726 C29.561,28.111 29.561,27.364 29.691,27.07 C29.882,26.747 30.598,26.81 30.598,26.583 C30.598,26.488 30.08,26.358 29.882,26.228 C29.498,26.001 29.628,24.832 29.433,24.832 C29.137,24.832 28.846,25.642 28.552,25.287 C28.036,24.636 25.891,23.402 24.919,23.046 C24.56,22.916 25.179,21.845 25.018,21.745 C24.854,21.648 24.433,22.398 23.816,22.267 C23.329,22.168 23.556,21.291 23.296,21.291 C23.166,21.291 22.677,22.525 22.32,22.426 C21.93,22.329 21.415,22.189 21.415,22.189 L21.415,18.954 C21.415,18.402 21.044,17.974 20.567,17.978 L17.06,17.978 C16.086,17.978 16.151,17.264 16.151,17.101 C16.151,12.784 22.418,12.07 22.418,6.422 C22.418,3.954 20.861,2.298 19.043,0.835 C18.942,0.772 19.043,1.194 19.043,1.355 C19.043,3.985 9.269,5.349 9.269,11.42 C9.269,16.709 14.53,16.936 14.53,17.75 C14.53,17.912 14.207,17.977 14.173,17.977 L10.148,17.977 C9.726,17.977 9.359,18.237 9.365,18.945 L9.369,22.198 C8.977,22.328 8.46,21.743 8.198,21.743 C8.068,21.743 8.135,22.75 7.906,22.882 C7.711,22.977 4.044,24.276 3.715,24.309 C3.2,24.406 3.331,23.497 3.039,23.497 C2.775,23.497 2.775,24.406 2.126,24.406 C1.738,24.406 1.414,24.047 1.123,24.047 C0.928,24.047 1.543,24.796 1.543,25.021 C1.543,25.64 0.344,25.865 0.344,26.289 C0.344,26.516 1.478,26.192 1.641,26.192 C2.225,26.192 2.161,26.876 2.384,26.876 C2.613,26.876 2.774,26.091 2.971,25.965 C3.357,25.738 3.815,26.127 4.01,26.127 C4.333,26.127 3.75,25.346 4.044,25.216 C4.044,25.216 8,23.531 8.263,23.659 C8.49,23.791 8.46,24.179 8.718,24.31 C8.976,24.438 9.369,23.401 9.369,24.048 L9.369,32.004 C8.912,32.292 7.938,32.459 7.417,32.459 C7.161,32.459 7.287,31.613 7.125,31.613 C6.865,31.613 6.605,32.327 6.216,32.327 C5.859,32.327 5.341,31.452 4.986,31.452 C4.759,31.452 5.404,32.554 5.016,32.749 C3.52,33.498 1.152,34.212 1.152,36.577 C1.152,37.068 1.414,37.655 1.312,37.811 C1.219,38.042 0.701,38.495 0.73,38.69 C0.73,38.885 1.704,38.818 1.901,39.114 C1.996,39.272 2.063,39.987 2.26,39.987 C2.418,39.987 2.84,39.437 3.2,39.63 C4.333,40.314 6.313,41.057 7.225,41.55 C7.448,41.68 7.32,42.392 7.448,42.457 C7.71,42.587 8.227,41.775 9.043,42.228 C9.207,42.295 9.368,42.555 9.368,42.847 L9.364,45.502 C9.364,45.989 9.589,46.117 9.851,46.182 L19.53,48.108 C19.53,48.108 20.39,48.301 20.681,48.301 C21.018,48.315 21.436,48.299 21.412,47.485 L21.408,41.451 C21.408,41.39 21.485,41.242 21.615,41.242 C22.183,41.24 21.897,42.878 22.025,42.878 C22.283,42.878 22.447,41.774 22.774,41.774 C23.227,41.774 23.523,42.196 23.712,42.099 C23.876,42.002 23.619,41.48 23.619,41.155 C23.619,40.865 24.459,40.735 25.5,40.345 C26.409,40.024 27.156,39.665 27.45,39.665 C27.675,39.665 27.834,40.28 28.034,40.28 C28.196,40.28 28.227,39.472 28.586,39.472 C28.876,39.472 29.524,39.923 29.69,39.793 C29.818,39.698 29.365,39.079 29.72,38.817 C29.982,38.655 30.597,38.269 30.597,38.105 C30.597,38.008 29.396,37.973 29.331,37.973 C29.104,37.91 28.844,37.196 28.678,37.196 C28.491,37.196 28.491,37.91 28.195,38.136 C27.933,38.329 27.286,37.454 26.996,37.454 C26.83,37.454 27.187,38.105 27.187,38.627 C27.187,39.143 24.041,40.151 23.619,40.151 C22.968,40.151 22.935,39.339 22.805,39.339 C22.61,39.339 22.616,40.331 21.898,40.331 C21.539,40.331 21.411,40.063 21.411,39.87 L21.411,32.075 C21.411,31.852 21.476,31.549 21.898,31.531 C22.432,31.507 22.446,32.716 22.641,32.716 C22.998,32.716 23.195,31.515 23.875,31.515 C24.395,31.515 24.817,32.231 25.143,32.231 C25.37,32.231 24.755,31.484 24.755,31.125 C24.757,30.772 27.97,30.902 29.204,28.726 L29.204,28.726 Z" id="Shape"></path>
        </g>
    </g>
</svg>