<?xml version="1.0" encoding="UTF-8"?>
<svg width="20px" height="20px" viewBox="0 0 20 20" version="1.1" xmlns="http://www.w3.org/2000/svg" xmlns:xlink="http://www.w3.org/1999/xlink">
    <!-- Generator: Sketch 39.1 (31720) - http://www.bohemiancoding.com/sketch -->
    <title>Slice 1</title>
    <desc>Created with Sketch.</desc>
    <defs></defs>
    <g id="Page-1" stroke="none" stroke-width="1" fill="none" fill-rule="evenodd">
        <g id="Group" fill="#FFFFFF">
            <path d="M9.2,3.1 C8.9,2.8 8.6,2.7 8.2,2.7 C7.7,2.7 7.2,2.9 6.9,3.3 C6.5,3.8 6.4,4.3 6.4,4.8 C6.4,5.5 6.6,6.2 7,7 C7.2,7.4 7.5,7.7 7.8,7.9 C8.1,8.2 8.5,8.3 8.9,8.3 C9.4,8.3 9.8,8.1 10.2,7.7 C10.4,7.5 10.5,7.2 10.5,6.9 L10.5,6.2 C10.5,5.4 10.3,4.6 9.9,3.9 C9.8,3.6 9.5,3.3 9.2,3.1 L9.2,3.1 Z" id="Shape"></path>
            <path d="M9.1,11.4 L8.3,11.4 C7.9,11.5 7.5,11.5 7.1,11.7 C7,11.7 6.9,11.8 6.7,11.9 C6.5,12 6.3,12.1 6.1,12.3 C5.9,12.5 5.8,12.7 5.6,12.9 C5.5,13.1 5.4,13.4 5.4,13.8 C5.4,14.5 5.7,15.1 6.3,15.5 C6.9,15.9 7.7,16.2 8.7,16.2 C9.6,16.2 10.3,16 10.8,15.6 C11.4,15.2 11.6,14.7 11.6,14 C11.6,13.5 11.4,13.1 11.1,12.7 C10.8,12.3 10.2,11.9 9.5,11.4 C9.4,11.4 9.2,11.4 9.1,11.4 L9.1,11.4 Z" id="Shape"></path>
            <path d="M18,0 L2,0 C0.9,0 0,0.9 0,2 L0,18 C0,19.1 0.9,20 2,20 L18,20 C19.1,20 20,19.1 20,18 L20,2 C20,0.9 19.1,0 18,0 L18,0 Z M11.3,3.3 C11.4,3.5 11.6,3.5 11.7,3.7 C11.9,4 12,4.2 12.1,4.5 C12.2,4.8 12.2,5.1 12.2,5.5 C12.2,6.2 12,6.7 11.7,7.2 C11.6,7.4 11.4,7.6 11.2,7.8 C11,8 10.8,8.1 10.6,8.3 C10.5,8.4 10.4,8.6 10.3,8.7 C10.2,8.9 10.1,9 10.1,9.3 C10.1,9.5 10.2,9.7 10.3,9.8 L10.6,10.1 L11.3,10.6 C11.7,10.9 12.1,11.3 12.4,11.7 C12.7,12.1 12.8,12.7 12.9,13.3 C12.9,14.3 12.5,15.1 11.6,15.8 C10.8,16.6 9.5,17 7.9,17 C6.5,17 5.5,16.7 4.8,16.1 C4.1,15.6 3.8,14.9 3.8,14.2 C3.8,13.8 3.9,13.4 4.1,13 C4.3,12.6 4.7,12.2 5.3,11.8 C5.9,11.4 6.6,11.2 7.3,11.1 C8,11 8.5,10.9 9,10.9 C8.9,10.7 8.7,10.5 8.6,10.3 C8.5,10.1 8.4,9.8 8.4,9.6 C8.4,9.4 8.4,9.3 8.5,9.2 C8.5,9.1 8.6,9 8.6,8.9 L8,8.9 C7,8.9 6.2,8.6 5.6,7.9 C5,7.2 4.7,6.5 4.7,5.8 C4.7,4.8 5.1,4 5.9,3.2 C6.5,2.7 7,2.4 7.6,2.3 C8.3,2.1 8.9,2 9.4,2 L13.3,2 L12.1,3.2 L10.9,3.2 C11,3.2 11.2,3.2 11.3,3.3 L11.3,3.3 Z M18.8,5.2 L17,5.2 L17,5.7 L17,6 L17,7 L15.7,7 L15.7,6.1 L15.7,5.7 L15.7,5.2 L15,5.2 L14.7,5.2 L13.7,5.2 L13.7,3.8 L14.6,3.8 L15,3.8 L15.5,3.8 L15.5,2 L16.8,2 L16.8,3.8 L18.6,3.8 L18.6,5.2 L18.8,5.2 Z" id="Shape"></path>
        </g>
    </g>
</svg>