<?xml version="1.0" encoding="UTF-8"?>
<svg width="20px" height="17px" viewBox="0 0 20 17" version="1.1" xmlns="http://www.w3.org/2000/svg" xmlns:xlink="http://www.w3.org/1999/xlink">
    <!-- Generator: Sketch 39.1 (31720) - http://www.bohemiancoding.com/sketch -->
    <title>Slice 1</title>
    <desc>Created with Sketch.</desc>
    <defs></defs>
    <g id="Page-1" stroke="none" stroke-width="1" fill="none" fill-rule="evenodd">
        <path d="M20,2.6 C19.5,3.4 18.8,4.1 18,4.7 L18,5.2 C18,6.1 17.9,7 17.7,7.9 C17.5,8.8 17.1,9.7 16.7,10.6 C16.3,11.5 15.7,12.3 15,13 C14.3,13.8 13.6,14.4 12.7,15 C11.9,15.6 10.9,16 9.8,16.3 C8.7,16.6 7.5,16.8 6.3,16.8 C3.8,16.8 1.7,16.2 0,15.1 C0.3,15.1 0.6,15.2 1,15.2 C1.9,15.2 2.8,15 3.7,14.7 C4.6,14.4 5.4,13.9 6.1,13.3 C5.2,13.3 4.4,13 3.7,12.5 C3,12 2.5,11.3 2.3,10.5 C2.6,10.6 2.8,10.6 3.1,10.6 C3.5,10.6 3.8,10.6 4.2,10.5 C3.3,10.3 2.5,9.8 1.8,9.1 C1.1,8.4 0.8,7.4 0.8,6.4 L0.8,6.4 C1.4,6.7 2,6.9 2.7,6.9 C2.1,6.5 1.6,6 1.3,5.4 C1,4.8 0.8,4.2 0.8,3.5 C0.8,2.8 1,2.2 1.4,1.5 C2.4,2.8 3.7,3.7 5.1,4.5 C6.6,5.2 8.1,5.6 9.8,5.7 C9.8,5.5 9.7,5.1 9.7,4.8 C9.7,3.7 10.1,2.7 10.9,1.9 C11.7,1.1 12.7,0.7 13.8,0.7 C15,0.7 16,1.1 16.8,2 C17.7,1.8 18.6,1.5 19.4,1 C19.1,2 18.5,2.7 17.6,3.3 C18.4,3.1 19.2,2.9 20,2.6 L20,2.6 L20,2.6 Z" id="Shape" fill="#FFFFFF"></path>
    </g>
</svg>