<?xml version="1.0" encoding="UTF-8"?>
<svg width="20px" height="16px" viewBox="0 0 20 16" version="1.1" xmlns="http://www.w3.org/2000/svg" xmlns:xlink="http://www.w3.org/1999/xlink">
    <!-- Generator: Sketch 39.1 (31720) - http://www.bohemiancoding.com/sketch -->
    <title>Slice 1</title>
    <desc>Created with Sketch.</desc>
    <defs></defs>
    <g id="Page-1" stroke="none" stroke-width="1" fill="none" fill-rule="evenodd">
        <g id="Group" fill="#FFFFFF">
            <path d="M10,0.9 C13,0.9 15,0.9 16,1 C17.4,1.1 18.3,1.4 18.9,1.8 C19.4,2.2 19.7,2.9 19.9,3.8 C19.9,4.5 20,5.8 20,7.7 L20,8 C20,10 20,11.3 19.9,11.9 C19.8,12.9 19.5,13.6 19,14 C18.5,14.5 17.6,14.8 16.3,14.9 C15.3,15 13.4,15.1 10.5,15.1 L10,15.1 C7,15.1 5,15.1 4,15 C2.6,14.9 1.7,14.6 1.1,14.2 C0.6,13.8 0.3,13.1 0.1,12.2 C0.1,11.5 0,10.2 0,8.3 L0,8 C0,6 0,4.7 0.1,4.1 C0.2,3.1 0.5,2.4 1,2 C1.5,1.5 2.4,1.2 3.7,1.1 C4.7,1 6.6,0.9 9.5,0.9 C9.6,0.9 10,0.9 10,0.9 L10,0.9 Z M7.5,11.7 L13.7,8 L7.5,4.2 L7.5,11.7 L7.5,11.7 L7.5,11.7 Z" id="Shape"></path>
        </g>
    </g>
</svg>